<svg version="1.1" xmlns="http://www.w3.org/2000/svg" viewBox="0 0 523.7545582197606 567.629183927741" width="1047.5091164395212" height="1135.258367855482">
  <!-- svg-source:excalidraw -->
  
  <defs>
    <style class="style-fonts">
      @font-face {
        font-family: "Virgil";
        src: url("https://excalidraw.com/Virgil.woff2");
      }
      @font-face {
        font-family: "Cascadia";
        src: url("https://excalidraw.com/Cascadia.woff2");
      }
      @font-face {
        font-family: "Assistant";
        src: url("https://excalidraw.com/Assistant-Regular.woff2");
      }
    </style>
    
  </defs>
  <rect x="0" y="0" width="523.7545582197606" height="567.629183927741" fill="#ffffff"></rect><g stroke-linecap="round" transform="translate(38.62232478260984 10) rotate(0 212.5 36.5)"><path d="M18.25 0 C119.48 1.82, 217.92 1.12, 406.75 0 M18.25 0 C154.64 -1.22, 290.53 -1.12, 406.75 0 M406.75 0 C418.27 -0.54, 426.55 6.25, 425 18.25 M406.75 0 C417.66 -2.18, 424.64 4.31, 425 18.25 M425 18.25 C423.13 27.88, 422.94 36.39, 425 54.75 M425 18.25 C425.09 25.54, 424.31 32.31, 425 54.75 M425 54.75 C423.37 67.34, 419.89 74.46, 406.75 73 M425 54.75 C423.95 67.56, 420.42 71.19, 406.75 73 M406.75 73 C265.44 74.18, 125.86 74.38, 18.25 73 M406.75 73 C295.66 72.62, 185.5 73, 18.25 73 M18.25 73 C6.41 73.27, -0.12 65.54, 0 54.75 M18.25 73 C6.66 72.93, 1.18 68.7, 0 54.75 M0 54.75 C-0.37 43.23, -1.28 28.92, 0 18.25 M0 54.75 C-0.63 43.07, 0.45 31.65, 0 18.25 M0 18.25 C0.34 4.21, 5.12 0.2, 18.25 0 M0 18.25 C0.97 6.03, 4.71 -1.9, 18.25 0" stroke="#1e1e1e" stroke-width="2" fill="none"></path></g><g transform="translate(219.9823253929614 24) rotate(0 31.139999389648438 22.5)"><text x="31.139999389648438" y="31.536" font-family="Virgil, Segoe UI Emoji" font-size="36px" fill="#1e1e1e" text-anchor="middle" style="white-space: pre;" direction="ltr" dominant-baseline="alphabetic">표현</text></g><g stroke-linecap="round" transform="translate(41.12232478260984 97.5) rotate(0 212.5 36.5)"><path d="M18.25 0 C165.47 2.91, 312.02 2.63, 406.75 0 M18.25 0 C167.98 -0.2, 317.24 0.29, 406.75 0 M406.75 0 C419.88 -0.44, 423.27 5.67, 425 18.25 M406.75 0 C417.94 1.21, 423.76 5.32, 425 18.25 M425 18.25 C426.57 31.6, 424.89 46.59, 425 54.75 M425 18.25 C425.33 31.18, 426.03 42.24, 425 54.75 M425 54.75 C423.94 66.47, 417.75 73.91, 406.75 73 M425 54.75 C425.5 65.12, 420.5 72.82, 406.75 73 M406.75 73 C266.76 72.81, 123.84 71.14, 18.25 73 M406.75 73 C287.26 70.82, 167.56 71.68, 18.25 73 M18.25 73 C5.69 72.31, 1.92 67.58, 0 54.75 M18.25 73 C7.34 70.83, 0.17 68.78, 0 54.75 M0 54.75 C-0.11 44.63, -1.17 36.23, 0 18.25 M0 54.75 C-0.53 43.23, -0.58 30.83, 0 18.25 M0 18.25 C-1.06 7.38, 7.34 -1.04, 18.25 0 M0 18.25 C0.34 7.41, 7.86 0.03, 18.25 0" stroke="#1e1e1e" stroke-width="2" fill="none"></path></g><g transform="translate(222.4823253929614 111.5) rotate(0 31.139999389648438 22.5)"><text x="31.139999389648438" y="31.536" font-family="Virgil, Segoe UI Emoji" font-size="36px" fill="#1e1e1e" text-anchor="middle" style="white-space: pre;" direction="ltr" dominant-baseline="alphabetic">응용</text></g><g stroke-linecap="round" transform="translate(43.12232478260984 276.5) rotate(0 212.5 36.5)"><path d="M18.25 0 C147.27 1.55, 276.15 1.15, 406.75 0 M18.25 0 C111.33 0.17, 203.36 0.11, 406.75 0 M406.75 0 C420.65 -1.9, 423.24 5.42, 425 18.25 M406.75 0 C417.62 -2.09, 424.81 8.33, 425 18.25 M425 18.25 C425.03 31.9, 426.89 45.91, 425 54.75 M425 18.25 C426.09 30.7, 424.69 41.59, 425 54.75 M425 54.75 C423.17 64.99, 420.23 72.25, 406.75 73 M425 54.75 C422.89 67.21, 419.36 74.82, 406.75 73 M406.75 73 C271.92 72.22, 137.13 73.54, 18.25 73 M406.75 73 C255.08 70.89, 104.34 71.09, 18.25 73 M18.25 73 C8.01 74.97, -0.49 67.01, 0 54.75 M18.25 73 C8.16 71.92, -1.18 65.2, 0 54.75 M0 54.75 C-0.21 41.34, -1.81 25.49, 0 18.25 M0 54.75 C-0.79 46.5, 0.46 37.66, 0 18.25 M0 18.25 C1.48 5.3, 5.3 -1.21, 18.25 0 M0 18.25 C1.99 4.2, 4.69 0.73, 18.25 0" stroke="#1e1e1e" stroke-width="2" fill="none"></path></g><g transform="translate(146.6323269188403 290.5) rotate(0 108.98999786376953 22.5)"><text x="108.98999786376953" y="31.536" font-family="Virgil, Segoe UI Emoji" font-size="36px" fill="#1e1e1e" text-anchor="middle" style="white-space: pre;" direction="ltr" dominant-baseline="alphabetic">인프라스트럭처</text></g><g stroke-linecap="round" transform="translate(44.12232478260984 184.5) rotate(0 212.5 36.5)"><path d="M18.25 0 C137.1 1.3, 255.7 -0.17, 406.75 0 M18.25 0 C96.47 1.56, 175.52 2.57, 406.75 0 M406.75 0 C418.18 -0.19, 423.84 7.35, 425 18.25 M406.75 0 C417.93 -0.35, 424.29 5.18, 425 18.25 M425 18.25 C422.68 29.61, 424.87 39.47, 425 54.75 M425 18.25 C424.59 27.03, 424.83 34.25, 425 54.75 M425 54.75 C423.18 64.92, 418.84 72.63, 406.75 73 M425 54.75 C423.54 66.58, 417.63 74.3, 406.75 73 M406.75 73 C293.07 73.95, 178.11 72.2, 18.25 73 M406.75 73 C298.25 71.41, 190.08 71.23, 18.25 73 M18.25 73 C8.01 74.23, -0.62 68.8, 0 54.75 M18.25 73 C5.71 71.05, -2.19 68.34, 0 54.75 M0 54.75 C-0.54 41.57, 0.74 27.57, 0 18.25 M0 54.75 C0.55 40.4, 0.84 26.58, 0 18.25 M0 18.25 C-1.71 5.64, 7.46 0.8, 18.25 0 M0 18.25 C2.12 6.84, 8.27 0.89, 18.25 0" stroke="#1e1e1e" stroke-width="2" fill="none"></path></g><g transform="translate(209.91232569813718 198.5) rotate(0 46.709999084472656 22.5)"><text x="46.709999084472656" y="31.536" font-family="Virgil, Segoe UI Emoji" font-size="36px" fill="#1e1e1e" text-anchor="middle" style="white-space: pre;" direction="ltr" dominant-baseline="alphabetic">도메인</text></g><g stroke-linecap="round" transform="translate(178.4637856861604 430.0770409347556) rotate(0 86.02620182031467 12.134893781396329)"><path d="M172.05 12.13 C172.05 12.62, 171.84 13.11, 171.43 13.6 C171.01 14.08, 170.38 14.57, 169.55 15.04 C168.73 15.51, 167.69 15.98, 166.46 16.44 C165.24 16.89, 163.8 17.34, 162.2 17.77 C160.59 18.21, 158.79 18.63, 156.82 19.03 C154.86 19.43, 152.71 19.82, 150.42 20.18 C148.13 20.55, 145.66 20.89, 143.07 21.22 C140.48 21.54, 137.74 21.84, 134.89 22.12 C132.05 22.4, 129.07 22.65, 126 22.88 C122.94 23.11, 119.76 23.31, 116.53 23.48 C113.3 23.65, 109.97 23.8, 106.61 23.92 C103.26 24.03, 99.83 24.12, 96.4 24.18 C92.96 24.24, 89.48 24.27, 86.03 24.27 C82.57 24.27, 79.09 24.24, 75.66 24.18 C72.23 24.12, 68.79 24.03, 65.44 23.92 C62.08 23.8, 58.75 23.65, 55.52 23.48 C52.29 23.31, 49.11 23.11, 46.05 22.88 C42.99 22.65, 40 22.4, 37.16 22.12 C34.31 21.84, 31.57 21.54, 28.98 21.22 C26.39 20.89, 23.93 20.55, 21.63 20.18 C19.34 19.82, 17.19 19.43, 15.23 19.03 C13.26 18.63, 11.46 18.21, 9.85 17.77 C8.25 17.34, 6.82 16.89, 5.59 16.44 C4.36 15.98, 3.33 15.51, 2.5 15.04 C1.67 14.57, 1.04 14.08, 0.63 13.6 C0.21 13.11, 0 12.62, 0 12.13 C0 11.65, 0.21 11.16, 0.63 10.67 C1.04 10.19, 1.67 9.7, 2.5 9.23 C3.33 8.76, 4.36 8.29, 5.59 7.83 C6.82 7.38, 8.25 6.93, 9.85 6.5 C11.46 6.06, 13.26 5.64, 15.23 5.24 C17.19 4.84, 19.34 4.45, 21.63 4.09 C23.93 3.72, 26.39 3.38, 28.98 3.05 C31.57 2.73, 34.31 2.43, 37.16 2.15 C40 1.87, 42.99 1.62, 46.05 1.39 C49.11 1.16, 52.29 0.96, 55.52 0.79 C58.75 0.62, 62.08 0.47, 65.44 0.35 C68.79 0.24, 72.23 0.15, 75.66 0.09 C79.09 0.03, 82.57 0, 86.03 0 C89.48 0, 92.96 0.03, 96.4 0.09 C99.83 0.15, 103.26 0.24, 106.61 0.35 C109.97 0.47, 113.3 0.62, 116.53 0.79 C119.76 0.96, 122.94 1.16, 126 1.39 C129.07 1.62, 132.05 1.87, 134.89 2.15 C137.74 2.43, 140.48 2.73, 143.07 3.05 C145.66 3.38, 148.13 3.72, 150.42 4.09 C152.71 4.45, 154.86 4.84, 156.82 5.24 C158.79 5.64, 160.59 6.06, 162.2 6.5 C163.8 6.93, 165.24 7.38, 166.46 7.83 C167.69 8.29, 168.73 8.76, 169.55 9.23 C170.38 9.7, 171.01 10.19, 171.43 10.67 C171.84 11.16, 172.05 11.65, 172.05 12.13" stroke="#000000" stroke-width="1" fill="none"></path></g><g stroke-linecap="round" transform="translate(178.30392369258124 524.9821924794135) rotate(0 86.17758864011358 16.323495724163763)"><path d="M172.36 16.32 C172.36 16.98, 172.14 17.64, 171.73 18.29 C171.31 18.94, 170.68 19.59, 169.85 20.23 C169.02 20.87, 167.98 21.5, 166.76 22.11 C165.53 22.73, 164.09 23.33, 162.48 23.91 C160.87 24.49, 159.07 25.06, 157.1 25.6 C155.13 26.14, 152.98 26.66, 150.68 27.15 C148.39 27.64, 145.92 28.11, 143.32 28.54 C140.73 28.98, 137.98 29.38, 135.13 29.76 C132.28 30.13, 129.29 30.47, 126.23 30.78 C123.16 31.08, 119.97 31.35, 116.74 31.59 C113.5 31.82, 110.16 32.02, 106.8 32.17 C103.44 32.33, 100 32.45, 96.57 32.53 C93.13 32.61, 89.64 32.65, 86.18 32.65 C82.72 32.65, 79.23 32.61, 75.79 32.53 C72.35 32.45, 68.92 32.33, 65.55 32.17 C62.19 32.02, 58.86 31.82, 55.62 31.59 C52.38 31.35, 49.19 31.08, 46.13 30.78 C43.06 30.47, 40.07 30.13, 37.22 29.76 C34.37 29.38, 31.62 28.98, 29.03 28.54 C26.44 28.11, 23.97 27.64, 21.67 27.15 C19.38 26.66, 17.22 26.14, 15.25 25.6 C13.29 25.06, 11.48 24.49, 9.87 23.91 C8.26 23.33, 6.83 22.73, 5.6 22.11 C4.37 21.5, 3.33 20.87, 2.5 20.23 C1.68 19.59, 1.05 18.94, 0.63 18.29 C0.21 17.64, 0 16.98, 0 16.32 C0 15.67, 0.21 15.01, 0.63 14.36 C1.05 13.7, 1.68 13.05, 2.5 12.42 C3.33 11.78, 4.37 11.15, 5.6 10.54 C6.83 9.92, 8.26 9.32, 9.87 8.74 C11.48 8.16, 13.29 7.59, 15.25 7.05 C17.22 6.51, 19.38 5.99, 21.67 5.5 C23.97 5.01, 26.44 4.54, 29.03 4.11 C31.62 3.67, 34.37 3.26, 37.22 2.89 C40.07 2.52, 43.06 2.17, 46.13 1.87 C49.19 1.56, 52.38 1.29, 55.62 1.06 C58.86 0.83, 62.19 0.63, 65.55 0.47 C68.92 0.32, 72.35 0.2, 75.79 0.12 C79.23 0.04, 82.72 0, 86.18 0 C89.64 0, 93.13 0.04, 96.57 0.12 C100 0.2, 103.44 0.32, 106.8 0.47 C110.16 0.63, 113.5 0.83, 116.74 1.06 C119.97 1.29, 123.16 1.56, 126.23 1.87 C129.29 2.17, 132.28 2.52, 135.13 2.89 C137.98 3.26, 140.73 3.67, 143.32 4.11 C145.92 4.54, 148.39 5.01, 150.68 5.5 C152.98 5.99, 155.13 6.51, 157.1 7.05 C159.07 7.59, 160.87 8.16, 162.48 8.74 C164.09 9.32, 165.53 9.92, 166.76 10.54 C167.98 11.15, 169.02 11.78, 169.85 12.42 C170.68 13.05, 171.31 13.7, 171.73 14.36 C172.14 15.01, 172.36 15.67, 172.36 16.32" stroke="#000000" stroke-width="1" fill="none"></path></g><g stroke-linecap="round" transform="translate(180.65044818776647 513.8011401522708) rotate(0 83.95149482868914 10.822796922584473)"><path d="M0 0 L167.9 0 L167.9 21.65 L0 21.65" stroke="none" stroke-width="0" fill="#fff"></path><path d="M0 0 C59.79 0, 119.59 0, 167.9 0 M0 0 C59.38 0, 118.76 0, 167.9 0 M167.9 0 C167.9 7.59, 167.9 15.19, 167.9 21.65 M167.9 0 C167.9 5.99, 167.9 11.98, 167.9 21.65 M167.9 21.65 C108.15 21.65, 48.4 21.65, 0 21.65 M167.9 21.65 C131.12 21.65, 94.33 21.65, 0 21.65 M0 21.65 C0 13.33, 0 5.01, 0 0 M0 21.65 C0 13.09, 0 4.54, 0 0" stroke="#ffff" stroke-width="4" fill="none"></path></g><g stroke-linecap="round"><g transform="translate(350.3870401189433 441.98442684007136) rotate(0 0.27684287684758146 49.62134282114397)"><path d="M0 0 C0.09 16.54, 0.46 82.7, 0.55 99.24 M0 0 C0.09 16.54, 0.46 82.7, 0.55 99.24" stroke="#000000" stroke-width="1" fill="none"></path></g></g><mask></mask><g stroke-linecap="round"><g transform="translate(178.66050302262823 442.6994515934688) rotate(0 -0.15395269810051104 50.027784540558)"><path d="M0 0 C-0.05 16.68, -0.26 83.38, -0.31 100.06 M0 0 C-0.05 16.68, -0.26 83.38, -0.31 100.06" stroke="#000000" stroke-width="1" fill="none"></path></g></g><mask></mask><g transform="translate(241.62232478260984 481) rotate(0 27.125999450683594 22.5)"><text x="0" y="31.536" font-family="Virgil, Segoe UI Emoji" font-size="36px" fill="#1e1e1e" text-anchor="start" style="white-space: pre;" direction="ltr" dominant-baseline="alphabetic">DB</text></g><g stroke-linecap="round"><g transform="translate(11.622324782609837 88) rotate(0 250 0)"><path d="M0.95 1.12 C84.37 1.33, 417.23 1.06, 500.48 0.69" stroke="#1e1e1e" stroke-width="2.5" fill="none" stroke-dasharray="8 10"></path></g></g><mask></mask><g stroke-linecap="round"><g transform="translate(14.905602494999755 180.06072173571005) rotate(0 250 0)"><path d="M-0.12 -0.66 C82.83 -0.43, 415.34 0.07, 498.85 0.34" stroke="#1e1e1e" stroke-width="2.5" fill="none" stroke-dasharray="8 10"></path></g></g><mask></mask><g stroke-linecap="round"><g transform="translate(8.905602494999755 268.06072173571005) rotate(0 250 0)"><path d="M1.09 -1.14 C84.39 -1.17, 416.33 -1.31, 499.46 -1.06" stroke="#1e1e1e" stroke-width="2.5" fill="none" stroke-dasharray="8 10"></path></g></g><mask></mask><g stroke-linecap="round"><g transform="translate(264.62232478260984 429) rotate(0 -0.5 -40)"><path d="M0.71 -0.7 C0.51 -14.2, -1.67 -67.64, -1.78 -80.75 M-0.37 1.54 C-0.14 -11.84, 0.49 -65.78, 0.52 -79.61" stroke="#1e1e1e" stroke-width="2" fill="none"></path></g></g><mask></mask></svg>