<svg version="1.1" xmlns="http://www.w3.org/2000/svg" viewBox="0 0 1294.5316617892486 980.2217627341856" width="2589.063323578497" height="1960.4435254683713">
  <!-- svg-source:excalidraw -->
  
  <defs>
    <style class="style-fonts">
      @font-face {
        font-family: "Virgil";
        src: url("https://excalidraw.com/Virgil.woff2");
      }
      @font-face {
        font-family: "Cascadia";
        src: url("https://excalidraw.com/Cascadia.woff2");
      }
    </style>
    
  </defs>
  <rect x="0" y="0" width="1294.5316617892486" height="980.2217627341856" fill="#ffffff"></rect><g stroke-linecap="round" transform="translate(10 356.7828332319773) rotate(0 94.78709111574324 27.5)"><path d="M13.75 0 M13.75 0 C70.67 3.5, 130.13 0.12, 175.82 0 M13.75 0 C60.62 0.06, 111.7 1.31, 175.82 0 M175.82 0 C186.36 3.68, 188.35 4.02, 189.57 13.75 M175.82 0 C182.66 -3.64, 192.67 8.78, 189.57 13.75 M189.57 13.75 C192.95 21.55, 191.57 28.74, 189.57 41.25 M189.57 13.75 C187.91 21.19, 190.43 25.64, 189.57 41.25 M189.57 41.25 C190.73 47.59, 188.46 54.19, 175.82 55 M189.57 41.25 C184.98 52.52, 182.81 59.39, 175.82 55 M175.82 55 C119.69 57.27, 63.8 58.87, 13.75 55 M175.82 55 C131.09 55.13, 86.5 53.31, 13.75 55 M13.75 55 C8.4 56.41, -1.31 53.01, 0 41.25 M13.75 55 C6 55.61, -3.36 46.12, 0 41.25 M0 41.25 C1 33.35, 3.62 27.39, 0 13.75 M0 41.25 C1.74 33.28, 0.9 24.43, 0 13.75 M0 13.75 C3.96 6.81, 7.45 1.69, 13.75 0 M0 13.75 C-3.62 4.96, 0.43 0.97, 13.75 0" stroke="#1e1e1e" stroke-width="4" fill="none"></path></g><g transform="translate(73.6470917260948 361.7828332319773) rotate(0 31.139999389648438 22.5)"><text x="31.139999389648438" y="0" font-family="Virgil, Segoe UI Emoji" font-size="36px" fill="#1e1e1e" text-anchor="middle" style="white-space: pre;" direction="ltr" dominant-baseline="text-before-edge">시작</text></g><g stroke-linecap="round" transform="translate(397.4630215783891 13.325862846166729) rotate(0 94.78709111574324 27.5)"><path d="M13.75 0 M13.75 0 C44.88 -1, 83.19 -0.95, 175.82 0 M13.75 0 C50.7 -1.68, 86.35 -1.53, 175.82 0 M175.82 0 C187.96 2.98, 192.4 6.28, 189.57 13.75 M175.82 0 C188.86 -2.46, 187.78 2.94, 189.57 13.75 M189.57 13.75 C191.29 22.48, 187.83 36.74, 189.57 41.25 M189.57 13.75 C189.57 24.09, 191.77 33.54, 189.57 41.25 M189.57 41.25 C185.68 50.96, 182.98 58.2, 175.82 55 M189.57 41.25 C188.65 52.62, 187.94 54.22, 175.82 55 M175.82 55 C133.55 54.25, 85.85 52.98, 13.75 55 M175.82 55 C132.33 53.03, 91.81 56.61, 13.75 55 M13.75 55 C1.34 51.88, -3.78 52.85, 0 41.25 M13.75 55 C6.66 53.45, 4.59 49.41, 0 41.25 M0 41.25 C-3.71 28.63, 1.18 24.37, 0 13.75 M0 41.25 C-0.19 32.43, -0.85 20.93, 0 13.75 M0 13.75 C-1.66 6.93, 1.74 -0.42, 13.75 0 M0 13.75 C2.23 3.7, 1.61 -3.21, 13.75 0" stroke="#1e1e1e" stroke-width="4" fill="none"></path></g><g transform="translate(477.20211235843897 18.32586284616673) rotate(0 15.04800033569336 22.5)"><text x="15.04800033569336" y="0" font-family="Virgil, Segoe UI Emoji" font-size="36px" fill="#1e1e1e" text-anchor="middle" style="white-space: pre;" direction="ltr" dominant-baseline="text-before-edge">t1</text></g><g stroke-linecap="round" transform="translate(392.47422730913934 352.56387315514235) rotate(0 94.78709111574324 27.5)"><path d="M13.75 0 M13.75 0 C52.06 -3.12, 87.77 -2.83, 175.82 0 M13.75 0 C75.24 -0.61, 133.97 -3.07, 175.82 0 M175.82 0 C183.56 2.42, 185.67 6.37, 189.57 13.75 M175.82 0 C187.58 -1.35, 188.19 8.22, 189.57 13.75 M189.57 13.75 C189.1 23.58, 193.49 31.63, 189.57 41.25 M189.57 13.75 C191.25 18.92, 190.61 26.18, 189.57 41.25 M189.57 41.25 C188.9 49.77, 182.38 51.82, 175.82 55 M189.57 41.25 C193.88 52.52, 187.37 55.64, 175.82 55 M175.82 55 C131.23 51.18, 92.6 58.34, 13.75 55 M175.82 55 C141.55 52.84, 104.17 53.94, 13.75 55 M13.75 55 C3.71 56.53, 2.86 51.45, 0 41.25 M13.75 55 C0.77 51.18, 1.81 52.39, 0 41.25 M0 41.25 C-0.9 33.99, -2.22 21.35, 0 13.75 M0 41.25 C-0.54 35.11, -0.71 25.74, 0 13.75 M0 13.75 C-2.79 5.05, 1.54 -0.27, 13.75 0 M0 13.75 C-0.16 8.29, 4.1 2.29, 13.75 0" stroke="#1e1e1e" stroke-width="4" fill="none"></path></g><g transform="translate(464.2753183638474 357.56387315514235) rotate(0 22.986000061035156 22.5)"><text x="22.986000061035156" y="0" font-family="Virgil, Segoe UI Emoji" font-size="36px" fill="#1e1e1e" text-anchor="middle" style="white-space: pre;" direction="ltr" dominant-baseline="text-before-edge">t2</text></g><g stroke-linecap="round" transform="translate(375.8449130783072 735.0381004642816) rotate(0 94.78709111574324 27.5)"><path d="M13.75 0 M13.75 0 C76.09 1.08, 132.9 -3.85, 175.82 0 M13.75 0 C57.48 4.29, 98.83 2.56, 175.82 0 M175.82 0 C188.16 3.78, 193.05 2.5, 189.57 13.75 M175.82 0 C183.89 -1.17, 193.53 0.21, 189.57 13.75 M189.57 13.75 C192.85 18.51, 191.56 27.46, 189.57 41.25 M189.57 13.75 C187.89 23.41, 190.4 30.35, 189.57 41.25 M189.57 41.25 C190.13 48.88, 183.02 54.85, 175.82 55 M189.57 41.25 C187.05 46.16, 186.79 58.98, 175.82 55 M175.82 55 C142.77 53.75, 103.5 55.93, 13.75 55 M175.82 55 C131.27 55.66, 84.01 58.11, 13.75 55 M13.75 55 C6.3 58.08, -3.79 48.08, 0 41.25 M13.75 55 C2.94 58.57, -3.15 51.38, 0 41.25 M0 41.25 C-0.75 36.08, -1.09 24.44, 0 13.75 M0 41.25 C-0.2 34.85, 1.55 28.38, 0 13.75 M0 13.75 C1.99 1.05, 6.28 -0.07, 13.75 0 M0 13.75 C2.61 7.8, 1.75 -0.37, 13.75 0" stroke="#1e1e1e" stroke-width="4" fill="none"></path></g><g transform="translate(448.2040027902418 740.0381004642816) rotate(0 22.428001403808594 22.5)"><text x="22.428001403808594" y="0" font-family="Virgil, Segoe UI Emoji" font-size="36px" fill="#1e1e1e" text-anchor="middle" style="white-space: pre;" direction="ltr" dominant-baseline="text-before-edge">t3</text></g><g stroke-linecap="round" transform="translate(721.7346490796157 14.988794269249638) rotate(0 94.78709111574324 27.5)"><path d="M13.75 0 M13.75 0 C66.78 0.01, 113.4 -0.5, 175.82 0 M13.75 0 C73.37 -1, 132.28 0.64, 175.82 0 M175.82 0 C188.95 0.38, 185.96 4.42, 189.57 13.75 M175.82 0 C184.07 -2.88, 187.37 2.33, 189.57 13.75 M189.57 13.75 C188.84 19.53, 190.59 34.17, 189.57 41.25 M189.57 13.75 C189.66 23.19, 189.23 32.73, 189.57 41.25 M189.57 41.25 C192.26 51.14, 186.47 57.53, 175.82 55 M189.57 41.25 C193.76 50.54, 188.17 55.78, 175.82 55 M175.82 55 C123.25 56.15, 74.79 55.49, 13.75 55 M175.82 55 C126.71 53.02, 76 54.39, 13.75 55 M13.75 55 C3.4 56.96, 1.56 51.06, 0 41.25 M13.75 55 C5.46 56.56, 1.56 50.93, 0 41.25 M0 41.25 C2.67 35.06, 0.67 29.69, 0 13.75 M0 41.25 C1.72 32.63, 0.62 28.67, 0 13.75 M0 13.75 C2.4 2.42, 2.46 -0.35, 13.75 0 M0 13.75 C0.2 8.37, 5.65 0.99, 13.75 0" stroke="#1e1e1e" stroke-width="4" fill="none"></path></g><g transform="translate(762.3597376318824 19.988794269249638) rotate(0 54.16200256347656 22.5)"><text x="54.16200256347656" y="0" font-family="Virgil, Segoe UI Emoji" font-size="36px" fill="#1e1e1e" text-anchor="middle" style="white-space: pre;" direction="ltr" dominant-baseline="text-before-edge">t1-&gt;t2</text></g><g stroke-linecap="round" transform="translate(720.0717176565325 184.6077994237379) rotate(0 94.78709111574324 27.5)"><path d="M13.75 0 M13.75 0 C57.54 -6.35, 96.48 -0.31, 175.82 0 M13.75 0 C71.93 1.81, 132.11 2.19, 175.82 0 M175.82 0 C185.85 0.42, 186.66 6.56, 189.57 13.75 M175.82 0 C181.49 2.74, 186.55 7.09, 189.57 13.75 M189.57 13.75 C188.55 22.16, 187.58 25.51, 189.57 41.25 M189.57 13.75 C189.86 23.24, 188.15 30.72, 189.57 41.25 M189.57 41.25 C188.98 48.53, 185.01 55.71, 175.82 55 M189.57 41.25 C186.43 50.3, 187.33 58.23, 175.82 55 M175.82 55 C141.2 55.6, 106.12 57.39, 13.75 55 M175.82 55 C134.19 53.3, 91.5 53.75, 13.75 55 M13.75 55 C5.97 58.17, -1.27 51.88, 0 41.25 M13.75 55 C5.55 53.99, 3.73 51.8, 0 41.25 M0 41.25 C-2.51 30.52, 3.33 24.1, 0 13.75 M0 41.25 C0.43 35.94, 1.23 28.1, 0 13.75 M0 13.75 C-2.2 6.4, 8.01 -0.69, 13.75 0 M0 13.75 C-2.3 5.83, 4.94 -2.85, 13.75 0" stroke="#1e1e1e" stroke-width="4" fill="none"></path></g><g transform="translate(761.254808680723 189.6077994237379) rotate(0 53.604000091552734 22.5)"><text x="53.604000091552734" y="0" font-family="Virgil, Segoe UI Emoji" font-size="36px" fill="#1e1e1e" text-anchor="middle" style="white-space: pre;" direction="ltr" dominant-baseline="text-before-edge">t1-&gt;t3</text></g><g stroke-linecap="round" transform="translate(1029.3769623500102 10) rotate(0 111 32)"><path d="M16 0 M16 0 C73 -3.3, 127.72 -0.67, 206 0 M16 0 C54.82 -4.24, 94.94 -3.51, 206 0 M206 0 C216.07 -1.33, 222.62 7.98, 222 16 M206 0 C216.06 0.37, 226.02 3.53, 222 16 M222 16 C219.35 30.95, 223.03 39.09, 222 48 M222 16 C223.31 27.29, 222.4 41.98, 222 48 M222 48 C222.27 58.99, 218.73 65.18, 206 64 M222 48 C218.77 60.64, 217.02 64.1, 206 64 M206 64 C160.14 61.93, 120.27 61.16, 16 64 M206 64 C148.73 64.37, 96.44 66.85, 16 64 M16 64 C6.91 64.24, -3.97 57.88, 0 48 M16 64 C8.83 62.26, 3.48 57.55, 0 48 M0 48 C-0.34 34.21, 0.27 25.28, 0 16 M0 48 C1.76 43.17, 2.02 36.81, 0 16 M0 16 C0.09 7.7, 3.94 3.4, 16 0 M0 16 C1.54 6.63, 1.97 -1.48, 16 0" stroke="#1e1e1e" stroke-width="4" fill="none"></path></g><g transform="translate(1047.6589600306743 19.5) rotate(0 92.71800231933594 22.5)"><text x="92.71800231933594" y="0" font-family="Virgil, Segoe UI Emoji" font-size="36px" fill="#1e1e1e" text-anchor="middle" style="white-space: pre;" direction="ltr" dominant-baseline="text-before-edge">t1-&gt;t2-&gt;t3</text></g><g stroke-linecap="round" transform="translate(1028.1304362735023 178.44486800065476) rotate(0 111 32)"><path d="M16 0 M16 0 C81.15 4.24, 136.57 1.88, 206 0 M16 0 C86.57 0.85, 161.61 1.09, 206 0 M206 0 C217.89 -3.55, 218.43 3.24, 222 16 M206 0 C220.23 -3.02, 224.2 0.87, 222 16 M222 16 C220.63 22.84, 224.57 35.06, 222 48 M222 16 C221.37 24.97, 220.41 31.35, 222 48 M222 48 C218.52 62.34, 217.77 65.51, 206 64 M222 48 C222.83 60.98, 220.18 64.02, 206 64 M206 64 C135.61 58.69, 68.88 58.64, 16 64 M206 64 C150.42 59.39, 99.06 61.72, 16 64 M16 64 C3.04 65.9, -0.47 58.41, 0 48 M16 64 C7.77 67.38, 3.21 57.81, 0 48 M0 48 C-2.76 38.63, -2.29 36.9, 0 16 M0 48 C-0.98 40.3, 2.15 33.53, 0 16 M0 16 C3.63 8.37, 4.1 0.37, 16 0 M0 16 C-0.62 6.34, 4.5 -3.87, 16 0" stroke="#1e1e1e" stroke-width="4" fill="none"></path></g><g transform="translate(1046.4124415835608 187.94486800065476) rotate(0 92.7179946899414 22.5)"><text x="92.7179946899414" y="0" font-family="Virgil, Segoe UI Emoji" font-size="36px" fill="#1e1e1e" text-anchor="middle" style="white-space: pre;" direction="ltr" dominant-baseline="text-before-edge">t1-&gt;t3-&gt;t2</text></g><g stroke-linecap="round" transform="translate(718.8251915800246 363.61732453980767) rotate(0 94.78709111574324 27.5)"><path d="M13.75 0 M13.75 0 C71.17 0.57, 128.94 -0.18, 175.82 0 M13.75 0 C63.29 -2.76, 111.6 -2.45, 175.82 0 M175.82 0 C187.05 -0.71, 189.72 4.58, 189.57 13.75 M175.82 0 C188.06 -1.45, 190.55 7.04, 189.57 13.75 M189.57 13.75 C190.07 22.53, 192.15 31.22, 189.57 41.25 M189.57 13.75 C189.91 23.18, 191.23 30.67, 189.57 41.25 M189.57 41.25 C187.85 50.06, 181.12 53.5, 175.82 55 M189.57 41.25 C191.7 49.07, 183.15 55.06, 175.82 55 M175.82 55 C118.01 52.01, 66.5 52.72, 13.75 55 M175.82 55 C116.49 54.58, 55.77 55.83, 13.75 55 M13.75 55 C6.9 58.29, 3.42 47.61, 0 41.25 M13.75 55 C7.14 57.04, 0.1 51.14, 0 41.25 M0 41.25 C3.46 29.94, 2.36 23.91, 0 13.75 M0 41.25 C-1.52 32.96, -1.13 24.24, 0 13.75 M0 13.75 C2.55 2.81, 5.94 1.15, 13.75 0 M0 13.75 C-1.15 7.86, 2.09 -1.74, 13.75 0" stroke="#1e1e1e" stroke-width="4" fill="none"></path></g><g transform="translate(759.4502877616858 368.61732453980767) rotate(0 54.16199493408203 22.5)"><text x="54.16199493408203" y="0" font-family="Virgil, Segoe UI Emoji" font-size="36px" fill="#1e1e1e" text-anchor="middle" style="white-space: pre;" direction="ltr" dominant-baseline="text-before-edge">t2-&gt;t1</text></g><g stroke-linecap="round" transform="translate(717.1622601569414 533.2363296942958) rotate(0 94.78709111574324 27.5)"><path d="M13.75 0 M13.75 0 C55.02 -0.34, 99.31 2.5, 175.82 0 M13.75 0 C63.22 -0.82, 110.7 -0.46, 175.82 0 M175.82 0 C187.66 -1.26, 190.42 6.72, 189.57 13.75 M175.82 0 C188.06 1.95, 190.14 4.89, 189.57 13.75 M189.57 13.75 C190.38 24.68, 187.57 28.15, 189.57 41.25 M189.57 13.75 C189.03 22.99, 187.96 31.84, 189.57 41.25 M189.57 41.25 C191.42 49.25, 183.39 55.05, 175.82 55 M189.57 41.25 C191.17 51.14, 183.49 50.91, 175.82 55 M175.82 55 C137.76 53.25, 95.72 54.62, 13.75 55 M175.82 55 C141.44 56.05, 106.45 53, 13.75 55 M13.75 55 C6.81 56.77, 0.08 51.04, 0 41.25 M13.75 55 C7.87 57.91, -3.98 54.8, 0 41.25 M0 41.25 C1.4 31.01, -2.14 22.46, 0 13.75 M0 41.25 C1.69 30.49, 1.09 22.08, 0 13.75 M0 13.75 C-1 7.43, 2.41 -1.51, 13.75 0 M0 13.75 C-3.92 2.87, 6.92 3.52, 13.75 0" stroke="#1e1e1e" stroke-width="4" fill="none"></path></g><g transform="translate(750.4073552704874 538.2363296942958) rotate(0 61.541996002197266 22.5)"><text x="61.541996002197266" y="0" font-family="Virgil, Segoe UI Emoji" font-size="36px" fill="#1e1e1e" text-anchor="middle" style="white-space: pre;" direction="ltr" dominant-baseline="text-before-edge">t2-&gt;t3</text></g><g stroke-linecap="round" transform="translate(1026.4675048504191 358.62853027055803) rotate(0 111 32)"><path d="M16 0 M16 0 C61.33 -2.04, 107.32 1.69, 206 0 M16 0 C70.95 -0.62, 123.66 1.07, 206 0 M206 0 C219.33 1.7, 222.49 5.6, 222 16 M206 0 C215.17 2.69, 218.89 5.89, 222 16 M222 16 C223.33 30.78, 221.15 39.2, 222 48 M222 16 C222.31 24.73, 220.58 34.65, 222 48 M222 48 C223.39 59.29, 215.36 60.44, 206 64 M222 48 C219.78 57.73, 215.26 67.13, 206 64 M206 64 C149.4 63.02, 98.53 66.89, 16 64 M206 64 C134.5 62.21, 60.81 61.64, 16 64 M16 64 C8.19 66.53, -3.46 62.48, 0 48 M16 64 C4.07 67.11, 3.55 60.7, 0 48 M0 48 C2.64 37.58, 4.14 35.75, 0 16 M0 48 C-0.72 41.25, -1.3 30.88, 0 16 M0 16 C-3.41 3.85, 7.36 3.06, 16 0 M0 16 C-3.97 1.09, 2.79 1.01, 16 0" stroke="#1e1e1e" stroke-width="4" fill="none"></path></g><g transform="translate(1044.7495101604777 368.12853027055803) rotate(0 92.7179946899414 22.5)"><text x="92.7179946899414" y="0" font-family="Virgil, Segoe UI Emoji" font-size="36px" fill="#1e1e1e" text-anchor="middle" style="white-space: pre;" direction="ltr" dominant-baseline="text-before-edge">t2-&gt;t1-&gt;t3</text></g><g stroke-linecap="round" transform="translate(1025.2209787739112 527.0733982712127) rotate(0 111 32)"><path d="M16 0 M16 0 C64.36 -1.81, 114.14 0.71, 206 0 M16 0 C68.36 -1.18, 118.3 -1.89, 206 0 M206 0 C215.36 2.34, 219.3 5.82, 222 16 M206 0 C220.78 -2.67, 221.64 7.29, 222 16 M222 16 C221.56 23.59, 220.42 40.76, 222 48 M222 16 C222.44 24.98, 221.09 31.55, 222 48 M222 48 C220.07 57.85, 215.45 66.72, 206 64 M222 48 C221.12 60.36, 217.36 60.29, 206 64 M206 64 C159.68 69.62, 103.97 68.42, 16 64 M206 64 C142.02 65.86, 73.46 66.5, 16 64 M16 64 C4.23 66.71, 3.09 60.44, 0 48 M16 64 C2.17 61.96, -4.37 61.38, 0 48 M0 48 C-2.39 42.17, 0.53 32.62, 0 16 M0 48 C-1.36 35.38, 1.36 25.77, 0 16 M0 16 C-3.46 1.65, 3.12 0.88, 16 0 M0 16 C2.63 5.52, 2.01 0.86, 16 0" stroke="#1e1e1e" stroke-width="4" fill="none"></path></g><g transform="translate(1043.5029840839697 536.5733982712127) rotate(0 92.7179946899414 22.5)"><text x="92.7179946899414" y="0" font-family="Virgil, Segoe UI Emoji" font-size="36px" fill="#1e1e1e" text-anchor="middle" style="white-space: pre;" direction="ltr" dominant-baseline="text-before-edge">t2-&gt;t3-&gt;t1</text></g><g stroke-linecap="round" transform="translate(715.4993287338581 742.7656890027804) rotate(0 94.78709111574324 27.5)"><path d="M13.75 0 M13.75 0 C61.54 2.28, 110.42 4.13, 175.82 0 M13.75 0 C47.64 -1.1, 83.38 1.85, 175.82 0 M175.82 0 C181.45 -1.88, 192.14 6.2, 189.57 13.75 M175.82 0 C187.06 3.79, 190.99 7.74, 189.57 13.75 M189.57 13.75 C185.56 19.99, 192.96 32.1, 189.57 41.25 M189.57 13.75 C187.32 20.84, 188.08 29.87, 189.57 41.25 M189.57 41.25 C190.3 50.23, 186.3 56.46, 175.82 55 M189.57 41.25 C189.32 47.94, 186.88 55.61, 175.82 55 M175.82 55 C123.48 57.79, 72.5 58.49, 13.75 55 M175.82 55 C134.7 51.49, 92.72 51.56, 13.75 55 M13.75 55 C5.41 57.28, 0.72 54.02, 0 41.25 M13.75 55 C7.93 51.97, -1.49 52.45, 0 41.25 M0 41.25 C1.76 32.67, 2.05 30.22, 0 13.75 M0 41.25 C-0.42 30.9, 1.33 20.83, 0 13.75 M0 13.75 C3.24 4.16, 5.57 3.32, 13.75 0 M0 13.75 C-2.06 3.72, 8.48 3.25, 13.75 0" stroke="#1e1e1e" stroke-width="4" fill="none"></path></g><g transform="translate(756.6824235727458 747.7656890027804) rotate(0 53.60399627685547 22.5)"><text x="53.60399627685547" y="0" font-family="Virgil, Segoe UI Emoji" font-size="36px" fill="#1e1e1e" text-anchor="middle" style="white-space: pre;" direction="ltr" dominant-baseline="text-before-edge">t3-&gt;t1</text></g><g stroke-linecap="round" transform="translate(715.4993287338583 912.3846941572688) rotate(0 94.78709111574324 27.5)"><path d="M13.75 0 M13.75 0 C66.82 -3.81, 126.34 -5, 175.82 0 M13.75 0 C49.45 -3.48, 89.98 -1.74, 175.82 0 M175.82 0 C186.79 3.3, 190.81 7.33, 189.57 13.75 M175.82 0 C187 -3.41, 185.43 0.43, 189.57 13.75 M189.57 13.75 C188.7 15.98, 186.29 22.38, 189.57 41.25 M189.57 13.75 C189.67 21.63, 189.96 30.43, 189.57 41.25 M189.57 41.25 C189.35 48.26, 186.64 55.53, 175.82 55 M189.57 41.25 C189.97 53.27, 189.15 52.33, 175.82 55 M175.82 55 C126.23 54.04, 77.39 58.09, 13.75 55 M175.82 55 C141.01 53.57, 105.74 54.23, 13.75 55 M13.75 55 C7.49 52.36, -1.3 52.19, 0 41.25 M13.75 55 C1.68 50.72, 1.17 51.86, 0 41.25 M0 41.25 C1.94 32.94, -0.37 26.34, 0 13.75 M0 41.25 C1.31 33.64, 0.19 28.1, 0 13.75 M0 13.75 C-1.8 3.83, 7.97 2.82, 13.75 0 M0 13.75 C-3.21 3.02, 3.33 0.05, 13.75 0" stroke="#1e1e1e" stroke-width="4" fill="none"></path></g><g transform="translate(748.744420032707 917.3846941572688) rotate(0 61.54199981689453 22.5)"><text x="61.54199981689453" y="0" font-family="Virgil, Segoe UI Emoji" font-size="36px" fill="#1e1e1e" text-anchor="middle" style="white-space: pre;" direction="ltr" dominant-baseline="text-before-edge">t3-&gt;t2</text></g><g stroke-linecap="round" transform="translate(1023.1416420042527 737.7768947335308) rotate(0 111 32)"><path d="M16 0 M16 0 C66.74 1.66, 126.11 -1.71, 206 0 M16 0 C64.97 0.12, 112.77 -0.16, 206 0 M206 0 C218.42 -2.96, 218.4 1.73, 222 16 M206 0 C212.97 4.36, 221.36 3.72, 222 16 M222 16 C220.99 20.62, 224.48 29.83, 222 48 M222 16 C222.1 24.37, 223.03 35.17, 222 48 M222 48 C222.35 61.15, 220.28 61.68, 206 64 M222 48 C221.84 54.89, 217.31 62.25, 206 64 M206 64 C152.4 70.09, 102.24 67.33, 16 64 M206 64 C139.64 66.1, 69.72 68.31, 16 64 M16 64 C2.81 60.28, 1.02 59.92, 0 48 M16 64 C2.96 65.77, 2.3 61.14, 0 48 M0 48 C-1.21 41.84, -1.9 34.41, 0 16 M0 48 C-1.06 38.36, 1.53 30.89, 0 16 M0 16 C-2.79 3.97, 4.24 0.05, 16 0 M0 16 C0.73 6.24, 7.46 3.02, 16 0" stroke="#1e1e1e" stroke-width="4" fill="none"></path></g><g transform="translate(1041.4236473143114 747.2768947335308) rotate(0 92.7179946899414 22.5)"><text x="92.7179946899414" y="0" font-family="Virgil, Segoe UI Emoji" font-size="36px" fill="#1e1e1e" text-anchor="middle" style="white-space: pre;" direction="ltr" dominant-baseline="text-before-edge">t3-&gt;t1-&gt;t2</text></g><g stroke-linecap="round" transform="translate(1021.8951159277447 906.2217627341856) rotate(0 111 32)"><path d="M16 0 M16 0 C70.28 5.93, 129.92 5.16, 206 0 M16 0 C89.53 -4.09, 159.51 -4.41, 206 0 M206 0 C213.45 3.79, 221.44 3.93, 222 16 M206 0 C212.29 -4.37, 218.03 4.88, 222 16 M222 16 C222.31 25.36, 223.96 31.88, 222 48 M222 16 C222.44 25.12, 224.07 30.59, 222 48 M222 48 C221.86 55.38, 217.23 62.48, 206 64 M222 48 C220.38 56.04, 219.7 60.2, 206 64 M206 64 C134.27 65.51, 61.58 67.69, 16 64 M206 64 C160.25 63.82, 117.54 66.31, 16 64 M16 64 C3.27 65.54, 2 60.82, 0 48 M16 64 C3.63 63.82, -1.43 57.25, 0 48 M0 48 C-0.12 37.59, 3.62 23.4, 0 16 M0 48 C-1.94 38.32, -1.09 30.03, 0 16 M0 16 C0.64 6.13, 7.18 2.63, 16 0 M0 16 C-0.37 4.12, 4.53 2.75, 16 0" stroke="#1e1e1e" stroke-width="4" fill="none"></path></g><g transform="translate(1040.1771212378032 915.7217627341856) rotate(0 92.7179946899414 22.5)"><text x="92.7179946899414" y="0" font-family="Virgil, Segoe UI Emoji" font-size="36px" fill="#1e1e1e" text-anchor="middle" style="white-space: pre;" direction="ltr" dominant-baseline="text-before-edge">t3-&gt;t2-&gt;t1</text></g><g stroke-linecap="round"><g transform="translate(204.5629765007361 373.41214746280946) rotate(0 97.29879257378767 -168.36956511934545)"><path d="M1.76 -0.7 C32.99 -56.96, 158.48 -280.07, 189.74 -336.04 M-0.73 -3.55 C31.23 -59.63, 162.69 -278.21, 195.32 -333.38" stroke="#1e1e1e" stroke-width="4" fill="none"></path></g><g transform="translate(204.5629765007361 373.41214746280946) rotate(0 97.29879257378767 -168.36956511934545)"><path d="M188.69 -306.05 C188.98 -318.06, 190.52 -325.32, 198.27 -331.56 M188.66 -305.18 C191.08 -314.6, 193.1 -325.97, 193.37 -333.52" stroke="#1e1e1e" stroke-width="4" fill="none"></path></g><g transform="translate(204.5629765007361 373.41214746280946) rotate(0 97.29879257378767 -168.36956511934545)"><path d="M171.06 -316.57 C178.23 -324.77, 186.53 -327.99, 198.27 -331.56 M171.04 -315.7 C180.4 -320.71, 189.34 -327.95, 193.37 -333.52" stroke="#1e1e1e" stroke-width="4" fill="none"></path></g></g><mask></mask><g stroke-linecap="round"><g transform="translate(592.0259980791251 39.162931423083364) rotate(0 65.29126382711087 -0.3312130576372283)"><path d="M1.79 -0.02 C23.85 0.15, 110.08 -1.18, 131.27 -1.16 M-0.69 -2.5 C21.1 -1.76, 106.45 0.88, 128.98 1.84" stroke="#1e1e1e" stroke-width="4" fill="none"></path></g><g transform="translate(592.0259980791251 39.162931423083364) rotate(0 65.29126382711087 -0.3312130576372283)"><path d="M100.4 10.93 C106.34 4.82, 115.57 2.08, 130.37 4.1 M100.82 9.2 C105.49 10.91, 113.03 4.86, 128.47 2.19" stroke="#1e1e1e" stroke-width="4" fill="none"></path></g><g transform="translate(592.0259980791251 39.162931423083364) rotate(0 65.29126382711087 -0.3312130576372283)"><path d="M101.14 -9.58 C106.57 -10.34, 115.61 -7.76, 130.37 4.1 M101.56 -11.3 C106.09 -4.68, 113.46 -5.81, 128.47 2.19" stroke="#1e1e1e" stroke-width="4" fill="none"></path></g></g><mask></mask><g stroke-linecap="round"><g transform="translate(916.2976255803519 40.8258628461665) rotate(0 57.300566420049876 -1.5993481875609632)"><path d="M1.54 -0.92 C19.57 -0.93, 92.13 -2.64, 110.03 -2.5 M-1.07 -3.88 C17.74 -3.26, 96.44 0.82, 115.68 0.68" stroke="#1e1e1e" stroke-width="4" fill="none"></path></g><g transform="translate(916.2976255803519 40.8258628461665) rotate(0 57.300566420049876 -1.5993481875609632)"><path d="M85.91 8.2 C96.58 2.8, 110.46 0.17, 116.03 1 M86.42 10.42 C97.89 7.91, 107.47 1.83, 116.21 -0.7" stroke="#1e1e1e" stroke-width="4" fill="none"></path></g><g transform="translate(916.2976255803519 40.8258628461665) rotate(0 57.300566420049876 -1.5993481875609632)"><path d="M86.46 -12.31 C96.57 -10.22, 110.25 -5.37, 116.03 1 M86.97 -10.09 C98.23 -5.64, 107.63 -4.75, 116.21 -0.7" stroke="#1e1e1e" stroke-width="4" fill="none"></path></g></g><mask></mask><g stroke-linecap="round"><g transform="translate(592.0259980791251 42.488794269249865) rotate(0 62.41761592646198 83.28594058161838)"><path d="M-0.75 -1.06 C20.44 27.16, 104.42 139.47, 125.58 167.95 M4.04 -4.11 C25.07 24.58, 103.61 141.15, 123.82 170.68" stroke="#1e1e1e" stroke-width="4" fill="none"></path></g><g transform="translate(592.0259980791251 42.488794269249865) rotate(0 62.41761592646198 83.28594058161838)"><path d="M97.97 154.36 C102.89 159.73, 111.52 158.48, 123.07 173.99 M100.14 153.06 C109.58 159.42, 119.34 164.68, 123.45 171.04" stroke="#1e1e1e" stroke-width="4" fill="none"></path></g><g transform="translate(592.0259980791251 42.488794269249865) rotate(0 62.41761592646198 83.28594058161838)"><path d="M114.95 142.83 C115.6 150.93, 120.07 152.51, 123.07 173.99 M117.11 141.53 C120.23 152.34, 123.72 161.85, 123.45 171.04" stroke="#1e1e1e" stroke-width="4" fill="none"></path></g></g><mask></mask><g stroke-linecap="round"><g transform="translate(911.308831311102 212.10779942373767) rotate(0 56.622611827345196 -3.484306888133176)"><path d="M1.44 -0.35 C19.49 -0.6, 90.62 -2.02, 109.25 -2.79 M-1.23 -3.02 C17.62 -3.91, 95.55 -6.8, 114.47 -6.6" stroke="#1e1e1e" stroke-width="4" fill="none"></path></g><g transform="translate(911.308831311102 212.10779942373767) rotate(0 56.622611827345196 -3.484306888133176)"><path d="M85.96 1.05 C99.02 2.8, 105.22 -0.8, 113.92 -8.89 M87.59 3.1 C96.15 0.18, 104.21 -2.76, 112.56 -6.34" stroke="#1e1e1e" stroke-width="4" fill="none"></path></g><g transform="translate(911.308831311102 212.10779942373767) rotate(0 56.622611827345196 -3.484306888133176)"><path d="M85.6 -19.47 C98.6 -10.9, 104.91 -7.67, 113.92 -8.89 M87.23 -17.42 C95.58 -13.82, 103.75 -10.23, 112.56 -6.34" stroke="#1e1e1e" stroke-width="4" fill="none"></path></g></g><mask></mask><g stroke-linecap="round"><g transform="translate(206.22590792381936 378.4009417320591) rotate(0 89.55262515868208 -0.8924874863922128)"><path d="M0.22 -1.03 C30.35 -0.27, 152.18 2.5, 182.21 2.27 M-3.1 -4.06 C26.6 -3.84, 150.28 -2.09, 180.49 -1.52" stroke="#1e1e1e" stroke-width="4" fill="none"></path></g><g transform="translate(206.22590792381936 378.4009417320591) rotate(0 89.55262515868208 -0.8924874863922128)"><path d="M150.66 9.65 C165.52 3.56, 168.8 -2.02, 177.37 -1.49 M153.28 8.61 C160.6 3.31, 167.17 1.2, 180.26 -1.72" stroke="#1e1e1e" stroke-width="4" fill="none"></path></g><g transform="translate(206.22590792381936 378.4009417320591) rotate(0 89.55262515868208 -0.8924874863922128)"><path d="M150.99 -10.87 C165.39 -9.73, 168.56 -8.08, 177.37 -1.49 M153.61 -11.91 C160.96 -11.48, 167.44 -7.86, 180.26 -1.72" stroke="#1e1e1e" stroke-width="4" fill="none"></path></g></g><mask></mask><g stroke-linecap="round"><g transform="translate(206.22590792381936 378.4009417320591) rotate(0 82.00724700935035 190.84358133259505)"><path d="M-0.23 -2.25 C28.07 61.3, 140.1 319.56, 167.82 383.93 M-3.8 2.71 C24.29 66.62, 136.22 316.96, 165.5 379.71" stroke="#1e1e1e" stroke-width="4" fill="none"></path></g><g transform="translate(206.22590792381936 378.4009417320591) rotate(0 82.00724700935035 190.84358133259505)"><path d="M141.28 358.11 C151.8 360.6, 156.67 371.91, 162.51 376.21 M146.25 358.36 C150.77 366.38, 155.73 373.46, 166.8 378.65" stroke="#1e1e1e" stroke-width="4" fill="none"></path></g><g transform="translate(206.22590792381936 378.4009417320591) rotate(0 82.00724700935035 190.84358133259505)"><path d="M159.95 349.61 C166.35 354.02, 166.94 367.28, 162.51 376.21 M164.92 349.86 C163.71 360.21, 163.03 369.85, 166.8 378.65" stroke="#1e1e1e" stroke-width="4" fill="none"></path></g></g><mask></mask><g stroke-linecap="round"><g transform="translate(585.3742723867922 380.06387315514235) rotate(0 66.70881277439317 1.2363541190775322)"><path d="M2.01 -1.18 C24.61 -0.3, 112.08 2.88, 133.76 3.2 M-0.34 -4.29 C22.12 -2.75, 110.23 5.64, 131.92 6.76" stroke="#1e1e1e" stroke-width="4" fill="none"></path></g><g transform="translate(585.3742723867922 380.06387315514235) rotate(0 66.70881277439317 1.2363541190775322)"><path d="M101.34 15.88 C109.73 11.19, 113 8.07, 128.9 3.16 M104.88 16.69 C110.58 14.56, 114.6 10.98, 130.88 7.12" stroke="#1e1e1e" stroke-width="4" fill="none"></path></g><g transform="translate(585.3742723867922 380.06387315514235) rotate(0 66.70881277439317 1.2363541190775322)"><path d="M102.9 -4.58 C110.63 -4.46, 113.52 -2.78, 128.9 3.16 M106.44 -3.77 C111.61 -1.29, 115.28 -0.27, 130.88 7.12" stroke="#1e1e1e" stroke-width="4" fill="none"></path></g></g><mask></mask><g stroke-linecap="round"><g transform="translate(912.9717627341854 386.7155988474751) rotate(0 53.16786716412139 -1.590913684278803)"><path d="M-0.45 0.65 C17.66 0.45, 91.66 0.95, 110.47 0.18 M-4.13 -1.47 C13.5 -2.58, 89.26 -3.72, 108.62 -3.83" stroke="#1e1e1e" stroke-width="4" fill="none"></path></g><g transform="translate(912.9717627341854 386.7155988474751) rotate(0 53.16786716412139 -1.590913684278803)"><path d="M81.47 7.79 C93.33 6.75, 97.64 1.31, 108.28 -4.12 M82.52 6.1 C92.23 2.14, 102 -0.58, 108.79 -4.1" stroke="#1e1e1e" stroke-width="4" fill="none"></path></g><g transform="translate(912.9717627341854 386.7155988474751) rotate(0 53.16786716412139 -1.590913684278803)"><path d="M81.23 -12.73 C93.37 -6.28, 97.77 -4.23, 108.28 -4.12 M82.28 -14.42 C91.96 -10.92, 101.82 -6.18, 108.79 -4.1" stroke="#1e1e1e" stroke-width="4" fill="none"></path></g></g><mask></mask><g stroke-linecap="round"><g transform="translate(583.711340963709 381.7268045782255) rotate(0 65.48962399719959 91.04214721298922)"><path d="M-1.09 -1.31 C21.35 28.89, 109.77 153.4, 132.07 183.39 M3.51 4.16 C25.87 33.39, 108.86 150.18, 130.22 179.54" stroke="#1e1e1e" stroke-width="4" fill="none"></path></g><g transform="translate(583.711340963709 381.7268045782255) rotate(0 65.48962399719959 91.04214721298922)"><path d="M103.57 163.63 C113.9 168.26, 112.23 168.6, 131.81 178.63 M104.13 162.24 C111.99 166.62, 116.6 168.56, 131.9 179.24" stroke="#1e1e1e" stroke-width="4" fill="none"></path></g><g transform="translate(583.711340963709 381.7268045782255) rotate(0 65.48962399719959 91.04214721298922)"><path d="M120.23 151.66 C127.29 158.64, 122.14 161.48, 131.81 178.63 M120.79 150.26 C125.34 157.06, 126.45 161.5, 131.9 179.24" stroke="#1e1e1e" stroke-width="4" fill="none"></path></g></g><mask></mask><g stroke-linecap="round"><g transform="translate(907.9829684649358 556.334604001963) rotate(0 55.98112366143772 -0.39723642386491065)"><path d="M0.08 -0.11 C18.02 -0.57, 91.54 -1.18, 110.35 -1.15 M-3.31 -2.64 C15.2 -2.87, 96.21 0.88, 115.28 1.86" stroke="#1e1e1e" stroke-width="4" fill="none"></path></g><g transform="translate(907.9829684649358 556.334604001963) rotate(0 55.98112366143772 -0.39723642386491065)"><path d="M86.47 6.88 C96.25 7.04, 109.39 3.49, 113.46 5.39 M85.1 9.81 C95.99 7.18, 104.04 7.3, 117.08 0.11" stroke="#1e1e1e" stroke-width="4" fill="none"></path></g><g transform="translate(907.9829684649358 556.334604001963) rotate(0 55.98112366143772 -0.39723642386491065)"><path d="M87.44 -13.62 C97.07 -5.33, 109.82 -0.74, 113.46 5.39 M86.07 -10.69 C96.64 -7.19, 104.41 -0.95, 117.08 0.11" stroke="#1e1e1e" stroke-width="4" fill="none"></path></g></g><mask></mask><g stroke-linecap="round"><g transform="translate(567.0820267328768 759.2122376181151) rotate(0 70.63369040574531 4.26978734828603)"><path d="M0.43 0.33 C24.53 2.14, 120.49 8.79, 144.05 10.5 M-2.78 -1.96 C21.08 -0.87, 118.69 5.3, 142.37 6.68" stroke="#1e1e1e" stroke-width="4" fill="none"></path></g><g transform="translate(567.0820267328768 759.2122376181151) rotate(0 70.63369040574531 4.26978734828603)"><path d="M114.08 16.68 C124.85 10.95, 133.05 13.26, 144.64 4.41 M114.88 13.23 C124.68 12.35, 133.63 10.38, 142.32 6.05" stroke="#1e1e1e" stroke-width="4" fill="none"></path></g><g transform="translate(567.0820267328768 759.2122376181151) rotate(0 70.63369040574531 4.26978734828603)"><path d="M115.32 -3.8 C125.69 -3.77, 133.54 4.31, 144.64 4.41 M116.12 -7.25 C125.16 -0.49, 133.66 5.19, 142.32 6.05" stroke="#1e1e1e" stroke-width="4" fill="none"></path></g></g><mask></mask><g stroke-linecap="round"><g transform="translate(906.3200370418524 770.8527575796977) rotate(0 54.9370451600044 1.743480636321408)"><path d="M-0.77 0.69 C17.23 1.57, 92.52 2.06, 110.64 2.57 M4.01 -1.4 C21.48 -0.01, 90.58 3.62, 108.89 4.89" stroke="#1e1e1e" stroke-width="4" fill="none"></path></g><g transform="translate(906.3200370418524 770.8527575796977) rotate(0 54.9370451600044 1.743480636321408)"><path d="M81.12 14.7 C88.19 7.71, 101.22 6.06, 108.63 6.4 M81.9 14.46 C86.24 11.76, 91.96 9.3, 107.1 5.74" stroke="#1e1e1e" stroke-width="4" fill="none"></path></g><g transform="translate(906.3200370418524 770.8527575796977) rotate(0 54.9370451600044 1.743480636321408)"><path d="M82.36 -5.78 C88.54 -4.7, 101.09 1.73, 108.63 6.4 M83.13 -6.02 C87.34 -4.31, 92.79 -2.35, 107.1 5.74" stroke="#1e1e1e" stroke-width="4" fill="none"></path></g></g><mask></mask><g stroke-linecap="round"><g transform="translate(570.4078895790433 764.2010318873647) rotate(0 71.07296149581323 87.77407859424443)"><path d="M0.25 -1.01 C23.47 28.26, 116.18 146.68, 140.28 176.64 M-3.05 -4.02 C20.89 25.52, 120.69 149.96, 145.2 179.57" stroke="#1e1e1e" stroke-width="4" fill="none"></path></g><g transform="translate(570.4078895790433 764.2010318873647) rotate(0 71.07296149581323 87.77407859424443)"><path d="M118.02 160.26 C126.38 171.91, 138.05 173.66, 147.77 180.33 M121.1 162.48 C125.12 170.36, 133.95 171.3, 146.76 177.69" stroke="#1e1e1e" stroke-width="4" fill="none"></path></g><g transform="translate(570.4078895790433 764.2010318873647) rotate(0 71.07296149581323 87.77407859424443)"><path d="M133.94 147.32 C137.04 163.35, 143.37 169.45, 147.77 180.33 M137.02 149.54 C136.47 160.94, 140.96 165.41, 146.76 177.69" stroke="#1e1e1e" stroke-width="4" fill="none"></path></g></g><mask></mask><g stroke-linecap="round"><g transform="translate(906.3200370418524 942.1346941572688) rotate(0 55.61002749869377 0.026147176623354085)"><path d="M0.27 -2.13 C18.43 -2.21, 90.53 0.64, 109.1 1.42 M-3.02 2.88 C15.98 1.81, 95.4 -2.07, 114.24 -2.83" stroke="#1e1e1e" stroke-width="4" fill="none"></path></g><g transform="translate(906.3200370418524 942.1346941572688) rotate(0 55.61002749869377 0.026147176623354085)"><path d="M83.5 5.39 C96.86 5.5, 106.88 3.4, 117.9 -2.13 M86.26 8.12 C91.77 6.53, 96.46 2.89, 112.47 -3.47" stroke="#1e1e1e" stroke-width="4" fill="none"></path></g><g transform="translate(906.3200370418524 942.1346941572688) rotate(0 55.61002749869377 0.026147176623354085)"><path d="M82.57 -15.11 C96.49 -8.74, 106.79 -4.59, 117.9 -2.13 M85.33 -12.38 C91.09 -9.83, 95.98 -9.32, 112.47 -3.47" stroke="#1e1e1e" stroke-width="4" fill="none"></path></g></g><mask></mask><g stroke-linecap="round"><g transform="translate(201.23711365456973 380.06387315514235) rotate(0 541.6570137600737 110.48908801410641)"><path d="M1.04 -1.23 C91.98 -133.58, 179.66 -265.53, 227.24 -337.94 M0.02 0.01 C75.97 -112.47, 149.52 -222.54, 226.06 -334.84 M224.72 -334.99 C476.71 -337.79, 726.1 -335.12, 1081.97 -326.39 M225.71 -335.52 C566.87 -325.18, 907.83 -322.44, 1080.64 -327.41 M1083.29 -330.23 C1080.93 -319.88, 1074.89 -312.45, 1066.86 -294.92 M1081.07 -326.34 C1076.95 -321.43, 1073.04 -312.18, 1069.21 -296.73 M1068.85 -297 C936.76 -299.08, 805.66 -300.75, 438.02 -309.54 M1069.95 -297.21 C869.69 -298.49, 669.01 -303.11, 438.47 -309.47 M439.13 -309.94 C478.03 -254.36, 512.63 -196, 541.66 -151.4 M439.2 -307.86 C479.91 -250.48, 519.35 -190.41, 542.07 -152.92 M541.6 -153.88 C643.89 -157.74, 747.67 -158.37, 1045.74 -159.39 M540.42 -153.99 C659.76 -152.31, 776.79 -153.15, 1044.03 -158.87 M1047.65 -157.59 C1039.92 -147.73, 1044.59 -129.48, 1039.03 -118.08 M1044.26 -159.76 C1042.02 -148.31, 1044.02 -140.8, 1038.41 -116.15 M1039.67 -116.68 C829.29 -125.77, 621.42 -132.74, 208.31 -138.98 M1038.88 -118.46 C756.94 -123.9, 473.67 -131.41, 208.08 -140.16 M205.97 -140.84 C211.02 -84.74, 216.51 -33.5, 214.32 -5.44 M209.7 -140.94 C209.67 -92.9, 211.91 -46.31, 214.68 -2.64 M213.45 -1.76 C418.64 -4.5, 624.77 -5.81, 1047.79 -1.09 M215.12 -1.01 C478.13 -7.03, 743.58 -6.23, 1046.98 -0.62 M1047.99 -1.63 C1048.02 28.25, 1043.43 52.27, 1039.42 78.57 M1048.53 1.17 C1044.8 25.01, 1040.13 53.72, 1039.63 78.64 M1038 77.16 C834.98 66.58, 629.59 58.39, 391.34 50.14 M1038.69 78.09 C880.81 71.48, 722.02 65.18, 392.1 49.9 M395.67 46.83 C431.39 110.51, 474.74 178.56, 524.66 234.61 M391.33 50.86 C441.75 121.23, 488.74 186.4, 522.62 237.54 M521.73 234.7 C676.59 238.7, 833.72 235.99, 1005.05 234.75 M522.89 236.04 C666.22 239.62, 810.96 238.69, 1005.26 234.28 M1004.29 238.47 C1001.6 240.32, 1007.71 253, 1006.89 257.54 M1005.86 236.07 C1006.38 241.1, 1003.32 248.69, 1005.88 260.82 M1002.89 261.99 C745.78 251.6, 487.77 245.23, 266.38 244.99 M1004.07 261.74 C818.97 262.43, 633.2 257.27, 266.3 246.11 M264.11 249.37 C266.71 269.38, 272.7 299.52, 264.48 385.64 M268.04 246.46 C263.29 296, 266.59 344.69, 269.06 382.41 M267.74 381.11 C435.21 383.82, 601.25 383.1, 1027.93 376.45 M267.77 383.05 C544.4 380.05, 821.81 378.5, 1029.83 377.95 M1026.74 377.08 C1031.93 396.75, 1032.4 418.5, 1028.91 458.52 M1030.98 377.62 C1028.7 401.37, 1029.28 422.67, 1031.27 460.25 M1028.58 458.62 C805.6 448.44, 583.74 437.95, 440.56 432.15 M1029.94 459.41 C853.45 449.39, 677.61 441.41, 440.93 431.45 M439.56 432.25 C463.74 455.37, 485.06 481.08, 543.6 557.08 M441.07 429.28 C473.24 472.34, 509.32 518.35, 545.74 555.82 M546.1 556.44 C645.32 559.97, 741.17 559.64, 1032.56 555.97 M547.88 556.42 C649.96 559, 752.79 559.73, 1031.19 556.18" stroke="#1971c2" stroke-width="4" fill="none"></path></g><g transform="translate(201.23711365456973 380.06387315514235) rotate(0 541.6570137600737 110.48908801410641)"><path d="M1004.97 564.52 C1017.23 560.27, 1026.96 554.92, 1033.12 552.55 M1003.14 566.74 C1012.47 562.05, 1019.76 560.03, 1031.01 558.1" stroke="#1971c2" stroke-width="4" fill="none"></path></g><g transform="translate(201.23711365456973 380.06387315514235) rotate(0 541.6570137600737 110.48908801410641)"><path d="M1004.76 544 C1016.9 547.77, 1026.7 550.44, 1033.12 552.55 M1002.93 546.22 C1012.19 548.3, 1019.55 553.06, 1031.01 558.1" stroke="#1971c2" stroke-width="4" fill="none"></path></g></g><mask></mask></svg>