<svg version="1.1" xmlns="http://www.w3.org/2000/svg" viewBox="0 0 2596.0944280689773 1206.0237996367173" width="5192.188856137955" height="2412.0475992734346">
  <!-- svg-source:excalidraw -->
  
  <defs>
    <style class="style-fonts">
      @font-face {
        font-family: "Virgil";
        src: url("https://excalidraw.com/Virgil.woff2");
      }
      @font-face {
        font-family: "Cascadia";
        src: url("https://excalidraw.com/Cascadia.woff2");
      }
    </style>
    
  </defs>
  <rect x="0" y="0" width="2596.0944280689773" height="1206.0237996367173" fill="#ffffff"></rect><g stroke-linecap="round" transform="translate(10 482.6262191340186) rotate(0 94.78709111574324 27.5)"><path d="M13.75 0 M13.75 0 C70.67 3.5, 130.13 0.12, 175.82 0 M13.75 0 C60.62 0.06, 111.7 1.31, 175.82 0 M175.82 0 C186.36 3.68, 188.35 4.02, 189.57 13.75 M175.82 0 C182.66 -3.64, 192.67 8.78, 189.57 13.75 M189.57 13.75 C192.95 21.55, 191.57 28.74, 189.57 41.25 M189.57 13.75 C187.91 21.19, 190.43 25.64, 189.57 41.25 M189.57 41.25 C190.73 47.59, 188.46 54.19, 175.82 55 M189.57 41.25 C184.98 52.52, 182.81 59.39, 175.82 55 M175.82 55 C119.69 57.27, 63.8 58.87, 13.75 55 M175.82 55 C131.09 55.13, 86.5 53.31, 13.75 55 M13.75 55 C8.4 56.41, -1.31 53.01, 0 41.25 M13.75 55 C6 55.61, -3.36 46.12, 0 41.25 M0 41.25 C1 33.35, 3.62 27.39, 0 13.75 M0 41.25 C1.74 33.28, 0.9 24.43, 0 13.75 M0 13.75 C3.96 6.81, 7.45 1.69, 13.75 0 M0 13.75 C-3.62 4.96, 0.43 0.97, 13.75 0" stroke="#1e1e1e" stroke-width="4" fill="none"></path></g><g transform="translate(84.3390911615196 487.6262191340186) rotate(0 20.447999954223633 22.5)"><text x="20.447999954223633" y="0" font-family="Virgil, Segoe UI Emoji" font-size="36px" fill="#1e1e1e" text-anchor="middle" style="white-space: pre;" direction="ltr" dominant-baseline="text-before-edge">1차</text></g><g stroke-linecap="round" transform="translate(397.4630215783891 139.16924874820802) rotate(0 94.78709111574324 27.5)"><path d="M13.75 0 M13.75 0 C44.88 -1, 83.19 -0.95, 175.82 0 M13.75 0 C50.7 -1.68, 86.35 -1.53, 175.82 0 M175.82 0 C187.96 2.98, 192.4 6.28, 189.57 13.75 M175.82 0 C188.86 -2.46, 187.78 2.94, 189.57 13.75 M189.57 13.75 C191.29 22.48, 187.83 36.74, 189.57 41.25 M189.57 13.75 C189.57 24.09, 191.77 33.54, 189.57 41.25 M189.57 41.25 C185.68 50.96, 182.98 58.2, 175.82 55 M189.57 41.25 C188.65 52.62, 187.94 54.22, 175.82 55 M175.82 55 C133.55 54.25, 85.85 52.98, 13.75 55 M175.82 55 C132.33 53.03, 91.81 56.61, 13.75 55 M13.75 55 C1.34 51.88, -3.78 52.85, 0 41.25 M13.75 55 C6.66 53.45, 4.59 49.41, 0 41.25 M0 41.25 C-3.71 28.63, 1.18 24.37, 0 13.75 M0 41.25 C-0.19 32.43, -0.85 20.93, 0 13.75 M0 13.75 C-1.66 6.93, 1.74 -0.42, 13.75 0 M0 13.75 C2.23 3.7, 1.61 -3.21, 13.75 0" stroke="#1e1e1e" stroke-width="4" fill="none"></path></g><g transform="translate(477.20211235843897 144.16924874820802) rotate(0 15.04800033569336 22.5)"><text x="15.04800033569336" y="0" font-family="Virgil, Segoe UI Emoji" font-size="36px" fill="#1e1e1e" text-anchor="middle" style="white-space: pre;" direction="ltr" dominant-baseline="text-before-edge">t1</text></g><g stroke-linecap="round" transform="translate(392.47422730913934 478.40725905718364) rotate(0 94.78709111574324 27.5)"><path d="M5.33 1.98 C5.33 1.98, 5.33 1.98, 5.33 1.98 M5.33 1.98 C5.33 1.98, 5.33 1.98, 5.33 1.98 M10.84 20.03 C15.16 18.77, 15.58 12.44, 22 7.2 M10.84 20.03 C13.94 14.56, 18.63 11.57, 22 7.2 M3.89 52.41 C10.83 46.23, 20.09 35.67, 43.26 7.13 M3.89 52.41 C17.08 34.45, 34.59 20.47, 43.26 7.13 M16.62 62.15 C31.34 43, 47.95 20.08, 64.52 7.06 M16.62 62.15 C30.35 42.36, 49.37 26.47, 64.52 7.06 M37.88 62.08 C50.91 50.68, 63 30.02, 85.12 7.74 M37.88 62.08 C49.24 48, 56.78 37.39, 85.12 7.74 M59.14 62.01 C76.07 43.65, 92.72 20.35, 106.38 7.67 M59.14 62.01 C74.42 43.93, 90.75 24.62, 106.38 7.67 M80.41 61.95 C95.52 42.4, 109.23 29.75, 127.64 7.61 M80.41 61.95 C96.34 44.56, 114.04 23.07, 127.64 7.61 M101.01 62.63 C111.63 49.49, 126.57 40.39, 148.9 7.54 M101.01 62.63 C116.44 48.09, 127.2 32.68, 148.9 7.54 M122.27 62.56 C135.86 46.99, 150.84 25.74, 169.51 8.22 M122.27 62.56 C140.63 41.25, 155.06 23.5, 169.51 8.22 M143.53 62.49 C158.22 44.75, 178.66 18.77, 191.42 7.4 M143.53 62.49 C156.42 47.22, 171.03 30.32, 191.42 7.4 M164.79 62.42 C179.98 48.01, 186.37 33.89, 200.87 20.91 M164.79 62.42 C175.65 52.73, 182.37 41.28, 200.87 20.91" stroke="#a5d8ff" stroke-width="2" fill="none"></path><path d="M13.75 0 M13.75 0 C67.92 3.13, 123.18 6.27, 175.82 0 M13.75 0 C68.96 1.25, 122.47 2.15, 175.82 0 M175.82 0 C186.05 -2.11, 191.3 5, 189.57 13.75 M175.82 0 C181.53 0.63, 190.74 2.94, 189.57 13.75 M189.57 13.75 C189.55 21.27, 186.57 31.45, 189.57 41.25 M189.57 13.75 C188.72 19.77, 190.62 29.06, 189.57 41.25 M189.57 41.25 C190.39 53.55, 185.55 51.6, 175.82 55 M189.57 41.25 C190.94 48.82, 183.17 55.4, 175.82 55 M175.82 55 C123.43 54.43, 71.87 52.9, 13.75 55 M175.82 55 C131.34 53.73, 90.96 55.03, 13.75 55 M13.75 55 C7.22 51.63, 2.97 49.6, 0 41.25 M13.75 55 C0.55 57.32, -0.16 52.53, 0 41.25 M0 41.25 C0.57 32.14, -3.6 27.24, 0 13.75 M0 41.25 C1.08 30.13, -0.16 22.55, 0 13.75 M0 13.75 C-0.93 3.39, 5.91 1.7, 13.75 0 M0 13.75 C-4.33 2.62, 5.44 1.6, 13.75 0" stroke="#1e1e1e" stroke-width="4" fill="none"></path></g><g transform="translate(464.2753183638474 483.40725905718364) rotate(0 22.986000061035156 22.5)"><text x="22.986000061035156" y="0" font-family="Virgil, Segoe UI Emoji" font-size="36px" fill="#1e1e1e" text-anchor="middle" style="white-space: pre;" direction="ltr" dominant-baseline="text-before-edge">t2</text></g><g stroke-linecap="round" transform="translate(375.8449130783072 860.8814863663229) rotate(0 94.78709111574324 27.5)"><path d="M13.75 0 M13.75 0 C76.09 1.08, 132.9 -3.85, 175.82 0 M13.75 0 C57.48 4.29, 98.83 2.56, 175.82 0 M175.82 0 C188.16 3.78, 193.05 2.5, 189.57 13.75 M175.82 0 C183.89 -1.17, 193.53 0.21, 189.57 13.75 M189.57 13.75 C192.85 18.51, 191.56 27.46, 189.57 41.25 M189.57 13.75 C187.89 23.41, 190.4 30.35, 189.57 41.25 M189.57 41.25 C190.13 48.88, 183.02 54.85, 175.82 55 M189.57 41.25 C187.05 46.16, 186.79 58.98, 175.82 55 M175.82 55 C142.77 53.75, 103.5 55.93, 13.75 55 M175.82 55 C131.27 55.66, 84.01 58.11, 13.75 55 M13.75 55 C6.3 58.08, -3.79 48.08, 0 41.25 M13.75 55 C2.94 58.57, -3.15 51.38, 0 41.25 M0 41.25 C-0.75 36.08, -1.09 24.44, 0 13.75 M0 41.25 C-0.2 34.85, 1.55 28.38, 0 13.75 M0 13.75 C1.99 1.05, 6.28 -0.07, 13.75 0 M0 13.75 C2.61 7.8, 1.75 -0.37, 13.75 0" stroke="#1e1e1e" stroke-width="4" fill="none"></path></g><g transform="translate(448.2040027902418 865.8814863663229) rotate(0 22.428001403808594 22.5)"><text x="22.428001403808594" y="0" font-family="Virgil, Segoe UI Emoji" font-size="36px" fill="#1e1e1e" text-anchor="middle" style="white-space: pre;" direction="ltr" dominant-baseline="text-before-edge">t3</text></g><g stroke-linecap="round" transform="translate(721.7346490796157 140.83218017129093) rotate(0 94.78709111574324 27.5)"><path d="M13.75 0 M13.75 0 C66.78 0.01, 113.4 -0.5, 175.82 0 M13.75 0 C73.37 -1, 132.28 0.64, 175.82 0 M175.82 0 C188.95 0.38, 185.96 4.42, 189.57 13.75 M175.82 0 C184.07 -2.88, 187.37 2.33, 189.57 13.75 M189.57 13.75 C188.84 19.53, 190.59 34.17, 189.57 41.25 M189.57 13.75 C189.66 23.19, 189.23 32.73, 189.57 41.25 M189.57 41.25 C192.26 51.14, 186.47 57.53, 175.82 55 M189.57 41.25 C193.76 50.54, 188.17 55.78, 175.82 55 M175.82 55 C123.25 56.15, 74.79 55.49, 13.75 55 M175.82 55 C126.71 53.02, 76 54.39, 13.75 55 M13.75 55 C3.4 56.96, 1.56 51.06, 0 41.25 M13.75 55 C5.46 56.56, 1.56 50.93, 0 41.25 M0 41.25 C2.67 35.06, 0.67 29.69, 0 13.75 M0 41.25 C1.72 32.63, 0.62 28.67, 0 13.75 M0 13.75 C2.4 2.42, 2.46 -0.35, 13.75 0 M0 13.75 C0.2 8.37, 5.65 0.99, 13.75 0" stroke="#1e1e1e" stroke-width="4" fill="none"></path></g><g transform="translate(762.3597376318824 145.83218017129093) rotate(0 54.16200256347656 22.5)"><text x="54.16200256347656" y="0" font-family="Virgil, Segoe UI Emoji" font-size="36px" fill="#1e1e1e" text-anchor="middle" style="white-space: pre;" direction="ltr" dominant-baseline="text-before-edge">t1-&gt;t2</text></g><g stroke-linecap="round" transform="translate(720.0717176565325 310.4511853257792) rotate(0 94.78709111574324 27.5)"><path d="M13.75 0 M13.75 0 C57.54 -6.35, 96.48 -0.31, 175.82 0 M13.75 0 C71.93 1.81, 132.11 2.19, 175.82 0 M175.82 0 C185.85 0.42, 186.66 6.56, 189.57 13.75 M175.82 0 C181.49 2.74, 186.55 7.09, 189.57 13.75 M189.57 13.75 C188.55 22.16, 187.58 25.51, 189.57 41.25 M189.57 13.75 C189.86 23.24, 188.15 30.72, 189.57 41.25 M189.57 41.25 C188.98 48.53, 185.01 55.71, 175.82 55 M189.57 41.25 C186.43 50.3, 187.33 58.23, 175.82 55 M175.82 55 C141.2 55.6, 106.12 57.39, 13.75 55 M175.82 55 C134.19 53.3, 91.5 53.75, 13.75 55 M13.75 55 C5.97 58.17, -1.27 51.88, 0 41.25 M13.75 55 C5.55 53.99, 3.73 51.8, 0 41.25 M0 41.25 C-2.51 30.52, 3.33 24.1, 0 13.75 M0 41.25 C0.43 35.94, 1.23 28.1, 0 13.75 M0 13.75 C-2.2 6.4, 8.01 -0.69, 13.75 0 M0 13.75 C-2.3 5.83, 4.94 -2.85, 13.75 0" stroke="#1e1e1e" stroke-width="4" fill="none"></path></g><g transform="translate(761.254808680723 315.4511853257792) rotate(0 53.604000091552734 22.5)"><text x="53.604000091552734" y="0" font-family="Virgil, Segoe UI Emoji" font-size="36px" fill="#1e1e1e" text-anchor="middle" style="white-space: pre;" direction="ltr" dominant-baseline="text-before-edge">t1-&gt;t3</text></g><g stroke-linecap="round" transform="translate(718.8251915800246 489.46071044184896) rotate(0 94.78709111574324 27.5)"><path d="M13.75 0 M13.75 0 C71.17 0.57, 128.94 -0.18, 175.82 0 M13.75 0 C63.29 -2.76, 111.6 -2.45, 175.82 0 M175.82 0 C187.05 -0.71, 189.72 4.58, 189.57 13.75 M175.82 0 C188.06 -1.45, 190.55 7.04, 189.57 13.75 M189.57 13.75 C190.07 22.53, 192.15 31.22, 189.57 41.25 M189.57 13.75 C189.91 23.18, 191.23 30.67, 189.57 41.25 M189.57 41.25 C187.85 50.06, 181.12 53.5, 175.82 55 M189.57 41.25 C191.7 49.07, 183.15 55.06, 175.82 55 M175.82 55 C118.01 52.01, 66.5 52.72, 13.75 55 M175.82 55 C116.49 54.58, 55.77 55.83, 13.75 55 M13.75 55 C6.9 58.29, 3.42 47.61, 0 41.25 M13.75 55 C7.14 57.04, 0.1 51.14, 0 41.25 M0 41.25 C3.46 29.94, 2.36 23.91, 0 13.75 M0 41.25 C-1.52 32.96, -1.13 24.24, 0 13.75 M0 13.75 C2.55 2.81, 5.94 1.15, 13.75 0 M0 13.75 C-1.15 7.86, 2.09 -1.74, 13.75 0" stroke="#1e1e1e" stroke-width="4" fill="none"></path></g><g transform="translate(759.4502877616858 494.46071044184896) rotate(0 54.16199493408203 22.5)"><text x="54.16199493408203" y="0" font-family="Virgil, Segoe UI Emoji" font-size="36px" fill="#1e1e1e" text-anchor="middle" style="white-space: pre;" direction="ltr" dominant-baseline="text-before-edge">t2-&gt;t1</text></g><g stroke-linecap="round" transform="translate(717.1622601569414 659.0797155963371) rotate(0 94.78709111574324 27.5)"><path d="M13.75 0 M13.75 0 C55.02 -0.34, 99.31 2.5, 175.82 0 M13.75 0 C63.22 -0.82, 110.7 -0.46, 175.82 0 M175.82 0 C187.66 -1.26, 190.42 6.72, 189.57 13.75 M175.82 0 C188.06 1.95, 190.14 4.89, 189.57 13.75 M189.57 13.75 C190.38 24.68, 187.57 28.15, 189.57 41.25 M189.57 13.75 C189.03 22.99, 187.96 31.84, 189.57 41.25 M189.57 41.25 C191.42 49.25, 183.39 55.05, 175.82 55 M189.57 41.25 C191.17 51.14, 183.49 50.91, 175.82 55 M175.82 55 C137.76 53.25, 95.72 54.62, 13.75 55 M175.82 55 C141.44 56.05, 106.45 53, 13.75 55 M13.75 55 C6.81 56.77, 0.08 51.04, 0 41.25 M13.75 55 C7.87 57.91, -3.98 54.8, 0 41.25 M0 41.25 C1.4 31.01, -2.14 22.46, 0 13.75 M0 41.25 C1.69 30.49, 1.09 22.08, 0 13.75 M0 13.75 C-1 7.43, 2.41 -1.51, 13.75 0 M0 13.75 C-3.92 2.87, 6.92 3.52, 13.75 0" stroke="#1e1e1e" stroke-width="4" fill="none"></path></g><g transform="translate(750.4073552704874 664.0797155963371) rotate(0 61.541996002197266 22.5)"><text x="61.541996002197266" y="0" font-family="Virgil, Segoe UI Emoji" font-size="36px" fill="#1e1e1e" text-anchor="middle" style="white-space: pre;" direction="ltr" dominant-baseline="text-before-edge">t2-&gt;t3</text></g><g stroke-linecap="round" transform="translate(715.4993287338581 868.6090749048217) rotate(0 94.78709111574324 27.5)"><path d="M13.75 0 M13.75 0 C61.54 2.28, 110.42 4.13, 175.82 0 M13.75 0 C47.64 -1.1, 83.38 1.85, 175.82 0 M175.82 0 C181.45 -1.88, 192.14 6.2, 189.57 13.75 M175.82 0 C187.06 3.79, 190.99 7.74, 189.57 13.75 M189.57 13.75 C185.56 19.99, 192.96 32.1, 189.57 41.25 M189.57 13.75 C187.32 20.84, 188.08 29.87, 189.57 41.25 M189.57 41.25 C190.3 50.23, 186.3 56.46, 175.82 55 M189.57 41.25 C189.32 47.94, 186.88 55.61, 175.82 55 M175.82 55 C123.48 57.79, 72.5 58.49, 13.75 55 M175.82 55 C134.7 51.49, 92.72 51.56, 13.75 55 M13.75 55 C5.41 57.28, 0.72 54.02, 0 41.25 M13.75 55 C7.93 51.97, -1.49 52.45, 0 41.25 M0 41.25 C1.76 32.67, 2.05 30.22, 0 13.75 M0 41.25 C-0.42 30.9, 1.33 20.83, 0 13.75 M0 13.75 C3.24 4.16, 5.57 3.32, 13.75 0 M0 13.75 C-2.06 3.72, 8.48 3.25, 13.75 0" stroke="#1e1e1e" stroke-width="4" fill="none"></path></g><g transform="translate(756.6824235727458 873.6090749048217) rotate(0 53.60399627685547 22.5)"><text x="53.60399627685547" y="0" font-family="Virgil, Segoe UI Emoji" font-size="36px" fill="#1e1e1e" text-anchor="middle" style="white-space: pre;" direction="ltr" dominant-baseline="text-before-edge">t3-&gt;t1</text></g><g stroke-linecap="round" transform="translate(715.4993287338583 1038.22808005931) rotate(0 94.78709111574324 27.5)"><path d="M13.75 0 M13.75 0 C66.82 -3.81, 126.34 -5, 175.82 0 M13.75 0 C49.45 -3.48, 89.98 -1.74, 175.82 0 M175.82 0 C186.79 3.3, 190.81 7.33, 189.57 13.75 M175.82 0 C187 -3.41, 185.43 0.43, 189.57 13.75 M189.57 13.75 C188.7 15.98, 186.29 22.38, 189.57 41.25 M189.57 13.75 C189.67 21.63, 189.96 30.43, 189.57 41.25 M189.57 41.25 C189.35 48.26, 186.64 55.53, 175.82 55 M189.57 41.25 C189.97 53.27, 189.15 52.33, 175.82 55 M175.82 55 C126.23 54.04, 77.39 58.09, 13.75 55 M175.82 55 C141.01 53.57, 105.74 54.23, 13.75 55 M13.75 55 C7.49 52.36, -1.3 52.19, 0 41.25 M13.75 55 C1.68 50.72, 1.17 51.86, 0 41.25 M0 41.25 C1.94 32.94, -0.37 26.34, 0 13.75 M0 41.25 C1.31 33.64, 0.19 28.1, 0 13.75 M0 13.75 C-1.8 3.83, 7.97 2.82, 13.75 0 M0 13.75 C-3.21 3.02, 3.33 0.05, 13.75 0" stroke="#1e1e1e" stroke-width="4" fill="none"></path></g><g transform="translate(748.744420032707 1043.22808005931) rotate(0 61.54199981689453 22.5)"><text x="61.54199981689453" y="0" font-family="Virgil, Segoe UI Emoji" font-size="36px" fill="#1e1e1e" text-anchor="middle" style="white-space: pre;" direction="ltr" dominant-baseline="text-before-edge">t3-&gt;t2</text></g><g stroke-linecap="round"><g transform="translate(200.39590234514822 507.1672656867313) rotate(0 99.38232965158161 -179.7223573918422)"><path d="M1.76 -0.7 C33.69 -60.75, 161.95 -299, 193.9 -358.74 M-0.73 -3.55 C31.92 -63.42, 166.16 -297.13, 199.49 -356.08" stroke="#1e1e1e" stroke-width="4" fill="none"></path></g><g transform="translate(200.39590234514822 507.1672656867313) rotate(0 99.38232965158161 -179.7223573918422)"><path d="M193.44 -328.65 C193.51 -340.7, 194.82 -348, 202.43 -354.26 M193.42 -327.78 C195.6 -337.25, 197.39 -348.67, 197.53 -356.22" stroke="#1e1e1e" stroke-width="4" fill="none"></path></g><g transform="translate(200.39590234514822 507.1672656867313) rotate(0 99.38232965158161 -179.7223573918422)"><path d="M175.61 -338.81 C182.63 -347.19, 190.78 -350.59, 202.43 -354.26 M175.59 -337.94 C184.8 -343.14, 193.59 -350.56, 197.53 -356.22" stroke="#1e1e1e" stroke-width="4" fill="none"></path></g></g><mask></mask><g stroke-linecap="round"><g transform="translate(592.0259980791251 165.00631732512466) rotate(0 65.29126382711087 -0.3312130576372283)"><path d="M1.79 -0.02 C23.85 0.15, 110.08 -1.18, 131.27 -1.16 M-0.69 -2.5 C21.1 -1.76, 106.45 0.88, 128.98 1.84" stroke="#1e1e1e" stroke-width="4" fill="none"></path></g><g transform="translate(592.0259980791251 165.00631732512466) rotate(0 65.29126382711087 -0.3312130576372283)"><path d="M100.4 10.93 C106.34 4.82, 115.57 2.08, 130.37 4.1 M100.82 9.2 C105.49 10.91, 113.03 4.86, 128.47 2.19" stroke="#1e1e1e" stroke-width="4" fill="none"></path></g><g transform="translate(592.0259980791251 165.00631732512466) rotate(0 65.29126382711087 -0.3312130576372283)"><path d="M101.14 -9.58 C106.57 -10.34, 115.61 -7.76, 130.37 4.1 M101.56 -11.3 C106.09 -4.68, 113.46 -5.81, 128.47 2.19" stroke="#1e1e1e" stroke-width="4" fill="none"></path></g></g><mask></mask><g stroke-linecap="round"><g transform="translate(592.0259980791251 168.33218017129116) rotate(0 62.41761592646198 83.28594058161838)"><path d="M-0.75 -1.06 C20.44 27.16, 104.42 139.47, 125.58 167.95 M4.04 -4.11 C25.07 24.58, 103.61 141.15, 123.82 170.68" stroke="#1e1e1e" stroke-width="4" fill="none"></path></g><g transform="translate(592.0259980791251 168.33218017129116) rotate(0 62.41761592646198 83.28594058161838)"><path d="M97.97 154.36 C102.89 159.73, 111.52 158.48, 123.07 173.99 M100.14 153.06 C109.58 159.42, 119.34 164.68, 123.45 171.04" stroke="#1e1e1e" stroke-width="4" fill="none"></path></g><g transform="translate(592.0259980791251 168.33218017129116) rotate(0 62.41761592646198 83.28594058161838)"><path d="M114.95 142.83 C115.6 150.93, 120.07 152.51, 123.07 173.99 M117.11 141.53 C120.23 152.34, 123.72 161.85, 123.45 171.04" stroke="#1e1e1e" stroke-width="4" fill="none"></path></g></g><mask></mask><g stroke-linecap="round"><g transform="translate(206.22590792381936 504.2443276341004) rotate(0 89.55262515868208 -0.8924874863922128)"><path d="M0.22 -1.03 C30.35 -0.27, 152.18 2.5, 182.21 2.27 M-3.1 -4.06 C26.6 -3.84, 150.28 -2.09, 180.49 -1.52" stroke="#1e1e1e" stroke-width="4" fill="none"></path></g><g transform="translate(206.22590792381936 504.2443276341004) rotate(0 89.55262515868208 -0.8924874863922128)"><path d="M150.66 9.65 C165.52 3.56, 168.8 -2.02, 177.37 -1.49 M153.28 8.61 C160.6 3.31, 167.17 1.2, 180.26 -1.72" stroke="#1e1e1e" stroke-width="4" fill="none"></path></g><g transform="translate(206.22590792381936 504.2443276341004) rotate(0 89.55262515868208 -0.8924874863922128)"><path d="M150.99 -10.87 C165.39 -9.73, 168.56 -8.08, 177.37 -1.49 M153.61 -11.91 C160.96 -11.48, 167.44 -7.86, 180.26 -1.72" stroke="#1e1e1e" stroke-width="4" fill="none"></path></g></g><mask></mask><g stroke-linecap="round"><g transform="translate(206.22590792381936 504.2443276341004) rotate(0 82.00724700935035 190.84358133259505)"><path d="M-0.23 -2.25 C28.07 61.3, 140.1 319.56, 167.82 383.93 M-3.8 2.71 C24.29 66.62, 136.22 316.96, 165.5 379.71" stroke="#1e1e1e" stroke-width="4" fill="none"></path></g><g transform="translate(206.22590792381936 504.2443276341004) rotate(0 82.00724700935035 190.84358133259505)"><path d="M141.28 358.11 C151.8 360.6, 156.67 371.91, 162.51 376.21 M146.25 358.36 C150.77 366.38, 155.73 373.46, 166.8 378.65" stroke="#1e1e1e" stroke-width="4" fill="none"></path></g><g transform="translate(206.22590792381936 504.2443276341004) rotate(0 82.00724700935035 190.84358133259505)"><path d="M159.95 349.61 C166.35 354.02, 166.94 367.28, 162.51 376.21 M164.92 349.86 C163.71 360.21, 163.03 369.85, 166.8 378.65" stroke="#1e1e1e" stroke-width="4" fill="none"></path></g></g><mask></mask><g stroke-linecap="round"><g transform="translate(585.3742723867922 505.90725905718364) rotate(0 66.70881277439317 1.2363541190775322)"><path d="M2.01 -1.18 C24.61 -0.3, 112.08 2.88, 133.76 3.2 M-0.34 -4.29 C22.12 -2.75, 110.23 5.64, 131.92 6.76" stroke="#1e1e1e" stroke-width="4" fill="none"></path></g><g transform="translate(585.3742723867922 505.90725905718364) rotate(0 66.70881277439317 1.2363541190775322)"><path d="M101.34 15.88 C109.73 11.19, 113 8.07, 128.9 3.16 M104.88 16.69 C110.58 14.56, 114.6 10.98, 130.88 7.12" stroke="#1e1e1e" stroke-width="4" fill="none"></path></g><g transform="translate(585.3742723867922 505.90725905718364) rotate(0 66.70881277439317 1.2363541190775322)"><path d="M102.9 -4.58 C110.63 -4.46, 113.52 -2.78, 128.9 3.16 M106.44 -3.77 C111.61 -1.29, 115.28 -0.27, 130.88 7.12" stroke="#1e1e1e" stroke-width="4" fill="none"></path></g></g><mask></mask><g stroke-linecap="round"><g transform="translate(583.711340963709 507.5701904802668) rotate(0 65.48962399719959 91.04214721298922)"><path d="M-1.09 -1.31 C21.35 28.89, 109.77 153.4, 132.07 183.39 M3.51 4.16 C25.87 33.39, 108.86 150.18, 130.22 179.54" stroke="#1e1e1e" stroke-width="4" fill="none"></path></g><g transform="translate(583.711340963709 507.5701904802668) rotate(0 65.48962399719959 91.04214721298922)"><path d="M103.57 163.63 C113.9 168.26, 112.23 168.6, 131.81 178.63 M104.13 162.24 C111.99 166.62, 116.6 168.56, 131.9 179.24" stroke="#1e1e1e" stroke-width="4" fill="none"></path></g><g transform="translate(583.711340963709 507.5701904802668) rotate(0 65.48962399719959 91.04214721298922)"><path d="M120.23 151.66 C127.29 158.64, 122.14 161.48, 131.81 178.63 M120.79 150.26 C125.34 157.06, 126.45 161.5, 131.9 179.24" stroke="#1e1e1e" stroke-width="4" fill="none"></path></g></g><mask></mask><g stroke-linecap="round"><g transform="translate(567.0820267328768 885.0556235201564) rotate(0 70.63369040574531 4.26978734828603)"><path d="M0.43 0.33 C24.53 2.14, 120.49 8.79, 144.05 10.5 M-2.78 -1.96 C21.08 -0.87, 118.69 5.3, 142.37 6.68" stroke="#1e1e1e" stroke-width="4" fill="none"></path></g><g transform="translate(567.0820267328768 885.0556235201564) rotate(0 70.63369040574531 4.26978734828603)"><path d="M114.08 16.68 C124.85 10.95, 133.05 13.26, 144.64 4.41 M114.88 13.23 C124.68 12.35, 133.63 10.38, 142.32 6.05" stroke="#1e1e1e" stroke-width="4" fill="none"></path></g><g transform="translate(567.0820267328768 885.0556235201564) rotate(0 70.63369040574531 4.26978734828603)"><path d="M115.32 -3.8 C125.69 -3.77, 133.54 4.31, 144.64 4.41 M116.12 -7.25 C125.16 -0.49, 133.66 5.19, 142.32 6.05" stroke="#1e1e1e" stroke-width="4" fill="none"></path></g></g><mask></mask><g stroke-linecap="round"><g transform="translate(570.4078895790433 890.044417789406) rotate(0 71.07296149581323 87.77407859424443)"><path d="M0.25 -1.01 C23.47 28.26, 116.18 146.68, 140.28 176.64 M-3.05 -4.02 C20.89 25.52, 120.69 149.96, 145.2 179.57" stroke="#1e1e1e" stroke-width="4" fill="none"></path></g><g transform="translate(570.4078895790433 890.044417789406) rotate(0 71.07296149581323 87.77407859424443)"><path d="M118.02 160.26 C126.38 171.91, 138.05 173.66, 147.77 180.33 M121.1 162.48 C125.12 170.36, 133.95 171.3, 146.76 177.69" stroke="#1e1e1e" stroke-width="4" fill="none"></path></g><g transform="translate(570.4078895790433 890.044417789406) rotate(0 71.07296149581323 87.77407859424443)"><path d="M133.94 147.32 C137.04 163.35, 143.37 169.45, 147.77 180.33 M137.02 149.54 C136.47 160.94, 140.96 165.41, 146.76 177.69" stroke="#1e1e1e" stroke-width="4" fill="none"></path></g></g><mask></mask><g stroke-linecap="round" transform="translate(222.85522215465153 18.668352093801786) rotate(0 374.3765414601552 588.6777237714577)"><path d="M32 0 M32 0 C219.96 -4.9, 407.33 -3.46, 716.75 0 M32 0 C186.6 -1.93, 342.15 -1.9, 716.75 0 M716.75 0 C737.89 -0.85, 750.17 7.65, 748.75 32 M716.75 0 C737.22 2.49, 753.15 9.53, 748.75 32 M748.75 32 C746.63 378.81, 744.51 722.42, 748.75 1145.36 M748.75 32 C741.24 394.32, 741.91 755.56, 748.75 1145.36 M748.75 1145.36 C745.64 1169.66, 738.04 1173.67, 716.75 1177.36 M748.75 1145.36 C750 1167.84, 734.15 1177.54, 716.75 1177.36 M716.75 1177.36 C556.01 1177.05, 395.92 1178.2, 32 1177.36 M716.75 1177.36 C476.53 1178, 236.76 1176.94, 32 1177.36 M32 1177.36 C10.94 1179.32, -2.92 1170.57, 0 1145.36 M32 1177.36 C13.22 1173.83, 0.44 1169.44, 0 1145.36 M0 1145.36 C8.07 735.12, 8.88 324.28, 0 32 M0 1145.36 C-1.44 727.14, -0.73 307.97, 0 32 M0 32 C-2.72 10.84, 7.74 -1.16, 32 0 M0 32 C0.91 7.57, 6.18 2.77, 32 0" stroke="#1e1e1e" stroke-width="4" fill="none"></path></g><g stroke-linecap="round" transform="translate(1288.5501537541277 97.1142938341718) rotate(0 94.78709111574324 27.5)"><path d="M13.75 0 M13.75 0 C75.94 0.58, 138.99 0.75, 175.82 0 M13.75 0 C52.14 1.54, 90.95 2.47, 175.82 0 M175.82 0 C184.45 2.7, 188.39 2.37, 189.57 13.75 M175.82 0 C180.95 -3.49, 190.94 8.65, 189.57 13.75 M189.57 13.75 C192.95 22.62, 186.21 37.46, 189.57 41.25 M189.57 13.75 C190.56 20.85, 189.43 32.4, 189.57 41.25 M189.57 41.25 C188.62 53.2, 181.8 52.63, 175.82 55 M189.57 41.25 C192.48 54.28, 188.56 59.02, 175.82 55 M175.82 55 C128.25 54.93, 77.31 51.17, 13.75 55 M175.82 55 C118.59 54.19, 58.93 54.56, 13.75 55 M13.75 55 C1.55 56.84, 1.93 46.79, 0 41.25 M13.75 55 C6.16 50.96, 4.35 51.11, 0 41.25 M0 41.25 C0.08 36.91, -2.99 25.96, 0 13.75 M0 41.25 C1.27 37.41, -0.38 30.72, 0 13.75 M0 13.75 C0 4.3, 1 1.36, 13.75 0 M0 13.75 C-0.15 4.65, 4.32 -0.28, 13.75 0" stroke="#1e1e1e" stroke-width="4" fill="none"></path></g><g transform="translate(1354.9512451903056 102.1142938341718) rotate(0 28.38599967956543 22.5)"><text x="28.38599967956543" y="0" font-family="Virgil, Segoe UI Emoji" font-size="36px" fill="#1e1e1e" text-anchor="middle" style="white-space: pre;" direction="ltr" dominant-baseline="text-before-edge">2차</text></g><g stroke-linecap="round" transform="translate(1688.969313120698 113.40382753725748) rotate(0 94.78709111574324 27.5)"><path d="M5.33 1.98 C5.33 1.98, 5.33 1.98, 5.33 1.98 M5.33 1.98 C5.33 1.98, 5.33 1.98, 5.33 1.98 M10.84 20.03 C17.26 14.14, 15.63 13.44, 22 7.2 M10.84 20.03 C14.89 14.38, 17.54 12.5, 22 7.2 M3.89 52.41 C11.77 43.06, 28.36 31.12, 43.26 7.13 M3.89 52.41 C18.37 35.91, 34.74 18.47, 43.26 7.13 M16.62 62.15 C28.45 49.9, 34.13 33.27, 64.52 7.06 M16.62 62.15 C29 47.74, 39.29 35.63, 64.52 7.06 M37.88 62.08 C57.51 37.11, 75.22 22.63, 85.12 7.74 M37.88 62.08 C47.07 51.54, 60.43 39.85, 85.12 7.74 M59.14 62.01 C70.61 44.45, 84.4 33.93, 106.38 7.67 M59.14 62.01 C73.92 44.83, 88.69 28.79, 106.38 7.67 M80.41 61.95 C97.46 46.62, 110.37 21.95, 127.64 7.61 M80.41 61.95 C93.47 49.76, 102.84 35.29, 127.64 7.61 M101.01 62.63 C112.65 49.83, 126 34.39, 148.9 7.54 M101.01 62.63 C112.67 44.74, 129.4 27.4, 148.9 7.54 M122.27 62.56 C138.7 43.43, 151.47 27.35, 169.51 8.22 M122.27 62.56 C130.91 48.49, 143.45 36.23, 169.51 8.22 M143.53 62.49 C152.84 48.62, 165.34 39.25, 191.42 7.4 M143.53 62.49 C163.47 44.4, 177.78 22.07, 191.42 7.4 M164.79 62.42 C177.15 52.26, 189.5 34.91, 200.87 20.91 M164.79 62.42 C177.85 47.51, 189.82 33.6, 200.87 20.91" stroke="#a5d8ff" stroke-width="2" fill="none"></path><path d="M13.75 0 M13.75 0 C63.46 -0.54, 109.23 4.05, 175.82 0 M13.75 0 C68.79 -0.58, 123 1.19, 175.82 0 M175.82 0 C186.43 0.18, 189.49 7.37, 189.57 13.75 M175.82 0 C183.79 1.71, 188.89 8.9, 189.57 13.75 M189.57 13.75 C185.76 25.57, 192.72 34.81, 189.57 41.25 M189.57 13.75 C187.8 25.14, 190.17 33.41, 189.57 41.25 M189.57 41.25 C191.32 49.84, 184.52 51.73, 175.82 55 M189.57 41.25 C186.57 50.94, 187.84 50.67, 175.82 55 M175.82 55 C134.29 57.51, 101.29 57.6, 13.75 55 M175.82 55 C144.65 58.33, 110.33 57.51, 13.75 55 M13.75 55 C2.42 58.36, 3.18 52.06, 0 41.25 M13.75 55 C7.32 56.42, 0.31 46.42, 0 41.25 M0 41.25 C-2.7 28.47, -3.56 24.01, 0 13.75 M0 41.25 C-1.14 33.66, 0.85 28.04, 0 13.75 M0 13.75 C-1.84 0.73, 2.48 0.04, 13.75 0 M0 13.75 C0.77 1.76, 0.4 2.81, 13.75 0" stroke="#1e1e1e" stroke-width="4" fill="none"></path></g><g transform="translate(1760.7704041754062 118.40382753725748) rotate(0 22.986000061035156 22.5)"><text x="22.986000061035156" y="0" font-family="Virgil, Segoe UI Emoji" font-size="36px" fill="#1e1e1e" text-anchor="middle" style="white-space: pre;" direction="ltr" dominant-baseline="text-before-edge">t2</text></g><g stroke-linecap="round"><g transform="translate(1482.3717415897413 121.54877189367289) rotate(0 98.52208699366923 8.60164691035186)"><path d="M0.68 2.65 C33.18 4.83, 161.31 13.53, 194.11 15.59 M-2.4 1.62 C31.07 4.2, 166.31 10.02, 199.45 11.43" stroke="#1e1e1e" stroke-width="4" fill="none"></path></g><g transform="translate(1482.3717415897413 121.54877189367289) rotate(0 98.52208699366923 8.60164691035186)"><path d="M174.62 17.66 C180.58 19.89, 187.43 16.38, 195.52 8.38 M171.8 18.64 C177.98 16.44, 185.5 16.51, 198.9 12.01" stroke="#1e1e1e" stroke-width="4" fill="none"></path></g><g transform="translate(1482.3717415897413 121.54877189367289) rotate(0 98.52208699366923 8.60164691035186)"><path d="M175.51 -2.84 C181.6 4.89, 188.21 6.87, 195.52 8.38 M172.69 -1.86 C178.36 0.48, 185.68 5.07, 198.9 12.01" stroke="#1e1e1e" stroke-width="4" fill="none"></path></g></g><mask></mask><g stroke-linecap="round" transform="translate(2025.613948564019 10) rotate(0 269.270510838061 151.5904500868952)"><path d="M32 0 M32 0 C215.48 -5.48, 401.99 -5.54, 506.54 0 M32 0 C145.28 -3.37, 259.37 -3.18, 506.54 0 M506.54 0 C531.85 1, 540.7 7.99, 538.54 32 M506.54 0 C527.21 -2.96, 539.56 8.51, 538.54 32 M538.54 32 C541.57 125.57, 542.39 224.19, 538.54 271.18 M538.54 32 C543.39 123.57, 543.57 218.03, 538.54 271.18 M538.54 271.18 C536.73 291.59, 528.78 305.62, 506.54 303.18 M538.54 271.18 C534.68 291.77, 526.81 301.51, 506.54 303.18 M506.54 303.18 C410.86 299.75, 313.06 301.4, 32 303.18 M506.54 303.18 C365.78 302.82, 226.6 302.99, 32 303.18 M32 303.18 C9.18 303.07, -3.52 291.23, 0 271.18 M32 303.18 C11.16 303.97, -0.03 293.7, 0 271.18 M0 271.18 C-2.39 190.02, -4.3 113.25, 0 32 M0 271.18 C-4.64 189.41, -2.52 109.7, 0 32 M0 32 C-2.13 12.63, 11.32 2.79, 32 0 M0 32 C-1.69 11.85, 11.14 -3.44, 32 0" stroke="#1e1e1e" stroke-width="4" fill="none"></path></g><g stroke-linecap="round" transform="translate(2046.2836649369308 48.21113238347675) rotate(0 94.78709111574324 27.5)"><path d="M13.75 0 M13.75 0 C69.62 -0.85, 129.03 -2.84, 175.82 0 M13.75 0 C50.07 3.17, 86 0.96, 175.82 0 M175.82 0 C184.88 -3.52, 188.29 5.01, 189.57 13.75 M175.82 0 C185.78 -0.03, 190.76 5.91, 189.57 13.75 M189.57 13.75 C186.14 24.06, 188.41 37, 189.57 41.25 M189.57 13.75 C188.69 24.84, 189.76 33.46, 189.57 41.25 M189.57 41.25 C191.54 51.07, 187.78 53.53, 175.82 55 M189.57 41.25 C190.75 50.89, 181.55 52.45, 175.82 55 M175.82 55 C115.59 54.23, 49.28 54.24, 13.75 55 M175.82 55 C135.85 56.52, 94.39 56.63, 13.75 55 M13.75 55 C7.63 57.69, 0.14 46.96, 0 41.25 M13.75 55 C2.77 58.98, 2.31 54.72, 0 41.25 M0 41.25 C-0.39 27.33, 0.08 21.45, 0 13.75 M0 41.25 C-1.73 34.02, -0.91 30.61, 0 13.75 M0 13.75 C-2.05 6.05, 7.48 -1.94, 13.75 0 M0 13.75 C3.76 7.51, 6.34 -0.67, 13.75 0" stroke="#1e1e1e" stroke-width="4" fill="none"></path></g><g transform="translate(2126.022755716981 53.21113238347675) rotate(0 15.04800033569336 22.5)"><text x="15.04800033569336" y="0" font-family="Virgil, Segoe UI Emoji" font-size="36px" fill="#1e1e1e" text-anchor="middle" style="white-space: pre;" direction="ltr" dominant-baseline="text-before-edge">t1</text></g><g stroke-linecap="round" transform="translate(2056.537911826891 204.58839745537307) rotate(0 94.78709111574324 27.5)"><path d="M5.33 1.98 C5.33 1.98, 5.33 1.98, 5.33 1.98 M5.33 1.98 C5.33 1.98, 5.33 1.98, 5.33 1.98 M10.84 20.03 C15.72 13.44, 17.45 11.14, 22 7.2 M10.84 20.03 C12.84 14.3, 18.76 10.89, 22 7.2 M3.89 52.41 C15.95 39.64, 23.89 30.35, 43.26 7.13 M3.89 52.41 C14.78 40.97, 24.08 31.28, 43.26 7.13 M16.62 62.15 C36.56 44.23, 51.14 26.71, 64.52 7.06 M16.62 62.15 C31.8 44.86, 43.18 27.36, 64.52 7.06 M37.88 62.08 C59.22 36.92, 70.12 18.36, 85.12 7.74 M37.88 62.08 C46.84 50.88, 59.92 36.3, 85.12 7.74 M59.14 62.01 C68.92 49.51, 85.37 32.87, 106.38 7.67 M59.14 62.01 C76.19 41.24, 95.66 22.07, 106.38 7.67 M80.41 61.95 C91.58 48.9, 107.87 26.13, 127.64 7.61 M80.41 61.95 C93.96 45.84, 106.89 33.03, 127.64 7.61 M101.01 62.63 C108.33 50.22, 119.83 41.58, 148.9 7.54 M101.01 62.63 C114.61 47.09, 127.25 33.65, 148.9 7.54 M122.27 62.56 C134.16 50.75, 143.28 32.31, 169.51 8.22 M122.27 62.56 C134.62 47.99, 148.91 35.51, 169.51 8.22 M143.53 62.49 C159.16 48.84, 167.73 28.96, 191.42 7.4 M143.53 62.49 C157.79 44.39, 175.25 23.88, 191.42 7.4 M164.79 62.42 C180.32 47.79, 192.8 33.43, 200.87 20.91 M164.79 62.42 C174.35 51.3, 184.78 40.95, 200.87 20.91" stroke="#a5d8ff" stroke-width="2" fill="none"></path><path d="M13.75 0 M13.75 0 C76.43 -3.17, 135.14 -1.34, 175.82 0 M13.75 0 C56.05 1.5, 99.59 2.71, 175.82 0 M175.82 0 C183.03 -3.72, 187.04 6.08, 189.57 13.75 M175.82 0 C185.65 -4.38, 187.83 5.07, 189.57 13.75 M189.57 13.75 C187.49 19.69, 191.79 27.13, 189.57 41.25 M189.57 13.75 C191.5 23.67, 191.01 30.8, 189.57 41.25 M189.57 41.25 C190.4 48.03, 188.61 51.04, 175.82 55 M189.57 41.25 C189.82 46.56, 186.29 57.86, 175.82 55 M175.82 55 C109.17 54.99, 50.71 56.8, 13.75 55 M175.82 55 C118.37 58.78, 58.7 55.22, 13.75 55 M13.75 55 C0.79 55.94, 0.99 51.24, 0 41.25 M13.75 55 C0.34 57.01, -0.54 50.87, 0 41.25 M0 41.25 C-4.04 35.05, 0.55 25.76, 0 13.75 M0 41.25 C1.35 37, -0.77 30.99, 0 13.75 M0 13.75 C3.25 5.82, 3.93 -0.97, 13.75 0 M0 13.75 C-1.72 4.32, 4.87 0.46, 13.75 0" stroke="#1e1e1e" stroke-width="4" fill="none"></path></g><g transform="translate(2128.897001538826 209.58839745537307) rotate(0 22.428001403808594 22.5)"><text x="22.428001403808594" y="0" font-family="Virgil, Segoe UI Emoji" font-size="36px" fill="#1e1e1e" text-anchor="middle" style="white-space: pre;" direction="ltr" dominant-baseline="text-before-edge">t3</text></g><g stroke-linecap="round" transform="translate(1576.9906471282513 17.690685167470065) rotate(0 200.05434433082837 141.33620319693478)"><path d="M32 0 M32 0 C120.57 2.03, 206.68 -0.11, 368.11 0 M32 0 C151.85 -2.76, 270.1 -1.2, 368.11 0 M368.11 0 C391.27 -2.91, 400.93 8.28, 400.11 32 M368.11 0 C393.61 -4.56, 400.35 6.81, 400.11 32 M400.11 32 C401.6 106.52, 400.38 173.37, 400.11 250.67 M400.11 32 C400.04 117.16, 401.08 201.38, 400.11 250.67 M400.11 250.67 C403.4 268.08, 385.65 283.61, 368.11 282.67 M400.11 250.67 C401.25 272.95, 385.2 284.68, 368.11 282.67 M368.11 282.67 C273.75 278.4, 172.03 279.32, 32 282.67 M368.11 282.67 C259.66 277.93, 149.95 280.44, 32 282.67 M32 282.67 C10.15 286.66, 3.25 273.24, 0 250.67 M32 282.67 C9.92 281.55, -1.72 271.74, 0 250.67 M0 250.67 C-0.41 187.11, 2.49 118.74, 0 32 M0 250.67 C4.23 203, 4.05 157.95, 0 32 M0 32 C-0.77 12.07, 7.42 -3.95, 32 0 M0 32 C-3.93 8.43, 11.68 -3.63, 32 0" stroke="#1e1e1e" stroke-width="4" fill="none"></path></g><g stroke-linecap="round" transform="translate(2328.275454410842 45.64757066098673) rotate(0 94.78709111574324 27.5)"><path d="M13.75 0 M13.75 0 C46.74 -0.97, 85.46 -1.58, 175.82 0 M13.75 0 C47.95 -0.24, 81.62 1.8, 175.82 0 M175.82 0 C182.97 0.32, 188.75 3.58, 189.57 13.75 M175.82 0 C180.59 -2.54, 189.95 5.92, 189.57 13.75 M189.57 13.75 C192.5 26.89, 189.63 33.52, 189.57 41.25 M189.57 13.75 C190.97 22.44, 189.26 31.88, 189.57 41.25 M189.57 41.25 C191.97 47.83, 188.31 55.11, 175.82 55 M189.57 41.25 C185.94 53.82, 182.77 54.16, 175.82 55 M175.82 55 C115.14 52.31, 58.21 54.44, 13.75 55 M175.82 55 C136.35 58.52, 100.12 57.55, 13.75 55 M13.75 55 C2.37 55.6, -2.97 53.48, 0 41.25 M13.75 55 C4.7 54.44, -4.05 54.38, 0 41.25 M0 41.25 C3.63 34.47, 2.42 23.06, 0 13.75 M0 41.25 C-0.57 34.99, 0.69 27.63, 0 13.75 M0 13.75 C2.9 2.06, 6.64 0.56, 13.75 0 M0 13.75 C-0.52 2.71, 2.1 4.52, 13.75 0" stroke="#1e1e1e" stroke-width="4" fill="none"></path></g><g transform="translate(2369.4585454350326 50.64757066098673) rotate(0 53.604000091552734 22.5)"><text x="53.604000091552734" y="0" font-family="Virgil, Segoe UI Emoji" font-size="36px" fill="#1e1e1e" text-anchor="middle" style="white-space: pre;" direction="ltr" dominant-baseline="text-before-edge">t1-&gt;t3</text></g><g stroke-linecap="round" transform="translate(2335.9661395783123 204.58839745537307) rotate(0 94.78709111574324 27.5)"><path d="M13.75 0 M13.75 0 C54.02 -1.54, 92.82 2.59, 175.82 0 M13.75 0 C76.63 2.51, 138.14 2.97, 175.82 0 M175.82 0 C185.05 -1.48, 185.81 3.43, 189.57 13.75 M175.82 0 C183.02 -3.05, 194.01 3.98, 189.57 13.75 M189.57 13.75 C187.98 26.88, 189.66 34.99, 189.57 41.25 M189.57 13.75 C188.09 23.73, 188.58 33.89, 189.57 41.25 M189.57 41.25 C185.6 47.55, 187.33 53.12, 175.82 55 M189.57 41.25 C189.93 54.57, 186.59 52.34, 175.82 55 M175.82 55 C132.81 53.11, 87 53.69, 13.75 55 M175.82 55 C120.26 56.55, 64.3 56.08, 13.75 55 M13.75 55 C1.65 54.74, 3.2 49.41, 0 41.25 M13.75 55 C4.04 54, 3.11 52.13, 0 41.25 M0 41.25 C-0.06 35.12, 2.41 24.51, 0 13.75 M0 41.25 C0.88 33.6, 0.19 25.34, 0 13.75 M0 13.75 C0.79 2.18, 7.07 3.6, 13.75 0 M0 13.75 C3.26 6.61, 8.07 -3.09, 13.75 0" stroke="#1e1e1e" stroke-width="4" fill="none"></path></g><g transform="translate(2377.1492344172 209.58839745537307) rotate(0 53.60399627685547 22.5)"><text x="53.60399627685547" y="0" font-family="Virgil, Segoe UI Emoji" font-size="36px" fill="#1e1e1e" text-anchor="middle" style="white-space: pre;" direction="ltr" dominant-baseline="text-before-edge">t3-&gt;t1</text></g><g stroke-linecap="round"><g transform="translate(1882.1510220811733 137.23661372323932) rotate(0 81.01945953374536 -30.322417186944563)"><path d="M1.58 -1.32 C28.86 -12.14, 136.01 -54.01, 163.05 -64.78 M-1.01 4.14 C26.09 -6.28, 134.28 -50.21, 161.65 -61.53" stroke="#1e1e1e" stroke-width="4" fill="none"></path></g><g transform="translate(1882.1510220811733 137.23661372323932) rotate(0 81.01945953374536 -30.322417186944563)"><path d="M137.56 -39.16 C144.59 -43.94, 149.11 -53.16, 163.11 -58.5 M138.93 -39.63 C145.27 -47.54, 152.57 -54.55, 162.38 -60.67" stroke="#1e1e1e" stroke-width="4" fill="none"></path></g><g transform="translate(1882.1510220811733 137.23661372323932) rotate(0 81.01945953374536 -30.322417186944563)"><path d="M129.79 -58.15 C139 -57.75, 145.68 -61.7, 163.11 -58.5 M131.16 -58.62 C139.99 -61.1, 149.56 -62.56, 162.38 -60.67" stroke="#1e1e1e" stroke-width="4" fill="none"></path></g></g><mask></mask><g stroke-linecap="round"><g transform="translate(1882.1510220811733 144.9272988907096) rotate(0 85.10337641014019 44.402334605765304)"><path d="M-1.96 -2.67 C25.68 11.93, 138.72 72.18, 166.97 87.6 M2.17 2.06 C30.57 17.18, 143.61 77.51, 172.17 91.47" stroke="#1e1e1e" stroke-width="4" fill="none"></path></g><g transform="translate(1882.1510220811733 144.9272988907096) rotate(0 85.10337641014019 44.402334605765304)"><path d="M138.6 84.52 C153.17 87.05, 166.53 90.53, 171.28 89.65 M143.13 89.32 C150.75 88.29, 161.43 90.3, 171.88 91.1" stroke="#1e1e1e" stroke-width="4" fill="none"></path></g><g transform="translate(1882.1510220811733 144.9272988907096) rotate(0 85.10337641014019 44.402334605765304)"><path d="M147.99 66.28 C159.36 74.89, 169.53 84.57, 171.28 89.65 M152.52 71.07 C157.32 75.92, 165.04 83.7, 171.88 91.1" stroke="#1e1e1e" stroke-width="4" fill="none"></path></g></g><mask></mask><g stroke-linecap="round"><g transform="translate(2238.486101507298 73.14757066098673) rotate(0 41.67402939972578 0.8618486877151099)"><path d="M-0.5 -1.75 C13.32 -1.05, 67.98 2.62, 82.37 2.48 M-4.21 3.47 C10.52 3.59, 72.75 -0.46, 87.56 -1.19" stroke="#1e1e1e" stroke-width="4" fill="none"></path></g><g transform="translate(2238.486101507298 73.14757066098673) rotate(0 41.67402939972578 0.8618486877151099)"><path d="M57.5 7.48 C71.43 9.16, 71.92 6.43, 85.18 -0.25 M60.63 9.43 C65.58 8.29, 74.33 5.83, 88.95 -1.9" stroke="#1e1e1e" stroke-width="4" fill="none"></path></g><g transform="translate(2238.486101507298 73.14757066098673) rotate(0 41.67402939972578 0.8618486877151099)"><path d="M56.33 -13.01 C70.34 -5.57, 71.16 -2.54, 85.18 -0.25 M59.46 -11.05 C64.42 -7.53, 73.44 -5.32, 88.95 -1.9" stroke="#1e1e1e" stroke-width="4" fill="none"></path></g></g><mask></mask><g stroke-linecap="round"><g transform="translate(2248.740348397258 234.6519591778631) rotate(0 44.37595382781171 2.879532147425266)"><path d="M0.47 -1.74 C15.94 -0.72, 76.68 6.48, 91.47 7.5 M-2.72 3.48 C12.66 3.64, 75.21 3.18, 90.18 3.78" stroke="#1e1e1e" stroke-width="4" fill="none"></path></g><g transform="translate(2248.740348397258 234.6519591778631) rotate(0 44.37595382781171 2.879532147425266)"><path d="M59.37 16.18 C72.29 10.34, 74.96 4.6, 87.89 6.66 M62.94 14.76 C69.06 10.63, 75.88 9.17, 89.11 2.57" stroke="#1e1e1e" stroke-width="4" fill="none"></path></g><g transform="translate(2248.740348397258 234.6519591778631) rotate(0 44.37595382781171 2.879532147425266)"><path d="M59.63 -4.34 C72.69 -5.01, 75.29 -5.57, 87.89 6.66 M63.2 -5.76 C69.52 -4.73, 76.27 -1.04, 89.11 2.57" stroke="#1e1e1e" stroke-width="4" fill="none"></path></g></g><mask></mask><g stroke-linecap="round" transform="translate(1267.4206693405772 518.8201971837939) rotate(0 94.78709111574324 50)"><path d="M25 0 M25 0 C67.89 -0.99, 106.47 -0.43, 164.57 0 M25 0 C54.58 -1.35, 83.91 -0.57, 164.57 0 M164.57 0 C178.16 1.83, 186.76 11.8, 189.57 25 M164.57 0 C182.01 -2.34, 185.99 6.06, 189.57 25 M189.57 25 C187.47 42.27, 190.85 64.51, 189.57 75 M189.57 25 C187.14 36.79, 189.07 46.45, 189.57 75 M189.57 75 C186.93 92.14, 179.96 99.98, 164.57 100 M189.57 75 C191.92 87.19, 185.71 98.75, 164.57 100 M164.57 100 C109.52 101.46, 62.95 98.84, 25 100 M164.57 100 C109.99 98.61, 57.23 100.26, 25 100 M25 100 C6.82 96.07, 1.93 93.54, 0 75 M25 100 C9.02 95.79, -2.89 93.42, 0 75 M0 75 C3.72 57.32, 1.53 48.93, 0 25 M0 75 C0.88 59.16, 1.76 44.32, 0 25 M0 25 C-1.35 10.81, 10.85 -1.4, 25 0 M0 25 C2.88 9.01, 12.27 -3.29, 25 0" stroke="#1e1e1e" stroke-width="4" fill="none"></path></g><g transform="translate(1317.5137602121797 523.8201971837939) rotate(0 44.694000244140625 45)"><text x="44.694000244140625" y="0" font-family="Virgil, Segoe UI Emoji" font-size="36px" fill="#1e1e1e" text-anchor="middle" style="white-space: pre;" direction="ltr" dominant-baseline="text-before-edge">3차</text><text x="44.694000244140625" y="45" font-family="Virgil, Segoe UI Emoji" font-size="36px" fill="#1e1e1e" text-anchor="middle" style="white-space: pre;" direction="ltr" dominant-baseline="text-before-edge">(완료)</text></g><g stroke-linecap="round" transform="translate(1667.8398287071475 535.1097308868793) rotate(0 94.78709111574324 27.5)"><path d="M5.33 1.98 C5.33 1.98, 5.33 1.98, 5.33 1.98 M5.33 1.98 C5.33 1.98, 5.33 1.98, 5.33 1.98 M10.84 20.03 C12.83 18.71, 19.72 14.06, 22 7.2 M10.84 20.03 C14.39 15.74, 14.64 15.44, 22 7.2 M3.89 52.41 C9.9 39.49, 21.78 30.72, 43.26 7.13 M3.89 52.41 C17.17 39.07, 28.34 26.04, 43.26 7.13 M16.62 62.15 C28.9 50.1, 42.38 39.19, 64.52 7.06 M16.62 62.15 C30 49.15, 41.42 31.41, 64.52 7.06 M37.88 62.08 C50.16 40.5, 71.81 23.62, 85.12 7.74 M37.88 62.08 C45.69 49.67, 59.21 37.05, 85.12 7.74 M59.14 62.01 C67.49 52.28, 77.07 37.69, 106.38 7.67 M59.14 62.01 C76.81 42.97, 94.37 21.57, 106.38 7.67 M80.41 61.95 C88.11 46.94, 96.94 41.36, 127.64 7.61 M80.41 61.95 C92.94 44.72, 105.26 31.81, 127.64 7.61 M101.01 62.63 C113.28 53.48, 120.64 39.25, 148.9 7.54 M101.01 62.63 C113.16 48.36, 124.13 34.28, 148.9 7.54 M122.27 62.56 C136.37 44.96, 150.02 32.7, 169.51 8.22 M122.27 62.56 C138.08 49.05, 149.32 33.29, 169.51 8.22 M143.53 62.49 C150.99 52.41, 159.89 39.4, 191.42 7.4 M143.53 62.49 C155.31 47.64, 168.03 33.04, 191.42 7.4 M164.79 62.42 C176.16 50.92, 190.77 36.26, 200.87 20.91 M164.79 62.42 C171.13 55.23, 181.12 43.46, 200.87 20.91" stroke="#a5d8ff" stroke-width="2" fill="none"></path><path d="M13.75 0 M13.75 0 C49.99 -0.4, 93.67 5.27, 175.82 0 M13.75 0 C66.64 -3.68, 123.44 -2.48, 175.82 0 M175.82 0 C182.18 -0.89, 186.7 7.3, 189.57 13.75 M175.82 0 C187.19 -2.43, 185.91 8.31, 189.57 13.75 M189.57 13.75 C192.42 26.44, 190.27 30.16, 189.57 41.25 M189.57 13.75 C190.32 23.32, 191.36 33.71, 189.57 41.25 M189.57 41.25 C185.92 47.75, 185.27 53.29, 175.82 55 M189.57 41.25 C190.2 53.13, 181.94 54.62, 175.82 55 M175.82 55 C139.58 54.22, 108.54 55.49, 13.75 55 M175.82 55 C109.57 54.95, 47.88 55.26, 13.75 55 M13.75 55 C5.41 57.75, -0.84 46.65, 0 41.25 M13.75 55 C2.8 55.07, 1.43 53.28, 0 41.25 M0 41.25 C2.61 33.96, 2.05 27.98, 0 13.75 M0 41.25 C1.42 31.86, 1.1 26.52, 0 13.75 M0 13.75 C0.96 1.89, 2.89 -0.76, 13.75 0 M0 13.75 C-0.54 3.76, 5.55 -1.8, 13.75 0" stroke="#1e1e1e" stroke-width="4" fill="none"></path></g><g transform="translate(1739.6409197618555 540.1097308868793) rotate(0 22.986000061035156 22.5)"><text x="22.986000061035156" y="0" font-family="Virgil, Segoe UI Emoji" font-size="36px" fill="#1e1e1e" text-anchor="middle" style="white-space: pre;" direction="ltr" dominant-baseline="text-before-edge">t2</text></g><g stroke-linecap="round"><g transform="translate(1461.2422571761908 543.254675243295) rotate(0 96.2321760727736 6.853393132132624)"><path d="M0.06 -2.21 C32.99 -0.02, 163.51 9.98, 195.82 12.89 M-3.35 2.77 C29.34 5.36, 159.63 14.63, 193.45 15.91" stroke="#1e1e1e" stroke-width="4" fill="none"></path></g><g transform="translate(1461.2422571761908 543.254675243295) rotate(0 96.2321760727736 6.853393132132624)"><path d="M161.57 24.21 C169.94 19.42, 180.19 17.63, 196.91 16.59 M166.23 25.54 C173.18 21.39, 178.41 20.92, 194.42 14.46" stroke="#1e1e1e" stroke-width="4" fill="none"></path></g><g transform="translate(1461.2422571761908 543.254675243295) rotate(0 96.2321760727736 6.853393132132624)"><path d="M162.73 3.72 C170.79 3.79, 180.77 6.86, 196.91 16.59 M167.4 5.05 C173.73 5.99, 178.67 10.63, 194.42 14.46" stroke="#1e1e1e" stroke-width="4" fill="none"></path></g></g><mask></mask><g stroke-linecap="round" transform="translate(2032.8448656908506 544.260325685312) rotate(0 94.78709111574324 27.5)"><path d="M5.33 1.98 C5.33 1.98, 5.33 1.98, 5.33 1.98 M5.33 1.98 C5.33 1.98, 5.33 1.98, 5.33 1.98 M10.84 20.03 C13.66 18.19, 13.07 12.58, 22 7.2 M10.84 20.03 C15.27 14.37, 19.53 11.56, 22 7.2 M3.89 52.41 C14.36 40.09, 33.3 20.89, 43.26 7.13 M3.89 52.41 C17.84 34.88, 34.15 19.05, 43.26 7.13 M16.62 62.15 C32.13 47.85, 39.15 30.3, 64.52 7.06 M16.62 62.15 C34.94 45.74, 47.51 26.01, 64.52 7.06 M37.88 62.08 C52.45 42.86, 70.4 24.56, 85.12 7.74 M37.88 62.08 C50.32 48.37, 61.12 36.93, 85.12 7.74 M59.14 62.01 C80.35 45.96, 95.03 18.03, 106.38 7.67 M59.14 62.01 C71.77 49.9, 81.85 34.04, 106.38 7.67 M80.41 61.95 C88.97 50.16, 104.56 38.58, 127.64 7.61 M80.41 61.95 C90.14 51.08, 102.94 35.86, 127.64 7.61 M101.01 62.63 C117.08 51.35, 129.03 31.52, 148.9 7.54 M101.01 62.63 C116.87 42.35, 137.98 23.72, 148.9 7.54 M122.27 62.56 C133.21 44.4, 147 31.49, 169.51 8.22 M122.27 62.56 C133.06 51.77, 141.51 40.39, 169.51 8.22 M143.53 62.49 C157.55 44.27, 173.75 29.35, 191.42 7.4 M143.53 62.49 C162.2 43.31, 179.75 22.49, 191.42 7.4 M164.79 62.42 C176.05 44.68, 189.33 29.79, 200.87 20.91 M164.79 62.42 C178.43 48.32, 189.88 30.12, 200.87 20.91" stroke="#a5d8ff" stroke-width="2" fill="none"></path><path d="M13.75 0 M13.75 0 C68.48 -0.59, 127.7 4.19, 175.82 0 M13.75 0 C55 -1.92, 94.33 -1.3, 175.82 0 M175.82 0 C187.78 0.5, 186.17 7.95, 189.57 13.75 M175.82 0 C184.92 -2.09, 191.31 2.28, 189.57 13.75 M189.57 13.75 C186.59 24.74, 187.54 35.72, 189.57 41.25 M189.57 13.75 C187.38 23.74, 190.69 32.27, 189.57 41.25 M189.57 41.25 C186.4 50.74, 183.08 58.92, 175.82 55 M189.57 41.25 C191.71 48.31, 180.98 58.31, 175.82 55 M175.82 55 C121.32 54.83, 57.54 54.13, 13.75 55 M175.82 55 C125.74 56.77, 79.82 58.29, 13.75 55 M13.75 55 C3.89 56.99, -0.07 49.31, 0 41.25 M13.75 55 C6.21 55.64, 3.71 46.04, 0 41.25 M0 41.25 C-2.76 29.52, -0.83 20.72, 0 13.75 M0 41.25 C-2.06 32.17, 1.53 25.69, 0 13.75 M0 13.75 C-1.27 1.5, 4.16 1.67, 13.75 0 M0 13.75 C-2.1 6.42, 0.45 2.2, 13.75 0" stroke="#1e1e1e" stroke-width="4" fill="none"></path></g><g transform="translate(2105.203955402785 549.260325685312) rotate(0 22.428001403808594 22.5)"><text x="22.428001403808594" y="0" font-family="Virgil, Segoe UI Emoji" font-size="36px" fill="#1e1e1e" text-anchor="middle" style="white-space: pre;" direction="ltr" dominant-baseline="text-before-edge">t3</text></g><g stroke-linecap="round" transform="translate(1555.8611627147006 475.28645263195335) rotate(0 502.55462758466064 77.24716013468219)"><path d="M32 0 M32 0 C241.86 -4.76, 449.1 -6.3, 973.11 0 M32 0 C331.95 6.15, 632.75 5.62, 973.11 0 M973.11 0 C995.24 -2.6, 1002.47 11.14, 1005.11 32 M973.11 0 C992.97 -0.02, 1007.46 6.19, 1005.11 32 M1005.11 32 C1004.61 64.81, 1000.67 107.54, 1005.11 122.49 M1005.11 32 C1006.74 59.71, 1004.85 88.57, 1005.11 122.49 M1005.11 122.49 C1005.9 146.43, 992.93 150.56, 973.11 154.49 M1005.11 122.49 C1007.33 145.98, 995.13 150.28, 973.11 154.49 M973.11 154.49 C748.7 155.21, 527.95 152.31, 32 154.49 M973.11 154.49 C672.4 153.34, 373.1 153.44, 32 154.49 M32 154.49 C12.42 151.65, -1.35 146.31, 0 122.49 M32 154.49 C13.56 152.89, 2.88 144.5, 0 122.49 M0 122.49 C3.51 91.58, -0.03 49.72, 0 32 M0 122.49 C0.52 101.29, -1.06 76.51, 0 32 M0 32 C-1.92 12.92, 7.49 -2.73, 32 0 M0 32 C1.33 11.76, 14.44 -2.59, 32 0" stroke="#1e1e1e" stroke-width="4" fill="none"></path></g><g stroke-linecap="round" transform="translate(2335.3451489446825 544.2603256853117) rotate(0 94.78709111574324 27.5)"><path d="M13.75 0 M13.75 0 C53.34 -5.21, 102.21 -4.63, 175.82 0 M13.75 0 C64.42 2.35, 117.08 2.1, 175.82 0 M175.82 0 C187.03 -3.89, 193.46 3.5, 189.57 13.75 M175.82 0 C188.03 -0.01, 185.97 0.04, 189.57 13.75 M189.57 13.75 C193.09 26.84, 188.16 33.83, 189.57 41.25 M189.57 13.75 C188.92 19.55, 190.65 30.23, 189.57 41.25 M189.57 41.25 C190.17 46.75, 182.48 56.53, 175.82 55 M189.57 41.25 C189.04 46.86, 189.57 58.38, 175.82 55 M175.82 55 C140.13 53.69, 102.08 57.24, 13.75 55 M175.82 55 C136.4 53.93, 99.59 51.99, 13.75 55 M13.75 55 C7.09 55.59, 3.43 47.55, 0 41.25 M13.75 55 C0.17 57.55, 4.59 48.89, 0 41.25 M0 41.25 C-0.4 38.37, 2.55 29, 0 13.75 M0 41.25 C-1.32 33.46, 0.84 28.87, 0 13.75 M0 13.75 C3.28 2.33, 5.79 -2.39, 13.75 0 M0 13.75 C-3.34 8.75, 4.23 -0.39, 13.75 0" stroke="#1e1e1e" stroke-width="4" fill="none"></path></g><g transform="translate(2415.0842397247325 549.2603256853117) rotate(0 15.04800033569336 22.5)"><text x="15.04800033569336" y="0" font-family="Virgil, Segoe UI Emoji" font-size="36px" fill="#1e1e1e" text-anchor="middle" style="white-space: pre;" direction="ltr" dominant-baseline="text-before-edge">t1</text></g><g stroke-linecap="round"><g transform="translate(1861.0215376676226 553.2038283203015) rotate(0 83.80089509161269 16.416805848183685)"><path d="M0.56 -1.82 C28.38 3.22, 137.25 25.46, 164.78 30.85 M-2.58 3.36 C26.33 8.86, 142.51 29.62, 170.18 34.66" stroke="#1e1e1e" stroke-width="4" fill="none"></path></g><g transform="translate(1861.0215376676226 553.2038283203015) rotate(0 83.80089509161269 16.416805848183685)"><path d="M138.01 37.11 C147.68 37.22, 153.8 39.4, 166.29 38.55 M139.05 37.78 C150.44 38.65, 157.2 38.69, 171.35 33.91" stroke="#1e1e1e" stroke-width="4" fill="none"></path></g><g transform="translate(1861.0215376676226 553.2038283203015) rotate(0 83.80089509161269 16.416805848183685)"><path d="M141.66 16.92 C150.59 21.55, 155.9 28.25, 166.29 38.55 M142.69 17.58 C153.36 23.97, 159.12 29.52, 171.35 33.91" stroke="#1e1e1e" stroke-width="4" fill="none"></path></g></g><mask></mask><g stroke-linecap="round"><g transform="translate(2231.1095430030036 578.8165245217809) rotate(0 51.07082234518498 -1.2218757382888157)"><path d="M-0.89 -0.01 C16.59 -0.42, 85.5 -2.07, 103.04 -2.09 M3.82 -2.49 C21.22 -2.69, 84.88 -0.79, 101.57 0.06" stroke="#1e1e1e" stroke-width="4" fill="none"></path></g><g transform="translate(2231.1095430030036 578.8165245217809) rotate(0 51.07082234518498 -1.2218757382888157)"><path d="M72.99 11.28 C75.78 11.16, 85.27 7.77, 101.56 -3.08 M73.52 10.96 C79.76 6.56, 83.63 5.11, 101.97 1.36" stroke="#1e1e1e" stroke-width="4" fill="none"></path></g><g transform="translate(2231.1095430030036 578.8165245217809) rotate(0 51.07082234518498 -1.2218757382888157)"><path d="M73.78 -9.23 C76.43 -4.55, 85.74 -3.14, 101.56 -3.08 M74.31 -9.55 C80.76 -9.81, 84.47 -7.14, 101.97 1.36" stroke="#1e1e1e" stroke-width="4" fill="none"></path></g></g><mask></mask><g stroke-linecap="round" transform="translate(1005.3789018267189 101.17369791774763) rotate(0 99.87447698744765 32.217573221757334)"><path d="M0 0 L199.75 0 L199.75 64.44 L0 64.44" stroke="none" stroke-width="0" fill="#b2f2bb"></path><path d="M0 0 C50.13 0, 100.25 0, 199.75 0 M0 0 C75.38 0, 150.77 0, 199.75 0 M199.75 0 C199.75 22.29, 199.75 44.58, 199.75 64.44 M199.75 0 C199.75 19.91, 199.75 39.83, 199.75 64.44 M199.75 64.44 C142.6 64.44, 85.45 64.44, 0 64.44 M199.75 64.44 C144.02 64.44, 88.29 64.44, 0 64.44 M0 64.44 C0 41.46, 0 18.49, 0 0 M0 64.44 C0 49.47, 0 34.5, 0 0" stroke="transparent" stroke-width="1" fill="none"></path></g><g stroke-linecap="round"><g transform="translate(1198.6843411572636 184.9393882943159) rotate(0 28.9958158995816 -51.548117154811735)" fill-rule="evenodd"><path d="M0 0 L57.99 -51.55 L0 -103.1 L0 0" stroke="none" stroke-width="0" fill="#b2f2bb" fill-rule="evenodd"></path><path d="M0 0 C18.2 -16.18, 36.4 -32.35, 57.99 -51.55 M0 0 C22.11 -19.66, 44.23 -39.31, 57.99 -51.55 M57.99 -51.55 C36.07 -71.04, 14.14 -90.52, 0 -103.1 M57.99 -51.55 C37.35 -69.89, 16.72 -88.24, 0 -103.1 M0 -103.1 C0 -67.97, 0 -32.84, 0 0 M0 -103.1 C0 -81.21, 0 -59.33, 0 0 M0 0 C0 0, 0 0, 0 0 M0 0 C0 0, 0 0, 0 0" stroke="transparent" stroke-width="1" fill="none"></path></g></g><mask></mask><g stroke-linecap="round" transform="translate(1285.3898852162738 279.2066262892582) rotate(90.9877603996399 99.87447698744768 32.217573221757334)"><path d="M0 0 L199.75 0 L199.75 64.44 L0 64.44" stroke="none" stroke-width="0" fill="#b2f2bb"></path><path d="M0 0 C70.15 0, 140.3 0, 199.75 0 M0 0 C50.06 0, 100.12 0, 199.75 0 M199.75 0 C199.75 15.6, 199.75 31.2, 199.75 64.44 M199.75 0 C199.75 18.32, 199.75 36.65, 199.75 64.44 M199.75 64.44 C121.31 64.44, 42.87 64.44, 0 64.44 M199.75 64.44 C138.64 64.44, 77.54 64.44, 0 64.44 M0 64.44 C0 50.42, 0 36.41, 0 0 M0 64.44 C0 39.21, 0 13.98, 0 0" stroke="transparent" stroke-width="1" fill="none"></path></g><g stroke-linecap="round"><g transform="translate(1354.158053447406 485.38090235647064) rotate(90.9877603996399 28.9958158995816 -51.548117154811735)" fill-rule="evenodd"><path d="M0 0 L57.99 -51.55 L0 -103.1 L0 0" stroke="none" stroke-width="0" fill="#b2f2bb" fill-rule="evenodd"></path><path d="M0 0 C11.73 -10.43, 23.47 -20.86, 57.99 -51.55 M0 0 C17.49 -15.55, 34.99 -31.1, 57.99 -51.55 M57.99 -51.55 C46.35 -61.9, 34.7 -72.25, 0 -103.1 M57.99 -51.55 C43.56 -64.38, 29.12 -77.21, 0 -103.1 M0 -103.1 C0 -64.61, 0 -26.12, 0 0 M0 -103.1 C0 -78.77, 0 -54.45, 0 0 M0 0 C0 0, 0 0, 0 0 M0 0 C0 0, 0 0, 0 0" stroke="transparent" stroke-width="1" fill="none"></path></g></g><mask></mask><g stroke-linecap="round" transform="translate(1232.694668499289 861.3264446570379) rotate(0 676.6998797848443 95.04567259901341)"><path d="M32 0 M32 0 C419.18 6.66, 805.34 7.77, 1321.4 0 M1321.4 0 C1339.45 -0.46, 1355.43 12.36, 1353.4 32 M1353.4 32 C1352.12 61.32, 1355.94 96.94, 1353.4 158.09 M1353.4 158.09 C1351.61 178.76, 1339.35 190.61, 1321.4 190.09 M1321.4 190.09 C890.54 194.55, 462.49 194.12, 32 190.09 M32 190.09 C13.3 193.09, -0.04 183.12, 0 158.09 M0 158.09 C0.26 123.58, -0.71 85.12, 0 32 M0 32 C-2.52 14.42, 10.37 1.18, 32 0" stroke="#1e1e1e" stroke-width="4.5" fill="none" stroke-dasharray="8 12"></path></g><g transform="translate(1285.9482058646254 936.011736259901) rotate(0 31.139999389648438 22.5)"><text x="31.139999389648438" y="0" font-family="Virgil, Segoe UI Emoji" font-size="36px" fill="#1e1e1e" text-anchor="middle" style="white-space: pre;" direction="ltr" dominant-baseline="text-before-edge">범례</text></g><g stroke-linecap="round" transform="translate(1387.6877381965962 900.4578867451903) rotate(0 182.77876349288533 61.97219878084945)"><path d="M7.59 7.92 C7.59 7.92, 7.59 7.92, 7.59 7.92 M7.59 7.92 C7.59 7.92, 7.59 7.92, 7.59 7.92 M8.51 31.25 C20.34 21.95, 26.77 7.84, 33.44 2.57 M8.51 31.25 C16.56 20.27, 26.95 8.97, 33.44 2.57 M8.78 55.33 C25.6 36.81, 44.39 12.77, 54.7 2.5 M8.78 55.33 C22.54 39.41, 37.35 21.47, 54.7 2.5 M9.05 79.41 C33.62 51.68, 56.94 28.33, 75.96 2.43 M9.05 79.41 C24.61 62.82, 40.19 48.18, 75.96 2.43 M7.34 105.76 C25.74 79.59, 42.71 62.46, 97.22 2.37 M7.34 105.76 C33.81 75.97, 60.09 44.6, 97.22 2.37 M14.83 121.54 C56.24 74.09, 98.73 22.11, 118.49 2.3 M14.83 121.54 C46.96 87.77, 74.51 51.11, 118.49 2.3 M32.81 125.25 C71.25 81.9, 110.06 32.56, 139.75 2.23 M32.81 125.25 C71.47 85.34, 111.69 40.4, 139.75 2.23 M54.07 125.18 C80 89.21, 112.59 56.35, 161.01 2.16 M54.07 125.18 C90.18 85.5, 126.82 41.95, 161.01 2.16 M75.33 125.11 C108.63 89.02, 134.24 56.05, 182.27 2.09 M75.33 125.11 C103.34 90.78, 133.59 62.42, 182.27 2.09 M96.59 125.04 C132.69 76.12, 175.69 35.45, 203.53 2.02 M96.59 125.04 C122.23 99.2, 149.04 69.28, 203.53 2.02 M117.19 125.72 C139.31 98.19, 162.42 70.86, 224.79 1.95 M117.19 125.72 C154.76 85.01, 188.58 44.64, 224.79 1.95 M138.45 125.66 C165.41 98.64, 193.38 66.33, 245.39 2.64 M138.45 125.66 C162.73 93.57, 187.76 63.96, 245.39 2.64 M159.71 125.59 C202.62 81.1, 239.41 29.97, 266.65 2.57 M159.71 125.59 C197.93 80.74, 237.18 35.81, 266.65 2.57 M180.97 125.52 C214.91 88.28, 250.47 47.94, 287.91 2.5 M180.97 125.52 C216.15 86.71, 251.57 44.39, 287.91 2.5 M202.23 125.45 C234.21 89.31, 268.5 46.89, 309.17 2.43 M202.23 125.45 C229.51 89.66, 261.23 56.17, 309.17 2.43 M223.49 125.38 C242.72 92.24, 269.77 71.08, 330.43 2.36 M223.49 125.38 C253.77 90.71, 279.31 60.29, 330.43 2.36 M244.75 125.31 C267.13 100.05, 285.86 75.4, 350.38 3.8 M244.75 125.31 C274.5 90.22, 303.92 59.73, 350.38 3.8 M266.01 125.24 C286.86 104.73, 314.11 75.57, 363.11 13.54 M266.01 125.24 C301.13 84.89, 336.12 43.33, 363.11 13.54 M287.27 125.17 C314.64 91.2, 347.37 53.74, 371.25 28.57 M287.27 125.17 C311.34 96.98, 333.87 73.31, 371.25 28.57 M308.53 125.1 C330.83 96.45, 354.21 76.04, 370.86 53.41 M308.53 125.1 C322.87 106.84, 337.97 90.49, 370.86 53.41 M329.79 125.03 C347.24 109.64, 356.7 93.17, 371.13 77.49 M329.79 125.03 C341.44 108.11, 354.53 94.17, 371.13 77.49" stroke="#ffc9c9" stroke-width="2" fill="none"></path><path d="M30.99 0 M30.99 0 C131.66 5.78, 233.29 5.31, 334.57 0 M30.99 0 C146.82 -1.83, 259.58 -3.4, 334.57 0 M334.57 0 C354.37 0.02, 369.09 11.35, 365.56 30.99 M334.57 0 C357.22 -2.88, 367.99 11.24, 365.56 30.99 M365.56 30.99 C362.5 46.32, 362.83 59.19, 365.56 92.96 M365.56 30.99 C364.16 48.99, 363.03 66.37, 365.56 92.96 M365.56 92.96 C364.64 112.87, 357.79 123.82, 334.57 123.94 M365.56 92.96 C366.56 111.25, 355.73 127.58, 334.57 123.94 M334.57 123.94 C252.25 120.44, 175.83 123.66, 30.99 123.94 M334.57 123.94 C242.85 129.4, 147.76 127.74, 30.99 123.94 M30.99 123.94 C12.41 125.6, -0.27 111.34, 0 92.96 M30.99 123.94 C11.2 124.51, 1.17 114.4, 0 92.96 M0 92.96 C2.62 82.41, -2.53 61.89, 0 30.99 M0 92.96 C-0.02 67.28, -0.13 44.46, 0 30.99 M0 30.99 C0.53 9.87, 10.11 3.48, 30.99 0 M0 30.99 C-0.48 14.41, 6.44 -2.19, 30.99 0" stroke="#1e1e1e" stroke-width="4" fill="none"></path></g><g transform="translate(1418.9065041308877 939.9300855260398) rotate(0 151.5599975585938 22.5)"><text x="151.55999755859375" y="0" font-family="Virgil, Segoe UI Emoji" font-size="36px" fill="#1e1e1e" text-anchor="middle" style="white-space: pre;" direction="ltr" dominant-baseline="text-before-edge">실행 계획 고려 대상</text></g><g stroke-linecap="round" transform="translate(1769.718887643099 898.1045121079429) rotate(0 182.77876349288533 61.97219878084945)"><path d="M7.59 7.92 C7.59 7.92, 7.59 7.92, 7.59 7.92 M7.59 7.92 C7.59 7.92, 7.59 7.92, 7.59 7.92 M8.51 31.25 C18.65 23.64, 25.6 5.69, 33.44 2.57 M8.51 31.25 C16.72 20.27, 27.34 7.49, 33.44 2.57 M8.78 55.33 C24.8 40.78, 32.92 27.78, 54.7 2.5 M8.78 55.33 C21.62 39.51, 37.75 27.01, 54.7 2.5 M9.05 79.41 C25.48 57.16, 44.88 34.89, 75.96 2.43 M9.05 79.41 C24.26 58.87, 40.9 41.25, 75.96 2.43 M7.34 105.76 C39.87 70.13, 68.44 32.41, 97.22 2.37 M7.34 105.76 C44.04 64.94, 76.88 24.37, 97.22 2.37 M14.83 121.54 C53.63 74.01, 92.79 27.87, 118.49 2.3 M14.83 121.54 C54.02 81.57, 90.14 36.27, 118.49 2.3 M32.81 125.25 C65.56 87.7, 90.08 53.26, 139.75 2.23 M32.81 125.25 C58.66 94.13, 90.02 61.57, 139.75 2.23 M54.07 125.18 C94.39 81.37, 133.48 29.9, 161.01 2.16 M54.07 125.18 C78.18 100.58, 99.09 73.73, 161.01 2.16 M75.33 125.11 C115.47 83.52, 146.35 39.82, 182.27 2.09 M75.33 125.11 C97.67 97.74, 120.63 73.92, 182.27 2.09 M96.59 125.04 C118.89 102.12, 142.09 74.47, 203.53 2.02 M96.59 125.04 C122.13 93.67, 148.17 60.3, 203.53 2.02 M117.19 125.72 C147.09 92.22, 180.76 58.78, 224.79 1.95 M117.19 125.72 C159.15 81.46, 197.96 33.49, 224.79 1.95 M138.45 125.66 C172.94 83.15, 203.79 44.27, 245.39 2.64 M138.45 125.66 C171.89 86.91, 211.72 40.74, 245.39 2.64 M159.71 125.59 C200.48 81.84, 235.64 37.81, 266.65 2.57 M159.71 125.59 C199.67 75.11, 244.06 27.31, 266.65 2.57 M180.97 125.52 C217.35 84.64, 260.13 38.64, 287.91 2.5 M180.97 125.52 C223.2 78.95, 265.5 27.99, 287.91 2.5 M202.23 125.45 C240.06 88.11, 272.15 42.12, 309.17 2.43 M202.23 125.45 C233.32 89.39, 266.18 52.84, 309.17 2.43 M223.49 125.38 C258.35 88.39, 294.34 45.13, 330.43 2.36 M223.49 125.38 C254.52 94.38, 282.14 63.54, 330.43 2.36 M244.75 125.31 C285.36 78.08, 322.96 38.14, 350.38 3.8 M244.75 125.31 C271.84 94.46, 298.16 64.65, 350.38 3.8 M266.01 125.24 C291.99 101.46, 313.35 74.72, 363.11 13.54 M266.01 125.24 C289.9 96.24, 317 67.21, 363.11 13.54 M287.27 125.17 C308.3 106.33, 328.64 82, 371.25 28.57 M287.27 125.17 C302.13 106.2, 320.05 83.52, 371.25 28.57 M308.53 125.1 C336.07 99.66, 358.06 66.89, 370.86 53.41 M308.53 125.1 C325.38 111.61, 340.35 91.19, 370.86 53.41 M329.79 125.03 C345.14 112.24, 354.59 93.44, 371.13 77.49 M329.79 125.03 C339.13 116.18, 345.41 106.29, 371.13 77.49" stroke="#b2f2bb" stroke-width="2" fill="none"></path><path d="M30.99 0 M30.99 0 C130.74 -2.98, 237.72 -4.17, 334.57 0 M30.99 0 C129.72 1.1, 227.99 0.49, 334.57 0 M334.57 0 C353.82 1.04, 364 7.34, 365.56 30.99 M334.57 0 C354.17 -4.36, 364.26 10.95, 365.56 30.99 M365.56 30.99 C362.83 47.86, 367.75 60.09, 365.56 92.96 M365.56 30.99 C367.14 48.74, 365.95 66.75, 365.56 92.96 M365.56 92.96 C367.21 116.55, 358.15 123.14, 334.57 123.94 M365.56 92.96 C362.3 110.93, 354.58 121.65, 334.57 123.94 M334.57 123.94 C219.96 123.45, 100 124.92, 30.99 123.94 M334.57 123.94 C244.47 128.28, 156.93 129.07, 30.99 123.94 M30.99 123.94 C7.11 120.19, -2.23 111.07, 0 92.96 M30.99 123.94 C10.7 119.66, -0.52 114.48, 0 92.96 M0 92.96 C2.56 73.96, 3.48 57, 0 30.99 M0 92.96 C0.48 81.42, -0.8 69.43, 0 30.99 M0 30.99 C-0.08 6.73, 11.24 -3.8, 30.99 0 M0 30.99 C-2.8 12.99, 6.22 -2.56, 30.99 0" stroke="#1e1e1e" stroke-width="4" fill="none"></path></g><g transform="translate(1800.9376535773906 937.5767108887924) rotate(0 151.55999755859375 22.5)"><text x="151.55999755859375" y="0" font-family="Virgil, Segoe UI Emoji" font-size="36px" fill="#1e1e1e" text-anchor="middle" style="white-space: pre;" direction="ltr" dominant-baseline="text-before-edge">실행 계획 완료 대상</text></g><g stroke-linecap="round" transform="translate(2163.5169102758387 893.3977628334477) rotate(0 182.77876349288533 61.97219878084945)"><path d="M7.59 7.92 C7.59 7.92, 7.59 7.92, 7.59 7.92 M7.59 7.92 C7.59 7.92, 7.59 7.92, 7.59 7.92 M8.51 31.25 C20.07 18.62, 24.77 11.55, 33.44 2.57 M8.51 31.25 C17.44 21.99, 26.08 12.3, 33.44 2.57 M8.78 55.33 C21.94 47.45, 27.43 29.05, 54.7 2.5 M8.78 55.33 C27.25 34.08, 45.49 14.9, 54.7 2.5 M9.05 79.41 C33.67 54.96, 54.69 27.88, 75.96 2.43 M9.05 79.41 C26.25 61.24, 40.67 40.26, 75.96 2.43 M7.34 105.76 C43.9 67.7, 72.71 28.9, 97.22 2.37 M7.34 105.76 C43.75 65.67, 77.92 24.87, 97.22 2.37 M14.83 121.54 C53.2 79.76, 88.14 34.39, 118.49 2.3 M14.83 121.54 C39.46 95.41, 62.89 65.55, 118.49 2.3 M32.81 125.25 C72.03 74.42, 112.78 32.26, 139.75 2.23 M32.81 125.25 C66.11 83.35, 99.05 47.13, 139.75 2.23 M54.07 125.18 C77.84 97.12, 102.3 69.05, 161.01 2.16 M54.07 125.18 C73.79 98.64, 99.3 74.75, 161.01 2.16 M75.33 125.11 C115.53 72.7, 159.65 22.68, 182.27 2.09 M75.33 125.11 C99.72 94.4, 128.41 65.03, 182.27 2.09 M96.59 125.04 C133.83 79.64, 182.19 27.28, 203.53 2.02 M96.59 125.04 C137.59 79.73, 175.31 35.82, 203.53 2.02 M117.19 125.72 C150.97 82.29, 186.96 45.29, 224.79 1.95 M117.19 125.72 C158.13 79.81, 201.72 30.29, 224.79 1.95 M138.45 125.66 C174.22 79.12, 218.53 36.93, 245.39 2.64 M138.45 125.66 C177.98 82.83, 215.51 38.25, 245.39 2.64 M159.71 125.59 C189.82 89.17, 218.84 54.99, 266.65 2.57 M159.71 125.59 C189.41 92.92, 219.33 56.4, 266.65 2.57 M180.97 125.52 C213.46 88.79, 241.22 56.5, 287.91 2.5 M180.97 125.52 C205.82 94.43, 232.42 65.73, 287.91 2.5 M202.23 125.45 C234.53 87.88, 275.95 49.19, 309.17 2.43 M202.23 125.45 C233.62 91.28, 265.55 59.12, 309.17 2.43 M223.49 125.38 C253.48 90.12, 285.14 54.09, 330.43 2.36 M223.49 125.38 C267.2 78.78, 306.66 27.52, 330.43 2.36 M244.75 125.31 C268.37 95.01, 298.64 65.14, 350.38 3.8 M244.75 125.31 C277.81 84.88, 313.59 40.12, 350.38 3.8 M266.01 125.24 C305.45 80.89, 344.08 36.78, 363.11 13.54 M266.01 125.24 C284.69 104.77, 304.53 79.02, 363.11 13.54 M287.27 125.17 C308.7 94.85, 335.5 67.61, 371.25 28.57 M287.27 125.17 C307.34 103.25, 326.89 79.58, 371.25 28.57 M308.53 125.1 C332.32 97.78, 350.77 73.5, 370.86 53.41 M308.53 125.1 C330.2 101.74, 350.42 77.05, 370.86 53.41 M329.79 125.03 C346.27 111.49, 356.31 93.9, 371.13 77.49 M329.79 125.03 C344.81 107.28, 357.34 93.34, 371.13 77.49" stroke="#a5d8ff" stroke-width="2" fill="none"></path><path d="M30.99 0 M30.99 0 C95.75 -0.61, 164.1 1.7, 334.57 0 M30.99 0 C131.24 -0.12, 228.13 -0.89, 334.57 0 M334.57 0 C353.68 2.07, 363.73 12.41, 365.56 30.99 M334.57 0 C357.6 -2.77, 365.9 8.03, 365.56 30.99 M365.56 30.99 C368.04 47.32, 365.67 58.19, 365.56 92.96 M365.56 30.99 C362.49 48.82, 364.65 70.32, 365.56 92.96 M365.56 92.96 C366.88 115.94, 355.88 120.67, 334.57 123.94 M365.56 92.96 C361.86 117.77, 353.72 121.65, 334.57 123.94 M334.57 123.94 C271.17 122.39, 207.4 121.96, 30.99 123.94 M334.57 123.94 C251.35 122.13, 167.94 121.8, 30.99 123.94 M30.99 123.94 C9.23 126.64, 1.8 112.94, 0 92.96 M30.99 123.94 C7.9 124.47, -1.92 115.21, 0 92.96 M0 92.96 C1.09 77.55, 0.74 67.47, 0 30.99 M0 92.96 C-0.81 81.25, -2.12 68.77, 0 30.99 M0 30.99 C2.85 12.18, 10.69 -1.62, 30.99 0 M0 30.99 C-4.2 14.19, 9.79 3.43, 30.99 0" stroke="#1e1e1e" stroke-width="4" fill="none"></path></g><g transform="translate(2219.305675904954 932.8699616142972) rotate(0 126.98999786376953 22.5)"><text x="126.98999786376953" y="0" font-family="Virgil, Segoe UI Emoji" font-size="36px" fill="#1e1e1e" text-anchor="middle" style="white-space: pre;" direction="ltr" dominant-baseline="text-before-edge">선택된 조인 순서</text></g></svg>