<svg version="1.1" xmlns="http://www.w3.org/2000/svg" viewBox="0 0 1455.0577860075414 250.6013786030884" width="2910.1155720150828" height="501.2027572061768">
  <!-- svg-source:excalidraw -->
  
  <defs>
    <style class="style-fonts">
      @font-face {
        font-family: "Virgil";
        src: url("https://excalidraw.com/Virgil.woff2");
      }
      @font-face {
        font-family: "Cascadia";
        src: url("https://excalidraw.com/Cascadia.woff2");
      }
    </style>
    
  </defs>
  <rect x="0" y="0" width="1455.0577860075414" height="250.6013786030884" fill="#ffffff"></rect><g stroke-linecap="round" transform="translate(21.065400162730498 57.534365204978144) rotate(0 229.02921416944008 27.5)"><path d="M3.66 3.18 C3.66 3.18, 3.66 3.18, 3.66 3.18 M3.66 3.18 C3.66 3.18, 3.66 3.18, 3.66 3.18 M9.17 21.23 C10.24 20.99, 18.06 14.53, 21.64 6.89 M9.17 21.23 C11.93 17.82, 17.32 10.24, 21.64 6.89 M4.85 50.59 C16.11 39.3, 22.69 23.44, 42.9 6.82 M4.85 50.59 C18.73 34.09, 31.98 21.62, 42.9 6.82 M17.58 60.33 C30.35 49.55, 37.31 39.1, 64.16 6.75 M17.58 60.33 C32.1 44.71, 49.78 26.79, 64.16 6.75 M38.18 61.02 C52.16 45.53, 70.26 28.62, 85.42 6.68 M38.18 61.02 C53.77 41.27, 70.06 24.27, 85.42 6.68 M59.44 60.95 C73.44 43.38, 90.18 26.42, 106.68 6.61 M59.44 60.95 C68.59 47.64, 80.82 40.38, 106.68 6.61 M80.7 60.88 C94.84 45.09, 103.64 32.42, 127.28 7.3 M80.7 60.88 C93.93 46.21, 105.14 32.95, 127.28 7.3 M101.96 60.81 C117.08 41.88, 131.88 29.25, 148.54 7.23 M101.96 60.81 C114.19 45.34, 127.79 34.3, 148.54 7.23 M123.22 60.74 C132.83 50.44, 150.69 36.45, 169.81 7.16 M123.22 60.74 C140.53 42.82, 154.63 24.13, 169.81 7.16 M144.49 60.67 C158.36 44.12, 168.61 35.59, 191.07 7.09 M144.49 60.67 C159.1 43.41, 173.89 26.91, 191.07 7.09 M165.75 60.6 C178.84 41.26, 194.39 24.8, 212.33 7.02 M165.75 60.6 C181.37 40.7, 195.64 24.61, 212.33 7.02 M187.01 60.54 C203.17 45.14, 217.63 25.95, 233.59 6.95 M187.01 60.54 C202.43 43.32, 221.39 21.78, 233.59 6.95 M208.27 60.47 C221.08 43.7, 244.2 26.05, 254.85 6.88 M208.27 60.47 C227.57 37.63, 243.9 19.09, 254.85 6.88 M229.53 60.4 C244.99 40.3, 262.48 21.93, 276.11 6.81 M229.53 60.4 C238.05 46.65, 249.56 36.49, 276.11 6.81 M250.13 61.08 C259.14 45.06, 273.86 35.97, 297.37 6.74 M250.13 61.08 C262.38 48.34, 272.45 31.21, 297.37 6.74 M271.39 61.01 C283.74 48.95, 296.43 32.48, 318.63 6.67 M271.39 61.01 C287.15 44.17, 302.53 24.87, 318.63 6.67 M292.65 60.95 C306.02 45.97, 315.35 33.28, 339.23 7.36 M292.65 60.95 C305.22 45.91, 318.23 31.01, 339.23 7.36 M313.91 60.88 C329.14 49.14, 337.55 32.25, 360.49 7.29 M313.91 60.88 C327.52 46.67, 340.89 30.79, 360.49 7.29 M335.17 60.81 C350.9 44.91, 367.9 29.03, 381.75 7.22 M335.17 60.81 C347.13 44.63, 359.88 30.79, 381.75 7.22 M356.43 60.74 C374.68 38.92, 389.26 15.58, 403.01 7.15 M356.43 60.74 C370.94 47.36, 383.28 31.52, 403.01 7.15 M377.69 60.67 C394.59 46.49, 404.54 31.48, 424.27 7.08 M377.69 60.67 C396.98 40.1, 414.87 21.59, 424.27 7.08 M398.95 60.6 C417.55 40.58, 431.1 22.69, 449.47 2.49 M398.95 60.6 C417.79 41.41, 434.18 18.54, 449.47 2.49 M420.21 60.53 C431.78 46.57, 441.06 29, 462.2 12.23 M420.21 60.53 C431.49 49.4, 440.73 39.21, 462.2 12.23 M445.41 55.93 C449.04 55.12, 452.75 47.59, 462.47 36.31 M445.41 55.93 C448.7 52.15, 454.36 47.47, 462.47 36.31" stroke="#a5d8ff" stroke-width="2" fill="none"></path><path d="M13.75 0 M13.75 0 C165.24 -4.97, 313.1 -3.1, 444.31 0 M13.75 0 C131.58 -1.52, 250.06 -1.47, 444.31 0 M444.31 0 C454.31 1.16, 456.89 2.44, 458.06 13.75 M444.31 0 C454.56 1.9, 459.57 7.61, 458.06 13.75 M458.06 13.75 C457.2 21.9, 460.57 31.44, 458.06 41.25 M458.06 13.75 C459.87 24.17, 456.12 32.69, 458.06 41.25 M458.06 41.25 C457.45 53.86, 455.74 54.32, 444.31 55 M458.06 41.25 C454.36 46.5, 456.88 56.07, 444.31 55 M444.31 55 C304.97 57.79, 165.09 57.35, 13.75 55 M444.31 55 C302.7 58.73, 159.3 58.66, 13.75 55 M13.75 55 C8.19 53.53, 1.7 46.86, 0 41.25 M13.75 55 C2.77 55.46, 1.18 46.13, 0 41.25 M0 41.25 C-3.64 32.51, -1.19 26.96, 0 13.75 M0 41.25 C-0.85 35.68, 1.36 29.78, 0 13.75 M0 13.75 C-3.79 3.08, 6.09 -2.41, 13.75 0 M0 13.75 C3.46 5.28, 5.24 -2.01, 13.75 0" stroke="#1e1e1e" stroke-width="4" fill="none"></path></g><g transform="translate(138.67461616322527 62.534365204978144) rotate(0 111.41999816894531 22.5)"><text x="111.41999816894531" y="0" font-family="Virgil, Segoe UI Emoji" font-size="36px" fill="#1e1e1e" text-anchor="middle" style="white-space: pre;" direction="ltr" dominant-baseline="text-before-edge">중첩 루프 조인</text></g><g stroke-linecap="round"><g transform="translate(483.4451344293361 81.30154780746716) rotate(0 463.9049940039264 -2.507155583449105)"><path d="M-1.8 -0.4 C152.88 -1.51, 774.36 -4.07, 929.61 -4.61 M2.43 -3.09 C156.82 -4.12, 774.33 -2.61, 928.82 -2.31" stroke="#1e1e1e" stroke-width="4" fill="none"></path></g><g transform="translate(483.4451344293361 81.30154780746716) rotate(0 463.9049940039264 -2.507155583449105)"><path d="M900.04 11.73 C907.02 8.59, 918.48 0.66, 927.61 -0.56 M899.92 9.89 C906.87 6.81, 913.56 4.92, 926.94 -2.74" stroke="#1e1e1e" stroke-width="4" fill="none"></path></g><g transform="translate(483.4451344293361 81.30154780746716) rotate(0 463.9049940039264 -2.507155583449105)"><path d="M900.08 -8.8 C907.35 -4.62, 918.79 -5.23, 927.61 -0.56 M899.96 -10.64 C906.86 -8.57, 913.53 -5.33, 926.94 -2.74" stroke="#1e1e1e" stroke-width="4" fill="none"></path></g></g><mask></mask><g stroke-linecap="round" transform="translate(10 185.6013786030884) rotate(0 229.02921416944008 27.5)"><path d="M3.66 3.18 C3.66 3.18, 3.66 3.18, 3.66 3.18 M3.66 3.18 C3.66 3.18, 3.66 3.18, 3.66 3.18 M9.17 21.23 C10.35 19.97, 19.56 12.02, 21.64 6.89 M9.17 21.23 C12.49 16.93, 13.03 15.96, 21.64 6.89 M4.85 50.59 C20.43 37.75, 29.02 21.78, 42.9 6.82 M4.85 50.59 C11.99 38.52, 22.49 31.53, 42.9 6.82 M17.58 60.33 C37.46 43.06, 49.54 21.4, 64.16 6.75 M17.58 60.33 C30.48 44.93, 45.52 29.53, 64.16 6.75 M38.18 61.02 C55.64 42.3, 68.27 26.4, 85.42 6.68 M38.18 61.02 C53.6 44.68, 71.24 25.23, 85.42 6.68 M59.44 60.95 C68.4 47.8, 85.47 32.1, 106.68 6.61 M59.44 60.95 C74.56 41.83, 90.15 23.94, 106.68 6.61 M80.7 60.88 C99.43 38.06, 116.72 21.45, 127.28 7.3 M80.7 60.88 C92.05 47.83, 101.42 33.29, 127.28 7.3 M101.96 60.81 C121.82 42.78, 139.08 25.57, 148.54 7.23 M101.96 60.81 C111.66 48.11, 124.17 36.41, 148.54 7.23 M123.22 60.74 C130.57 42.9, 144 29.32, 169.81 7.16 M123.22 60.74 C137.31 45.64, 148.11 32.92, 169.81 7.16 M144.49 60.67 C153.04 44.16, 165.04 30.38, 191.07 7.09 M144.49 60.67 C155.98 46.53, 165.56 35.13, 191.07 7.09 M165.75 60.6 C175.38 49.84, 185.54 33.02, 212.33 7.02 M165.75 60.6 C186.39 39.34, 203.01 18.16, 212.33 7.02 M187.01 60.54 C198.9 44.48, 218.12 28.58, 233.59 6.95 M187.01 60.54 C202.12 43.39, 218.6 24.17, 233.59 6.95 M208.27 60.47 C219.12 46.99, 230.41 34.9, 254.85 6.88 M208.27 60.47 C223.9 42.79, 238.8 24.07, 254.85 6.88 M229.53 60.4 C246.3 41.03, 255.45 25.96, 276.11 6.81 M229.53 60.4 C244.02 40.79, 258.57 25.13, 276.11 6.81 M250.13 61.08 C262.62 42.57, 277.08 30.99, 297.37 6.74 M250.13 61.08 C260.1 49.78, 267.68 40.67, 297.37 6.74 M271.39 61.01 C283.72 43.52, 300.63 30.18, 318.63 6.67 M271.39 61.01 C281.85 48.54, 293.95 34.3, 318.63 6.67 M292.65 60.95 C305.66 39.36, 319.35 23.75, 339.23 7.36 M292.65 60.95 C310.89 40.94, 326.74 24.62, 339.23 7.36 M313.91 60.88 C324.38 41.44, 339.94 27.4, 360.49 7.29 M313.91 60.88 C328.7 43.11, 347.56 23.9, 360.49 7.29 M335.17 60.81 C345.21 47.45, 357.64 30.21, 381.75 7.22 M335.17 60.81 C350.8 45.16, 362.33 31.33, 381.75 7.22 M356.43 60.74 C374.97 42.18, 385.69 28.66, 403.01 7.15 M356.43 60.74 C365.12 49.26, 374.82 38.12, 403.01 7.15 M377.69 60.67 C389.26 41.73, 410.39 30.63, 424.27 7.08 M377.69 60.67 C392.5 41.62, 410.11 22.22, 424.27 7.08 M398.95 60.6 C412.23 44.94, 423.23 26.3, 449.47 2.49 M398.95 60.6 C415.7 41.33, 435.35 19.49, 449.47 2.49 M420.21 60.53 C440.38 41.83, 456.04 23.1, 462.2 12.23 M420.21 60.53 C429.91 50.6, 437.31 41.52, 462.2 12.23 M445.41 55.93 C450.71 49.85, 461.66 44.31, 462.47 36.31 M445.41 55.93 C449.49 51.07, 453.39 45.47, 462.47 36.31" stroke="#a5d8ff" stroke-width="2" fill="none"></path><path d="M13.75 0 M13.75 0 C115.01 -0.43, 220.19 -2.2, 444.31 0 M13.75 0 C102.81 1.42, 191.51 0.06, 444.31 0 M444.31 0 C452.8 -2.25, 461.78 4.83, 458.06 13.75 M444.31 0 C448.95 1.75, 457.35 7.48, 458.06 13.75 M458.06 13.75 C458.35 25.19, 455.51 26.03, 458.06 41.25 M458.06 13.75 C460.35 22.94, 457.01 28.43, 458.06 41.25 M458.06 41.25 C462.05 48.43, 450.55 57.04, 444.31 55 M458.06 41.25 C455.42 46.75, 456.63 58.47, 444.31 55 M444.31 55 C296.51 53.37, 148.19 55.38, 13.75 55 M444.31 55 C343.64 57.28, 242.03 56.68, 13.75 55 M13.75 55 C1.61 55.74, 3.75 51.03, 0 41.25 M13.75 55 C0.84 58.77, -0.83 48.76, 0 41.25 M0 41.25 C-3.19 34.1, -1.38 27.6, 0 13.75 M0 41.25 C-0.39 29.89, 0.01 19.5, 0 13.75 M0 13.75 C-1.1 3.41, 1.34 -2.61, 13.75 0 M0 13.75 C-2.79 2.29, 8.84 1.14, 13.75 0" stroke="#1e1e1e" stroke-width="4" fill="none"></path></g><g transform="translate(167.7492153901432 190.6013786030884) rotate(0 71.27999877929688 22.5)"><text x="71.27999877929688" y="0" font-family="Virgil, Segoe UI Emoji" font-size="36px" fill="#1e1e1e" text-anchor="middle" style="white-space: pre;" direction="ltr" dominant-baseline="text-before-edge">해시 조인</text></g><g stroke-linecap="round"><g transform="translate(470.2190813027431 210.3136388973764) rotate(0 371.2618013167598 -2.6821113032979724)"><path d="M-1.69 2.1 C122.52 0.68, 620.17 -5.64, 744.21 -7.47 M2.59 0.78 C126.56 -0.22, 619.29 -2.44, 742.21 -3.62" stroke="#1e1e1e" stroke-width="4" fill="none"></path></g><g transform="translate(470.2190813027431 210.3136388973764) rotate(0 371.2618013167598 -2.6821113032979724)"><path d="M717.09 7.44 C721.96 2.67, 727.32 4.7, 740.39 -4.74 M715.44 8.79 C723.15 1.86, 733.76 1.52, 742.85 -4.64" stroke="#1e1e1e" stroke-width="4" fill="none"></path></g><g transform="translate(470.2190813027431 210.3136388973764) rotate(0 371.2618013167598 -2.6821113032979724)"><path d="M716.95 -13.09 C722.01 -12.46, 727.41 -5.04, 740.39 -4.74 M715.3 -11.73 C722.95 -11.53, 733.6 -4.73, 742.85 -4.64" stroke="#1e1e1e" stroke-width="4" fill="none"></path></g></g><mask></mask><g transform="translate(1418.8857851225316 12.160652963862617) rotate(0 13.086000442504883 22.5)"><text x="13.086000442504883" y="0" font-family="Virgil, Segoe UI Emoji" font-size="36px" fill="#1e1e1e" text-anchor="middle" style="white-space: pre;" direction="ltr" dominant-baseline="text-before-edge">B</text></g><g transform="translate(702.8270019517382 10) rotate(0 11.807999610900879 22.5)"><text x="11.807999610900879" y="0" font-family="Virgil, Segoe UI Emoji" font-size="36px" fill="#1e1e1e" text-anchor="middle" style="white-space: pre;" direction="ltr" dominant-baseline="text-before-edge">A</text></g><g transform="translate(802.2170382894195 153.87027821742356) rotate(0 11.807999610900879 22.5)"><text x="11.807999610900879" y="0" font-family="Virgil, Segoe UI Emoji" font-size="36px" fill="#1e1e1e" text-anchor="middle" style="white-space: pre;" direction="ltr" dominant-baseline="text-before-edge">A</text></g><g transform="translate(1194.1778768808167 138.7457074703849) rotate(0 13.086000442504883 22.5)"><text x="13.086000442504883" y="0" font-family="Virgil, Segoe UI Emoji" font-size="36px" fill="#1e1e1e" text-anchor="middle" style="white-space: pre;" direction="ltr" dominant-baseline="text-before-edge">B</text></g><g stroke-linecap="round" transform="translate(714.635001562639 64.016324096566) rotate(0 334.9012093987097 17.285223710901107)"><path d="M0.75 4.62 C0.75 4.62, 0.75 4.62, 0.75 4.62 M0.75 4.62 C0.75 4.62, 0.75 4.62, 0.75 4.62 M1.67 27.95 C9.55 18.05, 16.43 12.48, 18.73 8.33 M1.67 27.95 C7.07 22.5, 11.11 16.82, 18.73 8.33 M13.74 38.45 C25.79 30.94, 29.03 17.33, 39.99 8.26 M13.74 38.45 C24.32 28.49, 31.48 17.62, 39.99 8.26 M34.35 39.13 C42.22 24.87, 55.57 19.11, 60.59 8.95 M34.35 39.13 C39.7 33.47, 47.72 22.57, 60.59 8.95 M55.61 39.06 C58.1 30.02, 65.17 26, 81.85 8.88 M55.61 39.06 C62.81 31.92, 67.52 27.55, 81.85 8.88 M76.87 39 C87.67 27.93, 96.61 18.05, 103.11 8.81 M76.87 39 C83.37 32, 91.31 24.05, 103.11 8.81 M98.13 38.93 C100.27 28.3, 113.05 28.91, 124.37 8.74 M98.13 38.93 C106.14 28.84, 114.87 19.23, 124.37 8.74 M119.39 38.86 C126.75 31.24, 137.61 13.03, 145.63 8.67 M119.39 38.86 C127.74 28.16, 135.27 18.67, 145.63 8.67 M140.65 38.79 C148.48 30.91, 162.98 14.29, 166.89 8.6 M140.65 38.79 C149.82 27.81, 156.98 17.85, 166.89 8.6 M161.91 38.72 C170.58 25.21, 176.89 16.78, 188.15 8.53 M161.91 38.72 C167.21 31.89, 174.63 23.42, 188.15 8.53 M183.17 38.65 C193.79 29.48, 201.79 21.1, 209.41 8.46 M183.17 38.65 C188.76 31.93, 196.1 22.26, 209.41 8.46 M204.43 38.58 C216.15 24.16, 222.76 17.5, 230.67 8.39 M204.43 38.58 C210.3 29.47, 218.02 23.22, 230.67 8.39 M225.69 38.51 C232.89 35.53, 236.49 27.13, 251.93 8.32 M225.69 38.51 C233.4 28.05, 241.53 19.12, 251.93 8.32 M246.95 38.44 C252.75 30.2, 260.03 23.85, 273.19 8.26 M246.95 38.44 C256.85 26.5, 268.89 15, 273.19 8.26 M267.55 39.13 C273.34 32.74, 281.08 18.5, 293.8 8.94 M267.55 39.13 C274.99 28.14, 286.98 17.44, 293.8 8.94 M288.81 39.06 C294.55 28.25, 303.75 20.85, 315.06 8.87 M288.81 39.06 C300.03 26.8, 307.76 15.53, 315.06 8.87 M310.07 38.99 C314.47 26.47, 329.65 16.16, 336.32 8.8 M310.07 38.99 C317.38 29.78, 325.04 21.97, 336.32 8.8 M331.33 38.92 C334.01 27.71, 347.46 26.65, 357.58 8.73 M331.33 38.92 C337.97 31.96, 346.15 24.03, 357.58 8.73 M352.6 38.85 C354.41 31.84, 360.47 24.9, 378.84 8.67 M352.6 38.85 C358.47 30.05, 365.69 24.04, 378.84 8.67 M373.86 38.78 C388.37 31.33, 398.8 14.33, 400.1 8.6 M373.86 38.78 C384.96 27.5, 395.2 15.17, 400.1 8.6 M395.12 38.72 C400.33 26.79, 410.15 17.39, 421.36 8.53 M395.12 38.72 C400.61 30.11, 408.39 23.25, 421.36 8.53 M416.38 38.65 C427.25 28.79, 431.58 20.59, 442.62 8.46 M416.38 38.65 C424.71 25.07, 435.25 16.55, 442.62 8.46 M437.64 38.58 C445.97 32.06, 450.24 23.31, 463.88 8.39 M437.64 38.58 C447.32 28.48, 455.9 17.67, 463.88 8.39 M458.9 38.51 C467.66 32.86, 472.01 24.68, 485.14 8.32 M458.9 38.51 C470.32 29.19, 480.75 18.18, 485.14 8.32 M480.16 38.44 C482.29 31.98, 490.81 24.97, 506.4 8.25 M480.16 38.44 C487.87 33.53, 492.46 25.47, 506.4 8.25 M500.76 39.13 C510.87 28.72, 520.33 15, 527 8.94 M500.76 39.13 C505.06 30.92, 510.62 27.3, 527 8.94 M522.02 39.06 C529.93 28.15, 541.03 12.03, 548.26 8.87 M522.02 39.06 C527.38 31.54, 536.05 21.67, 548.26 8.87 M543.28 38.99 C553.29 31.59, 563.98 17.57, 569.52 8.8 M543.28 38.99 C553.63 27.73, 563.16 13.1, 569.52 8.8 M564.54 38.92 C573.62 30.9, 575.92 24.13, 590.78 8.73 M564.54 38.92 C572.29 28.56, 581.71 15.35, 590.78 8.73 M585.8 38.85 C594.09 28.37, 603.9 18.65, 612.04 8.66 M585.8 38.85 C593.79 28.49, 603.03 14.98, 612.04 8.66 M607.06 38.78 C613.92 28.01, 629.97 14.27, 633.3 8.59 M607.06 38.78 C614.53 30.11, 617.62 24.23, 633.3 8.59 M628.32 38.71 C638.35 24.76, 652.26 10.1, 661.78 0.22 M628.32 38.71 C636.13 30.27, 643.13 22.4, 661.78 0.22 M649.58 38.64 C656.16 30.98, 661.44 20.83, 674.51 9.96 M649.58 38.64 C657.21 30.13, 662.08 24.77, 674.51 9.96 M2.24 32.48 C2.24 32.48, 2.24 32.48, 2.24 32.48 M2.24 32.48 C2.24 32.48, 2.24 32.48, 2.24 32.48 M17.27 24.34 C15.99 20.6, 12.44 17.63, 8.21 16.47 M17.27 24.34 C12.58 21.02, 10.86 18.34, 8.21 16.47 M42.1 24.73 C38.51 16.14, 24.5 11.86, 11.16 -2.17 M42.1 24.73 C35.03 18.39, 28.13 12.62, 11.16 -2.17 M66.18 24.46 C59.38 14.92, 52.01 11.5, 35.24 -2.43 M66.18 24.46 C60.02 19.09, 54.14 12.9, 35.24 -2.43 M90.27 24.2 C82.36 17.26, 70.39 9.22, 59.32 -2.7 M90.27 24.2 C79.61 12.93, 67.39 3.18, 59.32 -2.7 M115.1 24.59 C101.15 15.83, 89.43 7.09, 84.16 -2.31 M115.1 24.59 C103.66 17.15, 96.51 8.26, 84.16 -2.31 M139.18 24.32 C125.58 16.81, 115.46 6.37, 108.24 -2.58 M139.18 24.32 C126.64 13.9, 117.54 6.65, 108.24 -2.58 M164.02 24.71 C155.17 12.94, 139.23 3.55, 133.08 -2.19 M164.02 24.71 C153.26 14.58, 142.46 6.06, 133.08 -2.19 M188.1 24.44 C177.21 16.36, 169.92 9.13, 157.16 -2.45 M188.1 24.44 C183.02 18.83, 176.66 11.9, 157.16 -2.45 M212.18 24.18 C205.01 13.08, 197.1 8.92, 181.24 -2.72 M212.18 24.18 C202.04 17.64, 196.12 10.47, 181.24 -2.72 M237.02 24.57 C228.56 19.67, 221.78 9.39, 206.08 -2.33 M237.02 24.57 C232.07 19.44, 224.66 14.34, 206.08 -2.33 M261.1 24.3 C246.36 18.26, 235.91 3.6, 230.16 -2.6 M261.1 24.3 C250.84 14.81, 241.1 6.91, 230.16 -2.6 M285.94 24.69 C276.91 12.12, 261.85 4.58, 255 -2.21 M285.94 24.69 C273.68 15.77, 262.89 3.6, 255 -2.21 M310.02 24.43 C302.23 17.78, 294.2 12.59, 279.08 -2.47 M310.02 24.43 C297.68 14.28, 287.7 6.4, 279.08 -2.47 M334.1 24.16 C329.41 14.86, 316.52 9.15, 303.16 -2.74 M334.1 24.16 C325.2 16.86, 314.16 6.84, 303.16 -2.74 M358.94 24.55 C348.47 13.54, 340.08 7.88, 328 -2.35 M358.94 24.55 C346.7 14.8, 334.43 6.97, 328 -2.35 M383.02 24.28 C374.09 12.33, 357.13 3.22, 352.08 -2.62 M383.02 24.28 C377.02 16.86, 370.39 12.64, 352.08 -2.62 M407.86 24.67 C401.8 15.47, 393.26 13.58, 376.91 -2.23 M407.86 24.67 C399.27 16.54, 390.12 7.2, 376.91 -2.23 M431.94 24.41 C425.61 19.75, 416.14 16.47, 401 -2.49 M431.94 24.41 C422 16.05, 409.63 5.52, 401 -2.49 M456.77 24.8 C444.62 14.25, 443.27 14.02, 425.08 -2.76 M456.77 24.8 C442.91 15.67, 433.36 4.42, 425.08 -2.76 M480.86 24.53 C468.53 11.11, 457.38 7.59, 449.91 -2.37 M480.86 24.53 C471.8 17.26, 461.97 9.15, 449.91 -2.37 M504.94 24.26 C494.4 18.37, 494.2 16.06, 474 -2.64 M504.94 24.26 C494.85 16.05, 485.32 8.03, 474 -2.64 M529.77 24.65 C527.15 22.94, 515.28 11.36, 498.83 -2.25 M529.77 24.65 C520.3 15.59, 512.73 9.1, 498.83 -2.25 M553.86 24.39 C544.69 16.72, 533.8 12.39, 522.91 -2.51 M553.86 24.39 C539.97 12.73, 528.56 5.28, 522.91 -2.51 M578.69 24.78 C570.12 17.77, 561.98 14.65, 547 -2.78 M578.69 24.78 C568.61 16.75, 559.11 7.22, 547 -2.78 M602.77 24.51 C595.3 13.16, 579.19 4.62, 571.83 -2.39 M602.77 24.51 C593.83 14.85, 581.17 5.89, 571.83 -2.39 M626.86 24.24 C616.18 10.75, 602.43 1.54, 595.91 -2.65 M626.86 24.24 C614.08 12.6, 603.14 2.09, 595.91 -2.65 M662.26 33.82 C656.65 29.49, 642.98 16.76, 620.75 -2.26 M662.26 33.82 C655 26.19, 645.6 19, 620.75 -2.26 M673.51 22.4 C664.03 14.22, 656.26 6.36, 644.83 -2.53 M673.51 22.4 C667.49 17.01, 660.17 11.35, 644.83 -2.53" stroke="#ffc9c9" stroke-width="2" fill="none"></path><path d="M8.64 0 M8.64 0 C190.82 -0.27, 377.52 -0.67, 661.16 0 M8.64 0 C162.45 -0.39, 316.83 -0.73, 661.16 0 M661.16 0 C670.56 -1.66, 673.78 4.84, 669.8 8.64 M661.16 0 C666.55 -2.87, 671.63 2.51, 669.8 8.64 M669.8 8.64 C670.24 15.39, 672.64 16.02, 669.8 25.93 M669.8 8.64 C671.23 15.09, 670.77 21.01, 669.8 25.93 M669.8 25.93 C665.98 31.54, 665.01 36.95, 661.16 34.57 M669.8 25.93 C669.9 30.4, 666.28 31.33, 661.16 34.57 M661.16 34.57 C526.9 38.16, 395.68 38.16, 8.64 34.57 M661.16 34.57 C426.99 36.86, 193.49 36.1, 8.64 34.57 M8.64 34.57 C1.74 34.97, 1.85 30.37, 0 25.93 M8.64 34.57 C2.43 30.19, 0.56 35.45, 0 25.93 M0 25.93 C2.3 21.63, 2.86 18.19, 0 8.64 M0 25.93 C-0.26 20.03, -1.33 11.52, 0 8.64 M0 8.64 C-1.84 3.42, 4.75 2.32, 8.64 0 M0 8.64 C4.49 1.65, -1.38 0.64, 8.64 0" stroke="#1e1e1e" stroke-width="4" fill="none"></path></g><g stroke-linecap="round" transform="translate(818.3463438280457 195.81615489218723) rotate(0 180.4145224825308 12.963917783175873)"><path d="M0.72 3.28 C0.72 3.28, 0.72 3.28, 0.72 3.28 M0.72 3.28 C0.72 3.28, 0.72 3.28, 0.72 3.28 M2.96 25.1 C10.24 21.78, 7.09 15.57, 16.74 9.25 M2.96 25.1 C4.92 20.11, 8.23 16.79, 16.74 9.25 M16.35 34.08 C19.32 31.74, 29.65 21.54, 38 9.18 M16.35 34.08 C22.1 28.92, 28.41 21.75, 38 9.18 M37.61 34.02 C46.33 24.94, 51.12 17.54, 59.26 9.11 M37.61 34.02 C42.82 27.67, 50.15 20.09, 59.26 9.11 M58.87 33.95 C65.53 21.98, 70.9 21.57, 80.52 9.04 M58.87 33.95 C64.14 28.31, 68.52 24.18, 80.52 9.04 M79.47 34.63 C88.25 30.71, 89.22 20.19, 101.78 8.97 M79.47 34.63 C87.61 24.79, 94.87 19.05, 101.78 8.97 M100.73 34.56 C109.76 24.55, 120.97 16.06, 123.04 8.9 M100.73 34.56 C108.4 24.97, 117.54 16.9, 123.04 8.9 M121.99 34.49 C124.28 30.93, 136.71 17.66, 144.3 8.83 M121.99 34.49 C130.12 24.99, 136.92 16.49, 144.3 8.83 M143.25 34.43 C149.5 27.09, 159.52 17.28, 165.56 8.77 M143.25 34.43 C151.84 25.64, 154.85 18.24, 165.56 8.77 M164.51 34.36 C172.98 28.16, 183.66 15.69, 186.82 8.7 M164.51 34.36 C169.65 25.98, 178 20.11, 186.82 8.7 M185.77 34.29 C189.33 26.04, 198.33 20.2, 207.42 9.38 M185.77 34.29 C192.02 29.17, 196.54 20.53, 207.42 9.38 M207.03 34.22 C215.24 22.19, 222.85 17.21, 228.68 9.31 M207.03 34.22 C214.38 24.97, 221.79 20.35, 228.68 9.31 M228.29 34.15 C236.57 24.76, 245.42 18.5, 249.94 9.24 M228.29 34.15 C234.77 25.67, 243.61 19.04, 249.94 9.24 M249.55 34.08 C258.86 23.99, 266.12 11.25, 271.2 9.17 M249.55 34.08 C256.39 23.54, 268.03 15.62, 271.2 9.17 M270.81 34.01 C280.33 27.49, 282.44 14.05, 292.46 9.11 M270.81 34.01 C276.64 25.79, 281.19 21.73, 292.46 9.11 M291.42 34.7 C297.21 25.24, 306.74 20.51, 313.72 9.04 M291.42 34.7 C301.08 25.23, 306.59 18.46, 313.72 9.04 M312.68 34.63 C321.65 22.14, 324.9 19, 334.98 8.97 M312.68 34.63 C318.63 25.17, 324.9 17.11, 334.98 8.97 M333.94 34.56 C343.28 21.93, 354.56 17.5, 360.83 3.62 M333.94 34.56 C342.82 22.41, 353.78 15.22, 360.83 3.62 M1.49 24.2 C1.49 24.2, 1.49 24.2, 1.49 24.2 M1.49 24.2 C1.49 24.2, 1.49 24.2, 1.49 24.2 M15.76 15.4 C11.88 15.31, 11.09 11.88, 1.42 2.94 M15.76 15.4 C10.56 10.73, 6.29 6.65, 1.42 2.94 M39.84 15.13 C30.18 11.08, 26.88 1.51, 13.43 -7.83 M39.84 15.13 C31.23 7.01, 20.39 -3.13, 13.43 -7.83 M64.68 15.52 C56.34 13.87, 55.9 4.37, 37.51 -8.09 M64.68 15.52 C55.75 5.65, 44.01 -3.72, 37.51 -8.09 M88.76 15.26 C80.75 10.04, 77.03 6.91, 62.35 -7.7 M88.76 15.26 C81.77 11.37, 76.29 7.27, 62.35 -7.7 M113.6 15.65 C101.58 7.68, 98.13 -2.52, 86.43 -7.97 M113.6 15.65 C106.66 8.96, 98.5 2.64, 86.43 -7.97 M137.68 15.38 C134.6 6.93, 128.37 9.09, 111.27 -7.58 M137.68 15.38 C129.8 11, 123.26 4.47, 111.27 -7.58 M161.76 15.12 C154.01 8.75, 147.54 1.84, 135.35 -7.85 M161.76 15.12 C151.31 5.9, 140.54 -0.09, 135.35 -7.85 M186.6 15.5 C173.93 7.78, 167.95 -2.19, 159.43 -8.11 M186.6 15.5 C177.62 7.26, 168.78 -0.02, 159.43 -8.11 M210.68 15.24 C200.14 5.2, 191.24 -0.84, 184.27 -7.72 M210.68 15.24 C201.27 6.95, 193.56 -0.35, 184.27 -7.72 M235.52 15.63 C227.39 11.73, 224.14 8.62, 208.35 -7.99 M235.52 15.63 C224.08 6.2, 214.47 -2.28, 208.35 -7.99 M259.6 15.36 C250.08 5.82, 244.15 6.81, 233.18 -7.6 M259.6 15.36 C253.53 8.4, 246.53 2.86, 233.18 -7.6 M283.68 15.1 C272.26 9.82, 267.41 -2.4, 257.27 -7.87 M283.68 15.1 C273.92 5.31, 263.09 -1.66, 257.27 -7.87 M308.52 15.49 C296.51 7.12, 296.19 3.46, 281.35 -8.13 M308.52 15.49 C302.72 8.95, 298.59 3.22, 281.35 -8.13 M332.6 15.22 C322.02 6.46, 311.69 -1.26, 306.18 -7.74 M332.6 15.22 C325.16 9.82, 318.76 0.63, 306.18 -7.74 M361.21 18.89 C352.17 10.99, 336 2.74, 330.27 -8.01 M361.21 18.89 C350.54 7.43, 339.84 -2.6, 330.27 -8.01" stroke="#ffc9c9" stroke-width="2" fill="none"></path><path d="M6.48 0 M6.48 0 C89.38 -2.92, 170 0.31, 354.35 0 M6.48 0 C104.29 3.09, 201.55 4.76, 354.35 0 M354.35 0 C354.91 0.01, 362.35 4.9, 360.83 6.48 M354.35 0 C356.63 3.47, 357.93 3.76, 360.83 6.48 M360.83 6.48 C362.58 9.7, 363.14 15.16, 360.83 19.45 M360.83 6.48 C361.96 9.89, 360.63 11.58, 360.83 19.45 M360.83 19.45 C359.12 21.36, 358.89 28.16, 354.35 25.93 M360.83 19.45 C364.19 19.99, 359.58 23.36, 354.35 25.93 M354.35 25.93 C247.83 25.69, 136.68 27.71, 6.48 25.93 M354.35 25.93 C224.2 24.38, 92.75 25.82, 6.48 25.93 M6.48 25.93 C5.21 28.12, 3.72 27.54, 0 19.45 M6.48 25.93 C3.46 26.73, 2.59 26.68, 0 19.45 M0 19.45 C1.45 15.66, -0.96 10.49, 0 6.48 M0 19.45 C0.89 16.34, 0.64 13.02, 0 6.48 M0 6.48 C-1.36 -0.06, 2.38 -0.78, 6.48 0 M0 6.48 C-4.41 4.04, 1.57 -4.59, 6.48 0" stroke="#1e1e1e" stroke-width="4" fill="none"></path></g></svg>