<svg version="1.1" xmlns="http://www.w3.org/2000/svg" viewBox="0 0 2196.995744922472 776.2285373519251" width="4393.991489844944" height="1552.4570747038501">
  <!-- svg-source:excalidraw -->
  
  <defs>
    <style class="style-fonts">
      @font-face {
        font-family: "Virgil";
        src: url("https://excalidraw.com/Virgil.woff2");
      }
      @font-face {
        font-family: "Cascadia";
        src: url("https://excalidraw.com/Cascadia.woff2");
      }
    </style>
    
  </defs>
  <rect x="0" y="0" width="2196.995744922472" height="776.2285373519251" fill="#ffffff"></rect><g stroke-linecap="round" transform="translate(650.7714876161333 10) rotate(0 571.4927089416692 378.11426867596253)"><path d="M32 0 M32 0 C442.67 -6.14, 852.4 -5.37, 1110.99 0 M32 0 C419.64 1.86, 806.74 3.04, 1110.99 0 M1110.99 0 C1134.83 -3.19, 1143.76 11.87, 1142.99 32 M1110.99 0 C1133.21 2.67, 1140.17 12.58, 1142.99 32 M1142.99 32 C1142.55 186.24, 1143.99 342.13, 1142.99 724.23 M1142.99 32 C1142.54 217.4, 1141.92 400.76, 1142.99 724.23 M1142.99 724.23 C1140.5 747.85, 1132.06 759.17, 1110.99 756.23 M1142.99 724.23 C1143.52 749.36, 1135.98 756.23, 1110.99 756.23 M1110.99 756.23 C784.97 750.22, 461.36 751.71, 32 756.23 M1110.99 756.23 C723.99 754.03, 337.99 754.64, 32 756.23 M32 756.23 C8.88 755.41, -1.44 746.81, 0 724.23 M32 756.23 C13.17 755.32, -2.76 748.1, 0 724.23 M0 724.23 C-0.58 517.77, 0.97 311.09, 0 32 M0 724.23 C-3.02 535.4, -1.8 345.77, 0 32 M0 32 C2.63 12.13, 12.11 -0.99, 32 0 M0 32 C3.62 11.79, 12.91 2.73, 32 0" stroke="#1e1e1e" stroke-width="4" fill="none"></path></g><g stroke-linecap="round" transform="translate(26.067013398110248 132.38660231398944) rotate(0 139.5 49)"><path d="M24.5 0 M24.5 0 C107.07 -0.07, 191.56 -2.88, 254.5 0 M24.5 0 C92.6 1.61, 163.25 3.18, 254.5 0 M254.5 0 C273.15 3.9, 277.93 4.46, 279 24.5 M254.5 0 C271.47 -2.82, 283.17 6.11, 279 24.5 M279 24.5 C280.83 37.41, 276.25 54.1, 279 73.5 M279 24.5 C277.25 39.34, 279.19 53.9, 279 73.5 M279 73.5 C277.94 91.61, 271.96 95.21, 254.5 98 M279 73.5 C282.01 93.61, 272.24 101.02, 254.5 98 M254.5 98 C179.74 97.85, 101.29 99.04, 24.5 98 M254.5 98 C205.79 99.3, 157.47 97.12, 24.5 98 M24.5 98 C10.65 99.04, -0.5 90.03, 0 73.5 M24.5 98 C3.65 102.18, 0.87 88.31, 0 73.5 M0 73.5 C2.2 64.6, 2.61 51.06, 0 24.5 M0 73.5 C-1.79 55.14, 0.41 39.66, 0 24.5 M0 24.5 C1.3 4.58, 7.72 0.75, 24.5 0 M0 24.5 C-1.48 10.18, 7.5 0.06, 24.5 0" stroke="#1e1e1e" stroke-width="4" fill="none"></path></g><g transform="translate(78.71701492398915 158.88660231398944) rotate(0 86.8499984741211 22.5)"><text x="86.8499984741211" y="0" font-family="Virgil, Segoe UI Emoji" font-size="36px" fill="#1e1e1e" text-anchor="middle" style="white-space: pre;" direction="ltr" dominant-baseline="text-before-edge">빌드 테이블</text></g><g stroke-linecap="round" transform="translate(10 511.96650578497383) rotate(0 139.5 49)"><path d="M24.5 0 M24.5 0 C108.35 -3.35, 191.9 0.92, 254.5 0 M24.5 0 C100.5 2.6, 179.47 1.76, 254.5 0 M254.5 0 C271.65 0.32, 281.09 7.7, 279 24.5 M254.5 0 C268.63 -0.84, 277.45 8.59, 279 24.5 M279 24.5 C276.25 33.72, 277.32 51.48, 279 73.5 M279 24.5 C278.94 41.08, 279.63 53.44, 279 73.5 M279 73.5 C281.15 92.34, 268.96 98.98, 254.5 98 M279 73.5 C280.01 93.37, 275.37 99.72, 254.5 98 M254.5 98 C167.73 97.9, 76 95.44, 24.5 98 M254.5 98 C194.04 95.14, 136.24 93.07, 24.5 98 M24.5 98 C7.95 100.56, -0.6 93.66, 0 73.5 M24.5 98 C9.99 99.45, 0.2 86.17, 0 73.5 M0 73.5 C-2.52 65.64, 0.46 51.85, 0 24.5 M0 73.5 C1.48 56.99, 2.21 41.75, 0 24.5 M0 24.5 C-3.67 6.44, 12.12 1.51, 24.5 0 M0 24.5 C-4.02 10.52, 4.49 0.51, 24.5 0" stroke="#1e1e1e" stroke-width="4" fill="none"></path></g><g transform="translate(47.08000183105469 538.4665057849738) rotate(0 102.41999816894531 22.5)"><text x="102.41999816894531" y="0" font-family="Virgil, Segoe UI Emoji" font-size="36px" fill="#1e1e1e" text-anchor="middle" style="white-space: pre;" direction="ltr" dominant-baseline="text-before-edge">프로브 테이블</text></g><g transform="translate(1078.623872517277 42.4097944579396) rotate(0 142.55999755859375 22.5)"><text x="142.55999755859375" y="0" font-family="Virgil, Segoe UI Emoji" font-size="36px" fill="#1e1e1e" text-anchor="middle" style="white-space: pre;" direction="ltr" dominant-baseline="text-before-edge">메모리 해시 테이블</text></g><g stroke-linecap="round" transform="translate(730.7156472790509 130.99656597630792) rotate(0 66.98024187974193 34.57044742180233)"><path d="M17.29 0 M17.29 0 C37.43 -1.35, 66.62 1.38, 116.68 0 M17.29 0 C43.39 0.58, 68.34 0.11, 116.68 0 M116.68 0 C130.85 -0.36, 137.48 8.5, 133.96 17.29 M116.68 0 C125.54 3.56, 129.74 9.08, 133.96 17.29 M133.96 17.29 C132.04 25.96, 133.97 41.68, 133.96 51.86 M133.96 17.29 C132.28 30.46, 134.44 43.92, 133.96 51.86 M133.96 51.86 C137.91 60.11, 129.01 68.97, 116.68 69.14 M133.96 51.86 C137.37 62.1, 127.23 69.24, 116.68 69.14 M116.68 69.14 C94.39 72.62, 69.74 74.2, 17.29 69.14 M116.68 69.14 C85.31 69.55, 49.75 69.49, 17.29 69.14 M17.29 69.14 C7.66 68.59, -1.82 60.14, 0 51.86 M17.29 69.14 C1.28 73.27, -1.62 67.37, 0 51.86 M0 51.86 C-1.83 40.54, -0.25 32.88, 0 17.29 M0 51.86 C-2.28 44.68, 0.24 37.54, 0 17.29 M0 17.29 C0.78 4.72, 3.95 -0.49, 17.29 0 M0 17.29 C0.92 2.38, 8.5 2.21, 17.29 0" stroke="#1e1e1e" stroke-width="4" fill="none"></path></g><g transform="translate(785.3118893342689 143.06701339811025) rotate(0 12.383999824523926 22.5)"><text x="12.383999824523926" y="0" font-family="Virgil, Segoe UI Emoji" font-size="36px" fill="#1e1e1e" text-anchor="middle" style="white-space: pre;" direction="ltr" dominant-baseline="text-before-edge">0</text></g><g stroke-linecap="round" transform="translate(1005.1185736896069 126.67526004858269) rotate(0 66.98024187974193 34.57044742180233)"><path d="M17.29 0 M17.29 0 C47 -0.47, 76.99 5.16, 116.68 0 M17.29 0 C45.85 2.73, 74.73 2.65, 116.68 0 M116.68 0 C125.08 -0.45, 136.61 5.13, 133.96 17.29 M116.68 0 C131.27 -4.14, 129.65 5.53, 133.96 17.29 M133.96 17.29 C130.02 26.61, 136.84 37.78, 133.96 51.86 M133.96 17.29 C134.72 25.98, 135.49 39.72, 133.96 51.86 M133.96 51.86 C133.71 65.54, 130.21 72.42, 116.68 69.14 M133.96 51.86 C131.92 66.8, 126.49 70.49, 116.68 69.14 M116.68 69.14 C98.17 69.6, 75.94 68.28, 17.29 69.14 M116.68 69.14 C94.97 68.4, 70.72 68.98, 17.29 69.14 M17.29 69.14 C4.81 70.18, -1.21 65.62, 0 51.86 M17.29 69.14 C3.79 69.69, -1.02 63.14, 0 51.86 M0 51.86 C-3.42 44.9, 3.12 37.65, 0 17.29 M0 51.86 C1.2 38.69, 1.88 28.5, 0 17.29 M0 17.29 C0.58 2.98, 2.09 0.82, 17.29 0 M0 17.29 C3.01 1.3, 2.42 0.76, 17.29 0" stroke="#1e1e1e" stroke-width="4" fill="none"></path></g><g transform="translate(1057.3028150886971 138.745707470385) rotate(0 14.796000480651855 22.5)"><text x="14.796000480651855" y="0" font-family="Virgil, Segoe UI Emoji" font-size="36px" fill="#1e1e1e" text-anchor="middle" style="white-space: pre;" direction="ltr" dominant-baseline="text-before-edge">...</text></g><g stroke-linecap="round" transform="translate(1173.649504870893 120.19330115699461) rotate(0 66.98024187974193 34.57044742180233)"><path d="M17.29 0 M17.29 0 C35.53 0.1, 58.19 -1.95, 116.68 0 M17.29 0 C49.88 -2.47, 85.67 -2.79, 116.68 0 M116.68 0 C129.04 1.09, 133.5 5.43, 133.96 17.29 M116.68 0 C132.28 -4.15, 138.12 6.35, 133.96 17.29 M133.96 17.29 C134.19 25.89, 137.13 37.06, 133.96 51.86 M133.96 17.29 C132.96 31.49, 134.92 44.16, 133.96 51.86 M133.96 51.86 C132.53 60.79, 131.54 68.18, 116.68 69.14 M133.96 51.86 C137.62 58.96, 128.4 64.65, 116.68 69.14 M116.68 69.14 C83.11 70.74, 54.53 73.87, 17.29 69.14 M116.68 69.14 C76.52 70.62, 38.64 67.37, 17.29 69.14 M17.29 69.14 C5.72 66.36, 3.9 67.15, 0 51.86 M17.29 69.14 C1.83 65.71, 0.99 66.8, 0 51.86 M0 51.86 C-0.61 43.57, -1.85 38.37, 0 17.29 M0 51.86 C1.4 41.42, -0.01 29.08, 0 17.29 M0 17.29 C-2.68 4.03, 2.41 2.4, 17.29 0 M0 17.29 C1.71 7.1, 2.1 -0.13, 17.29 0" stroke="#1e1e1e" stroke-width="4" fill="none"></path></g><g transform="translate(1225.8337462699833 132.26374857879694) rotate(0 14.796000480651855 22.5)"><text x="14.796000480651855" y="0" font-family="Virgil, Segoe UI Emoji" font-size="36px" fill="#1e1e1e" text-anchor="middle" style="white-space: pre;" direction="ltr" dominant-baseline="text-before-edge">...</text></g><g stroke-linecap="round" transform="translate(1346.5017419799042 120.19330115699472) rotate(0 66.98024187974193 34.57044742180233)"><path d="M17.29 0 M17.29 0 C46.38 0.83, 81.36 4.76, 116.68 0 M17.29 0 C48.55 0.81, 78.05 -0.63, 116.68 0 M116.68 0 C128.37 -3.9, 135.13 5.5, 133.96 17.29 M116.68 0 C130.67 -0.95, 134.58 9.58, 133.96 17.29 M133.96 17.29 C133.85 27.75, 138.24 42.74, 133.96 51.86 M133.96 17.29 C135.9 27.1, 132.24 31.66, 133.96 51.86 M133.96 51.86 C134.82 66.35, 124.65 72.24, 116.68 69.14 M133.96 51.86 C129.72 63.29, 127.07 67.63, 116.68 69.14 M116.68 69.14 C86.23 69.89, 52.94 67.05, 17.29 69.14 M116.68 69.14 C87.3 69.48, 62.02 68.86, 17.29 69.14 M17.29 69.14 C2.58 69.03, 0.59 60.6, 0 51.86 M17.29 69.14 C5.93 67.72, -3.97 66.48, 0 51.86 M0 51.86 C3.47 47.54, -2.3 38.13, 0 17.29 M0 51.86 C0.73 44.18, -0.8 36.05, 0 17.29 M0 17.29 C-3.16 6.98, 7.06 -0.48, 17.29 0 M0 17.29 C-0.72 4.64, 5.77 -0.62, 17.29 0" stroke="#1e1e1e" stroke-width="4" fill="none"></path></g><g transform="translate(1398.6859833789945 132.26374857879705) rotate(0 14.796000480651855 22.5)"><text x="14.796000480651855" y="0" font-family="Virgil, Segoe UI Emoji" font-size="36px" fill="#1e1e1e" text-anchor="middle" style="white-space: pre;" direction="ltr" dominant-baseline="text-before-edge">...</text></g><g stroke-linecap="round"><g transform="translate(868.99743696626 165.56701339811025) rotate(0 309.1959478983709 -9.329935568246071)"><path d="M-0.61 -0.6 C20.46 -2.05, 25.42 -5.55, 127.76 -7.69 C230.1 -9.83, 531.93 -12.34, 613.44 -13.45 M4.26 -3.39 C26.09 -4.56, 30.69 -2.28, 133.14 -4.72 C235.6 -7.17, 538.19 -16.97, 619 -18.06" stroke="#1e1e1e" stroke-width="4" fill="none"></path></g><g transform="translate(868.99743696626 165.56701339811025) rotate(0 309.1959478983709 -9.329935568246071)"><path d="M590.21 -9.81 C599 -14.18, 612.88 -13.15, 620.16 -21.25 M591.14 -7.75 C597.61 -8.65, 606.12 -14.55, 620.55 -16.56" stroke="#1e1e1e" stroke-width="4" fill="none"></path></g><g transform="translate(868.99743696626 165.56701339811025) rotate(0 309.1959478983709 -9.329935568246071)"><path d="M589.72 -30.33 C598.84 -27.53, 612.89 -19.34, 620.16 -21.25 M590.65 -28.26 C597.32 -23.06, 605.98 -22.87, 620.55 -16.56" stroke="#1e1e1e" stroke-width="4" fill="none"></path></g></g><mask></mask><g stroke-linecap="round" transform="translate(743.1526861720034 242.27019361523412) rotate(0 66.98024187974193 34.57044742180233)"><path d="M17.29 0 M17.29 0 C46.83 -5.78, 82.24 -1.72, 116.68 0 M17.29 0 C40.95 0.41, 66.9 0.07, 116.68 0 M116.68 0 C130.97 -2.65, 131.24 6.66, 133.96 17.29 M116.68 0 C129.78 -1.96, 136.06 9.68, 133.96 17.29 M133.96 17.29 C131.97 23.15, 131.08 30.72, 133.96 51.86 M133.96 17.29 C134.97 24.29, 134.69 32.18, 133.96 51.86 M133.96 51.86 C133.64 66.78, 125.91 69.18, 116.68 69.14 M133.96 51.86 C137.64 62.38, 129.29 66.87, 116.68 69.14 M116.68 69.14 C82.07 69.48, 52.31 64.33, 17.29 69.14 M116.68 69.14 C94.08 72.16, 70.27 72.19, 17.29 69.14 M17.29 69.14 C6.65 65.76, 1.83 65.25, 0 51.86 M17.29 69.14 C7.98 68.58, -3.81 63.11, 0 51.86 M0 51.86 C-0.12 42.07, -0.46 28.64, 0 17.29 M0 51.86 C0.21 42.62, -0.72 33.52, 0 17.29 M0 17.29 C0.68 5.71, 8.45 3.63, 17.29 0 M0 17.29 C-4.28 8.16, 1.49 4.36, 17.29 0" stroke="#1e1e1e" stroke-width="4" fill="none"></path></g><g transform="translate(805.2549282691831 254.34064103703645) rotate(0 4.877999782562256 22.5)"><text x="4.877999782562256" y="0" font-family="Virgil, Segoe UI Emoji" font-size="36px" fill="#1e1e1e" text-anchor="middle" style="white-space: pre;" direction="ltr" dominant-baseline="text-before-edge">1</text></g><g stroke-linecap="round" transform="translate(1017.5556125825593 237.9488876875089) rotate(0 66.98024187974193 34.57044742180233)"><path d="M17.29 0 M17.29 0 C35.74 -1.39, 55.94 -3.79, 116.68 0 M17.29 0 C46.26 -0.54, 71.1 1.23, 116.68 0 M116.68 0 C129.58 -1.7, 135.79 9.17, 133.96 17.29 M116.68 0 C124.83 3.53, 132.69 2.86, 133.96 17.29 M133.96 17.29 C129.81 29.51, 132.95 35.41, 133.96 51.86 M133.96 17.29 C133.84 28.86, 132.86 37.05, 133.96 51.86 M133.96 51.86 C137.16 62.51, 129.15 67.17, 116.68 69.14 M133.96 51.86 C135.52 62.45, 125.91 67.5, 116.68 69.14 M116.68 69.14 C81.04 66.74, 54.16 69.16, 17.29 69.14 M116.68 69.14 C81.46 68.64, 46.27 71.27, 17.29 69.14 M17.29 69.14 C7.69 68.65, -3.32 63.15, 0 51.86 M17.29 69.14 C6.98 66.94, 3.56 62.86, 0 51.86 M0 51.86 C-1.38 41.85, 1.68 29.51, 0 17.29 M0 51.86 C0.49 41.76, 1.49 33.52, 0 17.29 M0 17.29 C-3.72 7.85, 2.05 3.79, 17.29 0 M0 17.29 C3.28 8.72, 4.71 -2.31, 17.29 0" stroke="#1e1e1e" stroke-width="4" fill="none"></path></g><g transform="translate(1069.7398539816495 250.0193351093112) rotate(0 14.796000480651855 22.5)"><text x="14.796000480651855" y="0" font-family="Virgil, Segoe UI Emoji" font-size="36px" fill="#1e1e1e" text-anchor="middle" style="white-space: pre;" direction="ltr" dominant-baseline="text-before-edge">...</text></g><g stroke-linecap="round" transform="translate(1186.0865437638454 231.4669287959207) rotate(0 66.98024187974193 34.57044742180233)"><path d="M17.29 0 M17.29 0 C42.99 -0.97, 68.91 4.61, 116.68 0 M17.29 0 C41.2 -1.3, 64.65 1.26, 116.68 0 M116.68 0 C125.27 3.07, 132.86 3.24, 133.96 17.29 M116.68 0 C125.92 -3.93, 131.37 1.67, 133.96 17.29 M133.96 17.29 C133.31 30.95, 134.5 43.86, 133.96 51.86 M133.96 17.29 C135.16 30.16, 134.04 42.92, 133.96 51.86 M133.96 51.86 C135.31 62.57, 126.21 67.72, 116.68 69.14 M133.96 51.86 C135.49 65.67, 123.8 66.24, 116.68 69.14 M116.68 69.14 C90.46 71.51, 61.95 70.99, 17.29 69.14 M116.68 69.14 C96.23 69.83, 72.19 69.95, 17.29 69.14 M17.29 69.14 C6.82 67.23, 3.09 62.93, 0 51.86 M17.29 69.14 C7.49 68.23, -0.73 61.64, 0 51.86 M0 51.86 C-0.61 39.18, -0.68 28.91, 0 17.29 M0 51.86 C-2.32 42.57, -2.32 33.09, 0 17.29 M0 17.29 C2.86 8.33, 4.85 -2.01, 17.29 0 M0 17.29 C0.76 10.06, 2.82 4.57, 17.29 0" stroke="#1e1e1e" stroke-width="4" fill="none"></path></g><g transform="translate(1238.2707851629357 243.53737621772302) rotate(0 14.796000480651855 22.5)"><text x="14.796000480651855" y="0" font-family="Virgil, Segoe UI Emoji" font-size="36px" fill="#1e1e1e" text-anchor="middle" style="white-space: pre;" direction="ltr" dominant-baseline="text-before-edge">...</text></g><g stroke-linecap="round" transform="translate(1358.938780872857 231.46692879592092) rotate(0 66.98024187974193 34.57044742180233)"><path d="M17.29 0 M17.29 0 C37.48 -4.1, 63.88 0, 116.68 0 M17.29 0 C41.41 -0.16, 67.91 -2.95, 116.68 0 M116.68 0 C126.22 -3.41, 131.7 2.2, 133.96 17.29 M116.68 0 C132.29 -0.48, 134.88 5.1, 133.96 17.29 M133.96 17.29 C137.47 25.56, 134.1 41.61, 133.96 51.86 M133.96 17.29 C134.8 26.5, 133.13 35.81, 133.96 51.86 M133.96 51.86 C135.29 65.37, 124.38 66.62, 116.68 69.14 M133.96 51.86 C133.38 67.65, 130.41 71.85, 116.68 69.14 M116.68 69.14 C79.96 71.42, 51.88 71.51, 17.29 69.14 M116.68 69.14 C88.6 68.07, 61 68.8, 17.29 69.14 M17.29 69.14 C7.27 68.35, -0.64 61.86, 0 51.86 M17.29 69.14 C7.68 70.92, 1.15 62.98, 0 51.86 M0 51.86 C0.03 44.92, 3.7 28.89, 0 17.29 M0 51.86 C2.07 40.97, 0.19 26.51, 0 17.29 M0 17.29 C0.66 9.5, 3.2 3.97, 17.29 0 M0 17.29 C3.59 7.75, 2.15 -0.83, 17.29 0" stroke="#1e1e1e" stroke-width="4" fill="none"></path></g><g transform="translate(1411.1230222719469 243.53737621772325) rotate(0 14.796000480651855 22.5)"><text x="14.796000480651855" y="0" font-family="Virgil, Segoe UI Emoji" font-size="36px" fill="#1e1e1e" text-anchor="middle" style="white-space: pre;" direction="ltr" dominant-baseline="text-before-edge">...</text></g><g stroke-linecap="round"><g transform="translate(881.4344758592123 276.84064103703645) rotate(0 308.7507867736422 -9.26514266361579)"><path d="M0.96 -1.19 C23.1 -1.98, 28.79 -2.13, 130.92 -4.09 C233.05 -6.06, 533.06 -10.84, 613.74 -12.98 M-1.96 -4.31 C20.09 -5.89, 25.8 -5.64, 129.37 -7.81 C232.94 -9.98, 538.49 -16.1, 619.46 -17.34" stroke="#1e1e1e" stroke-width="4" fill="none"></path></g><g transform="translate(881.4344758592123 276.84064103703645) rotate(0 308.7507867736422 -9.26514266361579)"><path d="M589.76 -4.75 C601.31 -12.19, 607.47 -12.86, 616.94 -19.32 M593.24 -6.78 C597.99 -8.67, 603.71 -10.39, 619.3 -15.64" stroke="#1e1e1e" stroke-width="4" fill="none"></path></g><g transform="translate(881.4344758592123 276.84064103703645) rotate(0 308.7507867736422 -9.26514266361579)"><path d="M589.39 -25.27 C601.12 -27.95, 607.36 -23.86, 616.94 -19.32 M592.87 -27.3 C597.47 -24.78, 603.27 -22.09, 619.3 -15.64" stroke="#1e1e1e" stroke-width="4" fill="none"></path></g></g><mask></mask><g stroke-linecap="round" transform="translate(743.1526861720034 352.4634947722287) rotate(0 66.98024187974193 34.57044742180233)"><path d="M17.29 0 M17.29 0 C58.3 -1.97, 94.48 0.23, 116.68 0 M17.29 0 C53.3 1.26, 91.62 2.31, 116.68 0 M116.68 0 C125.79 2.22, 135.24 6.79, 133.96 17.29 M116.68 0 C129.87 2.97, 129.51 6.72, 133.96 17.29 M133.96 17.29 C130.17 31.07, 137.49 39.72, 133.96 51.86 M133.96 17.29 C135.83 28.47, 136.53 38.89, 133.96 51.86 M133.96 51.86 C136.69 64.59, 130.15 65.35, 116.68 69.14 M133.96 51.86 C131.95 59.83, 132.21 70.33, 116.68 69.14 M116.68 69.14 C91.03 71.36, 62.44 67.59, 17.29 69.14 M116.68 69.14 C91.14 70.3, 65.17 69.97, 17.29 69.14 M17.29 69.14 C8.28 66.03, -2.77 62.77, 0 51.86 M17.29 69.14 C2 67.59, -0.79 65.1, 0 51.86 M0 51.86 C4.1 41.88, 4.38 37.37, 0 17.29 M0 51.86 C0.42 41.48, 0.21 32.92, 0 17.29 M0 17.29 C-1.57 6.9, 2.87 -1.02, 17.29 0 M0 17.29 C-1.97 10.19, 9.56 1.21, 17.29 0" stroke="#1e1e1e" stroke-width="4" fill="none"></path></g><g transform="translate(797.3169280670041 364.53394219403106) rotate(0 12.815999984741211 22.5)"><text x="12.815999984741211" y="0" font-family="Virgil, Segoe UI Emoji" font-size="36px" fill="#1e1e1e" text-anchor="middle" style="white-space: pre;" direction="ltr" dominant-baseline="text-before-edge">2</text></g><g stroke-linecap="round" transform="translate(1017.5556125825598 348.1421888445035) rotate(0 66.98024187974193 34.57044742180233)"><path d="M17.29 0 M17.29 0 C43.19 3.58, 59.63 -3.13, 116.68 0 M17.29 0 C44.56 0.33, 74.9 -0.26, 116.68 0 M116.68 0 C129.65 2.58, 130.09 6.59, 133.96 17.29 M116.68 0 C130.83 -0.61, 135.65 1.51, 133.96 17.29 M133.96 17.29 C135.17 32.31, 136.17 43.06, 133.96 51.86 M133.96 17.29 C136.01 28.81, 135.62 37.22, 133.96 51.86 M133.96 51.86 C132.22 60.29, 131.69 70.17, 116.68 69.14 M133.96 51.86 C132.03 63.52, 130.34 69.14, 116.68 69.14 M116.68 69.14 C82.34 66.65, 50.31 70.04, 17.29 69.14 M116.68 69.14 C81.68 68.55, 42.77 69.8, 17.29 69.14 M17.29 69.14 C2.49 67.79, -0.68 64.87, 0 51.86 M17.29 69.14 C3.43 65.38, -2.31 67.44, 0 51.86 M0 51.86 C-2.07 41, -4.28 33.73, 0 17.29 M0 51.86 C-0.76 44.17, -1.42 34.83, 0 17.29 M0 17.29 C-1.72 9.61, 9.06 1.06, 17.29 0 M0 17.29 C-2.2 3.5, 4.33 -3.81, 17.29 0" stroke="#1e1e1e" stroke-width="4" fill="none"></path></g><g transform="translate(1069.7398539816495 360.2126362663058) rotate(0 14.796000480651855 22.5)"><text x="14.796000480651855" y="0" font-family="Virgil, Segoe UI Emoji" font-size="36px" fill="#1e1e1e" text-anchor="middle" style="white-space: pre;" direction="ltr" dominant-baseline="text-before-edge">...</text></g><g stroke-linecap="round" transform="translate(1186.0865437638458 341.66022995291553) rotate(0 66.98024187974193 34.57044742180233)"><path d="M17.29 0 M17.29 0 C54.64 -0.61, 94.64 -0.69, 116.68 0 M17.29 0 C53.35 0.78, 86.03 -0.1, 116.68 0 M116.68 0 C130.49 -0.53, 135.43 2.06, 133.96 17.29 M116.68 0 C129.85 4.16, 131.36 6.43, 133.96 17.29 M133.96 17.29 C134.86 34.56, 133.95 46.66, 133.96 51.86 M133.96 17.29 C133.42 27.16, 136.04 40.64, 133.96 51.86 M133.96 51.86 C132.28 63.51, 130.06 69.14, 116.68 69.14 M133.96 51.86 C135.45 59.99, 125.35 67.65, 116.68 69.14 M116.68 69.14 C92.57 73.61, 65.23 72.72, 17.29 69.14 M116.68 69.14 C92.95 68.16, 72.15 69.58, 17.29 69.14 M17.29 69.14 C3.73 65.87, -2.01 66.91, 0 51.86 M17.29 69.14 C4.2 73.53, 3.16 61.76, 0 51.86 M0 51.86 C-1.82 42.76, -0.64 32.41, 0 17.29 M0 51.86 C-0.36 42.43, 2.15 29.68, 0 17.29 M0 17.29 C-1.92 3.79, 4.52 -3.31, 17.29 0 M0 17.29 C-3.15 7.85, 4.61 1.65, 17.29 0" stroke="#1e1e1e" stroke-width="4" fill="none"></path></g><g transform="translate(1238.2707851629357 353.73067737471786) rotate(0 14.796000480651855 22.5)"><text x="14.796000480651855" y="0" font-family="Virgil, Segoe UI Emoji" font-size="36px" fill="#1e1e1e" text-anchor="middle" style="white-space: pre;" direction="ltr" dominant-baseline="text-before-edge">...</text></g><g stroke-linecap="round" transform="translate(1358.938780872857 341.66022995291553) rotate(0 66.98024187974193 34.57044742180233)"><path d="M17.29 0 M17.29 0 C43.54 2.48, 66.38 2.65, 116.68 0 M17.29 0 C54.67 -0.68, 90.5 -2.26, 116.68 0 M116.68 0 C129.63 3.62, 131.7 6.34, 133.96 17.29 M116.68 0 C132.13 1.82, 136.9 6.49, 133.96 17.29 M133.96 17.29 C135.13 33.02, 130.12 43.12, 133.96 51.86 M133.96 17.29 C133.72 25.05, 135.49 32.69, 133.96 51.86 M133.96 51.86 C135.26 60.43, 125.72 67.85, 116.68 69.14 M133.96 51.86 C132.52 63.06, 130.65 72.12, 116.68 69.14 M116.68 69.14 C75.28 67.62, 39.49 67.12, 17.29 69.14 M116.68 69.14 C89.2 68.25, 62.75 71.65, 17.29 69.14 M17.29 69.14 C4.4 72.95, 2.75 61.97, 0 51.86 M17.29 69.14 C3.85 64.98, 0.31 60.57, 0 51.86 M0 51.86 C1.36 38.73, -0.8 29.67, 0 17.29 M0 51.86 C-1.53 37.17, -1.19 22.8, 0 17.29 M0 17.29 C-2.74 7.58, 4.76 1.43, 17.29 0 M0 17.29 C0.51 4.81, 8.93 3.04, 17.29 0" stroke="#1e1e1e" stroke-width="4" fill="none"></path></g><g transform="translate(1411.1230222719469 353.73067737471786) rotate(0 14.796000480651855 22.5)"><text x="14.796000480651855" y="0" font-family="Virgil, Segoe UI Emoji" font-size="36px" fill="#1e1e1e" text-anchor="middle" style="white-space: pre;" direction="ltr" dominant-baseline="text-before-edge">...</text></g><g stroke-linecap="round"><g transform="translate(881.4344758592127 387.03394219403106) rotate(0 307.7560022473015 -6.843262332464633)"><path d="M1.02 1.81 C22.02 0.71, 24.2 -3.01, 126.93 -5.9 C229.66 -8.78, 535.74 -13.53, 617.39 -15.5 M-1.88 0.32 C19.87 -1.75, 28.81 -8.44, 131.86 -10.59 C234.92 -12.74, 535.43 -11.6, 616.45 -12.59" stroke="#1e1e1e" stroke-width="4" fill="none"></path></g><g transform="translate(881.4344758592127 387.03394219403106) rotate(0 307.7560022473015 -6.843262332464633)"><path d="M590.88 -6.09 C598.42 -3.58, 606.41 -7.83, 612.75 -11.15 M590.01 -1.43 C600.69 -6.03, 612.38 -10.54, 617.81 -11.98" stroke="#1e1e1e" stroke-width="4" fill="none"></path></g><g transform="translate(881.4344758592127 387.03394219403106) rotate(0 307.7560022473015 -6.843262332464633)"><path d="M590.8 -26.61 C598.48 -17.29, 606.49 -14.73, 612.75 -11.15 M589.93 -21.95 C600.41 -18.54, 612.13 -15.03, 617.81 -11.98" stroke="#1e1e1e" stroke-width="4" fill="none"></path></g></g><mask></mask><g stroke-linecap="round"><g transform="translate(808.499153978106 448.6125516641165) rotate(0 1.3758603100189362 103.90482209131292)"><path d="M0.2 -0.01 C1.02 34.87, 1.6 173.18, 2.55 207.82" stroke="#1e1e1e" stroke-width="4.5" fill="none" stroke-dasharray="8 12"></path></g></g><mask></mask><g stroke-linecap="round"><g transform="translate(300.745707470385 182.8522371090114) rotate(0 200.44089048095185 3.1766073025208925)"><path d="M-1.97 1.63 C64.37 2.34, 330.33 5.55, 397.6 6.33 M2.15 0.05 C69.41 -0.21, 336.4 2.11, 402.86 2.4" stroke="#1e1e1e" stroke-width="4" fill="none"></path></g><g transform="translate(300.745707470385 182.8522371090114) rotate(0 200.44089048095185 3.1766073025208925)"><path d="M376.93 9.45 C385.32 12.78, 393.25 4.18, 405.39 0.73 M375.81 13.68 C379.59 12.44, 386.79 9.05, 403.94 1.21" stroke="#1e1e1e" stroke-width="4" fill="none"></path></g><g transform="translate(300.745707470385 182.8522371090114) rotate(0 200.44089048095185 3.1766073025208925)"><path d="M377.06 -11.07 C385.72 -1.93, 393.62 -4.71, 405.39 0.73 M375.95 -6.84 C380 -3.39, 387.17 -2.09, 403.94 1.21" stroke="#1e1e1e" stroke-width="4" fill="none"></path></g></g><mask></mask><g transform="translate(348.7685996794896 109.39003633768152) rotate(0 126.98999786376953 22.5)"><text x="126.98999786376953" y="0" font-family="Virgil, Segoe UI Emoji" font-size="36px" fill="#1e1e1e" text-anchor="middle" style="white-space: pre;" direction="ltr" dominant-baseline="text-before-edge">해시 테이블 생성</text></g><g stroke-linecap="round"><g transform="translate(292.10309561493443 554.484546893386) rotate(0 792.5998871832146 2.742140095264972)"><path d="M2.11 -2.29 C266.75 -1.7, 1321.62 3.5, 1585.38 4.97 M-0.18 2.64 C264.25 3.45, 1319.12 6.61, 1582.85 7.78" stroke="#1e1e1e" stroke-width="4" fill="none"></path></g><g transform="translate(292.10309561493443 554.484546893386) rotate(0 792.5998871832146 2.742140095264972)"><path d="M1551.35 17.17 C1558.37 13.6, 1566.57 10.71, 1583.22 8.19 M1555.66 19.9 C1564.83 15.81, 1574.66 11.93, 1583.2 6.78" stroke="#1e1e1e" stroke-width="4" fill="none"></path></g><g transform="translate(292.10309561493443 554.484546893386) rotate(0 792.5998871832146 2.742140095264972)"><path d="M1551.42 -3.35 C1558.63 -2.55, 1566.82 -1.08, 1583.22 8.19 M1555.73 -0.62 C1565.07 2.79, 1574.87 6.4, 1583.2 6.78" stroke="#1e1e1e" stroke-width="4" fill="none"></path></g></g><mask></mask><g transform="translate(172.88636259224177 636.5893595201665) rotate(0 229.4100341796875 45)"><text x="229.4100341796875" y="0" font-family="Virgil, Segoe UI Emoji" font-size="36px" fill="#1e1e1e" text-anchor="middle" style="white-space: pre;" direction="ltr" dominant-baseline="text-before-edge">조건절에 사용된 컬럼을 이용해</text><text x="229.4100341796875" y="45" font-family="Virgil, Segoe UI Emoji" font-size="36px" fill="#1e1e1e" text-anchor="middle" style="white-space: pre;" direction="ltr" dominant-baseline="text-before-edge">해시 테이블 검색 및 조인</text></g><g stroke-linecap="round" transform="translate(1899.628900728741 515.5927935438584) rotate(0 143.68342209686557 65.89991539781062)"><path d="M32 0 M32 0 C95.1 5.94, 151.43 3.28, 255.37 0 M32 0 C94.74 3.27, 155.04 2.12, 255.37 0 M255.37 0 C280.68 -3.72, 285.26 13.88, 287.37 32 M255.37 0 C278.66 0.89, 287.16 13.59, 287.37 32 M287.37 32 C286.75 53.64, 285.87 71.99, 287.37 99.8 M287.37 32 C289.37 52.41, 288.34 71.06, 287.37 99.8 M287.37 99.8 C287.13 121.63, 276.2 133.54, 255.37 131.8 M287.37 99.8 C287.23 121.66, 280.29 134.07, 255.37 131.8 M255.37 131.8 C183.87 134.45, 120.96 135.89, 32 131.8 M255.37 131.8 C169.59 130.11, 82.12 129.23, 32 131.8 M32 131.8 C7.13 129.74, 1.37 124.57, 0 99.8 M32 131.8 C11.54 128.74, 3.77 118.93, 0 99.8 M0 99.8 C-0.5 77.43, -2.78 60.59, 0 32 M0 99.8 C1.67 78.14, -1.15 59.66, 0 32 M0 32 C0.67 8.03, 9.28 -2.4, 32 0 M0 32 C3.29 11.08, 7.35 -1.62, 32 0" stroke="#1e1e1e" stroke-width="4" fill="none"></path></g><g transform="translate(1972.03232404631 558.992708941669) rotate(0 71.27999877929688 22.5)"><text x="71.27999877929688" y="0" font-family="Virgil, Segoe UI Emoji" font-size="36px" fill="#1e1e1e" text-anchor="middle" style="white-space: pre;" direction="ltr" dominant-baseline="text-before-edge">조인 결과</text></g></svg>