<svg version="1.1" xmlns="http://www.w3.org/2000/svg" viewBox="0 0 2074.9445094463986 1143.5909917604924" width="4149.889018892797" height="2287.181983520985">
  <!-- svg-source:excalidraw -->
  
  <defs>
    <style class="style-fonts">
      @font-face {
        font-family: "Virgil";
        src: url("https://excalidraw.com/Virgil.woff2");
      }
      @font-face {
        font-family: "Cascadia";
        src: url("https://excalidraw.com/Cascadia.woff2");
      }
    </style>
    
  </defs>
  <rect x="0" y="0" width="2074.9445094463986" height="1143.5909917604924" fill="#ffffff"></rect><g stroke-linecap="round" transform="translate(499.84988572809107 10) rotate(0 464.85064726226955 390.92773541467363)"><path d="M32 0 M32 0 C277.01 -3.53, 522.05 -2.81, 897.7 0 M32 0 C267.82 -2.12, 505.12 -1.66, 897.7 0 M897.7 0 C921.44 2.08, 929.19 10.94, 929.7 32 M897.7 0 C917.39 -1.28, 925.94 7.72, 929.7 32 M929.7 32 C926.84 215.48, 925.71 398.5, 929.7 749.86 M929.7 32 C931.87 291.41, 931.84 552.95, 929.7 749.86 M929.7 749.86 C927.35 770.01, 916.56 785.68, 897.7 781.86 M929.7 749.86 C926.58 771.93, 917.01 785.89, 897.7 781.86 M897.7 781.86 C595.32 785.44, 293.44 784.98, 32 781.86 M897.7 781.86 C636.98 788.45, 375.51 787.61, 32 781.86 M32 781.86 C9.01 784.87, 3.26 773.45, 0 749.86 M32 781.86 C8.59 780.46, -3.4 774.84, 0 749.86 M0 749.86 C-3.01 477.89, -3.53 207.04, 0 32 M0 749.86 C2.03 578.33, 1.61 408.67, 0 32 M0 32 C0.22 13.25, 10.35 3.68, 32 0 M0 32 C4.2 10.08, 14.1 -1.69, 32 0" stroke="#1e1e1e" stroke-width="4" fill="none"></path></g><g stroke-linecap="round" transform="translate(572.2136887491934 100.58032883616022) rotate(0 134 121)"><path d="M7.86 8.16 C7.86 8.16, 7.86 8.16, 7.86 8.16 M7.86 8.16 C7.86 8.16, 7.86 8.16, 7.86 8.16 M8.78 31.49 C11.41 24.39, 23.8 14.91, 34.37 2.05 M8.78 31.49 C19.98 20.03, 28.98 8.82, 34.37 2.05 M8.39 56.32 C26.38 39.94, 40.29 13.95, 55.63 1.98 M8.39 56.32 C20.46 43.03, 36.04 27.65, 55.63 1.98 M8.66 80.4 C26.06 59.66, 39.78 40.1, 76.89 1.91 M8.66 80.4 C27.65 59.12, 46.54 35.58, 76.89 1.91 M8.27 105.24 C31.95 83.3, 48.83 57.67, 98.15 1.85 M8.27 105.24 C44.33 65.91, 79.89 23.2, 98.15 1.85 M8.54 129.32 C33.16 98.34, 54.36 71.79, 119.41 1.78 M8.54 129.32 C46.02 87.42, 80.69 48.25, 119.41 1.78 M8.15 154.16 C47.86 101.16, 96.47 53.66, 140.67 1.71 M8.15 154.16 C36.48 117.17, 67.19 84.95, 140.67 1.71 M8.41 178.24 C50.59 129.26, 91.56 84.64, 161.28 2.39 M8.41 178.24 C53.9 122.49, 99.64 71.69, 161.28 2.39 M1.46 210.62 C63.88 132.34, 125.22 63.43, 182.54 2.32 M1.46 210.62 C48.25 155.37, 93.69 103.2, 182.54 2.32 M6.98 228.67 C69.5 159.26, 135.08 88.57, 203.8 2.26 M6.98 228.67 C55.03 173.52, 104.41 117.13, 203.8 2.26 M18.4 239.92 C87.82 162.01, 158.11 78.66, 225.06 2.19 M18.4 239.92 C100.31 148.32, 178.91 57.73, 225.06 2.19 M35.07 245.13 C107.99 163.76, 181.59 79.89, 243.04 5.89 M35.07 245.13 C78.43 194.61, 120.71 148.16, 243.04 5.89 M56.33 245.06 C99.64 202.84, 141.01 154.91, 261.67 8.84 M56.33 245.06 C104.38 188.82, 151.32 135.6, 261.67 8.84 M77.59 245 C147.37 164.64, 218.15 76.08, 271.12 22.36 M77.59 245 C121.1 191.76, 166.05 140.16, 271.12 22.36 M98.85 244.93 C160.75 174.19, 220.54 104.02, 277.29 39.65 M98.85 244.93 C134.94 198, 172.69 156.25, 277.29 39.65 M120.11 244.86 C171.13 185.64, 220.63 130.34, 276.9 64.48 M120.11 244.86 C148.14 208.58, 180.79 170.28, 276.9 64.48 M141.37 244.79 C187.78 193.44, 230.38 133.72, 277.17 88.56 M141.37 244.79 C179.21 202.12, 217.3 156.49, 277.17 88.56 M162.63 244.72 C196.02 205.8, 233.17 168.66, 276.78 113.4 M162.63 244.72 C186.33 213.22, 213.04 184.6, 276.78 113.4 M183.89 244.65 C220.72 207.43, 254.11 164.08, 277.05 137.48 M183.89 244.65 C203.89 220.32, 226.45 194.42, 277.05 137.48 M205.15 244.58 C231.55 214.42, 252.92 191.85, 277.31 161.56 M205.15 244.58 C233.11 211.69, 262.99 177.55, 277.31 161.56 M226.41 244.51 C239.42 231.84, 254.7 212.58, 276.92 186.4 M226.41 244.51 C244.16 228.37, 256.14 207.95, 276.92 186.4 M250.95 240.67 C258.27 230.9, 266.56 226.41, 273.25 215.01 M250.95 240.67 C255.22 234.27, 261.51 226.92, 273.25 215.01" stroke="#a5d8ff" stroke-width="2" fill="none"></path><path d="M32 0 M32 0 C78.75 2.98, 130.39 -2.01, 236 0 M32 0 C79.24 4.16, 125.13 4.37, 236 0 M236 0 C258.29 -3.51, 267.17 14.08, 268 32 M236 0 C259.12 -2.11, 264.9 12.55, 268 32 M268 32 C267.88 105.1, 270.8 169.79, 268 210 M268 32 C268.39 83.17, 270.4 132.95, 268 210 M268 210 C270.15 229.33, 258.68 243.41, 236 242 M268 210 C266.42 231.91, 260.11 241.89, 236 242 M236 242 C159.58 242.86, 86.89 244.52, 32 242 M236 242 C183.52 246.05, 130.58 245.89, 32 242 M32 242 C8.24 238.15, -2.66 234.96, 0 210 M32 242 C13.37 241.68, 0.72 234.11, 0 210 M0 210 C2.13 162.18, -2.21 113.04, 0 32 M0 210 C-3.24 163.03, -2.59 115.47, 0 32 M0 32 C-3.27 8.23, 9.57 -2.11, 32 0 M0 32 C3.29 9.19, 6.71 1.14, 32 0" stroke="#1e1e1e" stroke-width="4" fill="none"></path></g><g transform="translate(669.8716896952383 199.08032883616022) rotate(0 36.34199905395508 22.5)"><text x="36.34199905395508" y="0" font-family="Virgil, Segoe UI Emoji" font-size="36px" fill="#1e1e1e" text-anchor="middle" style="white-space: pre;" direction="ltr" dominant-baseline="text-before-edge">CPU</text></g><g stroke-linecap="round" transform="translate(1088.3769519814837 94.27478879170076) rotate(0 134 121)"><path d="M7.86 8.16 C7.86 8.16, 7.86 8.16, 7.86 8.16 M7.86 8.16 C7.86 8.16, 7.86 8.16, 7.86 8.16 M8.78 31.49 C12.12 25.56, 20.3 17.01, 34.37 2.05 M8.78 31.49 C18.77 21.51, 27.33 12.59, 34.37 2.05 M8.39 56.32 C21.71 40.84, 38.07 24.34, 55.63 1.98 M8.39 56.32 C26.44 37.01, 41.6 13.5, 55.63 1.98 M8.66 80.4 C22.89 61.91, 41.5 41.5, 76.89 1.91 M8.66 80.4 C28.74 54.84, 48.26 31.39, 76.89 1.91 M8.27 105.24 C43.64 66.81, 75.93 23.73, 98.15 1.85 M8.27 105.24 C31.76 80.82, 50.1 57.24, 98.15 1.85 M8.54 129.32 C47.61 79.61, 92.91 27.55, 119.41 1.78 M8.54 129.32 C36.51 97.06, 65.15 68.3, 119.41 1.78 M8.15 154.16 C39.81 119.81, 69.59 88.29, 140.67 1.71 M8.15 154.16 C42.66 116.18, 72.26 79.76, 140.67 1.71 M8.41 178.24 C66.58 111.8, 117.52 45.97, 161.28 2.39 M8.41 178.24 C56.11 128.98, 99.34 77.57, 161.28 2.39 M1.46 210.62 C62.52 137.89, 124.97 64.76, 182.54 2.32 M1.46 210.62 C66.25 134.35, 128.71 62.4, 182.54 2.32 M6.98 228.67 C54.93 169.33, 112.25 107.67, 203.8 2.26 M6.98 228.67 C75.49 145.7, 148.17 62.74, 203.8 2.26 M18.4 239.92 C95.97 145.27, 170.82 58.08, 225.06 2.19 M18.4 239.92 C88.66 160.02, 159.7 81.46, 225.06 2.19 M35.07 245.13 C111.56 159.17, 187.81 71.83, 243.04 5.89 M35.07 245.13 C101.37 174.23, 163.79 97.84, 243.04 5.89 M56.33 245.06 C126.6 164.67, 195.22 85.4, 261.67 8.84 M56.33 245.06 C101.98 191.73, 142.83 141.9, 261.67 8.84 M77.59 245 C145.59 164.05, 212.17 84.77, 271.12 22.36 M77.59 245 C114.06 197.8, 153.8 152.93, 271.12 22.36 M98.85 244.93 C164.96 166.81, 227.68 96.44, 277.29 39.65 M98.85 244.93 C165.93 172.31, 228.05 100.43, 277.29 39.65 M120.11 244.86 C172.34 183.6, 224.85 127.52, 276.9 64.48 M120.11 244.86 C153.45 205.77, 189.81 167.91, 276.9 64.48 M141.37 244.79 C192.52 186.51, 250.87 122.38, 277.17 88.56 M141.37 244.79 C176.25 210.51, 206.72 172.43, 277.17 88.56 M162.63 244.72 C185.9 218.2, 212.56 191.21, 276.78 113.4 M162.63 244.72 C205.31 197.44, 243.35 152.02, 276.78 113.4 M183.89 244.65 C205.25 214.14, 231.25 185.99, 277.05 137.48 M183.89 244.65 C209.21 218.95, 232.75 190.1, 277.05 137.48 M205.15 244.58 C223.3 220.59, 250.97 199.86, 277.31 161.56 M205.15 244.58 C231.25 216.23, 253.93 188.93, 277.31 161.56 M226.41 244.51 C238.59 228.1, 252.03 215.36, 276.92 186.4 M226.41 244.51 C244.91 224.17, 260.87 204.87, 276.92 186.4 M250.95 240.67 C256.58 231.27, 268.56 222.17, 273.25 215.01 M250.95 240.67 C258.67 231.97, 263.82 225.85, 273.25 215.01" stroke="#a5d8ff" stroke-width="2" fill="none"></path><path d="M32 0 M32 0 C96.37 1.51, 162.35 0.55, 236 0 M32 0 C92.41 -0.76, 149.99 -0.36, 236 0 M236 0 C260.38 1.2, 271.51 10.36, 268 32 M236 0 C257.17 -2.34, 264.52 10.28, 268 32 M268 32 C266.72 76.44, 263.27 117.88, 268 210 M268 32 C270.44 85.66, 267.86 140.47, 268 210 M268 210 C266.62 231.84, 259.54 239.8, 236 242 M268 210 C269.15 233.82, 255.58 246.11, 236 242 M236 242 C166.69 238.76, 101.5 239.95, 32 242 M236 242 C171.6 239.69, 104.16 242.82, 32 242 M32 242 C12.33 241.11, 0.93 232.11, 0 210 M32 242 C11.93 245.13, 0.67 230.11, 0 210 M0 210 C-1.33 145.48, 1.62 79.74, 0 32 M0 210 C2.58 169.19, 0.4 126.64, 0 32 M0 32 C2.17 12.14, 10.98 -0.12, 32 0 M0 32 C-0.56 10.23, 12.45 -4.3, 32 0" stroke="#1e1e1e" stroke-width="4" fill="none"></path></g><g transform="translate(1161.1949527749407 192.77478879170076) rotate(0 61.18199920654297 22.5)"><text x="61.18199920654297" y="0" font-family="Virgil, Segoe UI Emoji" font-size="36px" fill="#1e1e1e" text-anchor="middle" style="white-space: pre;" direction="ltr" dominant-baseline="text-before-edge">Memory</text></g><g stroke-linecap="round" transform="translate(1095.9471181937156 504.5777974946751) rotate(0 134 121)"><path d="M7.86 8.16 C7.86 8.16, 7.86 8.16, 7.86 8.16 M7.86 8.16 C7.86 8.16, 7.86 8.16, 7.86 8.16 M8.78 31.49 C19.06 22.44, 26.96 8.63, 34.37 2.05 M8.78 31.49 C15.23 21, 23.36 15.18, 34.37 2.05 M8.39 56.32 C18.97 42.61, 25.03 31.39, 55.63 1.98 M8.39 56.32 C21.2 39.11, 35.22 27.75, 55.63 1.98 M8.66 80.4 C30.74 55.25, 50.13 28.64, 76.89 1.91 M8.66 80.4 C30.29 55.76, 55.91 26.64, 76.89 1.91 M8.27 105.24 C27.93 83.14, 50.33 55.32, 98.15 1.85 M8.27 105.24 C28.24 78.41, 49.7 56.2, 98.15 1.85 M8.54 129.32 C39.86 86.04, 71.6 50.93, 119.41 1.78 M8.54 129.32 C37.05 97.28, 63.42 69.54, 119.41 1.78 M8.15 154.16 C57.02 97.35, 105.27 40.5, 140.67 1.71 M8.15 154.16 C46.02 105.51, 88.53 59.87, 140.67 1.71 M8.41 178.24 C71.73 111.75, 132.71 43.1, 161.28 2.39 M8.41 178.24 C66.75 112.04, 125.08 45.53, 161.28 2.39 M1.46 210.62 C63.83 129.38, 134.37 52.59, 182.54 2.32 M1.46 210.62 C46.7 161.7, 93.4 111.54, 182.54 2.32 M6.98 228.67 C59.15 170.86, 109.72 114.03, 203.8 2.26 M6.98 228.67 C69.18 157.93, 125.46 92.75, 203.8 2.26 M18.4 239.92 C73.02 175.61, 128.8 110.33, 225.06 2.19 M18.4 239.92 C66.05 177.08, 117.62 119.56, 225.06 2.19 M35.07 245.13 C114.54 149.15, 196.18 54.94, 243.04 5.89 M35.07 245.13 C103.93 164.46, 175.38 82.84, 243.04 5.89 M56.33 245.06 C115.56 170.87, 182.15 100.35, 261.67 8.84 M56.33 245.06 C99.93 194, 143.93 146.19, 261.67 8.84 M77.59 245 C128.63 184.95, 184.47 121.2, 271.12 22.36 M77.59 245 C128.54 189.58, 180.54 130.79, 271.12 22.36 M98.85 244.93 C149.34 194.51, 194.26 135.39, 277.29 39.65 M98.85 244.93 C140.65 198.28, 178.28 152.19, 277.29 39.65 M120.11 244.86 C160.64 201.33, 200.59 156.42, 276.9 64.48 M120.11 244.86 C158.68 197.82, 198.42 154.05, 276.9 64.48 M141.37 244.79 C185.9 191.47, 232.88 138.83, 277.17 88.56 M141.37 244.79 C183.42 198.47, 222.1 152.83, 277.17 88.56 M162.63 244.72 C190.43 218.73, 220.87 184.52, 276.78 113.4 M162.63 244.72 C190.27 211.2, 218.59 179.62, 276.78 113.4 M183.89 244.65 C203.69 218.98, 227.86 196.22, 277.05 137.48 M183.89 244.65 C205.54 218.5, 227.59 192.55, 277.05 137.48 M205.15 244.58 C218.29 230.59, 232.79 208.8, 277.31 161.56 M205.15 244.58 C221.55 222.18, 241.45 202.18, 277.31 161.56 M226.41 244.51 C239.51 229.07, 252.38 212.34, 276.92 186.4 M226.41 244.51 C245.63 219.95, 265.6 200.76, 276.92 186.4 M250.95 240.67 C257.71 230.2, 262.19 223.43, 273.25 215.01 M250.95 240.67 C257.6 233.82, 261.44 225.88, 273.25 215.01" stroke="#a5d8ff" stroke-width="2" fill="none"></path><path d="M32 0 M32 0 C97.96 1.31, 155.8 1.91, 236 0 M32 0 C85.19 -1.56, 141.3 -2.69, 236 0 M236 0 C260.91 1.48, 269.48 10.31, 268 32 M236 0 C256.59 -3.75, 271.83 8.44, 268 32 M268 32 C272.02 85.53, 267.6 149.67, 268 210 M268 32 C267.6 93.33, 268.57 153.86, 268 210 M268 210 C266.93 233.67, 259.02 239.21, 236 242 M268 210 C268.19 230.52, 260.92 238.97, 236 242 M236 242 C189.59 243.12, 137.52 242.17, 32 242 M236 242 C163.69 242.07, 91.32 242.98, 32 242 M32 242 C6.93 243.82, 0.57 232.11, 0 210 M32 242 C11.91 245.71, 3.17 228.78, 0 210 M0 210 C0.07 169.03, 2.83 126.47, 0 32 M0 210 C-3.36 147.37, -3.84 88.38, 0 32 M0 32 C-1.92 13.04, 12.4 1.29, 32 0 M0 32 C-3.87 6.18, 7.9 4.15, 32 0" stroke="#1e1e1e" stroke-width="4" fill="none"></path></g><g transform="translate(1193.4251188345847 603.0777974946751) rotate(0 36.52199935913086 22.5)"><text x="36.52199935913086" y="0" font-family="Virgil, Segoe UI Emoji" font-size="36px" fill="#1e1e1e" text-anchor="middle" style="white-space: pre;" direction="ltr" dominant-baseline="text-before-edge">Disk</text></g><g stroke-linecap="round" transform="translate(1796.9445094463986 88.21865582191549) rotate(0 134 121)"><path d="M7.86 8.16 C7.86 8.16, 7.86 8.16, 7.86 8.16 M7.86 8.16 C7.86 8.16, 7.86 8.16, 7.86 8.16 M8.78 31.49 C19.95 23.09, 25.12 7.19, 34.37 2.05 M8.78 31.49 C16.14 21.02, 27.36 11.38, 34.37 2.05 M8.39 56.32 C21.04 34.88, 41.14 15.1, 55.63 1.98 M8.39 56.32 C17.02 45.12, 29.46 33.86, 55.63 1.98 M8.66 80.4 C32.25 52.53, 55.39 28.71, 76.89 1.91 M8.66 80.4 C32.05 53.44, 58.29 24.13, 76.89 1.91 M8.27 105.24 C29.93 84.07, 49.93 65.89, 98.15 1.85 M8.27 105.24 C36.87 73.25, 65.48 43.82, 98.15 1.85 M8.54 129.32 C48.38 81.64, 93.05 31.39, 119.41 1.78 M8.54 129.32 C38.04 100.64, 67 67.3, 119.41 1.78 M8.15 154.16 C39.56 118.01, 72.45 81.92, 140.67 1.71 M8.15 154.16 C33.14 118.03, 64.19 84.78, 140.67 1.71 M8.41 178.24 C54.47 124.72, 99.4 68.98, 161.28 2.39 M8.41 178.24 C65.3 109.11, 128.2 42.71, 161.28 2.39 M1.46 210.62 C69.05 130.16, 138.59 47.4, 182.54 2.32 M1.46 210.62 C68.47 136.26, 134.43 62.63, 182.54 2.32 M6.98 228.67 C70.77 156.68, 138.51 77.12, 203.8 2.26 M6.98 228.67 C57.2 170.14, 110.88 108.69, 203.8 2.26 M18.4 239.92 C85.24 166.8, 148.49 87.93, 225.06 2.19 M18.4 239.92 C83.51 170.64, 144.88 99.42, 225.06 2.19 M35.07 245.13 C93.61 180.61, 143.61 117.42, 243.04 5.89 M35.07 245.13 C79.42 190.24, 124.72 137.26, 243.04 5.89 M56.33 245.06 C116.73 178.44, 175.47 109.63, 261.67 8.84 M56.33 245.06 C108.2 184.44, 163.32 122.71, 261.67 8.84 M77.59 245 C142.67 171.7, 207.37 97.58, 271.12 22.36 M77.59 245 C124.45 188.02, 172.39 131.38, 271.12 22.36 M98.85 244.93 C148.66 196.25, 190.91 142.42, 277.29 39.65 M98.85 244.93 C144.76 190.94, 192.71 134.88, 277.29 39.65 M120.11 244.86 C176.94 181.46, 235.62 112.96, 276.9 64.48 M120.11 244.86 C156.75 201.89, 194.39 158.49, 276.9 64.48 M141.37 244.79 C198.35 182.7, 247.82 122.66, 277.17 88.56 M141.37 244.79 C190.64 187.67, 242.67 127.72, 277.17 88.56 M162.63 244.72 C187.88 214.81, 211.58 193.12, 276.78 113.4 M162.63 244.72 C196.36 203.28, 236.05 161.63, 276.78 113.4 M183.89 244.65 C218.13 200.14, 255.95 159.62, 277.05 137.48 M183.89 244.65 C202.87 218.82, 222.33 195.82, 277.05 137.48 M205.15 244.58 C227.36 215.97, 250.63 189.8, 277.31 161.56 M205.15 244.58 C227.29 220.51, 248.58 195.27, 277.31 161.56 M226.41 244.51 C242.35 221.76, 263.35 203.51, 276.92 186.4 M226.41 244.51 C243.3 224.26, 257.3 209.11, 276.92 186.4 M250.95 240.67 C259.46 232.9, 269.02 223.63, 273.25 215.01 M250.95 240.67 C255.35 233.55, 262.49 228.01, 273.25 215.01" stroke="#a5d8ff" stroke-width="2" fill="none"></path><path d="M32 0 M32 0 C78.74 3.39, 129.72 -0.52, 236 0 M32 0 C100.31 -1.4, 168.12 -1.52, 236 0 M236 0 C258.88 -3.74, 269.82 11.24, 268 32 M236 0 C258.22 1.25, 271.71 13.84, 268 32 M268 32 C269.14 72.18, 267.61 118.45, 268 210 M268 32 C268.68 92.41, 268.69 153.78, 268 210 M268 210 C271.44 229.41, 259.71 243.73, 236 242 M268 210 C269.48 227.46, 252.84 239.23, 236 242 M236 242 C155.6 239.9, 79.81 245.33, 32 242 M236 242 C181.44 242.66, 128.71 241.68, 32 242 M32 242 C13.95 243.73, 2.77 231.54, 0 210 M32 242 C9.97 239.04, 0.63 235.55, 0 210 M0 210 C0.7 143.99, 4.73 70.55, 0 32 M0 210 C2.76 158.13, -0.04 109.13, 0 32 M0 32 C-3.81 8.98, 7.9 1.41, 32 0 M0 32 C0.66 7.3, 12.31 -3.84, 32 0" stroke="#1e1e1e" stroke-width="4" fill="none"></path></g><g transform="translate(1841.9525050518673 186.7186558219155) rotate(0 88.99200439453125 22.5)"><text x="88.99200439453125" y="0" font-family="Virgil, Segoe UI Emoji" font-size="36px" fill="#1e1e1e" text-anchor="middle" style="white-space: pre;" direction="ltr" dominant-baseline="text-before-edge">Database</text></g><g stroke-linecap="round" transform="translate(822.0644173992678 891.5909917604924) rotate(0 134.00000000000006 121)"><path d="M7.86 8.16 C7.86 8.16, 7.86 8.16, 7.86 8.16 M7.86 8.16 C7.86 8.16, 7.86 8.16, 7.86 8.16 M8.78 31.49 C18.06 21.82, 25.89 11.33, 34.37 2.05 M8.78 31.49 C15.66 20.97, 25.9 12.82, 34.37 2.05 M8.39 56.32 C27.98 36.8, 47.06 16.62, 55.63 1.98 M8.39 56.32 C26.26 36.19, 43.99 16.49, 55.63 1.98 M8.66 80.4 C29.05 49.13, 57.82 21.67, 76.89 1.91 M8.66 80.4 C24.8 62.04, 44.23 44.3, 76.89 1.91 M8.27 105.24 C32.13 78.26, 55.35 53.38, 98.15 1.85 M8.27 105.24 C38.35 71.44, 62.36 43.23, 98.15 1.85 M8.54 129.32 C37.42 94.09, 67.78 57.59, 119.41 1.78 M8.54 129.32 C32.52 94.06, 59.94 65.07, 119.41 1.78 M8.15 154.16 C59.32 91.73, 111.83 30.95, 140.67 1.71 M8.15 154.16 C51.17 103.09, 96.57 51.6, 140.67 1.71 M8.41 178.24 C51.23 122.68, 102.41 71.01, 161.28 2.39 M8.41 178.24 C40.9 139.67, 74.2 104.7, 161.28 2.39 M1.46 210.62 C49.08 154.51, 101.65 94.54, 182.54 2.32 M1.46 210.62 C49.09 159, 97.83 104.01, 182.54 2.32 M6.98 228.67 C62.34 172.56, 112.32 108.05, 203.8 2.26 M6.98 228.67 C52.88 177.36, 94.61 126.71, 203.8 2.26 M18.4 239.92 C71.57 181.84, 124.11 122.29, 225.06 2.19 M18.4 239.92 C69.62 178.77, 121.55 120.68, 225.06 2.19 M35.07 245.13 C104.15 164.33, 175.54 83.31, 243.04 5.89 M35.07 245.13 C98.14 174.51, 157.93 104.83, 243.04 5.89 M56.33 245.06 C106.94 193.07, 158.65 134.16, 261.67 8.84 M56.33 245.06 C106.44 186.25, 156.57 129.3, 261.67 8.84 M77.59 245 C120.46 192.93, 167.62 142.42, 271.12 22.36 M77.59 245 C124.31 190.6, 170.34 137.22, 271.12 22.36 M98.85 244.93 C134.15 203.92, 172.2 156.17, 277.29 39.65 M98.85 244.93 C141.23 191.08, 187.79 139.78, 277.29 39.65 M120.11 244.86 C164.44 195.89, 206.8 145.54, 276.9 64.48 M120.11 244.86 C180.07 172.76, 241.04 105.79, 276.9 64.48 M141.37 244.79 C183.62 191.61, 225.88 141.56, 277.17 88.56 M141.37 244.79 C177.99 203.48, 210.4 163.07, 277.17 88.56 M162.63 244.72 C201.17 204.62, 230.96 165.11, 276.78 113.4 M162.63 244.72 C191.51 209.09, 224 172.96, 276.78 113.4 M183.89 244.65 C219.01 201.58, 252.39 163.83, 277.05 137.48 M183.89 244.65 C206.5 218.05, 228.52 188.87, 277.05 137.48 M205.15 244.58 C233.19 213.7, 261.16 183.67, 277.31 161.56 M205.15 244.58 C229.14 216.22, 251.09 191.14, 277.31 161.56 M226.41 244.51 C244.46 222.04, 267.31 203.67, 276.92 186.4 M226.41 244.51 C238.85 230.2, 250.16 215.88, 276.92 186.4 M250.95 240.67 C259.05 234.21, 264.48 227.27, 273.25 215.01 M250.95 240.67 C257.88 229.24, 269.21 219.72, 273.25 215.01" stroke="#a5d8ff" stroke-width="2" fill="none"></path><path d="M32 0 M32 0 C103.76 0.2, 170.46 -4.31, 236 0 M32 0 C82.54 -2.07, 135.58 -2.56, 236 0 M236 0 C253.97 -3.91, 265.59 14.28, 268 32 M236 0 C261.16 1.05, 266.97 6.9, 268 32 M268 32 C271.76 101.11, 266.55 168.91, 268 210 M268 32 C266.97 69.87, 266.21 104.67, 268 210 M268 210 C265.43 231.88, 261 245.62, 236 242 M268 210 C265.7 235.27, 256.09 246.04, 236 242 M236 242 C158.78 238.21, 86.7 238.56, 32 242 M236 242 C184.27 237.3, 134.68 238.79, 32 242 M32 242 C7.74 243.43, -3.34 229.5, 0 210 M32 242 C12.09 246.23, -4.46 227.58, 0 210 M0 210 C4.67 170.94, -1.36 123.54, 0 32 M0 210 C0.24 160.51, 2.47 107.54, 0 32 M0 32 C-0.99 7.6, 9.38 -1.7, 32 0 M0 32 C-0.3 8.06, 15.13 -2.78, 32 0" stroke="#1e1e1e" stroke-width="4" fill="none"></path></g><g transform="translate(924.9244180096193 990.0909917604924) rotate(0 31.139999389648438 22.5)"><text x="31.139999389648438" y="0" font-family="Virgil, Segoe UI Emoji" font-size="36px" fill="#1e1e1e" text-anchor="middle" style="white-space: pre;" direction="ltr" dominant-baseline="text-before-edge">결과</text></g><g stroke-linecap="round" transform="translate(10 224.77386853019914) rotate(0 134 121)"><path d="M7.86 8.16 C7.86 8.16, 7.86 8.16, 7.86 8.16 M7.86 8.16 C7.86 8.16, 7.86 8.16, 7.86 8.16 M8.78 31.49 C12.95 26.61, 27.38 11.11, 34.37 2.05 M8.78 31.49 C15.48 23.75, 21.81 15.46, 34.37 2.05 M8.39 56.32 C27.46 42.95, 35.13 20.26, 55.63 1.98 M8.39 56.32 C19.45 45, 28.7 31.58, 55.63 1.98 M8.66 80.4 C38.95 47.15, 60.66 19.33, 76.89 1.91 M8.66 80.4 C23.93 63.48, 37.02 44.34, 76.89 1.91 M8.27 105.24 C36.23 73.04, 67.23 33.99, 98.15 1.85 M8.27 105.24 C40.83 67.85, 72.46 30.63, 98.15 1.85 M8.54 129.32 C50.98 80.34, 90.42 40.32, 119.41 1.78 M8.54 129.32 C41.25 87.26, 78.88 49.03, 119.41 1.78 M8.15 154.16 C41.8 118.17, 79.82 75.89, 140.67 1.71 M8.15 154.16 C40.53 119.81, 71.18 86.43, 140.67 1.71 M8.41 178.24 C54.02 125.3, 101.05 65.49, 161.28 2.39 M8.41 178.24 C52.8 126.51, 94.84 77.42, 161.28 2.39 M1.46 210.62 C55.05 150.06, 112.65 86.8, 182.54 2.32 M1.46 210.62 C60.08 143.23, 119.32 78.26, 182.54 2.32 M6.98 228.67 C71.64 154.53, 138.33 75.12, 203.8 2.26 M6.98 228.67 C68.26 162.07, 126.09 94.32, 203.8 2.26 M18.4 239.92 C85.6 163.03, 154.51 81.76, 225.06 2.19 M18.4 239.92 C61.18 193.78, 101.2 147.66, 225.06 2.19 M35.07 245.13 C86.73 190.66, 133.16 131.53, 243.04 5.89 M35.07 245.13 C104.9 163.13, 177.16 81.06, 243.04 5.89 M56.33 245.06 C103.78 189.84, 149.82 132.65, 261.67 8.84 M56.33 245.06 C120.4 168.86, 184.48 93.02, 261.67 8.84 M77.59 245 C119.05 199.26, 165.7 146.53, 271.12 22.36 M77.59 245 C128.37 188.44, 177.67 133.7, 271.12 22.36 M98.85 244.93 C148.19 192.18, 194.27 135.82, 277.29 39.65 M98.85 244.93 C163.81 170.36, 226.25 96.87, 277.29 39.65 M120.11 244.86 C152.56 208.21, 185.48 169.3, 276.9 64.48 M120.11 244.86 C155.24 204.38, 187.86 167.19, 276.9 64.48 M141.37 244.79 C183.01 195.35, 229.93 139.62, 277.17 88.56 M141.37 244.79 C181.98 194.27, 223.65 147.38, 277.17 88.56 M162.63 244.72 C202.22 202.45, 242.16 154.78, 276.78 113.4 M162.63 244.72 C197.62 204.07, 231.67 167.22, 276.78 113.4 M183.89 244.65 C215.81 206.7, 240.4 170.87, 277.05 137.48 M183.89 244.65 C220.95 203.87, 257.74 163.08, 277.05 137.48 M205.15 244.58 C220.62 227.86, 240.67 205.94, 277.31 161.56 M205.15 244.58 C227.43 216.09, 255.96 190.46, 277.31 161.56 M226.41 244.51 C246.34 229.38, 257.63 209.1, 276.92 186.4 M226.41 244.51 C241.68 224.99, 261.25 208.48, 276.92 186.4 M250.95 240.67 C256.58 231.81, 271.06 225.42, 273.25 215.01 M250.95 240.67 C257.84 235.85, 261.46 227.61, 273.25 215.01" stroke="#a5d8ff" stroke-width="2" fill="none"></path><path d="M32 0 M32 0 C84.85 -5.05, 142.81 -6.66, 236 0 M32 0 C84.84 -2.6, 137.81 -2.78, 236 0 M236 0 C255.5 1.23, 271.68 6.79, 268 32 M236 0 C253.58 -2.77, 265.01 10.01, 268 32 M268 32 C270.11 95.32, 270.67 158.3, 268 210 M268 32 C269.45 82.79, 268.78 133.92, 268 210 M268 210 C266.3 231.07, 255.06 245.88, 236 242 M268 210 C265.22 227.61, 255.76 244.76, 236 242 M236 242 C157.31 244.63, 81.95 244.16, 32 242 M236 242 C192.86 244.17, 147.81 245.02, 32 242 M32 242 C7.58 244.2, 0.83 233.29, 0 210 M32 242 C10.43 238.75, -0.39 231.01, 0 210 M0 210 C-0.5 168.05, -4.43 129.78, 0 32 M0 210 C-1.1 142.74, -1.87 75.45, 0 32 M0 32 C-0.16 12.84, 13.25 -0.43, 32 0 M0 32 C0.97 12.53, 12.9 1.9, 32 0" stroke="#1e1e1e" stroke-width="4" fill="none"></path></g><g transform="translate(95.31000518798828 323.27386853019914) rotate(0 48.68999481201172 22.5)"><text x="48.68999481201172" y="0" font-family="Virgil, Segoe UI Emoji" font-size="36px" fill="#1e1e1e" text-anchor="middle" style="white-space: pre;" direction="ltr" dominant-baseline="text-before-edge">Client</text></g><g stroke-linecap="round"><g transform="translate(1796.0645354974981 208.06028013497348) rotate(0 -217.1290748491059 -2.8993393372900584)"><path d="M2.5 1.03 C-70.26 0.07, -361.91 -5.18, -435.09 -6.83 M0.42 -0.87 C-72.76 -1.28, -363.59 -2.32, -436.76 -3.34" stroke="#1e1e1e" stroke-width="4" fill="none"></path></g><g transform="translate(1796.0645354974981 208.06028013497348) rotate(0 -217.1290748491059 -2.8993393372900584)"><path d="M-407.01 -11.89 C-418.93 -9.96, -431.84 -2.44, -438.7 -2.5 M-410.29 -14.38 C-416.58 -8.74, -428.49 -5.64, -436.37 -2.79" stroke="#1e1e1e" stroke-width="4" fill="none"></path></g><g transform="translate(1796.0645354974981 208.06028013497348) rotate(0 -217.1290748491059 -2.8993393372900584)"><path d="M-407.18 8.63 C-418.88 3.29, -431.73 3.56, -438.7 -2.5 M-410.45 6.14 C-416.61 4.7, -428.46 0.72, -436.37 -2.79" stroke="#1e1e1e" stroke-width="4" fill="none"></path></g></g><mask></mask><g stroke-linecap="round"><g transform="translate(1086.741343155113 209.7060416021252) rotate(0 -118.78377828784267 2.2722691687313272)"><path d="M-0.24 -0.19 C-39.77 1.35, -198.07 6.16, -237.33 7.31 M-3.81 -2.77 C-42.44 -1.78, -192.99 2.78, -232 3.59" stroke="#1e1e1e" stroke-width="4" fill="none"></path></g><g transform="translate(1086.741343155113 209.7060416021252) rotate(0 -118.78377828784267 2.2722691687313272)"><path d="M-28.36 8.13 C-16.32 7.06, -8.98 3.27, -1.65 1.15 M-28.35 10.04 C-18.79 4.49, -7.47 3.29, 1.05 -0.41" stroke="#1e1e1e" stroke-width="4" fill="none"></path></g><g transform="translate(1086.741343155113 209.7060416021252) rotate(0 -118.78377828784267 2.2722691687313272)"><path d="M-29.02 -12.38 C-17.08 -7.4, -9.54 -5.15, -1.65 1.15 M-29.01 -10.47 C-19.11 -8.39, -7.54 -1.94, 1.05 -0.41" stroke="#1e1e1e" stroke-width="4" fill="none"></path></g><g transform="translate(1086.741343155113 209.7060416021252) rotate(0 -118.78377828784267 2.2722691687313272)"><path d="M-204.37 -10.24 C-209.09 -4.87, -218.2 -2.13, -233.41 4.94 M-204.35 -8.33 C-215.47 -4.74, -224.92 2.32, -230.71 3.38" stroke="#1e1e1e" stroke-width="4" fill="none"></path></g><g transform="translate(1086.741343155113 209.7060416021252) rotate(0 -118.78377828784267 2.2722691687313272)"><path d="M-203.83 10.28 C-208.42 9.59, -217.68 6.28, -233.41 4.94 M-203.82 12.18 C-215.23 8.14, -224.89 7.55, -230.71 3.38" stroke="#1e1e1e" stroke-width="4" fill="none"></path></g></g><mask></mask><g stroke-linecap="round"><g transform="translate(1226.631067863008 343.0127204414133) rotate(0 1.7134481235632393 75.0620452203509)"><path d="M-1.39 -1.16 C-1.12 24.46, -1.32 128.68, -0.45 154.38 M3.05 -4.26 C4.39 20.47, 4.79 123.35, 4.82 150.09" stroke="#1e1e1e" stroke-width="4" fill="none"></path></g><g transform="translate(1226.631067863008 343.0127204414133) rotate(0 1.7134481235632393 75.0620452203509)"><path d="M7.31 24 C8.4 23.7, 4.21 12.95, -0.51 -2.57 M9.61 26.4 C6.28 15, 1.29 4.6, -0.18 -1.03" stroke="#1e1e1e" stroke-width="4" fill="none"></path></g><g transform="translate(1226.631067863008 343.0127204414133) rotate(0 1.7134481235632393 75.0620452203509)"><path d="M-13.21 24.07 C-7.5 23.96, -7.07 13.19, -0.51 -2.57 M-10.92 26.47 C-6.64 14.92, -4.02 4.5, -0.18 -1.03" stroke="#1e1e1e" stroke-width="4" fill="none"></path></g><g transform="translate(1226.631067863008 343.0127204414133) rotate(0 1.7134481235632393 75.0620452203509)"><path d="M-7.2 118.95 C-1.18 131.53, -0.71 133.45, 5.7 148.69 M-4.91 121.34 C-0.15 130.69, 2.54 141.15, 6.03 150.23" stroke="#1e1e1e" stroke-width="4" fill="none"></path></g><g transform="translate(1226.631067863008 343.0127204414133) rotate(0 1.7134481235632393 75.0620452203509)"><path d="M13.32 118.88 C14.72 131.27, 10.58 133.21, 5.7 148.69 M15.61 121.27 C12.77 130.76, 7.86 141.26, 6.03 150.23" stroke="#1e1e1e" stroke-width="4" fill="none"></path></g></g><mask></mask><g stroke-linecap="round"><g transform="translate(952.1649102132545 795.6496332357924) rotate(0 4.419567341648133 45.1075222201583)"><path d="M2.48 -2.24 C3.55 12.88, 7.57 73.28, 8.46 88.88 M0.38 2.72 C0.83 18.48, 5.04 78.39, 5.86 92.45" stroke="#1e1e1e" stroke-width="4" fill="none"></path></g><g transform="translate(952.1649102132545 795.6496332357924) rotate(0 4.419567341648133 45.1075222201583)"><path d="M-9.39 64.03 C-2.2 73.16, 5.81 83.05, 8.6 91 M-6 66.58 C-3.37 73.59, -1.01 77.97, 6.34 94.39" stroke="#1e1e1e" stroke-width="4" fill="none"></path></g><g transform="translate(952.1649102132545 795.6496332357924) rotate(0 4.419567341648133 45.1075222201583)"><path d="M11.08 62.71 C10.61 72.7, 10.99 83.08, 8.6 91 M14.48 65.25 C11.72 72.52, 8.69 77.25, 6.34 94.39" stroke="#1e1e1e" stroke-width="4" fill="none"></path></g></g><mask></mask><g stroke-linecap="round"><g transform="translate(279.12750618163034 343.9160535806684) rotate(0 106.18353536627757 1.978351760596155)"><path d="M0.25 -0.85 C35.83 -0.46, 179.57 3.39, 215.42 4.27 M-3.06 -3.79 C32.07 -3.11, 177.53 5.87, 213.71 7.74" stroke="#1e1e1e" stroke-width="4" fill="none"></path></g><g transform="translate(279.12750618163034 343.9160535806684) rotate(0 106.18353536627757 1.978351760596155)"><path d="M183.76 17.76 C195.04 14.41, 205.87 8.38, 213.11 4.5 M183.05 16.12 C196.03 14.94, 205.27 11.67, 212.85 6.57" stroke="#1e1e1e" stroke-width="4" fill="none"></path></g><g transform="translate(279.12750618163034 343.9160535806684) rotate(0 106.18353536627757 1.978351760596155)"><path d="M184.92 -2.73 C196.06 1.49, 206.46 3.01, 213.11 4.5 M184.21 -4.37 C196.39 2.08, 205.19 6.46, 212.85 6.57" stroke="#1e1e1e" stroke-width="4" fill="none"></path></g></g><mask></mask><g stroke-linecap="round"><g transform="translate(819.8389121324609 1014.6719748867616) rotate(0 -353.5835744034218 -268.3850068495203)"><path d="M1.31 1.01 C-269.27 -7.78, -536.23 -11.59, -707.44 -12.28 M-0.09 -0.44 C-157.59 -1.14, -315.95 -5.43, -707.1 -14.2 M-708.03 -14.39 C-708.8 -178.28, -708.9 -339.13, -705.69 -537.17 M-708 -14.34 C-702.69 -210.49, -702.44 -406.39, -704.37 -537.78" stroke="#1e1e1e" stroke-width="4" fill="none"></path></g><g transform="translate(819.8389121324609 1014.6719748867616) rotate(0 -353.5835744034218 -268.3850068495203)"><path d="M-690.6 -507.15 C-700.49 -524.07, -701.13 -531.27, -704.82 -534.26 M-694.1 -510.77 C-695.59 -514.21, -699.42 -523.57, -703.96 -539.07" stroke="#1e1e1e" stroke-width="4" fill="none"></path></g><g transform="translate(819.8389121324609 1014.6719748867616) rotate(0 -353.5835744034218 -268.3850068495203)"><path d="M-711.12 -506.98 C-713.23 -523.89, -706.08 -531.15, -704.82 -534.26 M-714.62 -510.61 C-711.53 -514.17, -710.78 -523.57, -703.96 -539.07" stroke="#1e1e1e" stroke-width="4" fill="none"></path></g></g><mask></mask><g transform="translate(303.8825645344898 278.47691413903874) rotate(0 71.27999877929688 22.5)"><text x="142.55999755859375" y="0" font-family="Virgil, Segoe UI Emoji" font-size="36px" fill="#1e1e1e" text-anchor="end" style="white-space: pre;" direction="ltr" dominant-baseline="text-before-edge">쿼리 실행</text></g><g transform="translate(1438.273059083764 106.92860456421181) rotate(0 173.87998962402344 45)"><text x="347.7599792480469" y="0" font-family="Virgil, Segoe UI Emoji" font-size="36px" fill="#1e1e1e" text-anchor="end" style="white-space: pre;" direction="ltr" dominant-baseline="text-before-edge">emp_no, first_name</text><text x="347.7599792480469" y="45" font-family="Virgil, Segoe UI Emoji" font-size="36px" fill="#1e1e1e" text-anchor="end" style="white-space: pre;" direction="ltr" dominant-baseline="text-before-edge">last_name 칼럼 조회</text></g><g transform="translate(1247.3982671960416 395.7856846571185) rotate(0 71.27999877929688 22.5)"><text x="142.55999755859375" y="0" font-family="Virgil, Segoe UI Emoji" font-size="36px" fill="#1e1e1e" text-anchor="end" style="white-space: pre;" direction="ltr" dominant-baseline="text-before-edge">멀티 머지</text></g><g transform="translate(879.4685718028718 129.63352789029034) rotate(0 86.84999847412115 22.5)"><text x="173.6999969482422" y="0" font-family="Virgil, Segoe UI Emoji" font-size="36px" fill="#1e1e1e" text-anchor="end" style="white-space: pre;" direction="ltr" dominant-baseline="text-before-edge">레코드 정렬</text></g></svg>