<svg version="1.1" xmlns="http://www.w3.org/2000/svg" viewBox="0 0 2318.3516143732777 1619.8117441767263" width="4636.703228746555" height="3239.6234883534526">
  <!-- svg-source:excalidraw -->
  
  <defs>
    <style class="style-fonts">
      @font-face {
        font-family: "Virgil";
        src: url("https://excalidraw.com/Virgil.woff2");
      }
      @font-face {
        font-family: "Cascadia";
        src: url("https://excalidraw.com/Cascadia.woff2");
      }
    </style>
    
  </defs>
  <rect x="0" y="0" width="2318.3516143732777" height="1619.8117441767263" fill="#ffffff"></rect><g stroke-linecap="round" transform="translate(11.459382289275595 100.354874904815) rotate(0 445.6693154088842 257.6334946610262)"><path d="M-0.74 -0.51 C192.26 6.07, 380.94 7.38, 890.24 0.85 M-0.65 0.19 C218.07 -1.29, 436.2 0.12, 891.46 0.16 M890.86 1.17 C896.38 165.79, 894.59 327.57, 890.63 516.48 M891.15 0.04 C895.58 104.18, 896.05 209.41, 891.13 515.08 M891.21 516.3 C551.96 522.03, 213.95 519.25, 0.61 513.68 M891.11 515.9 C621.89 522.69, 354.12 522.69, -0.42 515.6 M-1.17 514.34 C2.35 336.74, 1.21 159.61, 0.8 -1.1 M0.73 515.3 C-3.77 329.44, -3.4 145.14, 0.59 0.62" stroke="#1e1e1e" stroke-width="4" fill="none"></path></g><g stroke-linecap="round"><g transform="translate(316.71233804878534 97.91285125873878) rotate(0 -1.468172050802849 260.13594937400285)"><path d="M-0.31 -0.24 C-2.72 118.47, -4.42 239.52, -2.99 519.95 M0.03 -0.37 C1.25 172.47, 0.47 345.99, -2.68 520.64" stroke="#1e1e1e" stroke-width="4" fill="none"></path></g></g><mask></mask><g stroke-linecap="round"><g transform="translate(629.2913647465232 100.354874904815) rotate(0 -0.8355213381298086 258.86570348890405)"><path d="M0.27 -0.71 C-2.72 140.43, -1.45 282.56, -1.53 517.78 M-0.22 -0.61 C-0.88 121.47, -0.21 241.72, -1.94 518.44" stroke="#1e1e1e" stroke-width="4" fill="none"></path></g></g><mask></mask><g stroke-linecap="round"><g transform="translate(13.901405935351704 185.82570251747768) rotate(0 449.612800278468 -3.0039553640004897)"><path d="M0.52 0.74 C270.4 -3.09, 543.69 -4.09, 899.61 -5.42 M-0.39 0.48 C185.72 -7.57, 369.7 -8.06, 898.16 -5.02" stroke="#1e1e1e" stroke-width="4" fill="none"></path></g></g><mask></mask><g stroke-linecap="round"><g transform="translate(11.178932888805832 276.74250914021695) rotate(0 449.236574551044 -1.836733873106141)"><path d="M-1.18 0.53 C315.34 -3.76, 632.43 -4.87, 899.65 -3.85 M-0.32 0.12 C291.82 0.6, 582.14 -0.48, 898.2 -4.12" stroke="#1e1e1e" stroke-width="4" fill="none"></path></g></g><mask></mask><g stroke-linecap="round"><g transform="translate(13.620956534882055 352.4452421685753) rotate(0 449.98874448495917 -2.4740781706684345)"><path d="M-0.13 0.43 C203.84 2.82, 407.78 1.11, 900.11 -5.36 M0.02 -0.37 C234.51 -6.96, 468.74 -7.97, 897.93 -4.32" stroke="#1e1e1e" stroke-width="4" fill="none"></path></g></g><mask></mask><g stroke-linecap="round"><g transform="translate(16.06298018095805 445.2421407194663) rotate(0 449.22259067515836 -2.8032201736680804)"><path d="M0.99 1.03 C262.61 -2.1, 523.99 -5.61, 898.91 -3.72 M-0.47 0.77 C271.88 -6.95, 544.72 -8.47, 897.98 -4.56" stroke="#1e1e1e" stroke-width="4" fill="none"></path></g></g><mask></mask><g stroke-linecap="round"><g transform="translate(16.06298018095805 523.3868973939008) rotate(0 449.3421612027567 -2.4878372385994396)"><path d="M1.44 -0.48 C324.4 -3.25, 651.25 -5.22, 897.92 -3.83 M-0.74 0.56 C216.41 -0.05, 434.72 -1.02, 899.42 -5.54" stroke="#1e1e1e" stroke-width="4" fill="none"></path></g></g><mask></mask><g stroke-linecap="round" transform="translate(1403.7803863568515 107.71635079994769) rotate(0 445.66931540888424 293.1810212017645)"><path d="M-0.63 1.13 C279.96 -0.63, 560.95 -1.78, 890.2 0.65 M-0.76 0.57 C219.97 -0.32, 438.01 -0.1, 891.11 0.65 M892.51 -0.12 C889.79 207.83, 888.48 413.56, 890.84 584.88 M892.03 -0.26 C889.27 124.45, 890.74 249.14, 891.77 586.2 M890.64 586.8 C568.62 588.87, 243.63 589.76, 0.9 585.08 M891.29 586.71 C555.52 579.14, 220.59 580.19, -0.37 585.89 M0.07 585.45 C-2.09 356.6, -3.66 127.23, -0.84 0.04 M0.01 586.67 C5.24 404.06, 5.21 223.69, 0.38 0.08" stroke="#1e1e1e" stroke-width="4" fill="none"></path></g><g stroke-linecap="round"><g transform="translate(1709.0333421163614 105.27432715387147) rotate(0 -1.5026687880598502 295.33638367771135)"><path d="M-0.96 1.2 C-2.78 191.81, -3.05 384.16, -0.93 590.16 M0.6 0.52 C-5.21 184.32, -4.73 367.81, 0.36 588.47" stroke="#1e1e1e" stroke-width="4" fill="none"></path></g></g><mask></mask><g stroke-linecap="round"><g transform="translate(2021.6123688140992 107.71635079994769) rotate(0 -1.4682097389307955 288.79558661704533)"><path d="M-0.89 0.05 C-4.82 214.37, -5.46 428.7, -2.25 575.44 M-0.72 0.74 C2.35 214.84, 2.1 427.96, -1.97 577.54" stroke="#1e1e1e" stroke-width="4" fill="none"></path></g></g><mask></mask><g stroke-linecap="round"><g transform="translate(1406.2224100029275 193.18717841261025) rotate(0 449.334093710361 -3.4873659378590105)"><path d="M-1.14 0.65 C336.2 -0.78, 674.28 -5.4, 899.8 -3.68 M-0.22 0.65 C328.12 -8.83, 655.82 -9.62, 898.6 -4.48" stroke="#1e1e1e" stroke-width="4" fill="none"></path></g></g><mask></mask><g stroke-linecap="round"><g transform="translate(1403.499936956382 284.10398503534964) rotate(0 449.4179989780765 -2.9916405769727703)"><path d="M-0.86 1.28 C272.61 -5.91, 545.96 -4.67, 899.7 -6.32 M0.43 -0.4 C353.18 -7.18, 705.34 -9.28, 898.95 -5.14" stroke="#1e1e1e" stroke-width="4" fill="none"></path></g></g><mask></mask><g stroke-linecap="round"><g transform="translate(1405.941960602458 359.806718063708) rotate(0 450.1660567726474 -3.32176938649161)"><path d="M0.19 -1.52 C307.19 -6.21, 613.12 -10.52, 900.14 -5.33 M0.48 0.59 C342.7 2.15, 685.83 -0.37, 898.19 -5.13" stroke="#1e1e1e" stroke-width="4" fill="none"></path></g></g><mask></mask><g stroke-linecap="round"><g transform="translate(1408.383984248534 452.603616614599) rotate(0 449.9528275511692 -2.163095393164042)"><path d="M1.14 1.21 C342.51 3.52, 684.43 2.65, 899.97 -4.03 M-0.06 0.4 C224.78 -6.74, 448.53 -7.96, 897.92 -5.59" stroke="#1e1e1e" stroke-width="4" fill="none"></path></g></g><mask></mask><g stroke-linecap="round"><g transform="translate(1408.383984248534 530.7483732890335) rotate(0 449.3595071035902 -3.340243559438619)"><path d="M1.03 -1.44 C185.87 -6.88, 370.11 -6.58, 897.86 -3.93 M0.29 -0.25 C335.01 -5.7, 670.22 -7.98, 898.43 -5.32" stroke="#1e1e1e" stroke-width="4" fill="none"></path></g></g><mask></mask><g transform="translate(114.02437542447103 122.33308771949964) rotate(0 63.36000061035156 22.5)"><text x="63.36000061035156" y="0" font-family="Virgil, Segoe UI Emoji" font-size="36px" fill="#1e1e1e" text-anchor="middle" style="white-space: pre;" direction="ltr" dominant-baseline="text-before-edge">emp_no</text></g><g transform="translate(378.5498778513477 124.77511136557575) rotate(0 96.89399719238281 22.5)"><text x="96.89399719238281" y="0" font-family="Virgil, Segoe UI Emoji" font-size="36px" fill="#1e1e1e" text-anchor="middle" style="white-space: pre;" direction="ltr" dominant-baseline="text-before-edge">first_name</text></g><g transform="translate(758.6466891632949 119.65915865772786) rotate(0 7.3979997634887695 22.5)"><text x="7.3979997634887695" y="0" font-family="Virgil, Segoe UI Emoji" font-size="36px" fill="#1e1e1e" text-anchor="middle" style="white-space: pre;" direction="ltr" dominant-baseline="text-before-edge">-</text></g><g transform="translate(756.2046655172187 197.51403356254286) rotate(0 7.3979997634887695 22.5)"><text x="7.3979997634887695" y="0" font-family="Virgil, Segoe UI Emoji" font-size="36px" fill="#1e1e1e" text-anchor="middle" style="white-space: pre;" direction="ltr" dominant-baseline="text-before-edge">-</text></g><g transform="translate(758.6466891632949 282.9848611752054) rotate(0 7.3979997634887695 22.5)"><text x="7.3979997634887695" y="0" font-family="Virgil, Segoe UI Emoji" font-size="36px" fill="#1e1e1e" text-anchor="middle" style="white-space: pre;" direction="ltr" dominant-baseline="text-before-edge">-</text></g><g transform="translate(758.6466891632949 366.013665141792) rotate(0 7.3979997634887695 22.5)"><text x="7.3979997634887695" y="0" font-family="Virgil, Segoe UI Emoji" font-size="36px" fill="#1e1e1e" text-anchor="middle" style="white-space: pre;" direction="ltr" dominant-baseline="text-before-edge">-</text></g><g transform="translate(756.2046655172187 451.484492754455) rotate(0 7.3979997634887695 22.5)"><text x="7.3979997634887695" y="0" font-family="Virgil, Segoe UI Emoji" font-size="36px" fill="#1e1e1e" text-anchor="middle" style="white-space: pre;" direction="ltr" dominant-baseline="text-before-edge">-</text></g><g transform="translate(763.5307364554469 541.8393676592698) rotate(0 7.3979997634887695 22.5)"><text x="7.3979997634887695" y="0" font-family="Virgil, Segoe UI Emoji" font-size="36px" fill="#1e1e1e" text-anchor="middle" style="white-space: pre;" direction="ltr" dominant-baseline="text-before-edge">-</text></g><g transform="translate(2145.592899204429 118.36630943381147) rotate(0 7.397999763488883 22.5)"><text x="7.3979997634887695" y="0" font-family="Virgil, Segoe UI Emoji" font-size="36px" fill="#1e1e1e" text-anchor="middle" style="white-space: pre;" direction="ltr" dominant-baseline="text-before-edge">-</text></g><g transform="translate(2148.0349228505047 206.27916069255036) rotate(0 7.3979997634887695 22.5)"><text x="7.3979997634887695" y="0" font-family="Virgil, Segoe UI Emoji" font-size="36px" fill="#1e1e1e" text-anchor="middle" style="white-space: pre;" direction="ltr" dominant-baseline="text-before-edge">-</text></g><g transform="translate(2145.592899204429 289.3079646591369) rotate(0 7.397999763488883 22.5)"><text x="7.3979997634887695" y="0" font-family="Virgil, Segoe UI Emoji" font-size="36px" fill="#1e1e1e" text-anchor="middle" style="white-space: pre;" direction="ltr" dominant-baseline="text-before-edge">-</text></g><g transform="translate(2140.708851912277 374.7787922717997) rotate(0 7.397999763488883 22.5)"><text x="7.3979997634887695" y="0" font-family="Virgil, Segoe UI Emoji" font-size="36px" fill="#1e1e1e" text-anchor="middle" style="white-space: pre;" direction="ltr" dominant-baseline="text-before-edge">-</text></g><g transform="translate(2143.1508755583527 457.8075962383863) rotate(0 7.397999763488883 22.5)"><text x="7.3979997634887695" y="0" font-family="Virgil, Segoe UI Emoji" font-size="36px" fill="#1e1e1e" text-anchor="middle" style="white-space: pre;" direction="ltr" dominant-baseline="text-before-edge">-</text></g><g transform="translate(2140.708851912277 540.8364002049731) rotate(0 7.397999763488883 22.5)"><text x="7.3979997634887695" y="0" font-family="Virgil, Segoe UI Emoji" font-size="36px" fill="#1e1e1e" text-anchor="middle" style="white-space: pre;" direction="ltr" dominant-baseline="text-before-edge">-</text></g><g transform="translate(145.6088962484962 210.24593897823843) rotate(0 22.139999389648438 22.5)"><text x="22.139999389648438" y="0" font-family="Virgil, Segoe UI Emoji" font-size="36px" fill="#1e1e1e" text-anchor="middle" style="white-space: pre;" direction="ltr" dominant-baseline="text-before-edge">101</text></g><g transform="translate(140.1129201692304 290.3109321134335) rotate(0 30.077999114990234 22.5)"><text x="30.077999114990234" y="0" font-family="Virgil, Segoe UI Emoji" font-size="36px" fill="#1e1e1e" text-anchor="middle" style="white-space: pre;" direction="ltr" dominant-baseline="text-before-edge">102</text></g><g transform="translate(138.22889518038096 373.3397360800203) rotate(0 29.520000457763672 22.5)"><text x="29.520000457763672" y="0" font-family="Virgil, Segoe UI Emoji" font-size="36px" fill="#1e1e1e" text-anchor="middle" style="white-space: pre;" direction="ltr" dominant-baseline="text-before-edge">103</text></g><g transform="translate(136.52487240405583 461.2525873387591) rotate(0 28.781999588012695 22.5)"><text x="28.781999588012695" y="0" font-family="Virgil, Segoe UI Emoji" font-size="36px" fill="#1e1e1e" text-anchor="middle" style="white-space: pre;" direction="ltr" dominant-baseline="text-before-edge">104</text></g><g transform="translate(141.80492151200383 544.2813913053458) rotate(0 28.385997772216797 22.5)"><text x="28.385997772216797" y="0" font-family="Virgil, Segoe UI Emoji" font-size="36px" fill="#1e1e1e" text-anchor="middle" style="white-space: pre;" direction="ltr" dominant-baseline="text-before-edge">105</text></g><g transform="translate(453.8677808485252 217.57200991646664) rotate(0 11.807999610900879 22.5)"><text x="11.807999610900879" y="0" font-family="Virgil, Segoe UI Emoji" font-size="36px" fill="#1e1e1e" text-anchor="middle" style="white-space: pre;" direction="ltr" dominant-baseline="text-before-edge">A</text></g><g transform="translate(447.7779212681294 461.38865815093266) rotate(0 13.086000442504883 22.5)"><text x="13.086000442504883" y="0" font-family="Virgil, Segoe UI Emoji" font-size="36px" fill="#1e1e1e" text-anchor="middle" style="white-space: pre;" direction="ltr" dominant-baseline="text-before-edge">B</text></g><g transform="translate(442.1624163948568 551.6713445123873) rotate(0 11.592000007629395 22.5)"><text x="11.592000007629395" y="0" font-family="Virgil, Segoe UI Emoji" font-size="36px" fill="#1e1e1e" text-anchor="middle" style="white-space: pre;" direction="ltr" dominant-baseline="text-before-edge">C</text></g><g transform="translate(449.04937976477663 379.046711559099) rotate(0 14.039999961853027 22.5)"><text x="14.039999961853027" y="0" font-family="Virgil, Segoe UI Emoji" font-size="36px" fill="#1e1e1e" text-anchor="middle" style="white-space: pre;" direction="ltr" dominant-baseline="text-before-edge">D</text></g><g transform="translate(450.957379757147 293.6728461461372) rotate(0 12.131999969482422 22.5)"><text x="12.131999969482422" y="0" font-family="Virgil, Segoe UI Emoji" font-size="36px" fill="#1e1e1e" text-anchor="middle" style="white-space: pre;" direction="ltr" dominant-baseline="text-before-edge">E</text></g><g transform="translate(1530.1130826435524 203.83713704647414) rotate(0 22.139999389648438 22.5)"><text x="22.139999389648438" y="0" font-family="Virgil, Segoe UI Emoji" font-size="36px" fill="#1e1e1e" text-anchor="middle" style="white-space: pre;" direction="ltr" dominant-baseline="text-before-edge">101</text></g><g transform="translate(1514.8490119799826 286.86594101306093) rotate(0 30.077999114990234 22.5)"><text x="30.077999114990234" y="0" font-family="Virgil, Segoe UI Emoji" font-size="36px" fill="#1e1e1e" text-anchor="middle" style="white-space: pre;" direction="ltr" dominant-baseline="text-before-edge">102</text></g><g transform="translate(1519.7330592721346 374.7787922717997) rotate(0 30.077999114990234 22.5)"><text x="30.077999114990234" y="0" font-family="Virgil, Segoe UI Emoji" font-size="36px" fill="#1e1e1e" text-anchor="middle" style="white-space: pre;" direction="ltr" dominant-baseline="text-before-edge">102</text></g><g transform="translate(1522.7330815754376 465.1336671766147) rotate(0 29.520000457763672 22.5)"><text x="29.520000457763672" y="0" font-family="Virgil, Segoe UI Emoji" font-size="36px" fill="#1e1e1e" text-anchor="middle" style="white-space: pre;" direction="ltr" dominant-baseline="text-before-edge">103</text></g><g transform="translate(1523.4710824451881 550.6044947892773) rotate(0 28.781999588012695 22.5)"><text x="28.781999588012695" y="0" font-family="Virgil, Segoe UI Emoji" font-size="36px" fill="#1e1e1e" text-anchor="middle" style="white-space: pre;" direction="ltr" dominant-baseline="text-before-edge">104</text></g><g transform="translate(1479.1249868385448 133.54023849558314) rotate(0 63.36000061035156 22.5)"><text x="63.36000061035156" y="0" font-family="Virgil, Segoe UI Emoji" font-size="36px" fill="#1e1e1e" text-anchor="middle" style="white-space: pre;" direction="ltr" dominant-baseline="text-before-edge">emp_no</text></g><g transform="translate(1802.8040343137068 138.42428578773547) rotate(0 54.702003479003906 22.5)"><text x="54.702003479003906" y="0" font-family="Virgil, Segoe UI Emoji" font-size="36px" fill="#1e1e1e" text-anchor="middle" style="white-space: pre;" direction="ltr" dominant-baseline="text-before-edge">salary</text></g><g transform="translate(338.99135037449014 10) rotate(0 82.7280044555664 22.5)"><text x="82.7280044555664" y="0" font-family="Virgil, Segoe UI Emoji" font-size="36px" fill="#1e1e1e" text-anchor="middle" style="white-space: pre;" direction="ltr" dominant-baseline="text-before-edge">employees</text></g><g transform="translate(1785.2420079210488 33.41726900646404) rotate(0 69.82200622558594 22.5)"><text x="69.82200622558594" y="0" font-family="Virgil, Segoe UI Emoji" font-size="36px" fill="#1e1e1e" text-anchor="middle" style="white-space: pre;" direction="ltr" dominant-baseline="text-before-edge">salaries</text></g><g transform="translate(1818.9680395932478 211.68499517001771) rotate(0 38.53799819946289 22.5)"><text x="38.53799819946289" y="0" font-family="Virgil, Segoe UI Emoji" font-size="36px" fill="#1e1e1e" text-anchor="middle" style="white-space: pre;" direction="ltr" dominant-baseline="text-before-edge">800</text></g><g transform="translate(1820.612014482328 289.3079646591369) rotate(0 34.45199966430664 22.5)"><text x="34.45199966430664" y="0" font-family="Virgil, Segoe UI Emoji" font-size="36px" fill="#1e1e1e" text-anchor="middle" style="white-space: pre;" direction="ltr" dominant-baseline="text-before-edge">700</text></g><g transform="translate(1816.8919909583224 377.2208159178757) rotate(0 35.72999954223633 22.5)"><text x="35.72999954223633" y="0" font-family="Virgil, Segoe UI Emoji" font-size="36px" fill="#1e1e1e" text-anchor="middle" style="white-space: pre;" direction="ltr" dominant-baseline="text-before-edge">900</text></g><g transform="translate(1819.9220381589216 465.1336671766145) rotate(0 37.58399963378906 22.5)"><text x="37.58399963378906" y="0" font-family="Virgil, Segoe UI Emoji" font-size="36px" fill="#1e1e1e" text-anchor="middle" style="white-space: pre;" direction="ltr" dominant-baseline="text-before-edge">200</text></g><g transform="translate(1820.3600863055658 548.1624711432013) rotate(0 42.029998779296875 22.5)"><text x="42.029998779296875" y="0" font-family="Virgil, Segoe UI Emoji" font-size="36px" fill="#1e1e1e" text-anchor="middle" style="white-space: pre;" direction="ltr" dominant-baseline="text-before-edge">1000</text></g><g stroke-linecap="round"><g transform="translate(1402.521536720059 615.134485641491) rotate(0 449.7949173330794 -4.455539543145321)"><path d="M1.4 -1.14 C348.47 -9.67, 695.72 -11.37, 899.98 -4.74 M-0.39 -0.66 C330.56 0.76, 660.29 -0.67, 899.08 -4.25" stroke="#1e1e1e" stroke-width="4" fill="none"></path></g></g><mask></mask><g transform="translate(1527.8589786595248 630.7585869944973) rotate(0 28.385997772216797 22.5)"><text x="28.385997772216797" y="0" font-family="Virgil, Segoe UI Emoji" font-size="36px" fill="#1e1e1e" text-anchor="middle" style="white-space: pre;" direction="ltr" dominant-baseline="text-before-edge">105</text></g><g transform="translate(1828.431541493791 626.0189167890654) rotate(0 35.891998291015625 22.5)"><text x="35.891998291015625" y="0" font-family="Virgil, Segoe UI Emoji" font-size="36px" fill="#1e1e1e" text-anchor="middle" style="white-space: pre;" direction="ltr" dominant-baseline="text-before-edge">500</text></g><g transform="translate(2134.1962470390786 630.758586994497) rotate(0 7.3979997634887695 22.5)"><text x="7.3979997634887695" y="0" font-family="Virgil, Segoe UI Emoji" font-size="36px" fill="#1e1e1e" text-anchor="middle" style="white-space: pre;" direction="ltr" dominant-baseline="text-before-edge">-</text></g><g stroke-linecap="round"><g transform="translate(915.4505051183656 310.35400363638496) rotate(0 244.42786071520084 4.078261260858426)"><path d="M0.01 -0.88 C125.44 -0.31, 248.33 2.18, 488.84 8.57 M0.24 0.48 C108.44 2.44, 216.79 3.99, 486.42 9.04" stroke="#1e1e1e" stroke-width="4" fill="none"></path></g><g transform="translate(915.4505051183656 310.35400363638496) rotate(0 244.42786071520084 4.078261260858426)"><path d="M458.08 16.69 C466.76 14.64, 469.26 12.57, 490.36 8.07 M458.62 19.93 C464.06 16.85, 469.63 13.6, 484.62 9.18" stroke="#1e1e1e" stroke-width="4" fill="none"></path></g><g transform="translate(915.4505051183656 310.35400363638496) rotate(0 244.42786071520084 4.078261260858426)"><path d="M458.46 -3.83 C466.86 -0.62, 469.27 2.58, 490.36 8.07 M458.99 -0.59 C464.13 0.9, 469.62 2.23, 484.62 9.18" stroke="#1e1e1e" stroke-width="4" fill="none"></path></g></g><mask></mask><g stroke-linecap="round"><g transform="translate(913.2054292402978 312.5990795144529) rotate(0 245.26294743463558 47.186764701831976)"><path d="M0.51 -0.89 C181.57 34.2, 362.97 70.42, 490.36 95.26 M0.17 -0.59 C163.45 29.39, 325.01 60.32, 488.94 94.75" stroke="#1e1e1e" stroke-width="4" fill="none"></path></g><g transform="translate(913.2054292402978 312.5990795144529) rotate(0 245.26294743463558 47.186764701831976)"><path d="M460.52 96.93 C470.99 96.95, 481.84 98.44, 491.25 97.16 M459.68 97.67 C469.92 97.24, 477.44 94.85, 487.73 95.87" stroke="#1e1e1e" stroke-width="4" fill="none"></path></g><g transform="translate(913.2054292402978 312.5990795144529) rotate(0 245.26294743463558 47.186764701831976)"><path d="M464.64 76.82 C473.49 84.31, 482.81 93.25, 491.25 97.16 M463.8 77.57 C472.99 83.85, 479.14 88.13, 487.73 95.87" stroke="#1e1e1e" stroke-width="4" fill="none"></path></g></g><mask></mask><g stroke-linecap="round"><g transform="translate(915.4505051183656 391.1767352468295) rotate(0 244.20217472828756 51.12367681608586)"><path d="M-1.28 0.05 C118.63 24.29, 236.1 49.69, 489.68 102.2 M0.14 0.42 C107.9 20.91, 214.71 41.73, 489.05 101.16" stroke="#1e1e1e" stroke-width="4" fill="none"></path></g><g transform="translate(915.4505051183656 391.1767352468295) rotate(0 244.20217472828756 51.12367681608586)"><path d="M456.14 105.42 C468.2 100.92, 475.71 102.89, 489.69 104.09 M459.68 106.36 C466.88 105.8, 470.77 101.27, 488.11 101.5" stroke="#1e1e1e" stroke-width="4" fill="none"></path></g><g transform="translate(915.4505051183656 391.1767352468295) rotate(0 244.20217472828756 51.12367681608586)"><path d="M460.44 85.36 C471.76 85.63, 478.25 92.41, 489.69 104.09 M463.97 86.29 C470.04 90.2, 472.99 90.09, 488.11 101.5" stroke="#1e1e1e" stroke-width="4" fill="none"></path></g></g><mask></mask><g stroke-linecap="round"><g transform="translate(910.96035336223 474.24454273534184) rotate(0 248.96808974592778 52.213574881733564)"><path d="M-0.82 -1.45 C108.54 19.6, 216.36 42.93, 498 105.57 M0.39 0.74 C129.15 31, 257.52 58.17, 498.76 105.88" stroke="#1e1e1e" stroke-width="4" fill="none"></path></g><g transform="translate(910.96035336223 474.24454273534184) rotate(0 248.96808974592778 52.213574881733564)"><path d="M467.05 106.76 C475.74 110.6, 481.81 110.83, 497.75 106.02 M470.07 112.25 C477.67 111.46, 482.89 109.75, 499.63 106.79" stroke="#1e1e1e" stroke-width="4" fill="none"></path></g><g transform="translate(910.96035336223 474.24454273534184) rotate(0 248.96808974592778 52.213574881733564)"><path d="M471.08 86.64 C479.13 94.92, 484.33 99.5, 497.75 106.02 M474.1 92.13 C480.4 96.5, 484.58 100.01, 499.63 106.79" stroke="#1e1e1e" stroke-width="4" fill="none"></path></g></g><mask></mask><g stroke-linecap="round"><g transform="translate(910.96035336223 564.0475778580578) rotate(0 244.575177845108 45.56696065077041)"><path d="M-0.79 0.24 C151.87 25.4, 304.9 52.86, 489.94 91.02 M0.58 0.11 C106.96 20.3, 212.96 38.8, 489.55 89.52" stroke="#1e1e1e" stroke-width="4" fill="none"></path></g><g transform="translate(910.96035336223 564.0475778580578) rotate(0 244.575177845108 45.56696065077041)"><path d="M458.02 95.14 C465.51 93.85, 475.32 90.86, 490.83 92.54 M461.41 94.82 C467.61 95.19, 471.13 91.17, 489.87 88.81" stroke="#1e1e1e" stroke-width="4" fill="none"></path></g><g transform="translate(910.96035336223 564.0475778580578) rotate(0 244.575177845108 45.56696065077041)"><path d="M461.7 74.95 C468.34 80.03, 477 83.33, 490.83 92.54 M465.1 74.63 C470.12 79.42, 472.82 79.83, 489.87 88.81" stroke="#1e1e1e" stroke-width="4" fill="none"></path></g></g><mask></mask><g stroke-linecap="round" transform="translate(885.5412873847341 893.6042992209857) rotate(0 683.0285058124234 358.10372247787024)"><path d="M0.03 -0.79 C370.26 -6.41, 741.69 -7.08, 1366.13 1.59 M0.62 -0.36 C389.41 -5.18, 779.1 -5.85, 1366.84 0.35 M1366.94 -1.47 C1361.77 284.19, 1360.47 567.18, 1365.97 716.32 M1366.77 -0.38 C1367.81 149.59, 1368.66 297.54, 1366.25 716.35 M1365.77 717.05 C929 710.24, 494.93 708.67, -0.21 717.14 M1365.3 716.04 C915.35 707.76, 464.51 708.76, -0.05 715.41 M1.04 716.67 C-5.3 527.55, -4.47 335.84, -0.11 1.27 M-0.49 716.23 C-4.85 444.37, -3.99 173.15, 0.02 -0.47" stroke="#1e1e1e" stroke-width="4" fill="none"></path></g><g transform="translate(2038.8971520608088 932.5037451131504) rotate(0 86.8499984741211 22.5)"><text x="86.8499984741211" y="0" font-family="Virgil, Segoe UI Emoji" font-size="36px" fill="#1e1e1e" text-anchor="middle" style="white-space: pre;" direction="ltr" dominant-baseline="text-before-edge">임시 테이블</text></g><g stroke-linecap="round" transform="translate(983.4263074843358 1022.4944213702306) rotate(0 578.3850719821523 257.6334946610262)"><path d="M0.75 0.82 C325.4 2.46, 647.3 4.04, 1156.43 -1 M-0.05 0.22 C360.66 -0.72, 721.68 -0.7, 1156.43 0.4 M1157.02 -0.87 C1157.27 203.27, 1155.9 407.92, 1155.35 516.25 M1157.12 0.12 C1157.07 206.16, 1156.07 411.08, 1157.2 514.6 M1155.62 515.73 C871.81 516.04, 588.14 516.76, -1.04 516.45 M1157.33 515.25 C909.34 508.48, 662.69 509.73, 0.73 515.99 M-0.37 514.64 C3.45 346.88, 2 181.57, 0.85 1.33 M-0.74 514.61 C-0.22 357.54, -0.36 200.39, 0.45 0.68" stroke="#1e1e1e" stroke-width="4" fill="none"></path></g><g stroke-linecap="round"><g transform="translate(1288.6792632438455 1020.0523977241544) rotate(0 -0.5422650437751599 260.6613001123197)"><path d="M1.16 -0.14 C0.11 142.86, 0.28 281.83, -2.25 521.46 M-0.55 -0.01 C-1.76 160.09, -2.12 320.54, -1.66 519.96" stroke="#1e1e1e" stroke-width="4" fill="none"></path></g></g><mask></mask><g stroke-linecap="round"><g transform="translate(1603.5464926411223 1022.4944213702306) rotate(0 -1.2475574477130067 258.92553072685274)"><path d="M-1.18 1.44 C1.81 180.9, 1.49 365.11, -2.32 517.6 M-0.74 0.02 C-4 169.83, -3.68 338.67, -2.46 517.83" stroke="#1e1e1e" stroke-width="4" fill="none"></path></g></g><mask></mask><g stroke-linecap="round"><g transform="translate(985.8683311304118 1107.9652489828932) rotate(0 574.0859445414266 -5.647735168443518)"><path d="M-0.34 -1 C334.57 -9.7, 668.83 -13.87, 1148.52 -10.57 M-0.34 0.4 C344.33 -3.23, 687.01 -5.74, 1147.64 -8.71" stroke="#1e1e1e" stroke-width="4" fill="none"></path></g></g><mask></mask><g stroke-linecap="round"><g transform="translate(983.1458580838663 1198.8820556056326) rotate(0 574.1308798151781 -4.784470601192567)"><path d="M0.2 1.31 C447.79 1.93, 895.74 -2.76, 1148.07 -10.94 M0.78 -0.19 C347.01 -7.34, 693.59 -9.57, 1147.35 -9.4" stroke="#1e1e1e" stroke-width="4" fill="none"></path></g></g><mask></mask><g stroke-linecap="round"><g transform="translate(985.5878817299423 1274.584788633991) rotate(0 575.1938351396625 -1.5019461567048324)"><path d="M0.12 -0.11 C273.85 -8.18, 546.81 -8.08, 1150.4 1.29 M-0.02 0.12 C402.35 3.68, 804.82 3.69, 1149.6 1.27" stroke="#1e1e1e" stroke-width="4" fill="none"></path></g></g><mask></mask><g stroke-linecap="round"><g transform="translate(988.0299053760183 1367.381687184882) rotate(0 571.9350148793206 -2.815732943761475)"><path d="M0.44 -1.11 C436.82 -3.61, 873.71 -5.57, 1144.3 -5.62 M-0.43 0.75 C314.54 -3.33, 629.78 -6.08, 1143.99 -6.38" stroke="#1e1e1e" stroke-width="4" fill="none"></path></g></g><mask></mask><g stroke-linecap="round"><g transform="translate(988.0299053760183 1445.5264438593163) rotate(0 571.3459414601225 -3.0351067237900224)"><path d="M-0.01 -1.48 C335.56 4.2, 671.86 5.01, 1143.11 -4.91 M-0.73 0.07 C360.04 -10.85, 722.1 -10.9, 1143.42 -4.17" stroke="#1e1e1e" stroke-width="4" fill="none"></path></g></g><mask></mask><g transform="translate(1085.991300619531 1044.4726341849153) rotate(0 63.36000061035156 22.5)"><text x="63.36000061035156" y="0" font-family="Virgil, Segoe UI Emoji" font-size="36px" fill="#1e1e1e" text-anchor="middle" style="white-space: pre;" direction="ltr" dominant-baseline="text-before-edge">emp_no</text></g><g transform="translate(1350.5168030464079 1046.9146578309912) rotate(0 96.89399719238281 22.5)"><text x="96.89399719238281" y="0" font-family="Virgil, Segoe UI Emoji" font-size="36px" fill="#1e1e1e" text-anchor="middle" style="white-space: pre;" direction="ltr" dominant-baseline="text-before-edge">first_name</text></g><g transform="translate(2055.5383976929083 1046.3751105222216) rotate(0 7.3979997634887695 22.5)"><text x="7.3979997634887695" y="0" font-family="Virgil, Segoe UI Emoji" font-size="36px" fill="#1e1e1e" text-anchor="middle" style="white-space: pre;" direction="ltr" dominant-baseline="text-before-edge">-</text></g><g transform="translate(2053.0963740468324 1124.2299854270366) rotate(0 7.3979997634887695 22.5)"><text x="7.3979997634887695" y="0" font-family="Virgil, Segoe UI Emoji" font-size="36px" fill="#1e1e1e" text-anchor="middle" style="white-space: pre;" direction="ltr" dominant-baseline="text-before-edge">-</text></g><g transform="translate(2055.5383976929083 1209.7008130396991) rotate(0 7.3979997634887695 22.5)"><text x="7.3979997634887695" y="0" font-family="Virgil, Segoe UI Emoji" font-size="36px" fill="#1e1e1e" text-anchor="middle" style="white-space: pre;" direction="ltr" dominant-baseline="text-before-edge">-</text></g><g transform="translate(2055.5383976929083 1292.7296170062857) rotate(0 7.3979997634887695 22.50000000000003)"><text x="7.3979997634887695" y="0" font-family="Virgil, Segoe UI Emoji" font-size="36px" fill="#1e1e1e" text-anchor="middle" style="white-space: pre;" direction="ltr" dominant-baseline="text-before-edge">-</text></g><g transform="translate(2053.0963740468324 1378.2004446189487) rotate(0 7.3979997634887695 22.5)"><text x="7.3979997634887695" y="0" font-family="Virgil, Segoe UI Emoji" font-size="36px" fill="#1e1e1e" text-anchor="middle" style="white-space: pre;" direction="ltr" dominant-baseline="text-before-edge">-</text></g><g transform="translate(2060.4224449850603 1468.5553195237635) rotate(0 7.3979997634887695 22.5)"><text x="7.3979997634887695" y="0" font-family="Virgil, Segoe UI Emoji" font-size="36px" fill="#1e1e1e" text-anchor="middle" style="white-space: pre;" direction="ltr" dominant-baseline="text-before-edge">-</text></g><g transform="translate(1112.0798453642906 1212.450478578849) rotate(0 30.077999114990234 22.5)"><text x="30.077999114990234" y="0" font-family="Virgil, Segoe UI Emoji" font-size="36px" fill="#1e1e1e" text-anchor="middle" style="white-space: pre;" direction="ltr" dominant-baseline="text-before-edge">102</text></g><g transform="translate(1110.1958203754411 1295.4792825454358) rotate(0 29.520000457763672 22.49999999999997)"><text x="29.520000457763672" y="0" font-family="Virgil, Segoe UI Emoji" font-size="36px" fill="#1e1e1e" text-anchor="middle" style="white-space: pre;" direction="ltr" dominant-baseline="text-before-edge">103</text></g><g transform="translate(1108.4917975991161 1383.3921338041746) rotate(0 28.781999588012695 22.5)"><text x="28.781999588012695" y="0" font-family="Virgil, Segoe UI Emoji" font-size="36px" fill="#1e1e1e" text-anchor="middle" style="white-space: pre;" direction="ltr" dominant-baseline="text-before-edge">104</text></g><g transform="translate(1113.771846707064 1466.4209377707614) rotate(0 28.385997772216797 22.5)"><text x="28.385997772216797" y="0" font-family="Virgil, Segoe UI Emoji" font-size="36px" fill="#1e1e1e" text-anchor="middle" style="white-space: pre;" direction="ltr" dominant-baseline="text-before-edge">105</text></g><g transform="translate(1419.7448464631893 1383.5282046163481) rotate(0 13.086000442504883 22.5)"><text x="13.086000442504883" y="0" font-family="Virgil, Segoe UI Emoji" font-size="36px" fill="#1e1e1e" text-anchor="middle" style="white-space: pre;" direction="ltr" dominant-baseline="text-before-edge">B</text></g><g transform="translate(1414.1293415899167 1473.810890977803) rotate(0 11.592000007629395 22.5)"><text x="11.592000007629395" y="0" font-family="Virgil, Segoe UI Emoji" font-size="36px" fill="#1e1e1e" text-anchor="middle" style="white-space: pre;" direction="ltr" dominant-baseline="text-before-edge">C</text></g><g transform="translate(1421.0163049598368 1301.1862580245145) rotate(0 14.039999961853027 22.49999999999997)"><text x="14.039999961853027" y="0" font-family="Virgil, Segoe UI Emoji" font-size="36px" fill="#1e1e1e" text-anchor="middle" style="white-space: pre;" direction="ltr" dominant-baseline="text-before-edge">D</text></g><g transform="translate(1422.924304952207 1215.8123926115527) rotate(0 12.131999969482422 22.5)"><text x="12.131999969482422" y="0" font-family="Virgil, Segoe UI Emoji" font-size="36px" fill="#1e1e1e" text-anchor="middle" style="white-space: pre;" direction="ltr" dominant-baseline="text-before-edge">E</text></g><g stroke-linecap="round"><g transform="translate(1916.4800596250443 1021.3850247162409) rotate(0 -0.7227377988346007 258.3312996704308)"><path d="M1.6 -1.2 C-1.35 204.43, -3.37 407.57, -2.62 517.87 M-0.32 0.51 C-0.08 127.05, -1.37 253.47, -3.05 517.68" stroke="#1e1e1e" stroke-width="4" fill="none"></path></g></g><mask></mask><g transform="translate(1700.35630973059 1052.912685834593) rotate(0 54.702003479003906 22.5)"><text x="54.702003479003906" y="0" font-family="Virgil, Segoe UI Emoji" font-size="36px" fill="#1e1e1e" text-anchor="middle" style="white-space: pre;" direction="ltr" dominant-baseline="text-before-edge">salary</text></g><g transform="translate(1718.1642898992118 1121.4210675225868) rotate(0 34.45199966430664 22.5)"><text x="34.45199966430664" y="0" font-family="Virgil, Segoe UI Emoji" font-size="36px" fill="#1e1e1e" text-anchor="middle" style="white-space: pre;" direction="ltr" dominant-baseline="text-before-edge">700</text></g><g transform="translate(1714.4442663752056 1209.3339187813256) rotate(0 35.72999954223633 22.5)"><text x="35.72999954223633" y="0" font-family="Virgil, Segoe UI Emoji" font-size="36px" fill="#1e1e1e" text-anchor="middle" style="white-space: pre;" direction="ltr" dominant-baseline="text-before-edge">900</text></g><g transform="translate(1717.474313575805 1297.2467700400643) rotate(0 37.58399963378906 22.5)"><text x="37.58399963378906" y="0" font-family="Virgil, Segoe UI Emoji" font-size="36px" fill="#1e1e1e" text-anchor="middle" style="white-space: pre;" direction="ltr" dominant-baseline="text-before-edge">200</text></g><g transform="translate(1717.912361722449 1380.2755740066511) rotate(0 42.029998779296875 22.5)"><text x="42.029998779296875" y="0" font-family="Virgil, Segoe UI Emoji" font-size="36px" fill="#1e1e1e" text-anchor="middle" style="white-space: pre;" direction="ltr" dominant-baseline="text-before-edge">1000</text></g><g transform="translate(1725.9838169106747 1458.1320196525153) rotate(0 35.891998291015625 22.5)"><text x="35.891998291015625" y="0" font-family="Virgil, Segoe UI Emoji" font-size="36px" fill="#1e1e1e" text-anchor="middle" style="white-space: pre;" direction="ltr" dominant-baseline="text-before-edge">500</text></g><g transform="translate(1106.981516542941 1130.2784499520908) rotate(0 30.077999114990178 22.5)"><text x="30.077999114990234" y="0" font-family="Virgil, Segoe UI Emoji" font-size="36px" fill="#1e1e1e" text-anchor="middle" style="white-space: pre;" direction="ltr" dominant-baseline="text-before-edge">102</text></g><g transform="translate(1417.8259761308573 1133.6403639847945) rotate(0 12.131999969482422 22.5)"><text x="12.131999969482422" y="0" font-family="Virgil, Segoe UI Emoji" font-size="36px" fill="#1e1e1e" text-anchor="middle" style="white-space: pre;" direction="ltr" dominant-baseline="text-before-edge">E</text></g><g stroke-linecap="round"><g transform="translate(1835.1454076934629 692.242461661543) rotate(0 -3.009731305999253 154.36411249281386)"><path d="M-1.99 0.57 C-3.07 74.08, -8.26 142.88, -3.06 306.44 M-0.69 -1.2 C-5.29 106.45, -5.31 214.43, -4.14 309.93" stroke="#1971c2" stroke-width="4" fill="none"></path></g><g transform="translate(1835.1454076934629 692.242461661543) rotate(0 -3.009731305999253 154.36411249281386)"><path d="M-17.37 282.62 C-10.48 290.22, -13.73 291.31, -2.02 306.49 M-15.56 280.14 C-12.34 290.34, -6.53 301.17, -3.53 311.36" stroke="#1971c2" stroke-width="4" fill="none"></path></g><g transform="translate(1835.1454076934629 692.242461661543) rotate(0 -3.009731305999253 154.36411249281386)"><path d="M3.15 282.47 C5.21 290.17, -2.88 291.29, -2.02 306.49 M4.96 279.99 C1.06 290.47, -0.26 301.35, -3.53 311.36" stroke="#1971c2" stroke-width="4" fill="none"></path></g></g><mask></mask><g transform="translate(1866.4888152998415 756.312137248638) rotate(0 142.55999755859375 45)"><text x="142.55999755859375" y="0" font-family="Virgil, Segoe UI Emoji" font-size="36px" fill="#1971c2" text-anchor="middle" style="white-space: pre;" direction="ltr" dominant-baseline="text-before-edge">조인된 결과를</text><text x="142.55999755859375" y="45" font-family="Virgil, Segoe UI Emoji" font-size="36px" fill="#1971c2" text-anchor="middle" style="white-space: pre;" direction="ltr" dominant-baseline="text-before-edge">임시 테이블로 저장</text></g><g stroke-linecap="round" transform="translate(405.01872048152177 1083.525123282729) rotate(0 132.71575657326827 130.42755387372904)"><path d="M43.09 34.81 C43.09 34.81, 43.09 34.81, 43.09 34.81 M43.09 34.81 C43.09 34.81, 43.09 34.81, 43.09 34.81 M28.25 75.03 C45.22 61.01, 56.02 42.28, 84.54 13.39 M27.11 78.07 C46.14 56.15, 65.66 31.74, 81.33 13.29 M15.92 115.69 C43.15 80.62, 77.32 45.29, 105.76 10.91 M10.74 120.5 C35.61 91.53, 58.38 67.16, 108.95 6.31 M1.34 152.62 C50.3 97.49, 94.17 43, 128.56 7.3 M2.99 155.99 C45.53 102.9, 91.06 52.74, 129.96 8.04 M8.02 169.24 C49.68 131.73, 78.51 94.56, 153.65 7.53 M9.23 172.77 C55.87 119.69, 100.9 65.75, 150.2 8.11 M15.76 188.72 C65.69 136.59, 106.95 89.47, 173.85 5.85 M14.67 187.27 C73.91 122.75, 129.34 59.55, 171.59 9.39 M28.68 198.01 C71.73 154.97, 111.5 100.04, 188.41 18.16 M24.78 199.93 C70.15 150.17, 113.46 103.36, 185.96 16.07 M34.08 213.56 C86.11 156.97, 139.79 98.52, 199.37 21.48 M35.77 211.91 C87.08 152.42, 140.82 94.31, 202 23.26 M47.59 229.01 C78.1 185.29, 113.57 146.41, 216.25 34.15 M45.67 225.09 C91.58 172.88, 133.99 125.09, 213.28 31.28 M57.47 240.82 C118.26 169.99, 175.55 103.18, 229.24 44.36 M57.76 238.15 C113.6 170.16, 172.48 105.1, 228.75 42.29 M73.45 246.36 C114.04 196.82, 161.72 147.32, 239.11 54.05 M69.41 247.09 C129.07 179.9, 188.32 110.12, 241.23 52.49 M81.89 252.09 C131.2 197.35, 176.11 145.46, 248.48 63.71 M85.72 254.15 C122.28 216.63, 159.8 173.42, 249.75 65.11 M102.17 256.69 C155.93 197.77, 213.35 136.3, 254.24 79.85 M103.44 259.23 C151.11 206.42, 198.83 150.94, 258.68 82.25 M120.17 261.81 C152.67 223.44, 185.75 186.8, 265.77 93.83 M122.5 261.52 C170.75 206.68, 218.75 151.56, 268.38 91.93 M144.24 255.58 C186.02 210.68, 231.77 168.27, 270.03 111.73 M145.13 259.46 C186.74 212.18, 223.39 168.83, 270.14 117.07 M167.55 254.98 C209.8 209.32, 247.1 164.42, 274.89 138.89 M168.13 257.18 C203.17 220.12, 236.37 180.34, 271.49 136.31 M201.74 240.4 C218.02 231.31, 229.49 210.14, 261.74 172 M202.06 243.2 C224.84 220.35, 244.22 198.64, 261.14 175.91" stroke="#a5d8ff" stroke-width="2" fill="none"></path><path d="M42.87 35.07 C51.86 24.03, 66.06 16.14, 79.21 10.56 C92.36 4.99, 107.38 2.82, 121.74 1.6 C136.1 0.38, 151.85 -0.24, 165.36 3.22 C178.88 6.69, 190.89 14.71, 202.83 22.36 C214.76 30.02, 227.63 38.47, 236.96 49.16 C246.29 59.84, 254.35 73.08, 258.81 86.48 C263.27 99.89, 263.98 115.36, 263.71 129.59 C263.45 143.82, 261.36 158.69, 257.23 171.86 C253.09 185.04, 247.13 197.45, 238.93 208.63 C230.72 219.82, 220.04 230.83, 207.99 238.98 C195.95 247.12, 181.08 254, 166.68 257.49 C152.28 260.98, 136.22 261.05, 121.61 259.93 C107 258.81, 91.63 255.99, 79 250.75 C66.37 245.5, 56.16 238.1, 45.85 228.44 C35.53 218.77, 24.59 205.2, 17.11 192.75 C9.63 180.29, 3.45 167.41, 0.96 153.71 C-1.53 140, -0.28 124.74, 2.15 110.54 C4.59 96.34, 3.95 84.79, 15.56 68.52 C27.17 52.24, 56.72 23.68, 71.82 12.87 C86.91 2.06, 104.88 1.2, 106.1 3.63 M183.57 10.73 C196.72 13.6, 207.28 24.52, 217.95 33.25 C228.61 41.97, 240.48 51.15, 247.57 63.08 C254.67 75, 257.85 90.65, 260.51 104.8 C263.18 118.96, 265.58 133.59, 263.56 148.01 C261.54 162.42, 254.56 179.08, 248.39 191.29 C242.21 203.51, 236.39 211.73, 226.52 221.29 C216.64 230.86, 202.27 242.72, 189.15 248.7 C176.03 254.69, 161.69 255.77, 147.81 257.2 C133.94 258.63, 120.01 260, 105.92 257.29 C91.82 254.58, 75.99 248.64, 63.22 240.94 C50.45 233.24, 38.16 221.58, 29.3 211.09 C20.43 200.6, 15.38 190.78, 10.03 178.01 C4.67 165.24, -2.67 148.5, -2.83 134.47 C-2.98 120.44, 4.18 107.4, 9.1 93.86 C14.01 80.31, 18.46 64.64, 26.64 53.2 C34.82 41.76, 45.98 32.85, 58.16 25.21 C70.34 17.57, 86.01 11.21, 99.73 7.35 C113.45 3.48, 126.6 1.59, 140.48 2.01 C154.36 2.43, 176.3 8.19, 183.03 9.87 C189.75 11.55, 181.41 10.19, 180.82 12.1" stroke="#1e1e1e" stroke-width="4" fill="none"></path></g><g transform="translate(408.4562764914814 1186.4942447619887) rotate(0 126.98999786376953 22.5)"><text x="126.98999786376953" y="0" font-family="Virgil, Segoe UI Emoji" font-size="36px" fill="#1e1e1e" text-anchor="middle" style="white-space: pre;" direction="ltr" dominant-baseline="text-before-edge">임시 테이블 정렬</text></g><g stroke-linecap="round"><g transform="translate(871.8120711874993 1197.6251397836181) rotate(0 -90.67424336151339 2.3476628354424918)"><path d="M-0.22 2.64 C-39.7 0.29, -82.24 2.83, -180.78 5.9 M-0.32 0.58 C-43.59 -2.1, -84.67 -2.13, -181.13 3.11" stroke="#1e1e1e" stroke-width="4" fill="none"></path></g><g transform="translate(871.8120711874993 1197.6251397836181) rotate(0 -90.67424336151339 2.3476628354424918)"><path d="M-153.66 -5.79 C-157.61 -7.89, -164.64 -3.71, -181.31 4.53 M-153.76 -7.85 C-160.38 -6.71, -164.82 -5.04, -181.66 1.75" stroke="#1e1e1e" stroke-width="4" fill="none"></path></g><g transform="translate(871.8120711874993 1197.6251397836181) rotate(0 -90.67424336151339 2.3476628354424918)"><path d="M-152.72 14.71 C-156.96 7.85, -164.21 7.28, -181.31 4.53 M-152.82 12.65 C-159.68 8.87, -164.34 5.62, -181.66 1.75" stroke="#1e1e1e" stroke-width="4" fill="none"></path></g></g><mask></mask><g stroke-linecap="round"><g transform="translate(394.4331684356756 1221.9080790656162) rotate(0 -173.28491143432888 -0.44855010399763273)"><path d="M-0.25 2.51 C-89.22 -0.2, -178.81 -2.6, -343.45 -3.41 M0.18 -0.34 C-76.26 0.75, -153.3 -0.2, -346.75 -2.81" stroke="#1e1e1e" stroke-width="4" fill="none"></path></g><g transform="translate(394.4331684356756 1221.9080790656162) rotate(0 -173.28491143432888 -0.44855010399763273)"><path d="M-318.82 -8.88 C-326.4 -11.42, -334.68 -11.38, -343.32 -3.54 M-318.15 -13.22 C-323.7 -9.43, -330.03 -7.67, -348.34 -2.63" stroke="#1e1e1e" stroke-width="4" fill="none"></path></g><g transform="translate(394.4331684356756 1221.9080790656162) rotate(0 -173.28491143432888 -0.44855010399763273)"><path d="M-319.09 11.64 C-326.23 3.82, -334.44 -1.42, -343.32 -3.54 M-318.42 7.29 C-323.72 6.52, -330 3.7, -348.34 -2.63" stroke="#1e1e1e" stroke-width="4" fill="none"></path></g></g><mask></mask><g transform="translate(123.88510494544164 1151.593924473062) rotate(0 126.98999786376953 22.5)"><text x="126.98999786376953" y="0" font-family="Virgil, Segoe UI Emoji" font-size="36px" fill="#1e1e1e" text-anchor="middle" style="white-space: pre;" direction="ltr" dominant-baseline="text-before-edge">정렬된 결과 반환</text></g></svg>