<svg version="1.1" xmlns="http://www.w3.org/2000/svg" viewBox="0 0 2539.8235645659884 1509.2820465113227" width="5079.647129131977" height="3018.5640930226455">
  <!-- svg-source:excalidraw -->
  
  <defs>
    <style class="style-fonts">
      @font-face {
        font-family: "Virgil";
        src: url("https://excalidraw.com/Virgil.woff2");
      }
      @font-face {
        font-family: "Cascadia";
        src: url("https://excalidraw.com/Cascadia.woff2");
      }
    </style>
    
  </defs>
  <rect x="0" y="0" width="2539.8235645659884" height="1509.2820465113227" fill="#ffffff"></rect><g stroke-linecap="round" transform="translate(84.06188962737656 100.354874904815) rotate(0 445.6693154088842 257.6334946610262)"><path d="M-0.74 -0.51 C192.26 6.07, 380.94 7.38, 890.24 0.85 M-0.65 0.19 C218.07 -1.29, 436.2 0.12, 891.46 0.16 M890.86 1.17 C896.38 165.79, 894.59 327.57, 890.63 516.48 M891.15 0.04 C895.58 104.18, 896.05 209.41, 891.13 515.08 M891.21 516.3 C551.96 522.03, 213.95 519.25, 0.61 513.68 M891.11 515.9 C621.89 522.69, 354.12 522.69, -0.42 515.6 M-1.17 514.34 C2.35 336.74, 1.21 159.61, 0.8 -1.1 M0.73 515.3 C-3.77 329.44, -3.4 145.14, 0.59 0.62" stroke="#1e1e1e" stroke-width="4" fill="none"></path></g><g stroke-linecap="round"><g transform="translate(389.3148453868863 97.91285125873878) rotate(0 -1.468172050802849 260.13594937400285)"><path d="M-0.31 -0.24 C-2.72 118.47, -4.42 239.52, -2.99 519.95 M0.03 -0.37 C1.25 172.47, 0.47 345.99, -2.68 520.64" stroke="#1e1e1e" stroke-width="4" fill="none"></path></g></g><mask></mask><g stroke-linecap="round"><g transform="translate(701.8938720846241 100.354874904815) rotate(0 -0.8355213381298086 258.86570348890405)"><path d="M0.27 -0.71 C-2.72 140.43, -1.45 282.56, -1.53 517.78 M-0.22 -0.61 C-0.88 121.47, -0.21 241.72, -1.94 518.44" stroke="#1e1e1e" stroke-width="4" fill="none"></path></g></g><mask></mask><g stroke-linecap="round"><g transform="translate(86.50391327345267 185.82570251747768) rotate(0 449.612800278468 -3.0039553640004897)"><path d="M0.52 0.74 C270.4 -3.09, 543.69 -4.09, 899.61 -5.42 M-0.39 0.48 C185.72 -7.57, 369.7 -8.06, 898.16 -5.02" stroke="#1e1e1e" stroke-width="4" fill="none"></path></g></g><mask></mask><g stroke-linecap="round"><g transform="translate(83.7814402269068 276.74250914021695) rotate(0 449.236574551044 -1.836733873106141)"><path d="M-1.18 0.53 C315.34 -3.76, 632.43 -4.87, 899.65 -3.85 M-0.32 0.12 C291.82 0.6, 582.14 -0.48, 898.2 -4.12" stroke="#1e1e1e" stroke-width="4" fill="none"></path></g></g><mask></mask><g stroke-linecap="round"><g transform="translate(86.22346387298302 352.4452421685753) rotate(0 449.98874448495917 -2.4740781706684345)"><path d="M-0.13 0.43 C203.84 2.82, 407.78 1.11, 900.11 -5.36 M0.02 -0.37 C234.51 -6.96, 468.74 -7.97, 897.93 -4.32" stroke="#1e1e1e" stroke-width="4" fill="none"></path></g></g><mask></mask><g stroke-linecap="round"><g transform="translate(88.66548751905901 445.2421407194663) rotate(0 449.22259067515836 -2.8032201736680804)"><path d="M0.99 1.03 C262.61 -2.1, 523.99 -5.61, 898.91 -3.72 M-0.47 0.77 C271.88 -6.95, 544.72 -8.47, 897.98 -4.56" stroke="#1e1e1e" stroke-width="4" fill="none"></path></g></g><mask></mask><g stroke-linecap="round"><g transform="translate(88.66548751905901 523.3868973939008) rotate(0 449.3421612027567 -2.4878372385994396)"><path d="M1.44 -0.48 C324.4 -3.25, 651.25 -5.22, 897.92 -3.83 M-0.74 0.56 C216.41 -0.05, 434.72 -1.02, 899.42 -5.54" stroke="#1e1e1e" stroke-width="4" fill="none"></path></g></g><mask></mask><g stroke-linecap="round" transform="translate(1523.5294871343783 662.2500926827192) rotate(0 445.66931540888424 293.1810212017645)"><path d="M-0.63 1.13 C279.96 -0.63, 560.95 -1.78, 890.2 0.65 M-0.76 0.57 C219.97 -0.32, 438.01 -0.1, 891.11 0.65 M892.51 -0.12 C889.79 207.83, 888.48 413.56, 890.84 584.88 M892.03 -0.26 C889.27 124.45, 890.74 249.14, 891.77 586.2 M890.64 586.8 C568.62 588.87, 243.63 589.76, 0.9 585.08 M891.29 586.71 C555.52 579.14, 220.59 580.19, -0.37 585.89 M0.07 585.45 C-2.09 356.6, -3.66 127.23, -0.84 0.04 M0.01 586.67 C5.24 404.06, 5.21 223.69, 0.38 0.08" stroke="#1e1e1e" stroke-width="4" fill="none"></path></g><g stroke-linecap="round"><g transform="translate(1828.7824428938882 659.808069036643) rotate(0 -1.5026687880598502 295.3363836777113)"><path d="M-0.96 1.2 C-2.78 191.81, -3.05 384.16, -0.93 590.16 M0.6 0.52 C-5.21 184.32, -4.73 367.81, 0.36 588.47" stroke="#1e1e1e" stroke-width="4" fill="none"></path></g></g><mask></mask><g stroke-linecap="round"><g transform="translate(2141.361469591626 662.2500926827192) rotate(0 -1.4682097389307955 288.79558661704533)"><path d="M-0.89 0.05 C-4.82 214.37, -5.46 428.7, -2.25 575.44 M-0.72 0.74 C2.35 214.84, 2.1 427.96, -1.97 577.54" stroke="#1e1e1e" stroke-width="4" fill="none"></path></g></g><mask></mask><g stroke-linecap="round"><g transform="translate(1525.9715107804545 747.7209202953818) rotate(0 449.334093710361 -3.487365937858975)"><path d="M-1.14 0.65 C336.2 -0.78, 674.28 -5.4, 899.8 -3.68 M-0.22 0.65 C328.12 -8.83, 655.82 -9.62, 898.6 -4.48" stroke="#1e1e1e" stroke-width="4" fill="none"></path></g></g><mask></mask><g stroke-linecap="round"><g transform="translate(1523.2490377339088 838.6377269181212) rotate(0 449.4179989780765 -2.9916405769727596)"><path d="M-0.86 1.28 C272.61 -5.91, 545.96 -4.67, 899.7 -6.32 M0.43 -0.4 C353.18 -7.18, 705.34 -9.28, 898.95 -5.14" stroke="#1e1e1e" stroke-width="4" fill="none"></path></g></g><mask></mask><g stroke-linecap="round"><g transform="translate(1525.6910613799848 914.3404599464795) rotate(0 450.1660567726474 -3.321769386491617)"><path d="M0.19 -1.52 C307.19 -6.21, 613.12 -10.52, 900.14 -5.33 M0.48 0.59 C342.7 2.15, 685.83 -0.37, 898.19 -5.13" stroke="#1e1e1e" stroke-width="4" fill="none"></path></g></g><mask></mask><g stroke-linecap="round"><g transform="translate(1528.1330850260608 1007.1373584973705) rotate(0 449.9528275511692 -2.163095393164042)"><path d="M1.14 1.21 C342.51 3.52, 684.43 2.65, 899.97 -4.03 M-0.06 0.4 C224.78 -6.74, 448.53 -7.96, 897.92 -5.59" stroke="#1e1e1e" stroke-width="4" fill="none"></path></g></g><mask></mask><g stroke-linecap="round"><g transform="translate(1528.1330850260608 1085.282115171805) rotate(0 449.3595071035902 -3.340243559438619)"><path d="M1.03 -1.44 C185.87 -6.88, 370.11 -6.58, 897.86 -3.93 M0.29 -0.25 C335.01 -5.7, 670.22 -7.98, 898.43 -5.32" stroke="#1e1e1e" stroke-width="4" fill="none"></path></g></g><mask></mask><g transform="translate(186.626882762572 122.33308771949964) rotate(0 63.36000061035156 22.5)"><text x="63.36000061035156" y="0" font-family="Virgil, Segoe UI Emoji" font-size="36px" fill="#1e1e1e" text-anchor="middle" style="white-space: pre;" direction="ltr" dominant-baseline="text-before-edge">emp_no</text></g><g transform="translate(454.8423876308549 124.77511136557575) rotate(0 93.20399475097656 22.5)"><text x="93.20399475097656" y="0" font-family="Virgil, Segoe UI Emoji" font-size="36px" fill="#1e1e1e" text-anchor="middle" style="white-space: pre;" direction="ltr" dominant-baseline="text-before-edge">last_name</text></g><g transform="translate(831.2491965013959 119.65915865772786) rotate(0 7.3979997634887695 22.5)"><text x="7.3979997634887695" y="0" font-family="Virgil, Segoe UI Emoji" font-size="36px" fill="#1e1e1e" text-anchor="middle" style="white-space: pre;" direction="ltr" dominant-baseline="text-before-edge">-</text></g><g transform="translate(828.8071728553197 197.51403356254286) rotate(0 7.3979997634887695 22.5)"><text x="7.3979997634887695" y="0" font-family="Virgil, Segoe UI Emoji" font-size="36px" fill="#1e1e1e" text-anchor="middle" style="white-space: pre;" direction="ltr" dominant-baseline="text-before-edge">-</text></g><g transform="translate(831.2491965013959 282.9848611752054) rotate(0 7.3979997634887695 22.5)"><text x="7.3979997634887695" y="0" font-family="Virgil, Segoe UI Emoji" font-size="36px" fill="#1e1e1e" text-anchor="middle" style="white-space: pre;" direction="ltr" dominant-baseline="text-before-edge">-</text></g><g transform="translate(831.2491965013959 366.013665141792) rotate(0 7.3979997634887695 22.5)"><text x="7.3979997634887695" y="0" font-family="Virgil, Segoe UI Emoji" font-size="36px" fill="#1e1e1e" text-anchor="middle" style="white-space: pre;" direction="ltr" dominant-baseline="text-before-edge">-</text></g><g transform="translate(828.8071728553197 451.484492754455) rotate(0 7.3979997634887695 22.5)"><text x="7.3979997634887695" y="0" font-family="Virgil, Segoe UI Emoji" font-size="36px" fill="#1e1e1e" text-anchor="middle" style="white-space: pre;" direction="ltr" dominant-baseline="text-before-edge">-</text></g><g transform="translate(836.1332437935479 541.8393676592698) rotate(0 7.3979997634887695 22.5)"><text x="7.3979997634887695" y="0" font-family="Virgil, Segoe UI Emoji" font-size="36px" fill="#1e1e1e" text-anchor="middle" style="white-space: pre;" direction="ltr" dominant-baseline="text-before-edge">-</text></g><g transform="translate(2265.3419999819544 672.900051316583) rotate(0 7.3979997634887695 22.5)"><text x="7.3979997634887695" y="0" font-family="Virgil, Segoe UI Emoji" font-size="36px" fill="#1e1e1e" text-anchor="middle" style="white-space: pre;" direction="ltr" dominant-baseline="text-before-edge">-</text></g><g transform="translate(2267.78402362803 760.8129025753219) rotate(0 7.3979997634887695 22.5)"><text x="7.3979997634887695" y="0" font-family="Virgil, Segoe UI Emoji" font-size="36px" fill="#1e1e1e" text-anchor="middle" style="white-space: pre;" direction="ltr" dominant-baseline="text-before-edge">-</text></g><g transform="translate(2265.3419999819544 843.8417065419085) rotate(0 7.3979997634887695 22.5)"><text x="7.3979997634887695" y="0" font-family="Virgil, Segoe UI Emoji" font-size="36px" fill="#1e1e1e" text-anchor="middle" style="white-space: pre;" direction="ltr" dominant-baseline="text-before-edge">-</text></g><g transform="translate(2260.4579526898024 929.3125341545713) rotate(0 7.3979997634887695 22.5)"><text x="7.3979997634887695" y="0" font-family="Virgil, Segoe UI Emoji" font-size="36px" fill="#1e1e1e" text-anchor="middle" style="white-space: pre;" direction="ltr" dominant-baseline="text-before-edge">-</text></g><g transform="translate(2262.899976335878 1012.3413381211578) rotate(0 7.3979997634887695 22.5)"><text x="7.3979997634887695" y="0" font-family="Virgil, Segoe UI Emoji" font-size="36px" fill="#1e1e1e" text-anchor="middle" style="white-space: pre;" direction="ltr" dominant-baseline="text-before-edge">-</text></g><g transform="translate(2260.4579526898024 1095.3701420877446) rotate(0 7.3979997634887695 22.5)"><text x="7.3979997634887695" y="0" font-family="Virgil, Segoe UI Emoji" font-size="36px" fill="#1e1e1e" text-anchor="middle" style="white-space: pre;" direction="ltr" dominant-baseline="text-before-edge">-</text></g><g transform="translate(218.21140358659716 210.24593897823843) rotate(0 22.139999389648438 22.5)"><text x="22.139999389648438" y="0" font-family="Virgil, Segoe UI Emoji" font-size="36px" fill="#1e1e1e" text-anchor="middle" style="white-space: pre;" direction="ltr" dominant-baseline="text-before-edge">101</text></g><g transform="translate(212.71542750733136 290.3109321134335) rotate(0 30.077999114990234 22.5)"><text x="30.077999114990234" y="0" font-family="Virgil, Segoe UI Emoji" font-size="36px" fill="#1e1e1e" text-anchor="middle" style="white-space: pre;" direction="ltr" dominant-baseline="text-before-edge">102</text></g><g transform="translate(210.83140251848192 373.3397360800203) rotate(0 29.520000457763672 22.5)"><text x="29.520000457763672" y="0" font-family="Virgil, Segoe UI Emoji" font-size="36px" fill="#1e1e1e" text-anchor="middle" style="white-space: pre;" direction="ltr" dominant-baseline="text-before-edge">103</text></g><g transform="translate(209.1273797421568 461.2525873387591) rotate(0 28.781999588012695 22.5)"><text x="28.781999588012695" y="0" font-family="Virgil, Segoe UI Emoji" font-size="36px" fill="#1e1e1e" text-anchor="middle" style="white-space: pre;" direction="ltr" dominant-baseline="text-before-edge">104</text></g><g transform="translate(214.4074288501048 544.2813913053458) rotate(0 28.385997772216797 22.5)"><text x="28.385997772216797" y="0" font-family="Virgil, Segoe UI Emoji" font-size="36px" fill="#1e1e1e" text-anchor="middle" style="white-space: pre;" direction="ltr" dominant-baseline="text-before-edge">105</text></g><g transform="translate(526.4702881866261 217.57200991646664) rotate(0 11.807999610900879 22.5)"><text x="11.807999610900879" y="0" font-family="Virgil, Segoe UI Emoji" font-size="36px" fill="#1e1e1e" text-anchor="middle" style="white-space: pre;" direction="ltr" dominant-baseline="text-before-edge">A</text></g><g transform="translate(520.3804286062303 461.38865815093266) rotate(0 13.086000442504883 22.5)"><text x="13.086000442504883" y="0" font-family="Virgil, Segoe UI Emoji" font-size="36px" fill="#1e1e1e" text-anchor="middle" style="white-space: pre;" direction="ltr" dominant-baseline="text-before-edge">B</text></g><g transform="translate(514.7649237329578 551.6713445123873) rotate(0 11.592000007629395 22.5)"><text x="11.592000007629395" y="0" font-family="Virgil, Segoe UI Emoji" font-size="36px" fill="#1e1e1e" text-anchor="middle" style="white-space: pre;" direction="ltr" dominant-baseline="text-before-edge">C</text></g><g transform="translate(521.6518871028776 379.046711559099) rotate(0 14.039999961853027 22.5)"><text x="14.039999961853027" y="0" font-family="Virgil, Segoe UI Emoji" font-size="36px" fill="#1e1e1e" text-anchor="middle" style="white-space: pre;" direction="ltr" dominant-baseline="text-before-edge">D</text></g><g transform="translate(523.559887095248 293.6728461461372) rotate(0 12.131999969482422 22.5)"><text x="12.131999969482422" y="0" font-family="Virgil, Segoe UI Emoji" font-size="36px" fill="#1e1e1e" text-anchor="middle" style="white-space: pre;" direction="ltr" dominant-baseline="text-before-edge">E</text></g><g stroke-linecap="round"><g transform="translate(362.45258528004945 288.3906956526729) rotate(0 -0.5502121970686176 291.3515283296524)"><path d="M0.73 -1.15 C0.82 192.11, -2.14 381.11, -3.58 582.2 M0.06 -0.15 C3.96 140.86, 3.28 282.97, -2.97 583.85" stroke="#1971c2" stroke-width="4" fill="none"></path></g><g transform="translate(362.45258528004945 288.3906956526729) rotate(0 -0.5502121970686176 291.3515283296524)"><path d="M-10.9 552.61 C-6.5 567.48, -8.71 571.91, -5.81 580.24 M-12.56 555.11 C-8.91 561.4, -6.78 570.33, -4.28 584.38" stroke="#1971c2" stroke-width="4" fill="none"></path></g><g transform="translate(362.45258528004945 288.3906956526729) rotate(0 -0.5502121970686176 291.3515283296524)"><path d="M9.62 552.97 C7.31 568.07, -1.62 572.37, -5.81 580.24 M7.96 555.47 C6.63 561.49, 3.8 570.33, -4.28 584.38" stroke="#1971c2" stroke-width="4" fill="none"></path></g></g><mask></mask><g transform="translate(466.11690412849873 664.6789027784693) rotate(0 182.70001220703125 22.5)"><text x="182.70001220703125" y="0" font-family="Virgil, Segoe UI Emoji" font-size="36px" fill="#1971c2" text-anchor="middle" style="white-space: pre;" direction="ltr" dominant-baseline="text-before-edge">소트 버퍼를 이용한 정렬</text></g><g transform="translate(1649.8621834210792 758.3708789292457) rotate(0 22.139999389648438 22.5)"><text x="22.139999389648438" y="0" font-family="Virgil, Segoe UI Emoji" font-size="36px" fill="#1e1e1e" text-anchor="middle" style="white-space: pre;" direction="ltr" dominant-baseline="text-before-edge">101</text></g><g transform="translate(1634.5981127575094 841.3996828958325) rotate(0 30.077999114990234 22.5)"><text x="30.077999114990234" y="0" font-family="Virgil, Segoe UI Emoji" font-size="36px" fill="#1e1e1e" text-anchor="middle" style="white-space: pre;" direction="ltr" dominant-baseline="text-before-edge">102</text></g><g transform="translate(1639.4821600496614 929.3125341545713) rotate(0 30.077999114990234 22.5)"><text x="30.077999114990234" y="0" font-family="Virgil, Segoe UI Emoji" font-size="36px" fill="#1e1e1e" text-anchor="middle" style="white-space: pre;" direction="ltr" dominant-baseline="text-before-edge">102</text></g><g transform="translate(1642.4821823529644 1019.6674090593863) rotate(0 29.520000457763672 22.5)"><text x="29.520000457763672" y="0" font-family="Virgil, Segoe UI Emoji" font-size="36px" fill="#1e1e1e" text-anchor="middle" style="white-space: pre;" direction="ltr" dominant-baseline="text-before-edge">103</text></g><g transform="translate(1643.220183222715 1105.1382366720488) rotate(0 28.781999588012695 22.5)"><text x="28.781999588012695" y="0" font-family="Virgil, Segoe UI Emoji" font-size="36px" fill="#1e1e1e" text-anchor="middle" style="white-space: pre;" direction="ltr" dominant-baseline="text-before-edge">104</text></g><g transform="translate(1598.8740876160716 688.0739803783547) rotate(0 63.36000061035156 22.5)"><text x="63.36000061035156" y="0" font-family="Virgil, Segoe UI Emoji" font-size="36px" fill="#1e1e1e" text-anchor="middle" style="white-space: pre;" direction="ltr" dominant-baseline="text-before-edge">emp_no</text></g><g transform="translate(1882.2691385092023 692.958027670507) rotate(0 94.98600006103516 22.5)"><text x="94.98600006103516" y="0" font-family="Virgil, Segoe UI Emoji" font-size="36px" fill="#1e1e1e" text-anchor="middle" style="white-space: pre;" direction="ltr" dominant-baseline="text-before-edge">from_date</text></g><g transform="translate(411.5938577125911 10) rotate(0 82.7280044555664 22.5)"><text x="82.7280044555664" y="0" font-family="Virgil, Segoe UI Emoji" font-size="36px" fill="#1e1e1e" text-anchor="middle" style="white-space: pre;" direction="ltr" dominant-baseline="text-before-edge">employees</text></g><g transform="translate(1904.9911086985755 587.9510108892356) rotate(0 69.82200622558594 22.5)"><text x="69.82200622558594" y="0" font-family="Virgil, Segoe UI Emoji" font-size="36px" fill="#1e1e1e" text-anchor="middle" style="white-space: pre;" direction="ltr" dominant-baseline="text-before-edge">salaries</text></g><g transform="translate(1888.0651437582258 766.2187370527893) rotate(0 89.18999481201172 22.5)"><text x="89.18999481201172" y="0" font-family="Virgil, Segoe UI Emoji" font-size="36px" fill="#1e1e1e" text-anchor="middle" style="white-space: pre;" direction="ltr" dominant-baseline="text-before-edge">1999-07-17</text></g><g transform="translate(1871.9791152903724 843.8417065419085) rotate(0 102.83399963378906 22.5)"><text x="102.83399963378906" y="0" font-family="Virgil, Segoe UI Emoji" font-size="36px" fill="#1e1e1e" text-anchor="middle" style="white-space: pre;" direction="ltr" dominant-baseline="text-before-edge">2000-07-15</text></g><g transform="translate(1863.7950872497652 931.7545578006473) rotate(0 108.57600402832031 22.5)"><text x="108.57600402832031" y="0" font-family="Virgil, Segoe UI Emoji" font-size="36px" fill="#1e1e1e" text-anchor="middle" style="white-space: pre;" direction="ltr" dominant-baseline="text-before-edge">1988-02-20</text></g><g transform="translate(1887.8851358236554 1019.667409059386) rotate(0 89.37000274658203 22.5)"><text x="89.37000274658203" y="0" font-family="Virgil, Segoe UI Emoji" font-size="36px" fill="#1e1e1e" text-anchor="middle" style="white-space: pre;" direction="ltr" dominant-baseline="text-before-edge">1992-01-21</text></g><g transform="translate(1865.175181345788 1102.6962130259728) rotate(0 116.96400451660156 22.5)"><text x="116.96400451660156" y="0" font-family="Virgil, Segoe UI Emoji" font-size="36px" fill="#1e1e1e" text-anchor="middle" style="white-space: pre;" direction="ltr" dominant-baseline="text-before-edge">19870-08-26</text></g><g stroke-linecap="round"><g transform="translate(2419.2614185100074 873.6137763084572) rotate(0 54.04446679702892 -2.776494728397033)"><path d="M-0.14 -1.38 C39.22 2.8, 72.1 -1.52, 107.64 -3.26 M-0.59 -1.53 C28.89 -4.26, 57.22 -5.56, 108.68 -5.94" stroke="#1e1e1e" stroke-width="4" fill="none"></path></g><g transform="translate(2419.2614185100074 873.6137763084572) rotate(0 54.04446679702892 -2.776494728397033)"><path d="M80.51 3.36 C91.73 4.33, 96.52 -2, 106.43 -4.36 M80.05 3.21 C87.75 -0.02, 94.2 -2.88, 107.47 -7.05" stroke="#1e1e1e" stroke-width="4" fill="none"></path></g><g transform="translate(2419.2614185100074 873.6137763084572) rotate(0 54.04446679702892 -2.776494728397033)"><path d="M80.2 -17.16 C91.69 -9.14, 96.58 -8.43, 106.43 -4.36 M79.75 -17.31 C87.23 -15.06, 93.76 -12.44, 107.47 -7.05" stroke="#1e1e1e" stroke-width="4" fill="none"></path></g></g><mask></mask><g stroke-linecap="round"><g transform="translate(2414.0574246345004 942.1439084973848) rotate(0 54.693034939234394 0.07719107124967195)"><path d="M0.33 -0.55 C22.89 -0.33, 47.71 -0.3, 107.35 -1 M-1.42 -1.61 C34.2 2.24, 68.47 2.28, 110.8 1.04" stroke="#1e1e1e" stroke-width="4" fill="none"></path></g><g transform="translate(2414.0574246345004 942.1439084973848) rotate(0 54.693034939234394 0.07719107124967195)"><path d="M83.15 11.3 C87.14 9.14, 93.2 6.7, 108.26 0.03 M81.4 10.23 C92.18 9.98, 101.67 6.74, 111.72 2.07" stroke="#1e1e1e" stroke-width="4" fill="none"></path></g><g transform="translate(2414.0574246345004 942.1439084973848) rotate(0 54.693034939234394 0.07719107124967195)"><path d="M82.75 -9.22 C86.46 -6.68, 92.61 -4.42, 108.26 0.03 M81 -10.28 C92 -4.33, 101.61 -1.35, 111.72 2.07" stroke="#1e1e1e" stroke-width="4" fill="none"></path></g></g><mask></mask><g stroke-linecap="round"><g transform="translate(2416.571636823936 1045.7826440518136) rotate(0 56.52658082417565 -0.16802934764605482)"><path d="M-0.2 -2.64 C34.44 -0.08, 68.21 3.74, 113.25 1.75 M1.11 1.97 C26.81 0.73, 52.41 2.31, 111.39 2.01" stroke="#1e1e1e" stroke-width="4" fill="none"></path></g><g transform="translate(2416.571636823936 1045.7826440518136) rotate(0 56.52658082417565 -0.16802934764605482)"><path d="M82.98 9.56 C91.74 6.84, 99.6 6.35, 112.39 -0.05 M84.29 14.17 C90.96 10.51, 97.31 8.89, 110.53 0.21" stroke="#1e1e1e" stroke-width="4" fill="none"></path></g><g transform="translate(2416.571636823936 1045.7826440518136) rotate(0 56.52658082417565 -0.16802934764605482)"><path d="M83.03 -10.96 C91.72 -7.35, 99.57 -1.52, 112.39 -0.05 M84.34 -6.35 C90.67 -5.31, 97 -2.23, 110.53 0.21" stroke="#1e1e1e" stroke-width="4" fill="none"></path></g></g><mask></mask><g stroke-linecap="round"><g transform="translate(2421.239118486008 1131.3158640827955) rotate(0 50.649939044359826 -0.5376889040769015)"><path d="M-2.54 -1 C31.14 0.74, 60 -3.42, 101.93 0.75 M0.91 1.04 C39 -2.48, 72.97 -3.06, 103.84 -0.65" stroke="#1e1e1e" stroke-width="4" fill="none"></path></g><g transform="translate(2421.239118486008 1131.3158640827955) rotate(0 50.649939044359826 -0.5376889040769015)"><path d="M72.65 7.26 C83.87 6.64, 90.16 0.19, 100.62 1.24 M76.11 9.29 C86.83 3.89, 93.6 0.55, 102.53 -0.17" stroke="#1e1e1e" stroke-width="4" fill="none"></path></g><g transform="translate(2421.239118486008 1131.3158640827955) rotate(0 50.649939044359826 -0.5376889040769015)"><path d="M73.63 -13.24 C84.28 -7.81, 90.28 -8.22, 100.62 1.24 M77.08 -11.2 C87.86 -9.3, 94.28 -5.36, 102.53 -0.17" stroke="#1e1e1e" stroke-width="4" fill="none"></path></g></g><mask></mask><g stroke-linecap="round" transform="translate(98.1268940517358 925.794318917048) rotate(0 445.6693154088842 256.4485771096683)"><path d="M-0.01 -0.83 C276.78 -5.4, 551.83 -6.09, 891.35 -0.57 M0.07 -0.64 C332.94 3.47, 667.41 4.06, 891.81 0.15 M892.88 -0.68 C890.41 171.62, 889.95 343.46, 891.93 513.83 M890.56 -0.12 C889.75 140.33, 889.61 282.49, 892.05 513.43 M892.81 512.08 C671.41 506.88, 452.75 506.78, 0.35 513.05 M891.88 513.59 C541.31 505.94, 191.93 506.37, -0.31 512.34 M-0.02 511.54 C-2.45 329.09, -3.5 143.2, 0.19 -1.19 M0.42 513.32 C-3.47 373.55, -3.68 235.6, 0.35 0.29" stroke="#1e1e1e" stroke-width="4" fill="none"></path></g><g stroke-linecap="round"><g transform="translate(403.37984981124555 923.3522952709718) rotate(0 -0.607748887682817 260.0308972612149)"><path d="M0.95 -0.79 C-0.76 188.15, -1.8 378.71, -1.26 520.85 M-0.55 0.06 C0.19 131.8, -0.38 262.48, -2.16 520.17" stroke="#1e1e1e" stroke-width="4" fill="none"></path></g></g><mask></mask><g stroke-linecap="round"><g transform="translate(715.9588765089834 925.794318917048) rotate(0 -0.9387273315418838 258.4994575873194)"><path d="M0.16 -1.48 C1.86 127.87, 2.43 257.58, -3.21 517.85 M0.43 0.65 C-2.92 113.73, -3.65 227.17, -2.95 518.48" stroke="#1e1e1e" stroke-width="4" fill="none"></path></g></g><mask></mask><g transform="translate(200.69188718693124 947.7725317317327) rotate(0 63.36000061035156 22.5)"><text x="63.36000061035156" y="0" font-family="Virgil, Segoe UI Emoji" font-size="36px" fill="#1e1e1e" text-anchor="middle" style="white-space: pre;" direction="ltr" dominant-baseline="text-before-edge">emp_no</text></g><g transform="translate(468.90739205521413 950.2145553778088) rotate(0 93.20399475097656 22.5)"><text x="93.20399475097656" y="0" font-family="Virgil, Segoe UI Emoji" font-size="36px" fill="#1e1e1e" text-anchor="middle" style="white-space: pre;" direction="ltr" dominant-baseline="text-before-edge">last_name</text></g><g transform="translate(845.3142009257551 945.0986026699609) rotate(0 7.3979997634887695 22.5)"><text x="7.3979997634887695" y="0" font-family="Virgil, Segoe UI Emoji" font-size="36px" fill="#1e1e1e" text-anchor="middle" style="white-space: pre;" direction="ltr" dominant-baseline="text-before-edge">-</text></g><g stroke-linecap="round" transform="translate(10 764.6331646693977) rotate(0 536.7676507651483 367.3244409209625)"><path d="M0.97 -0.39 C287.64 -1.41, 576.62 -0.96, 1073.81 0.53 M0.48 0.36 C361.69 -4.89, 724.05 -6.27, 1074.12 0.73 M1074.79 -0.45 C1078.74 225.36, 1080.45 452.8, 1072.56 733.45 M1073.22 0.03 C1076.89 152.84, 1075.87 304.5, 1073.08 734.16 M1075.06 734.91 C857.93 735.18, 641.23 736.14, 1.22 734.08 M1073.17 734.95 C791.49 735.33, 510.47 735.02, 0.47 734.81 M1.22 733.27 C0.03 501.63, 0.35 268.11, -0.11 0.25 M-0.7 734.98 C-6.3 534.07, -6.08 333.25, 0.43 -0.12" stroke="#1e1e1e" stroke-width="4" fill="none"></path></g><g transform="translate(877.1747018961943 821.5092071345787) rotate(0 71.27999877929688 22.5)"><text x="71.27999877929688" y="0" font-family="Virgil, Segoe UI Emoji" font-size="36px" fill="#1e1e1e" text-anchor="middle" style="white-space: pre;" direction="ltr" dominant-baseline="text-before-edge">소트 버퍼</text></g><g stroke-linecap="round"><g transform="translate(98.17618017260048 1024.4192391484462) rotate(0 449.2594311974476 -2.7941154367467362)"><path d="M-0.76 -1.39 C298.54 -3.31, 596.5 -6.02, 898.47 -5.65 M0.42 0.1 C265.17 -3.53, 530.18 -5.02, 899.28 -4.91" stroke="#1e1e1e" stroke-width="4" fill="none"></path></g></g><mask></mask><g stroke-linecap="round"><g transform="translate(100.6182038186767 1100.1219721768048) rotate(0 449.74904722752973 -0.9394632558110061)"><path d="M0.8 0.62 C299.6 4.14, 596.9 2.22, 898.58 -3.4 M0.21 -0.71 C286.99 -3.19, 574.16 -4.01, 899.28 -4.27" stroke="#1e1e1e" stroke-width="4" fill="none"></path></g></g><mask></mask><g stroke-linecap="round"><g transform="translate(103.0602274647527 1192.9188707276958) rotate(0 449.6011673114728 -0.7282588357793713)"><path d="M1.04 -0.47 C191.45 -4.6, 383.24 -3.39, 898.97 -4.04 M0.23 -0.77 C281.06 4.85, 561.52 3.96, 898.73 -4.26" stroke="#1e1e1e" stroke-width="4" fill="none"></path></g></g><mask></mask><g stroke-linecap="round"><g transform="translate(103.0602274647527 1271.06362740213) rotate(0 449.32913217204623 -0.20515750045143477)"><path d="M-0.2 -0.77 C304.42 1.94, 609.34 -0.36, 898.86 -4.46 M0.62 -0.02 C190.25 6.46, 379.33 5.44, 898.68 -4.48" stroke="#1e1e1e" stroke-width="4" fill="none"></path></g></g><mask></mask><g transform="translate(845.6439364470896 1030.6615911834347) rotate(0 7.3979997634887695 22.5)"><text x="7.3979997634887695" y="0" font-family="Virgil, Segoe UI Emoji" font-size="36px" fill="#1e1e1e" text-anchor="middle" style="white-space: pre;" direction="ltr" dominant-baseline="text-before-edge">-</text></g><g transform="translate(845.6439364470896 1113.6903951500212) rotate(0 7.3979997634887695 22.5)"><text x="7.3979997634887695" y="0" font-family="Virgil, Segoe UI Emoji" font-size="36px" fill="#1e1e1e" text-anchor="middle" style="white-space: pre;" direction="ltr" dominant-baseline="text-before-edge">-</text></g><g transform="translate(843.2019128010133 1199.1612227626842) rotate(0 7.3979997634887695 22.5)"><text x="7.3979997634887695" y="0" font-family="Virgil, Segoe UI Emoji" font-size="36px" fill="#1e1e1e" text-anchor="middle" style="white-space: pre;" direction="ltr" dominant-baseline="text-before-edge">-</text></g><g transform="translate(850.5279837392416 1289.5160976674993) rotate(0 7.3979997634887695 22.5)"><text x="7.3979997634887695" y="0" font-family="Virgil, Segoe UI Emoji" font-size="36px" fill="#1e1e1e" text-anchor="middle" style="white-space: pre;" direction="ltr" dominant-baseline="text-before-edge">-</text></g><g transform="translate(234.21967276117266 1298.6695234204103) rotate(0 30.077999114990234 22.50000000000003)"><text x="30.077999114990234" y="0" font-family="Virgil, Segoe UI Emoji" font-size="36px" fill="#1e1e1e" text-anchor="middle" style="white-space: pre;" direction="ltr" dominant-baseline="text-before-edge">102</text></g><g transform="translate(229.96581266960766 1206.3305297860215) rotate(0 29.520000457763672 22.5)"><text x="29.520000457763672" y="0" font-family="Virgil, Segoe UI Emoji" font-size="36px" fill="#1e1e1e" text-anchor="middle" style="white-space: pre;" direction="ltr" dominant-baseline="text-before-edge">103</text></g><g transform="translate(233.001460098714 1040.67102505416) rotate(0 28.781999588012695 22.5)"><text x="28.781999588012695" y="0" font-family="Virgil, Segoe UI Emoji" font-size="36px" fill="#1e1e1e" text-anchor="middle" style="white-space: pre;" direction="ltr" dominant-baseline="text-before-edge">104</text></g><g transform="translate(228.80216879579848 1123.699829020747) rotate(0 28.385997772216797 22.5)"><text x="28.385997772216797" y="0" font-family="Virgil, Segoe UI Emoji" font-size="36px" fill="#1e1e1e" text-anchor="middle" style="white-space: pre;" direction="ltr" dominant-baseline="text-before-edge">105</text></g><g transform="translate(537.1450036546398 1036.0674256609022) rotate(0 13.086000442504883 22.5)"><text x="13.086000442504883" y="0" font-family="Virgil, Segoe UI Emoji" font-size="36px" fill="#1e1e1e" text-anchor="middle" style="white-space: pre;" direction="ltr" dominant-baseline="text-before-edge">B</text></g><g transform="translate(538.6390040895153 1123.9802769196413) rotate(0 11.592000007629395 22.5)"><text x="11.592000007629395" y="0" font-family="Virgil, Segoe UI Emoji" font-size="36px" fill="#1e1e1e" text-anchor="middle" style="white-space: pre;" direction="ltr" dominant-baseline="text-before-edge">C</text></g><g transform="translate(531.3069568431395 1216.7771754705318) rotate(0 14.039999961853027 22.5)"><text x="14.039999961853027" y="0" font-family="Virgil, Segoe UI Emoji" font-size="36px" fill="#1e1e1e" text-anchor="middle" style="white-space: pre;" direction="ltr" dominant-baseline="text-before-edge">D</text></g><g transform="translate(533.2149568355101 1294.9219321449664) rotate(0 12.131999969482422 22.5)"><text x="12.131999969482422" y="0" font-family="Virgil, Segoe UI Emoji" font-size="36px" fill="#1e1e1e" text-anchor="middle" style="white-space: pre;" direction="ltr" dominant-baseline="text-before-edge">E</text></g><g stroke-linecap="round"><g transform="translate(98.62343614446024 1359.6669329515369) rotate(0 450.22679735641 -3.4155170824281527)"><path d="M0.83 -0.37 C255.33 -3.65, 508.94 -4.91, 899.8 -4.92 M0.65 -0.32 C314.4 -6.52, 628.79 -8.2, 899.02 -4.76" stroke="#1e1e1e" stroke-width="4" fill="none"></path></g></g><mask></mask><g transform="translate(248.77635550994808 1376.0506211700967) rotate(0 14.796000480651855 22.5)"><text x="14.796000480651855" y="0" font-family="Virgil, Segoe UI Emoji" font-size="36px" fill="#1e1e1e" text-anchor="middle" style="white-space: pre;" direction="ltr" dominant-baseline="text-before-edge">...</text></g><g transform="translate(533.1565678358546 1372.5093019918238) rotate(0 14.796000480651855 22.5)"><text x="14.796000480651855" y="0" font-family="Virgil, Segoe UI Emoji" font-size="36px" fill="#1e1e1e" text-anchor="middle" style="white-space: pre;" direction="ltr" dominant-baseline="text-before-edge">...</text></g><g transform="translate(841.2351311889198 1374.8791370945396) rotate(0 14.796000480651855 22.5)"><text x="14.796000480651855" y="0" font-family="Virgil, Segoe UI Emoji" font-size="36px" fill="#1e1e1e" text-anchor="middle" style="white-space: pre;" direction="ltr" dominant-baseline="text-before-edge">...</text></g><g stroke-linecap="round"><g transform="translate(993.4815676270932 1314.2561619214016) rotate(0 262.2311546954483 -171.790387403601)"><path d="M1.36 0.92 C135.54 -83.76, 268.07 -171.15, 523.38 -344.5 M0.1 -0.15 C154.19 -96.3, 306.86 -196.87, 524.36 -344.19" stroke="#1e1e1e" stroke-width="4" fill="none"></path></g><g transform="translate(993.4815676270932 1314.2561619214016) rotate(0 262.2311546954483 -171.790387403601)"><path d="M510.09 -317.64 C513.54 -323.39, 518.97 -330.81, 523.47 -344.67 M506.95 -320.31 C510.46 -325.89, 515.98 -333.72, 525.93 -343.9" stroke="#1e1e1e" stroke-width="4" fill="none"></path></g><g transform="translate(993.4815676270932 1314.2561619214016) rotate(0 262.2311546954483 -171.790387403601)"><path d="M498.63 -334.67 C504.65 -336.01, 512.97 -339.13, 523.47 -344.67 M495.49 -337.34 C502.04 -337.76, 510.9 -340.63, 525.93 -343.9" stroke="#1e1e1e" stroke-width="4" fill="none"></path></g></g><mask></mask><g stroke-linecap="round"><g transform="translate(993.4815676270931 1313.4303776768324) rotate(0 260.1042343890594 -215.42162101644004)"><path d="M-1.09 0.52 C151.18 -125.32, 302.86 -250.6, 520.04 -431.36 M0.27 -0.01 C183.25 -153.1, 369.83 -306.27, 521.29 -429.98" stroke="#1e1e1e" stroke-width="4" fill="none"></path></g><g transform="translate(993.4815676270931 1313.4303776768324) rotate(0 260.1042343890594 -215.42162101644004)"><path d="M503.26 -402.88 C512.96 -411.54, 515.46 -417.45, 517.97 -431.88 M506.64 -404.19 C509.69 -414.76, 516.66 -422.89, 521.12 -428.42" stroke="#1e1e1e" stroke-width="4" fill="none"></path></g><g transform="translate(993.4815676270931 1313.4303776768324) rotate(0 260.1042343890594 -215.42162101644004)"><path d="M490.27 -418.76 C503.99 -422.74, 510.29 -424, 517.97 -431.88 M493.64 -420.07 C501.53 -424.91, 513.14 -427.38, 521.12 -428.42" stroke="#1e1e1e" stroke-width="4" fill="none"></path></g></g><mask></mask><g stroke-linecap="round"><g transform="translate(993.4815676270932 1230.8569706584412) rotate(0 264.305564770928 -85.15692565288904)"><path d="M-0.58 -1.14 C209.57 -63.79, 417.86 -132.81, 527.94 -170.38 M-0.21 0.06 C188.99 -59.69, 377.32 -120.37, 529.19 -170.03" stroke="#1e1e1e" stroke-width="4" fill="none"></path></g><g transform="translate(993.4815676270932 1230.8569706584412) rotate(0 264.305564770928 -85.15692565288904)"><path d="M504.11 -154.41 C514.97 -158.25, 521.22 -169.37, 527.85 -170.42 M505.04 -151.4 C514.92 -158.93, 523.96 -165.74, 530.97 -169.55" stroke="#1e1e1e" stroke-width="4" fill="none"></path></g><g transform="translate(993.4815676270932 1230.8569706584412) rotate(0 264.305564770928 -85.15692565288904)"><path d="M497.77 -173.92 C511.13 -169.92, 519.91 -173.3, 527.85 -170.42 M498.69 -170.91 C510.66 -171.46, 521.96 -171.32, 530.97 -169.55" stroke="#1e1e1e" stroke-width="4" fill="none"></path></g></g><mask></mask><g stroke-linecap="round"><g transform="translate(1522.2706374975858 1169.6682275242624) rotate(0 449.7949173330794 -4.455539543145335)"><path d="M1.4 -1.14 C348.47 -9.67, 695.72 -11.37, 899.98 -4.74 M-0.39 -0.66 C330.56 0.76, 660.29 -0.67, 899.08 -4.25" stroke="#1e1e1e" stroke-width="4" fill="none"></path></g></g><mask></mask><g transform="translate(1647.6080794370519 1185.2923288772688) rotate(0 28.385997772216797 22.5)"><text x="28.385997772216797" y="0" font-family="Virgil, Segoe UI Emoji" font-size="36px" fill="#1e1e1e" text-anchor="middle" style="white-space: pre;" direction="ltr" dominant-baseline="text-before-edge">105</text></g><g transform="translate(1886.0446406844037 1180.552658671837) rotate(0 98.02799987792969 22.5)"><text x="98.02799987792969" y="0" font-family="Virgil, Segoe UI Emoji" font-size="36px" fill="#1e1e1e" text-anchor="middle" style="white-space: pre;" direction="ltr" dominant-baseline="text-before-edge">2001-05-01</text></g><g transform="translate(2253.945347816604 1185.2923288772686) rotate(0 7.3979997634887695 22.5)"><text x="7.3979997634887695" y="0" font-family="Virgil, Segoe UI Emoji" font-size="36px" fill="#1e1e1e" text-anchor="middle" style="white-space: pre;" direction="ltr" dominant-baseline="text-before-edge">-</text></g><g stroke-linecap="round"><g transform="translate(986.3720623189455 1134.3274406930761) rotate(0 267.0753156146554 33.96188812894388)"><path d="M0.58 -1.33 C197.2 28.14, 396.25 55.65, 532.55 68.4 M0.32 0.79 C139.1 18.96, 279.6 37.03, 533.83 69.25" stroke="#1e1e1e" stroke-width="4" fill="none"></path></g><g transform="translate(986.3720623189455 1134.3274406930761) rotate(0 267.0753156146554 33.96188812894388)"><path d="M506.02 72.56 C512.83 71.13, 524.84 73.43, 532.19 68.45 M505.37 77.85 C510.86 74.78, 519.19 73.02, 535.38 70.57" stroke="#1e1e1e" stroke-width="4" fill="none"></path></g><g transform="translate(986.3720623189455 1134.3274406930761) rotate(0 267.0753156146554 33.96188812894388)"><path d="M508.61 52.2 C514.22 58.31, 525.26 68.2, 532.19 68.45 M507.96 57.49 C512.36 59.77, 520.02 63.36, 535.38 70.57" stroke="#1e1e1e" stroke-width="4" fill="none"></path></g></g><mask></mask><g stroke-linecap="round"><g transform="translate(993.4815676270931 1053.753047200736) rotate(0 265.89813803636576 36.80560336767269)"><path d="M1.09 -0.44 C175.15 21.08, 353.22 46.72, 529.43 74.19 M0.67 -0.58 C155.92 23.6, 309.92 46.38, 531.13 73.8" stroke="#1e1e1e" stroke-width="4" fill="none"></path></g><g transform="translate(993.4815676270931 1053.753047200736) rotate(0 265.89813803636576 36.80560336767269)"><path d="M504.59 79.26 C508.95 76.07, 524.08 77.13, 527.6 75.62 M503.52 78.91 C511.98 77.2, 518.62 78.68, 531.85 74.62" stroke="#1e1e1e" stroke-width="4" fill="none"></path></g><g transform="translate(993.4815676270931 1053.753047200736) rotate(0 265.89813803636576 36.80560336767269)"><path d="M507.21 58.91 C510.9 62.49, 525.16 70.3, 527.6 75.62 M506.15 58.55 C514.17 62.74, 520.05 70.16, 531.85 74.62" stroke="#1e1e1e" stroke-width="4" fill="none"></path></g></g><mask></mask><g stroke-linecap="round"><g transform="translate(2416.8690624720157 1203.590347575914) rotate(0 50.82968247773101 -0.7175113009288907)"><path d="M2.97 -3.16 C39.49 2.81, 72.88 0.01, 103.59 1.41 M-1.93 1.73 C30.16 -1.2, 60.37 -1.14, 103.3 0.54" stroke="#1e1e1e" stroke-width="4" fill="none"></path></g><g transform="translate(2416.8690624720157 1203.590347575914) rotate(0 50.82968247773101 -0.7175113009288907)"><path d="M77.78 6.82 C87.18 9.78, 93.52 4.06, 101.74 3.09 M72.89 11.7 C82.58 7.52, 90.51 5.16, 101.44 2.22" stroke="#1e1e1e" stroke-width="4" fill="none"></path></g><g transform="translate(2416.8690624720157 1203.590347575914) rotate(0 50.82968247773101 -0.7175113009288907)"><path d="M78.38 -13.7 C87.75 -3.49, 93.89 -1.98, 101.74 3.09 M73.49 -8.81 C83.31 -7.03, 91.06 -3.42, 101.44 2.22" stroke="#1e1e1e" stroke-width="4" fill="none"></path></g></g><mask></mask></svg>