<svg version="1.1" xmlns="http://www.w3.org/2000/svg" viewBox="0 0 2363.494384655697 892.0130558617624" width="4726.988769311394" height="1784.0261117235248">
  <!-- svg-source:excalidraw -->
  
  <defs>
    <style class="style-fonts">
      @font-face {
        font-family: "Virgil";
        src: url("https://excalidraw.com/Virgil.woff2");
      }
      @font-face {
        font-family: "Cascadia";
        src: url("https://excalidraw.com/Cascadia.woff2");
      }
    </style>
    
  </defs>
  <rect x="0" y="0" width="2363.494384655697" height="892.0130558617624" fill="#ffffff"></rect><g stroke-linecap="round" transform="translate(47.552980777322546 110.12296948911933) rotate(0 445.6693154088842 257.6334946610262)"><path d="M-0.74 -0.51 C192.26 6.07, 380.94 7.38, 890.24 0.85 M-0.65 0.19 C218.07 -1.29, 436.2 0.12, 891.46 0.16 M890.86 1.17 C896.38 165.79, 894.59 327.57, 890.63 516.48 M891.15 0.04 C895.58 104.18, 896.05 209.41, 891.13 515.08 M891.21 516.3 C551.96 522.03, 213.95 519.25, 0.61 513.68 M891.11 515.9 C621.89 522.69, 354.12 522.69, -0.42 515.6 M-1.17 514.34 C2.35 336.74, 1.21 159.61, 0.8 -1.1 M0.73 515.3 C-3.77 329.44, -3.4 145.14, 0.59 0.62" stroke="#1e1e1e" stroke-width="4" fill="none"></path></g><g stroke-linecap="round"><g transform="translate(352.8059365368323 107.6809458430431) rotate(0 -1.468172050802849 260.13594937400285)"><path d="M-0.31 -0.24 C-2.72 118.47, -4.42 239.52, -2.99 519.95 M0.03 -0.37 C1.25 172.47, 0.47 345.99, -2.68 520.64" stroke="#1e1e1e" stroke-width="4" fill="none"></path></g></g><mask></mask><g stroke-linecap="round"><g transform="translate(665.3849632345701 110.12296948911933) rotate(0 -0.8355213381298086 258.86570348890405)"><path d="M0.27 -0.71 C-2.72 140.43, -1.45 282.56, -1.53 517.78 M-0.22 -0.61 C-0.88 121.47, -0.21 241.72, -1.94 518.44" stroke="#1e1e1e" stroke-width="4" fill="none"></path></g></g><mask></mask><g stroke-linecap="round"><g transform="translate(49.995004423398655 195.593797101782) rotate(0 449.612800278468 -3.0039553640004897)"><path d="M0.52 0.74 C270.4 -3.09, 543.69 -4.09, 899.61 -5.42 M-0.39 0.48 C185.72 -7.57, 369.7 -8.06, 898.16 -5.02" stroke="#1e1e1e" stroke-width="4" fill="none"></path></g></g><mask></mask><g stroke-linecap="round"><g transform="translate(47.27253137685278 286.5106037245213) rotate(0 449.236574551044 -1.836733873106141)"><path d="M-1.18 0.53 C315.34 -3.76, 632.43 -4.87, 899.65 -3.85 M-0.32 0.12 C291.82 0.6, 582.14 -0.48, 898.2 -4.12" stroke="#1e1e1e" stroke-width="4" fill="none"></path></g></g><mask></mask><g stroke-linecap="round"><g transform="translate(49.714555022929005 362.2133367528796) rotate(0 449.98874448495917 -2.4740781706684345)"><path d="M-0.13 0.43 C203.84 2.82, 407.78 1.11, 900.11 -5.36 M0.02 -0.37 C234.51 -6.96, 468.74 -7.97, 897.93 -4.32" stroke="#1e1e1e" stroke-width="4" fill="none"></path></g></g><mask></mask><g stroke-linecap="round"><g transform="translate(52.156578669005 455.0102353037706) rotate(0 449.22259067515836 -2.8032201736680804)"><path d="M0.99 1.03 C262.61 -2.1, 523.99 -5.61, 898.91 -3.72 M-0.47 0.77 C271.88 -6.95, 544.72 -8.47, 897.98 -4.56" stroke="#1e1e1e" stroke-width="4" fill="none"></path></g></g><mask></mask><g stroke-linecap="round"><g transform="translate(52.156578669005 533.1549919782051) rotate(0 449.3421612027567 -2.4878372385994396)"><path d="M1.44 -0.48 C324.4 -3.25, 651.25 -5.22, 897.92 -3.83 M-0.74 0.56 C216.41 -0.05, 434.72 -1.02, 899.42 -5.54" stroke="#1e1e1e" stroke-width="4" fill="none"></path></g></g><mask></mask><g stroke-linecap="round" transform="translate(1347.200307224087 84.29908179348365) rotate(0 445.66931540888424 257.6334946610262)"><path d="M-0.63 1.13 C279.96 -0.63, 560.95 -1.78, 890.2 0.65 M-0.76 0.57 C219.97 -0.32, 438.01 -0.1, 891.11 0.65 M892.51 -0.12 C890.08 182.7, 888.77 363.3, 890.84 513.78 M892.03 -0.26 C889.44 109.35, 890.9 218.95, 891.77 515.11 M890.64 515.7 C568.62 517.77, 243.63 518.67, 0.9 513.99 M891.29 515.61 C555.52 508.04, 220.59 509.09, -0.37 514.8 M0.07 514.35 C-1.81 313.32, -3.38 111.76, -0.84 0.04 M0.01 515.57 C4.69 354.99, 4.66 196.64, 0.38 0.08" stroke="#1e1e1e" stroke-width="4" fill="none"></path></g><g stroke-linecap="round"><g transform="translate(1652.453262983597 81.85705814740743) rotate(0 -1.9112424186512271 260.97377468833093)"><path d="M-0.96 1.2 C-3.33 169.44, -4.37 339.42, -3.3 521.43 M0.6 0.52 C-5.43 162.91, -5.69 324.98, -2.01 519.75" stroke="#1e1e1e" stroke-width="4" fill="none"></path></g></g><mask></mask><g stroke-linecap="round"><g transform="translate(1965.0322896813348 84.29908179348365) rotate(0 -1.495781864650212 259.17264783309673)"><path d="M-0.89 0.05 C-4.54 192.42, -5.17 384.81, -2.25 516.19 M-0.72 0.74 C2 192.84, 1.74 383.97, -1.97 518.3" stroke="#1e1e1e" stroke-width="4" fill="none"></path></g></g><mask></mask><g stroke-linecap="round"><g transform="translate(1349.6423308701633 169.7699094061462) rotate(0 449.334093710361 -3.4873659378590105)"><path d="M-1.14 0.65 C336.2 -0.78, 674.28 -5.4, 899.8 -3.68 M-0.22 0.65 C328.12 -8.83, 655.82 -9.62, 898.6 -4.48" stroke="#1e1e1e" stroke-width="4" fill="none"></path></g></g><mask></mask><g stroke-linecap="round"><g transform="translate(1346.9198578236176 260.6867160288856) rotate(0 449.4179989780765 -2.9916405769727703)"><path d="M-0.86 1.28 C272.61 -5.91, 545.96 -4.67, 899.7 -6.32 M0.43 -0.4 C353.18 -7.18, 705.34 -9.28, 898.95 -5.14" stroke="#1e1e1e" stroke-width="4" fill="none"></path></g></g><mask></mask><g stroke-linecap="round"><g transform="translate(1349.3618814696936 336.38944905724395) rotate(0 450.1660567726474 -3.32176938649161)"><path d="M0.19 -1.52 C307.19 -6.21, 613.12 -10.52, 900.14 -5.33 M0.48 0.59 C342.7 2.15, 685.83 -0.37, 898.19 -5.13" stroke="#1e1e1e" stroke-width="4" fill="none"></path></g></g><mask></mask><g stroke-linecap="round"><g transform="translate(1351.8039051157696 429.18634760813495) rotate(0 449.9528275511692 -2.163095393164042)"><path d="M1.14 1.21 C342.51 3.52, 684.43 2.65, 899.97 -4.03 M-0.06 0.4 C224.78 -6.74, 448.53 -7.96, 897.92 -5.59" stroke="#1e1e1e" stroke-width="4" fill="none"></path></g></g><mask></mask><g stroke-linecap="round"><g transform="translate(1351.8039051157696 507.33110428256936) rotate(0 449.3595071035902 -3.340243559438619)"><path d="M1.03 -1.44 C185.87 -6.88, 370.11 -6.58, 897.86 -3.93 M0.29 -0.25 C335.01 -5.7, 670.22 -7.98, 898.43 -5.32" stroke="#1e1e1e" stroke-width="4" fill="none"></path></g></g><mask></mask><g transform="translate(150.11797391251798 132.10118230380397) rotate(0 63.36000061035156 22.5)"><text x="63.36000061035156" y="0" font-family="Virgil, Segoe UI Emoji" font-size="36px" fill="#1e1e1e" text-anchor="middle" style="white-space: pre;" direction="ltr" dominant-baseline="text-before-edge">emp_no</text></g><g transform="translate(414.6434763393946 134.54320594988008) rotate(0 96.89399719238281 22.5)"><text x="96.89399719238281" y="0" font-family="Virgil, Segoe UI Emoji" font-size="36px" fill="#1e1e1e" text-anchor="middle" style="white-space: pre;" direction="ltr" dominant-baseline="text-before-edge">first_name</text></g><g transform="translate(794.7402876513419 129.42725324203218) rotate(0 7.3979997634887695 22.5)"><text x="7.3979997634887695" y="0" font-family="Virgil, Segoe UI Emoji" font-size="36px" fill="#1e1e1e" text-anchor="middle" style="white-space: pre;" direction="ltr" dominant-baseline="text-before-edge">-</text></g><g transform="translate(792.2982640052657 207.28212814684719) rotate(0 7.3979997634887695 22.5)"><text x="7.3979997634887695" y="0" font-family="Virgil, Segoe UI Emoji" font-size="36px" fill="#1e1e1e" text-anchor="middle" style="white-space: pre;" direction="ltr" dominant-baseline="text-before-edge">-</text></g><g transform="translate(794.7402876513419 292.75295575950975) rotate(0 7.3979997634887695 22.5)"><text x="7.3979997634887695" y="0" font-family="Virgil, Segoe UI Emoji" font-size="36px" fill="#1e1e1e" text-anchor="middle" style="white-space: pre;" direction="ltr" dominant-baseline="text-before-edge">-</text></g><g transform="translate(794.7402876513419 375.7817597260963) rotate(0 7.3979997634887695 22.5)"><text x="7.3979997634887695" y="0" font-family="Virgil, Segoe UI Emoji" font-size="36px" fill="#1e1e1e" text-anchor="middle" style="white-space: pre;" direction="ltr" dominant-baseline="text-before-edge">-</text></g><g transform="translate(792.2982640052657 461.2525873387593) rotate(0 7.3979997634887695 22.5)"><text x="7.3979997634887695" y="0" font-family="Virgil, Segoe UI Emoji" font-size="36px" fill="#1e1e1e" text-anchor="middle" style="white-space: pre;" direction="ltr" dominant-baseline="text-before-edge">-</text></g><g transform="translate(799.6243349434939 551.6074622435741) rotate(0 7.3979997634887695 22.5)"><text x="7.3979997634887695" y="0" font-family="Virgil, Segoe UI Emoji" font-size="36px" fill="#1e1e1e" text-anchor="middle" style="white-space: pre;" direction="ltr" dominant-baseline="text-before-edge">-</text></g><g transform="translate(2089.0128200716626 94.94904042734743) rotate(0 7.3979997634887695 22.5)"><text x="7.3979997634887695" y="0" font-family="Virgil, Segoe UI Emoji" font-size="36px" fill="#1e1e1e" text-anchor="middle" style="white-space: pre;" direction="ltr" dominant-baseline="text-before-edge">-</text></g><g transform="translate(2091.454843717739 182.86189168608632) rotate(0 7.3979997634887695 22.5)"><text x="7.3979997634887695" y="0" font-family="Virgil, Segoe UI Emoji" font-size="36px" fill="#1e1e1e" text-anchor="middle" style="white-space: pre;" direction="ltr" dominant-baseline="text-before-edge">-</text></g><g transform="translate(2089.0128200716626 265.8906956526729) rotate(0 7.3979997634887695 22.5)"><text x="7.3979997634887695" y="0" font-family="Virgil, Segoe UI Emoji" font-size="36px" fill="#1e1e1e" text-anchor="middle" style="white-space: pre;" direction="ltr" dominant-baseline="text-before-edge">-</text></g><g transform="translate(2084.1287727795107 351.3615232653357) rotate(0 7.3979997634887695 22.5)"><text x="7.3979997634887695" y="0" font-family="Virgil, Segoe UI Emoji" font-size="36px" fill="#1e1e1e" text-anchor="middle" style="white-space: pre;" direction="ltr" dominant-baseline="text-before-edge">-</text></g><g transform="translate(2086.570796425587 434.39032723192224) rotate(0 7.3979997634887695 22.5)"><text x="7.3979997634887695" y="0" font-family="Virgil, Segoe UI Emoji" font-size="36px" fill="#1e1e1e" text-anchor="middle" style="white-space: pre;" direction="ltr" dominant-baseline="text-before-edge">-</text></g><g transform="translate(2084.1287727795107 517.419131198509) rotate(0 7.3979997634887695 22.5)"><text x="7.3979997634887695" y="0" font-family="Virgil, Segoe UI Emoji" font-size="36px" fill="#1e1e1e" text-anchor="middle" style="white-space: pre;" direction="ltr" dominant-baseline="text-before-edge">-</text></g><g transform="translate(181.70249473654314 220.01403356254275) rotate(0 22.139999389648438 22.5)"><text x="22.139999389648438" y="0" font-family="Virgil, Segoe UI Emoji" font-size="36px" fill="#1e1e1e" text-anchor="middle" style="white-space: pre;" direction="ltr" dominant-baseline="text-before-edge">101</text></g><g transform="translate(176.20651865727734 300.07902669773785) rotate(0 30.077999114990234 22.5)"><text x="30.077999114990234" y="0" font-family="Virgil, Segoe UI Emoji" font-size="36px" fill="#1e1e1e" text-anchor="middle" style="white-space: pre;" direction="ltr" dominant-baseline="text-before-edge">102</text></g><g transform="translate(174.3224936684279 383.10783066432464) rotate(0 29.520000457763672 22.5)"><text x="29.520000457763672" y="0" font-family="Virgil, Segoe UI Emoji" font-size="36px" fill="#1e1e1e" text-anchor="middle" style="white-space: pre;" direction="ltr" dominant-baseline="text-before-edge">103</text></g><g transform="translate(172.61847089210278 471.0206819230634) rotate(0 28.781999588012695 22.5)"><text x="28.781999588012695" y="0" font-family="Virgil, Segoe UI Emoji" font-size="36px" fill="#1e1e1e" text-anchor="middle" style="white-space: pre;" direction="ltr" dominant-baseline="text-before-edge">104</text></g><g transform="translate(177.89852000005078 554.0494858896501) rotate(0 28.385997772216797 22.5)"><text x="28.385997772216797" y="0" font-family="Virgil, Segoe UI Emoji" font-size="36px" fill="#1e1e1e" text-anchor="middle" style="white-space: pre;" direction="ltr" dominant-baseline="text-before-edge">105</text></g><g transform="translate(489.9613793365721 227.34010450077096) rotate(0 11.807999610900879 22.5)"><text x="11.807999610900879" y="0" font-family="Virgil, Segoe UI Emoji" font-size="36px" fill="#1e1e1e" text-anchor="middle" style="white-space: pre;" direction="ltr" dominant-baseline="text-before-edge">A</text></g><g transform="translate(486.2413548588921 298.1587902369772) rotate(0 13.086000442504883 22.5)"><text x="13.086000442504883" y="0" font-family="Virgil, Segoe UI Emoji" font-size="36px" fill="#1e1e1e" text-anchor="middle" style="white-space: pre;" direction="ltr" dominant-baseline="text-before-edge">B</text></g><g transform="translate(487.7353552937676 386.0716414957161) rotate(0 11.592000007629395 22.5)"><text x="11.592000007629395" y="0" font-family="Virgil, Segoe UI Emoji" font-size="36px" fill="#1e1e1e" text-anchor="middle" style="white-space: pre;" direction="ltr" dominant-baseline="text-before-edge">C</text></g><g transform="translate(480.40330804739176 478.868540046607) rotate(0 14.039999961853027 22.5)"><text x="14.039999961853027" y="0" font-family="Virgil, Segoe UI Emoji" font-size="36px" fill="#1e1e1e" text-anchor="middle" style="white-space: pre;" direction="ltr" dominant-baseline="text-before-edge">D</text></g><g transform="translate(482.31130803976237 557.0132967210415) rotate(0 12.131999969482422 22.5)"><text x="12.131999969482422" y="0" font-family="Virgil, Segoe UI Emoji" font-size="36px" fill="#1e1e1e" text-anchor="middle" style="white-space: pre;" direction="ltr" dominant-baseline="text-before-edge">E</text></g><g stroke-linecap="round"><g transform="translate(325.94367642999543 298.1587902369772) rotate(0 -0.5502121970686176 291.3515283296524)"><path d="M0.73 -1.15 C0.82 192.11, -2.14 381.11, -3.58 582.2 M0.06 -0.15 C3.96 140.86, 3.28 282.97, -2.97 583.85" stroke="#1971c2" stroke-width="4" fill="none"></path></g><g transform="translate(325.94367642999543 298.1587902369772) rotate(0 -0.5502121970686176 291.3515283296524)"><path d="M-10.9 552.61 C-6.5 567.48, -8.71 571.91, -5.81 580.24 M-12.56 555.11 C-8.91 561.4, -6.78 570.33, -4.28 584.38" stroke="#1971c2" stroke-width="4" fill="none"></path></g><g transform="translate(325.94367642999543 298.1587902369772) rotate(0 -0.5502121970686176 291.3515283296524)"><path d="M9.62 552.97 C7.31 568.07, -1.62 572.37, -5.81 580.24 M7.96 555.47 C6.63 561.49, 3.8 570.33, -4.28 584.38" stroke="#1971c2" stroke-width="4" fill="none"></path></g></g><mask></mask><g transform="translate(10 681.5565026709213) rotate(0 142.55999755859375 22.5)"><text x="142.55999755859375" y="0" font-family="Virgil, Segoe UI Emoji" font-size="36px" fill="#1971c2" text-anchor="middle" style="white-space: pre;" direction="ltr" dominant-baseline="text-before-edge">정렬된 인덱스 스캔</text></g><g transform="translate(1473.533003510788 180.4198680400101) rotate(0 22.139999389648438 22.5)"><text x="22.139999389648438" y="0" font-family="Virgil, Segoe UI Emoji" font-size="36px" fill="#1e1e1e" text-anchor="middle" style="white-space: pre;" direction="ltr" dominant-baseline="text-before-edge">101</text></g><g transform="translate(1458.2689328472181 263.4486720065969) rotate(0 30.077999114990234 22.5)"><text x="30.077999114990234" y="0" font-family="Virgil, Segoe UI Emoji" font-size="36px" fill="#1e1e1e" text-anchor="middle" style="white-space: pre;" direction="ltr" dominant-baseline="text-before-edge">102</text></g><g transform="translate(1463.1529801393701 351.3615232653357) rotate(0 30.077999114990234 22.5)"><text x="30.077999114990234" y="0" font-family="Virgil, Segoe UI Emoji" font-size="36px" fill="#1e1e1e" text-anchor="middle" style="white-space: pre;" direction="ltr" dominant-baseline="text-before-edge">102</text></g><g transform="translate(1466.1530024426731 441.7163981701507) rotate(0 29.520000457763672 22.5)"><text x="29.520000457763672" y="0" font-family="Virgil, Segoe UI Emoji" font-size="36px" fill="#1e1e1e" text-anchor="middle" style="white-space: pre;" direction="ltr" dominant-baseline="text-before-edge">103</text></g><g transform="translate(1466.8910033124237 527.1872257828132) rotate(0 28.781999588012695 22.5)"><text x="28.781999588012695" y="0" font-family="Virgil, Segoe UI Emoji" font-size="36px" fill="#1e1e1e" text-anchor="middle" style="white-space: pre;" direction="ltr" dominant-baseline="text-before-edge">104</text></g><g transform="translate(1422.5449077057804 110.1229694891191) rotate(0 63.36000061035156 22.5)"><text x="63.36000061035156" y="0" font-family="Virgil, Segoe UI Emoji" font-size="36px" fill="#1e1e1e" text-anchor="middle" style="white-space: pre;" direction="ltr" dominant-baseline="text-before-edge">emp_no</text></g><g transform="translate(1705.939958598911 115.00701678127143) rotate(0 94.98600006103516 22.5)"><text x="94.98600006103516" y="0" font-family="Virgil, Segoe UI Emoji" font-size="36px" fill="#1e1e1e" text-anchor="middle" style="white-space: pre;" direction="ltr" dominant-baseline="text-before-edge">from_date</text></g><g transform="translate(375.0849488625371 19.768094584304322) rotate(0 82.7280044555664 22.5)"><text x="82.7280044555664" y="0" font-family="Virgil, Segoe UI Emoji" font-size="36px" fill="#1e1e1e" text-anchor="middle" style="white-space: pre;" direction="ltr" dominant-baseline="text-before-edge">employees</text></g><g transform="translate(1728.6619287882843 10) rotate(0 69.82200622558594 22.5)"><text x="69.82200622558594" y="0" font-family="Virgil, Segoe UI Emoji" font-size="36px" fill="#1e1e1e" text-anchor="middle" style="white-space: pre;" direction="ltr" dominant-baseline="text-before-edge">salaries</text></g><g transform="translate(1711.7359638479345 188.26772616355368) rotate(0 89.18999481201172 22.5)"><text x="89.18999481201172" y="0" font-family="Virgil, Segoe UI Emoji" font-size="36px" fill="#1e1e1e" text-anchor="middle" style="white-space: pre;" direction="ltr" dominant-baseline="text-before-edge">1999-07-17</text></g><g transform="translate(1695.6499353800812 265.8906956526729) rotate(0 102.83399963378906 22.5)"><text x="102.83399963378906" y="0" font-family="Virgil, Segoe UI Emoji" font-size="36px" fill="#1e1e1e" text-anchor="middle" style="white-space: pre;" direction="ltr" dominant-baseline="text-before-edge">2000-07-15</text></g><g transform="translate(1687.465907339474 353.8035469114117) rotate(0 108.57600402832031 22.5)"><text x="108.57600402832031" y="0" font-family="Virgil, Segoe UI Emoji" font-size="36px" fill="#1e1e1e" text-anchor="middle" style="white-space: pre;" direction="ltr" dominant-baseline="text-before-edge">1988-02-20</text></g><g transform="translate(1711.5559559133642 441.71639817015046) rotate(0 89.37000274658203 22.5)"><text x="89.37000274658203" y="0" font-family="Virgil, Segoe UI Emoji" font-size="36px" fill="#1e1e1e" text-anchor="middle" style="white-space: pre;" direction="ltr" dominant-baseline="text-before-edge">1992-01-21</text></g><g transform="translate(1688.8460014354966 524.7452021367372) rotate(0 116.96400451660156 22.5)"><text x="116.96400451660156" y="0" font-family="Virgil, Segoe UI Emoji" font-size="36px" fill="#1e1e1e" text-anchor="middle" style="white-space: pre;" direction="ltr" dominant-baseline="text-before-edge">19870-08-26</text></g><g stroke-linecap="round"><g transform="translate(951.1017298254714 325.02105034381407) rotate(0 187.12956214485098 25.79415162266838)"><path d="M0.37 -0.22 C147.65 17.28, 297.01 36.7, 373.03 49.26 M-0.02 -0.06 C144.28 19.27, 290.99 38.8, 374.27 51.81" stroke="#1e1e1e" stroke-width="4" fill="none"></path></g><g transform="translate(951.1017298254714 325.02105034381407) rotate(0 187.12956214485098 25.79415162266838)"><path d="M345.5 57.49 C354.73 53.57, 367.14 49.46, 373.28 48.46 M344.86 57.75 C355.1 56.39, 368.92 53.35, 375.34 52.68" stroke="#1e1e1e" stroke-width="4" fill="none"></path></g><g transform="translate(951.1017298254714 325.02105034381407) rotate(0 187.12956214485098 25.79415162266838)"><path d="M348.48 37.19 C356.44 41.39, 367.66 45.38, 373.28 48.46 M347.85 37.45 C356.79 43.99, 369.44 48.85, 375.34 52.68" stroke="#1e1e1e" stroke-width="4" fill="none"></path></g></g><mask></mask><g stroke-linecap="round"><g transform="translate(948.6597061793954 315.8403257484782) rotate(0 197.1455391152602 -9.08709448624603)"><path d="M1.08 0.12 C100.3 -4.1, 199.11 -9.88, 393.46 -16.54 M0.83 -1.1 C119.55 -8.95, 238.19 -14.55, 391.86 -18.29" stroke="#1e1e1e" stroke-width="4" fill="none"></path></g><g transform="translate(948.6597061793954 315.8403257484782) rotate(0 197.1455391152602 -9.08709448624603)"><path d="M365.84 -6.99 C374.24 -10.86, 381.96 -15.67, 393.24 -15.08 M365.43 -9.09 C373.57 -11.49, 381.51 -14.9, 390.47 -18.11" stroke="#1e1e1e" stroke-width="4" fill="none"></path></g><g transform="translate(948.6597061793954 315.8403257484782) rotate(0 197.1455391152602 -9.08709448624603)"><path d="M365.23 -27.5 C373.7 -26.23, 381.57 -25.9, 393.24 -15.08 M364.82 -29.61 C373.32 -25.8, 381.45 -22.99, 390.47 -18.11" stroke="#1e1e1e" stroke-width="4" fill="none"></path></g></g><mask></mask><g stroke-linecap="round"><g transform="translate(941.3336352411669 412.93390160255296) rotate(0 200.33429557773343 26.22492358298203)"><path d="M-1.77 1.78 C133.58 19.61, 271 35.58, 402.43 53.44 M-0.02 -0.99 C115.07 11.94, 231.68 25.63, 399.71 50.27" stroke="#1e1e1e" stroke-width="4" fill="none"></path></g><g transform="translate(941.3336352411669 412.93390160255296) rotate(0 200.33429557773343 26.22492358298203)"><path d="M367.21 59.68 C378.04 57.6, 392.92 53.25, 403.18 54.12 M370.33 54.74 C377.09 55, 386.52 51.09, 398.32 48.46" stroke="#1e1e1e" stroke-width="4" fill="none"></path></g><g transform="translate(941.3336352411669 412.93390160255296) rotate(0 200.33429557773343 26.22492358298203)"><path d="M370.07 39.36 C380.07 44.1, 393.99 46.58, 403.18 54.12 M373.18 34.42 C379.11 40.61, 387.71 42.59, 398.32 48.46" stroke="#1e1e1e" stroke-width="4" fill="none"></path></g></g><mask></mask><g stroke-linecap="round"><g transform="translate(941.3336352411669 493.52068192306353) rotate(0 198.11228941823072 29.079821018766296)"><path d="M-0.89 1.33 C128.52 20.03, 259.41 40.55, 397.12 58.72 M-0.71 -0.89 C114.12 14.49, 227.85 32.61, 396.24 59.05" stroke="#1e1e1e" stroke-width="4" fill="none"></path></g><g transform="translate(941.3336352411669 493.52068192306353) rotate(0 198.11228941823072 29.079821018766296)"><path d="M365.22 67.16 C372.84 60.83, 384.05 61.15, 398.9 59.25 M365.55 63.25 C375.39 61.99, 383.52 62.53, 397.35 59.82" stroke="#1e1e1e" stroke-width="4" fill="none"></path></g><g transform="translate(941.3336352411669 493.52068192306353) rotate(0 198.11228941823072 29.079821018766296)"><path d="M368.41 46.88 C375.29 47.19, 385.45 54.17, 398.9 59.25 M368.73 42.97 C377.73 47.59, 384.94 53.96, 397.35 59.82" stroke="#1e1e1e" stroke-width="4" fill="none"></path></g></g><mask></mask><g stroke-linecap="round"><g transform="translate(2242.932238599716 290.8327192987514) rotate(0 54.04446679702892 -0.09946892711559485)"><path d="M-0.14 -1.38 C39.26 4.46, 72.14 1.79, 107.64 1.57 M-0.59 -1.53 C28.83 -2.97, 57.15 -2.98, 108.68 -1.11" stroke="#1e1e1e" stroke-width="4" fill="none"></path></g><g transform="translate(2242.932238599716 290.8327192987514) rotate(0 54.04446679702892 -0.09946892711559485)"><path d="M80.06 6.95 C91.45 8.36, 96.39 2.45, 106.43 0.47 M79.61 6.79 C87.41 3.89, 93.97 1.36, 107.47 -2.22" stroke="#1e1e1e" stroke-width="4" fill="none"></path></g><g transform="translate(2242.932238599716 290.8327192987514) rotate(0 54.04446679702892 -0.09946892711559485)"><path d="M80.66 -13.57 C92 -5.13, 96.73 -3.99, 106.43 0.47 M80.21 -13.72 C87.55 -11.13, 93.96 -8.18, 107.47 -2.22" stroke="#1e1e1e" stroke-width="4" fill="none"></path></g></g><mask></mask><g stroke-linecap="round"><g transform="translate(2237.728244724209 364.1928976081492) rotate(0 54.693034939234394 0.07719107124967195)"><path d="M0.33 -0.55 C22.89 -0.33, 47.71 -0.3, 107.35 -1 M-1.42 -1.61 C34.2 2.24, 68.47 2.28, 110.8 1.04" stroke="#1e1e1e" stroke-width="4" fill="none"></path></g><g transform="translate(2237.728244724209 364.1928976081492) rotate(0 54.693034939234394 0.07719107124967195)"><path d="M83.15 11.3 C87.14 9.14, 93.2 6.7, 108.26 0.03 M81.4 10.23 C92.18 9.98, 101.67 6.74, 111.72 2.07" stroke="#1e1e1e" stroke-width="4" fill="none"></path></g><g transform="translate(2237.728244724209 364.1928976081492) rotate(0 54.693034939234394 0.07719107124967195)"><path d="M82.75 -9.22 C86.46 -6.68, 92.61 -4.42, 108.26 0.03 M81 -10.28 C92 -4.33, 101.61 -1.35, 111.72 2.07" stroke="#1e1e1e" stroke-width="4" fill="none"></path></g></g><mask></mask><g stroke-linecap="round"><g transform="translate(2242.6122920163602 471.64193803549665) rotate(0 55.34166327281787 -0.336092178709805)"><path d="M-0.2 -2.64 C33.72 -1.29, 66.76 1.36, 110.88 -2.06 M1.11 1.97 C26.33 -0.13, 51.39 0.59, 109.02 -1.8" stroke="#1e1e1e" stroke-width="4" fill="none"></path></g><g transform="translate(2242.6122920163602 471.64193803549665) rotate(0 55.34166327281787 -0.336092178709805)"><path d="M80.99 6.76 C89.64 3.72, 97.38 2.92, 110.02 -3.86 M82.31 11.36 C88.9 7.48, 95.16 5.63, 108.16 -3.6" stroke="#1e1e1e" stroke-width="4" fill="none"></path></g><g transform="translate(2242.6122920163602 471.64193803549665) rotate(0 55.34166327281787 -0.336092178709805)"><path d="M80.31 -13.75 C89.11 -10.46, 97.06 -4.94, 110.02 -3.86 M81.62 -9.15 C88.04 -8.33, 94.46 -5.49, 108.16 -3.6" stroke="#1e1e1e" stroke-width="4" fill="none"></path></g></g><mask></mask><g stroke-linecap="round"><g transform="translate(2240.1702683702847 552.2287183560072) rotate(0 53.01977414707585 0.20369958317985493)"><path d="M-2.54 -1 C32.52 1.08, 62.78 -2.75, 106.67 1.89 M0.91 1.04 C40.71 -2.13, 76.37 -2.31, 108.58 0.48" stroke="#1e1e1e" stroke-width="4" fill="none"></path></g><g transform="translate(2240.1702683702847 552.2287183560072) rotate(0 53.01977414707585 0.20369958317985493)"><path d="M77.31 8.12 C88.55 7.59, 94.86 1.21, 105.36 2.37 M80.76 10.16 C91.52 4.85, 98.32 1.6, 107.27 0.97" stroke="#1e1e1e" stroke-width="4" fill="none"></path></g><g transform="translate(2240.1702683702847 552.2287183560072) rotate(0 53.01977414707585 0.20369958317985493)"><path d="M78.48 -12.37 C89.1 -6.86, 95.07 -7.19, 105.36 2.37 M81.93 -10.33 C92.68 -8.34, 99.06 -4.3, 107.27 0.97" stroke="#1e1e1e" stroke-width="4" fill="none"></path></g></g><mask></mask></svg>