<svg version="1.1" xmlns="http://www.w3.org/2000/svg" viewBox="0 0 3012.0710213074926 1704.058537770251" width="6024.142042614985" height="3408.117075540502">
  <!-- svg-source:excalidraw -->
  
  <defs>
    <style class="style-fonts">
      @font-face {
        font-family: "Virgil";
        src: url("https://excalidraw.com/Virgil.woff2");
      }
      @font-face {
        font-family: "Cascadia";
        src: url("https://excalidraw.com/Cascadia.woff2");
      }
    </style>
    
  </defs>
  <rect x="0" y="0" width="3012.0710213074926" height="1704.058537770251" fill="#ffffff"></rect><g stroke-linecap="round" transform="translate(382.41271059449514 170.68717143810716) rotate(0 448.4970278127253 293.325065065019)"><path d="M32 0 M32 0 C326.45 -1.13, 618.73 -1.61, 864.99 0 M32 0 C317.74 -0.24, 604.41 -0.35, 864.99 0 M864.99 0 C884.9 0.23, 896.49 11.26, 896.99 32 M864.99 0 C884.73 2.09, 897.29 12.44, 896.99 32 M896.99 32 C896.74 186.5, 897.79 343.05, 896.99 554.65 M896.99 32 C894.85 233.88, 895.21 436.5, 896.99 554.65 M896.99 554.65 C897.55 577.55, 884.68 586.07, 864.99 586.65 M896.99 554.65 C895.41 577.26, 884.26 587.22, 864.99 586.65 M864.99 586.65 C688.36 589.97, 512.84 589.53, 32 586.65 M864.99 586.65 C596.01 588.19, 326.47 587.78, 32 586.65 M32 586.65 C11.57 588.36, 0.27 575.62, 0 554.65 M32 586.65 C9.33 586.89, 1.07 575.3, 0 554.65 M0 554.65 C-1.22 439.17, -0.96 323.47, 0 32 M0 554.65 C-2.18 449.03, -2.1 343.71, 0 32 M0 32 C-0.96 9.29, 10.26 1.73, 32 0 M0 32 C0.16 12.3, 12.52 -0.31, 32 0" stroke="#1e1e1e" stroke-width="1" fill="none"></path></g><g stroke-linecap="round" transform="translate(10 364.90240223201056) rotate(0 149.16530612521444 89.09873990029587)"><path d="M83.12 8.81 C96.66 3.22, 116.6 0.56, 133.44 -0.4 C150.29 -1.37, 167.75 0.29, 184.2 3.03 C200.65 5.76, 217.76 10.26, 232.15 16.02 C246.54 21.77, 260.32 29.45, 270.54 37.56 C280.75 45.67, 289.02 55.02, 293.46 64.68 C297.89 74.33, 298.39 85.36, 297.16 95.49 C295.93 105.62, 293 116.27, 286.09 125.44 C279.17 134.61, 267.7 143.17, 255.65 150.49 C243.6 157.82, 228.85 165.01, 213.79 169.38 C198.73 173.75, 182.11 175.76, 165.28 176.72 C148.45 177.67, 129.52 177.22, 112.81 175.09 C96.1 172.96, 78.91 169.57, 65.01 163.94 C51.1 158.32, 39.15 149.57, 29.38 141.32 C19.6 133.08, 11.18 124.14, 6.36 114.48 C1.55 104.81, -0.58 93.6, 0.49 83.34 C1.56 73.07, 5.8 62.37, 12.79 52.89 C19.77 43.42, 28.49 34.49, 42.39 26.51 C56.29 18.53, 84.89 8.61, 96.2 5.01 C107.52 1.4, 109.26 3.49, 110.3 4.9 M106.43 5.23 C120.88 0.77, 139.95 -1.41, 156.79 -1.02 C173.62 -0.62, 191.6 3.49, 207.44 7.6 C223.28 11.71, 239.14 16.87, 251.81 23.63 C264.48 30.39, 276.04 38.75, 283.46 48.16 C290.89 57.57, 294.35 69.76, 296.36 80.1 C298.37 90.43, 299.43 100.62, 295.52 110.17 C291.61 119.72, 282.4 129.06, 272.89 137.38 C263.39 145.7, 251.84 153.91, 238.48 160.09 C225.12 166.26, 209.28 171.57, 192.72 174.44 C176.16 177.31, 156.37 177.95, 139.14 177.31 C121.92 176.68, 104.97 174.35, 89.36 170.61 C73.76 166.86, 57.55 161.58, 45.51 154.84 C33.48 148.09, 24.6 139.52, 17.16 130.14 C9.72 120.76, 3.17 108.96, 0.89 98.59 C-1.4 88.22, -0.53 77.4, 3.46 67.91 C7.45 58.42, 15.27 50.18, 24.84 41.65 C34.4 33.13, 47.04 23.08, 60.85 16.78 C74.65 10.49, 99.74 5.64, 107.67 3.87 C115.6 2.11, 107.98 4.76, 108.45 6.17" stroke="#1e1e1e" stroke-width="1" fill="none"></path></g><g transform="translate(82.0775071345893 431.4988189536308) rotate(0 77.11199951171875 22.5)"><text x="77.11199951171875" y="0" font-family="Virgil, Segoe UI Emoji" font-size="36px" fill="#1e1e1e" text-anchor="middle" style="white-space: pre;" direction="ltr" dominant-baseline="text-before-edge">GC Root</text></g><g stroke-linecap="round" transform="translate(540.5880016534475 278.8069906429606) rotate(0 85.0943021519679 71.07877003282033)"><path d="M87 -0.04 C98.05 -0.59, 111.3 3.47, 121.84 7.56 C132.39 11.64, 142.97 17.1, 150.29 24.46 C157.62 31.81, 162.6 42.4, 165.79 51.68 C168.99 60.97, 170.7 70.74, 169.45 80.16 C168.19 89.59, 164.5 99.89, 158.27 108.24 C152.03 116.6, 141.62 124.95, 132.03 130.28 C122.45 135.6, 111.98 138.6, 100.74 140.19 C89.51 141.78, 75.92 141.85, 64.63 139.82 C53.34 137.78, 42.12 133.92, 33.01 127.98 C23.89 122.04, 15.25 112.69, 9.93 104.16 C4.62 95.64, 1.77 86.45, 1.1 76.85 C0.42 67.26, 2.26 55.76, 5.89 46.58 C9.51 37.4, 15.06 28.6, 22.87 21.79 C30.68 14.98, 40.43 9.2, 52.73 5.7 C65.04 2.19, 88.3 1.16, 96.69 0.77 C105.08 0.38, 103.35 2.2, 103.06 3.37 M103.56 1.84 C114.47 3, 125.22 8.66, 134.63 14.36 C144.04 20.05, 154.04 27.75, 160.01 36.01 C165.98 44.27, 169.65 54.4, 170.45 63.91 C171.25 73.43, 168.73 83.75, 164.83 93.12 C160.93 102.49, 154.86 112.99, 147.06 120.11 C139.26 127.23, 128.6 132.32, 118.04 135.84 C107.48 139.35, 95.17 141.06, 83.72 141.2 C72.26 141.34, 59.78 140.35, 49.29 136.69 C38.8 133.03, 28.15 126.65, 20.77 119.26 C13.39 111.86, 8.56 101.38, 5.01 92.32 C1.45 83.26, -1.5 74.61, -0.57 64.88 C0.36 55.15, 4.56 42.54, 10.59 33.95 C16.63 25.36, 26.28 18.84, 35.63 13.35 C44.98 7.86, 55.43 2.9, 66.7 1.01 C77.96 -0.87, 97.11 1.58, 103.21 2.04 C109.31 2.5, 103.51 2.8, 103.3 3.77" stroke="#1e1e1e" stroke-width="1" fill="none"></path></g><g stroke-linecap="round" transform="translate(829.9086289701386 464.01223650312613) rotate(0 85.0943021519679 71.07877003282033)"><path d="M53.21 4.71 C63.05 0.44, 76.64 0.37, 88.02 0.63 C99.41 0.9, 111.06 2.32, 121.54 6.29 C132.01 10.26, 143.49 16.93, 150.87 24.44 C158.24 31.94, 162.7 42.06, 165.78 51.31 C168.86 60.56, 170.78 70.38, 169.35 79.92 C167.92 89.45, 163.2 100.13, 157.21 108.51 C151.22 116.89, 142.8 124.7, 133.42 130.2 C124.04 135.7, 112.41 139.92, 100.93 141.5 C89.46 143.08, 75.91 142.12, 64.57 139.68 C53.24 137.24, 41.85 132.69, 32.91 126.85 C23.97 121, 16.43 112.84, 10.93 104.6 C5.43 96.36, 0.99 87.07, -0.09 77.4 C-1.17 67.73, 0.6 55.94, 4.46 46.58 C8.31 37.23, 14.51 28.21, 23.05 21.27 C31.59 14.33, 49.26 7.68, 55.71 4.96 C62.16 2.25, 61.19 4.09, 61.75 5 M96.84 1.44 C108.16 1.54, 122.38 6, 132.03 10.84 C141.68 15.69, 148.78 22.63, 154.73 30.52 C160.67 38.42, 165.66 48.42, 167.69 58.21 C169.71 67.99, 169.75 79.93, 166.88 89.24 C164.01 98.55, 157.81 106.4, 150.48 114.09 C143.15 121.78, 132.83 130.83, 122.89 135.37 C112.95 139.92, 102.21 140.98, 90.84 141.36 C79.47 141.75, 65.65 140.7, 54.65 137.68 C43.64 134.65, 32.74 129.96, 24.79 123.21 C16.84 116.46, 10.97 106.49, 6.94 97.16 C2.91 87.84, 0.32 77.1, 0.62 67.27 C0.92 57.43, 3.68 46.67, 8.73 38.18 C13.79 29.68, 22.06 22.48, 30.94 16.3 C39.82 10.13, 50.83 3.48, 62.02 1.12 C73.22 -1.24, 92.4 2.2, 98.11 2.14 C103.82 2.07, 96.37 0.01, 96.28 0.73" stroke="#1e1e1e" stroke-width="1" fill="none"></path></g><g stroke-linecap="round" transform="translate(1016.1149842673863 235.75928484843564) rotate(0 85.09430215196784 71.07877003282033)"><path d="M106.66 1.82 C117.59 3.1, 128.23 10.34, 137.09 16.21 C145.94 22.08, 154.27 28.68, 159.8 37.04 C165.33 45.4, 169.51 56.64, 170.27 66.36 C171.02 76.08, 168.33 86.26, 164.32 95.36 C160.3 104.46, 154.06 113.94, 146.18 120.99 C138.3 128.03, 127.71 134.19, 117.05 137.63 C106.39 141.07, 93.91 142.15, 82.23 141.64 C70.55 141.14, 57.48 138.66, 46.96 134.59 C36.45 130.53, 26.47 124.66, 19.14 117.23 C11.8 109.8, 5.83 99.49, 2.94 90.02 C0.05 80.54, 0.2 69.93, 1.79 60.37 C3.39 50.81, 6.65 40.88, 12.53 32.68 C18.41 24.48, 27.24 16.3, 37.08 11.18 C46.91 6.05, 59.47 3.35, 71.54 1.92 C83.61 0.48, 102.95 2.01, 109.51 2.57 C116.07 3.12, 111.43 3.96, 110.88 5.24 M61.46 1.4 C71.31 -2.58, 84.44 -2.11, 95.72 -0.63 C107 0.84, 119.08 5.11, 129.14 10.25 C139.2 15.39, 149.64 22.36, 156.07 30.2 C162.49 38.05, 165.54 47.55, 167.67 57.34 C169.81 67.12, 171.59 79.43, 168.88 88.92 C166.17 98.4, 158.74 106.88, 151.42 114.27 C144.1 121.65, 134.81 128.43, 124.97 133.22 C115.12 138.02, 103.86 142.15, 92.35 143.01 C80.84 143.87, 67.12 141.89, 55.92 138.38 C44.73 134.87, 33.68 128.73, 25.19 121.94 C16.7 115.14, 9.14 106.55, 4.97 97.59 C0.79 88.63, -0.25 77.73, 0.13 68.17 C0.5 58.62, 1.91 49.06, 7.19 40.27 C12.48 31.48, 22.99 21.49, 31.84 15.43 C40.69 9.37, 55.46 5.74, 60.29 3.9 C65.13 2.06, 60.24 3.54, 60.85 4.38" stroke="#1e1e1e" stroke-width="1" fill="none"></path></g><g stroke-linecap="round"><g transform="translate(302.32395562793704 416.9600929602733) rotate(0 119.15732348111996 -27.81347067474235)"><path d="M0.6 -0.76 C40.54 -9.85, 199.33 -45.98, 238.86 -55.34 M-0.55 1.45 C39.35 -7.91, 198.67 -47.5, 238.23 -57.08" stroke="#1e1e1e" stroke-width="1" fill="none"></path></g><g transform="translate(302.32395562793704 416.9600929602733) rotate(0 119.15732348111996 -27.81347067474235)"><path d="M212.03 -39.4 C220.51 -45.2, 223.78 -46.53, 237.01 -59 M212.96 -40.24 C221.73 -45.23, 230.09 -50.62, 237.77 -57.55" stroke="#1e1e1e" stroke-width="1" fill="none"></path></g><g transform="translate(302.32395562793704 416.9600929602733) rotate(0 119.15732348111996 -27.81347067474235)"><path d="M207.14 -59.32 C216.64 -60.45, 221.07 -57.07, 237.01 -59 M208.07 -60.17 C218.42 -58.64, 228.37 -57.53, 237.77 -57.55" stroke="#1e1e1e" stroke-width="1" fill="none"></path></g></g><mask></mask><g stroke-linecap="round"><g transform="translate(712.7788248315474 334.8691191195512) rotate(0 148.9177124408783 -15.822487584600438)"><path d="M0.26 -1.15 C49.95 -6.64, 249.2 -27.4, 298.9 -32.51 M-1.07 0.86 C48.46 -4.51, 248.44 -26.01, 298.25 -31.22" stroke="#1e1e1e" stroke-width="1" fill="none"></path></g><g transform="translate(712.7788248315474 334.8691191195512) rotate(0 148.9177124408783 -15.822487584600438)"><path d="M269.39 -17.09 C280.21 -22.6, 291.11 -28.58, 299.85 -32.48 M272.2 -17.84 C277.68 -21.15, 283.02 -22.76, 298 -31.37" stroke="#1e1e1e" stroke-width="1" fill="none"></path></g><g transform="translate(712.7788248315474 334.8691191195512) rotate(0 148.9177124408783 -15.822487584600438)"><path d="M267.22 -37.49 C278.9 -35.63, 290.59 -34.24, 299.85 -32.48 M270.03 -38.25 C276.07 -37.41, 281.85 -34.85, 298 -31.37" stroke="#1e1e1e" stroke-width="1" fill="none"></path></g></g><mask></mask><g stroke-linecap="round"><g transform="translate(696.7610738382357 400.94234196696175) rotate(0 66.18819366074814 48.09569844554984)"><path d="M-0.06 -0.58 C21.87 15.26, 109.59 79.4, 131.54 95.54 M-1.55 1.72 C20.78 17.68, 111.91 80.79, 133.93 96.78" stroke="#1e1e1e" stroke-width="1" fill="none"></path></g><g transform="translate(696.7610738382357 400.94234196696175) rotate(0 66.18819366074814 48.09569844554984)"><path d="M104.01 87.87 C112.61 90.31, 122.32 92.74, 135.74 97.7 M105.17 87.97 C111.65 89.49, 118.01 91.91, 134.29 96.33" stroke="#1e1e1e" stroke-width="1" fill="none"></path></g><g transform="translate(696.7610738382357 400.94234196696175) rotate(0 66.18819366074814 48.09569844554984)"><path d="M115.86 71.11 C121.02 78.49, 127.24 85.86, 135.74 97.7 M117.02 71.21 C120.9 76.49, 124.67 82.59, 134.29 96.33" stroke="#1e1e1e" stroke-width="1" fill="none"></path></g></g><mask></mask><g transform="translate(135.6883095946214 10) rotate(0 15.218531931733544 70.19618362593366)"><text x="0" y="0" font-family="Virgil, Segoe UI Emoji" font-size="112.31389380149393px" fill="#1e1e1e" text-anchor="start" style="white-space: pre;" direction="ltr" dominant-baseline="text-before-edge">1</text></g><g stroke-linecap="round" transform="translate(2087.5046875040653 181.09831511550072) rotate(0 448.49702781272526 293.325065065019)"><path d="M32 0 M32 0 C233.76 -2.91, 435.61 -2.77, 864.99 0 M32 0 C199.21 -2.27, 366.92 -1.58, 864.99 0 M864.99 0 C885.89 -0.89, 895.55 11.07, 896.99 32 M864.99 0 C885.93 0.89, 898.96 9.79, 896.99 32 M896.99 32 C896.79 200.89, 898.02 368.86, 896.99 554.65 M896.99 32 C897.04 205.67, 897.08 379.68, 896.99 554.65 M896.99 554.65 C896.1 575.71, 885.25 585.73, 864.99 586.65 M896.99 554.65 C897.35 576.78, 885.18 586.15, 864.99 586.65 M864.99 586.65 C640.22 587.28, 414.61 587.56, 32 586.65 M864.99 586.65 C574.95 583.94, 284.85 584.24, 32 586.65 M32 586.65 C12.56 586.94, -1.81 574.7, 0 554.65 M32 586.65 C11.71 588.37, -1.63 574.43, 0 554.65 M0 554.65 C2.58 442.68, 1.1 331.37, 0 32 M0 554.65 C1.06 436.84, 1.46 319.32, 0 32 M0 32 C1.63 11.67, 10.44 1.9, 32 0 M0 32 C-0.13 10.48, 12.1 1.06, 32 0" stroke="#1e1e1e" stroke-width="1" fill="none"></path></g><g stroke-linecap="round" transform="translate(1715.09197690957 375.3135459094041) rotate(0 149.16530612521444 89.09873990029587)"><path d="M102.99 3.69 C117.63 -0.72, 135.83 -0.71, 152.89 -0.31 C169.95 0.09, 189.5 2.41, 205.35 6.11 C221.2 9.81, 235.44 15.11, 248 21.88 C260.57 28.65, 272.54 37.51, 280.74 46.72 C288.93 55.93, 294.82 67.02, 297.17 77.13 C299.51 87.25, 298.32 97.63, 294.84 107.43 C291.35 117.22, 285.29 127.14, 276.27 135.9 C267.25 144.66, 253.98 153.57, 240.71 160 C227.43 166.43, 212.57 171.4, 196.62 174.46 C180.67 177.52, 162.2 178.92, 145 178.35 C127.8 177.77, 109.4 174.92, 93.43 171 C77.47 167.08, 61.89 161.5, 49.2 154.81 C36.5 148.12, 25.22 139.76, 17.25 130.86 C9.29 121.95, 3.85 111.33, 1.42 101.38 C-1.02 91.43, -0.88 81.08, 2.65 71.15 C6.19 61.21, 13.66 50.46, 22.64 41.74 C31.62 33.03, 42.46 25.18, 56.55 18.85 C70.65 12.52, 98.02 6.02, 107.2 3.77 C116.38 1.53, 111.13 3.78, 111.66 5.36 M185.14 1.97 C201.48 3.2, 218.34 9.8, 232.65 15.59 C246.96 21.39, 261.27 28.78, 271.01 36.74 C280.75 44.69, 286.46 53.42, 291.07 63.33 C295.68 73.23, 299.76 86.05, 298.67 96.18 C297.59 106.31, 291.75 115.21, 284.54 124.09 C277.34 132.97, 266.95 141.74, 255.47 149.46 C243.99 157.17, 230.83 165.92, 215.68 170.38 C200.52 174.84, 181.56 175.52, 164.51 176.21 C147.47 176.89, 129.96 176.81, 113.41 174.49 C96.86 172.16, 79.44 167.88, 65.21 162.24 C50.99 156.6, 37.81 148.85, 28.05 140.63 C18.29 132.42, 11.1 122.39, 6.68 112.93 C2.27 103.48, 0.58 93.63, 1.56 83.89 C2.54 74.16, 5.9 63.95, 12.56 54.52 C19.21 45.08, 29.52 34.72, 41.48 27.27 C53.44 19.82, 68.86 14.47, 84.32 9.82 C99.78 5.17, 117.25 0.75, 134.25 -0.64 C151.25 -2.03, 178.08 0.71, 186.31 1.47 C194.53 2.22, 184.6 2.08, 183.6 3.91" stroke="#1e1e1e" stroke-width="1" fill="none"></path></g><g transform="translate(1787.1694840441592 441.90996263102437) rotate(0 77.11199951171875 22.5)"><text x="77.11199951171875" y="0" font-family="Virgil, Segoe UI Emoji" font-size="36px" fill="#1e1e1e" text-anchor="middle" style="white-space: pre;" direction="ltr" dominant-baseline="text-before-edge">GC Root</text></g><g stroke-linecap="round" transform="translate(2245.6799785630174 289.2181343203542) rotate(0 85.0943021519679 71.07877003282033)"><path d="M52.91 5.39 C62.55 0.77, 74.83 -0.9, 86.24 -0.71 C97.65 -0.52, 110.77 2.18, 121.35 6.53 C131.94 10.87, 142.31 18.02, 149.77 25.37 C157.23 32.71, 162.79 41.53, 166.12 50.6 C169.45 59.67, 171.27 70.09, 169.77 79.77 C168.27 89.46, 163 100.33, 157.13 108.72 C151.25 117.11, 143.77 124.72, 134.5 130.11 C125.24 135.5, 113.08 139.5, 101.56 141.06 C90.03 142.61, 76.74 141.79, 65.34 139.45 C53.93 137.1, 42.32 132.74, 33.11 127.01 C23.9 121.27, 15.57 113.41, 10.08 105.02 C4.59 96.62, 1.16 86.15, 0.18 76.65 C-0.8 67.15, 0.36 57.11, 4.21 48.01 C8.06 38.91, 13.72 29.64, 23.28 22.04 C32.84 14.44, 53.3 5.7, 61.59 2.41 C69.89 -0.88, 72.56 1, 73.04 2.29 M69.75 0 C80.11 -2.93, 94.27 -1.15, 105.58 1.41 C116.88 3.97, 128.27 9.32, 137.58 15.35 C146.89 21.39, 156.28 29.38, 161.45 37.62 C166.62 45.86, 167.85 55.04, 168.59 64.8 C169.33 74.56, 169.72 87.11, 165.88 96.18 C162.04 105.24, 153.84 112.63, 145.53 119.19 C137.23 125.74, 126.44 131.46, 116.07 135.5 C105.69 139.54, 94.71 143.74, 83.28 143.44 C71.85 143.13, 58.03 138.23, 47.5 133.64 C36.97 129.05, 27.59 123.16, 20.09 115.91 C12.6 108.66, 5.85 99.38, 2.52 90.14 C-0.82 80.91, -1.75 70.06, 0.08 60.49 C1.91 50.93, 7.11 40.64, 13.49 32.74 C19.87 24.84, 29.01 18.13, 38.38 13.1 C47.76 8.07, 64.45 4.35, 69.74 2.56 C75.02 0.78, 69.68 1.37, 70.12 2.42" stroke="#1e1e1e" stroke-width="1" fill="none"></path></g><g stroke-linecap="round" transform="translate(2535.0006058797085 474.4233801805197) rotate(0 85.0943021519679 71.07877003282033)"><path d="M69.72 0.38 C80.15 -2.29, 94.39 -0.67, 105.73 1.91 C117.07 4.49, 128.74 9.86, 137.75 15.84 C146.76 21.83, 154.37 29.46, 159.77 37.81 C165.18 46.16, 169.45 56.2, 170.2 65.94 C170.95 75.67, 168.11 87.03, 164.26 96.22 C160.41 105.42, 154.9 114.3, 147.1 121.12 C139.3 127.93, 128.33 133.77, 117.44 137.12 C106.55 140.48, 93.47 141.73, 81.77 141.25 C70.07 140.77, 57.63 138.37, 47.24 134.24 C36.86 130.1, 26.81 123.75, 19.47 116.42 C12.13 109.09, 6.39 99.41, 3.2 90.26 C0.02 81.1, -1.32 71.01, 0.35 61.47 C2.01 51.93, 7.06 41.28, 13.2 33.02 C19.33 24.76, 27.13 17.29, 37.16 11.93 C47.19 6.56, 66.97 2.38, 73.38 0.81 C79.8 -0.76, 75.64 1.18, 75.66 2.5 M105.75 1.45 C116.8 2.86, 128.42 9.4, 137.72 15.45 C147.02 21.5, 156.39 29.5, 161.53 37.75 C166.68 46, 167.89 55.19, 168.6 64.95 C169.32 74.71, 169.68 87.26, 165.82 96.32 C161.95 105.37, 153.73 112.75, 145.41 119.29 C137.09 125.83, 126.29 131.53, 115.9 135.55 C105.52 139.58, 94.53 143.76, 83.1 143.43 C71.68 143.1, 57.86 138.18, 47.34 133.58 C36.82 128.97, 27.46 123.06, 19.98 115.8 C12.5 108.53, 5.78 99.24, 2.47 90 C-0.84 80.76, -1.75 69.91, 0.1 60.35 C1.96 50.78, 7.18 40.5, 13.58 32.62 C19.99 24.73, 29.14 18.03, 38.53 13.02 C47.92 8.01, 58.77 4.38, 69.91 2.54 C81.05 0.69, 99.35 1.67, 105.36 1.94 C111.37 2.2, 106.11 3.16, 105.97 4.13" stroke="#1e1e1e" stroke-width="1" fill="none"></path></g><g stroke-linecap="round" transform="translate(2721.206961176956 246.1704285258292) rotate(0 85.0943021519679 71.07877003282033)"><path d="M75.91 0.26 C86.8 -1.56, 100.41 1.22, 111.31 4.21 C122.2 7.2, 132.69 11.94, 141.28 18.2 C149.88 24.45, 158.18 32.83, 162.86 41.74 C167.53 50.64, 169.19 61.85, 169.33 71.62 C169.48 81.39, 168.15 91.67, 163.72 100.37 C159.28 109.07, 151.46 117.59, 142.73 123.81 C134 130.03, 122.47 134.81, 111.35 137.68 C100.23 140.55, 87.49 141.91, 76.01 141.02 C64.52 140.14, 52.37 137.12, 42.43 132.4 C32.5 127.67, 23.23 120.31, 16.41 112.65 C9.59 104.99, 3.89 95.82, 1.5 86.42 C-0.88 77.01, -0.27 65.72, 2.11 56.2 C4.48 46.69, 8.95 37.07, 15.74 29.34 C22.54 21.6, 31.08 14.56, 42.86 9.77 C54.65 4.99, 77.62 1.73, 86.47 0.6 C95.32 -0.52, 95.95 1.93, 95.96 3 M53.79 5.63 C63.66 1.35, 78.41 0.16, 89.64 0.27 C100.87 0.38, 110.94 1.89, 121.18 6.29 C131.41 10.68, 143.61 19.23, 151.06 26.61 C158.51 34, 163.04 41.74, 165.87 50.6 C168.7 59.45, 169.37 69.82, 168.04 79.75 C166.72 89.68, 163.94 102.02, 157.91 110.17 C151.88 118.31, 141.59 123.64, 131.88 128.6 C122.17 133.57, 111.03 138.22, 99.63 139.97 C88.23 141.73, 74.75 141.48, 63.46 139.15 C52.17 136.81, 40.69 131.93, 31.89 125.97 C23.09 120, 15.75 111.58, 10.67 103.36 C5.59 95.14, 2.36 85.88, 1.42 76.66 C0.48 67.45, 1.27 57.26, 5.02 48.07 C8.77 38.87, 15.69 28.53, 23.91 21.49 C32.12 14.44, 49.1 8.52, 54.3 5.82 C59.49 3.12, 54.48 4.49, 55.1 5.29" stroke="#1e1e1e" stroke-width="1" fill="none"></path></g><g stroke-linecap="round"><g transform="translate(2007.4159325375072 427.37123663766687) rotate(0 119.69284040224329 -28.008238658130512)"><path d="M-0.27 -0.54 C39.37 -10.03, 197.67 -46.64, 237.4 -55.82 M1.8 1.8 C41.85 -7.57, 200.42 -47.9, 239.65 -57.81" stroke="#1e1e1e" stroke-width="1" fill="none"></path></g><g transform="translate(2007.4159325375072 427.37123663766687) rotate(0 119.69284040224329 -28.008238658130512)"><path d="M213.95 -42.39 C221.65 -45.7, 228.59 -48.11, 238.89 -57.38 M215.8 -40.26 C223.62 -45.85, 231.06 -52.14, 238.78 -58.5" stroke="#1e1e1e" stroke-width="1" fill="none"></path></g><g transform="translate(2007.4159325375072 427.37123663766687) rotate(0 119.69284040224329 -28.008238658130512)"><path d="M208.91 -62.29 C218.14 -60.32, 226.41 -57.46, 238.89 -57.38 M210.76 -60.15 C220.19 -59.28, 229.26 -59.14, 238.78 -58.5" stroke="#1e1e1e" stroke-width="1" fill="none"></path></g></g><mask></mask><g stroke-linecap="round"><g transform="translate(2417.8708017411172 345.2802627969448) rotate(0 148.62789761052113 -16.603598486870723)"><path d="M-0.87 0.24 C48.86 -4.93, 248.09 -26.12, 298.12 -31.57 M0.88 -0.68 C50.45 -6.17, 247.36 -28.33, 297.07 -33.45" stroke="#1e1e1e" stroke-width="1" fill="none"></path></g><g transform="translate(2417.8708017411172 345.2802627969448) rotate(0 148.62789761052113 -16.603598486870723)"><path d="M270.55 -20.55 C278.46 -21.99, 284.41 -26.94, 297.52 -33.56 M270.9 -19.88 C275.99 -23.75, 280.71 -26.76, 296.28 -33.99" stroke="#1e1e1e" stroke-width="1" fill="none"></path></g><g transform="translate(2417.8708017411172 345.2802627969448) rotate(0 148.62789761052113 -16.603598486870723)"><path d="M268.34 -40.95 C276.77 -36.7, 283.33 -35.99, 297.52 -33.56 M268.69 -40.28 C274.45 -39.79, 279.64 -38.42, 296.28 -33.99" stroke="#1e1e1e" stroke-width="1" fill="none"></path></g></g><mask></mask><g transform="translate(1840.7802865041913 20.411143677393625) rotate(0 39.87200164794922 70.19618362593371)"><text x="0" y="0" font-family="Virgil, Segoe UI Emoji" font-size="112.31389380149393px" fill="#1e1e1e" text-anchor="start" style="white-space: pre;" direction="ltr" dominant-baseline="text-before-edge">2</text></g><g stroke-linecap="round" transform="translate(413.11760968839315 1107.408407640213) rotate(0 448.4970278127254 293.325065065019)"><path d="M32 0 M32 0 C307.78 -1.6, 581.97 -1.31, 864.99 0 M32 0 C352.73 0.1, 673.22 -0.48, 864.99 0 M864.99 0 C887.11 1.6, 895.39 12.52, 896.99 32 M864.99 0 C884.03 -1.89, 897.19 10.14, 896.99 32 M896.99 32 C897.22 141.06, 897.05 249.3, 896.99 554.65 M896.99 32 C898.13 212.18, 897.99 392.8, 896.99 554.65 M896.99 554.65 C898.08 575.75, 884.76 584.98, 864.99 586.65 M896.99 554.65 C897.26 577.87, 884.83 584.49, 864.99 586.65 M864.99 586.65 C535.72 589.71, 206.61 589.04, 32 586.65 M864.99 586.65 C561.82 585.31, 258.41 585.4, 32 586.65 M32 586.65 C10.24 588.35, -1.66 577.39, 0 554.65 M32 586.65 C12.37 584.48, 2.2 576.2, 0 554.65 M0 554.65 C0.44 355, -0.16 155.37, 0 32 M0 554.65 C1.62 400.34, 2.09 245.34, 0 32 M0 32 C-1.25 9.34, 11.87 -1.8, 32 0 M0 32 C-1.04 10.72, 11.97 -1.79, 32 0" stroke="#1e1e1e" stroke-width="1" fill="none"></path></g><g stroke-linecap="round" transform="translate(40.70489909389801 1301.6236384341164) rotate(0 149.16530612521444 89.09873990029587)"><path d="M163.37 1.15 C179.61 0.81, 198.55 5.22, 213.73 9.53 C228.92 13.84, 242.5 20.03, 254.48 26.99 C266.47 33.95, 278.27 42.27, 285.65 51.28 C293.04 60.29, 297.71 70.76, 298.79 81.04 C299.87 91.31, 296.84 103.12, 292.12 112.93 C287.39 122.73, 280.16 131.64, 270.44 139.86 C260.72 148.07, 247.73 156.18, 233.79 162.21 C219.85 168.25, 203.29 173.39, 186.81 176.06 C170.34 178.72, 151.84 179.18, 134.96 178.2 C118.07 177.22, 100.74 174.7, 85.51 170.19 C70.27 165.67, 55.64 158.59, 43.55 151.11 C31.47 143.62, 20.14 134.34, 12.98 125.27 C5.81 116.2, 1.84 106.82, 0.56 96.7 C-0.72 86.59, 0.9 74.43, 5.28 64.57 C9.65 54.71, 16.8 45.79, 26.82 37.53 C36.84 29.28, 51.41 20.68, 65.4 15.06 C79.39 9.44, 93.43 6.05, 110.76 3.81 C128.09 1.57, 158.4 1.53, 169.37 1.6 C180.34 1.66, 176.74 2.84, 176.59 4.21 M197.43 5.06 C213.76 7.03, 230.12 13.66, 243.2 20.11 C256.28 26.55, 267.45 35.02, 275.92 43.72 C284.4 52.41, 290.4 62.77, 294.05 72.27 C297.7 81.78, 299.88 90.84, 297.83 100.73 C295.79 110.63, 289.86 122.49, 281.79 131.65 C273.71 140.8, 262.18 148.85, 249.38 155.67 C236.58 162.48, 221.03 168.9, 204.97 172.56 C188.9 176.22, 170.24 177.46, 153 177.63 C135.76 177.8, 117.84 176.58, 101.54 173.57 C85.24 170.56, 68.53 165.68, 55.21 159.56 C41.89 153.44, 30.1 145.68, 21.62 136.85 C13.14 128.02, 7.85 116.89, 4.36 106.59 C0.87 96.29, -1.75 85.26, 0.67 75.05 C3.09 64.84, 10.74 54.1, 18.88 45.34 C27.02 36.58, 36.79 29.19, 49.5 22.48 C62.21 15.77, 79.2 8.9, 95.16 5.08 C111.12 1.26, 128.24 -0.6, 145.26 -0.44 C162.28 -0.29, 189.12 4.65, 197.26 5.98 C205.4 7.31, 195.23 6.29, 194.11 7.53" stroke="#1e1e1e" stroke-width="1" fill="none"></path></g><g transform="translate(112.78240622848728 1368.2200551557366) rotate(0 77.11199951171875 22.5)"><text x="77.11199951171875" y="0" font-family="Virgil, Segoe UI Emoji" font-size="36px" fill="#1e1e1e" text-anchor="middle" style="white-space: pre;" direction="ltr" dominant-baseline="text-before-edge">GC Root</text></g><g stroke-linecap="round" transform="translate(571.2929007473455 1215.5282268450665) rotate(0 85.0943021519679 71.07877003282033)"><path d="M115.24 5.32 C125.97 7.38, 138.14 13.78, 146.55 20.42 C154.96 27.06, 161.93 35.97, 165.7 45.14 C169.48 54.31, 170.1 65.82, 169.21 75.45 C168.32 85.09, 165.55 94.44, 160.37 102.93 C155.19 111.42, 147.11 120.12, 138.15 126.4 C129.2 132.68, 117.82 138.06, 106.64 140.6 C95.46 143.13, 82.41 143.19, 71.08 141.6 C59.74 140, 48.13 136.48, 38.63 131.01 C29.13 125.55, 20.42 117.19, 14.06 108.82 C7.69 100.45, 2.25 90.15, 0.44 80.79 C-1.37 71.44, 0.03 61.95, 3.17 52.67 C6.31 43.4, 12.1 32.63, 19.28 25.12 C26.46 17.61, 35.76 11.89, 46.23 7.61 C56.71 3.32, 69.49 -0.72, 82.14 -0.58 C94.79 -0.45, 114.5 6.25, 122.12 8.42 C129.74 10.59, 128.32 11.37, 127.86 12.42 M99.65 0.42 C110.84 0.87, 123.99 7.02, 133.81 12.65 C143.64 18.29, 152.72 25.93, 158.59 34.23 C164.46 42.53, 167.86 52.89, 169.04 62.47 C170.21 72.05, 168.58 82.92, 165.64 91.73 C162.7 100.55, 158.35 108.13, 151.38 115.36 C144.42 122.59, 134.18 130.66, 123.83 135.11 C113.47 139.55, 100.89 141.62, 89.28 142.03 C77.67 142.44, 65.1 141.27, 54.16 137.58 C43.21 133.9, 31.86 126.96, 23.61 119.92 C15.35 112.87, 8.75 104.18, 4.65 95.32 C0.54 86.46, -1.85 76.19, -1.04 66.77 C-0.23 57.35, 3.66 47.48, 9.5 38.8 C15.35 30.12, 25.02 20.95, 34.04 14.67 C43.05 8.39, 52.46 3.6, 63.58 1.11 C74.71 -1.37, 94.89 -0.5, 100.78 -0.27 C106.67 -0.03, 99.16 1.32, 98.91 2.51" stroke="#1e1e1e" stroke-width="1" fill="none"></path></g><g stroke-linecap="round" transform="translate(860.6135280640366 1400.733472705232) rotate(0 85.0943021519679 71.07877003282033)"><path d="M122.22 6 C133 8.69, 143.24 16.25, 150.5 23.7 C157.76 31.15, 162.64 41.46, 165.76 50.7 C168.89 59.94, 170.59 69.65, 169.27 79.15 C167.96 88.65, 163.79 99.19, 157.87 107.7 C151.95 116.21, 143.25 124.61, 133.76 130.21 C124.27 135.81, 112.2 139.54, 100.91 141.32 C89.62 143.1, 77.12 143.26, 66.02 140.9 C54.91 138.54, 43.6 133.23, 34.26 127.15 C24.92 121.07, 15.62 112.68, 9.97 104.41 C4.33 96.13, 1.27 87.08, 0.38 77.49 C-0.51 67.89, 1 56.01, 4.65 46.84 C8.3 37.67, 14.23 29.47, 22.3 22.48 C30.36 15.48, 42.41 8.45, 53.03 4.87 C63.65 1.28, 72.97 -0.32, 86.04 0.97 C99.11 2.27, 122.27 9.42, 131.44 12.64 C140.62 15.86, 141.68 19.41, 141.1 20.29 M113.11 4.14 C124.18 6.25, 135.55 12.79, 143.83 19.42 C152.1 26.05, 158.58 35.05, 162.76 43.92 C166.95 52.8, 168.79 63.47, 168.94 72.66 C169.09 81.85, 168.01 90.43, 163.68 99.05 C159.36 107.67, 151.61 117.77, 143 124.39 C134.39 131.01, 123.1 135.77, 112.02 138.75 C100.94 141.74, 88.24 143.47, 76.52 142.31 C64.81 141.16, 51.92 136.83, 41.73 131.84 C31.55 126.85, 22.28 120.01, 15.4 112.37 C8.53 104.73, 2.79 95.25, 0.48 86 C-1.83 76.75, -1.38 66.47, 1.53 56.89 C4.44 47.3, 11.17 36.59, 17.95 28.48 C24.72 20.38, 32.19 13.18, 42.16 8.27 C52.12 3.35, 66.2 -0.25, 77.73 -1.01 C89.25 -1.78, 105.55 2.87, 111.31 3.68 C117.07 4.48, 112.6 2.79, 112.3 3.83" stroke="#1e1e1e" stroke-width="1" fill="none"></path></g><g stroke-linecap="round" transform="translate(1046.8198833612842 1172.4805210505415) rotate(0 85.0943021519679 71.07877003282033)"><path d="M102.56 0.36 C113.3 1.22, 124.1 7.52, 133.34 13.09 C142.57 18.66, 151.91 25.55, 157.96 33.77 C164.01 41.99, 168.2 52.56, 169.63 62.4 C171.06 72.25, 169.99 83.51, 166.56 92.83 C163.14 102.14, 156.64 111.08, 149.08 118.31 C141.52 125.55, 131.58 132.35, 121.22 136.24 C110.87 140.14, 98.66 141.77, 86.96 141.66 C75.27 141.55, 61.76 139.19, 51.06 135.56 C40.35 131.94, 30.51 126.97, 22.74 119.91 C14.97 112.84, 8.29 102.38, 4.42 93.19 C0.55 83.99, -1.69 74.32, -0.49 64.74 C0.72 55.17, 6.03 44.01, 11.64 35.74 C17.25 27.47, 24.23 20.65, 33.19 15.11 C42.16 9.56, 53.68 4.56, 65.4 2.47 C77.13 0.38, 96.91 2.39, 103.55 2.56 C110.19 2.73, 105.46 2.48, 105.25 3.46 M67.8 2.53 C77.97 -0.4, 90.65 0.73, 101.53 2.67 C112.41 4.6, 123.44 9.04, 133.09 14.16 C142.74 19.29, 153.09 25.3, 159.42 33.44 C165.75 41.57, 169.7 53.2, 171.06 63 C172.41 72.79, 171.06 82.92, 167.54 92.2 C164.02 101.47, 157.79 111.49, 149.91 118.65 C142.04 125.81, 131.03 131.25, 120.3 135.15 C109.58 139.06, 97.26 141.78, 85.56 142.09 C73.87 142.4, 60.69 140.62, 50.11 136.99 C39.52 133.36, 29.42 127.59, 22.04 120.33 C14.65 113.06, 9.55 102.89, 5.79 93.41 C2.02 83.93, -1.57 73.2, -0.56 63.45 C0.44 53.69, 6.13 43.11, 11.83 34.88 C17.53 26.66, 24.38 19.8, 33.63 14.08 C42.88 8.36, 61.75 2.47, 67.32 0.56 C72.89 -1.35, 66.71 1.05, 67.04 2.63" stroke="#1e1e1e" stroke-width="1" fill="none"></path></g><g stroke-linecap="round"><g transform="translate(333.02885472183505 1353.6813291623791) rotate(0 119.38056721723244 -27.763570888543825)"><path d="M0.47 0.96 C39.84 -8, 197.87 -45.28, 237.3 -54.95 M-0.74 0.42 C38.91 -8.74, 199.49 -47.04, 239.5 -56.49" stroke="#1e1e1e" stroke-width="1" fill="none"></path></g><g transform="translate(333.02885472183505 1353.6813291623791) rotate(0 119.38056721723244 -27.763570888543825)"><path d="M216.05 -41.6 C226.19 -48.49, 232.42 -52.73, 239.04 -58.34 M215.16 -40.03 C222.51 -44.6, 230.36 -49.37, 239.01 -56.99" stroke="#1e1e1e" stroke-width="1" fill="none"></path></g><g transform="translate(333.02885472183505 1353.6813291623791) rotate(0 119.38056721723244 -27.763570888543825)"><path d="M211.31 -61.57 C223.09 -60.73, 231.17 -57.21, 239.04 -58.34 M210.42 -59.99 C219.16 -58.51, 228.44 -57.21, 239.01 -56.99" stroke="#1e1e1e" stroke-width="1" fill="none"></path></g></g><mask></mask><g stroke-linecap="round"><g transform="translate(743.4837239254454 1271.5903553216572) rotate(0 149.12561839470277 -15.954370223298838)"><path d="M-0.97 1.11 C48.48 -4.55, 247.23 -27.45, 297.13 -33.02 M0.73 0.65 C50.48 -4.98, 249.72 -26.7, 299.22 -32" stroke="#1e1e1e" stroke-width="1" fill="none"></path></g><g transform="translate(743.4837239254454 1271.5903553216572) rotate(0 149.12561839470277 -15.954370223298838)"><path d="M274.15 -20.76 C279.68 -22.86, 289.99 -29.37, 299.29 -32.54 M272.7 -18.31 C281.41 -22.27, 288.85 -27.69, 298.38 -31.91" stroke="#1e1e1e" stroke-width="1" fill="none"></path></g><g transform="translate(743.4837239254454 1271.5903553216572) rotate(0 149.12561839470277 -15.954370223298838)"><path d="M271.94 -41.16 C278.38 -36.33, 289.44 -35.92, 299.29 -32.54 M270.49 -38.72 C280.05 -36.18, 288.19 -35.1, 298.38 -31.91" stroke="#1e1e1e" stroke-width="1" fill="none"></path></g></g><mask></mask><g transform="translate(166.3932086885194 946.721236202106) rotate(0 38.13600158691406 70.19618362593374)"><text x="0" y="0" font-family="Virgil, Segoe UI Emoji" font-size="112.31389380149393px" fill="#1e1e1e" text-anchor="start" style="white-space: pre;" direction="ltr" dominant-baseline="text-before-edge">3</text></g><g stroke-linecap="round" transform="translate(2105.0769656820416 1097.3671058242269) rotate(0 448.4970278127255 293.325065065019)"><path d="M32 0 M32 0 C335.12 1.87, 637.58 2.21, 864.99 0 M32 0 C228.3 -2.3, 424.03 -2.15, 864.99 0 M864.99 0 C885.85 1.29, 896.51 9.76, 896.99 32 M864.99 0 C887.81 1.64, 896.96 9.4, 896.99 32 M896.99 32 C897.79 236.55, 897.83 441.69, 896.99 554.65 M896.99 32 C898.56 171.97, 898.18 312.54, 896.99 554.65 M896.99 554.65 C897.29 574.69, 887.73 586.46, 864.99 586.65 M896.99 554.65 C895.67 576.17, 887.95 588.47, 864.99 586.65 M864.99 586.65 C580.71 588, 296.33 589.36, 32 586.65 M864.99 586.65 C575.55 585.81, 285.4 585.94, 32 586.65 M32 586.65 C12.53 586.49, -0.89 574.75, 0 554.65 M32 586.65 C11.7 584.72, 1.8 574.35, 0 554.65 M0 554.65 C0.61 391.39, 0.73 229.77, 0 32 M0 554.65 C-0.45 375.43, -0.46 196.58, 0 32 M0 32 C0.74 10.41, 12.28 -1.35, 32 0 M0 32 C-2.1 12.85, 10.96 1.04, 32 0" stroke="#1e1e1e" stroke-width="1" fill="none"></path></g><g stroke-linecap="round" transform="translate(1732.6642550875463 1291.5823366181303) rotate(0 149.16530612521444 89.09873990029587)"><path d="M148.46 0.69 C164.58 -0.94, 182.34 1.81, 198.21 5.04 C214.08 8.28, 230.32 13.68, 243.68 20.11 C257.03 26.54, 269.72 34.74, 278.34 43.64 C286.95 52.54, 292.27 63.48, 295.38 73.51 C298.49 83.53, 299.82 93.72, 297 103.79 C294.18 113.85, 286.81 125.07, 278.44 133.9 C270.07 142.72, 259.78 150.41, 246.78 156.74 C233.78 163.07, 216.66 168.41, 200.46 171.89 C184.26 175.36, 166.48 177.28, 149.58 177.6 C132.68 177.92, 114.88 177.1, 99.06 173.82 C83.23 170.54, 67.82 164.66, 54.63 157.94 C41.43 151.21, 28.59 142.2, 19.91 133.46 C11.23 124.72, 5.61 115.21, 2.53 105.48 C-0.56 95.75, -1.39 85.23, 1.4 75.09 C4.18 64.95, 10.75 53.49, 19.24 44.65 C27.74 35.81, 39.29 28.49, 52.37 22.05 C65.45 15.62, 79.52 9.57, 97.72 6.05 C115.91 2.53, 148.54 1.53, 161.55 0.94 C174.55 0.35, 175.98 0.97, 175.75 2.51 M185.02 1.74 C200.88 2.67, 216.16 8.94, 230.45 14.67 C244.73 20.41, 260.51 28.11, 270.71 36.18 C280.91 44.25, 286.97 53.55, 291.64 63.1 C296.3 72.66, 299.48 83.41, 298.7 93.52 C297.92 103.64, 293.88 114.35, 286.97 123.79 C280.06 133.23, 269.16 142.64, 257.25 150.15 C245.33 157.67, 230.96 164.28, 215.49 168.89 C200.02 173.5, 181.24 176.59, 164.43 177.83 C147.62 179.07, 130.9 178.71, 114.6 176.31 C98.31 173.92, 81.06 169.38, 66.65 163.47 C52.25 157.56, 38.44 149.19, 28.19 140.87 C17.94 132.54, 9.7 123.12, 5.15 113.52 C0.59 103.91, -0.58 93.41, 0.86 83.22 C2.29 73.02, 7.25 61.37, 13.75 52.33 C20.25 43.3, 28.31 36.08, 39.88 29.01 C51.45 21.95, 67.92 14.67, 83.17 9.93 C98.42 5.19, 114.45 2.04, 131.4 0.57 C148.36 -0.89, 176.03 0.51, 184.92 1.16 C193.81 1.8, 185.27 2.93, 184.74 4.47" stroke="#1e1e1e" stroke-width="1" fill="none"></path></g><g transform="translate(1804.7417622221355 1358.1787533397505) rotate(0 77.11199951171875 22.5)"><text x="77.11199951171875" y="0" font-family="Virgil, Segoe UI Emoji" font-size="36px" fill="#1e1e1e" text-anchor="middle" style="white-space: pre;" direction="ltr" dominant-baseline="text-before-edge">GC Root</text></g><g stroke-linecap="round" transform="translate(2263.2522567409937 1205.4869250290803) rotate(0 85.0943021519679 71.07877003282033)"><path d="M113.53 3.96 C124.51 6.01, 136.3 12.71, 144.62 19.52 C152.93 26.34, 159.04 35.89, 163.42 44.85 C167.79 53.81, 171.24 63.6, 170.86 73.27 C170.49 82.95, 166.18 94.26, 161.17 102.92 C156.15 111.58, 149.65 119.29, 140.78 125.25 C131.9 131.2, 119.26 136.05, 107.91 138.66 C96.57 141.27, 84.01 141.98, 72.69 140.91 C61.36 139.84, 49.56 137.19, 39.96 132.23 C30.36 127.27, 21.63 119.37, 15.07 111.14 C8.51 102.9, 2.72 92.3, 0.62 82.83 C-1.48 73.35, -0.28 63.39, 2.48 54.29 C5.24 45.19, 10.15 35.97, 17.19 28.23 C24.24 20.49, 34.48 12.43, 44.76 7.87 C55.05 3.32, 65.14 0.63, 78.92 0.9 C92.7 1.17, 117.86 6.73, 127.45 9.47 C137.04 12.2, 137.34 16.47, 136.45 17.3 M50.46 6.23 C59.74 1.17, 73.49 -0.65, 84.63 -0.77 C95.78 -0.89, 106.59 1.6, 117.31 5.52 C128.04 9.43, 141.04 15.75, 148.99 22.72 C156.94 29.69, 161.43 38.39, 165.01 47.33 C168.6 56.26, 171.25 66.77, 170.5 76.34 C169.75 85.92, 166.23 96.22, 160.5 104.76 C154.78 113.3, 145.58 121.65, 136.16 127.59 C126.74 133.52, 115.47 138.12, 103.98 140.35 C92.5 142.58, 78.48 142.73, 67.26 140.97 C56.03 139.2, 45.81 135.31, 36.62 129.75 C27.43 124.19, 18.26 116.17, 12.11 107.61 C5.97 99.05, 1.29 88.09, -0.24 78.38 C-1.76 68.67, -0.7 58.39, 2.96 49.33 C6.61 40.27, 13.73 31.31, 21.69 24 C29.64 16.7, 46.18 7.97, 50.7 5.51 C55.23 3.05, 48.41 7.88, 48.84 9.24" stroke="#1e1e1e" stroke-width="1" fill="none"></path></g><g stroke-linecap="round" transform="translate(2738.7792393549325 1162.4392192345554) rotate(0 85.0943021519679 71.07877003282033)"><path d="M74.54 1.15 C85.28 -0.98, 99.94 0.26, 110.95 3.16 C121.95 6.05, 131.89 12.18, 140.57 18.51 C149.26 24.84, 158.29 32.65, 163.07 41.14 C167.85 49.62, 169.34 59.84, 169.23 69.39 C169.13 78.95, 166.87 89.37, 162.43 98.46 C158 107.56, 150.87 117.28, 142.61 123.95 C134.36 130.61, 123.87 135.6, 112.88 138.45 C101.9 141.29, 88.22 141.87, 76.68 141.01 C65.14 140.14, 53.69 137.72, 43.63 133.28 C33.58 128.84, 23.26 122.21, 16.32 114.37 C9.39 106.54, 4.46 95.67, 2.02 86.27 C-0.41 76.88, -0.69 67.29, 1.7 58 C4.08 48.71, 9.83 38.43, 16.33 30.53 C22.84 22.64, 30.17 15.82, 40.72 10.63 C51.27 5.43, 72.4 0.73, 79.65 -0.65 C86.9 -2.03, 83.97 0.93, 84.2 2.35 M75.57 0.06 C86.49 -1.78, 102.46 0.61, 113.52 3.56 C124.58 6.51, 133.55 11.44, 141.94 17.77 C150.32 24.09, 158.91 32.68, 163.82 41.5 C168.72 50.31, 171.55 60.89, 171.36 70.66 C171.17 80.43, 167.64 91.18, 162.68 100.12 C157.72 109.06, 150.46 117.78, 141.59 124.27 C132.72 130.76, 120.36 136.04, 109.44 139.05 C98.53 142.06, 87.33 143.42, 76.09 142.33 C64.86 141.24, 52.23 137.69, 42.04 132.52 C31.86 127.34, 21.84 119.29, 14.97 111.3 C8.11 103.31, 2.89 93.88, 0.82 84.57 C-1.24 75.27, -0.27 64.94, 2.58 55.47 C5.43 46.01, 11.38 35.24, 17.92 27.77 C24.47 20.29, 31.98 15.09, 41.85 10.63 C51.72 6.17, 71.49 2.48, 77.16 1.01 C82.83 -0.47, 75.65 0.93, 75.84 1.77" stroke="#1e1e1e" stroke-width="1" fill="none"></path></g><g stroke-linecap="round"><g transform="translate(2024.9882107154835 1343.640027346393) rotate(0 118.84497106496781 -27.915635884076664)"><path d="M-0.29 0.78 C39.39 -8.59, 198.09 -47.28, 237.98 -56.61 M1.77 0.14 C41.26 -9.03, 197.39 -45.82, 236.88 -55.36" stroke="#1e1e1e" stroke-width="1" fill="none"></path></g><g transform="translate(2024.9882107154835 1343.640027346393) rotate(0 118.84497106496781 -27.915635884076664)"><path d="M213.12 -39.32 C218.33 -42.34, 228.02 -48.5, 235.78 -53.51 M211.16 -39.73 C220.62 -45.1, 231.32 -50.62, 236.96 -56.09" stroke="#1e1e1e" stroke-width="1" fill="none"></path></g><g transform="translate(2024.9882107154835 1343.640027346393) rotate(0 118.84497106496781 -27.915635884076664)"><path d="M208.37 -59.29 C214.9 -56.44, 225.98 -56.74, 235.78 -53.51 M206.41 -59.69 C217.62 -57.55, 230.1 -55.6, 236.96 -56.09" stroke="#1e1e1e" stroke-width="1" fill="none"></path></g></g><mask></mask><g stroke-linecap="round"><g transform="translate(2435.4430799190936 1261.549053505671) rotate(0 149.40739261136036 -15.5327619019302)"><path d="M-0.29 -0.54 C49.61 -5.87, 249.34 -25.82, 299.1 -31.18 M1.76 1.78 C51.59 -3.94, 249.26 -27.26, 298.56 -32.85" stroke="#1e1e1e" stroke-width="1" fill="none"></path></g><g transform="translate(2435.4430799190936 1261.549053505671) rotate(0 149.40739261136036 -15.5327619019302)"><path d="M270.83 -18.12 C280.49 -23.09, 285.37 -24.92, 300.04 -33.06 M271.14 -19.73 C278.07 -21.59, 282.94 -25.43, 297.7 -32.82" stroke="#1e1e1e" stroke-width="1" fill="none"></path></g><g transform="translate(2435.4430799190936 1261.549053505671) rotate(0 149.40739261136036 -15.5327619019302)"><path d="M268.47 -38.51 C278.91 -37.84, 284.44 -34.04, 300.04 -33.06 M268.78 -40.11 C276.06 -37.77, 281.41 -37.41, 297.7 -32.82" stroke="#1e1e1e" stroke-width="1" fill="none"></path></g></g><mask></mask><g transform="translate(1858.3525646821677 936.6799343861198) rotate(0 35.84000015258789 70.19618362593374)"><text x="0" y="0" font-family="Virgil, Segoe UI Emoji" font-size="112.31389380149393px" fill="#1e1e1e" text-anchor="start" style="white-space: pre;" direction="ltr" dominant-baseline="text-before-edge">4</text></g><g stroke-linecap="round" transform="translate(580.3071204239786 318.24388201912734) rotate(0 30 30)"><path d="M3.91 15.32 C3.91 15.32, 3.91 15.32, 3.91 15.32 M3.91 15.32 C3.91 15.32, 3.91 15.32, 3.91 15.32 M1.1 21.67 C8.65 16.65, 15.24 7.79, 21.54 1.58 M2.73 22.32 C9.04 14.75, 17.13 7.17, 19.2 2.99 M1.8 28.77 C7.43 23.14, 12.93 14.91, 25.06 3.07 M2.46 28.94 C10.87 20.88, 18.56 11.61, 26.47 3.24 M2.18 38.35 C7.28 27.55, 14.51 19.8, 29.55 3.36 M1.76 36.72 C12.68 22.67, 24.48 9.62, 31.09 2.73 M1.88 40.45 C15.64 29.16, 24.68 15.6, 35.9 1.95 M3.85 40.21 C10.65 32.55, 17.14 23.15, 36.67 2.2 M4.17 44.04 C17.47 29.4, 33.46 11.85, 42.21 1.79 M5.14 44.33 C18.95 27.91, 31.93 13.11, 40.59 1.88 M8.61 49.47 C17.33 33.47, 29.11 19.89, 45.31 6.3 M8.06 48.21 C18.52 35.26, 29.05 24.86, 44.64 4.78 M10.05 49.59 C17.47 39.45, 27.25 30.22, 46.28 9.19 M9.32 50.53 C20.42 36.72, 33.31 25.21, 48.81 7.81 M13.38 53.53 C25.82 38.68, 38.33 21.76, 49.96 9.79 M12.88 54.62 C20.74 44.67, 29.35 35.34, 50.07 9.37 M17.09 54.03 C24.96 44.4, 36.2 31.41, 55.83 13.36 M16.7 56.03 C28.2 43.33, 38.63 30.87, 53.35 12.94 M18.87 57.79 C27.3 46.06, 36.99 36.71, 56.85 15.14 M20.59 58.18 C29 46.03, 39.44 35.34, 57.72 15.46 M26.33 60.47 C30.09 51.86, 40.15 42.26, 57.69 21.43 M24.11 57.65 C35.18 47.38, 46.05 34.87, 58.76 19.62 M26.6 61.03 C38.44 48.34, 49.24 39.16, 58.82 23.63 M28.46 59.8 C35.75 52.13, 43.32 43.32, 59.86 24.21 M33.83 60.55 C40.49 51.48, 47.5 45.84, 58.77 31.8 M33.1 61.83 C43.32 50.48, 53.74 37.09, 60.77 29 M40.65 57.74 C48.66 51.19, 51.99 44.14, 61.65 34.01 M41.52 57.67 C49.17 49.83, 56.36 40.62, 60.31 36.32" stroke="#12b886" stroke-width="0.5" fill="none"></path><path d="M19.37 1.62 C24.79 -1.08, 33.11 -1.49, 39.27 0.58 C45.43 2.65, 52.89 8.34, 56.33 14.05 C59.77 19.75, 61.05 28.46, 59.9 34.82 C58.76 41.17, 54.4 47.98, 49.46 52.18 C44.53 56.39, 36.68 59.81, 30.3 60.05 C23.92 60.28, 16.07 57.49, 11.18 53.59 C6.3 49.69, 2.15 43.07, 0.98 36.65 C-0.2 30.23, 0.68 20.9, 4.13 15.06 C7.58 9.23, 18.42 4.06, 21.67 1.65 C24.91 -0.76, 23.64 0.07, 23.62 0.61 M23.28 1.69 C28.95 0.15, 37.13 1.82, 42.99 4.45 C48.85 7.08, 55.58 11.69, 58.43 17.48 C61.28 23.26, 61.85 33.09, 60.09 39.17 C58.33 45.24, 53.46 50.65, 47.87 53.94 C42.27 57.23, 33.06 59.2, 26.5 58.89 C19.94 58.59, 13.1 56.61, 8.5 52.12 C3.9 47.64, -0.64 38.53, -1.11 31.98 C-1.57 25.42, 1.99 17.96, 5.72 12.79 C9.46 7.62, 18.3 2.95, 21.32 0.94 C24.33 -1.08, 23.64 0.26, 23.81 0.69" stroke="#000000" stroke-width="1" fill="none"></path></g><g stroke-linecap="round"><g transform="translate(607.2631029511224 335.9006819752792) rotate(299.4109972382423 4.578404319865712 9.55899843280244)" fill-rule="evenodd"><path d="M0.29 -1.77 L-1.06 9.41 L18.61 10.14 L17.64 20.92 L-10.41 18.4 L-9.57 1.07 L1.59 -1.02" stroke="none" stroke-width="0" fill="#ffffff" fill-rule="evenodd"></path><path d="M0.51 -0.46 C0.47 1.85, -0.14 3.82, 0.83 9.87 M-0.1 -0.32 C0.08 3.1, 0.06 6.62, 0.27 10.31 M-1.02 9 C2.68 11.35, 7.21 11.02, 17.34 10.78 M0.63 9.89 C7.05 10.44, 13.24 9.33, 17.66 9.47 M17.8 10.06 C18.25 12.16, 18.03 16.76, 17.39 19.34 M18.32 10.16 C18.31 13.1, 18.28 15.92, 18.19 19.58 M19.1 19.55 C11.43 20.92, 3.93 21.33, -9.94 19.85 M17.41 19.12 C9.88 20.17, 3.03 20.54, -9.64 20.82 M-7.34 19.56 C-9.47 13.77, -8.72 11.65, -8.08 -1.7 M-9.83 19.93 C-9.27 13.61, -8.95 7.24, -9.95 -0.31 M-9.57 0.35 C-6.62 0.6, -2.75 0.31, 0.23 0.7 M-8.82 0.23 C-5.22 -0.16, -2.46 -0.07, -0.26 -0.4 M0 0 C0 0, 0 0, 0 0 M0 0 C0 0, 0 0, 0 0" stroke="#000000" stroke-width="1" fill="none"></path></g></g><mask></mask><g stroke-linecap="round" transform="translate(1069.588844069908 239.27209504469658) rotate(0 30 30)"><path d="M13.91 4.14 C13.91 4.14, 13.91 4.14, 13.91 4.14 M13.91 4.14 C13.91 4.14, 13.91 4.14, 13.91 4.14 M2.43 23.53 C5.76 19.79, 11.12 15.46, 20.04 3.08 M3.28 21.9 C8.12 16.09, 15.26 10.18, 20.73 3.9 M2.36 28.59 C10.49 21.97, 14.48 15.55, 27.47 2.93 M4.42 27.92 C12.26 17.64, 19.55 9.5, 26.56 1.12 M3.07 32.19 C12.66 26.47, 19.17 19.19, 31.55 -0.34 M4.78 34.72 C11.48 26.59, 16.94 18.98, 33.35 0.25 M3.67 38.49 C12.84 28.27, 20.85 19.2, 37.62 2.95 M4.7 38.59 C12.68 29.15, 22.2 19.41, 36.71 1.81 M4.68 46.22 C13.45 35.79, 18.49 28.2, 40.28 5.41 M5.28 43.75 C18.33 29.13, 30.46 14.52, 39.44 4.63 M6.16 47.61 C16.33 37.61, 24.69 30.25, 44.38 7.84 M7.74 48.48 C16.21 37.71, 24.81 28.32, 44.67 7.28 M11.22 50.03 C20.03 41.11, 26.57 30.7, 47.09 5.66 M11.22 51.09 C21.03 37.7, 32.25 24.21, 47.3 7.74 M13.5 53.48 C24.82 37.82, 37.73 24.05, 52.11 8.09 M13.58 54.52 C22.33 41.98, 33.61 31.15, 52.43 8.81 M17.24 55 C31.09 43.45, 40 26.02, 54.44 14.07 M15.68 57.01 C25.85 44.1, 38.27 32.46, 53.41 13.24 M20.82 58.6 C32.49 43.74, 47.46 28.2, 56.45 16.7 M20.28 57.26 C34.4 42.88, 47.28 27.41, 54.28 18.4 M24.92 56.22 C37.26 44.77, 50.47 29.1, 57.49 23.45 M26.45 57.62 C37.67 42.62, 51.19 29.35, 56.54 21.66 M28.65 56.42 C41.3 47.58, 46.86 36.9, 60.64 26.09 M30.94 57.94 C36.77 50.8, 42.35 44.62, 58.24 26.6 M35.01 59.78 C42.3 51.76, 48.99 44.26, 60.17 30.1 M35.99 59.24 C44.56 48.25, 54.05 37.56, 60.77 29.63 M39.74 59.39 C47.38 52.08, 52.79 43.61, 59.18 39.19 M39.4 61.41 C44.16 53.17, 51.6 47.13, 58.66 38.69" stroke="#12b886" stroke-width="0.5" fill="none"></path><path d="M32.42 0.32 C38.34 0.51, 46.62 4.53, 51.06 9.13 C55.5 13.73, 58.62 21.5, 59.07 27.91 C59.52 34.32, 57.44 42.42, 53.76 47.59 C50.09 52.76, 43.35 57.42, 37.02 58.92 C30.68 60.42, 21.44 59.33, 15.74 56.59 C10.05 53.85, 5.39 48.41, 2.85 42.47 C0.31 36.52, -1.32 27.28, 0.49 20.93 C2.31 14.58, 7.88 7.73, 13.72 4.36 C19.57 1, 31.71 1.19, 35.55 0.72 C39.39 0.26, 36.81 1.01, 36.76 1.58 M19.94 3.2 C25.4 0.4, 33.26 -1.09, 39.18 0.65 C45.1 2.38, 52.28 7.77, 55.47 13.6 C58.65 19.42, 59.06 29.12, 58.31 35.59 C57.56 42.05, 55.44 48.15, 50.96 52.37 C46.48 56.59, 38.09 60.74, 31.45 60.9 C24.81 61.06, 16.43 57.44, 11.1 53.33 C5.78 49.21, 0.87 42.58, -0.5 36.22 C-1.86 29.85, -0.52 20.78, 2.92 15.16 C6.37 9.55, 17.38 4.55, 20.17 2.54 C22.96 0.53, 19.85 2.67, 19.66 3.09" stroke="#000000" stroke-width="1" fill="none"></path></g><g stroke-linecap="round"><g transform="translate(1096.544826597052 256.92889500084846) rotate(299.4109972382423 4.410589849527128 9.909142632072317)" fill-rule="evenodd"><path d="M0.38 -0.5 L-0.2 9.73 L18.66 8.13 L16.86 19.5 L-8.66 20.35 L-8.51 -1.51 L-1.78 0.59" stroke="none" stroke-width="0" fill="#ffffff" fill-rule="evenodd"></path><path d="M0.54 0.44 C-0.93 2.99, -0.69 5.57, -0.87 9.9 M-0.11 -0.49 C-0.17 2.74, 0.18 4.81, -0.34 10.23 M0.49 10.49 C5.54 11.39, 6.96 10.09, 18.51 10.96 M-0.12 9.51 C5.99 10.73, 14.3 10.02, 18.44 10.58 M18.2 9.5 C17.68 13.66, 18.27 16.13, 18.27 19.25 M17.64 10.36 C17.71 13.26, 17.54 16.08, 17.77 20.24 M16.48 18.4 C9.12 21.25, 3.11 19.17, -7.9 19.01 M18.24 19.7 C10.65 19.72, 3.19 20.54, -8.26 19.98 M-9.26 20.31 C-10.47 12.16, -8.92 8.83, -7.44 1.03 M-9.53 19.47 C-8.65 13.06, -9.04 4.63, -9.42 0.48 M-8.23 0.78 C-6.1 0.17, -3.29 -0.84, 0.7 0.04 M-9.01 -0.2 C-7.32 0.5, -4.88 0.48, 0.08 -0.28 M0 0 C0 0, 0 0, 0 0 M0 0 C0 0, 0 0, 0 0" stroke="#000000" stroke-width="1" fill="none"></path></g></g><mask></mask><g stroke-linecap="round" transform="translate(884.1768224777663 488.20490181192383) rotate(0 30 30)"><path d="M10.23 8.89 C10.23 8.89, 10.23 8.89, 10.23 8.89 M10.23 8.89 C10.23 8.89, 10.23 8.89, 10.23 8.89 M1.27 25.19 C8.98 15.86, 14.82 9.41, 18.38 2.17 M1.95 26 C6.21 18.12, 12.01 11.45, 19.98 4.79 M4.1 30.32 C11.32 20.09, 18.55 15.19, 27.39 0.81 M3.2 28.51 C8.3 21.86, 14.52 15.73, 27.22 1.51 M2.94 33.09 C11.1 22.3, 22.33 16.02, 34.04 2.74 M4.73 33.67 C14.18 22.56, 23.59 10.47, 31.88 1.62 M6.39 39.4 C11.81 30.95, 18.93 23.92, 34.83 1.72 M5.47 38.26 C12.86 29.43, 21.95 18.93, 37.63 3.21 M7.08 44.12 C18.17 32.13, 27.46 20.53, 39.7 4.74 M6.23 43.34 C14.07 33.44, 22.53 24.61, 40.97 3.9 M7.9 50.33 C15.6 36.77, 27.34 25.92, 46.74 5.64 M8.19 49.76 C14.57 40.23, 24.32 30, 45.2 5.72 M9.95 48.9 C22.96 38.73, 35.62 24.15, 50.37 6.05 M10.16 50.98 C23.11 36.78, 35.47 24.19, 48.91 6.24 M14.31 52.08 C22.75 43.64, 31.88 32.93, 52.83 8.84 M14.63 52.8 C24.04 41.04, 33.74 31.09, 50.72 11.26 M18.61 55.8 C31.62 41.3, 45.22 22.85, 54.93 12.03 M17.59 54.97 C29.54 42.04, 39.37 29.11, 54.32 12.92 M21.93 56.92 C35.49 43.27, 48.15 26.85, 54.92 19.51 M19.76 58.62 C34.4 43.19, 47.02 27.46, 54.66 17.66 M24.94 61.41 C37.99 46.27, 47.86 34.51, 57.28 20.72 M23.99 59.61 C30.95 51.44, 37.82 43.23, 56.94 22.09 M32.02 59.51 C36.85 49.63, 46.45 41.11, 59.55 25.32 M29.63 60.03 C36.01 50.63, 43.19 43.69, 60.8 24.89 M34.84 59.75 C43.41 50.49, 49.62 43.87, 61.18 31.42 M35.44 59.28 C43.06 50.71, 49.19 43.9, 59.41 31.29 M43.03 58.28 C47.88 51.52, 53.81 45.7, 61.52 35.45 M42.51 57.78 C46.1 51.65, 51.64 47.51, 58.76 38.11" stroke="#12b886" stroke-width="0.5" fill="none"></path><path d="M27.61 -0.09 C33.81 -0.89, 42.55 1.81, 47.64 5.59 C52.73 9.37, 56.56 16.21, 58.16 22.56 C59.76 28.91, 60.01 37.96, 57.21 43.66 C54.42 49.37, 47.24 54.38, 41.37 56.79 C35.5 59.2, 27.94 59.75, 21.99 58.11 C16.03 56.47, 9.24 52.16, 5.65 46.98 C2.06 41.79, -0.28 33.3, 0.45 26.99 C1.18 20.68, 5.17 13.6, 10.04 9.11 C14.9 4.63, 25.82 1.38, 29.64 0.06 C33.47 -1.25, 32.75 0.8, 32.99 1.24 M19.22 2.5 C25.14 0.33, 35.95 -0.46, 42.29 1.9 C48.63 4.27, 54.41 10.98, 57.25 16.67 C60.09 22.35, 60.92 29.81, 59.3 36.02 C57.68 42.24, 52.71 50.01, 47.55 53.94 C42.39 57.87, 34.42 59.79, 28.33 59.62 C22.25 59.45, 15.69 57.06, 11.06 52.93 C6.44 48.8, 1.89 41.27, 0.59 34.86 C-0.71 28.45, -0.22 19.78, 3.24 14.48 C6.69 9.17, 18.54 4.92, 21.32 3.02 C24.09 1.12, 20 2.81, 19.89 3.07" stroke="#000000" stroke-width="1" fill="none"></path></g><g stroke-linecap="round"><g transform="translate(911.1328050049099 505.8617017680757) rotate(299.4109972382423 4.420981708841509 10.16299127519785)" fill-rule="evenodd"><path d="M-1.07 -0.57 L0.31 10.32 L18.38 8.52 L16.15 20.66 L-9.65 19.35 L-7.18 0.84 L-0.31 -1.46" stroke="none" stroke-width="0" fill="#ffffff" fill-rule="evenodd"></path><path d="M-0.87 -0.14 C-0.49 3, -0.17 6.08, -0.98 9.72 M-0.34 0.19 C-0.31 3.62, 0.2 6.78, 0.13 10.43 M0.58 10.96 C8.2 9.42, 12.43 9.78, 16.88 8.44 M0.51 10.58 C6.5 10.04, 12.45 10.3, 17.45 9.82 M18.27 9.21 C18.11 14.22, 18.96 16.82, 18.59 19.53 M17.77 10.2 C17.87 13.12, 18.06 15.98, 17.51 19.92 M18.99 19.01 C8.18 18.27, -0.02 20.56, -9.69 20.98 M18.63 19.98 C11.23 20.53, 3.84 20.01, -8.84 19.35 M-7.44 21.1 C-7.17 14.37, -9.74 10.51, -10.15 0.33 M-9.42 20.54 C-8.38 13.06, -9.57 5.54, -8.09 -0.35 M-8.27 0.04 C-6.82 -0.56, -4.02 -0.01, -0.39 -0.77 M-8.89 -0.28 C-5.65 -0.39, -2.3 0.21, 0.37 0.37 M0 0 C0 0, 0 0, 0 0 M0 0 C0 0, 0 0, 0 0" stroke="#000000" stroke-width="1" fill="none"></path></g></g><mask></mask><g stroke-linecap="round" transform="translate(620.9904265792012 1268.6341150764483) rotate(0 30 30)"><path d="M1.04 19.45 C1.04 19.45, 1.04 19.45, 1.04 19.45 M1.04 19.45 C1.04 19.45, 1.04 19.45, 1.04 19.45 M0.4 23.73 C5.67 19.37, 15.44 12.59, 18.24 8.11 M0.98 24.79 C5.12 19.91, 8.21 16.16, 17.12 6.18 M2.21 30.23 C7.37 23.8, 13.97 15.68, 22.41 5.26 M1.07 29.85 C8.92 22.49, 15.09 15.87, 23.9 5.68 M3.19 37.61 C8.62 29.99, 14.43 20.61, 30.62 3.28 M2.41 35.65 C9.72 27.04, 18.1 17.6, 29.77 4.27 M5.47 38.97 C13.34 29.16, 23.9 18.49, 37.36 1.2 M4.9 39.71 C17.76 26.14, 29.93 10.79, 37.43 2.93 M4.53 43.8 C17.93 33.4, 26.93 22.83, 39.57 4.8 M6.61 44.17 C15.31 34.28, 25.6 22.34, 39.76 4.12 M7.45 46.5 C18.4 36.26, 27.08 28.49, 42.65 5.77 M8.17 47.64 C19.89 33.28, 33.45 18.24, 45.07 7.32 M11.66 50.47 C20.87 41.11, 26.1 33.49, 46.14 8.62 M10.84 51.54 C24.5 34.4, 38.22 19.64, 47.03 9.17 M13.18 54.88 C25.62 41.5, 35.34 27.12, 52.51 12.48 M14.87 54.15 C27.27 39.29, 39.39 23.07, 50.66 11.54 M18.16 58.56 C29.52 41.71, 44.23 26.34, 54.01 10.91 M16.37 56.79 C30.59 40.23, 44.77 22.18, 55.38 12.65 M20.99 55.95 C28.91 47.49, 38.14 38.05, 56.94 15.45 M21.51 57.06 C30.74 45.14, 42.42 33.38, 56.51 16.91 M25.95 59.78 C37.25 44.83, 51.12 31.71, 58.35 20.68 M25.49 59.78 C37.57 44.52, 51.32 28.89, 58.22 21.23 M30.62 59.55 C36.92 52.04, 44.18 45.24, 57.03 25.31 M30.12 58.78 C39.4 47.86, 50.76 34.86, 59.69 26.38 M35.44 59.64 C42.36 51.9, 53.2 41.79, 61.63 30.45 M34.63 61.28 C41.66 52.73, 47.42 44.55, 59.47 30.61 M39.25 62.35 C42.33 56.83, 46 50.16, 57.62 40.74 M37.39 62.17 C43.83 54.68, 49.37 47.39, 55.67 41" stroke="#12b886" stroke-width="0.5" fill="none"></path><path d="M35.56 1.43 C41.69 2.16, 48.33 6.49, 52.31 11.25 C56.29 16.01, 59.48 23.76, 59.46 29.99 C59.44 36.22, 56.26 43.66, 52.19 48.64 C48.12 53.62, 41.22 58.64, 35.05 59.86 C28.88 61.07, 20.64 59.28, 15.18 55.91 C9.72 52.55, 4.67 45.74, 2.29 39.68 C-0.09 33.63, -1.26 25.38, 0.92 19.58 C3.11 13.78, 8.93 7.77, 15.4 4.89 C21.88 2.02, 34.94 2.41, 39.76 2.35 C44.58 2.28, 44.54 4.03, 44.32 4.5 M33.95 1.48 C40.21 2.12, 48.82 6.69, 53.14 11.37 C57.46 16.05, 59.75 23.44, 59.87 29.53 C59.99 35.63, 57.93 42.95, 53.87 47.96 C49.81 52.98, 42.09 58.48, 35.51 59.63 C28.93 60.78, 19.96 57.91, 14.39 54.89 C8.82 51.87, 4.02 47.13, 2.08 41.49 C0.14 35.84, 0.47 27.39, 2.77 21.01 C5.08 14.62, 10.67 6.76, 15.9 3.18 C21.12 -0.4, 31.15 -0.15, 34.12 -0.48 C37.09 -0.81, 33.48 0.63, 33.7 1.21" stroke="#000000" stroke-width="1" fill="none"></path></g><g stroke-linecap="round"><g transform="translate(647.946409106345 1286.2909150326) rotate(299.4109972382423 4.030574661281037 10.652155321100565)" fill-rule="evenodd"><path d="M-1.58 1.75 L-1.85 11.71 L19.87 8.42 L19.47 21.11 L-8.51 19.66 L-7.57 0.29 L-0.26 -0.69" stroke="none" stroke-width="0" fill="#ffffff" fill-rule="evenodd"></path><path d="M-0.82 0.15 C0.52 4.35, -0.55 7.37, -0.54 10.18 M0.17 0.03 C-0.13 2.34, -0.42 3.82, -0.15 10.3 M-0.95 9.81 C5.32 10.89, 14.18 9.29, 18.74 9.15 M-0.08 10.07 C7.04 9.36, 13.28 10.02, 17.29 9.23 M18.45 10.94 C17.24 12.72, 17.41 15.57, 18.1 20.89 M18.17 10.31 C18.29 12.49, 18.37 16.04, 17.76 20.13 M18.03 18.61 C10.44 18.8, 5.64 19.4, -10.68 21.98 M17.3 19.55 C9.07 19.16, 2.23 20.95, -8.15 20.6 M-7.9 19.17 C-9.43 13.29, -10.72 5.09, -10.03 -0.11 M-8.4 20.26 C-9.14 15.55, -9.04 11.61, -9.92 -0.53 M-8.76 -0.68 C-7.33 0.25, -4.4 -0.33, 0.8 0.38 M-8.94 0.22 C-6.14 0.03, -3.68 -0.07, -0.31 0.19 M0 0 C0 0, 0 0, 0 0 M0 0 C0 0, 0 0, 0 0" stroke="#000000" stroke-width="1" fill="none"></path></g></g><mask></mask><g stroke-linecap="round" transform="translate(1098.0575156026632 1215.9708649894428) rotate(0 30.000000000000057 30)"><path d="M2.9 15.77 C2.9 15.77, 2.9 15.77, 2.9 15.77 M2.9 15.77 C2.9 15.77, 2.9 15.77, 2.9 15.77 M3.05 24.05 C6.63 16.93, 15.33 7.57, 18.43 3.68 M1.93 22.12 C5.17 18.64, 9.62 15.15, 18.79 3.2 M0 29.51 C8 22.84, 14.87 13.31, 22.91 3.5 M1.48 29.92 C6.7 22.92, 13.76 15.92, 25.3 3.02 M1.65 35.07 C10.86 23.38, 19.54 13.89, 28.86 0.55 M0.8 36.06 C9.7 27.28, 18.43 17.61, 29.55 2.27 M3.14 39.03 C14.92 26.28, 25.51 17.81, 34.35 3.65 M3.21 40.75 C14.07 26.78, 25.44 12.7, 35.92 2.97 M4.04 44.14 C16.1 28.63, 26.75 17.02, 41.51 1.11 M4.22 43.46 C18.44 27.62, 33.29 10.83, 40.57 2.95 M5.81 46.61 C17.32 37.21, 26.97 24.58, 44.72 3.51 M8.23 48.17 C18.13 33.19, 31.41 20.38, 43.88 5.95 M7.98 50.97 C21.91 40.26, 30.8 25.71, 48.77 8.06 M8.87 51.52 C18.84 40.63, 28.74 28.7, 47.8 8.17 M13.69 55.59 C26.62 39.61, 37.18 24.76, 51.77 11.39 M11.85 54.65 C25.84 38.77, 39.1 24.54, 50.96 10.41 M15.85 53.26 C28.54 42.86, 36.94 30.07, 53.3 12.11 M17.22 55.01 C27.96 41.29, 41.65 28.1, 52.12 12.9 M20.75 55.54 C29.69 45.63, 38.45 36.31, 54.62 13.63 M20.32 57.01 C30.86 44.88, 39.68 34.28, 56.49 15.4 M24.78 57.76 C35.87 45, 43.48 35.97, 58.89 19.26 M24.66 58.3 C34.39 46.03, 46.39 33.73, 57.25 20.54 M26.75 58.61 C39.55 48.54, 49.57 36.19, 57.23 24.17 M29.4 59.68 C38.87 48.88, 47.92 37.03, 57.79 25.12 M33.97 60.73 C41.21 47.63, 52.4 38.55, 61.04 31.05 M31.81 60.89 C40.17 51.45, 48.01 43.25, 59.26 30.05 M41.77 57.44 C46.97 53.77, 51.75 43.88, 60.13 34.64 M39.81 57.69 C44.68 52.67, 50.93 45.97, 60.93 36.09" stroke="#12b886" stroke-width="0.5" fill="none"></path><path d="M38.73 1.05 C44.67 2.68, 51.82 9.19, 55.32 14.75 C58.82 20.3, 60.56 28.21, 59.71 34.39 C58.86 40.57, 55.21 47.59, 50.23 51.81 C45.25 56.03, 36.26 59.29, 29.85 59.69 C23.44 60.09, 16.74 58.09, 11.78 54.21 C6.82 50.33, 1.51 42.87, 0.07 36.41 C-1.36 29.96, 0.12 21.11, 3.16 15.47 C6.19 9.83, 11.67 4.77, 18.27 2.58 C24.87 0.39, 38.27 2.09, 42.78 2.35 C47.29 2.61, 45.47 3.58, 45.33 4.15 M40.9 0.93 C46.75 2.7, 52.88 9.76, 55.81 15.26 C58.73 20.76, 59.54 27.53, 58.46 33.95 C57.37 40.37, 53.87 49.3, 49.3 53.77 C44.73 58.24, 37.27 61.1, 31.05 60.77 C24.83 60.44, 17.2 56.23, 12 51.81 C6.8 47.4, 1.34 40.38, -0.13 34.27 C-1.6 28.17, -0.36 20.64, 3.17 15.17 C6.71 9.7, 14.81 3.77, 21.06 1.44 C27.31 -0.9, 37.39 0.87, 40.69 1.16 C43.99 1.46, 40.92 2.8, 40.86 3.22" stroke="#000000" stroke-width="1" fill="none"></path></g><g stroke-linecap="round"><g transform="translate(1125.0134981298072 1233.6276649455945) rotate(299.4109972382423 4.321075059655129 10.547197607206556)" fill-rule="evenodd"><path d="M1.54 1.04 L0.45 9.62 L19.33 10.33 L17.67 19.38 L-10.04 18.31 L-9.06 1.71 L0.59 0.91" stroke="none" stroke-width="0" fill="#ffffff" fill-rule="evenodd"></path><path d="M-0.54 0.14 C-0.95 3.48, -0.37 8.36, 0.05 9.89 M-0.15 0.27 C0.33 3.18, 0.19 6.61, -0.06 9.62 M0.81 9.15 C7.66 10.7, 13.92 9.95, 18.01 10.7 M-0.64 9.23 C4.34 10.45, 9.26 10.47, 18.74 9.37 M18.1 10.86 C17.65 12.89, 17.42 15.77, 18.48 20.73 M17.76 10.1 C17.63 11.89, 18.4 14.77, 17.56 19.7 M16.21 21.98 C11.93 21.81, 6.12 18.69, -10 18.7 M18.75 20.6 C13 19.59, 7.59 20.83, -9.42 19.77 M-10.03 19.96 C-10.38 12.9, -9.47 8.4, -8.58 -0.5 M-9.92 19.53 C-9.22 14.4, -8.79 8.66, -9.72 -0.89 M-8.16 0.38 C-6.15 -0.62, -2.81 0.09, 0.44 0.55 M-9.27 0.19 C-6.49 0, -3.76 -0.31, 0.09 -0.33 M0 0 C0 0, 0 0, 0 0 M0 0 C0 0, 0 0, 0 0" stroke="#000000" stroke-width="1" fill="none"></path></g></g><mask></mask><g stroke-linecap="round" transform="translate(915.2850594183498 1451.4065712607617) rotate(0 30 30)"><path d="M4.08 15.47 C4.08 15.47, 4.08 15.47, 4.08 15.47 M4.08 15.47 C4.08 15.47, 4.08 15.47, 4.08 15.47 M2.1 22.51 C7.18 15.65, 13.53 11.3, 20.6 2.49 M2.21 22.09 C7.85 17.02, 13.22 11.41, 19.46 2.11 M4.03 30.61 C9.8 19.44, 18.44 12.07, 26.83 3.83 M1.56 30.19 C8.79 21.31, 16 12.14, 26.05 1.87 M1.77 36.17 C7.01 29.86, 14.9 23.53, 32.38 1.42 M2.65 36.48 C9.1 27.88, 16.94 18.68, 31.82 2.15 M3.93 40.95 C16.56 25.28, 27.69 10.53, 34.73 2.47 M4.99 39.13 C16.7 24.91, 28.3 10.03, 36.81 2.84 M5.71 42.39 C12.67 33.3, 21.54 25.37, 39.62 2.91 M6.75 42.97 C17.94 30.07, 30.85 16.3, 40.34 4.06 M6.97 49.05 C17.73 36.17, 22.62 29.78, 44.48 6.12 M8.98 46.25 C22.23 32.27, 36.75 15.7, 43.66 7.2 M11.82 48.99 C24.19 36.99, 35.85 24.79, 46.66 9.79 M10.48 51.31 C23.94 36.46, 36.34 20.41, 48.35 9.05 M10.79 54.35 C26.71 40.04, 38.48 24.39, 52.29 12.71 M12.19 54.36 C23.16 41.65, 35.86 26.96, 50.5 10.93 M14.95 57.55 C25.68 43.76, 34.59 36.29, 53.81 11.6 M16.47 56.08 C26.92 43.2, 38.29 30.31, 54.33 12.71 M22.28 57.52 C28.18 50.21, 34.56 39.57, 57.46 16.94 M21.75 57.05 C30.83 46.1, 40.21 33.49, 57 16.94 M24.35 58.64 C33.19 47.71, 40.91 41.2, 58.19 21.24 M26.38 56.98 C34.77 47.05, 45.43 35.78, 57.69 20.48 M27.25 61.34 C36.77 52.28, 44.81 42.13, 59.73 25.11 M29.83 60.62 C36.79 49.8, 44.19 41.06, 58.92 26.74 M31.73 60.67 C41.08 50.73, 49.54 39.91, 60.26 31.59 M32.02 62.58 C39.61 53.94, 48.38 44.99, 58.41 31.41 M40.04 58.05 C44.69 50.92, 51.83 46.82, 59.13 37.71 M40.35 58.41 C48.54 49.99, 55.3 41.08, 61.01 36.17" stroke="#fa5252" stroke-width="0.5" fill="none"></path><path d="M19.92 2.74 C25.55 0.36, 33.5 0.25, 39.39 2.21 C45.28 4.18, 52.03 9.02, 55.26 14.55 C58.49 20.07, 59.67 29.06, 58.78 35.36 C57.88 41.67, 54.55 48.35, 49.89 52.37 C45.23 56.39, 37.19 59.31, 30.84 59.5 C24.48 59.7, 16.68 57.56, 11.75 53.56 C6.82 49.56, 2.54 41.81, 1.23 35.5 C-0.08 29.19, 0.11 21.55, 3.87 15.7 C7.63 9.85, 19.48 3.02, 23.78 0.38 C28.09 -2.25, 29.65 -0.64, 29.7 -0.11 M38.59 -0.22 C44.32 0.61, 50.28 6.08, 53.69 11.5 C57.1 16.93, 59.18 25.83, 59.04 32.32 C58.89 38.82, 57.09 46.01, 52.83 50.48 C48.57 54.96, 39.98 58.29, 33.5 59.15 C27.02 60.02, 19.18 59.34, 13.96 55.7 C8.73 52.06, 3.85 43.41, 2.16 37.31 C0.47 31.22, 1.46 24.81, 3.82 19.13 C6.18 13.45, 10.93 6.53, 16.31 3.24 C21.69 -0.05, 32.45 -0.33, 36.1 -0.61 C39.76 -0.89, 38.38 0.99, 38.26 1.54" stroke="#000000" stroke-width="1" fill="none"></path></g><g stroke-linecap="round"><g transform="translate(938.7294087772308 1474.6634691304316) rotate(314.8018799663395 6.234984268250059 6.6807215154449295)" fill-rule="evenodd"><path d="M0.89 -0.39 L0.07 -11.95 L14.25 -12.54 L12.58 1.82 L24.51 -0.52 L26.93 14.82 L11.81 13.64 L13.66 24.93 L0.72 26.21 L-1.28 13.23 L-12 13.6 L-12.74 0.1 L0.78 0.55" stroke="none" stroke-width="0" fill="#ffffff" fill-rule="evenodd"></path><path d="M-1.09 -0.39 C0.64 -2.68, -0.72 -6.75, -0.69 -13.19 M-0.24 0.3 C-0.39 -2.35, 0.15 -5.2, -0.06 -13 M0.16 -13.96 C3.22 -12.93, 9.42 -12.02, 13.71 -11.85 M-0.39 -12.92 C3.48 -13.1, 6.04 -13.25, 13.35 -12.67 M14.18 -13.48 C13.12 -9.24, 11.65 -2.47, 13.11 -0.95 M12.75 -13.59 C13.57 -10.04, 13.55 -6.99, 12.63 -0.34 M14.13 1.06 C16.76 0.65, 18.17 0.76, 26.78 -0.59 M12.82 -0.35 C16.52 -0.4, 19.83 -0.1, 26.45 0.13 M26.55 -1.24 C25.37 3.21, 26.27 7.34, 26.37 12.04 M25.85 0.58 C26.39 2.65, 25.64 5.68, 26.12 13.34 M25.94 12.13 C21.92 12.16, 16.62 11.97, 12.1 13.28 M25.56 12.96 C23.12 12.74, 20.22 13.41, 13.22 13.53 M13.02 13.9 C13.42 14.9, 14.15 17.63, 14.13 27.32 M13.19 12.89 C13.6 15.98, 13.06 18.51, 12.69 25.48 M13.63 26.9 C8.65 26.19, 5.03 25.16, -1.12 26.47 M13.16 25.95 C8.35 25.83, 4.15 26.1, 0.09 25.66 M0.58 26.96 C-0.99 22.16, 0.52 19.82, 0.76 12.4 M0.35 25.59 C0.75 22.19, -0.45 16.84, 0.29 13.24 M-0.62 13.76 C-4.85 13.16, -6.62 14.29, -13.21 12.79 M0.11 13.37 C-5.54 13.47, -10.14 13.47, -12.65 12.75 M-13.3 12.65 C-11.97 9.03, -12.43 3.74, -14.31 1.09 M-13.22 12.48 C-13.18 8.32, -12.86 2.74, -12.87 0.57 M-11.76 -0.38 C-8.17 -1.28, -1.62 0.08, -0.55 -0.04 M-13.63 -0.61 C-8.35 -0.18, -5.33 -0.35, 0.64 0.09 M0 0 C0 0, 0 0, 0 0 M0 0 C0 0, 0 0, 0 0" stroke="#000000" stroke-width="1" fill="none"></path></g></g><mask></mask><g stroke-linecap="round" transform="translate(2304.9992455772376 1249.9324203415567) rotate(0 30 30)"><path d="M1.65 17.33 C1.65 17.33, 1.65 17.33, 1.65 17.33 M1.65 17.33 C1.65 17.33, 1.65 17.33, 1.65 17.33 M0.23 21.11 C9.12 16.56, 10.99 10.14, 20.41 4.37 M2.52 22.63 C5.87 18.3, 8.99 14.96, 18.02 4.88 M1.35 30.51 C7.84 23.35, 13.79 16.71, 23.23 4.6 M2.32 29.98 C9.76 20.29, 18.11 10.9, 23.82 4.14 M2.79 33.89 C14.08 22.44, 23.06 9.86, 31.42 3.13 M2.45 35.92 C10.1 24.32, 20.44 14.95, 30.9 2.63 M4.49 38 C13.85 30.28, 21.95 21.09, 36.81 0.97 M4.03 40.59 C13.33 28.86, 21.26 17.59, 38.18 0.16 M4.66 42.19 C18.31 26.67, 32.38 10.25, 39.64 3.72 M4.91 42.47 C17.44 30.3, 27.86 19.29, 40.98 1.87 M6.07 45.61 C18.45 32.9, 27.75 22.64, 44.44 4.16 M8.16 45.92 C20.98 31.49, 34.48 15.52, 44.13 6.05 M10.1 49.63 C19.33 37.97, 30.85 26.9, 45.78 7.76 M9.44 50.69 C21.85 36.04, 33.16 23.07, 47.99 7.88 M12.87 50.81 C24.59 39.93, 36.87 23.86, 52.29 8.84 M13.41 53.19 C22.88 42.59, 33.08 31.09, 49.77 8.83 M17.47 54.06 C27.72 43.51, 37.22 29.89, 52.87 13.78 M15.24 56.85 C30.7 39.57, 44.78 24.64, 54.03 12.05 M20.68 58.05 C30.29 44.11, 43.13 30.56, 55.46 14.69 M19.58 57.75 C27.75 47.53, 37.74 37.88, 56.68 15.25 M23.2 59.25 C33.78 47.98, 41.92 37.69, 59.21 18.84 M24.16 57.85 C36.32 45.31, 48.27 31.58, 57.52 20.43 M28.44 61.25 C35.68 50.43, 43.37 44.17, 60.55 22.61 M28.72 60.58 C38.63 46.34, 51.74 33, 59.51 22.94 M34.59 59.5 C43.28 47.79, 54.95 38.44, 62.11 28.68 M32.5 60.76 C39.2 54.01, 46.34 45.81, 62.01 28.97 M41.48 55.74 C47.72 52.35, 52.55 46.07, 62.16 33.22 M41.29 57.27 C45.98 51.39, 50.36 45.73, 61.51 33.9" stroke="#12b886" stroke-width="0.5" fill="none"></path><path d="M37.78 0.13 C43.82 1.2, 50.02 7.27, 53.79 12.67 C57.55 18.06, 60.81 26.1, 60.38 32.5 C59.95 38.9, 55.87 46.48, 51.23 51.08 C46.58 55.68, 38.74 59.55, 32.52 60.08 C26.3 60.61, 18.97 57.72, 13.92 54.25 C8.87 50.78, 4.25 45.41, 2.2 39.25 C0.16 33.09, -0.82 23.28, 1.66 17.31 C4.15 11.34, 10.86 5.93, 17.13 3.44 C23.4 0.95, 35.27 2.53, 39.29 2.36 C43.31 2.19, 41.29 2.23, 41.24 2.42 M31.51 -0.22 C37.66 -0.46, 47.31 3.91, 51.89 8.41 C56.48 12.9, 58.37 20.57, 59.03 26.73 C59.69 32.89, 59.07 40.04, 55.87 45.37 C52.67 50.7, 45.9 56.55, 39.81 58.73 C33.72 60.91, 25.54 60.79, 19.33 58.46 C13.13 56.12, 5.54 50.45, 2.56 44.7 C-0.41 38.95, -0.06 30.49, 1.47 23.95 C3 17.42, 6.5 9.32, 11.76 5.52 C17.01 1.72, 29.56 1.84, 33.01 1.15 C36.46 0.46, 32.93 0.84, 32.45 1.36" stroke="#000000" stroke-width="1" fill="none"></path></g><g stroke-linecap="round"><g transform="translate(2331.9552281043816 1267.5892202977084) rotate(299.4109972382423 4.933126281046043 10.588367162598672)" fill-rule="evenodd"><path d="M1.06 -0.72 L-0.5 11.46 L19.54 11.4 L19.6 19.59 L-9.8 18.17 L-8.6 0.51 L1.84 0.79" stroke="none" stroke-width="0" fill="#ffffff" fill-rule="evenodd"></path><path d="M-0.45 0.44 C0.66 1.69, -0.42 5.26, 0.44 10.62 M0.13 0.27 C-0.32 3.03, 0.44 4.63, -0.33 10.26 M-0.28 9.18 C6.97 8.43, 12.12 11.2, 19.69 9.8 M-0.46 10.18 C5.52 9.36, 10.81 10, 18.64 10.57 M18.49 9.83 C17.72 13.48, 18.75 15.71, 18.41 19.09 M18.19 9.9 C17.59 13.83, 18.29 17.93, 17.79 20.2 M17.89 22.02 C6.9 19.64, -4.91 21.79, -8.85 19.22 M18.2 19.16 C9.02 20.88, 1.74 19.24, -9.45 21.05 M-9.55 21.03 C-9.46 14.57, -10.35 7.66, -9.33 -0.85 M-9.19 19.85 C-8.25 12.85, -8.92 5.69, -9.45 -0.43 M-8.93 0.48 C-5.33 0.24, -2.99 0.83, -0.7 -0.23 M-8.83 0.14 C-6.14 0.22, -2.79 -0.23, 0.05 0.23 M0 0 C0 0, 0 0, 0 0 M0 0 C0 0, 0 0, 0 0" stroke="#000000" stroke-width="1" fill="none"></path></g></g><mask></mask><g stroke-linecap="round" transform="translate(2795.9153787531686 1198.75583502978) rotate(0 30 30)"><path d="M2.23 17.84 C2.23 17.84, 2.23 17.84, 2.23 17.84 M2.23 17.84 C2.23 17.84, 2.23 17.84, 2.23 17.84 M3.94 24.5 C5.02 18.74, 10.98 14.4, 18.35 5.4 M1.55 25.02 C5.02 18.94, 9.3 15.35, 19.6 4.97 M0.85 31.53 C9.05 22.7, 14.89 16.51, 25.88 4.71 M1.45 31.06 C8.72 22.89, 14.49 16.51, 24.11 4.58 M2.48 37.6 C10.84 26.89, 20.2 17.12, 32.13 1.94 M1.96 37.1 C8.43 27.53, 16.91 20.01, 29.37 4.6 M1.97 42.23 C13.66 27.28, 27.21 16.28, 38.63 3.59 M3.34 41.42 C13.66 31.05, 22.18 19.36, 36.72 1.43 M4.14 45.74 C15.12 33.59, 24.09 21.94, 38.67 6.4 M5.48 43.89 C13.75 34.19, 21.92 23.73, 39.76 4.45 M8.29 46.94 C17.28 40.85, 21.92 30.5, 42.47 6.74 M7.98 48.82 C17.51 36.03, 27.87 25.18, 43.76 5.61 M9.62 50.54 C22.3 39.99, 33.26 23.92, 48.94 8.11 M11.84 50.66 C22.36 38.13, 33.66 24.73, 46.71 8.17 M14.82 53.12 C25.33 40.82, 38.63 24.55, 51.71 11.31 M12.3 53.12 C27.76 36.19, 43.43 20.58, 49.66 11.06 M14.75 58.82 C30.99 40.07, 43.16 24.83, 55.95 14.36 M15.9 57.09 C25.05 45.58, 35.47 35.11, 54.78 12.04 M19.31 57.46 C31 43.98, 43.13 29.68, 57.22 15.47 M20.53 58.03 C30.35 46.55, 41.33 33.68, 56.53 16.89 M26.34 57.84 C37.77 43.78, 47.44 31.29, 56.9 21.44 M24.65 59.43 C34.3 46.47, 45.83 35.6, 58.3 21.01 M30.3 58.6 C38.04 50.28, 45.58 43.66, 59.67 24.11 M29.26 58.93 C36.91 52.52, 43 44.09, 58.3 26.11 M35.14 60.89 C38.83 51.89, 46.32 44.54, 61.03 29.32 M35.05 61.17 C43.76 47.89, 54.82 36.85, 60.21 30.38 M43.07 56.37 C48.97 48.14, 58 37.02, 64.74 32.81 M42.42 57.05 C48.1 50.12, 54.39 42.1, 63.03 32.6 M50.63 53.46 C53.05 49.93, 56.67 47.46, 60.11 44.23 M50.11 53.94 C53.17 50.06, 57.27 46.19, 59.73 43.63" stroke="#12b886" stroke-width="0.5" fill="none"></path><path d="M36.18 1.12 C42.01 2.05, 49.06 7.2, 53.11 12.14 C57.16 17.07, 60.53 24.25, 60.51 30.76 C60.49 37.27, 57.6 46.47, 52.99 51.2 C48.39 55.92, 39.36 58.39, 32.89 59.11 C26.42 59.83, 19.45 58.76, 14.18 55.53 C8.91 52.3, 3.24 45.98, 1.25 39.71 C-0.75 33.43, -0.41 24.09, 2.19 17.89 C4.8 11.69, 10.73 5.14, 16.86 2.5 C23 -0.13, 34.84 2.08, 39 2.08 C43.16 2.09, 42.02 2.04, 41.83 2.54 M33.31 -0.98 C39.75 -0.89, 47.7 3.86, 52.32 8.72 C56.95 13.59, 60.78 21.59, 61.06 28.19 C61.34 34.8, 57.74 43.08, 53.98 48.34 C50.22 53.61, 44.67 58.38, 38.52 59.79 C32.37 61.2, 22.83 59.44, 17.1 56.79 C11.37 54.13, 6.7 49.49, 4.15 43.86 C1.59 38.23, 0.59 29.22, 1.77 23.03 C2.96 16.85, 5.92 10.43, 11.26 6.73 C16.61 3.04, 30.18 1.96, 33.84 0.89 C37.51 -0.19, 33.72 -0.05, 33.25 0.29" stroke="#000000" stroke-width="1" fill="none"></path></g><g stroke-linecap="round"><g transform="translate(2822.8713612803126 1216.4126349859318) rotate(299.4109972382423 3.9158083471124883 10.27451630419472)" fill-rule="evenodd"><path d="M1.67 -0.48 L-0.83 8.14 L18.3 10.54 L19.77 20.86 L-8.92 19.14 L-10.06 -0.99 L-0.64 -0.81" stroke="none" stroke-width="0" fill="#ffffff" fill-rule="evenodd"></path><path d="M0.44 0.59 C-0.52 2.67, -0.83 4.85, 0.55 9.31 M-0.33 0.22 C0.24 3.96, 0.51 7.93, -0.24 10.32 M1.76 9.8 C3.61 11.49, 8.16 8.99, 18.23 10.97 M0.71 10.57 C3.7 10.75, 8.56 10.53, 17.75 9.77 M18.41 9.06 C18.85 14.79, 18.53 18.31, 17.65 19.22 M17.79 10.17 C18.43 13.41, 18.02 15.82, 18.42 19.92 M18.05 19.22 C10.39 20.56, 2.11 20.83, -10.77 18.21 M17.45 21.05 C7.49 18.97, -3.28 19.58, -8.48 19.73 M-9.33 19.22 C-7.25 11.83, -10.77 6.02, -9.4 1.14 M-9.45 19.64 C-8.5 13.78, -9.14 6.63, -8.42 0.6 M-9.67 -0.23 C-5.68 0.72, -3.7 0.19, 0.28 -0.5 M-8.92 0.23 C-5.83 0.12, -2.92 0.23, 0.12 0.41 M0 0 C0 0, 0 0, 0 0 M0 0 C0 0, 0 0, 0 0" stroke="#000000" stroke-width="1" fill="none"></path></g></g><mask></mask><g transform="translate(880.5542167152513 1554.8249090760494) rotate(0 73.96199798583984 22.5)"><text x="0" y="0" font-family="Virgil, Segoe UI Emoji" font-size="36px" fill="#1e1e1e" text-anchor="start" style="white-space: pre;" direction="ltr" dominant-baseline="text-before-edge">Garbage</text></g></svg>