<svg version="1.1" xmlns="http://www.w3.org/2000/svg" viewBox="0 0 4107.529100499891 790.649473245419" width="8215.058200999782" height="1581.298946490838">
  <!-- svg-source:excalidraw -->
  
  <defs>
    <style class="style-fonts">
      @font-face {
        font-family: "Virgil";
        src: url("https://excalidraw.com/Virgil.woff2");
      }
      @font-face {
        font-family: "Cascadia";
        src: url("https://excalidraw.com/Cascadia.woff2");
      }
    </style>
    
  </defs>
  <rect x="0" y="0" width="4107.529100499891" height="790.649473245419" fill="#ffffff"></rect><g stroke-linecap="round" transform="translate(382.41271059449514 193.99934311538107) rotate(0 448.4970278127253 293.325065065019)"><path d="M32 0 M32 0 C326.45 -1.13, 618.73 -1.61, 864.99 0 M32 0 C317.74 -0.24, 604.41 -0.35, 864.99 0 M864.99 0 C884.9 0.23, 896.49 11.26, 896.99 32 M864.99 0 C884.73 2.09, 897.29 12.44, 896.99 32 M896.99 32 C896.74 186.5, 897.79 343.05, 896.99 554.65 M896.99 32 C894.85 233.88, 895.21 436.5, 896.99 554.65 M896.99 554.65 C897.55 577.55, 884.68 586.07, 864.99 586.65 M896.99 554.65 C895.41 577.26, 884.26 587.22, 864.99 586.65 M864.99 586.65 C688.36 589.97, 512.84 589.53, 32 586.65 M864.99 586.65 C596.01 588.19, 326.47 587.78, 32 586.65 M32 586.65 C11.57 588.36, 0.27 575.62, 0 554.65 M32 586.65 C9.33 586.89, 1.07 575.3, 0 554.65 M0 554.65 C-1.22 439.17, -0.96 323.47, 0 32 M0 554.65 C-2.18 449.03, -2.1 343.71, 0 32 M0 32 C-0.96 9.29, 10.26 1.73, 32 0 M0 32 C0.16 12.3, 12.52 -0.31, 32 0" stroke="#1e1e1e" stroke-width="1" fill="none"></path></g><g stroke-linecap="round" transform="translate(10 388.21457390928447) rotate(0 149.16530612521444 89.09873990029587)"><path d="M83.12 8.81 C96.66 3.22, 116.6 0.56, 133.44 -0.4 C150.29 -1.37, 167.75 0.29, 184.2 3.03 C200.65 5.76, 217.76 10.26, 232.15 16.02 C246.54 21.77, 260.32 29.45, 270.54 37.56 C280.75 45.67, 289.02 55.02, 293.46 64.68 C297.89 74.33, 298.39 85.36, 297.16 95.49 C295.93 105.62, 293 116.27, 286.09 125.44 C279.17 134.61, 267.7 143.17, 255.65 150.49 C243.6 157.82, 228.85 165.01, 213.79 169.38 C198.73 173.75, 182.11 175.76, 165.28 176.72 C148.45 177.67, 129.52 177.22, 112.81 175.09 C96.1 172.96, 78.91 169.57, 65.01 163.94 C51.1 158.32, 39.15 149.57, 29.38 141.32 C19.6 133.08, 11.18 124.14, 6.36 114.48 C1.55 104.81, -0.58 93.6, 0.49 83.34 C1.56 73.07, 5.8 62.37, 12.79 52.89 C19.77 43.42, 28.49 34.49, 42.39 26.51 C56.29 18.53, 84.89 8.61, 96.2 5.01 C107.52 1.4, 109.26 3.49, 110.3 4.9 M106.43 5.23 C120.88 0.77, 139.95 -1.41, 156.79 -1.02 C173.62 -0.62, 191.6 3.49, 207.44 7.6 C223.28 11.71, 239.14 16.87, 251.81 23.63 C264.48 30.39, 276.04 38.75, 283.46 48.16 C290.89 57.57, 294.35 69.76, 296.36 80.1 C298.37 90.43, 299.43 100.62, 295.52 110.17 C291.61 119.72, 282.4 129.06, 272.89 137.38 C263.39 145.7, 251.84 153.91, 238.48 160.09 C225.12 166.26, 209.28 171.57, 192.72 174.44 C176.16 177.31, 156.37 177.95, 139.14 177.31 C121.92 176.68, 104.97 174.35, 89.36 170.61 C73.76 166.86, 57.55 161.58, 45.51 154.84 C33.48 148.09, 24.6 139.52, 17.16 130.14 C9.72 120.76, 3.17 108.96, 0.89 98.59 C-1.4 88.22, -0.53 77.4, 3.46 67.91 C7.45 58.42, 15.27 50.18, 24.84 41.65 C34.4 33.13, 47.04 23.08, 60.85 16.78 C74.65 10.49, 99.74 5.64, 107.67 3.87 C115.6 2.11, 107.98 4.76, 108.45 6.17" stroke="#1e1e1e" stroke-width="1" fill="none"></path></g><g transform="translate(82.0775071345893 454.8109906309047) rotate(0 77.11199951171875 22.5)"><text x="77.11199951171875" y="0" font-family="Virgil, Segoe UI Emoji" font-size="36px" fill="#1e1e1e" text-anchor="middle" style="white-space: pre;" direction="ltr" dominant-baseline="text-before-edge">GC Root</text></g><g stroke-linecap="round" transform="translate(540.5880016534475 302.1191623202345) rotate(0 85.0943021519679 71.07877003282033)"><path d="M87 -0.04 C98.05 -0.59, 111.3 3.47, 121.84 7.56 C132.39 11.64, 142.97 17.1, 150.29 24.46 C157.62 31.81, 162.6 42.4, 165.79 51.68 C168.99 60.97, 170.7 70.74, 169.45 80.16 C168.19 89.59, 164.5 99.89, 158.27 108.24 C152.03 116.6, 141.62 124.95, 132.03 130.28 C122.45 135.6, 111.98 138.6, 100.74 140.19 C89.51 141.78, 75.92 141.85, 64.63 139.82 C53.34 137.78, 42.12 133.92, 33.01 127.98 C23.89 122.04, 15.25 112.69, 9.93 104.16 C4.62 95.64, 1.77 86.45, 1.1 76.85 C0.42 67.26, 2.26 55.76, 5.89 46.58 C9.51 37.4, 15.06 28.6, 22.87 21.79 C30.68 14.98, 40.43 9.2, 52.73 5.7 C65.04 2.19, 88.3 1.16, 96.69 0.77 C105.08 0.38, 103.35 2.2, 103.06 3.37 M103.56 1.84 C114.47 3, 125.22 8.66, 134.63 14.36 C144.04 20.05, 154.04 27.75, 160.01 36.01 C165.98 44.27, 169.65 54.4, 170.45 63.91 C171.25 73.43, 168.73 83.75, 164.83 93.12 C160.93 102.49, 154.86 112.99, 147.06 120.11 C139.26 127.23, 128.6 132.32, 118.04 135.84 C107.48 139.35, 95.17 141.06, 83.72 141.2 C72.26 141.34, 59.78 140.35, 49.29 136.69 C38.8 133.03, 28.15 126.65, 20.77 119.26 C13.39 111.86, 8.56 101.38, 5.01 92.32 C1.45 83.26, -1.5 74.61, -0.57 64.88 C0.36 55.15, 4.56 42.54, 10.59 33.95 C16.63 25.36, 26.28 18.84, 35.63 13.35 C44.98 7.86, 55.43 2.9, 66.7 1.01 C77.96 -0.87, 97.11 1.58, 103.21 2.04 C109.31 2.5, 103.51 2.8, 103.3 3.77" stroke="#1e1e1e" stroke-width="1" fill="none"></path></g><g transform="translate(620.6335459308596 350.93765206444846) rotate(0 4.877999782562256 22.5)"><text x="4.877999782562256" y="0" font-family="Virgil, Segoe UI Emoji" font-size="36px" fill="#1e1e1e" text-anchor="middle" style="white-space: pre;" direction="ltr" dominant-baseline="text-before-edge">1</text></g><g stroke-linecap="round" transform="translate(829.9086289701386 487.32440818040004) rotate(0 85.0943021519679 71.07877003282033)"><path d="M53.21 4.71 C63.05 0.44, 76.64 0.37, 88.02 0.63 C99.41 0.9, 111.06 2.32, 121.54 6.29 C132.01 10.26, 143.49 16.93, 150.87 24.44 C158.24 31.94, 162.7 42.06, 165.78 51.31 C168.86 60.56, 170.78 70.38, 169.35 79.92 C167.92 89.45, 163.2 100.13, 157.21 108.51 C151.22 116.89, 142.8 124.7, 133.42 130.2 C124.04 135.7, 112.41 139.92, 100.93 141.5 C89.46 143.08, 75.91 142.12, 64.57 139.68 C53.24 137.24, 41.85 132.69, 32.91 126.85 C23.97 121, 16.43 112.84, 10.93 104.6 C5.43 96.36, 0.99 87.07, -0.09 77.4 C-1.17 67.73, 0.6 55.94, 4.46 46.58 C8.31 37.23, 14.51 28.21, 23.05 21.27 C31.59 14.33, 49.26 7.68, 55.71 4.96 C62.16 2.25, 61.19 4.09, 61.75 5 M96.84 1.44 C108.16 1.54, 122.38 6, 132.03 10.84 C141.68 15.69, 148.78 22.63, 154.73 30.52 C160.67 38.42, 165.66 48.42, 167.69 58.21 C169.71 67.99, 169.75 79.93, 166.88 89.24 C164.01 98.55, 157.81 106.4, 150.48 114.09 C143.15 121.78, 132.83 130.83, 122.89 135.37 C112.95 139.92, 102.21 140.98, 90.84 141.36 C79.47 141.75, 65.65 140.7, 54.65 137.68 C43.64 134.65, 32.74 129.96, 24.79 123.21 C16.84 116.46, 10.97 106.49, 6.94 97.16 C2.91 87.84, 0.32 77.1, 0.62 67.27 C0.92 57.43, 3.68 46.67, 8.73 38.18 C13.79 29.68, 22.06 22.48, 30.94 16.3 C39.82 10.13, 50.83 3.48, 62.02 1.12 C73.22 -1.24, 92.4 2.2, 98.11 2.14 C103.82 2.07, 96.37 0.01, 96.28 0.73" stroke="#1e1e1e" stroke-width="1" fill="none"></path></g><g transform="translate(909.9541732475507 536.142897924614) rotate(0 4.877999782562256 22.5)"><text x="4.877999782562256" y="0" font-family="Virgil, Segoe UI Emoji" font-size="36px" fill="#1e1e1e" text-anchor="middle" style="white-space: pre;" direction="ltr" dominant-baseline="text-before-edge">1</text></g><g stroke-linecap="round" transform="translate(1016.1149842673863 259.07145652570955) rotate(0 85.09430215196784 71.07877003282033)"><path d="M106.66 1.82 C117.59 3.1, 128.23 10.34, 137.09 16.21 C145.94 22.08, 154.27 28.68, 159.8 37.04 C165.33 45.4, 169.51 56.64, 170.27 66.36 C171.02 76.08, 168.33 86.26, 164.32 95.36 C160.3 104.46, 154.06 113.94, 146.18 120.99 C138.3 128.03, 127.71 134.19, 117.05 137.63 C106.39 141.07, 93.91 142.15, 82.23 141.64 C70.55 141.14, 57.48 138.66, 46.96 134.59 C36.45 130.53, 26.47 124.66, 19.14 117.23 C11.8 109.8, 5.83 99.49, 2.94 90.02 C0.05 80.54, 0.2 69.93, 1.79 60.37 C3.39 50.81, 6.65 40.88, 12.53 32.68 C18.41 24.48, 27.24 16.3, 37.08 11.18 C46.91 6.05, 59.47 3.35, 71.54 1.92 C83.61 0.48, 102.95 2.01, 109.51 2.57 C116.07 3.12, 111.43 3.96, 110.88 5.24 M61.46 1.4 C71.31 -2.58, 84.44 -2.11, 95.72 -0.63 C107 0.84, 119.08 5.11, 129.14 10.25 C139.2 15.39, 149.64 22.36, 156.07 30.2 C162.49 38.05, 165.54 47.55, 167.67 57.34 C169.81 67.12, 171.59 79.43, 168.88 88.92 C166.17 98.4, 158.74 106.88, 151.42 114.27 C144.1 121.65, 134.81 128.43, 124.97 133.22 C115.12 138.02, 103.86 142.15, 92.35 143.01 C80.84 143.87, 67.12 141.89, 55.92 138.38 C44.73 134.87, 33.68 128.73, 25.19 121.94 C16.7 115.14, 9.14 106.55, 4.97 97.59 C0.79 88.63, -0.25 77.73, 0.13 68.17 C0.5 58.62, 1.91 49.06, 7.19 40.27 C12.48 31.48, 22.99 21.49, 31.84 15.43 C40.69 9.37, 55.46 5.74, 60.29 3.9 C65.13 2.06, 60.24 3.54, 60.85 4.38" stroke="#1e1e1e" stroke-width="1" fill="none"></path></g><g transform="translate(1096.1605285447984 307.8899462699235) rotate(0 4.877999782562256 22.5)"><text x="4.877999782562256" y="0" font-family="Virgil, Segoe UI Emoji" font-size="36px" fill="#1e1e1e" text-anchor="middle" style="white-space: pre;" direction="ltr" dominant-baseline="text-before-edge">1</text></g><g stroke-linecap="round"><g transform="translate(302.32395562793704 440.2722646375472) rotate(0 119.15732348111996 -27.81347067474235)"><path d="M0.6 -0.76 C40.54 -9.85, 199.33 -45.98, 238.86 -55.34 M-0.55 1.45 C39.35 -7.91, 198.67 -47.5, 238.23 -57.08" stroke="#1e1e1e" stroke-width="1" fill="none"></path></g><g transform="translate(302.32395562793704 440.2722646375472) rotate(0 119.15732348111996 -27.81347067474235)"><path d="M212.03 -39.4 C220.51 -45.2, 223.78 -46.53, 237.01 -59 M212.96 -40.24 C221.73 -45.23, 230.09 -50.62, 237.77 -57.55" stroke="#1e1e1e" stroke-width="1" fill="none"></path></g><g transform="translate(302.32395562793704 440.2722646375472) rotate(0 119.15732348111996 -27.81347067474235)"><path d="M207.14 -59.32 C216.64 -60.45, 221.07 -57.07, 237.01 -59 M208.07 -60.17 C218.42 -58.64, 228.37 -57.53, 237.77 -57.55" stroke="#1e1e1e" stroke-width="1" fill="none"></path></g></g><mask></mask><g stroke-linecap="round"><g transform="translate(712.7788248315474 358.1812907968251) rotate(0 148.9177124408783 -15.822487584600438)"><path d="M0.26 -1.15 C49.95 -6.64, 249.2 -27.4, 298.9 -32.51 M-1.07 0.86 C48.46 -4.51, 248.44 -26.01, 298.25 -31.22" stroke="#1e1e1e" stroke-width="1" fill="none"></path></g><g transform="translate(712.7788248315474 358.1812907968251) rotate(0 148.9177124408783 -15.822487584600438)"><path d="M269.39 -17.09 C280.21 -22.6, 291.11 -28.58, 299.85 -32.48 M272.2 -17.84 C277.68 -21.15, 283.02 -22.76, 298 -31.37" stroke="#1e1e1e" stroke-width="1" fill="none"></path></g><g transform="translate(712.7788248315474 358.1812907968251) rotate(0 148.9177124408783 -15.822487584600438)"><path d="M267.22 -37.49 C278.9 -35.63, 290.59 -34.24, 299.85 -32.48 M270.03 -38.25 C276.07 -37.41, 281.85 -34.85, 298 -31.37" stroke="#1e1e1e" stroke-width="1" fill="none"></path></g></g><mask></mask><g stroke-linecap="round"><g transform="translate(696.7610738382357 424.25451364423566) rotate(0 66.18819366074814 48.09569844554984)"><path d="M-0.06 -0.58 C21.87 15.26, 109.59 79.4, 131.54 95.54 M-1.55 1.72 C20.78 17.68, 111.91 80.79, 133.93 96.78" stroke="#1e1e1e" stroke-width="1" fill="none"></path></g><g transform="translate(696.7610738382357 424.25451364423566) rotate(0 66.18819366074814 48.09569844554984)"><path d="M104.01 87.87 C112.61 90.31, 122.32 92.74, 135.74 97.7 M105.17 87.97 C111.65 89.49, 118.01 91.91, 134.29 96.33" stroke="#1e1e1e" stroke-width="1" fill="none"></path></g><g transform="translate(696.7610738382357 424.25451364423566) rotate(0 66.18819366074814 48.09569844554984)"><path d="M115.86 71.11 C121.02 78.49, 127.24 85.86, 135.74 97.7 M117.02 71.21 C120.9 76.49, 124.67 82.59, 134.29 96.33" stroke="#1e1e1e" stroke-width="1" fill="none"></path></g></g><mask></mask><g transform="translate(135.6883095946214 33.31217167727391) rotate(0 15.218531931733544 70.19618362593366)"><text x="0" y="0" font-family="Virgil, Segoe UI Emoji" font-size="112.31389380149393px" fill="#1e1e1e" text-anchor="start" style="white-space: pre;" direction="ltr" dominant-baseline="text-before-edge">1</text></g><g stroke-linecap="round" transform="translate(1781.751083354207 176.32241850452226) rotate(0 448.4970278127255 293.325065065019)"><path d="M32 0 M32 0 C307.78 -1.6, 581.97 -1.31, 864.99 0 M32 0 C352.73 0.1, 673.22 -0.48, 864.99 0 M864.99 0 C887.11 1.6, 895.39 12.52, 896.99 32 M864.99 0 C884.03 -1.89, 897.19 10.14, 896.99 32 M896.99 32 C897.22 141.06, 897.05 249.3, 896.99 554.65 M896.99 32 C898.13 212.18, 897.99 392.8, 896.99 554.65 M896.99 554.65 C898.08 575.75, 884.76 584.98, 864.99 586.65 M896.99 554.65 C897.26 577.87, 884.83 584.49, 864.99 586.65 M864.99 586.65 C535.72 589.71, 206.61 589.04, 32 586.65 M864.99 586.65 C561.82 585.31, 258.41 585.4, 32 586.65 M32 586.65 C10.24 588.35, -1.66 577.39, 0 554.65 M32 586.65 C12.37 584.48, 2.2 576.2, 0 554.65 M0 554.65 C0.44 355, -0.16 155.37, 0 32 M0 554.65 C1.62 400.34, 2.09 245.34, 0 32 M0 32 C-1.25 9.34, 11.87 -1.8, 32 0 M0 32 C-1.04 10.72, 11.97 -1.79, 32 0" stroke="#1e1e1e" stroke-width="1" fill="none"></path></g><g stroke-linecap="round" transform="translate(1409.338372759712 370.53764929842566) rotate(0 149.16530612521444 89.09873990029587)"><path d="M163.37 1.15 C179.61 0.81, 198.55 5.22, 213.73 9.53 C228.92 13.84, 242.5 20.03, 254.48 26.99 C266.47 33.95, 278.27 42.27, 285.65 51.28 C293.04 60.29, 297.71 70.76, 298.79 81.04 C299.87 91.31, 296.84 103.12, 292.12 112.93 C287.39 122.73, 280.16 131.64, 270.44 139.86 C260.72 148.07, 247.73 156.18, 233.79 162.21 C219.85 168.25, 203.29 173.39, 186.81 176.06 C170.34 178.72, 151.84 179.18, 134.96 178.2 C118.07 177.22, 100.74 174.7, 85.51 170.19 C70.27 165.67, 55.64 158.59, 43.55 151.11 C31.47 143.62, 20.14 134.34, 12.98 125.27 C5.81 116.2, 1.84 106.82, 0.56 96.7 C-0.72 86.59, 0.9 74.43, 5.28 64.57 C9.65 54.71, 16.8 45.79, 26.82 37.53 C36.84 29.28, 51.41 20.68, 65.4 15.06 C79.39 9.44, 93.43 6.05, 110.76 3.81 C128.09 1.57, 158.4 1.53, 169.37 1.6 C180.34 1.66, 176.74 2.84, 176.59 4.21 M197.43 5.06 C213.76 7.03, 230.12 13.66, 243.2 20.11 C256.28 26.55, 267.45 35.02, 275.92 43.72 C284.4 52.41, 290.4 62.77, 294.05 72.27 C297.7 81.78, 299.88 90.84, 297.83 100.73 C295.79 110.63, 289.86 122.49, 281.79 131.65 C273.71 140.8, 262.18 148.85, 249.38 155.67 C236.58 162.48, 221.03 168.9, 204.97 172.56 C188.9 176.22, 170.24 177.46, 153 177.63 C135.76 177.8, 117.84 176.58, 101.54 173.57 C85.24 170.56, 68.53 165.68, 55.21 159.56 C41.89 153.44, 30.1 145.68, 21.62 136.85 C13.14 128.02, 7.85 116.89, 4.36 106.59 C0.87 96.29, -1.75 85.26, 0.67 75.05 C3.09 64.84, 10.74 54.1, 18.88 45.34 C27.02 36.58, 36.79 29.19, 49.5 22.48 C62.21 15.77, 79.2 8.9, 95.16 5.08 C111.12 1.26, 128.24 -0.6, 145.26 -0.44 C162.28 -0.29, 189.12 4.65, 197.26 5.98 C205.4 7.31, 195.23 6.29, 194.11 7.53" stroke="#1e1e1e" stroke-width="1" fill="none"></path></g><g transform="translate(1481.4158798943013 437.1340660200459) rotate(0 77.11199951171875 22.5)"><text x="77.11199951171875" y="0" font-family="Virgil, Segoe UI Emoji" font-size="36px" fill="#1e1e1e" text-anchor="middle" style="white-space: pre;" direction="ltr" dominant-baseline="text-before-edge">GC Root</text></g><g stroke-linecap="round" transform="translate(1939.9263744131595 284.4422377093757) rotate(0 85.0943021519679 71.07877003282033)"><path d="M115.24 5.32 C125.97 7.38, 138.14 13.78, 146.55 20.42 C154.96 27.06, 161.93 35.97, 165.7 45.14 C169.48 54.31, 170.1 65.82, 169.21 75.45 C168.32 85.09, 165.55 94.44, 160.37 102.93 C155.19 111.42, 147.11 120.12, 138.15 126.4 C129.2 132.68, 117.82 138.06, 106.64 140.6 C95.46 143.13, 82.41 143.19, 71.08 141.6 C59.74 140, 48.13 136.48, 38.63 131.01 C29.13 125.55, 20.42 117.19, 14.06 108.82 C7.69 100.45, 2.25 90.15, 0.44 80.79 C-1.37 71.44, 0.03 61.95, 3.17 52.67 C6.31 43.4, 12.1 32.63, 19.28 25.12 C26.46 17.61, 35.76 11.89, 46.23 7.61 C56.71 3.32, 69.49 -0.72, 82.14 -0.58 C94.79 -0.45, 114.5 6.25, 122.12 8.42 C129.74 10.59, 128.32 11.37, 127.86 12.42 M99.65 0.42 C110.84 0.87, 123.99 7.02, 133.81 12.65 C143.64 18.29, 152.72 25.93, 158.59 34.23 C164.46 42.53, 167.86 52.89, 169.04 62.47 C170.21 72.05, 168.58 82.92, 165.64 91.73 C162.7 100.55, 158.35 108.13, 151.38 115.36 C144.42 122.59, 134.18 130.66, 123.83 135.11 C113.47 139.55, 100.89 141.62, 89.28 142.03 C77.67 142.44, 65.1 141.27, 54.16 137.58 C43.21 133.9, 31.86 126.96, 23.61 119.92 C15.35 112.87, 8.75 104.18, 4.65 95.32 C0.54 86.46, -1.85 76.19, -1.04 66.77 C-0.23 57.35, 3.66 47.48, 9.5 38.8 C15.35 30.12, 25.02 20.95, 34.04 14.67 C43.05 8.39, 52.46 3.6, 63.58 1.11 C74.71 -1.37, 94.89 -0.5, 100.78 -0.27 C106.67 -0.03, 99.16 1.32, 98.91 2.51" stroke="#1e1e1e" stroke-width="1" fill="none"></path></g><g transform="translate(2019.9719186905713 333.26072745358965) rotate(0 4.877999782562256 22.5)"><text x="4.877999782562256" y="0" font-family="Virgil, Segoe UI Emoji" font-size="36px" fill="#1e1e1e" text-anchor="middle" style="white-space: pre;" direction="ltr" dominant-baseline="text-before-edge">1</text></g><g stroke-linecap="round" transform="translate(2229.247001729851 469.64748356954135) rotate(0 85.0943021519679 71.07877003282033)"><path d="M122.22 6 C133 8.69, 143.24 16.25, 150.5 23.7 C157.76 31.15, 162.64 41.46, 165.76 50.7 C168.89 59.94, 170.59 69.65, 169.27 79.15 C167.96 88.65, 163.79 99.19, 157.87 107.7 C151.95 116.21, 143.25 124.61, 133.76 130.21 C124.27 135.81, 112.2 139.54, 100.91 141.32 C89.62 143.1, 77.12 143.26, 66.02 140.9 C54.91 138.54, 43.6 133.23, 34.26 127.15 C24.92 121.07, 15.62 112.68, 9.97 104.41 C4.33 96.13, 1.27 87.08, 0.38 77.49 C-0.51 67.89, 1 56.01, 4.65 46.84 C8.3 37.67, 14.23 29.47, 22.3 22.48 C30.36 15.48, 42.41 8.45, 53.03 4.87 C63.65 1.28, 72.97 -0.32, 86.04 0.97 C99.11 2.27, 122.27 9.42, 131.44 12.64 C140.62 15.86, 141.68 19.41, 141.1 20.29 M113.11 4.14 C124.18 6.25, 135.55 12.79, 143.83 19.42 C152.1 26.05, 158.58 35.05, 162.76 43.92 C166.95 52.8, 168.79 63.47, 168.94 72.66 C169.09 81.85, 168.01 90.43, 163.68 99.05 C159.36 107.67, 151.61 117.77, 143 124.39 C134.39 131.01, 123.1 135.77, 112.02 138.75 C100.94 141.74, 88.24 143.47, 76.52 142.31 C64.81 141.16, 51.92 136.83, 41.73 131.84 C31.55 126.85, 22.28 120.01, 15.4 112.37 C8.53 104.73, 2.79 95.25, 0.48 86 C-1.83 76.75, -1.38 66.47, 1.53 56.89 C4.44 47.3, 11.17 36.59, 17.95 28.48 C24.72 20.38, 32.19 13.18, 42.16 8.27 C52.12 3.35, 66.2 -0.25, 77.73 -1.01 C89.25 -1.78, 105.55 2.87, 111.31 3.68 C117.07 4.48, 112.6 2.79, 112.3 3.83" stroke="#1e1e1e" stroke-width="1" fill="none"></path></g><g transform="translate(2301.7865459653012 518.4659733137553) rotate(0 12.383999824523926 22.5)"><text x="12.383999824523926" y="0" font-family="Virgil, Segoe UI Emoji" font-size="36px" fill="#1e1e1e" text-anchor="middle" style="white-space: pre;" direction="ltr" dominant-baseline="text-before-edge">0</text></g><g stroke-linecap="round" transform="translate(2415.4533570270987 241.39453191485075) rotate(0 85.0943021519679 71.07877003282033)"><path d="M102.56 0.36 C113.3 1.22, 124.1 7.52, 133.34 13.09 C142.57 18.66, 151.91 25.55, 157.96 33.77 C164.01 41.99, 168.2 52.56, 169.63 62.4 C171.06 72.25, 169.99 83.51, 166.56 92.83 C163.14 102.14, 156.64 111.08, 149.08 118.31 C141.52 125.55, 131.58 132.35, 121.22 136.24 C110.87 140.14, 98.66 141.77, 86.96 141.66 C75.27 141.55, 61.76 139.19, 51.06 135.56 C40.35 131.94, 30.51 126.97, 22.74 119.91 C14.97 112.84, 8.29 102.38, 4.42 93.19 C0.55 83.99, -1.69 74.32, -0.49 64.74 C0.72 55.17, 6.03 44.01, 11.64 35.74 C17.25 27.47, 24.23 20.65, 33.19 15.11 C42.16 9.56, 53.68 4.56, 65.4 2.47 C77.13 0.38, 96.91 2.39, 103.55 2.56 C110.19 2.73, 105.46 2.48, 105.25 3.46 M67.8 2.53 C77.97 -0.4, 90.65 0.73, 101.53 2.67 C112.41 4.6, 123.44 9.04, 133.09 14.16 C142.74 19.29, 153.09 25.3, 159.42 33.44 C165.75 41.57, 169.7 53.2, 171.06 63 C172.41 72.79, 171.06 82.92, 167.54 92.2 C164.02 101.47, 157.79 111.49, 149.91 118.65 C142.04 125.81, 131.03 131.25, 120.3 135.15 C109.58 139.06, 97.26 141.78, 85.56 142.09 C73.87 142.4, 60.69 140.62, 50.11 136.99 C39.52 133.36, 29.42 127.59, 22.04 120.33 C14.65 113.06, 9.55 102.89, 5.79 93.41 C2.02 83.93, -1.57 73.2, -0.56 63.45 C0.44 53.69, 6.13 43.11, 11.83 34.88 C17.53 26.66, 24.38 19.8, 33.63 14.08 C42.88 8.36, 61.75 2.47, 67.32 0.56 C72.89 -1.35, 66.71 1.05, 67.04 2.63" stroke="#1e1e1e" stroke-width="1" fill="none"></path></g><g transform="translate(2495.4989013045106 290.2130216590647) rotate(0 4.877999782562256 22.5)"><text x="4.877999782562256" y="0" font-family="Virgil, Segoe UI Emoji" font-size="36px" fill="#1e1e1e" text-anchor="middle" style="white-space: pre;" direction="ltr" dominant-baseline="text-before-edge">1</text></g><g stroke-linecap="round"><g transform="translate(1701.6623283876488 422.5953400266884) rotate(0 119.38056721723251 -27.76357088854384)"><path d="M0.47 0.96 C39.84 -8, 197.87 -45.28, 237.3 -54.95 M-0.74 0.42 C38.91 -8.74, 199.49 -47.04, 239.5 -56.49" stroke="#1e1e1e" stroke-width="1" fill="none"></path></g><g transform="translate(1701.6623283876488 422.5953400266884) rotate(0 119.38056721723251 -27.76357088854384)"><path d="M216.05 -41.6 C226.19 -48.49, 232.42 -52.73, 239.04 -58.34 M215.16 -40.03 C222.51 -44.6, 230.36 -49.37, 239.01 -56.99" stroke="#1e1e1e" stroke-width="1" fill="none"></path></g><g transform="translate(1701.6623283876488 422.5953400266884) rotate(0 119.38056721723251 -27.76357088854384)"><path d="M211.31 -61.57 C223.09 -60.73, 231.17 -57.21, 239.04 -58.34 M210.42 -59.99 C219.16 -58.51, 228.44 -57.21, 239.01 -56.99" stroke="#1e1e1e" stroke-width="1" fill="none"></path></g></g><mask></mask><g stroke-linecap="round"><g transform="translate(2112.1171975912594 340.50436618596643) rotate(0 149.12561839470288 -15.95437022329888)"><path d="M-0.97 1.11 C48.48 -4.55, 247.23 -27.45, 297.13 -33.02 M0.73 0.65 C50.48 -4.98, 249.72 -26.7, 299.22 -32" stroke="#1e1e1e" stroke-width="1" fill="none"></path></g><g transform="translate(2112.1171975912594 340.50436618596643) rotate(0 149.12561839470288 -15.95437022329888)"><path d="M274.15 -20.76 C279.68 -22.86, 289.99 -29.37, 299.29 -32.54 M272.7 -18.31 C281.41 -22.27, 288.85 -27.69, 298.38 -31.91" stroke="#1e1e1e" stroke-width="1" fill="none"></path></g><g transform="translate(2112.1171975912594 340.50436618596643) rotate(0 149.12561839470288 -15.95437022329888)"><path d="M271.94 -41.16 C278.38 -36.33, 289.44 -35.92, 299.29 -32.54 M270.49 -38.72 C280.05 -36.18, 288.19 -35.1, 298.38 -31.91" stroke="#1e1e1e" stroke-width="1" fill="none"></path></g></g><mask></mask><g transform="translate(1535.0266823543334 15.635247066415161) rotate(0 39.87200164794922 70.19618362593371)"><text x="0" y="0" font-family="Virgil, Segoe UI Emoji" font-size="112.31389380149393px" fill="#1e1e1e" text-anchor="start" style="white-space: pre;" direction="ltr" dominant-baseline="text-before-edge">2</text></g><g stroke-linecap="round" transform="translate(3200.5350448744402 170.6871714381071) rotate(0 448.49702781272526 293.325065065019)"><path d="M32 0 M32 0 C335.12 1.87, 637.58 2.21, 864.99 0 M32 0 C228.3 -2.3, 424.03 -2.15, 864.99 0 M864.99 0 C885.85 1.29, 896.51 9.76, 896.99 32 M864.99 0 C887.81 1.64, 896.96 9.4, 896.99 32 M896.99 32 C897.79 236.55, 897.83 441.69, 896.99 554.65 M896.99 32 C898.56 171.97, 898.18 312.54, 896.99 554.65 M896.99 554.65 C897.29 574.69, 887.73 586.46, 864.99 586.65 M896.99 554.65 C895.67 576.17, 887.95 588.47, 864.99 586.65 M864.99 586.65 C580.71 588, 296.33 589.36, 32 586.65 M864.99 586.65 C575.55 585.81, 285.4 585.94, 32 586.65 M32 586.65 C12.53 586.49, -0.89 574.75, 0 554.65 M32 586.65 C11.7 584.72, 1.8 574.35, 0 554.65 M0 554.65 C0.61 391.39, 0.73 229.77, 0 32 M0 554.65 C-0.45 375.43, -0.46 196.58, 0 32 M0 32 C0.74 10.41, 12.28 -1.35, 32 0 M0 32 C-2.1 12.85, 10.96 1.04, 32 0" stroke="#1e1e1e" stroke-width="1" fill="none"></path></g><g stroke-linecap="round" transform="translate(2828.122334279946 364.9024022320105) rotate(0 149.16530612521456 89.09873990029587)"><path d="M148.46 0.69 C164.58 -0.94, 182.34 1.81, 198.21 5.04 C214.08 8.28, 230.32 13.68, 243.68 20.11 C257.03 26.54, 269.72 34.74, 278.34 43.64 C286.95 52.54, 292.27 63.48, 295.38 73.51 C298.49 83.53, 299.82 93.72, 297 103.79 C294.18 113.85, 286.81 125.07, 278.44 133.9 C270.07 142.72, 259.78 150.41, 246.78 156.74 C233.78 163.07, 216.66 168.41, 200.46 171.89 C184.26 175.36, 166.48 177.28, 149.58 177.6 C132.68 177.92, 114.88 177.1, 99.06 173.82 C83.23 170.54, 67.82 164.66, 54.63 157.94 C41.43 151.21, 28.59 142.2, 19.91 133.46 C11.23 124.72, 5.61 115.21, 2.53 105.48 C-0.56 95.75, -1.39 85.23, 1.4 75.09 C4.18 64.95, 10.75 53.49, 19.24 44.65 C27.74 35.81, 39.29 28.49, 52.37 22.05 C65.45 15.62, 79.52 9.57, 97.72 6.05 C115.91 2.53, 148.54 1.53, 161.55 0.94 C174.55 0.35, 175.98 0.97, 175.75 2.51 M185.02 1.74 C200.88 2.67, 216.16 8.94, 230.45 14.67 C244.73 20.41, 260.51 28.11, 270.71 36.18 C280.91 44.25, 286.97 53.55, 291.64 63.1 C296.3 72.66, 299.48 83.41, 298.7 93.52 C297.92 103.64, 293.88 114.35, 286.97 123.79 C280.06 133.23, 269.16 142.64, 257.25 150.15 C245.33 157.67, 230.96 164.28, 215.49 168.89 C200.02 173.5, 181.24 176.59, 164.43 177.83 C147.62 179.07, 130.9 178.71, 114.6 176.31 C98.31 173.92, 81.06 169.38, 66.65 163.47 C52.25 157.56, 38.44 149.19, 28.19 140.87 C17.94 132.54, 9.7 123.12, 5.15 113.52 C0.59 103.91, -0.58 93.41, 0.86 83.22 C2.29 73.02, 7.25 61.37, 13.75 52.33 C20.25 43.3, 28.31 36.08, 39.88 29.01 C51.45 21.95, 67.92 14.67, 83.17 9.93 C98.42 5.19, 114.45 2.04, 131.4 0.57 C148.36 -0.89, 176.03 0.51, 184.92 1.16 C193.81 1.8, 185.27 2.93, 184.74 4.47" stroke="#1e1e1e" stroke-width="1" fill="none"></path></g><g transform="translate(2900.1998414145346 431.49881895363075) rotate(0 77.11199951171875 22.5)"><text x="77.11199951171875" y="0" font-family="Virgil, Segoe UI Emoji" font-size="36px" fill="#1e1e1e" text-anchor="middle" style="white-space: pre;" direction="ltr" dominant-baseline="text-before-edge">GC Root</text></g><g stroke-linecap="round" transform="translate(3358.7103359333923 278.80699064296056) rotate(0 85.0943021519679 71.07877003282033)"><path d="M113.53 3.96 C124.51 6.01, 136.3 12.71, 144.62 19.52 C152.93 26.34, 159.04 35.89, 163.42 44.85 C167.79 53.81, 171.24 63.6, 170.86 73.27 C170.49 82.95, 166.18 94.26, 161.17 102.92 C156.15 111.58, 149.65 119.29, 140.78 125.25 C131.9 131.2, 119.26 136.05, 107.91 138.66 C96.57 141.27, 84.01 141.98, 72.69 140.91 C61.36 139.84, 49.56 137.19, 39.96 132.23 C30.36 127.27, 21.63 119.37, 15.07 111.14 C8.51 102.9, 2.72 92.3, 0.62 82.83 C-1.48 73.35, -0.28 63.39, 2.48 54.29 C5.24 45.19, 10.15 35.97, 17.19 28.23 C24.24 20.49, 34.48 12.43, 44.76 7.87 C55.05 3.32, 65.14 0.63, 78.92 0.9 C92.7 1.17, 117.86 6.73, 127.45 9.47 C137.04 12.2, 137.34 16.47, 136.45 17.3 M50.46 6.23 C59.74 1.17, 73.49 -0.65, 84.63 -0.77 C95.78 -0.89, 106.59 1.6, 117.31 5.52 C128.04 9.43, 141.04 15.75, 148.99 22.72 C156.94 29.69, 161.43 38.39, 165.01 47.33 C168.6 56.26, 171.25 66.77, 170.5 76.34 C169.75 85.92, 166.23 96.22, 160.5 104.76 C154.78 113.3, 145.58 121.65, 136.16 127.59 C126.74 133.52, 115.47 138.12, 103.98 140.35 C92.5 142.58, 78.48 142.73, 67.26 140.97 C56.03 139.2, 45.81 135.31, 36.62 129.75 C27.43 124.19, 18.26 116.17, 12.11 107.61 C5.97 99.05, 1.29 88.09, -0.24 78.38 C-1.76 68.67, -0.7 58.39, 2.96 49.33 C6.61 40.27, 13.73 31.31, 21.69 24 C29.64 16.7, 46.18 7.97, 50.7 5.51 C55.23 3.05, 48.41 7.88, 48.84 9.24" stroke="#1e1e1e" stroke-width="1" fill="none"></path></g><g transform="translate(3438.755880210805 327.6254803871745) rotate(0 4.877999782562256 22.5)"><text x="4.877999782562256" y="0" font-family="Virgil, Segoe UI Emoji" font-size="36px" fill="#1e1e1e" text-anchor="middle" style="white-space: pre;" direction="ltr" dominant-baseline="text-before-edge">1</text></g><g stroke-linecap="round" transform="translate(3834.2373185473325 235.75928484843558) rotate(0 85.0943021519679 71.07877003282033)"><path d="M74.54 1.15 C85.28 -0.98, 99.94 0.26, 110.95 3.16 C121.95 6.05, 131.89 12.18, 140.57 18.51 C149.26 24.84, 158.29 32.65, 163.07 41.14 C167.85 49.62, 169.34 59.84, 169.23 69.39 C169.13 78.95, 166.87 89.37, 162.43 98.46 C158 107.56, 150.87 117.28, 142.61 123.95 C134.36 130.61, 123.87 135.6, 112.88 138.45 C101.9 141.29, 88.22 141.87, 76.68 141.01 C65.14 140.14, 53.69 137.72, 43.63 133.28 C33.58 128.84, 23.26 122.21, 16.32 114.37 C9.39 106.54, 4.46 95.67, 2.02 86.27 C-0.41 76.88, -0.69 67.29, 1.7 58 C4.08 48.71, 9.83 38.43, 16.33 30.53 C22.84 22.64, 30.17 15.82, 40.72 10.63 C51.27 5.43, 72.4 0.73, 79.65 -0.65 C86.9 -2.03, 83.97 0.93, 84.2 2.35 M75.57 0.06 C86.49 -1.78, 102.46 0.61, 113.52 3.56 C124.58 6.51, 133.55 11.44, 141.94 17.77 C150.32 24.09, 158.91 32.68, 163.82 41.5 C168.72 50.31, 171.55 60.89, 171.36 70.66 C171.17 80.43, 167.64 91.18, 162.68 100.12 C157.72 109.06, 150.46 117.78, 141.59 124.27 C132.72 130.76, 120.36 136.04, 109.44 139.05 C98.53 142.06, 87.33 143.42, 76.09 142.33 C64.86 141.24, 52.23 137.69, 42.04 132.52 C31.86 127.34, 21.84 119.29, 14.97 111.3 C8.11 103.31, 2.89 93.88, 0.82 84.57 C-1.24 75.27, -0.27 64.94, 2.58 55.47 C5.43 46.01, 11.38 35.24, 17.92 27.77 C24.47 20.29, 31.98 15.09, 41.85 10.63 C51.72 6.17, 71.49 2.48, 77.16 1.01 C82.83 -0.47, 75.65 0.93, 75.84 1.77" stroke="#1e1e1e" stroke-width="1" fill="none"></path></g><g transform="translate(3914.2828628247435 284.5777745926495) rotate(0 4.877999782562256 22.5)"><text x="4.877999782562256" y="0" font-family="Virgil, Segoe UI Emoji" font-size="36px" fill="#1e1e1e" text-anchor="middle" style="white-space: pre;" direction="ltr" dominant-baseline="text-before-edge">1</text></g><g stroke-linecap="round"><g transform="translate(3120.4462899078826 416.96009296027324) rotate(0 118.8449710649677 -27.9156358840767)"><path d="M-0.29 0.78 C39.39 -8.59, 198.09 -47.28, 237.98 -56.61 M1.77 0.14 C41.26 -9.03, 197.39 -45.82, 236.88 -55.36" stroke="#1e1e1e" stroke-width="1" fill="none"></path></g><g transform="translate(3120.4462899078826 416.96009296027324) rotate(0 118.8449710649677 -27.9156358840767)"><path d="M213.12 -39.32 C218.33 -42.34, 228.02 -48.5, 235.78 -53.51 M211.16 -39.73 C220.62 -45.1, 231.32 -50.62, 236.96 -56.09" stroke="#1e1e1e" stroke-width="1" fill="none"></path></g><g transform="translate(3120.4462899078826 416.96009296027324) rotate(0 118.8449710649677 -27.9156358840767)"><path d="M208.37 -59.29 C214.9 -56.44, 225.98 -56.74, 235.78 -53.51 M206.41 -59.69 C217.62 -57.55, 230.1 -55.6, 236.96 -56.09" stroke="#1e1e1e" stroke-width="1" fill="none"></path></g></g><mask></mask><g stroke-linecap="round"><g transform="translate(3530.9011591114922 334.86911911955127) rotate(0 149.40739261136036 -15.532761901930172)"><path d="M-0.29 -0.54 C49.61 -5.87, 249.34 -25.82, 299.1 -31.18 M1.76 1.78 C51.59 -3.94, 249.26 -27.26, 298.56 -32.85" stroke="#1e1e1e" stroke-width="1" fill="none"></path></g><g transform="translate(3530.9011591114922 334.86911911955127) rotate(0 149.40739261136036 -15.532761901930172)"><path d="M270.83 -18.12 C280.49 -23.09, 285.37 -24.92, 300.04 -33.06 M271.14 -19.73 C278.07 -21.59, 282.94 -25.43, 297.7 -32.82" stroke="#1e1e1e" stroke-width="1" fill="none"></path></g><g transform="translate(3530.9011591114922 334.86911911955127) rotate(0 149.40739261136036 -15.532761901930172)"><path d="M268.47 -38.51 C278.91 -37.84, 284.44 -34.04, 300.04 -33.06 M268.78 -40.11 C276.06 -37.77, 281.41 -37.41, 297.7 -32.82" stroke="#1e1e1e" stroke-width="1" fill="none"></path></g></g><mask></mask><g transform="translate(2953.810643874567 10) rotate(0 38.13600158691406 70.19618362593371)"><text x="0" y="0" font-family="Virgil, Segoe UI Emoji" font-size="112.31389380149393px" fill="#1e1e1e" text-anchor="start" style="white-space: pre;" direction="ltr" dominant-baseline="text-before-edge">3</text></g><g transform="translate(2249.1876903810653 623.7389199403586) rotate(0 73.96199798583984 22.5)"><text x="0" y="0" font-family="Virgil, Segoe UI Emoji" font-size="36px" fill="#1e1e1e" text-anchor="start" style="white-space: pre;" direction="ltr" dominant-baseline="text-before-edge">Garbage</text></g></svg>