<svg version="1.1" xmlns="http://www.w3.org/2000/svg" viewBox="0 0 626.5344143777472 627.052490105978" width="1253.0688287554945" height="1254.104980211956">
  <!-- svg-source:excalidraw -->
  
  <defs>
    <style class="style-fonts">
      @font-face {
        font-family: "Virgil";
        src: url("https://excalidraw.com/Virgil.woff2");
      }
      @font-face {
        font-family: "Cascadia";
        src: url("https://excalidraw.com/Cascadia.woff2");
      }
      @font-face {
        font-family: "Assistant";
        src: url("https://excalidraw.com/Assistant-Regular.woff2");
      }
    </style>
    
  </defs>
  <rect x="0" y="0" width="626.5344143777472" height="627.052490105978" fill="#ffffff"></rect><g transform="translate(290.52659926894717 10) rotate(0 15.569999694824219 22.5)"><text x="0" y="0" font-family="Virgil, Segoe UI Emoji" font-size="36px" fill="#1e1e1e" text-anchor="start" style="white-space: pre;" direction="ltr" dominant-baseline="text-before-edge">새</text></g><g stroke-linecap="round" transform="translate(10 78.05236976608916) rotate(0 303.2672071888736 269.5000601699444)"><path d="M228.67 8.05 C248.1 -0.74, 273.39 0.25, 295.91 -0.02 C318.43 -0.28, 341.69 2.32, 363.81 6.45 C385.94 10.58, 408.22 16.71, 428.69 24.77 C449.15 32.84, 468.82 42.91, 486.61 54.82 C504.41 66.74, 521.09 80.76, 535.44 96.25 C549.8 111.74, 562.36 129.73, 572.74 147.75 C583.12 165.77, 591.98 185.19, 597.72 204.37 C603.46 223.54, 606.57 243.07, 607.16 262.8 C607.76 282.53, 605.88 303.17, 601.28 322.73 C596.68 342.29, 589.01 361.83, 579.55 380.17 C570.09 398.51, 558.18 416.6, 544.52 432.77 C530.85 448.94, 514.88 464.26, 497.56 477.2 C480.23 490.14, 460.55 501.45, 440.58 510.43 C420.62 519.4, 399.66 526.36, 377.76 531.03 C355.86 535.71, 331.72 537.92, 309.17 538.47 C286.62 539.02, 264.25 538.15, 242.46 534.32 C220.68 530.5, 199.07 523.98, 178.49 515.5 C157.9 507.01, 137.02 495.47, 118.95 483.39 C100.88 471.32, 84.53 458.25, 70.07 443.07 C55.62 427.89, 42.3 410.37, 32.23 392.32 C22.16 374.27, 15 354.34, 9.66 334.79 C4.32 315.23, 0.63 294.89, 0.18 275 C-0.28 255.11, 2.6 235.01, 6.93 215.43 C11.26 195.85, 17.14 175.64, 26.18 157.53 C35.21 139.42, 47.19 122.74, 61.13 106.77 C75.06 90.79, 92.5 74.64, 109.8 61.66 C127.1 48.67, 144.32 37.89, 164.93 28.84 C185.54 19.8, 221.31 10.26, 233.47 7.37 C245.62 4.49, 236.86 7.24, 237.86 11.54 M236.95 7.57 C256.88 -1.18, 282.5 -0.03, 305.1 -0.32 C327.7 -0.61, 350.89 1.37, 372.53 5.84 C394.18 10.31, 414.87 17.87, 434.97 26.49 C455.06 35.1, 475.67 44.92, 493.11 57.54 C510.56 70.17, 525.81 86.34, 539.62 102.22 C553.43 118.09, 566.01 135.09, 575.98 152.79 C585.96 170.5, 594.14 189.06, 599.47 208.44 C604.8 227.83, 608.08 248.96, 607.97 269.1 C607.87 289.24, 604.06 309.63, 598.85 329.29 C593.65 348.94, 586.5 368.96, 576.74 387.03 C566.98 405.09, 554.27 422.21, 540.31 437.68 C526.34 453.14, 510.42 467.41, 492.96 479.8 C475.51 492.2, 455.88 503.19, 435.57 512.04 C415.27 520.89, 393.16 528.64, 371.12 532.89 C349.07 537.14, 325.96 537.59, 303.31 537.55 C280.66 537.51, 257.29 536.91, 235.22 532.66 C213.16 528.41, 191.11 520.76, 170.91 512.06 C150.71 503.35, 131.44 492.77, 114.02 480.45 C96.6 468.12, 80.44 453.77, 66.39 438.11 C52.34 422.46, 39.58 404.88, 29.71 386.52 C19.85 368.15, 12.27 347.68, 7.18 327.93 C2.09 308.19, -0.96 287.78, -0.82 268.03 C-0.68 248.29, 2.77 228.9, 8.02 209.46 C13.27 190.02, 20.91 169.45, 30.68 151.39 C40.45 133.34, 52.81 116.58, 66.65 101.12 C80.48 85.65, 96 71.28, 113.7 58.61 C131.39 45.94, 152.59 33.91, 172.82 25.1 C193.06 16.29, 224.16 7.9, 235.1 5.73 C246.04 3.56, 237.29 7.32, 238.48 12.09" stroke="#1e1e1e" stroke-width="2" fill="none"></path></g><g stroke-linecap="round" transform="translate(67.34043833403086 206.7497980269137) rotate(0 141.4397478906091 121.05203648295378)"><path d="M164.53 1.91 C179.35 2.15, 195.38 8.83, 208.82 15.03 C222.27 21.24, 234.91 29.75, 245.21 39.14 C255.51 48.54, 264.53 59.58, 270.63 71.4 C276.73 83.22, 280.46 96.84, 281.83 110.06 C283.2 123.28, 282.42 137.97, 278.84 150.71 C275.26 163.44, 268.68 175.53, 260.32 186.48 C251.97 197.42, 240.9 208.2, 228.7 216.37 C216.5 224.53, 201.52 231.35, 187.11 235.47 C172.7 239.6, 157.59 241.22, 142.25 241.13 C126.91 241.05, 109.55 239.03, 95.08 234.98 C80.61 230.93, 67.5 224.58, 55.45 216.81 C43.39 209.04, 31.22 199.35, 22.76 188.36 C14.3 177.36, 8.48 163.82, 4.68 150.84 C0.87 137.85, -1.17 123.63, -0.06 110.44 C1.05 97.26, 5.19 83.65, 11.33 71.74 C17.47 59.83, 26.22 48.35, 36.81 38.98 C47.39 29.6, 61.32 21.8, 74.83 15.48 C88.34 9.16, 102.11 3.24, 117.86 1.05 C133.6 -1.14, 159.88 1.58, 169.3 2.34 C178.72 3.11, 174.7 3.73, 174.4 5.65 M170.54 1.63 C185.22 2.14, 199.86 8.93, 212.66 15.89 C225.47 22.85, 237.2 33.28, 247.38 43.4 C257.56 53.51, 267.85 64.71, 273.73 76.56 C279.6 88.41, 281.93 101.72, 282.63 114.49 C283.32 127.26, 281.99 140.48, 277.9 153.19 C273.81 165.91, 266.88 180.03, 258.09 190.79 C249.3 201.55, 237.51 210.04, 225.14 217.78 C212.77 225.51, 198.34 233.03, 183.86 237.21 C169.38 241.39, 153.77 243.54, 138.25 242.86 C122.73 242.18, 105.39 238.11, 90.75 233.14 C76.11 228.16, 62.2 221.26, 50.43 213 C38.65 204.75, 27.74 194.64, 20.12 183.63 C12.5 172.61, 7.82 159.69, 4.72 146.92 C1.61 134.14, -0.16 120.06, 1.51 106.98 C3.17 93.91, 8.27 80.48, 14.7 68.45 C21.14 56.42, 29.73 44.1, 40.12 34.8 C50.51 25.51, 63.35 18.26, 77.05 12.68 C90.74 7.09, 106.74 2.92, 122.29 1.3 C137.84 -0.31, 162.47 2.54, 170.34 2.98 C178.21 3.42, 170.15 2.22, 169.51 3.94" stroke="#1e1e1e" stroke-width="2" fill="none"></path></g><g transform="translate(99.19623740849238 162.15167932266763) rotate(0 104.8499984741211 22.5)"><text x="0" y="0" font-family="Virgil, Segoe UI Emoji" font-size="36px" fill="#1e1e1e" text-anchor="start" style="white-space: pre;" direction="ltr" dominant-baseline="text-before-edge">날 수 있는 새</text></g><g transform="translate(457.25541900543976 313.7852829171044) rotate(0 31.139999389648438 22.5)"><text x="0" y="0" font-family="Virgil, Segoe UI Emoji" font-size="36px" fill="#1e1e1e" text-anchor="start" style="white-space: pre;" direction="ltr" dominant-baseline="text-before-edge">펭귄</text></g></svg>