<svg version="1.1" xmlns="http://www.w3.org/2000/svg" viewBox="0 0 1434.4381301038272 486.1075696047669" width="2868.8762602076545" height="972.2151392095338">
  <!-- svg-source:excalidraw -->
  
  <defs>
    <style class="style-fonts">
      @font-face {
        font-family: "Virgil";
        src: url("https://excalidraw.com/Virgil.woff2");
      }
      @font-face {
        font-family: "Cascadia";
        src: url("https://excalidraw.com/Cascadia.woff2");
      }
    </style>
    
  </defs>
  <rect x="0" y="0" width="1434.4381301038272" height="486.1075696047669" fill="#ffffff"></rect><g stroke-linecap="round" transform="translate(374.4564507015997 17.437886749012534) rotate(0 524.9908397011138 220.65730688736306)"><path d="M32 0 M32 0 C259.17 0.54, 487.49 0.47, 1017.98 0 M32 0 C288.14 -3.03, 544.33 -3.33, 1017.98 0 M1017.98 0 C1041.02 0.42, 1049.19 11.36, 1049.98 32 M1017.98 0 C1037.27 2.21, 1051.07 12.13, 1049.98 32 M1049.98 32 C1052.24 112.88, 1050.28 191.17, 1049.98 409.31 M1049.98 32 C1050.68 133.77, 1050.95 235.31, 1049.98 409.31 M1049.98 409.31 C1051.81 429.98, 1041.09 439.8, 1017.98 441.31 M1049.98 409.31 C1049.42 429.86, 1037.46 441.08, 1017.98 441.31 M1017.98 441.31 C625.11 439.13, 232.39 439.01, 32 441.31 M1017.98 441.31 C780.44 442.27, 542.14 442, 32 441.31 M32 441.31 C10.82 441.8, 0.15 431.85, 0 409.31 M32 441.31 C11.46 439.58, -0.64 431.79, 0 409.31 M0 409.31 C0.07 297.7, 1.74 187.15, 0 32 M0 409.31 C-0.69 319.91, -1.3 231.25, 0 32 M0 32 C1.83 11.7, 12.56 -0.19, 32 0 M0 32 C-1.4 8.58, 10.3 -0.84, 32 0" stroke="#1e1e1e" stroke-width="1" fill="none"></path></g><g transform="translate(396.77011094863644 36.0326036215431) rotate(0 46.94000244140625 12.5)"><text x="0" y="0" font-family="Virgil, Segoe UI Emoji" font-size="20px" fill="#1e1e1e" text-anchor="start" style="white-space: pre;" direction="ltr" dominant-baseline="text-before-edge">CPU Core</text></g><g stroke-linecap="round" transform="translate(404.2079976976486 68.26344620059612) rotate(0 495.8591166008159 185.32734482955493)"><path d="M7.86 8.16 C7.86 8.16, 7.86 8.16, 7.86 8.16 M7.86 8.16 C7.86 8.16, 7.86 8.16, 7.86 8.16 M3.66 19.09 C6.07 16.1, 14.17 10.14, 18.1 2.48 M3.66 19.09 C8.47 12.46, 14.71 6.62, 18.1 2.48 M2.75 26.24 C11.51 15.81, 17.97 6.89, 24.4 1.33 M2.75 26.24 C9.79 17.11, 17.48 9.79, 24.4 1.33 M1.83 33.39 C9.76 23.77, 15.97 19.29, 30.7 0.18 M1.83 33.39 C7.55 26.43, 13.57 18.63, 30.7 0.18 M1.57 39.79 C13.55 29.95, 21.94 17.61, 34.37 2.05 M1.57 39.79 C9.21 30.3, 16.15 20.41, 34.37 2.05 M1.96 45.43 C11.57 31.85, 20.93 21.85, 39.36 2.41 M1.96 45.43 C9.95 35.42, 17.96 27.09, 39.36 2.41 M1.7 51.83 C11.76 39.91, 20.38 31.65, 45 2.02 M1.7 51.83 C18.21 33.76, 34.09 13.56, 45 2.02 M1.44 58.23 C19.1 38.73, 37.78 17.42, 49.99 2.38 M1.44 58.23 C16.67 39.92, 33.51 21.84, 49.99 2.38 M1.83 63.87 C23.46 40.95, 43.37 16.31, 55.63 1.98 M1.83 63.87 C14.92 47.68, 27.97 32.39, 55.63 1.98 M1.57 70.27 C16.6 51.06, 36.1 31.86, 60.62 2.34 M1.57 70.27 C20.83 47.32, 41.28 24.31, 60.62 2.34 M1.97 75.91 C15.94 58.27, 31.29 42.91, 66.26 1.95 M1.97 75.91 C21.87 55.73, 40.23 34.33, 66.26 1.95 M1.71 82.31 C26.2 52.84, 52.05 23.22, 71.25 2.31 M1.71 82.31 C17.97 62.66, 32.78 44.72, 71.25 2.31 M1.44 88.71 C18.29 70.73, 34.73 51.39, 76.89 1.91 M1.44 88.71 C30.65 55.49, 57.05 23.62, 76.89 1.91 M1.84 94.35 C31.24 60.01, 62.93 26.22, 81.88 2.27 M1.84 94.35 C25.16 65.73, 49.62 38.18, 81.88 2.27 M1.58 100.75 C27.6 72.33, 52.55 41.21, 87.52 1.88 M1.58 100.75 C26.5 70.56, 52.74 41.84, 87.52 1.88 M1.97 106.39 C22.61 82.75, 43.81 55.16, 92.51 2.24 M1.97 106.39 C36.81 64.9, 72.92 24.09, 92.51 2.24 M1.71 112.79 C23.77 84.89, 47.23 56.91, 98.15 1.85 M1.71 112.79 C31.65 79.57, 59.11 46, 98.15 1.85 M1.45 119.19 C32.78 84.62, 63.47 51.36, 103.14 2.21 M1.45 119.19 C26.8 88.26, 52.08 59.55, 103.14 2.21 M1.84 124.83 C28.87 92.66, 55.68 60.3, 108.78 1.81 M1.84 124.83 C38.47 80.74, 75.69 39.91, 108.78 1.81 M1.58 131.23 C29.29 98.15, 57.67 66.11, 113.77 2.17 M1.58 131.23 C46.13 80.31, 90 30.13, 113.77 2.17 M1.98 136.87 C26.9 111.18, 51.39 81.95, 119.41 1.78 M1.98 136.87 C28.77 104.13, 56.99 72.92, 119.41 1.78 M1.72 143.27 C28.06 109.85, 59.4 77.52, 124.4 2.14 M1.72 143.27 C28.94 112.78, 56.93 81.72, 124.4 2.14 M1.45 149.67 C47.23 97.66, 93.67 42.96, 130.04 1.74 M1.45 149.67 C41.6 103.11, 81.2 58.12, 130.04 1.74 M1.85 155.31 C46.35 105, 88.14 57.54, 135.03 2.1 M1.85 155.31 C44.83 106.09, 87.4 56.24, 135.03 2.1 M1.59 161.71 C43.21 117.61, 81.71 70.26, 140.67 1.71 M1.59 161.71 C45.44 111.1, 89.39 61.03, 140.67 1.71 M1.98 167.35 C39.16 123.02, 75.42 81.53, 145.66 2.07 M1.98 167.35 C56.77 104.16, 110.38 41.85, 145.66 2.07 M1.72 173.75 C56.04 114, 108.83 53.37, 150.65 2.43 M1.72 173.75 C58.74 110.72, 113.22 46.21, 150.65 2.43 M1.46 180.14 C46.32 129.37, 89.71 79.45, 156.29 2.03 M1.46 180.14 C34.86 141.36, 69.32 101.86, 156.29 2.03 M1.85 185.79 C33.54 148.93, 65.73 114.62, 161.28 2.39 M1.85 185.79 C34.19 148.68, 66.6 112.64, 161.28 2.39 M1.59 192.19 C54.4 129.79, 107.92 67.56, 166.92 2 M1.59 192.19 C35.52 154.25, 69.21 115.76, 166.92 2 M1.99 197.83 C46.02 145.34, 91.24 94.09, 171.91 2.36 M1.99 197.83 C47.43 145.39, 92.77 91.18, 171.91 2.36 M1.72 204.23 C39.38 159.95, 78.46 115.24, 177.55 1.96 M1.72 204.23 C43.42 156.14, 85.22 108.41, 177.55 1.96 M1.46 210.62 C52.29 151.49, 102.99 93.01, 182.54 2.32 M1.46 210.62 C52.04 152.26, 101.41 94.52, 182.54 2.32 M1.86 216.27 C50.31 159.89, 101.17 103.13, 188.18 1.93 M1.86 216.27 C61.83 147.24, 121.65 77.66, 188.18 1.93 M1.6 222.66 C73.04 139.42, 145.95 54.83, 193.17 2.29 M1.6 222.66 C49.4 167.66, 97.31 114.23, 193.17 2.29 M1.99 228.31 C57.19 165.4, 112.23 101.17, 198.81 1.9 M1.99 228.31 C50.88 171.11, 100.38 114.99, 198.81 1.9 M1.73 234.71 C78.92 146.31, 151.84 59.86, 203.8 2.26 M1.73 234.71 C51.52 177.94, 100.34 121.53, 203.8 2.26 M1.47 241.1 C78.69 152.26, 154.21 64.06, 209.44 1.86 M1.47 241.1 C59.29 175.49, 116.01 109.21, 209.44 1.86 M1.86 246.75 C58.01 179.63, 113.91 115.38, 214.43 2.22 M1.86 246.75 C58.59 182.52, 114.59 117, 214.43 2.22 M1.6 253.14 C74.66 171.02, 147.1 89.66, 220.07 1.83 M1.6 253.14 C57.2 190.91, 113.47 126.76, 220.07 1.83 M2 258.79 C84.97 163.68, 167.97 68.29, 225.06 2.19 M2 258.79 C77.01 172.53, 151.93 84.22, 225.06 2.19 M1.73 265.19 C49.88 207.77, 101.1 150.69, 230.7 1.79 M1.73 265.19 C75.79 181.76, 148.1 97.03, 230.7 1.79 M1.47 271.58 C88.71 169.59, 177.35 69.6, 235.69 2.15 M1.47 271.58 C54.59 208.98, 108.97 146.48, 235.69 2.15 M1.87 277.23 C61.87 207.11, 120.69 137.39, 241.33 1.76 M1.87 277.23 C94.54 171.38, 186.74 64.45, 241.33 1.76 M1.61 283.62 C68.47 206.46, 132.93 131.97, 246.32 2.12 M1.61 283.62 C81.61 190.69, 161.34 98.85, 246.32 2.12 M2 289.27 C67.64 212.84, 133.01 137.87, 251.96 1.72 M2 289.27 C66.49 217.39, 129.27 146.28, 251.96 1.72 M1.74 295.66 C58.66 229.99, 116.64 166.34, 256.95 2.08 M1.74 295.66 C95.46 190.74, 186.86 85.21, 256.95 2.08 M1.48 302.06 C66.02 226.22, 131.79 150.75, 262.59 1.69 M1.48 302.06 C79.95 212.79, 157.32 124.92, 262.59 1.69 M1.87 307.71 C86.65 210.93, 169.34 114.32, 267.58 2.05 M1.87 307.71 C78.16 220.6, 154.52 133.47, 267.58 2.05 M1.61 314.1 C65.91 239.25, 130.69 166.32, 272.56 2.41 M1.61 314.1 C104.9 194.94, 208.45 76.66, 272.56 2.41 M2.01 319.75 C58.7 254.77, 114.6 190.56, 278.21 2.01 M2.01 319.75 C113.68 191.82, 223.67 65.14, 278.21 2.01 M1.74 326.14 C110.57 201.89, 219.7 77.55, 283.19 2.37 M1.74 326.14 C101.94 210.97, 202.79 94.61, 283.19 2.37 M1.48 332.54 C71.24 250.41, 140.87 170.08, 288.84 1.98 M1.48 332.54 C66.83 259.57, 131.66 184.97, 288.84 1.98 M0.57 339.69 C96.3 229.75, 191.78 121.08, 293.82 2.34 M0.57 339.69 C105.31 220, 208.09 100.64, 293.82 2.34 M1.62 344.58 C115.86 213.53, 229.09 82.49, 299.47 1.94 M1.62 344.58 C66.22 268.09, 132.4 192.07, 299.47 1.94 M2.01 350.23 C121.98 212.05, 242.34 74.08, 304.45 2.3 M2.01 350.23 C85 253.56, 169.11 156.77, 304.45 2.3 M3.72 354.36 C84.52 259.52, 164.47 167.48, 310.1 1.91 M3.72 354.36 C89.72 255.12, 175.15 156.43, 310.1 1.91 M5.42 358.49 C70.54 282.43, 134.11 208.04, 315.08 2.27 M5.42 358.49 C107.82 240.73, 210.24 123.9, 315.08 2.27 M7.79 361.87 C103.23 247.35, 201.35 135.66, 320.73 1.88 M7.79 361.87 C76.74 281.15, 146.42 200.78, 320.73 1.88 M10.81 364.5 C105 256.99, 197.45 149.87, 325.71 2.24 M10.81 364.5 C98.23 261.59, 188.12 158.64, 325.71 2.24 M13.82 367.12 C93.72 274.05, 174.02 181.94, 331.36 1.84 M13.82 367.12 C111.83 254.97, 209.7 143.22, 331.36 1.84 M17.5 368.99 C95.01 280.13, 172.59 190.39, 336.34 2.2 M17.5 368.99 C82.3 296.07, 146.12 222.99, 336.34 2.2 M21.17 370.86 C86.62 296.01, 152.98 220.4, 341.99 1.81 M21.17 370.86 C125.58 252.33, 228.65 133.17, 341.99 1.81 M25.5 371.97 C144 234.22, 263.35 97.29, 346.97 2.17 M25.5 371.97 C129.29 250.94, 234.38 130.5, 346.97 2.17 M30.49 372.33 C149.94 234.2, 271.58 94.35, 352.62 1.77 M30.49 372.33 C124.47 263.75, 219.23 155.24, 352.62 1.77 M34.82 373.45 C116.27 280.39, 197.26 187.17, 357.6 2.13 M34.82 373.45 C157.89 230.09, 281.32 87.85, 357.6 2.13 M40.47 373.05 C156.38 239.46, 272.13 105.44, 363.25 1.74 M40.47 373.05 C158.5 234.69, 278.52 97.16, 363.25 1.74 M45.45 373.42 C172.46 228.65, 297.12 84.46, 368.23 2.1 M45.45 373.42 C136.27 268.92, 227.52 164.46, 368.23 2.1 M51.1 373.02 C135.68 277.72, 217.88 182.79, 373.88 1.7 M51.1 373.02 C163.89 246.65, 274.59 118.28, 373.88 1.7 M56.08 373.38 C161.69 251.35, 268.92 127.48, 378.86 2.06 M56.08 373.38 C124.92 294.29, 194.12 214.11, 378.86 2.06 M61.73 372.99 C172.16 245.8, 282.01 116.73, 383.85 2.42 M61.73 372.99 C169.06 249.41, 276.95 125.87, 383.85 2.42 M66.71 373.35 C189.12 231.43, 311.7 90.53, 389.49 2.03 M66.71 373.35 C181.92 239.64, 297.38 107.17, 389.49 2.03 M72.36 372.95 C136.5 297.66, 202.32 222.34, 394.48 2.39 M72.36 372.95 C166.62 264.79, 261.87 154.72, 394.48 2.39 M77.34 373.31 C162.21 273.86, 248 175.87, 400.12 1.99 M77.34 373.31 C195.92 237.97, 313.27 102.06, 400.12 1.99 M82.99 372.92 C147 299.44, 211.93 224.28, 405.11 2.35 M82.99 372.92 C182.98 257.56, 284.26 141.38, 405.11 2.35 M87.97 373.28 C172.69 275.78, 257.56 178.63, 410.75 1.96 M87.97 373.28 C176.92 269.03, 266.19 166.58, 410.75 1.96 M93.62 372.88 C158.23 298.29, 223.05 224.92, 415.74 2.32 M93.62 372.88 C191.76 258.26, 290.28 144.67, 415.74 2.32 M98.6 373.24 C193.08 264.83, 288.32 154.42, 421.38 1.93 M98.6 373.24 C168.92 292.63, 239 211.83, 421.38 1.93 M103.59 373.6 C183.56 279.56, 265 185.54, 426.37 2.29 M103.59 373.6 C209.78 251.45, 315.87 130.26, 426.37 2.29 M109.23 373.21 C182.27 291.22, 253.85 208.27, 432.01 1.89 M109.23 373.21 C203.68 264.9, 298.63 155.55, 432.01 1.89 M114.22 373.57 C212.26 260.56, 310.76 146.92, 437 2.25 M114.22 373.57 C199.04 277.58, 282.82 181.44, 437 2.25 M119.86 373.17 C233.21 243.58, 347.4 113.22, 442.64 1.86 M119.86 373.17 C215.63 265.38, 310.02 157.28, 442.64 1.86 M124.85 373.53 C217.66 265.5, 311.47 157.93, 447.63 2.22 M124.85 373.53 C228.52 253.34, 332.24 134.05, 447.63 2.22 M130.49 373.14 C236 251.93, 341.7 130.05, 453.27 1.82 M130.49 373.14 C255.83 230.05, 380.17 87.36, 453.27 1.82 M135.48 373.5 C213.69 284.13, 293.08 192.69, 458.26 2.18 M135.48 373.5 C252.16 239.17, 369.24 104.07, 458.26 2.18 M141.12 373.1 C218.37 285.74, 294.34 200.14, 463.9 1.79 M141.12 373.1 C213.67 289.91, 286.86 205.44, 463.9 1.79 M146.11 373.46 C269.42 230.06, 394.96 86.52, 468.89 2.15 M146.11 373.46 C267.08 235.39, 386.01 98.66, 468.89 2.15 M151.75 373.07 C250.69 259.09, 349.4 143.9, 474.53 1.75 M151.75 373.07 C233.5 278.72, 315.69 184.72, 474.53 1.75 M156.74 373.43 C231.31 287.4, 305.02 201.85, 479.52 2.11 M156.74 373.43 C272.38 241.59, 385.84 110.21, 479.52 2.11 M162.38 373.04 C233.73 292.87, 304.21 210.95, 485.17 1.72 M162.38 373.04 C288.57 229.57, 413.61 86.26, 485.17 1.72 M167.37 373.4 C258.68 268.38, 348.8 162.9, 490.15 2.08 M167.37 373.4 C251.88 273.5, 337.78 175.31, 490.15 2.08 M173.01 373 C297.02 230.79, 420.7 88.64, 495.8 1.68 M173.01 373 C278.39 250.47, 383.96 128.1, 495.8 1.68 M178 373.36 C288.49 246.46, 398.99 119.98, 500.78 2.04 M178 373.36 C271.55 265.54, 364.21 159.24, 500.78 2.04 M183.64 372.97 C266.27 277.71, 347.22 183.39, 505.77 2.4 M183.64 372.97 C267.66 274.33, 352.77 176.43, 505.77 2.4 M188.63 373.33 C318.71 224.6, 447.57 77, 511.41 2.01 M188.63 373.33 C295.8 249.51, 403.23 126.19, 511.41 2.01 M194.27 372.93 C268.78 284.17, 346.24 195.6, 516.4 2.37 M194.27 372.93 C309.31 240.15, 426.12 106.67, 516.4 2.37 M199.26 373.29 C309.17 249.13, 416.48 123.34, 522.04 1.98 M199.26 373.29 C311.91 242.33, 424.15 113.05, 522.04 1.98 M204.9 372.9 C323.17 235.24, 443.37 97.52, 527.03 2.34 M204.9 372.9 C291.87 272.62, 378.66 172.05, 527.03 2.34 M209.89 373.26 C283.56 289.25, 358.1 201.99, 532.67 1.94 M209.89 373.26 C279.63 292.9, 348.91 213.45, 532.67 1.94 M214.88 373.62 C290.91 284.75, 367.93 196.44, 537.66 2.3 M214.88 373.62 C287.41 289.19, 360.24 204.5, 537.66 2.3 M220.52 373.22 C301.65 280.67, 381.99 188.56, 543.3 1.91 M220.52 373.22 C299.85 282.17, 378.83 190.49, 543.3 1.91 M225.51 373.58 C311.78 274.27, 397.93 176.23, 548.29 2.27 M225.51 373.58 C337.76 243.9, 450.07 114.49, 548.29 2.27 M231.15 373.19 C342.37 243.4, 454.31 115.65, 553.93 1.87 M231.15 373.19 C325.17 267.3, 417.2 161.69, 553.93 1.87 M236.14 373.55 C306.24 292.45, 376.87 211.57, 558.92 2.23 M236.14 373.55 C344.95 250.49, 451.9 127.16, 558.92 2.23 M241.78 373.15 C365.4 232.9, 488.41 91.7, 564.56 1.84 M241.78 373.15 C309.59 293.01, 378.67 213.17, 564.56 1.84 M246.77 373.51 C347.9 257.85, 448.38 141.93, 569.55 2.2 M246.77 373.51 C364.58 239.68, 481.44 105.42, 569.55 2.2 M252.41 373.12 C378.68 229.12, 505.89 83.69, 575.19 1.8 M252.41 373.12 C331.58 283.17, 409.99 192.99, 575.19 1.8 M257.4 373.48 C353.4 264.2, 449.33 153.97, 580.18 2.16 M257.4 373.48 C322.37 299.19, 387.54 224.63, 580.18 2.16 M263.04 373.09 C364.75 254.79, 466.07 138.5, 585.82 1.77 M263.04 373.09 C329.61 295.27, 397.94 216.49, 585.82 1.77 M268.03 373.45 C386.47 237.29, 504.29 100.99, 590.81 2.13 M268.03 373.45 C364.96 261.85, 462.26 149.91, 590.81 2.13 M273.67 373.05 C365.31 268.07, 457.32 162.53, 596.45 1.73 M273.67 373.05 C370.54 260.41, 467.81 148.03, 596.45 1.73 M278.66 373.41 C361.21 279.71, 443.38 185.16, 601.44 2.09 M278.66 373.41 C372.19 266.18, 465.66 158.59, 601.44 2.09 M284.3 373.02 C384.1 255.94, 484.92 139.73, 607.08 1.7 M284.3 373.02 C387.92 253.98, 492.45 134.86, 607.08 1.7 M289.29 373.38 C400.26 244.86, 512.1 116.45, 612.07 2.06 M289.29 373.38 C380.09 268.06, 470.8 163.39, 612.07 2.06 M294.93 372.98 C364.24 291.53, 434.14 211.31, 617.06 2.42 M294.93 372.98 C363.07 293.27, 432.08 214.28, 617.06 2.42 M299.92 373.34 C416.83 239.89, 533.77 104.91, 622.7 2.02 M299.92 373.34 C420.19 234.67, 540.15 96.17, 622.7 2.02 M305.56 372.95 C403.28 261.18, 500.24 148.91, 627.69 2.38 M305.56 372.95 C417.94 242.4, 531.94 111.63, 627.69 2.38 M310.55 373.31 C395.75 274.95, 481.1 177.38, 633.33 1.99 M310.55 373.31 C419.75 245.14, 529.68 118.3, 633.33 1.99 M316.19 372.91 C399.7 274.06, 485.86 176.72, 638.32 2.35 M316.19 372.91 C395.59 281.3, 475.29 189.1, 638.32 2.35 M321.18 373.27 C434.01 240.59, 547.36 111.14, 643.96 1.96 M321.18 373.27 C435.76 243, 549.71 111.57, 643.96 1.96 M326.82 372.88 C419.9 264.09, 513.25 156.46, 648.95 2.32 M326.82 372.88 C403.44 282.84, 480.92 193.57, 648.95 2.32 M331.81 373.24 C455.25 230.11, 578.59 88.81, 654.59 1.92 M331.81 373.24 C411.1 281.07, 491.79 188.72, 654.59 1.92 M336.8 373.6 C453.86 236.2, 571.12 101.37, 659.58 2.28 M336.8 373.6 C402.31 298.61, 467.55 222.63, 659.58 2.28 M342.44 373.2 C420.3 282.81, 496.91 193.21, 665.22 1.89 M342.44 373.2 C425.36 276.58, 508.77 180.46, 665.22 1.89 M347.43 373.56 C465.84 240.56, 581.56 106.11, 670.21 2.25 M347.43 373.56 C426.91 284.41, 505.11 194.47, 670.21 2.25 M353.07 373.17 C437.99 276.41, 521.36 180.2, 675.85 1.85 M353.07 373.17 C446.83 265.89, 541.7 157.47, 675.85 1.85 M358.06 373.53 C467.25 246.45, 577.72 119.47, 680.84 2.21 M358.06 373.53 C485.37 226.74, 614.28 78.86, 680.84 2.21 M363.7 373.13 C466.61 257.42, 567.3 139.83, 686.48 1.82 M363.7 373.13 C443.29 283.13, 521.62 192.75, 686.48 1.82 M368.69 373.49 C455.15 272.99, 541.32 174.13, 691.47 2.18 M368.69 373.49 C479.29 247.13, 589.9 120.28, 691.47 2.18 M374.33 373.1 C478.83 253.96, 580.98 135.15, 697.11 1.78 M374.33 373.1 C465.47 266.73, 558.18 160.02, 697.11 1.78 M379.32 373.46 C471.84 265.48, 564.26 157.98, 702.1 2.14 M379.32 373.46 C469.99 270.83, 560.39 166.35, 702.1 2.14 M384.96 373.07 C494.95 248.18, 603.4 124.22, 707.74 1.75 M384.96 373.07 C507.39 230.87, 631.06 89.2, 707.74 1.75 M389.95 373.43 C471.06 281.57, 550.11 189.28, 712.73 2.11 M389.95 373.43 C469.56 282.61, 550.36 190.23, 712.73 2.11 M395.59 373.03 C480.58 276.05, 564.59 177.96, 718.37 1.71 M395.59 373.03 C514.1 235.2, 634.24 97.32, 718.37 1.71 M400.58 373.39 C521.27 233.83, 643.35 94.37, 723.36 2.07 M400.58 373.39 C470.97 292.88, 541.3 211.35, 723.36 2.07 M406.22 373 C516.6 244.02, 626.46 117.72, 729 1.68 M406.22 373 C496.67 269.43, 586.89 165.86, 729 1.68 M411.21 373.36 C477.79 298, 541.42 222.67, 733.99 2.04 M411.21 373.36 C538.98 226.38, 666.84 79.28, 733.99 2.04 M416.85 372.96 C501.36 275.08, 586.13 177.54, 738.98 2.4 M416.85 372.96 C486.33 293.82, 555.17 215.24, 738.98 2.4 M421.84 373.32 C502.39 282.62, 581.38 191.71, 744.62 2.01 M421.84 373.32 C521.9 255.64, 623.24 139.73, 744.62 2.01 M427.48 372.93 C509.03 280.45, 590.01 186.47, 749.61 2.37 M427.48 372.93 C513.1 275.81, 597.38 178.79, 749.61 2.37 M432.47 373.29 C534.75 258.1, 635.99 140.8, 755.25 1.97 M432.47 373.29 C541.35 245.54, 652.34 118.02, 755.25 1.97 M438.11 372.89 C558.51 233.27, 678.9 93.55, 760.24 2.33 M438.11 372.89 C503.22 299.6, 567.3 225.3, 760.24 2.33 M443.1 373.25 C510.76 292.63, 581.28 213.66, 765.88 1.94 M443.1 373.25 C565.36 231.01, 689.37 88.56, 765.88 1.94 M448.08 373.61 C526.93 282.46, 607.64 189.89, 770.87 2.3 M448.08 373.61 C571.32 231.41, 694.59 89.78, 770.87 2.3 M453.73 373.22 C531.28 281.97, 610.05 192.66, 776.51 1.9 M453.73 373.22 C573.14 235.37, 693.17 97.66, 776.51 1.9 M458.71 373.58 C564.06 253.35, 669.19 133.51, 781.5 2.26 M458.71 373.58 C540.51 280.7, 620.51 187.75, 781.5 2.26 M464.36 373.18 C556.47 267.57, 649 162.61, 787.14 1.87 M464.36 373.18 C584.83 232.68, 705.77 93.63, 787.14 1.87 M469.34 373.54 C596.81 227.99, 725.03 81.23, 792.13 2.23 M469.34 373.54 C541.15 290.96, 612.18 209.86, 792.13 2.23 M474.99 373.15 C579.55 255.3, 682.23 137.3, 797.77 1.83 M474.99 373.15 C571.09 265.18, 665.94 155.7, 797.77 1.83 M479.97 373.51 C579.41 259.92, 676.94 146.38, 802.76 2.19 M479.97 373.51 C608.45 226.44, 736.8 78.63, 802.76 2.19 M485.62 373.12 C589.72 255.55, 691.88 138.33, 808.4 1.8 M485.62 373.12 C601.07 240.09, 716.95 106.74, 808.4 1.8 M490.6 373.48 C565.72 286.71, 641.3 199.69, 813.39 2.16 M490.6 373.48 C579.03 271.37, 667.26 169.64, 813.39 2.16 M496.25 373.08 C608.94 243.76, 722.18 115.24, 819.03 1.76 M496.25 373.08 C573.75 284.65, 651.47 195.12, 819.03 1.76 M501.23 373.44 C630.64 225.94, 760.47 78.27, 824.02 2.12 M501.23 373.44 C571.36 294.14, 640.98 214.63, 824.02 2.12 M506.88 373.05 C591.34 274.79, 677.08 176.24, 829.66 1.73 M506.88 373.05 C613.44 247.88, 721.82 123.59, 829.66 1.73 M511.86 373.41 C632.03 236.18, 752.03 99.97, 834.65 2.09 M511.86 373.41 C632.17 236.02, 752.94 97.01, 834.65 2.09 M517.51 373.01 C586.26 294.05, 656.25 213.62, 840.29 1.69 M517.51 373.01 C605.25 271.63, 693.63 169.95, 840.29 1.69 M522.49 373.37 C635.85 242.2, 750.12 110.78, 845.28 2.06 M522.49 373.37 C648.78 228.99, 773.61 85.22, 845.28 2.06 M528.14 372.98 C636.45 247.64, 746.32 122.29, 850.26 2.42 M528.14 372.98 C598.59 291.93, 669.75 209.92, 850.26 2.42 M533.13 373.34 C629.85 262.28, 725.42 151.29, 855.91 2.02 M533.13 373.34 C621.27 271.3, 709.15 169.92, 855.91 2.02 M538.77 372.94 C625.66 270.73, 712.92 171.13, 860.89 2.38 M538.77 372.94 C659.96 234.84, 780.4 96.51, 860.89 2.38 M543.76 373.3 C671.28 224.73, 799.19 77.67, 866.54 1.99 M543.76 373.3 C651.57 251.15, 758.28 129.06, 866.54 1.99 M549.4 372.91 C627.01 284.43, 702.71 196.3, 871.52 2.35 M549.4 372.91 C632.91 275.95, 717.65 178.19, 871.52 2.35 M554.39 373.27 C676.28 230.33, 800.06 88.94, 877.17 1.95 M554.39 373.27 C633.22 281.84, 713.1 190.45, 877.17 1.95 M559.37 373.63 C673.82 243.81, 787.75 111.2, 882.15 2.31 M559.37 373.63 C641.28 279.87, 721.84 186.55, 882.15 2.31 M565.02 373.23 C638.29 290.51, 711.75 205.28, 887.8 1.92 M565.02 373.23 C689.94 229.79, 814.06 86.27, 887.8 1.92 M570 373.59 C677.52 251.14, 784.08 128.8, 892.78 2.28 M570 373.59 C646.2 287.03, 721.48 199.99, 892.78 2.28 M575.65 373.2 C659.85 279.79, 740.39 184.96, 898.43 1.88 M575.65 373.2 C670.82 263.42, 767.52 152.25, 898.43 1.88 M580.63 373.56 C700.45 238.72, 819.19 100.95, 903.41 2.24 M580.63 373.56 C691.63 248.59, 801.23 122.17, 903.41 2.24 M586.28 373.17 C658.09 292.12, 729.56 209.89, 909.06 1.85 M586.28 373.17 C656.8 291.77, 727.33 211.03, 909.06 1.85 M591.26 373.53 C677.31 276.28, 760.73 178.86, 914.04 2.21 M591.26 373.53 C664.58 288.7, 738.84 203.17, 914.04 2.21 M596.91 373.13 C671.73 287.81, 747.87 201.73, 919.69 1.81 M596.91 373.13 C713.25 241.35, 828.11 108.87, 919.69 1.81 M601.89 373.49 C696.87 264.47, 792.2 155.74, 924.67 2.17 M601.89 373.49 C731.46 226.5, 859.68 78.66, 924.67 2.17 M607.54 373.1 C680.13 287.39, 754.84 201.36, 930.32 1.78 M607.54 373.1 C676.01 291.94, 745.29 212.23, 930.32 1.78 M612.52 373.46 C724.51 243.23, 836.66 114.24, 935.3 2.14 M612.52 373.46 C700.02 271.14, 787.83 170.32, 935.3 2.14 M618.17 373.06 C717.81 259.44, 813.95 148.59, 940.95 1.74 M618.17 373.06 C706.83 270.31, 794.36 169.4, 940.95 1.74 M623.15 373.42 C750.56 229.65, 876.47 83.7, 945.93 2.1 M623.15 373.42 C724.21 258.04, 823.86 143.27, 945.93 2.1 M628.8 373.03 C750.71 231.68, 873.72 91.54, 951.58 1.71 M628.8 373.03 C724.82 263.68, 819.33 153.61, 951.58 1.71 M633.78 373.39 C758.53 229.96, 884.21 85.84, 956.56 2.07 M633.78 373.39 C733.76 259.54, 832.27 145.39, 956.56 2.07 M639.43 372.99 C745.05 250.47, 852.3 128.71, 962.21 1.68 M639.43 372.99 C712.01 290.15, 785.57 206.61, 962.21 1.68 M644.41 373.35 C770.58 227.43, 896.9 82.66, 966.54 2.79 M644.41 373.35 C734.72 268.9, 826.57 163.2, 966.54 2.79 M650.06 372.96 C734.79 273.61, 819.6 175.98, 971.52 3.15 M650.06 372.96 C745.82 262.55, 840.77 153.55, 971.52 3.15 M655.04 373.32 C735.2 282.48, 814.23 191.89, 975.86 4.27 M655.04 373.32 C719.94 298.41, 785.11 223.3, 975.86 4.27 M660.69 372.92 C738.96 280.76, 817.04 190.66, 980.19 5.38 M660.69 372.92 C761.71 257.3, 862.53 140.54, 980.19 5.38 M665.67 373.28 C761.15 263.06, 855.11 154.47, 983.21 8 M665.67 373.28 C747.1 280.22, 828.04 187.25, 983.21 8 M671.32 372.89 C787.52 240.3, 905.02 105.76, 985.57 11.38 M671.32 372.89 C790.87 232.87, 911.77 94.73, 985.57 11.38 M676.3 373.25 C761.67 274.75, 846.18 176.64, 988.59 14.01 M676.3 373.25 C790.91 242.99, 903.08 113.11, 988.59 14.01 M681.29 373.61 C766.34 276.73, 851.77 179.83, 990.29 18.14 M681.29 373.61 C797.4 241.72, 912.2 108.85, 990.29 18.14 M686.93 373.21 C807.99 232.88, 928.53 94.83, 990.69 23.78 M686.93 373.21 C770.38 274.7, 855.14 176.37, 990.69 23.78 M691.92 373.57 C763.01 290.06, 836.23 207.77, 991.74 28.67 M691.92 373.57 C764.36 286.71, 838.64 201.33, 991.74 28.67 M697.56 373.18 C780.04 276.22, 864.43 178.72, 992.79 33.56 M697.56 373.18 C786.66 270.84, 875.27 168.38, 992.79 33.56 M702.55 373.54 C790.12 275.16, 875.01 176.74, 993.18 39.2 M702.55 373.54 C805.06 255.21, 906.39 138.52, 993.18 39.2 M708.19 373.15 C777.79 294.18, 845.49 215.01, 992.92 45.6 M708.19 373.15 C806.9 261.04, 904.89 148.71, 992.92 45.6 M713.18 373.51 C799.98 275.72, 884.53 177.51, 993.32 51.24 M713.18 373.51 C796.88 274.88, 882.36 176.6, 993.32 51.24 M718.82 373.11 C821.94 256.5, 923.75 137.63, 993.06 57.64 M718.82 373.11 C791.18 289.52, 864.2 204.69, 993.06 57.64 M723.81 373.47 C798.78 290.76, 873.29 203.73, 992.79 64.04 M723.81 373.47 C811.85 273.77, 898.37 173.93, 992.79 64.04 M729.45 373.08 C802.36 291.17, 873.13 211.32, 993.19 69.68 M729.45 373.08 C823.54 264.38, 916.23 156.85, 993.19 69.68 M734.44 373.44 C800.4 296.78, 867.24 219.12, 992.93 76.08 M734.44 373.44 C809.95 287.52, 884.71 200.6, 992.93 76.08 M740.08 373.04 C818.84 282.59, 896.24 192.26, 993.32 81.72 M740.08 373.04 C798.04 306.39, 856.68 238.93, 993.32 81.72 M745.07 373.4 C806.28 300.76, 869.01 229.26, 993.06 88.12 M745.07 373.4 C818.25 291.24, 890.78 209.18, 993.06 88.12 M750.71 373.01 C841.24 267.55, 932.61 163.55, 992.8 94.52 M750.71 373.01 C835.04 275.2, 918.88 178.1, 992.8 94.52 M755.7 373.37 C820.58 296.46, 889.46 219.27, 993.19 100.16 M755.7 373.37 C821.67 299.54, 887.55 224.34, 993.19 100.16 M761.34 372.97 C841.66 284.91, 920.57 191.99, 992.93 106.56 M761.34 372.97 C828.71 296.34, 896.35 218.87, 992.93 106.56 M766.33 373.33 C840.96 286, 917.36 200.29, 993.33 112.2 M766.33 373.33 C854.83 272.8, 942.76 172.46, 993.33 112.2 M771.97 372.94 C851.84 281.64, 929.02 190.75, 993.07 118.6 M771.97 372.94 C834.9 302.78, 896.59 231.04, 993.07 118.6 M776.96 373.3 C825.13 316.5, 872.59 259.53, 992.8 125 M776.96 373.3 C831.04 313.19, 883.89 252.23, 992.8 125 M782.6 372.9 C865.8 279.94, 946.28 189.09, 993.2 130.64 M782.6 372.9 C840.26 306.28, 896.81 241.94, 993.2 130.64 M787.59 373.26 C853.27 298.67, 916.78 224.18, 992.94 137.04 M787.59 373.26 C841.57 313.02, 895.76 250.35, 992.94 137.04 M792.58 373.62 C843.06 314.22, 895.34 253.35, 993.33 142.68 M792.58 373.62 C838.42 319.11, 886.25 263.59, 993.33 142.68 M798.22 373.23 C840.44 325.59, 882.4 279.28, 993.07 149.08 M798.22 373.23 C859.72 302.06, 921.31 230.06, 993.07 149.08 M803.21 373.59 C846.98 322.58, 890.57 273.62, 992.81 155.48 M803.21 373.59 C860.05 305.4, 918.09 238.95, 992.81 155.48 M808.85 373.2 C857.86 317.59, 905.03 263.4, 993.2 161.12 M808.85 373.2 C863.9 312.34, 917.83 250.24, 993.2 161.12 M813.84 373.56 C855.1 328.49, 892.89 282.44, 992.94 167.52 M813.84 373.56 C854.07 326.12, 894.36 279.02, 992.94 167.52 M819.48 373.16 C861.62 323.75, 904.62 276, 993.34 173.16 M819.48 373.16 C878.51 305.42, 936.23 239.01, 993.34 173.16 M824.47 373.52 C885.82 303.4, 944.1 236.17, 993.08 179.56 M824.47 373.52 C871.88 318.32, 918.15 264.85, 993.08 179.56 M830.11 373.13 C877.73 319.73, 929.09 263.41, 992.81 185.96 M830.11 373.13 C893.32 301.66, 955.48 229.84, 992.81 185.96 M835.1 373.49 C871.41 330.18, 911.02 285.89, 993.21 191.6 M835.1 373.49 C896.3 305.21, 956.19 235.72, 993.21 191.6 M840.74 373.09 C899.39 303.37, 960.01 234.85, 992.95 198 M840.74 373.09 C878.96 328.63, 918.3 284.5, 992.95 198 M845.73 373.45 C889.19 323.45, 934.31 271.48, 993.34 203.64 M845.73 373.45 C901.05 309.1, 958.62 243.28, 993.34 203.64 M851.37 373.06 C885.87 333.46, 921.58 292.71, 993.08 210.04 M851.37 373.06 C901.09 314.27, 952.2 255.15, 993.08 210.04 M856.36 373.42 C886.19 342.08, 915.79 306.29, 992.82 216.44 M856.36 373.42 C904.12 316.8, 954.79 259.72, 992.82 216.44 M862 373.02 C889.35 338.67, 920.04 305.9, 993.21 222.08 M862 373.02 C911.01 316.02, 959.96 258.95, 993.21 222.08 M866.99 373.38 C905.2 330.37, 940.24 292.76, 992.95 228.48 M866.99 373.38 C907.35 325.27, 950.52 276.36, 992.95 228.48 M872.63 372.99 C897.3 345.35, 918.05 315.55, 993.35 234.12 M872.63 372.99 C918.24 322.54, 962.36 270.39, 993.35 234.12 M877.62 373.35 C910.5 336.94, 941.67 297.71, 993.09 240.52 M877.62 373.35 C917.25 327.14, 959.16 280.51, 993.09 240.52 M883.26 372.95 C919.45 330.58, 956.93 286.92, 992.82 246.92 M883.26 372.95 C916.54 333.08, 949.24 294.19, 992.82 246.92 M888.25 373.31 C929.56 326.67, 970.83 278.2, 993.22 252.56 M888.25 373.31 C929.52 326.13, 969.4 280.13, 993.22 252.56 M893.89 372.92 C926.02 337.32, 955.47 302.84, 992.96 258.96 M893.89 372.92 C924.34 340.11, 954.35 303.69, 992.96 258.96 M898.88 373.28 C925.97 340.93, 954.18 312.7, 993.35 264.6 M898.88 373.28 C923.64 343.88, 947.09 315.86, 993.35 264.6 M904.52 372.89 C925.27 344.81, 949.31 319.49, 993.09 271 M904.52 372.89 C937.99 333.74, 973.11 292.68, 993.09 271 M909.51 373.25 C926.57 351.41, 944.01 329.93, 992.83 277.4 M909.51 373.25 C934.4 343.37, 960.29 312.94, 992.83 277.4 M914.5 373.61 C931.38 354.23, 949.5 330.93, 993.22 283.04 M914.5 373.61 C942.56 340.44, 971 308.54, 993.22 283.04 M920.14 373.21 C945.04 346.93, 967.98 317.93, 992.96 289.44 M920.14 373.21 C943.18 346.83, 966.59 319.26, 992.96 289.44 M925.13 373.57 C947.76 347.38, 970.94 317.29, 993.36 295.08 M925.13 373.57 C944.41 350.69, 964.11 329.37, 993.36 295.08 M930.77 373.18 C952.77 344.07, 978.17 318.66, 993.09 301.48 M930.77 373.18 C955.44 344.31, 979.72 315.97, 993.09 301.48 M935.76 373.54 C948.96 354.71, 963.92 339.74, 992.83 307.88 M935.76 373.54 C950.33 356.47, 963.59 340.65, 992.83 307.88 M941.4 373.14 C950.8 362.28, 963.04 347.85, 993.23 313.52 M941.4 373.14 C955.86 354.76, 971.68 337.69, 993.23 313.52 M946.39 373.5 C956.96 357.29, 970.4 347, 992.97 319.92 M946.39 373.5 C965.64 352.33, 983.01 332.35, 992.97 319.92 M952.03 373.11 C959.36 364.6, 968.61 353.78, 993.36 325.56 M952.03 373.11 C962.76 359.44, 973.31 347.17, 993.36 325.56 M957.02 373.47 C969.52 358.53, 984.71 340.9, 993.1 331.96 M957.02 373.47 C966.21 363.76, 973.95 352.34, 993.1 331.96 M962.66 373.07 C971.86 360.64, 982.98 351.47, 992.18 339.11 M962.66 373.07 C970.01 364.16, 978.26 355.95, 992.18 339.11 M968.96 371.92 C977.63 363.3, 981.88 355.05, 991.26 346.26 M968.96 371.92 C974.32 367.14, 978.67 360.76, 991.26 346.26 M979.19 366.25 C982.22 361.77, 987.51 357.05, 990.35 353.42 M979.19 366.25 C982.93 363, 985.48 359.32, 990.35 353.42" stroke="#b2f2bb" stroke-width="0.5" fill="none"></path><path d="M32 0 M32 0 C297.1 -2.01, 562.72 -0.93, 959.72 0 M32 0 C328.05 1.48, 624.18 1.42, 959.72 0 M959.72 0 C981.22 -1.76, 991.54 11.08, 991.72 32 M959.72 0 C981.15 -1.74, 993.91 8.75, 991.72 32 M991.72 32 C992.07 100.41, 993.49 168.12, 991.72 338.65 M991.72 32 C994.21 105.41, 993.46 178.06, 991.72 338.65 M991.72 338.65 C990.46 361.78, 979.26 370.74, 959.72 370.65 M991.72 338.65 C991.92 357.83, 981.89 372, 959.72 370.65 M959.72 370.65 C699.91 371.84, 440.87 372.21, 32 370.65 M959.72 370.65 C625.7 367.84, 291.99 367.44, 32 370.65 M32 370.65 C10.77 371.49, 0.21 359.71, 0 338.65 M32 370.65 C8.74 372.27, 1.73 359.68, 0 338.65 M0 338.65 C-1.9 217.8, -1.84 98.44, 0 32 M0 338.65 C-0.22 225.26, -0.2 111.04, 0 32 M0 32 C0.04 11.82, 9.89 -0.25, 32 0 M0 32 C1.73 8.91, 9.19 -1.22, 32 0" stroke="#1e1e1e" stroke-width="1" fill="none"></path></g><g transform="translate(424.0423623616813 80.65992411561655) rotate(0 35.1099967956543 12.5)"><text x="0" y="0" font-family="Virgil, Segoe UI Emoji" font-size="20px" fill="#1e1e1e" text-anchor="start" style="white-space: pre;" direction="ltr" dominant-baseline="text-before-edge">Thread</text></g><g stroke-linecap="round" transform="translate(464.95073948124866 220.74012455534705) rotate(0 99.79164721591417 87.39516930089377)"><path d="M23.54 29.74 C23.54 29.74, 23.54 29.74, 23.54 29.74 M23.54 29.74 C23.54 29.74, 23.54 29.74, 23.54 29.74 M13.87 48.97 C15.67 43.71, 24.02 36.28, 38.32 21.84 M11.67 49.88 C20.55 39.37, 29.93 28.85, 36.6 21.58 M7.5 62.18 C17.08 50.54, 22.35 44.19, 50.04 13.78 M5.92 61.41 C19.4 45.55, 31.44 32.51, 48.43 12.3 M6.71 69.91 C18.21 57.34, 26.53 40.95, 54.52 10.37 M4.07 69.65 C16.89 54.64, 29.13 41.13, 56.47 9.85 M2.93 78.2 C20.81 58.68, 34.72 39.76, 61.04 8.49 M3.15 76.79 C17.26 61.68, 29.16 48.56, 63.02 9.07 M4.36 83.48 C24.78 60.41, 47.72 31.74, 68.74 7.86 M2.73 84.21 C27.73 54.61, 53.2 26.83, 67.97 9.06 M1.79 91.74 C22.99 66.9, 48.56 37.3, 76.49 5.97 M0.55 92.5 C21.03 69.27, 40.67 46.13, 75.37 5.89 M0.53 95.2 C20.8 72.86, 41.44 52.4, 80.13 6.04 M2.95 97.97 C21.73 75.37, 42.51 51.57, 82.29 5.48 M1.11 102.63 C27.85 73.86, 53.54 44.55, 89.65 4.16 M3.37 101.77 C27.02 75.56, 50.11 49.6, 88.66 2.51 M3.01 106.39 C23.81 83.1, 43.27 60.94, 93.82 2.55 M4.62 106.84 C27.22 82.15, 48.31 57.3, 95.58 2.55 M6.64 110.69 C29.69 80.91, 54.76 53.02, 98.67 3.15 M6.59 110.99 C43.79 69.38, 79.44 27.36, 100.45 3.52 M7.17 114 C35.02 81.1, 65.14 49.2, 103.44 5.14 M6.7 115.13 C37.99 79.34, 68.22 45.44, 104.54 4.03 M8.5 120.77 C37.31 86.86, 68.98 50.78, 108.45 2.07 M9.57 119.86 C33.88 91.47, 59.04 62.79, 109.57 4.34 M9.8 123.57 C36.24 96.16, 62.29 65.9, 114.35 3.6 M10.14 123.45 C46.49 81.93, 82.01 40.18, 114.61 4.98 M10.02 127.31 C37.59 97.59, 64.63 69.39, 118.7 3.9 M11.9 128.89 C36.42 102.05, 57.61 76.28, 119.22 4.96 M13.83 132.68 C44.51 94.91, 71.01 61.38, 126.48 4.1 M15.48 131.19 C43.43 97.73, 72.68 66.12, 123.78 5.06 M16.24 132.83 C59.12 86.76, 100.3 38.14, 130.68 4.73 M16.91 134.91 C52.88 93.99, 88.46 51.18, 128.61 6.18 M21.05 135.06 C50.46 101.48, 80.84 68.01, 134.21 4.9 M20.7 137.65 C48.33 105.85, 74.79 75.21, 133.57 7.27 M22.15 141.24 C49.49 106.71, 76.98 77.55, 135.79 9.25 M22.86 139.36 C66.81 90.71, 111.62 40.9, 136.63 8.17 M26.07 142.02 C69.98 92.19, 112.79 40.61, 140.47 10.36 M26.07 142.39 C61.87 104.11, 95.05 64.08, 142.02 10.91 M28.52 145 C67.13 102.01, 106.3 60.2, 146.91 10.72 M27.85 146.49 C53.74 116.3, 81 84.86, 144.16 11.41 M30.32 148.45 C59.55 114.7, 88.61 81.44, 150.59 12.41 M31.21 148.35 C72.57 102.85, 111.97 55.53, 148.58 14.12 M33.26 149.7 C80.57 96.02, 125.75 42.23, 152.38 17.52 M34.1 150.87 C67.53 113.47, 101.45 76.8, 153.08 16.19 M36.03 154.85 C76.87 110.73, 116.29 63.67, 157.11 18.59 M38.06 154.75 C76.51 110.6, 115.67 64.53, 155.96 16.86 M39.43 158.24 C84.37 105.6, 131.85 49.6, 158.08 19.09 M41.02 156.67 C64.14 128.79, 88.42 100.79, 159.27 19.65 M42.93 158.8 C89.34 105.66, 137.35 52.19, 163.71 19.79 M44.57 159.66 C76.13 121.4, 107.96 86.29, 163 21.69 M49.26 160.86 C84.59 121.25, 115.66 77.59, 166.67 22.49 M48.17 160.61 C74.27 128.63, 100.17 98.74, 166.96 23.24 M50.92 164.23 C81.44 127.98, 110.46 98.78, 170.58 24.98 M50.37 162.25 C99.38 107.85, 145.56 53.49, 169.07 25.48 M56.14 163.44 C87.63 128.01, 119.32 90.38, 170.39 28.4 M54.35 165.25 C79.58 136.31, 105.24 106.42, 172.46 29.77 M57.39 168.16 C102.66 114.07, 147.92 65.62, 177.07 30.49 M59.12 166.48 C92.38 130.64, 123.65 92.93, 175.73 31.69 M61.96 169.66 C106.18 117.94, 147.68 68.91, 177.5 34.77 M61.8 168.25 C87.58 138.5, 114.68 107.19, 177.6 36.1 M64.54 169.22 C104.15 124.81, 146.35 78.21, 180.98 40.47 M66.78 170.66 C94.04 135.15, 124.94 100.89, 180.99 37.85 M69.74 172.57 C112.65 120.85, 156.11 69.33, 181.83 41.2 M69.96 172.82 C111.84 125.57, 153.38 77.63, 182.31 40.41 M74.04 172.85 C118.89 121.03, 159.48 74.06, 183.96 45.68 M75.3 171.67 C97.08 145.23, 121.99 118.89, 185.71 45.31 M80.31 173.53 C121.04 125.81, 162.86 77.18, 189.37 49.62 M79.06 171.74 C108.26 140.13, 138.19 106.5, 188.2 47.99 M85.75 173.11 C122.52 129.06, 162.31 84.24, 190.14 53.22 M84.35 173.72 C105.29 146.82, 128.78 120.59, 189.29 52.02 M89.71 174.04 C110.98 149.77, 128.51 124.54, 192.92 53.56 M88.61 174.16 C116.67 142.52, 143.01 111.69, 192.19 55.43 M94.35 175.65 C120.98 145.61, 145.66 114.48, 195.5 60.8 M92.92 174.35 C116.06 147.81, 138.63 121.49, 193.97 59.73 M97.77 173.65 C129.72 137.13, 163.3 98.84, 193.42 64.87 M98.85 174.52 C120.46 151.3, 140.92 127.3, 194.86 64.43 M101.34 173.98 C129.92 146.21, 155.22 116.9, 195.14 69.19 M102.35 175.68 C128.17 147.7, 152.53 120.13, 197.11 67.56 M106.83 176.29 C130.68 150.06, 153.65 123.05, 197.99 71.78 M108.59 175.86 C132.48 149.99, 155.98 122.89, 197.51 72.73 M115.01 172.65 C139.28 145.37, 166.16 116.09, 201.34 76.78 M115.25 174.65 C149.48 135.38, 182.78 97.07, 200.29 77.4 M120.95 173.69 C144.37 145.62, 170.08 115.33, 201.9 80.84 M121.39 172.26 C144.01 148.6, 165.75 123.15, 201.06 83.18 M127.17 171.84 C149.58 144.47, 171.53 119.64, 197.56 89.57 M129.32 170.53 C153.7 141.56, 177.11 114.05, 198.28 89.05 M134.85 170.98 C160.62 142.54, 184.38 111.84, 198.63 99.46 M135.46 169.44 C149.09 153.34, 163.16 136.96, 197.18 97.21 M141.78 165.84 C160.8 145.57, 177.5 128.54, 197.72 105.11 M142.89 166.42 C161.33 146.8, 176.3 127.51, 195.32 105.06 M156.85 156.03 C168.7 143.22, 175.89 132.64, 193.69 112.38 M157.6 157.1 C172.14 139.22, 185.78 122.97, 195.12 114.28 M172.14 148.69 C176.08 140.78, 182.8 133.89, 198.77 115.54 M171.15 147.93 C178.39 137.03, 188.17 126.92, 196.71 116.8" stroke="#b2f2bb" stroke-width="0.5" fill="none"></path><path d="M130.7 4.04 C142.65 6.09, 155.23 13.12, 164.83 20.62 C174.42 28.13, 182.39 38.85, 188.27 49.07 C194.15 59.3, 199.17 71.06, 200.11 81.98 C201.04 92.9, 198.04 104.3, 193.88 114.59 C189.73 124.87, 183.52 135.19, 175.18 143.7 C166.85 152.2, 155.24 160.4, 143.87 165.61 C132.51 170.83, 119.58 174.18, 107.01 175 C94.43 175.82, 80.38 174.15, 68.43 170.52 C56.47 166.88, 44.78 160.35, 35.28 153.17 C25.78 145.98, 17.3 137.45, 11.42 127.39 C5.54 117.33, 1.04 103.9, 0.02 92.79 C-1.01 81.68, 1.35 71.25, 5.29 60.71 C9.24 50.18, 15.52 38.15, 23.68 29.59 C31.83 21.03, 42.76 14.14, 54.21 9.36 C65.67 4.57, 77.34 0.86, 92.39 0.88 C107.44 0.91, 133.92 6.87, 144.51 9.51 C155.11 12.14, 156.84 15.44, 155.95 16.7 M61.09 7.7 C71.74 2.36, 87.33 0.89, 99.92 0.69 C112.51 0.49, 124.83 2.3, 136.62 6.52 C148.41 10.74, 161.53 18.26, 170.66 26.02 C179.79 33.78, 186.49 42.82, 191.4 53.07 C196.31 63.33, 200.15 76.39, 200.12 87.54 C200.08 98.7, 196.12 109.93, 191.19 119.99 C186.26 130.05, 179.2 140.15, 170.54 147.91 C161.88 155.68, 151.12 161.87, 139.21 166.58 C127.29 171.3, 111.79 175.74, 99.05 176.19 C86.3 176.65, 74.4 173.75, 62.75 169.31 C51.1 164.88, 38.26 157.54, 29.17 149.58 C20.07 141.62, 13.18 131.85, 8.18 121.55 C3.18 111.25, -0.68 99.17, -0.84 87.76 C-1 76.36, 2.38 63.65, 7.23 53.14 C12.08 42.63, 19.5 32.41, 28.28 24.68 C37.06 16.95, 54.34 9.31, 59.92 6.74 C65.5 4.16, 60.69 7.73, 61.77 9.21" stroke="#1e1e1e" stroke-width="1" fill="none"></path></g><g transform="translate(529.739033803608 283.33757700063245) rotate(0 34.94000244140625 25)"><text x="34.94000244140625" y="0" font-family="Virgil, Segoe UI Emoji" font-size="20px" fill="#1e1e1e" text-anchor="middle" style="white-space: pre;" direction="ltr" dominant-baseline="text-before-edge">요청</text><text x="34.94000244140625" y="25" font-family="Virgil, Segoe UI Emoji" font-size="20px" fill="#1e1e1e" text-anchor="middle" style="white-space: pre;" direction="ltr" dominant-baseline="text-before-edge">Handler</text></g><g stroke-linecap="round"><g transform="translate(793.4574042292892 287.6811052964571) rotate(0 84.60589972015288 -37.050026853192634)"><path d="M-0.5 -0.01 C13.56 -11.95, 56.67 -71.82, 84.65 -72.37 C112.64 -72.92, 153.25 -15.07, 167.43 -3.3 M1.44 -1.06 C15.85 -13.28, 58.86 -73.86, 86.9 -74.09 C114.95 -74.31, 156.38 -14.11, 169.71 -2.42" stroke="#1e1e1e" stroke-width="4" fill="none"></path></g><g transform="translate(793.4574042292892 287.6811052964571) rotate(0 84.60589972015288 -37.050026853192634)"><path d="M143.26 -18.08 C153.11 -13.81, 159.09 -5.36, 170.88 -0.98 M143.6 -17.17 C150.84 -12.86, 157.53 -9.17, 168.98 -3.36" stroke="#1e1e1e" stroke-width="4" fill="none"></path></g><g transform="translate(793.4574042292892 287.6811052964571) rotate(0 84.60589972015288 -37.050026853192634)"><path d="M158.56 -31.75 C163.33 -23.08, 164.31 -10.16, 170.88 -0.98 M158.9 -30.84 C161.84 -22.62, 164.21 -15.07, 168.98 -3.36" stroke="#1e1e1e" stroke-width="4" fill="none"></path></g></g><mask></mask><g stroke-linecap="round"><g transform="translate(962.0495038735664 308.75511775199186) rotate(0 -81.58077999833091 37.04874924741509)"><path d="M-0.86 0.65 C-13.31 12.98, -46.39 73.3, -73.55 73.22 C-100.71 73.14, -148.78 12.2, -163.83 0.17 M0.89 -0.06 C-11.86 12.45, -47.22 73.99, -74.71 74.16 C-102.2 74.32, -149.32 12.94, -164.06 0.92" stroke="#1e1e1e" stroke-width="4" fill="none"></path></g><g transform="translate(962.0495038735664 308.75511775199186) rotate(0 -81.58077999833091 37.04874924741509)"><path d="M-135.96 13.27 C-149.64 10.3, -160.28 5.01, -164.41 0.74 M-136.42 12.98 C-143.4 10.64, -148.96 7.06, -164.07 0.11" stroke="#1e1e1e" stroke-width="4" fill="none"></path></g><g transform="translate(962.0495038735664 308.75511775199186) rotate(0 -81.58077999833091 37.04874924741509)"><path d="M-150.66 27.59 C-158.39 19.01, -163.16 8.01, -164.41 0.74 M-151.12 27.3 C-154.74 21.85, -157.03 15.07, -164.07 0.11" stroke="#1e1e1e" stroke-width="4" fill="none"></path></g></g><mask></mask><g transform="translate(829.4071901828484 285.2018097134531) rotate(0 54.76000213623047 12.5)"><text x="0" y="0" font-family="Virgil, Segoe UI Emoji" font-size="20px" fill="#1e1e1e" text-anchor="start" style="white-space: pre;" direction="ltr" dominant-baseline="text-before-edge">Event Loop</text></g><g stroke-linecap="round" transform="translate(1119.4847733943254 203.3286534436818) rotate(0 124 107.5)"><path d="M7.86 8.16 C7.86 8.16, 7.86 8.16, 7.86 8.16 M7.86 8.16 C7.86 8.16, 7.86 8.16, 7.86 8.16 M3.66 19.09 C8.69 14.35, 12.99 10.58, 18.1 2.48 M3.66 19.09 C7.48 14.17, 12.26 8.85, 18.1 2.48 M2.75 26.24 C5.74 19.69, 11.35 15.8, 24.4 1.33 M2.75 26.24 C9 18.81, 15.73 11.89, 24.4 1.33 M2.48 32.64 C7.11 26.23, 14.04 19, 30.7 0.18 M2.48 32.64 C8.89 24.24, 14.98 16.67, 30.7 0.18 M2.88 38.28 C10.82 28.13, 20.94 17.27, 34.37 2.05 M2.88 38.28 C10.31 28.77, 18.88 19.8, 34.37 2.05 M2.62 44.68 C10.03 33.9, 18.61 23.89, 39.36 2.41 M2.62 44.68 C15.43 30.78, 27.58 15.39, 39.36 2.41 M2.36 51.07 C15.03 36.29, 25.43 21.19, 45 2.02 M2.36 51.07 C18.22 33.29, 33.5 16.09, 45 2.02 M2.75 56.72 C20.41 38.13, 36.03 20.15, 49.99 2.38 M2.75 56.72 C19.9 37.99, 34.84 19.44, 49.99 2.38 M2.49 63.11 C13.88 49.72, 26.4 32.59, 55.63 1.98 M2.49 63.11 C14.58 49.51, 26.87 36.1, 55.63 1.98 M2.23 69.51 C19.3 50.3, 37.92 27.61, 60.62 2.34 M2.23 69.51 C21.58 47.17, 39.8 25.63, 60.62 2.34 M2.62 75.16 C26.93 47.77, 47.56 22.24, 66.26 1.95 M2.62 75.16 C15.57 61.1, 30.51 45.21, 66.26 1.95 M2.36 81.55 C21.77 60.66, 37.61 38.51, 71.25 2.31 M2.36 81.55 C30.01 50.54, 56.84 19.8, 71.25 2.31 M2.76 87.2 C21.52 63.54, 43.26 40.3, 76.89 1.91 M2.76 87.2 C24.12 63.06, 44.57 40.62, 76.89 1.91 M2.49 93.59 C31.98 59.91, 61.41 25.15, 81.88 2.27 M2.49 93.59 C32.79 58.33, 62.75 23.69, 81.88 2.27 M2.23 99.99 C26.52 72.69, 50.56 40.92, 87.52 1.88 M2.23 99.99 C24.33 76.33, 44.54 52.98, 87.52 1.88 M2.63 105.64 C34.05 68.23, 68.04 33.24, 92.51 2.24 M2.63 105.64 C22.2 85.78, 39.87 63.62, 92.51 2.24 M2.37 112.03 C36.19 71.87, 73.32 32.76, 98.15 1.85 M2.37 112.03 C34.74 74.88, 67.84 35.97, 98.15 1.85 M2.1 118.43 C32.84 83.78, 60.84 51.09, 103.14 2.21 M2.1 118.43 C32.38 84.35, 62.1 50.85, 103.14 2.21 M2.5 124.07 C45.23 75.45, 89.32 29.23, 108.78 1.81 M2.5 124.07 C34.31 87.14, 66.03 48.59, 108.78 1.81 M2.24 130.47 C35.63 93.78, 68.8 55.91, 113.77 2.17 M2.24 130.47 C38.25 88.19, 75.36 48.06, 113.77 2.17 M1.98 136.87 C26.81 108.11, 55.18 76.18, 119.41 1.78 M1.98 136.87 C29.12 104.98, 55.31 72.66, 119.41 1.78 M2.37 142.51 C48.98 89.35, 98.34 35.1, 124.4 2.14 M2.37 142.51 C41.03 99.83, 79.95 55.93, 124.4 2.14 M2.11 148.91 C30.56 114.92, 58.93 83.04, 130.04 1.74 M2.11 148.91 C42.74 100.67, 84.95 52.41, 130.04 1.74 M2.5 154.55 C36.15 111.27, 74.28 70.74, 135.03 2.1 M2.5 154.55 C48.31 103.52, 92.4 53.94, 135.03 2.1 M2.24 160.95 C42.58 112.84, 83.78 68.13, 140.67 1.71 M2.24 160.95 C55.78 98.32, 109.54 36.66, 140.67 1.71 M1.98 167.35 C51.53 107.95, 101.63 51.09, 145.66 2.07 M1.98 167.35 C57.19 103.4, 112.85 40.49, 145.66 2.07 M2.38 172.99 C44.41 124.75, 85.83 76.94, 150.65 2.43 M2.38 172.99 C48.65 119.06, 95.48 64.79, 150.65 2.43 M2.11 179.39 C42.1 136.13, 77.26 91.63, 156.29 2.03 M2.11 179.39 C53.91 122.48, 103.38 65.66, 156.29 2.03 M2.51 185.03 C57.44 123.11, 109.36 60.53, 161.28 2.39 M2.51 185.03 C62.63 115.59, 122.48 44.45, 161.28 2.39 M2.9 190.68 C60.08 122.06, 119.84 57.98, 166.92 2 M2.9 190.68 C56.55 128.75, 111.37 66.82, 166.92 2 M2.64 197.07 C69.39 120.42, 134.24 41.8, 171.91 2.36 M2.64 197.07 C63.78 126.72, 124.81 55.84, 171.91 2.36 M4.35 201.21 C49.55 146.87, 92.52 96.15, 177.55 1.96 M4.35 201.21 C43.92 153.07, 85.08 105.64, 177.55 1.96 M6.71 204.59 C50.85 151.22, 95.65 99.98, 182.54 2.32 M6.71 204.59 C45.58 162.62, 83.23 119.37, 182.54 2.32 M9.07 207.97 C69.48 140.59, 128.17 74.46, 188.18 1.93 M9.07 207.97 C48.26 163.28, 87.93 117.22, 188.18 1.93 M12.75 209.83 C68.13 143.74, 126.13 78.18, 193.17 2.29 M12.75 209.83 C48.97 167.7, 86.01 124.87, 193.17 2.29 M15.77 212.46 C71.73 146.57, 129.65 82.46, 198.81 1.9 M15.77 212.46 C70.53 148.51, 126.24 84.08, 198.81 1.9 M19.44 214.33 C66.8 161.65, 113.15 107.77, 203.8 2.26 M19.44 214.33 C90.1 131.62, 161.95 50.21, 203.8 2.26 M24.43 214.69 C83.51 147.53, 143.21 79, 209.44 1.86 M24.43 214.69 C68.84 163.24, 112.66 112.28, 209.44 1.86 M28.76 215.8 C90.9 145.56, 150.31 76.76, 216.39 -0.04 M28.76 215.8 C82.85 152.42, 138.51 90.46, 216.39 -0.04 M33.75 216.16 C89.38 152.69, 143.71 91.72, 220.72 1.07 M33.75 216.16 C75.83 169.46, 116.72 120.87, 220.72 1.07 M38.74 216.52 C88.54 158.82, 139.84 99.62, 225.71 1.43 M38.74 216.52 C86.81 161.37, 135.89 105.24, 225.71 1.43 M44.38 216.13 C99.86 153.58, 155.67 88.11, 230.04 2.55 M44.38 216.13 C82.67 173.05, 119.31 130.23, 230.04 2.55 M49.37 216.49 C89.5 169.21, 133.23 122.8, 233.72 4.42 M49.37 216.49 C108.78 149.23, 168.04 81.39, 233.72 4.42 M55.01 216.09 C101.12 162.21, 147.47 110.68, 237.39 6.29 M55.01 216.09 C121.69 139.8, 189.02 62.78, 237.39 6.29 M60 216.45 C131.17 137.56, 197.98 56.97, 240.41 8.91 M60 216.45 C111.56 155.74, 165.41 95.58, 240.41 8.91 M65.64 216.06 C131.63 139.82, 197.65 66.01, 242.77 12.29 M65.64 216.06 C109.22 168.67, 152.79 119.38, 242.77 12.29 M70.63 216.42 C130.3 147.05, 190.32 79.66, 245.14 15.67 M70.63 216.42 C119.95 159.96, 169.32 103.67, 245.14 15.67 M76.27 216.03 C135.42 149.67, 192.03 85.33, 247.5 19.05 M76.27 216.03 C141.9 138.01, 209.58 61.72, 247.5 19.05 M81.26 216.39 C141.19 146.03, 204.63 77.35, 247.89 24.69 M81.26 216.39 C146.45 140.72, 210.96 64.21, 247.89 24.69 M86.9 215.99 C142.04 151.73, 197.3 87.12, 248.95 29.58 M86.9 215.99 C141.8 152.95, 195.82 91.46, 248.95 29.58 M91.89 216.35 C142.94 157.58, 193.5 97.39, 250.65 33.71 M91.89 216.35 C127.58 175.17, 163.51 133.74, 250.65 33.71 M96.87 216.71 C133.65 178.2, 170.09 133.84, 250.39 40.11 M96.87 216.71 C130.69 177.43, 164.06 138.23, 250.39 40.11 M102.52 216.32 C150.71 157.14, 201.75 99.84, 250.13 46.51 M102.52 216.32 C154.91 154.19, 208.95 93.26, 250.13 46.51 M107.5 216.68 C162.78 156.29, 215.35 93.08, 250.52 52.15 M107.5 216.68 C157.95 158.43, 207.26 101.78, 250.52 52.15 M113.15 216.28 C160.99 161.07, 210.26 106.19, 250.26 58.55 M113.15 216.28 C150.59 171.09, 190.38 126.52, 250.26 58.55 M118.13 216.64 C165.4 162.5, 213.64 107.05, 250.66 64.19 M118.13 216.64 C149.95 178.46, 183.41 139.3, 250.66 64.19 M123.78 216.25 C169.27 165.4, 215.29 112.42, 250.4 70.59 M123.78 216.25 C157.61 176.94, 190.32 140.12, 250.4 70.59 M128.76 216.61 C167.38 170.78, 206.76 124.56, 250.13 76.99 M128.76 216.61 C154.84 185.03, 180.91 154.84, 250.13 76.99 M134.41 216.21 C171.82 173.84, 212.51 127.89, 250.53 82.63 M134.41 216.21 C165.01 181.56, 195.41 146.28, 250.53 82.63 M139.39 216.57 C166.15 183.82, 192.52 153.23, 250.27 89.03 M139.39 216.57 C179.94 170.93, 221.73 124.35, 250.27 89.03 M145.04 216.18 C185.89 172.77, 221.28 129.08, 250.66 94.67 M145.04 216.18 C170.95 186.07, 196.08 158.19, 250.66 94.67 M150.02 216.54 C188.94 173.01, 230.11 124.99, 250.4 101.07 M150.02 216.54 C185.78 173.6, 222.98 131.94, 250.4 101.07 M155.67 216.14 C183.93 183.57, 209.28 153.77, 250.14 107.47 M155.67 216.14 C179.79 188.27, 202.71 162.21, 250.14 107.47 M160.65 216.5 C190.67 181.45, 222.05 148.09, 250.53 113.11 M160.65 216.5 C189.69 183.74, 216.09 151.43, 250.53 113.11 M166.3 216.11 C186.36 191.34, 207.86 167.14, 250.27 119.51 M166.3 216.11 C193.47 185.12, 220.53 152.97, 250.27 119.51 M171.28 216.47 C195.27 188.62, 222.74 160.59, 250.67 125.15 M171.28 216.47 C190.95 192.68, 212.84 168.18, 250.67 125.15 M176.93 216.08 C203.81 182.46, 231.9 151.46, 250.4 131.55 M176.93 216.08 C205.66 181.69, 235.92 149.29, 250.4 131.55 M181.91 216.44 C199.67 199.47, 216 179.07, 250.14 137.95 M181.91 216.44 C202.63 191.28, 224.93 166.92, 250.14 137.95 M187.56 216.04 C203.07 199.31, 220.16 178.91, 250.54 143.59 M187.56 216.04 C213.4 186.67, 238.55 159.29, 250.54 143.59 M192.54 216.4 C212.35 196.19, 230.38 172.57, 250.28 149.99 M192.54 216.4 C209.53 197.92, 225.04 179.36, 250.28 149.99 M198.19 216.01 C213.16 198.31, 224.41 184.2, 250.67 155.63 M198.19 216.01 C214.56 195.66, 232.48 175.29, 250.67 155.63 M203.17 216.37 C214.11 204.69, 226.66 191.47, 250.41 162.03 M203.17 216.37 C215.9 203.38, 228.72 187.51, 250.41 162.03 M208.16 216.73 C222.07 200.75, 230.63 189.43, 250.15 168.43 M208.16 216.73 C217.98 205.79, 227.16 194.85, 250.15 168.43 M213.8 216.33 C229.49 199.7, 239.69 182.49, 250.54 174.07 M213.8 216.33 C222.96 205.2, 232.86 194.55, 250.54 174.07 M218.13 217.45 C230.16 206.63, 240.96 189.9, 248.31 182.73 M218.13 217.45 C229.36 204.49, 240.68 190.8, 248.31 182.73 M224.43 216.3 C234.99 207.58, 242.99 194.97, 246.74 190.64 M224.43 216.3 C232.92 206.71, 239.81 199.1, 246.74 190.64 M231.39 214.39 C233.71 209.65, 238.3 207.06, 246.48 197.04 M231.39 214.39 C235.63 210.23, 238.65 205.12, 246.48 197.04" stroke="#b2f2bb" stroke-width="0.5" fill="none"></path><path d="M32 0 M32 0 C70.24 -1.75, 107.26 -2.44, 216 0 M32 0 C91.07 1.13, 149.67 -0.74, 216 0 M216 0 C235.59 -1.5, 248.99 10.11, 248 32 M216 0 C235.37 -1.3, 247.49 10.66, 248 32 M248 32 C248.61 79.88, 251.14 126.75, 248 183 M248 32 C248.88 89.04, 249.35 143.69, 248 183 M248 183 C249.53 204, 239.33 216.41, 216 215 M248 183 C246.9 202.44, 237.02 212.76, 216 215 M216 215 C153.53 214.39, 89.55 216.9, 32 215 M216 215 C166.64 213.88, 117.41 214.28, 32 215 M32 215 C11.75 213.41, -0.53 204.62, 0 183 M32 215 C11.15 213.61, 2.09 203.89, 0 183 M0 183 C-2.4 130.36, -2.71 78.87, 0 32 M0 183 C-0.58 152.12, -0.62 120.45, 0 32 M0 32 C0.92 11.42, 10.99 -0.56, 32 0 M0 32 C-0.8 9.28, 12.69 -1.74, 32 0" stroke="#1e1e1e" stroke-width="1" fill="none"></path></g><g transform="translate(1137.6947648494036 273.3286534436818) rotate(0 105.79000854492188 37.5)"><text x="105.79000854492188" y="0" font-family="Virgil, Segoe UI Emoji" font-size="20px" fill="#1e1e1e" text-anchor="middle" style="white-space: pre;" direction="ltr" dominant-baseline="text-before-edge">비용이 드는 작업</text><text x="105.79000854492188" y="25" font-family="Virgil, Segoe UI Emoji" font-size="20px" fill="#1e1e1e" text-anchor="middle" style="white-space: pre;" direction="ltr" dominant-baseline="text-before-edge">(네트워크, 데이터베이스, </text><text x="105.79000854492188" y="50" font-family="Virgil, Segoe UI Emoji" font-size="20px" fill="#1e1e1e" text-anchor="middle" style="white-space: pre;" direction="ltr" dominant-baseline="text-before-edge">연산 작업 등)</text></g><g stroke-linecap="round"><g transform="translate(667.013329496081 248.0123759683919) rotate(0 76.53822249977685 -1.9532736449201877)"><path d="M-0.61 -0.46 C25 -0.59, 128 -1.34, 153.69 -1.72 M1.27 -1.75 C26.72 -2.13, 127.49 -3.47, 152.72 -3.44" stroke="#1e1e1e" stroke-width="1" fill="none"></path></g><g transform="translate(667.013329496081 248.0123759683919) rotate(0 76.53822249977685 -1.9532736449201877)"><path d="M123.84 6.97 C134.44 3.69, 141.19 2.6, 150.93 -4.28 M125.45 6.84 C131.74 5.06, 138.99 2.58, 152.08 -3.67" stroke="#1e1e1e" stroke-width="1" fill="none"></path></g><g transform="translate(667.013329496081 248.0123759683919) rotate(0 76.53822249977685 -1.9532736449201877)"><path d="M123.69 -13.55 C134.17 -10.64, 140.96 -5.54, 150.93 -4.28 M125.3 -13.68 C131.54 -10.45, 138.82 -7.91, 152.08 -3.67" stroke="#1e1e1e" stroke-width="1" fill="none"></path></g></g><mask></mask><g stroke-linecap="round"><g transform="translate(934.7772524605216 238.0951936363756) rotate(0 87.33181205910671 0.1280978409420186)"><path d="M-0.09 -0.4 C28.97 -0.48, 144.97 0.17, 173.98 0.6 M-1.6 -1.66 C27.87 -1.05, 146.6 1.56, 176.26 1.92" stroke="#1e1e1e" stroke-width="1" fill="none"></path></g><g transform="translate(934.7772524605216 238.0951936363756) rotate(0 87.33181205910671 0.1280978409420186)"><path d="M147.22 10.32 C154.74 7.65, 165.04 6.07, 176.62 3.55 M148.5 11.86 C158.2 8.46, 167.24 5.63, 176.44 2.37" stroke="#1e1e1e" stroke-width="1" fill="none"></path></g><g transform="translate(934.7772524605216 238.0951936363756) rotate(0 87.33181205910671 0.1280978409420186)"><path d="M147.58 -10.2 C155.18 -7.35, 165.38 -3.39, 176.62 3.55 M148.86 -8.66 C158.55 -5.25, 167.46 -1.27, 176.44 2.37" stroke="#1e1e1e" stroke-width="1" fill="none"></path></g></g><mask></mask><g stroke-linecap="round"><g transform="translate(1109.5675910623092 350.45185352415035) rotate(0 -85.43662578350222 -0.0837532685133624)"><path d="M0.88 0.64 C-27.84 0.63, -142.98 -0.58, -171.75 -0.84 M-0.12 -0.06 C-28.49 0.19, -141.21 0.61, -169.4 0.67" stroke="#1e1e1e" stroke-width="1" fill="none"></path></g><g transform="translate(1109.5675910623092 350.45185352415035) rotate(0 -85.43662578350222 -0.0837532685133624)"><path d="M-140.17 -10.81 C-151.12 -7.07, -161.01 -3.21, -168.48 0.88 M-141.94 -10.54 C-150.34 -7.47, -157.73 -3.41, -169.01 0.83" stroke="#1e1e1e" stroke-width="1" fill="none"></path></g><g transform="translate(1109.5675910623092 350.45185352415035) rotate(0 -85.43662578350222 -0.0837532685133624)"><path d="M-140.1 9.71 C-150.95 6.36, -160.86 3.13, -168.48 0.88 M-141.88 9.98 C-150.09 6.97, -157.5 4.95, -169.01 0.83" stroke="#1e1e1e" stroke-width="1" fill="none"></path></g></g><mask></mask><g stroke-linecap="round"><g transform="translate(825.6882468083421 344.7049037055509) rotate(0 -79.22827507212361 -1.0770997151568906)"><path d="M0.51 -0.38 C-25.91 -0.69, -131.43 -1.44, -157.82 -1.77 M-0.69 -1.63 C-27.35 -1.78, -132.62 -0.52, -158.96 -0.52" stroke="#1e1e1e" stroke-width="1" fill="none"></path></g><g transform="translate(825.6882468083421 344.7049037055509) rotate(0 -79.22827507212361 -1.0770997151568906)"><path d="M-131.48 -11.59 C-141.73 -7.7, -152.69 -4.35, -159.06 -2.22 M-131.05 -10.12 C-140.47 -6.42, -150.29 -3.73, -158.02 -0.34" stroke="#1e1e1e" stroke-width="1" fill="none"></path></g><g transform="translate(825.6882468083421 344.7049037055509) rotate(0 -79.22827507212361 -1.0770997151568906)"><path d="M-131.34 8.93 C-141.65 5.52, -152.66 1.58, -159.06 -2.22 M-130.91 10.4 C-140.36 7.17, -150.22 2.93, -158.02 -0.34" stroke="#1e1e1e" stroke-width="1" fill="none"></path></g></g><mask></mask><g transform="translate(659.5754427470689 195.94716872530623) rotate(0 70.55000305175781 12.500000000000014)"><text x="0" y="0" font-family="Virgil, Segoe UI Emoji" font-size="20px" fill="#1e1e1e" text-anchor="start" style="white-space: pre;" direction="ltr" dominant-baseline="text-before-edge">요청 이벤트 푸시</text></g><g transform="translate(975.6856295800887 186.02998639328993) rotate(0 39.599998474121094 12.5)"><text x="0" y="0" font-family="Virgil, Segoe UI Emoji" font-size="20px" fill="#1e1e1e" text-anchor="start" style="white-space: pre;" direction="ltr" dominant-baseline="text-before-edge">콜백 등록</text></g><g transform="translate(983.123516329101 369.49785953559183) rotate(0 48.25 25)"><text x="48.25" y="0" font-family="Virgil, Segoe UI Emoji" font-size="20px" fill="#1e1e1e" text-anchor="middle" style="white-space: pre;" direction="ltr" dominant-baseline="text-before-edge">작업 완료 </text><text x="48.25" y="25" font-family="Virgil, Segoe UI Emoji" font-size="20px" fill="#1e1e1e" text-anchor="middle" style="white-space: pre;" direction="ltr" dominant-baseline="text-before-edge">이벤트 푸시</text></g><g transform="translate(712.9490286356006 375.696098493102) rotate(0 39.599998474121094 12.5)"><text x="39.599998474121094" y="0" font-family="Virgil, Segoe UI Emoji" font-size="20px" fill="#1e1e1e" text-anchor="middle" style="white-space: pre;" direction="ltr" dominant-baseline="text-before-edge">콜백 호출</text></g><g stroke-linecap="round" transform="translate(10 10) rotate(0 137.6009048567264 52.065207243085695)"><path d="M3.84 9.96 C3.84 9.96, 3.84 9.96, 3.84 9.96 M3.84 9.96 C3.84 9.96, 3.84 9.96, 3.84 9.96 M0.3 20.13 C5.04 15.01, 8.26 9.8, 12.76 5.79 M0.3 20.13 C4.97 15.23, 8.23 11.57, 12.76 5.79 M0.69 25.78 C8.32 17.85, 14.61 10.12, 19.06 4.65 M0.69 25.78 C6.33 19.18, 11.36 12.85, 19.06 4.65 M0.43 32.18 C9.25 22.95, 18.17 10.33, 27.33 1.23 M0.43 32.18 C5.3 26, 12.12 20.73, 27.33 1.23 M0.17 38.57 C11.29 24.73, 24.94 13.3, 32.97 0.84 M0.17 38.57 C8.58 27.88, 16.59 18.67, 32.97 0.84 M0.56 44.22 C13.96 29.82, 27.98 11.48, 37.96 1.2 M0.56 44.22 C11.59 32.96, 22.27 20.35, 37.96 1.2 M0.3 50.61 C12.06 39.94, 18.09 28.47, 43.6 0.8 M0.3 50.61 C13.77 36.08, 26.92 20.39, 43.6 0.8 M0.7 56.26 C15.47 37.96, 33.84 21.32, 48.59 1.16 M0.7 56.26 C12.87 42.32, 26.11 28.66, 48.59 1.16 M0.44 62.65 C16.49 42.63, 32.35 25.3, 53.58 1.52 M0.44 62.65 C12.86 48.52, 23.93 34.64, 53.58 1.52 M0.17 69.05 C20.68 44.34, 39.57 20.31, 59.22 1.13 M0.17 69.05 C17.4 49.28, 34.83 30.34, 59.22 1.13 M0.57 74.7 C13.21 59.94, 29.64 41.36, 64.21 1.49 M0.57 74.7 C12.59 59.55, 26.64 43.49, 64.21 1.49 M0.31 81.09 C20.58 57.1, 40.39 34.87, 69.85 1.09 M0.31 81.09 C20.77 59.54, 38.82 36.48, 69.85 1.09 M2.01 85.23 C32.08 51.86, 59.86 18.12, 74.84 1.45 M2.01 85.23 C28.71 55.36, 53.64 24.49, 74.84 1.45 M3.07 90.12 C19.76 70.67, 38.9 49.95, 80.48 1.06 M3.07 90.12 C32.56 56.3, 60.78 23.1, 80.48 1.06 M4.12 95 C29.01 65.1, 56.93 34.61, 85.47 1.42 M4.12 95 C30.58 63, 58.69 30.96, 85.47 1.42 M7.13 97.63 C24.51 76.58, 43.09 56.17, 91.11 1.03 M7.13 97.63 C29.27 73.2, 50.5 47.52, 91.11 1.03 M10.15 100.25 C35.28 70.93, 59.01 41.77, 96.1 1.39 M10.15 100.25 C37.85 67.67, 65.28 34.16, 96.1 1.39 M13.83 102.12 C39.59 72.74, 66.93 42.6, 101.74 0.99 M13.83 102.12 C35.25 75.76, 58.32 50.82, 101.74 0.99 M16.85 104.75 C37.21 78.25, 60.96 53.44, 106.73 1.35 M16.85 104.75 C41.34 74.54, 67.56 45.61, 106.73 1.35 M21.83 105.11 C49.21 79.11, 73.46 50.29, 112.37 0.96 M21.83 105.11 C44.2 79.27, 66.33 52.76, 112.37 0.96 M26.82 105.47 C59.83 69.33, 91.51 35.5, 117.36 1.32 M26.82 105.47 C51.52 77.81, 75 51.26, 117.36 1.32 M32.46 105.07 C64.95 66.88, 99.14 27.86, 123 0.92 M32.46 105.07 C63.77 69.7, 95.72 33.66, 123 0.92 M37.45 105.43 C58.72 82.32, 77.49 61.04, 127.99 1.28 M37.45 105.43 C65.99 74.54, 92.81 41.15, 127.99 1.28 M43.09 105.04 C74.91 70.01, 105.41 36.33, 133.63 0.89 M43.09 105.04 C78.8 63.95, 114.08 20.9, 133.63 0.89 M48.08 105.4 C76.21 76.39, 99.61 46.45, 138.62 1.25 M48.08 105.4 C81.47 68.64, 114.29 28.8, 138.62 1.25 M53.72 105 C86.14 68.24, 120.08 29.38, 144.26 0.85 M53.72 105 C81.46 72.47, 108.96 40.32, 144.26 0.85 M58.71 105.36 C77.3 82.05, 101.23 57.32, 149.25 1.21 M58.71 105.36 C91.95 68.29, 124.61 29.52, 149.25 1.21 M64.35 104.97 C100.51 61.05, 134.55 23.22, 154.89 0.82 M64.35 104.97 C94.43 70.96, 122.93 37.85, 154.89 0.82 M69.34 105.33 C100.59 69.55, 129.01 37.26, 159.88 1.18 M69.34 105.33 C99.08 72.88, 128.44 38.71, 159.88 1.18 M74.98 104.93 C108.31 67.21, 140.41 29.22, 164.86 1.54 M74.98 104.93 C101.07 72.62, 128.09 42.92, 164.86 1.54 M79.97 105.29 C112.96 68.56, 144.11 34.19, 170.51 1.14 M79.97 105.29 C103.53 76.97, 128.26 50.29, 170.51 1.14 M85.61 104.9 C119.63 65.33, 154.75 26.91, 175.49 1.5 M85.61 104.9 C114.1 74.22, 138.94 43.54, 175.49 1.5 M90.6 105.26 C110.48 81.75, 134.43 57.01, 181.14 1.11 M90.6 105.26 C115.65 73.95, 142.11 43.88, 181.14 1.11 M96.24 104.86 C124.67 70.22, 155.99 37.26, 186.12 1.47 M96.24 104.86 C128.46 68.88, 158.84 30.92, 186.12 1.47 M101.23 105.22 C136.1 63.11, 171.43 22.59, 191.77 1.07 M101.23 105.22 C128.6 73.42, 155.5 41.47, 191.77 1.07 M106.87 104.83 C136.83 71.4, 162.9 40.9, 196.76 1.43 M106.87 104.83 C132 75.06, 158.57 44.53, 196.76 1.43 M111.86 105.19 C137.41 76.6, 160.15 50.77, 202.4 1.04 M111.86 105.19 C139.33 74.17, 165.56 43.14, 202.4 1.04 M117.51 104.8 C154.19 63.18, 186.94 22.84, 207.39 1.4 M117.51 104.8 C149.68 67.65, 183.3 31.05, 207.39 1.4 M122.49 105.16 C149.15 72.8, 179.81 42.2, 213.03 1.01 M122.49 105.16 C145.54 77.81, 168.99 51.07, 213.03 1.01 M128.14 104.76 C161.83 63.42, 199.5 22.31, 218.02 1.37 M128.14 104.76 C158.66 67.61, 190.74 31.07, 218.02 1.37 M133.12 105.12 C154.76 82, 173.32 57.39, 223.66 0.97 M133.12 105.12 C154.78 79.14, 178.17 51.59, 223.66 0.97 M138.77 104.73 C169.71 66.91, 206.8 30.35, 228.65 1.33 M138.77 104.73 C165.68 73.23, 193.42 41.95, 228.65 1.33 M143.75 105.09 C178.8 66.39, 211.55 28.59, 234.29 0.94 M143.75 105.09 C175.52 66.34, 209.21 29.66, 234.29 0.94 M148.74 105.45 C178.21 73.65, 204.65 40.95, 239.28 1.3 M148.74 105.45 C182.98 65.05, 215.96 26.84, 239.28 1.3 M154.38 105.05 C178.23 77.72, 204.79 49.73, 244.92 0.9 M154.38 105.05 C185.8 69.89, 217.41 33.14, 244.92 0.9 M159.37 105.41 C179.82 79.71, 200.23 56.52, 249.91 1.26 M159.37 105.41 C179.67 82.62, 198.3 61.03, 249.91 1.26 M165.01 105.02 C195.11 71.4, 225.11 33.74, 254.89 1.62 M165.01 105.02 C196.24 68.42, 227.42 31.94, 254.89 1.62 M170 105.38 C192.56 78.32, 219.84 49.23, 259.88 1.98 M170 105.38 C203.7 67.74, 236.35 30.09, 259.88 1.98 M175.64 104.98 C194.46 81.84, 214.93 60.24, 263.55 3.85 M175.64 104.98 C193.74 82.5, 214.16 60.09, 263.55 3.85 M180.63 105.34 C201.45 82.11, 220.06 56.36, 267.23 5.72 M180.63 105.34 C200.3 82.6, 219.83 59.28, 267.23 5.72 M186.27 104.95 C217 68.57, 247.77 34.74, 270.25 8.35 M186.27 104.95 C218.48 65.64, 253.24 27.31, 270.25 8.35 M191.26 105.31 C210.87 82.31, 228.45 61.61, 272.61 11.72 M191.26 105.31 C222.45 68.87, 251.96 34.15, 272.61 11.72 M196.9 104.91 C215.57 83.1, 233.88 59.47, 274.32 15.86 M196.9 104.91 C214.8 85.34, 230.76 67.31, 274.32 15.86 M201.89 105.27 C218.04 85.58, 235.29 68.48, 275.37 20.75 M201.89 105.27 C228.69 73.65, 257.13 42.71, 275.37 20.75 M207.53 104.88 C223.59 85.27, 240.53 65.14, 275.76 26.39 M207.53 104.88 C234.09 73.48, 260.38 44.38, 275.76 26.39 M212.52 105.24 C227.69 86.26, 245.51 63.5, 275.5 32.79 M212.52 105.24 C233.18 80.32, 256.37 55.08, 275.5 32.79 M218.16 104.85 C233.58 84.95, 251.2 64.85, 275.9 38.43 M218.16 104.85 C238.38 82.69, 258.17 61.1, 275.9 38.43 M223.15 105.21 C239.7 87.44, 256.52 66.38, 275.63 44.83 M223.15 105.21 C236.68 87.28, 253.1 70.36, 275.63 44.83 M228.79 104.81 C245.09 85.06, 267.39 60.78, 276.03 50.47 M228.79 104.81 C240.18 90.39, 253.21 77.06, 276.03 50.47 M233.78 105.17 C250.74 85.76, 263.99 67.6, 275.77 56.87 M233.78 105.17 C247.48 90.88, 257.92 77.07, 275.77 56.87 M239.42 104.78 C251.98 90.48, 264.54 74.93, 275.51 63.27 M239.42 104.78 C248.93 94.65, 257.97 82.08, 275.51 63.27 M244.41 105.14 C256.06 90.41, 267.88 77.63, 275.9 68.91 M244.41 105.14 C254.14 92.35, 265.38 80.34, 275.9 68.91 M250.05 104.74 C257 98.19, 264.42 89.41, 275.64 75.31 M250.05 104.74 C256.74 98.64, 262.01 90.02, 275.64 75.31 M256.35 103.59 C262.11 96.07, 268.1 90.49, 277.35 79.44 M256.35 103.59 C262.95 97.08, 267.87 89.31, 277.35 79.44 M263.31 101.69 C266.39 95.52, 269.98 91.52, 273.8 89.61 M263.31 101.69 C267.6 97.56, 271.21 93.28, 273.8 89.61" stroke="#a5d8ff" stroke-width="0.5" fill="none"></path><path d="M26.03 0 M26.03 0 C106.19 0.16, 187.07 0.16, 249.17 0 M26.03 0 C101.84 -2.58, 177.64 -1.32, 249.17 0 M249.17 0 C266.31 0.77, 276.02 7.09, 275.2 26.03 M249.17 0 C267.94 0.27, 276.79 6.45, 275.2 26.03 M275.2 26.03 C275.89 44.34, 275.05 63.9, 275.2 78.1 M275.2 26.03 C274.99 36.65, 276 48.57, 275.2 78.1 M275.2 78.1 C276.79 93.88, 267.07 102.39, 249.17 104.13 M275.2 78.1 C275.65 96.25, 266.21 103.31, 249.17 104.13 M249.17 104.13 C173.5 103.13, 96.96 101.25, 26.03 104.13 M249.17 104.13 C200.91 105.68, 151.85 105.61, 26.03 104.13 M26.03 104.13 C9.05 105.86, -1.9 96.95, 0 78.1 M26.03 104.13 C9.9 101.97, -0.79 96.22, 0 78.1 M0 78.1 C0.09 60.3, 1.78 48.13, 0 26.03 M0 78.1 C-0.6 57.87, -0.82 36.99, 0 26.03 M0 26.03 C1.54 7.69, 10.1 0.15, 26.03 0 M0 26.03 C0.9 6.56, 9.04 1.65, 26.03 0" stroke="#1e1e1e" stroke-width="1" fill="none"></path></g><g transform="translate(98.91091004471468 39.565207243085695) rotate(0 48.68999481201173 22.5)"><text x="48.68999481201172" y="0" font-family="Virgil, Segoe UI Emoji" font-size="36px" fill="#1e1e1e" text-anchor="middle" style="white-space: pre;" direction="ltr" dominant-baseline="text-before-edge">Client</text></g><g stroke-linecap="round" transform="translate(13.718943374506097 132.72513135870196) rotate(0 137.6009048567264 52.065207243085695)"><path d="M3.84 9.96 C3.84 9.96, 3.84 9.96, 3.84 9.96 M3.84 9.96 C3.84 9.96, 3.84 9.96, 3.84 9.96 M0.3 20.13 C2.18 15.3, 4.84 14.25, 12.76 5.79 M0.3 20.13 C4.76 13.91, 9.49 8.77, 12.76 5.79 M0.69 25.78 C4.73 21.72, 9.6 15.66, 19.06 4.65 M0.69 25.78 C5.9 21.19, 9.1 14.8, 19.06 4.65 M0.43 32.18 C12.03 19.29, 21.79 7.86, 27.33 1.23 M0.43 32.18 C9.17 21.79, 18.78 10.12, 27.33 1.23 M0.17 38.57 C8.53 28.69, 14.03 23.49, 32.97 0.84 M0.17 38.57 C10.52 26.53, 20.69 14.68, 32.97 0.84 M0.56 44.22 C12.87 28.4, 23.98 13.94, 37.96 1.2 M0.56 44.22 C9.94 34.21, 18.67 24.66, 37.96 1.2 M0.3 50.61 C12.81 35.52, 26.03 19.15, 43.6 0.8 M0.3 50.61 C12.08 37.59, 23.58 24.5, 43.6 0.8 M0.7 56.26 C17.76 35.4, 35.35 14.4, 48.59 1.16 M0.7 56.26 C18.43 35.97, 36.5 14.45, 48.59 1.16 M0.44 62.65 C12.71 49.24, 21.97 35.38, 53.58 1.52 M0.44 62.65 C16.48 43.16, 32.76 24.01, 53.58 1.52 M0.17 69.05 C23.5 41.34, 44.48 16.24, 59.22 1.13 M0.17 69.05 C22.43 44.55, 44.27 18.29, 59.22 1.13 M0.57 74.7 C19.06 52.35, 40.15 29.74, 64.21 1.49 M0.57 74.7 C20.86 51.15, 42.12 26.49, 64.21 1.49 M0.31 81.09 C24.41 52.65, 50.78 22.49, 69.85 1.09 M0.31 81.09 C17.65 62.91, 33.31 43.66, 69.85 1.09 M2.01 85.23 C21.71 61.65, 39.84 41.45, 74.84 1.45 M2.01 85.23 C26.08 58.36, 50.93 29.8, 74.84 1.45 M3.07 90.12 C22.71 67.34, 44.09 45.57, 80.48 1.06 M3.07 90.12 C21.95 68.9, 40.28 48.13, 80.48 1.06 M4.12 95 C25.08 73, 44.84 47.02, 85.47 1.42 M4.12 95 C33.36 61.39, 63.08 28.64, 85.47 1.42 M7.13 97.63 C34.24 66.76, 57.16 40.34, 91.11 1.03 M7.13 97.63 C32.53 68.7, 58.46 39.94, 91.11 1.03 M10.15 100.25 C38.22 67.42, 62.07 38.05, 96.1 1.39 M10.15 100.25 C28.4 78.37, 46.35 59.13, 96.1 1.39 M13.83 102.12 C43.82 69.89, 68.21 39.65, 101.74 0.99 M13.83 102.12 C48.75 63.34, 82.5 24.5, 101.74 0.99 M16.85 104.75 C48.88 66.54, 81.68 28.06, 106.73 1.35 M16.85 104.75 C46.64 71.69, 76.25 37.23, 106.73 1.35 M21.83 105.11 C41.53 82.17, 58.59 64.24, 112.37 0.96 M21.83 105.11 C44.07 76.52, 69.84 49.94, 112.37 0.96 M26.82 105.47 C46.31 81.7, 66.96 58.1, 117.36 1.32 M26.82 105.47 C53.8 72.8, 82.67 41.12, 117.36 1.32 M32.46 105.07 C58.78 77.35, 82.11 50.87, 123 0.92 M32.46 105.07 C51.41 82.98, 70.18 62.16, 123 0.92 M37.45 105.43 C69.91 64.83, 107.67 28.52, 127.99 1.28 M37.45 105.43 C69.05 68.66, 101.9 30.98, 127.99 1.28 M43.09 105.04 C65.06 78.8, 90.2 53.23, 133.63 0.89 M43.09 105.04 C66.27 78.04, 90.52 49.45, 133.63 0.89 M48.08 105.4 C66.62 81.58, 85 60.12, 138.62 1.25 M48.08 105.4 C69.6 82.7, 90.22 57.65, 138.62 1.25 M53.72 105 C82.72 68.8, 114.01 36, 144.26 0.85 M53.72 105 C89.81 64.64, 126.26 24.58, 144.26 0.85 M58.71 105.36 C91.56 66.78, 120.71 33.74, 149.25 1.21 M58.71 105.36 C90.65 67.89, 123.36 31.46, 149.25 1.21 M64.35 104.97 C94.83 67.83, 125.64 34.08, 154.89 0.82 M64.35 104.97 C93.52 70.3, 123.81 37.04, 154.89 0.82 M69.34 105.33 C103.98 66.68, 137.06 27.81, 159.88 1.18 M69.34 105.33 C93.34 76.48, 118.78 47.83, 159.88 1.18 M74.98 104.93 C101.09 73.64, 127.23 47.83, 164.86 1.54 M74.98 104.93 C101 73.35, 127.57 44.63, 164.86 1.54 M79.97 105.29 C104.36 79.48, 129.73 50.61, 170.51 1.14 M79.97 105.29 C114.55 67.41, 149.47 27.63, 170.51 1.14 M85.61 104.9 C108.92 76.2, 133.67 51.56, 175.49 1.5 M85.61 104.9 C115.09 72.05, 144.39 38.53, 175.49 1.5 M90.6 105.26 C122.16 68.22, 154.52 27.61, 181.14 1.11 M90.6 105.26 C126.97 63.37, 162.15 22.52, 181.14 1.11 M96.24 104.86 C131.81 64.54, 164.74 28.17, 186.12 1.47 M96.24 104.86 C127.73 71.15, 159.48 34.78, 186.12 1.47 M101.23 105.22 C121.36 82.66, 141.26 57.9, 191.77 1.07 M101.23 105.22 C128.86 73.47, 156.54 41.87, 191.77 1.07 M106.87 104.83 C140.36 65.38, 178.01 25.78, 196.76 1.43 M106.87 104.83 C129.95 78.29, 152.13 53.37, 196.76 1.43 M111.86 105.19 C143.3 65.52, 178.63 27.36, 202.4 1.04 M111.86 105.19 C132.81 82.89, 153.06 58.78, 202.4 1.04 M117.51 104.8 C140.12 80.78, 159.47 55.99, 207.39 1.4 M117.51 104.8 C138.47 78.95, 161.06 52.38, 207.39 1.4 M122.49 105.16 C147.64 74.66, 175.06 44.79, 213.03 1.01 M122.49 105.16 C152.71 71.18, 180.77 38.83, 213.03 1.01 M128.14 104.76 C159.39 68.46, 190.21 31.11, 218.02 1.37 M128.14 104.76 C159 71.23, 188.84 36.55, 218.02 1.37 M133.12 105.12 C157.33 77.74, 181.58 47.41, 223.66 0.97 M133.12 105.12 C158.53 75.69, 184.82 43.61, 223.66 0.97 M138.77 104.73 C171.51 68.48, 203.94 29.28, 228.65 1.33 M138.77 104.73 C174.87 62.84, 209.45 21.85, 228.65 1.33 M143.75 105.09 C180.12 62.61, 215.93 25.1, 234.29 0.94 M143.75 105.09 C167.75 76.32, 193.46 47.67, 234.29 0.94 M148.74 105.45 C180.14 69.44, 213.32 30, 239.28 1.3 M148.74 105.45 C175.78 72.74, 204.25 42.56, 239.28 1.3 M154.38 105.05 C178.25 73.73, 205.02 43.94, 244.92 0.9 M154.38 105.05 C188.15 65.45, 221.47 26.58, 244.92 0.9 M159.37 105.41 C179.04 81.09, 201.79 56.28, 249.91 1.26 M159.37 105.41 C180.69 81.22, 202.94 57.36, 249.91 1.26 M165.01 105.02 C183.38 84.2, 203.33 59.98, 254.89 1.62 M165.01 105.02 C192.42 73.56, 219.44 44.01, 254.89 1.62 M170 105.38 C197.62 71.56, 229.65 37.65, 259.88 1.98 M170 105.38 C201.67 69.29, 231.77 34.27, 259.88 1.98 M175.64 104.98 C209.17 69.1, 241.85 29.66, 263.55 3.85 M175.64 104.98 C205.65 71.26, 234.88 37.88, 263.55 3.85 M180.63 105.34 C198.31 86.39, 217.07 65.37, 267.23 5.72 M180.63 105.34 C206.76 75.38, 231.9 44.73, 267.23 5.72 M186.27 104.95 C216.73 70.15, 249.21 33.52, 270.25 8.35 M186.27 104.95 C219.89 69.05, 251.14 30.01, 270.25 8.35 M191.26 105.31 C213.95 78.86, 238.81 54.33, 272.61 11.72 M191.26 105.31 C219.09 72.11, 246.97 40.89, 272.61 11.72 M196.9 104.91 C212.1 84.55, 228.23 69.51, 274.32 15.86 M196.9 104.91 C221.15 76.47, 245.35 48.02, 274.32 15.86 M201.89 105.27 C232.13 71.93, 257.46 40.45, 275.37 20.75 M201.89 105.27 C216.38 88.2, 231.56 71.17, 275.37 20.75 M207.53 104.88 C220.96 87.98, 235.89 70.45, 275.76 26.39 M207.53 104.88 C222.45 88.04, 236.86 69.99, 275.76 26.39 M212.52 105.24 C227.18 89.34, 236.81 74.34, 275.5 32.79 M212.52 105.24 C226.65 89.2, 241.18 73.06, 275.5 32.79 M218.16 104.85 C240.52 78.72, 260.36 58.36, 275.9 38.43 M218.16 104.85 C236.04 82.25, 255.63 61.79, 275.9 38.43 M223.15 105.21 C235.05 92.55, 246.56 79.72, 275.63 44.83 M223.15 105.21 C235.12 91.91, 246.68 79.13, 275.63 44.83 M228.79 104.81 C244.57 84.87, 265.73 62.55, 276.03 50.47 M228.79 104.81 C245.17 86.92, 261.22 67.45, 276.03 50.47 M233.78 105.17 C250.71 84.88, 265.91 66.09, 275.77 56.87 M233.78 105.17 C242.74 94.79, 252.71 85.29, 275.77 56.87 M239.42 104.78 C251.7 89.31, 267.83 72.9, 275.51 63.27 M239.42 104.78 C247.82 93.62, 258.84 82.12, 275.51 63.27 M244.41 105.14 C253.78 96.6, 260.26 86.08, 275.9 68.91 M244.41 105.14 C253.13 94.41, 264.35 81.52, 275.9 68.91 M250.05 104.74 C255.7 95.36, 263.37 87.13, 275.64 75.31 M250.05 104.74 C259.5 93.92, 268.46 82.78, 275.64 75.31 M256.35 103.59 C260.02 99.47, 265.85 93.44, 277.35 79.44 M256.35 103.59 C261.41 98.69, 264.56 92.67, 277.35 79.44 M263.31 101.69 C268 96.89, 270.1 93.42, 273.8 89.61 M263.31 101.69 C266.62 98.15, 269.42 94.35, 273.8 89.61" stroke="#a5d8ff" stroke-width="0.5" fill="none"></path><path d="M26.03 0 M26.03 0 C102.51 1.5, 174.7 2.67, 249.17 0 M26.03 0 C94.12 1.61, 161.43 1.07, 249.17 0 M249.17 0 C267.89 -0.88, 276.3 8.36, 275.2 26.03 M249.17 0 C264.77 1.23, 274.49 7.07, 275.2 26.03 M275.2 26.03 C275.09 43.69, 274.87 57.67, 275.2 78.1 M275.2 26.03 C275.02 36.47, 275.77 49.16, 275.2 78.1 M275.2 78.1 C275.94 96.41, 265.07 103.36, 249.17 104.13 M275.2 78.1 C275.89 95.46, 266.36 104.7, 249.17 104.13 M249.17 104.13 C168.26 106.06, 83.93 105.16, 26.03 104.13 M249.17 104.13 C182.77 105.71, 117.22 106.02, 26.03 104.13 M26.03 104.13 C9.95 104.73, 0.79 93.79, 0 78.1 M26.03 104.13 C9.75 104.28, 1.06 96.5, 0 78.1 M0 78.1 C-0.29 64.05, 1.58 47.61, 0 26.03 M0 78.1 C0.16 60.89, -0.41 44.08, 0 26.03 M0 26.03 C-1.44 8.49, 8.94 1.13, 26.03 0 M0 26.03 C2.07 8.55, 10.81 -1.69, 26.03 0" stroke="#1e1e1e" stroke-width="1" fill="none"></path></g><g transform="translate(102.62985341922078 162.29033860178765) rotate(0 48.68999481201172 22.5)"><text x="48.68999481201172" y="0" font-family="Virgil, Segoe UI Emoji" font-size="36px" fill="#1e1e1e" text-anchor="middle" style="white-space: pre;" direction="ltr" dominant-baseline="text-before-edge">Client</text></g><g stroke-linecap="round" transform="translate(13.718943374506182 251.7313193428978) rotate(0 137.6009048567264 52.065207243085695)"><path d="M3.84 9.96 C3.84 9.96, 3.84 9.96, 3.84 9.96 M3.84 9.96 C3.84 9.96, 3.84 9.96, 3.84 9.96 M0.3 20.13 C5.12 16.77, 7.32 9.42, 12.76 5.79 M0.3 20.13 C2.77 17.19, 6.86 12.86, 12.76 5.79 M0.69 25.78 C4.84 18.25, 11.84 14.09, 19.06 4.65 M0.69 25.78 C6.81 18.85, 14.19 11.89, 19.06 4.65 M0.43 32.18 C8.49 25.5, 16.3 15.63, 27.33 1.23 M0.43 32.18 C9.69 22.58, 18.68 11.55, 27.33 1.23 M0.17 38.57 C9.97 25.94, 22.24 11.27, 32.97 0.84 M0.17 38.57 C8.48 28.66, 18.24 17.69, 32.97 0.84 M0.56 44.22 C9.76 34.52, 20.3 21.32, 37.96 1.2 M0.56 44.22 C9.51 32.79, 18.28 23.71, 37.96 1.2 M0.3 50.61 C16.03 30.01, 34.58 10.25, 43.6 0.8 M0.3 50.61 C14.79 35.37, 27.03 20.27, 43.6 0.8 M0.7 56.26 C11.92 40.59, 26.22 28.03, 48.59 1.16 M0.7 56.26 C16.42 37.79, 30.55 20.25, 48.59 1.16 M0.44 62.65 C16.98 44.05, 31.31 26.61, 53.58 1.52 M0.44 62.65 C16.65 43.28, 33.76 23.58, 53.58 1.52 M0.17 69.05 C16.58 49.96, 30.66 32.28, 59.22 1.13 M0.17 69.05 C22.21 45.08, 42.7 21.48, 59.22 1.13 M0.57 74.7 C20.48 53.38, 37.69 31.46, 64.21 1.49 M0.57 74.7 C24.77 47.17, 48.83 21.5, 64.21 1.49 M0.31 81.09 C27.36 52.06, 49.74 23.52, 69.85 1.09 M0.31 81.09 C27.63 51.96, 53.23 20.41, 69.85 1.09 M2.01 85.23 C30.19 53.74, 57.91 20.96, 74.84 1.45 M2.01 85.23 C21.17 63.06, 42.46 39.14, 74.84 1.45 M3.07 90.12 C32.76 54.7, 58.46 21.94, 80.48 1.06 M3.07 90.12 C27.38 64.6, 49.8 38.99, 80.48 1.06 M4.12 95 C21.87 73.95, 39.62 57.44, 85.47 1.42 M4.12 95 C27.27 68.68, 50.27 42.77, 85.47 1.42 M7.13 97.63 C28.17 72.95, 47.01 50.13, 91.11 1.03 M7.13 97.63 C39.62 59.74, 70.72 23.72, 91.11 1.03 M10.15 100.25 C37.46 71.29, 63.58 38.23, 96.1 1.39 M10.15 100.25 C29.9 78.86, 47.82 58.22, 96.1 1.39 M13.83 102.12 C37.59 71.56, 63.77 41.82, 101.74 0.99 M13.83 102.12 C34.93 78.19, 55.43 55.1, 101.74 0.99 M16.85 104.75 C42.23 72.59, 69.02 46.19, 106.73 1.35 M16.85 104.75 C44.19 72.76, 71.73 41.21, 106.73 1.35 M21.83 105.11 C47.98 75.07, 75.76 41.21, 112.37 0.96 M21.83 105.11 C43.73 82.7, 63.14 57.55, 112.37 0.96 M26.82 105.47 C53.73 76.11, 77.65 47.21, 117.36 1.32 M26.82 105.47 C59.53 71.13, 89.5 34.64, 117.36 1.32 M32.46 105.07 C57.11 78.36, 79.28 50.22, 123 0.92 M32.46 105.07 C54.82 81.29, 75.5 57.28, 123 0.92 M37.45 105.43 C59.54 81.2, 81.67 53.7, 127.99 1.28 M37.45 105.43 C69.7 67.61, 102.58 31.39, 127.99 1.28 M43.09 105.04 C64.82 79.3, 86.65 54.53, 133.63 0.89 M43.09 105.04 C74.04 71.07, 102.01 38.2, 133.63 0.89 M48.08 105.4 C73.58 77.96, 96.02 50.68, 138.62 1.25 M48.08 105.4 C76.53 71.95, 104.52 37.24, 138.62 1.25 M53.72 105 C78.01 74.07, 103.91 43.79, 144.26 0.85 M53.72 105 C76.83 80.99, 96.81 55.25, 144.26 0.85 M58.71 105.36 C82.92 80.17, 106.47 51.52, 149.25 1.21 M58.71 105.36 C79.71 81.6, 101.88 55.96, 149.25 1.21 M64.35 104.97 C92.29 74.04, 120.22 38.02, 154.89 0.82 M64.35 104.97 C95.77 71.42, 124.29 35.66, 154.89 0.82 M69.34 105.33 C95.73 71.7, 124.91 40.82, 159.88 1.18 M69.34 105.33 C95.14 76.23, 119.78 47.24, 159.88 1.18 M74.98 104.93 C97.82 81.38, 118.57 53.06, 164.86 1.54 M74.98 104.93 C96.62 78.88, 117.28 55.18, 164.86 1.54 M79.97 105.29 C106.95 78.06, 131.85 49.27, 170.51 1.14 M79.97 105.29 C102 78.81, 123.73 53.86, 170.51 1.14 M85.61 104.9 C110.49 75.27, 134.75 46.71, 175.49 1.5 M85.61 104.9 C120.88 63.13, 157.93 22.38, 175.49 1.5 M90.6 105.26 C108.28 83.61, 129.59 63.52, 181.14 1.11 M90.6 105.26 C113.7 78.98, 135.98 52.1, 181.14 1.11 M96.24 104.86 C132.38 66.51, 167.58 26.64, 186.12 1.47 M96.24 104.86 C125.08 71.63, 154.64 36.71, 186.12 1.47 M101.23 105.22 C134.56 66.89, 165.67 31.2, 191.77 1.07 M101.23 105.22 C127.13 73.75, 155.43 42.58, 191.77 1.07 M106.87 104.83 C124.47 83.62, 147.48 57.77, 196.76 1.43 M106.87 104.83 C136.78 70.02, 167.75 34.16, 196.76 1.43 M111.86 105.19 C139.24 75.44, 166.8 41.42, 202.4 1.04 M111.86 105.19 C141.37 72.51, 169.46 40.77, 202.4 1.04 M117.51 104.8 C140.9 80.88, 161.37 52.83, 207.39 1.4 M117.51 104.8 C139.36 78.69, 163.24 52.46, 207.39 1.4 M122.49 105.16 C150.75 74.48, 177 46.04, 213.03 1.01 M122.49 105.16 C144.65 80.6, 167.91 54.26, 213.03 1.01 M128.14 104.76 C160.51 64.95, 195.4 29.44, 218.02 1.37 M128.14 104.76 C150.97 76.45, 174.66 49.68, 218.02 1.37 M133.12 105.12 C156.39 78, 175.92 52.55, 223.66 0.97 M133.12 105.12 C151.76 83.27, 171.56 60.18, 223.66 0.97 M138.77 104.73 C168.99 73.46, 196.08 41.59, 228.65 1.33 M138.77 104.73 C161.52 77.94, 185.15 50.11, 228.65 1.33 M143.75 105.09 C178.53 69.15, 212.41 28.33, 234.29 0.94 M143.75 105.09 C176.8 65.94, 209.81 25.99, 234.29 0.94 M148.74 105.45 C172.5 78, 194.89 54.19, 239.28 1.3 M148.74 105.45 C177.32 71.19, 207.18 37.77, 239.28 1.3 M154.38 105.05 C187.96 67.62, 222.41 24.95, 244.92 0.9 M154.38 105.05 C173.75 84.47, 191.91 60.58, 244.92 0.9 M159.37 105.41 C191.55 66.65, 224.74 25.82, 249.91 1.26 M159.37 105.41 C181.84 81.06, 201.61 56.64, 249.91 1.26 M165.01 105.02 C186.59 79.46, 206.92 59.3, 254.89 1.62 M165.01 105.02 C190.36 77.75, 214.51 49.99, 254.89 1.62 M170 105.38 C199.79 72.34, 230.2 36.46, 259.88 1.98 M170 105.38 C203.81 67.21, 235.85 30.03, 259.88 1.98 M175.64 104.98 C195.13 82.11, 212.9 59.92, 263.55 3.85 M175.64 104.98 C194.13 83.51, 214.04 62.84, 263.55 3.85 M180.63 105.34 C211.63 65.78, 245.54 31.01, 267.23 5.72 M180.63 105.34 C213.44 67.68, 245.58 30.64, 267.23 5.72 M186.27 104.95 C206.93 82.41, 227.48 58.31, 270.25 8.35 M186.27 104.95 C219.18 69.34, 249.93 32.62, 270.25 8.35 M191.26 105.31 C210.83 83.8, 227.22 66.39, 272.61 11.72 M191.26 105.31 C217.55 74.34, 243.61 44.86, 272.61 11.72 M196.9 104.91 C226.91 72.55, 257.06 37.92, 274.32 15.86 M196.9 104.91 C211.97 86.87, 228.18 67.64, 274.32 15.86 M201.89 105.27 C226.42 75.85, 254.55 44.79, 275.37 20.75 M201.89 105.27 C226.55 75.73, 252.24 46.93, 275.37 20.75 M207.53 104.88 C228.33 83.1, 245.89 59.3, 275.76 26.39 M207.53 104.88 C221.77 87.57, 236.83 71.66, 275.76 26.39 M212.52 105.24 C224.17 89.09, 236.35 74.6, 275.5 32.79 M212.52 105.24 C235.13 78.2, 259.67 51.95, 275.5 32.79 M218.16 104.85 C227.63 90.23, 242.02 77.37, 275.9 38.43 M218.16 104.85 C231.98 89.22, 248.09 73, 275.9 38.43 M223.15 105.21 C239.87 85.27, 255.56 69.67, 275.63 44.83 M223.15 105.21 C236.27 89.11, 249.2 75.6, 275.63 44.83 M228.79 104.81 C244.79 84.8, 263.16 64.67, 276.03 50.47 M228.79 104.81 C247.17 83.05, 265.86 62.4, 276.03 50.47 M233.78 105.17 C246.72 89.52, 262.4 70.76, 275.77 56.87 M233.78 105.17 C250.97 86.38, 266.87 66.77, 275.77 56.87 M239.42 104.78 C252.81 90.39, 265.27 74.59, 275.51 63.27 M239.42 104.78 C249.68 92.09, 260.34 81.01, 275.51 63.27 M244.41 105.14 C254.24 92.63, 263.03 80.76, 275.9 68.91 M244.41 105.14 C255.23 94.57, 264.87 82.73, 275.9 68.91 M250.05 104.74 C255.99 97.83, 262.3 92.62, 275.64 75.31 M250.05 104.74 C260.59 92.29, 270.05 81.6, 275.64 75.31 M256.35 103.59 C264.52 94.45, 273.34 86.37, 277.35 79.44 M256.35 103.59 C263.65 95.86, 270.58 88.27, 277.35 79.44 M263.31 101.69 C266.15 98.73, 270.59 93.86, 273.8 89.61 M263.31 101.69 C266.66 97.54, 269.63 93.75, 273.8 89.61" stroke="#a5d8ff" stroke-width="0.5" fill="none"></path><path d="M26.03 0 M26.03 0 C77.83 1.3, 127.58 1.35, 249.17 0 M26.03 0 C76.92 0.31, 126.96 0.27, 249.17 0 M249.17 0 C266.8 -0.79, 273.31 9.41, 275.2 26.03 M249.17 0 C265.52 1.46, 275.92 9.84, 275.2 26.03 M275.2 26.03 C277.26 47.07, 274.55 65.63, 275.2 78.1 M275.2 26.03 C275.22 38.97, 276.04 51.57, 275.2 78.1 M275.2 78.1 C273.62 94.41, 265.89 104.2, 249.17 104.13 M275.2 78.1 C275.08 94.1, 265.22 102.75, 249.17 104.13 M249.17 104.13 C195.78 102.73, 143.64 103.19, 26.03 104.13 M249.17 104.13 C183.95 104.7, 118.34 105.91, 26.03 104.13 M26.03 104.13 C9.14 105.21, 1.42 95.96, 0 78.1 M26.03 104.13 C8.26 104.81, -1.45 95.6, 0 78.1 M0 78.1 C0.06 56.99, -1.78 40.86, 0 26.03 M0 78.1 C0.82 67.65, -0.1 57.38, 0 26.03 M0 26.03 C0.41 10.33, 10.3 -1.99, 26.03 0 M0 26.03 C0.12 6.8, 10.34 -1.72, 26.03 0" stroke="#1e1e1e" stroke-width="1" fill="none"></path></g><g transform="translate(102.62985341922086 281.2965265859835) rotate(0 48.689994812011705 22.5)"><text x="48.68999481201172" y="0" font-family="Virgil, Segoe UI Emoji" font-size="36px" fill="#1e1e1e" text-anchor="middle" style="white-space: pre;" direction="ltr" dominant-baseline="text-before-edge">Client</text></g><g stroke-linecap="round" transform="translate(17.437886749012222 371.97715511859553) rotate(0 137.6009048567264 52.065207243085695)"><path d="M3.84 9.96 C3.84 9.96, 3.84 9.96, 3.84 9.96 M3.84 9.96 C3.84 9.96, 3.84 9.96, 3.84 9.96 M0.3 20.13 C4.52 17.55, 8.84 11.01, 12.76 5.79 M0.3 20.13 C5.09 16.1, 8.35 11.59, 12.76 5.79 M0.69 25.78 C6.57 20.54, 9.79 16.42, 19.06 4.65 M0.69 25.78 C7.44 18.27, 13.18 9.92, 19.06 4.65 M0.43 32.18 C7.94 25.15, 13.14 15.24, 27.33 1.23 M0.43 32.18 C9.99 22.35, 17.77 11.36, 27.33 1.23 M0.17 38.57 C9.3 24.9, 23.12 16.17, 32.97 0.84 M0.17 38.57 C11.28 25.47, 22.95 11.9, 32.97 0.84 M0.56 44.22 C10.01 32.09, 19.99 23.23, 37.96 1.2 M0.56 44.22 C14.66 27.75, 30.47 10.26, 37.96 1.2 M0.3 50.61 C12.42 33.83, 25.93 18.48, 43.6 0.8 M0.3 50.61 C11.8 36.72, 23.78 23.58, 43.6 0.8 M0.7 56.26 C18.78 35.15, 36.21 16.91, 48.59 1.16 M0.7 56.26 C14.21 39.19, 28.64 24.62, 48.59 1.16 M0.44 62.65 C12.23 48.76, 25.06 35.85, 53.58 1.52 M0.44 62.65 C19.87 39.89, 39.17 17.64, 53.58 1.52 M0.17 69.05 C10.91 56, 25.85 42.81, 59.22 1.13 M0.17 69.05 C13.26 52.59, 26.81 38.74, 59.22 1.13 M0.57 74.7 C21.52 52.3, 38.17 33, 64.21 1.49 M0.57 74.7 C19.79 52.58, 38.64 30.29, 64.21 1.49 M0.31 81.09 C20.56 61.05, 37.42 38.36, 69.85 1.09 M0.31 81.09 C24.14 50.86, 49.45 22.96, 69.85 1.09 M2.01 85.23 C17.33 68.73, 33.14 47.68, 74.84 1.45 M2.01 85.23 C15.8 68.49, 32.18 50.14, 74.84 1.45 M3.07 90.12 C28.37 61.59, 54.64 31.19, 80.48 1.06 M3.07 90.12 C25.03 63.17, 48.15 38.37, 80.48 1.06 M4.12 95 C26.57 65.93, 52.48 37.85, 85.47 1.42 M4.12 95 C23.11 73.82, 40.08 52.04, 85.47 1.42 M7.13 97.63 C24.44 77.6, 42.52 57.34, 91.11 1.03 M7.13 97.63 C37.04 62.23, 67.82 25.56, 91.11 1.03 M10.15 100.25 C35.32 71.4, 62.05 39.66, 96.1 1.39 M10.15 100.25 C41.7 63.08, 76.15 25.48, 96.1 1.39 M13.83 102.12 C32.64 78.73, 52.43 56.6, 101.74 0.99 M13.83 102.12 C47.75 64.36, 79.53 25.29, 101.74 0.99 M16.85 104.75 C38.28 80.74, 54.53 59.98, 106.73 1.35 M16.85 104.75 C42.32 74.14, 68.54 45.11, 106.73 1.35 M21.83 105.11 C44.54 80.31, 63.56 55.84, 112.37 0.96 M21.83 105.11 C43.71 79.46, 64.94 54.82, 112.37 0.96 M26.82 105.47 C48.43 80.67, 70.12 57.11, 117.36 1.32 M26.82 105.47 C50.87 78.08, 73.61 51.08, 117.36 1.32 M32.46 105.07 C56.56 76.91, 83.62 46.75, 123 0.92 M32.46 105.07 C61.56 71.14, 91.25 37.57, 123 0.92 M37.45 105.43 C56.1 82.05, 76.57 59.34, 127.99 1.28 M37.45 105.43 C56.27 83.13, 75.1 61.31, 127.99 1.28 M43.09 105.04 C77.37 64.34, 108.46 27.07, 133.63 0.89 M43.09 105.04 C73.42 68.76, 104.64 32.02, 133.63 0.89 M48.08 105.4 C69.95 79.51, 88.68 55.61, 138.62 1.25 M48.08 105.4 C78.36 72.02, 106.62 37.45, 138.62 1.25 M53.72 105 C88.36 67.57, 119.98 32.76, 144.26 0.85 M53.72 105 C78.64 77.15, 100.94 50.54, 144.26 0.85 M58.71 105.36 C79.7 80.81, 96.56 59.38, 149.25 1.21 M58.71 105.36 C91.98 66.12, 127.18 24.97, 149.25 1.21 M64.35 104.97 C99.77 63.35, 136.04 23.95, 154.89 0.82 M64.35 104.97 C98.82 66.02, 130.71 27.18, 154.89 0.82 M69.34 105.33 C94.15 72.95, 122.97 43.31, 159.88 1.18 M69.34 105.33 C96.1 75.84, 121.77 45.3, 159.88 1.18 M74.98 104.93 C96.54 76.94, 120.77 50.66, 164.86 1.54 M74.98 104.93 C110.43 63.66, 146.12 23.54, 164.86 1.54 M79.97 105.29 C102.95 79.34, 127.77 48.48, 170.51 1.14 M79.97 105.29 C106.32 76.74, 132.98 46.61, 170.51 1.14 M85.61 104.9 C115.32 70.24, 143.74 38.57, 175.49 1.5 M85.61 104.9 C107.18 81.42, 127.85 56.9, 175.49 1.5 M90.6 105.26 C120.61 71.95, 147.36 39.69, 181.14 1.11 M90.6 105.26 C122.03 67.81, 154.89 31.14, 181.14 1.11 M96.24 104.86 C126.74 70.69, 157.75 33.39, 186.12 1.47 M96.24 104.86 C133.25 65.33, 167.45 24.26, 186.12 1.47 M101.23 105.22 C132.4 70.78, 161.19 37.78, 191.77 1.07 M101.23 105.22 C125.46 79.09, 147.04 54.26, 191.77 1.07 M106.87 104.83 C124.63 84.44, 143.98 60.54, 196.76 1.43 M106.87 104.83 C139.38 67.66, 169.74 30.42, 196.76 1.43 M111.86 105.19 C142.68 71.43, 173.33 35.17, 202.4 1.04 M111.86 105.19 C130.56 82.93, 150.8 58.93, 202.4 1.04 M117.51 104.8 C141.67 80.68, 162.37 54.73, 207.39 1.4 M117.51 104.8 C135.64 83.62, 156.04 61.26, 207.39 1.4 M122.49 105.16 C146.43 74.87, 172.89 44.84, 213.03 1.01 M122.49 105.16 C148.36 72.95, 175.26 41.5, 213.03 1.01 M128.14 104.76 C159.41 69.64, 188.72 34.99, 218.02 1.37 M128.14 104.76 C148.35 81.65, 168.24 57.66, 218.02 1.37 M133.12 105.12 C159.81 75.48, 183.67 45.17, 223.66 0.97 M133.12 105.12 C155.27 81.8, 174.55 57.92, 223.66 0.97 M138.77 104.73 C172.24 64.54, 203.65 27, 228.65 1.33 M138.77 104.73 C163.15 76.34, 188.88 48.17, 228.65 1.33 M143.75 105.09 C175.68 69.03, 208.58 31.09, 234.29 0.94 M143.75 105.09 C174.77 70.83, 202.99 35.67, 234.29 0.94 M148.74 105.45 C185.21 65.27, 215.6 28.03, 239.28 1.3 M148.74 105.45 C185.53 63.37, 220.87 21.9, 239.28 1.3 M154.38 105.05 C179.67 74.36, 204.67 46.24, 244.92 0.9 M154.38 105.05 C173.96 81.74, 195.91 58.77, 244.92 0.9 M159.37 105.41 C179.07 84.33, 197.83 61.26, 249.91 1.26 M159.37 105.41 C185.45 76.49, 210.09 48.55, 249.91 1.26 M165.01 105.02 C190.35 73.41, 218.39 42.32, 254.89 1.62 M165.01 105.02 C192.81 72.31, 220.56 39.58, 254.89 1.62 M170 105.38 C194.62 78.42, 221.49 48.92, 259.88 1.98 M170 105.38 C198.02 72.34, 228.61 39.48, 259.88 1.98 M175.64 104.98 C198.92 75.94, 224.15 49.2, 263.55 3.85 M175.64 104.98 C202.76 74.45, 229.09 44.75, 263.55 3.85 M180.63 105.34 C199.22 84.84, 215.47 61.11, 267.23 5.72 M180.63 105.34 C197.72 84.67, 216.65 64.72, 267.23 5.72 M186.27 104.95 C213.23 72.54, 243.04 39.77, 270.25 8.35 M186.27 104.95 C210.42 77.9, 233.87 48.39, 270.25 8.35 M191.26 105.31 C220.62 72.78, 247.34 39.76, 272.61 11.72 M191.26 105.31 C216.79 76.74, 241.9 48.15, 272.61 11.72 M196.9 104.91 C212.25 85.6, 229.1 66.21, 274.32 15.86 M196.9 104.91 C216.32 81.51, 235.24 59.07, 274.32 15.86 M201.89 105.27 C224.34 79.16, 249.4 49.44, 275.37 20.75 M201.89 105.27 C222.74 79.7, 244.68 56.11, 275.37 20.75 M207.53 104.88 C228.26 82.05, 250.48 56, 275.76 26.39 M207.53 104.88 C232.34 76.44, 258.29 46.17, 275.76 26.39 M212.52 105.24 C228.1 91.44, 242.52 73.82, 275.5 32.79 M212.52 105.24 C233.99 79.98, 257.38 54.25, 275.5 32.79 M218.16 104.85 C237.71 80.28, 262.41 56.75, 275.9 38.43 M218.16 104.85 C237.38 83.2, 256.32 62.73, 275.9 38.43 M223.15 105.21 C234.46 90.73, 247.88 78.95, 275.63 44.83 M223.15 105.21 C238.53 88.25, 252.43 71.65, 275.63 44.83 M228.79 104.81 C242.8 88.62, 255.36 74.66, 276.03 50.47 M228.79 104.81 C246.7 84.16, 264.1 64.26, 276.03 50.47 M233.78 105.17 C241.52 94.69, 252.34 84.14, 275.77 56.87 M233.78 105.17 C245.45 90.2, 257.69 77.05, 275.77 56.87 M239.42 104.78 C252.15 92.71, 262.47 77.99, 275.51 63.27 M239.42 104.78 C248.66 94.17, 258.84 83.96, 275.51 63.27 M244.41 105.14 C253.24 92.94, 265.5 82.02, 275.9 68.91 M244.41 105.14 C256.45 91.97, 268.91 78.15, 275.9 68.91 M250.05 104.74 C259.12 95.54, 268.59 84.23, 275.64 75.31 M250.05 104.74 C259.13 95.5, 267.03 84.71, 275.64 75.31 M256.35 103.59 C260.71 96.5, 265.95 90.97, 277.35 79.44 M256.35 103.59 C263.32 96.4, 269.46 88.69, 277.35 79.44 M263.31 101.69 C267.58 97.56, 270.81 94.27, 273.8 89.61 M263.31 101.69 C265.81 99.01, 269.14 95.76, 273.8 89.61" stroke="#a5d8ff" stroke-width="0.5" fill="none"></path><path d="M26.03 0 M26.03 0 C115.16 -0.2, 200.42 -1.82, 249.17 0 M26.03 0 C78.39 -0.06, 131.7 0.22, 249.17 0 M249.17 0 C264.95 -1.04, 274.56 8.75, 275.2 26.03 M249.17 0 C266.4 -1.35, 273.9 7.3, 275.2 26.03 M275.2 26.03 C274.08 36.63, 274.42 49.39, 275.2 78.1 M275.2 26.03 C276.09 40.48, 276.25 57.23, 275.2 78.1 M275.2 78.1 C275.67 96.53, 267.94 104.64, 249.17 104.13 M275.2 78.1 C274.78 96.14, 265.07 104.27, 249.17 104.13 M249.17 104.13 C165.91 101.07, 81.08 103.9, 26.03 104.13 M249.17 104.13 C204.65 102.75, 159.02 102.92, 26.03 104.13 M26.03 104.13 C9.09 105.78, 1.62 93.46, 0 78.1 M26.03 104.13 C8.8 102.25, 1.66 93.74, 0 78.1 M0 78.1 C0.02 61.25, -1.68 48.1, 0 26.03 M0 78.1 C0.31 59.63, 0.32 41.74, 0 26.03 M0 26.03 C1.47 10.66, 8.88 -0.93, 26.03 0 M0 26.03 C1.87 10.68, 9.21 -1.58, 26.03 0" stroke="#1e1e1e" stroke-width="1" fill="none"></path></g><g transform="translate(106.3487967937269 401.5423623616812) rotate(0 48.68999481201172 22.5)"><text x="48.68999481201172" y="0" font-family="Virgil, Segoe UI Emoji" font-size="36px" fill="#1e1e1e" text-anchor="middle" style="white-space: pre;" direction="ltr" dominant-baseline="text-before-edge">Client</text></g><g stroke-linecap="round"><g transform="translate(295.1189920454691 52.14802491106934) rotate(0 86.00804815964588 108.05698114359056)"><path d="M0.01 -0.18 C28.87 35.76, 144.5 180.02, 173.47 215.83 M-1.45 -1.32 C27.22 34.81, 143.37 181.31, 172.47 217.44" stroke="#1e1e1e" stroke-width="1" fill="none"></path></g><g transform="translate(295.1189920454691 52.14802491106934) rotate(0 86.00804815964588 108.05698114359056)"><path d="M25.35 15.24 C17.51 10.75, 7.21 6.22, 1.92 -0.33 M24.75 15.26 C18.89 10.52, 11.14 5.9, 0.21 0.54" stroke="#1e1e1e" stroke-width="1" fill="none"></path></g><g transform="translate(295.1189920454691 52.14802491106934) rotate(0 86.00804815964588 108.05698114359056)"><path d="M9.35 28.09 C6.68 19.42, 1.59 10.71, 1.92 -0.33 M8.75 28.1 C7.36 19.78, 4.16 11.51, 0.21 0.54" stroke="#1e1e1e" stroke-width="1" fill="none"></path></g><g transform="translate(295.1189920454691 52.14802491106934) rotate(0 86.00804815964588 108.05698114359056)"><path d="M146.57 201.66 C155.44 207.31, 161.8 212.91, 174.39 217.28 M145.97 201.68 C154.82 206.01, 161.63 210.25, 172.68 218.16" stroke="#1e1e1e" stroke-width="1" fill="none"></path></g><g transform="translate(295.1189920454691 52.14802491106934) rotate(0 86.00804815964588 108.05698114359056)"><path d="M162.6 188.86 C166.28 198.67, 167.44 208.43, 174.39 217.28 M162.01 188.88 C166.37 196.78, 168.62 204.66, 172.68 218.16" stroke="#1e1e1e" stroke-width="1" fill="none"></path></g></g><mask></mask><g stroke-linecap="round"><g transform="translate(296.3586398369712 181.07139522728147) rotate(0 83.48676399501556 51.56831798231117)"><path d="M0.78 -0.41 C28.55 17.02, 139.48 87.29, 167.25 104.8 M-0.27 -1.66 C27.27 15.4, 138.43 85.66, 166.24 103.03" stroke="#1e1e1e" stroke-width="1" fill="none"></path></g><g transform="translate(296.3586398369712 181.07139522728147) rotate(0 83.48676399501556 51.56831798231117)"><path d="M29.41 5.8 C20.85 3.93, 10.22 1.83, -0.98 -0.58 M31.04 5.15 C19.9 4.33, 11.93 0.96, 1.2 -0.13" stroke="#1e1e1e" stroke-width="1" fill="none"></path></g><g transform="translate(296.3586398369712 181.07139522728147) rotate(0 83.48676399501556 51.56831798231117)"><path d="M18.45 23.15 C13.72 15.08, 6.97 6.85, -0.98 -0.58 M20.08 22.5 C12.45 16.2, 7.98 7.27, 1.2 -0.13" stroke="#1e1e1e" stroke-width="1" fill="none"></path></g><g transform="translate(296.3586398369712 181.07139522728147) rotate(0 83.48676399501556 51.56831798231117)"><path d="M136.24 96.54 C148.4 98.77, 158.48 101.15, 164.48 102.86 M137.87 95.88 C145.53 99.58, 156.35 100.28, 166.67 103.31" stroke="#1e1e1e" stroke-width="1" fill="none"></path></g><g transform="translate(296.3586398369712 181.07139522728147) rotate(0 83.48676399501556 51.56831798231117)"><path d="M147.16 79.16 C155.5 87.6, 161.72 96.12, 164.48 102.86 M148.79 78.51 C152.96 87.69, 160.28 93.96, 166.67 103.31" stroke="#1e1e1e" stroke-width="1" fill="none"></path></g></g><mask></mask><g stroke-linecap="round"><g transform="translate(292.63969646246505 300.0775832114773) rotate(0 84.7493158277199 3.5422987867751488)"><path d="M1.07 0.29 C29.45 1.58, 141.5 6.5, 169.33 7.69 M0.17 -0.6 C28.54 0.31, 140.96 4.15, 168.77 5.69" stroke="#1e1e1e" stroke-width="1" fill="none"></path></g><g transform="translate(292.63969646246505 300.0775832114773) rotate(0 84.7493158277199 3.5422987867751488)"><path d="M30.17 -7.49 C23.75 -7.36, 16.89 -2.48, 0.59 1.3 M28.97 -9.43 C20.22 -4.68, 10.76 -2.96, 1.81 1.01" stroke="#1e1e1e" stroke-width="1" fill="none"></path></g><g transform="translate(292.63969646246505 300.0775832114773) rotate(0 84.7493158277199 3.5422987867751488)"><path d="M29.27 13.01 C23.05 8.59, 16.4 8.92, 0.59 1.3 M28.06 11.07 C19.82 8.76, 10.67 3.43, 1.81 1.01" stroke="#1e1e1e" stroke-width="1" fill="none"></path></g><g transform="translate(292.63969646246505 300.0775832114773) rotate(0 84.7493158277199 3.5422987867751488)"><path d="M140.65 15.96 C146.92 11.58, 152.75 12.46, 168.29 6.7 M139.44 14.01 C150.56 12.18, 160.79 7.69, 169.51 6.41" stroke="#1e1e1e" stroke-width="1" fill="none"></path></g><g transform="translate(292.63969646246505 300.0775832114773) rotate(0 84.7493158277199 3.5422987867751488)"><path d="M141.53 -4.55 C147.6 -4.37, 153.24 1.05, 168.29 6.7 M140.33 -6.49 C150.94 -1.27, 160.87 1.3, 169.51 6.41" stroke="#1e1e1e" stroke-width="1" fill="none"></path></g></g><mask></mask><g stroke-linecap="round"><g transform="translate(301.31723100297927 421.56306677867724) rotate(0 79.65743461005223 -47.67885463793667)"><path d="M-0.33 0.22 C26.48 -15.27, 133.31 -78.1, 159.65 -93.72 M1.69 -0.7 C28.53 -16.49, 132.81 -79.78, 159.21 -95.58" stroke="#1e1e1e" stroke-width="1" fill="none"></path></g><g transform="translate(301.31723100297927 421.56306677867724) rotate(0 79.65743461005223 -47.67885463793667)"><path d="M19.17 -21.27 C15.64 -19.91, 12.15 -15.03, -1.91 -0.88 M19.76 -23.23 C12.11 -16.26, 7.95 -9.28, 0.47 0.13" stroke="#1e1e1e" stroke-width="1" fill="none"></path></g><g transform="translate(301.31723100297927 421.56306677867724) rotate(0 79.65743461005223 -47.67885463793667)"><path d="M29.55 -3.56 C24.06 -5.78, 18.49 -4.44, -1.91 -0.88 M30.14 -5.52 C19.64 -3.76, 12.44 -1.96, 0.47 0.13" stroke="#1e1e1e" stroke-width="1" fill="none"></path></g><g transform="translate(301.31723100297927 421.56306677867724) rotate(0 79.65743461005223 -47.67885463793667)"><path d="M140.74 -70.62 C145.11 -78.46, 149.23 -82.88, 157.63 -96.68 M141.33 -72.58 C145.23 -79.03, 152.16 -85.63, 160.01 -95.67" stroke="#1e1e1e" stroke-width="1" fill="none"></path></g><g transform="translate(301.31723100297927 421.56306677867724) rotate(0 79.65743461005223 -47.67885463793667)"><path d="M130.14 -88.19 C136.53 -92.48, 142.76 -93.39, 157.63 -96.68 M130.73 -90.15 C137.56 -91.43, 147.57 -92.89, 160.01 -95.67" stroke="#1e1e1e" stroke-width="1" fill="none"></path></g></g><mask></mask></svg>