<svg version="1.1" xmlns="http://www.w3.org/2000/svg" viewBox="0 0 2217.3495115198602 1357.1515595054566" width="4434.6990230397205" height="2714.303119010913">
  <!-- svg-source:excalidraw -->
  
  <defs>
    <style class="style-fonts">
      @font-face {
        font-family: "Virgil";
        src: url("https://excalidraw.com/Virgil.woff2");
      }
      @font-face {
        font-family: "Cascadia";
        src: url("https://excalidraw.com/Cascadia.woff2");
      }
    </style>
    
  </defs>
  <rect x="0" y="0" width="2217.3495115198602" height="1357.1515595054566" fill="#ffffff"></rect><g stroke-linecap="round" transform="translate(10 23.821498541222468) rotate(0 226.87830838322895 661.130330196833)"><path d="M32 0 M32 0 C183.84 0.84, 337.3 -0.51, 421.76 0 M32 0 C136.03 -1.88, 239.91 -1.57, 421.76 0 M421.76 0 C441.41 -0.93, 454.95 8.68, 453.76 32 M421.76 0 C444.55 -1.31, 455.49 10.69, 453.76 32 M453.76 32 C454.17 367.42, 452.83 700.89, 453.76 1290.26 M453.76 32 C450.36 405.09, 450.05 778.25, 453.76 1290.26 M453.76 1290.26 C453.43 1313.24, 442.31 1322.36, 421.76 1322.26 M453.76 1290.26 C455.55 1312.97, 442.37 1323.51, 421.76 1322.26 M421.76 1322.26 C296.94 1322.19, 172.43 1321.11, 32 1322.26 M421.76 1322.26 C289.66 1322.39, 156.7 1322.98, 32 1322.26 M32 1322.26 C9.69 1320.97, 0.76 1312.16, 0 1290.26 M32 1322.26 C9.35 1321.09, -0.08 1310.04, 0 1290.26 M0 1290.26 C2.3 901.63, 2.48 513.39, 0 32 M0 1290.26 C-4.47 893.51, -4.53 496.6, 0 32 M0 32 C-0.46 11.8, 11.87 -0.24, 32 0 M0 32 C1.01 9.46, 12.12 0.88, 32 0" stroke="#1e1e1e" stroke-width="2" fill="none"></path></g><g stroke-linecap="round" transform="translate(24.573941490962852 391.0273035245175) rotate(0 212.99916200134294 157.3650525233802)"><path d="M32 0 M32 0 C137.33 -0.27, 244.69 0.01, 394 0 M32 0 C128.84 -1.8, 226.24 -2.45, 394 0 M394 0 C413.66 -0.98, 426.07 10, 426 32 M394 0 C415.51 1.17, 423.95 12.37, 426 32 M426 32 C422.9 94.51, 423.24 155.93, 426 282.73 M426 32 C428.06 97.88, 428.21 164.9, 426 282.73 M426 282.73 C425.42 305.8, 415.1 314.11, 394 314.73 M426 282.73 C427.2 304.41, 413.34 316.47, 394 314.73 M394 314.73 C249.69 315.25, 104.91 312.96, 32 314.73 M394 314.73 C300.66 312.89, 206.58 313.39, 32 314.73 M32 314.73 C10.48 315.16, 1.53 303.59, 0 282.73 M32 314.73 C11.19 315.19, -0.15 303.93, 0 282.73 M0 282.73 C-2.37 219.15, -3.55 158.52, 0 32 M0 282.73 C-1.93 190.57, -2.19 98.95, 0 32 M0 32 C-1.29 11.96, 8.87 1.06, 32 0 M0 32 C-0.15 12.76, 8.39 -1.88, 32 0" stroke="#1e1e1e" stroke-width="2" fill="none"></path></g><g transform="translate(179.5808100740045 410.1018553455333) rotate(0 65.14199829101562 22.5)"><text x="65.14199829101562" y="0" font-family="Virgil, Segoe UI Emoji" font-size="36px" fill="#1e1e1e" text-anchor="middle" style="white-space: pre;" direction="ltr" dominant-baseline="text-before-edge">페이지(1)</text></g><g transform="translate(113.20818911481877 30.263482539752033) rotate(0 131.54400634765625 22.5)"><text x="131.54400634765625" y="0" font-family="Virgil, Segoe UI Emoji" font-size="36px" fill="#1e1e1e" text-anchor="middle" style="white-space: pre;" direction="ltr" dominant-baseline="text-before-edge">루트 노드(페이지)</text></g><g stroke-linecap="round"><g transform="translate(23.805303535708845 449.84050497264957) rotate(0 215.13439224818734 1.045626691200198)"><path d="M-0.32 0.98 C70.98 1.3, 356.73 2.02, 428.33 2.03 M1.71 0.45 C73.34 0.39, 359.46 -0.13, 430.59 0.14" stroke="#1e1e1e" stroke-width="2" fill="none"></path></g></g><mask></mask><g stroke-linecap="round"><g transform="translate(238.39401152213645 451.4300509577341) rotate(0 0.7209733277357486 126.54528593606787)"><path d="M0.8 0.26 C1.05 42.63, 1.46 211.82, 1.67 253.73 M-0.23 -0.64 C-0.16 41.44, 0.47 209.94, 0.77 252.14" stroke="#1e1e1e" stroke-width="2" fill="none"></path></g></g><mask></mask><g stroke-linecap="round"><g transform="translate(24.975987154626296 501.24989578924277) rotate(0 214.7084657098634 0.7536014255633461)"><path d="M-0.34 0.64 C71.29 0.77, 357.98 1.77, 429.76 1.8 M1.68 -0.06 C73.21 0.2, 357.7 -0.51, 429.11 -0.22" stroke="#1e1e1e" stroke-width="2" fill="none"></path></g></g><mask></mask><g stroke-linecap="round"><g transform="translate(23.685545812273176 569.7133064433501) rotate(0 214.31857372415266 0.3566076406820571)"><path d="M-0.02 -0.07 C71.61 0.13, 358.47 0.42, 430.13 0.77 M-1.5 -1.16 C70.03 -0.78, 357.84 1.7, 429.69 1.87" stroke="#1e1e1e" stroke-width="2" fill="none"></path></g></g><mask></mask><g stroke-linecap="round"><g transform="translate(23.685545812273176 639.832421757244) rotate(0 214.3926315996332 1.254285367442833)"><path d="M-0.82 0.77 C70.79 1.01, 357.91 2.44, 429.61 2.41 M0.95 0.13 C72.45 -0.04, 357.6 0.5, 428.89 0.72" stroke="#1e1e1e" stroke-width="2" fill="none"></path></g></g><mask></mask><g transform="translate(74.86488590967133 459.60914292790346) rotate(0 55.439998626708984 17.5)"><text x="55.439998626708984" y="0" font-family="Virgil, Segoe UI Emoji" font-size="28px" fill="#1e1e1e" text-anchor="middle" style="white-space: pre;" direction="ltr" dominant-baseline="text-before-edge">인덱스 키</text></g><g transform="translate(256.28586656466973 456.8255108085807) rotate(0 86.65999603271484 17.5)"><text x="86.65999603271484" y="0" font-family="Virgil, Segoe UI Emoji" font-size="28px" fill="#1e1e1e" text-anchor="middle" style="white-space: pre;" direction="ltr" dominant-baseline="text-before-edge">자식 노드 주소</text></g><g transform="translate(95.60106820206067 516.6014363462048) rotate(0 41.0620002746582 17.5)"><text x="41.0620002746582" y="0" font-family="Virgil, Segoe UI Emoji" font-size="28px" fill="#1e1e1e" text-anchor="middle" style="white-space: pre;" direction="ltr" dominant-baseline="text-before-edge">Aamer</text></g><g transform="translate(331.7465001406514 519.780528316374) rotate(0 9.968000411987305 17.5)"><text x="9.968000411987305" y="0" font-family="Virgil, Segoe UI Emoji" font-size="28px" fill="#1e1e1e" text-anchor="middle" style="white-space: pre;" direction="ltr" dominant-baseline="text-before-edge">2</text></g><g transform="translate(94.8246092432978 586.5414596899294) rotate(0 43.42800521850586 17.5)"><text x="43.42800521850586" y="0" font-family="Virgil, Segoe UI Emoji" font-size="28px" fill="#1e1e1e" text-anchor="middle" style="white-space: pre;" direction="ltr" dominant-baseline="text-before-edge">Jaana</text></g><g transform="translate(332.1805001559102 588.131005675014) rotate(0 9.534000396728516 17.5)"><text x="9.534000396728516" y="0" font-family="Virgil, Segoe UI Emoji" font-size="28px" fill="#1e1e1e" text-anchor="middle" style="white-space: pre;" direction="ltr" dominant-baseline="text-before-edge">3</text></g><g transform="translate(118.7968851162143 658.0710290187385) rotate(0 11.507999420166016 17.5)"><text x="11.507999420166016" y="0" font-family="Virgil, Segoe UI Emoji" font-size="28px" fill="#1e1e1e" text-anchor="middle" style="white-space: pre;" direction="ltr" dominant-baseline="text-before-edge">...</text></g><g transform="translate(331.7960471175571 654.8769428845003) rotate(0 11.507999420166016 17.5)"><text x="11.507999420166016" y="0" font-family="Virgil, Segoe UI Emoji" font-size="28px" fill="#1e1e1e" text-anchor="middle" style="white-space: pre;" direction="ltr" dominant-baseline="text-before-edge">...</text></g><g stroke-linecap="round" transform="translate(610.6711173893598 16.926798650691126) rotate(0 226.87830838322895 663.3335658844481)"><path d="M32 0 M32 0 C131.85 -0.69, 231.81 -1.25, 421.76 0 M32 0 C181.41 -0.26, 329.68 0.25, 421.76 0 M421.76 0 C444.86 -1.57, 454.49 11.34, 453.76 32 M421.76 0 C443.3 -0.83, 452.13 8.77, 453.76 32 M453.76 32 C452.13 463.74, 452.9 895.81, 453.76 1294.67 M453.76 32 C449.09 297.04, 449 562.06, 453.76 1294.67 M453.76 1294.67 C453.56 1316.11, 444.95 1325.62, 421.76 1326.67 M453.76 1294.67 C452.81 1317.96, 442.45 1325.83, 421.76 1326.67 M421.76 1326.67 C281.44 1328.25, 140.37 1328.56, 32 1326.67 M421.76 1326.67 C302.35 1325.84, 183.28 1325.78, 32 1326.67 M32 1326.67 C10.89 1325.06, -0.05 1317.41, 0 1294.67 M32 1326.67 C12.23 1328.46, 0.22 1314.56, 0 1294.67 M0 1294.67 C-4.38 821.07, -4.53 347.39, 0 32 M0 1294.67 C-2.81 817.99, -3.05 340.55, 0 32 M0 32 C0.76 8.7, 12.36 1.61, 32 0 M0 32 C-0.76 9.87, 8.69 0.21, 32 0" stroke="#1e1e1e" stroke-width="2" fill="none"></path></g><g transform="translate(699.5746394638718 24.63410767434351) rotate(0 147.11399841308594 22.5)"><text x="147.11399841308594" y="0" font-family="Virgil, Segoe UI Emoji" font-size="36px" fill="#1e1e1e" text-anchor="middle" style="white-space: pre;" direction="ltr" dominant-baseline="text-before-edge">브랜치 노드(페이지)</text></g><g stroke-linecap="round" transform="translate(1178.6686067460355 16.926798650691126) rotate(0 226.87830838322895 665.1123804273827)"><path d="M32 0 M32 0 C186.76 0.25, 342.78 -0.54, 421.76 0 M32 0 C152.65 -1.26, 274.36 -2.04, 421.76 0 M421.76 0 C441.56 -1.09, 451.81 11.13, 453.76 32 M421.76 0 C445.38 -1.78, 451.51 11.44, 453.76 32 M453.76 32 C448.93 351.49, 448.77 671.05, 453.76 1298.22 M453.76 32 C455.76 289.19, 455.88 546.1, 453.76 1298.22 M453.76 1298.22 C452.02 1320.61, 445.05 1329.71, 421.76 1330.22 M453.76 1298.22 C454.57 1319.63, 444.07 1331.88, 421.76 1330.22 M421.76 1330.22 C335.7 1329.82, 249.99 1328.28, 32 1330.22 M421.76 1330.22 C310.72 1329.04, 198.54 1328.94, 32 1330.22 M32 1330.22 C9.33 1329.66, 0.2 1318.69, 0 1298.22 M32 1330.22 C11.89 1330.47, -1.8 1318.44, 0 1298.22 M0 1298.22 C4.61 814.13, 4.86 330.04, 0 32 M0 1298.22 C-3.72 851.7, -3.25 406.11, 0 32 M0 32 C-1.59 9.58, 12.26 1.85, 32 0 M0 32 C-2.19 10.55, 8.44 -0.14, 32 0" stroke="#1e1e1e" stroke-width="2" fill="none"></path></g><g stroke-linecap="round" transform="translate(1193.2425482369986 384.13260363398615) rotate(0 212.99916200134282 157.3650525233802)"><path d="M32 0 M32 0 C147.52 -1.43, 262.35 -0.64, 394 0 M32 0 C164.13 -1.41, 295.22 -1.13, 394 0 M394 0 C413.38 0.47, 427.99 9.12, 426 32 M394 0 C413.09 0.78, 424.9 8.66, 426 32 M426 32 C423.79 115.36, 423.37 197.15, 426 282.73 M426 32 C424.23 95.22, 423.85 158.41, 426 282.73 M426 282.73 C427.96 303.55, 416.04 314.79, 394 314.73 M426 282.73 C426.98 305.72, 413.49 312.49, 394 314.73 M394 314.73 C309.44 316.5, 225.44 315.76, 32 314.73 M394 314.73 C304.43 314.71, 214.55 314.63, 32 314.73 M32 314.73 C10.86 313.86, 1.07 304.28, 0 282.73 M32 314.73 C8.87 313.61, 1.89 301.88, 0 282.73 M0 282.73 C0.62 183.37, 1.36 84.7, 0 32 M0 282.73 C1.48 224.08, 0.23 163.68, 0 32 M0 32 C1.6 12.51, 8.77 -0.11, 32 0 M0 32 C-2.23 10.53, 11.11 -0.85, 32 0" stroke="#1e1e1e" stroke-width="2" fill="none"></path></g><g transform="translate(1342.0034146227745 403.20715545500195) rotate(0 71.38800048828125 22.5)"><text x="71.38800048828125" y="0" font-family="Virgil, Segoe UI Emoji" font-size="36px" fill="#1e1e1e" text-anchor="middle" style="white-space: pre;" direction="ltr" dominant-baseline="text-before-edge">페이지(5)</text></g><g transform="translate(1286.9380959613457 25.89943269946616) rotate(0 131.54400634765625 22.5)"><text x="131.54400634765625" y="0" font-family="Virgil, Segoe UI Emoji" font-size="36px" fill="#1e1e1e" text-anchor="middle" style="white-space: pre;" direction="ltr" dominant-baseline="text-before-edge">리프 노드(페이지)</text></g><g stroke-linecap="round"><g transform="translate(1192.4739102817443 442.9458050821182) rotate(0 214.4429228689056 0.44047347054140573)"><path d="M-0.82 0.41 C70.69 0.35, 358.2 0.3, 429.71 0.39 M0.95 -0.42 C72.29 -0.45, 357.42 0.91, 429.04 1.3" stroke="#1e1e1e" stroke-width="2" fill="none"></path></g></g><mask></mask><g stroke-linecap="round"><g transform="translate(1407.0626182681722 444.53535106720267) rotate(0 1.1273416575029387 126.0382888161345)"><path d="M0.53 -1.2 C0.78 40.75, 0.69 209.71, 0.67 252.08 M-0.65 0.79 C0.05 42.84, 2.34 210.99, 2.9 253.27" stroke="#1e1e1e" stroke-width="2" fill="none"></path></g></g><mask></mask><g stroke-linecap="round"><g transform="translate(1193.6445939006621 494.3551958987114) rotate(0 214.5944193564078 0.6063371463476699)"><path d="M-0.92 -0.66 C70.33 -0.14, 356.13 1.65, 428.01 1.87 M0.8 1.61 C72.35 1.85, 358.53 -0.09, 430.11 -0.11" stroke="#1e1e1e" stroke-width="2" fill="none"></path></g></g><mask></mask><g stroke-linecap="round"><g transform="translate(1192.3541525583091 562.8186065528188) rotate(0 214.60197632568895 0.5465904891474906)"><path d="M-1.17 0.28 C70.71 0.5, 358.84 0.38, 430.37 0.66 M0.42 -0.62 C72.33 -0.22, 358.41 1.63, 430.05 1.71" stroke="#1e1e1e" stroke-width="2" fill="none"></path></g></g><mask></mask><g stroke-linecap="round"><g transform="translate(1192.3541525583091 632.9377218667126) rotate(0 215.23436640090324 0.5334054513632509)"><path d="M1.2 -0.93 C72.73 -0.64, 356.77 1.75, 428.01 1.99 M0.36 1.2 C72.35 1.09, 358.91 0.07, 430.1 0.08" stroke="#1e1e1e" stroke-width="2" fill="none"></path></g></g><mask></mask><g transform="translate(1243.533492655707 452.714443037372) rotate(0 55.439998626708984 17.5)"><text x="55.439998626708984" y="0" font-family="Virgil, Segoe UI Emoji" font-size="28px" fill="#1e1e1e" text-anchor="middle" style="white-space: pre;" direction="ltr" dominant-baseline="text-before-edge">인덱스 키</text></g><g transform="translate(1431.954465681311 449.93081091804936) rotate(0 79.66000366210926 17.5)"><text x="79.66000366210938" y="0" font-family="Virgil, Segoe UI Emoji" font-size="28px" fill="#1e1e1e" text-anchor="middle" style="white-space: pre;" direction="ltr" dominant-baseline="text-before-edge">프라이머리 키</text></g><g transform="translate(1274.0136744292977 509.7067364556734) rotate(0 31.31800079345703 17.5)"><text x="31.31800079345703" y="0" font-family="Virgil, Segoe UI Emoji" font-size="28px" fill="#1e1e1e" text-anchor="middle" style="white-space: pre;" direction="ltr" dominant-baseline="text-before-edge">Ebbe</text></g><g transform="translate(1471.1411067188408 512.8858284258425) rotate(0 39.242000579833984 17.5)"><text x="39.242000579833984" y="0" font-family="Virgil, Segoe UI Emoji" font-size="28px" fill="#1e1e1e" text-anchor="middle" style="white-space: pre;" direction="ltr" dominant-baseline="text-before-edge">10057</text></g><g transform="translate(1254.5192245952908 579.646759799398) rotate(0 52.40199661254883 17.5)"><text x="52.40199661254883" y="0" font-family="Virgil, Segoe UI Emoji" font-size="28px" fill="#1e1e1e" text-anchor="middle" style="white-space: pre;" direction="ltr" dominant-baseline="text-before-edge">Fabrizio</text></g><g transform="translate(1474.4731074512626 581.2363057844826) rotate(0 35.90999984741211 17.5)"><text x="35.90999984741211" y="0" font-family="Virgil, Segoe UI Emoji" font-size="28px" fill="#1e1e1e" text-anchor="middle" style="white-space: pre;" direction="ltr" dominant-baseline="text-before-edge">11854</text></g><g transform="translate(1287.46549186225 651.1763291282072) rotate(0 11.507999420166016 17.5)"><text x="11.507999420166016" y="0" font-family="Virgil, Segoe UI Emoji" font-size="28px" fill="#1e1e1e" text-anchor="middle" style="white-space: pre;" direction="ltr" dominant-baseline="text-before-edge">...</text></g><g transform="translate(1500.464653863593 647.982242993969) rotate(0 11.507999420166016 17.5)"><text x="11.507999420166016" y="0" font-family="Virgil, Segoe UI Emoji" font-size="28px" fill="#1e1e1e" text-anchor="middle" style="white-space: pre;" direction="ltr" dominant-baseline="text-before-edge">...</text></g><g stroke-linecap="round" transform="translate(1753.5928947534023 10) rotate(0 226.87830838322907 651.7712713553733)"><path d="M32 0 M32 0 C112.63 -0.73, 193.52 -0.85, 421.76 0 M32 0 C137.58 1.86, 244.51 1.93, 421.76 0 M421.76 0 C444.11 0.32, 455.29 9, 453.76 32 M421.76 0 C441.9 0.65, 453.93 11.43, 453.76 32 M453.76 32 C454.75 287.83, 455.65 544.52, 453.76 1271.54 M453.76 32 C448.96 501.85, 449 971.25, 453.76 1271.54 M453.76 1271.54 C452.28 1294.55, 443.89 1303.83, 421.76 1303.54 M453.76 1271.54 C452.07 1294.35, 444.87 1302.16, 421.76 1303.54 M421.76 1303.54 C334.56 1302.63, 248.79 1303.15, 32 1303.54 M421.76 1303.54 C327.35 1303.27, 232.5 1303.42, 32 1303.54 M32 1303.54 C11.68 1304.66, 1.87 1291.9, 0 1271.54 M32 1303.54 C8.91 1304.58, -0.21 1293.06, 0 1271.54 M0 1271.54 C-2.77 885.54, -3.01 501.05, 0 32 M0 1271.54 C0.99 823.43, 1.39 375.82, 0 32 M0 32 C0.4 10.75, 10.84 -1.78, 32 0 M0 32 C2.04 8.65, 10.18 1.95, 32 0" stroke="#1e1e1e" stroke-width="2" fill="none"></path></g><g transform="translate(1901.4950917417566 29.095234249756913) rotate(0 86.8499984741211 22.5)"><text x="86.8499984741211" y="0" font-family="Virgil, Segoe UI Emoji" font-size="36px" fill="#1e1e1e" text-anchor="middle" style="white-space: pre;" direction="ltr" dominant-baseline="text-before-edge">데이터 파일</text></g><g stroke-linecap="round" transform="translate(623.0151093999343 71.059017414707) rotate(0 212.99916200134294 193.58818930589786)"><path d="M32 0 M32 0 C125.7 2.23, 221.2 0.88, 394 0 M32 0 C148.94 -1, 264.77 -1.16, 394 0 M394 0 C413.95 -0.08, 424.49 10.34, 426 32 M394 0 C416.23 -0.65, 425.27 11.31, 426 32 M426 32 C422.6 141.5, 424.66 253.45, 426 355.18 M426 32 C423.82 114, 424.09 196.41, 426 355.18 M426 355.18 C425.24 375.42, 416.77 387.31, 394 387.18 M426 355.18 C425.55 375.08, 413.17 388.48, 394 387.18 M394 387.18 C311 385.78, 227.46 385.84, 32 387.18 M394 387.18 C258.77 385.87, 122.68 385.76, 32 387.18 M32 387.18 C9.05 389.09, 1.4 374.9, 0 355.18 M32 387.18 C8.58 385.53, -0.23 377.21, 0 355.18 M0 355.18 C0.19 241.71, 2.14 125.23, 0 32 M0 355.18 C-0.94 258.26, -0.19 162.38, 0 32 M0 32 C-0.13 9.42, 11.86 -1.03, 32 0 M0 32 C-1.83 9.59, 9.99 2.04, 32 0" stroke="#1e1e1e" stroke-width="2" fill="none"></path></g><g transform="translate(770.0839744429368 89.22799081615983) rotate(0 73.08000183105469 22.5)"><text x="73.08000183105469" y="0" font-family="Virgil, Segoe UI Emoji" font-size="36px" fill="#1e1e1e" text-anchor="middle" style="white-space: pre;" direction="ltr" dominant-baseline="text-before-edge">페이지(2)</text></g><g stroke-linecap="round"><g transform="translate(622.2464714446801 128.9666404432761) rotate(0 214.88325618761598 0.8755609630591579)"><path d="M-0.37 0.26 C71.16 0.61, 358.36 2.01, 430.14 2.41 M1.63 -0.65 C73.02 -0.66, 358.28 0.46, 429.7 0.71" stroke="#1e1e1e" stroke-width="2" fill="none"></path></g></g><mask></mask><g stroke-linecap="round"><g transform="translate(836.8351794311079 130.55618642836066) rotate(0 1.3725688649512904 165.93333490528786)"><path d="M0.96 0.82 C1.48 56.05, 2.6 276.58, 2.74 331.67 M0.01 0.2 C0.5 55.1, 2.21 275.23, 2.39 330.1" stroke="#1e1e1e" stroke-width="2" fill="none"></path></g></g><mask></mask><g stroke-linecap="round"><g transform="translate(623.4171550635979 180.3760312598693) rotate(0 214.81651475292642 1.353987409729342)"><path d="M1.15 1.05 C72.54 1.3, 358.14 2.25, 429.34 2.33 M0.29 0.56 C71.46 0.4, 356.73 0.22, 428.48 0.6" stroke="#1e1e1e" stroke-width="2" fill="none"></path></g></g><mask></mask><g stroke-linecap="round"><g transform="translate(622.1267137212444 248.83944191397666) rotate(0 214.70863648689362 1.5734189891799133)"><path d="M0.17 0.74 C71.37 0.83, 357 1.44, 428.35 1.54 M-1.21 0.09 C70.27 0.89, 358.64 2.64, 430.62 3.06" stroke="#1e1e1e" stroke-width="2" fill="none"></path></g></g><mask></mask><g stroke-linecap="round"><g transform="translate(622.1267137212444 318.95855722787053) rotate(0 214.8402483625432 0.8555196246488777)"><path d="M-0.83 -0.05 C70.52 0.06, 356.53 1.18, 428.27 1.39 M0.94 -1.12 C72.65 -0.89, 359.15 2.24, 430.51 2.83" stroke="#1e1e1e" stroke-width="2" fill="none"></path></g></g><mask></mask><g transform="translate(673.3060538186428 138.73527839853) rotate(0 55.439998626708984 17.5)"><text x="55.439998626708984" y="0" font-family="Virgil, Segoe UI Emoji" font-size="28px" fill="#1e1e1e" text-anchor="middle" style="white-space: pre;" direction="ltr" dominant-baseline="text-before-edge">인덱스 키</text></g><g transform="translate(854.7270344736412 135.95164627920724) rotate(0 86.65999603271484 17.5)"><text x="86.65999603271484" y="0" font-family="Virgil, Segoe UI Emoji" font-size="28px" fill="#1e1e1e" text-anchor="middle" style="white-space: pre;" direction="ltr" dominant-baseline="text-before-edge">자식 노드 주소</text></g><g transform="translate(694.0422361110323 195.7275718168313) rotate(0 41.0620002746582 17.5)"><text x="41.0620002746582" y="0" font-family="Virgil, Segoe UI Emoji" font-size="28px" fill="#1e1e1e" text-anchor="middle" style="white-space: pre;" direction="ltr" dominant-baseline="text-before-edge">Aamer</text></g><g transform="translate(931.1956684234633 198.90666378700053) rotate(0 8.960000038146973 17.5)"><text x="8.960000038146973" y="0" font-family="Virgil, Segoe UI Emoji" font-size="28px" fill="#1e1e1e" text-anchor="middle" style="white-space: pre;" direction="ltr" dominant-baseline="text-before-edge">4</text></g><g transform="translate(705.3757815773179 265.66759516055595) rotate(0 31.31800079345703 17.5)"><text x="31.31800079345703" y="0" font-family="Virgil, Segoe UI Emoji" font-size="28px" fill="#1e1e1e" text-anchor="middle" style="white-space: pre;" direction="ltr" dominant-baseline="text-before-edge">Ebbe</text></g><g transform="translate(931.5036680343642 268.1627195652034) rotate(0 8.652000427246094 17.5)"><text x="8.652000427246094" y="0" font-family="Virgil, Segoe UI Emoji" font-size="28px" fill="#1e1e1e" text-anchor="middle" style="white-space: pre;" direction="ltr" dominant-baseline="text-before-edge">5</text></g><g transform="translate(700.3960539712307 337.19716448936504) rotate(0 28.349998474121094 17.5)"><text x="28.349998474121094" y="0" font-family="Virgil, Segoe UI Emoji" font-size="28px" fill="#1e1e1e" text-anchor="middle" style="white-space: pre;" direction="ltr" dominant-baseline="text-before-edge">Gad</text></g><g transform="translate(932.7852144085477 334.00307835512683) rotate(0 8.960000038146973 17.5)"><text x="8.960000038146973" y="0" font-family="Virgil, Segoe UI Emoji" font-size="28px" fill="#1e1e1e" text-anchor="middle" style="white-space: pre;" direction="ltr" dominant-baseline="text-before-edge">6</text></g><g stroke-linecap="round" transform="translate(626.4019215104227 1004.6657723181519) rotate(0 212.99916200134294 157.36505252338026)"><path d="M32 0 M32 0 C135.66 -0.42, 240.87 -1.34, 394 0 M32 0 C153.67 0.27, 275.92 0.67, 394 0 M394 0 C414.37 -0.89, 424.53 12.44, 426 32 M394 0 C417.32 -0.44, 424.81 10.67, 426 32 M426 32 C425.24 92.98, 424.73 153.42, 426 282.73 M426 32 C427.34 98.86, 427.24 164.75, 426 282.73 M426 282.73 C427.52 302.09, 415.03 314.61, 394 314.73 M426 282.73 C427.49 306.23, 414.35 315.81, 394 314.73 M394 314.73 C273.61 314.02, 151.2 315.05, 32 314.73 M394 314.73 C311.34 315.95, 228.07 316.46, 32 314.73 M32 314.73 C11.54 316.35, -0.39 305.12, 0 282.73 M32 314.73 C9.42 316.49, 1.04 303.7, 0 282.73 M0 282.73 C-0.97 196.4, 0.23 114.15, 0 32 M0 282.73 C2.16 202.92, 0.73 123.99, 0 32 M0 32 C-0.41 11.94, 11.67 -1.78, 32 0 M0 32 C-1.75 9.64, 10.92 0.54, 32 0" stroke="#1e1e1e" stroke-width="2" fill="none"></path></g><g transform="translate(774.0287852106517 1023.7403241391677) rotate(0 72.52200317382812 22.499999999999943)"><text x="72.52200317382812" y="0" font-family="Virgil, Segoe UI Emoji" font-size="36px" fill="#1e1e1e" text-anchor="middle" style="white-space: pre;" direction="ltr" dominant-baseline="text-before-edge">페이지(3)</text></g><g stroke-linecap="round"><g transform="translate(625.6332835551689 1063.478973766284) rotate(0 214.66199601623248 1.1725758763200247)"><path d="M-0.46 0.44 C71.1 0.71, 358.28 1.2, 429.78 1.32 M1.5 -0.37 C72.92 0.1, 358.15 2.28, 429.15 2.71" stroke="#1e1e1e" stroke-width="2" fill="none"></path></g></g><mask></mask><g stroke-linecap="round"><g transform="translate(840.2219915415963 1065.0685197513685) rotate(0 1.4210556131771455 126.05728648069794)"><path d="M0.61 -0.27 C0.85 41.7, 0.84 210.06, 0.98 252.28 M-0.54 -1.46 C0.14 40.64, 3.18 210.91, 3.38 253.57" stroke="#1e1e1e" stroke-width="2" fill="none"></path></g></g><mask></mask><g stroke-linecap="round"><g transform="translate(626.8039671740862 1114.8883645828773) rotate(0 214.22806731197068 0.06515765932226714)"><path d="M-0.61 -0.46 C70.8 -0.1, 357.53 1.62, 429.06 1.88 M1.28 -1.75 C72.47 -1.75, 357.01 -0.73, 428.05 -0.09" stroke="#1e1e1e" stroke-width="2" fill="none"></path></g></g><mask></mask><g stroke-linecap="round"><g transform="translate(625.5135258317332 1183.3517752369848) rotate(0 214.68553382174127 0.8546694176442315)"><path d="M-0.12 0.29 C71.42 0.54, 357.2 0.66, 428.6 1.06 M-1.64 -0.61 C70.35 -0.16, 358.95 2.07, 431.01 2.32" stroke="#1e1e1e" stroke-width="2" fill="none"></path></g></g><mask></mask><g stroke-linecap="round"><g transform="translate(625.5135258317332 1253.4708905508787) rotate(0 214.98374816710145 1.0610960221647474)"><path d="M-0.58 -0.53 C70.82 -0.14, 356.5 2.34, 428.3 2.65 M1.32 1.8 C73.11 1.86, 359.1 0.96, 430.55 1.09" stroke="#1e1e1e" stroke-width="2" fill="none"></path></g></g><mask></mask><g transform="translate(676.6928659291311 1073.2476117215379) rotate(0 55.439998626708984 17.5)"><text x="55.439998626708984" y="0" font-family="Virgil, Segoe UI Emoji" font-size="28px" fill="#1e1e1e" text-anchor="middle" style="white-space: pre;" direction="ltr" dominant-baseline="text-before-edge">인덱스 키</text></g><g transform="translate(858.1138465841295 1070.4639796022152) rotate(0 86.65999603271484 17.5)"><text x="86.65999603271484" y="0" font-family="Virgil, Segoe UI Emoji" font-size="28px" fill="#1e1e1e" text-anchor="middle" style="white-space: pre;" direction="ltr" dominant-baseline="text-before-edge">자식 노드 주소</text></g><g transform="translate(695.0630432776729 1130.2399051398393) rotate(0 43.42800521850586 17.5)"><text x="43.42800521850586" y="0" font-family="Virgil, Segoe UI Emoji" font-size="28px" fill="#1e1e1e" text-anchor="middle" style="white-space: pre;" direction="ltr" dominant-baseline="text-before-edge">Jaana</text></g><g transform="translate(936.0104805072488 1133.4189971100086) rotate(0 7.5320000648498535 17.5)"><text x="7.5320000648498535" y="0" font-family="Virgil, Segoe UI Emoji" font-size="28px" fill="#1e1e1e" text-anchor="middle" style="white-space: pre;" direction="ltr" dominant-baseline="text-before-edge">7</text></g><g transform="translate(689.0925955188613 1200.1799284835638) rotate(0 50.987998962402344 17.5)"><text x="50.987998962402344" y="0" font-family="Virgil, Segoe UI Emoji" font-size="28px" fill="#1e1e1e" text-anchor="middle" style="white-space: pre;" direction="ltr" dominant-baseline="text-before-edge">Lakshmi</text></g><g transform="translate(932.8324805339516 1201.7694744686487) rotate(0 10.710000038146973 17.5)"><text x="10.710000038146973" y="0" font-family="Virgil, Segoe UI Emoji" font-size="28px" fill="#1e1e1e" text-anchor="middle" style="white-space: pre;" direction="ltr" dominant-baseline="text-before-edge">8</text></g><g transform="translate(720.6248651356741 1271.7094978123732) rotate(0 11.507999420166016 17.5)"><text x="11.507999420166016" y="0" font-family="Virgil, Segoe UI Emoji" font-size="28px" fill="#1e1e1e" text-anchor="middle" style="white-space: pre;" direction="ltr" dominant-baseline="text-before-edge">...</text></g><g transform="translate(933.624027137017 1268.515411678135) rotate(0 11.507999420166016 17.5)"><text x="11.507999420166016" y="0" font-family="Virgil, Segoe UI Emoji" font-size="28px" fill="#1e1e1e" text-anchor="middle" style="white-space: pre;" direction="ltr" dominant-baseline="text-before-edge">...</text></g><g stroke-linecap="round" transform="translate(1192.246248314077 66.93744386003561) rotate(0 212.99916200134305 157.3650525233802)"><path d="M32 0 M32 0 C152.48 1.17, 273.26 0.56, 394 0 M32 0 C121.51 -1.02, 211.55 -0.95, 394 0 M394 0 C415.51 0.78, 427.56 10.78, 426 32 M394 0 C414.62 -1.17, 425.58 11.42, 426 32 M426 32 C425.36 118.64, 426.86 203.17, 426 282.73 M426 32 C427.95 84.52, 427.47 135.51, 426 282.73 M426 282.73 C427.27 303.45, 416.47 315.32, 394 314.73 M426 282.73 C424.63 303.11, 413.27 314.18, 394 314.73 M394 314.73 C317.62 312.74, 240.81 313.08, 32 314.73 M394 314.73 C264.7 313.01, 134.81 312.73, 32 314.73 M32 314.73 C9.34 315.48, 0.06 305.97, 0 282.73 M32 314.73 C12.77 314.08, -1.55 302.89, 0 282.73 M0 282.73 C-2.77 199.12, -3.54 117.45, 0 32 M0 282.73 C-1.93 186.1, -2.05 89.83, 0 32 M0 32 C-0.97 11.06, 11.77 0.23, 32 0 M0 32 C-1.93 11.34, 9.39 -1.61, 32 0" stroke="#1e1e1e" stroke-width="2" fill="none"></path></g><g transform="translate(1340.6111186061025 86.01199568105142) rotate(0 71.78399658203125 22.5)"><text x="71.78399658203125" y="0" font-family="Virgil, Segoe UI Emoji" font-size="36px" fill="#1e1e1e" text-anchor="middle" style="white-space: pre;" direction="ltr" dominant-baseline="text-before-edge">페이지(4)</text></g><g stroke-linecap="round"><g transform="translate(1191.4776103588229 125.75064530816769) rotate(0 214.6511019918604 0.6158092356084666)"><path d="M-0.32 -0.63 C71.24 -0.14, 358.1 1.65, 429.63 1.86 M1.71 1.66 C73.13 1.86, 357.89 -0.08, 428.91 -0.12" stroke="#1e1e1e" stroke-width="2" fill="none"></path></g></g><mask></mask><g stroke-linecap="round"><g transform="translate(1406.0663183452507 127.34019129325225) rotate(0 0.2235736076052035 126.07625155720397)"><path d="M0.45 0.27 C0.71 42.33, 0.99 209.83, 1.22 251.76 M-0.77 -0.64 C-0.68 41.6, -0.25 210.55, 0.08 252.79" stroke="#1e1e1e" stroke-width="2" fill="none"></path></g></g><mask></mask><g stroke-linecap="round"><g transform="translate(1192.6482939777407 177.1600361247609) rotate(0 214.53181028100664 0.44945731322972904)"><path d="M-0.37 -0.97 C71.13 -0.9, 357.82 0.24, 429.43 0.75 M1.64 1.13 C72.96 1.31, 357.46 2.04, 428.62 1.84" stroke="#1e1e1e" stroke-width="2" fill="none"></path></g></g><mask></mask><g stroke-linecap="round"><g transform="translate(1191.3578526353872 245.62344677886824) rotate(0 214.1076364829579 0.6064720368741945)"><path d="M0.25 -0.84 C71.86 -0.34, 357.64 1.64, 429.29 2.06 M-1.07 1.33 C70.42 1.55, 356.58 -0.1, 428.4 0.18" stroke="#1e1e1e" stroke-width="2" fill="none"></path></g></g><mask></mask><g stroke-linecap="round"><g transform="translate(1191.3578526353872 315.7425620927621) rotate(0 214.41237079331677 1.4487282871252773)"><path d="M0.11 0.47 C71.75 0.88, 358.67 1.57, 430.12 1.66 M-1.29 -0.33 C70.25 0.37, 358.14 2.85, 429.66 3.23" stroke="#1e1e1e" stroke-width="2" fill="none"></path></g></g><mask></mask><g transform="translate(1242.5371927327851 135.51928326342158) rotate(0 55.439998626708984 17.5)"><text x="55.439998626708984" y="0" font-family="Virgil, Segoe UI Emoji" font-size="28px" fill="#1e1e1e" text-anchor="middle" style="white-space: pre;" direction="ltr" dominant-baseline="text-before-edge">인덱스 키</text></g><g transform="translate(1430.9581657583897 132.73565114409882) rotate(0 79.66000366210938 17.5)"><text x="79.66000366210938" y="0" font-family="Virgil, Segoe UI Emoji" font-size="28px" fill="#1e1e1e" text-anchor="middle" style="white-space: pre;" direction="ltr" dominant-baseline="text-before-edge">프라이머리 키</text></g><g transform="translate(1263.2733750251746 192.5115766817229) rotate(0 41.0620002746582 17.5)"><text x="41.0620002746582" y="0" font-family="Virgil, Segoe UI Emoji" font-size="28px" fill="#1e1e1e" text-anchor="middle" style="white-space: pre;" direction="ltr" dominant-baseline="text-before-edge">Aamer</text></g><g transform="translate(1471.8248071010946 195.6906686518921) rotate(0 37.5620002746582 17.5)"><text x="37.5620002746582" y="0" font-family="Virgil, Segoe UI Emoji" font-size="28px" fill="#1e1e1e" text-anchor="middle" style="white-space: pre;" direction="ltr" dominant-baseline="text-before-edge">11800</text></g><g transform="translate(1248.1609213459528 262.45160002544753) rotate(0 57.763999938964844 17.5)"><text x="57.763999938964844" y="0" font-family="Virgil, Segoe UI Emoji" font-size="28px" fill="#1e1e1e" text-anchor="middle" style="white-space: pre;" direction="ltr" dominant-baseline="text-before-edge">Babette</text></g><g transform="translate(1471.4888085659384 264.0411460105321) rotate(0 37.89799880981445 17.5)"><text x="37.89799880981445" y="0" font-family="Virgil, Segoe UI Emoji" font-size="28px" fill="#1e1e1e" text-anchor="middle" style="white-space: pre;" direction="ltr" dominant-baseline="text-before-edge">10128</text></g><g transform="translate(1286.469191939328 333.9811693542566) rotate(0 11.507999420166016 17.5)"><text x="11.507999420166016" y="0" font-family="Virgil, Segoe UI Emoji" font-size="28px" fill="#1e1e1e" text-anchor="middle" style="white-space: pre;" direction="ltr" dominant-baseline="text-before-edge">...</text></g><g transform="translate(1499.4683539406715 330.7870832200184) rotate(0 11.507999420166016 17.5)"><text x="11.507999420166016" y="0" font-family="Virgil, Segoe UI Emoji" font-size="28px" fill="#1e1e1e" text-anchor="middle" style="white-space: pre;" direction="ltr" dominant-baseline="text-before-edge">...</text></g><g stroke-linecap="round" transform="translate(1197.0702410167396 703.7044806114498) rotate(0 212.99916200134305 157.3650525233802)"><path d="M32 0 M32 0 C171.23 -1.47, 311.9 -0.99, 394 0 M32 0 C107.41 2.59, 183.96 2.49, 394 0 M394 0 C415.69 -1.38, 427.34 11.99, 426 32 M394 0 C414.64 1.35, 428.14 11.26, 426 32 M426 32 C425.58 92.48, 425.88 152.72, 426 282.73 M426 32 C426.22 119.04, 426.21 206.62, 426 282.73 M426 282.73 C427.57 304.84, 415.01 314.72, 394 314.73 M426 282.73 C427.22 306.27, 414.08 315.34, 394 314.73 M394 314.73 C253.76 317.44, 112.36 316.49, 32 314.73 M394 314.73 C298.34 314.22, 202.12 314.69, 32 314.73 M32 314.73 C11.1 313.58, -1.13 302.65, 0 282.73 M32 314.73 C10.85 315.18, -0.54 304.8, 0 282.73 M0 282.73 C1.15 230.4, 0.4 178.46, 0 32 M0 282.73 C1.58 212.82, 0.11 143.59, 0 32 M0 32 C-1.5 9.89, 10.52 -0.16, 32 0 M0 32 C1.23 11.34, 12.5 1.26, 32 0" stroke="#1e1e1e" stroke-width="2" fill="none"></path></g><g transform="translate(1345.435111308765 722.7790324324656) rotate(0 71.78399658203125 22.5)"><text x="71.78399658203125" y="0" font-family="Virgil, Segoe UI Emoji" font-size="36px" fill="#1e1e1e" text-anchor="middle" style="white-space: pre;" direction="ltr" dominant-baseline="text-before-edge">페이지(6)</text></g><g stroke-linecap="round"><g transform="translate(1196.3016030614854 762.5176820595817) rotate(0 214.81746392411185 0.14968679494268144)"><path d="M0.64 -1.08 C72.3 -1.16, 358.86 -0.13, 430.12 0.44 M-0.48 0.96 C71.08 0.91, 357.83 1.46, 429.66 1.38" stroke="#1e1e1e" stroke-width="2" fill="none"></path></g></g><mask></mask><g stroke-linecap="round"><g transform="translate(1410.8903110479132 764.1072280446664) rotate(0 1.377312163336569 126.18687483282298)"><path d="M0.94 -1.15 C0.93 41.29, 0.46 211.11, 0.59 253.52 M-0.02 0.86 C0.28 43.06, 2.6 210.07, 2.78 251.81" stroke="#1e1e1e" stroke-width="2" fill="none"></path></g></g><mask></mask><g stroke-linecap="round"><g transform="translate(1197.4722866804032 813.927072876175) rotate(0 214.1712045099123 1.1673371639172387)"><path d="M-1 0.78 C70.4 1.34, 357.61 2.19, 429.34 2.19 M0.68 0.15 C71.85 0.45, 357.13 0.13, 428.48 0.38" stroke="#1e1e1e" stroke-width="2" fill="none"></path></g></g><mask></mask><g stroke-linecap="round"><g transform="translate(1196.1818453380497 882.3904835302825) rotate(0 214.09279219773623 0.8658544594033515)"><path d="M0.16 0.6 C71.9 0.59, 357.76 0.47, 429.39 0.76 M-1.21 -0.14 C70.47 -0.08, 356.75 1.77, 428.56 1.87" stroke="#1e1e1e" stroke-width="2" fill="none"></path></g></g><mask></mask><g stroke-linecap="round"><g transform="translate(1196.1818453380497 952.5095988441764) rotate(0 214.4279312275072 0.7792403503118521)"><path d="M0.22 -0.83 C71.85 -0.53, 358.55 1.86, 429.98 2.38 M-1.13 1.36 C70.41 1.27, 357.96 0.85, 429.46 0.68" stroke="#1e1e1e" stroke-width="2" fill="none"></path></g></g><mask></mask><g transform="translate(1247.3611854354476 772.2863200148357) rotate(0 55.439998626708984 17.5)"><text x="55.439998626708984" y="0" font-family="Virgil, Segoe UI Emoji" font-size="28px" fill="#1e1e1e" text-anchor="middle" style="white-space: pre;" direction="ltr" dominant-baseline="text-before-edge">인덱스 키</text></g><g transform="translate(1435.782158461052 769.5026878955128) rotate(0 79.66000366210949 17.5)"><text x="79.66000366210938" y="0" font-family="Virgil, Segoe UI Emoji" font-size="28px" fill="#1e1e1e" text-anchor="middle" style="white-space: pre;" direction="ltr" dominant-baseline="text-before-edge">프라이머리 키</text></g><g transform="translate(1280.8093695283742 829.2786134331369) rotate(0 28.349998474121094 17.5)"><text x="28.349998474121094" y="0" font-family="Virgil, Segoe UI Emoji" font-size="28px" fill="#1e1e1e" text-anchor="middle" style="white-space: pre;" direction="ltr" dominant-baseline="text-before-edge">Gad</text></g><g transform="translate(1476.2007979421849 832.4577054033062) rotate(0 38.01000213623047 17.5)"><text x="38.01000213623047" y="0" font-family="Virgil, Segoe UI Emoji" font-size="28px" fill="#1e1e1e" text-anchor="middle" style="white-space: pre;" direction="ltr" dominant-baseline="text-before-edge">10799</text></g><g transform="translate(1270.330914720002 899.2186367768617) rotate(0 40.417999267578125 17.5)"><text x="40.417999267578125" y="0" font-family="Virgil, Segoe UI Emoji" font-size="28px" fill="#1e1e1e" text-anchor="middle" style="white-space: pre;" direction="ltr" dominant-baseline="text-before-edge">Hailing</text></g><g transform="translate(1478.706802275681 900.8081827619463) rotate(0 35.503997802734375 17.5)"><text x="35.503997802734375" y="0" font-family="Virgil, Segoe UI Emoji" font-size="28px" fill="#1e1e1e" text-anchor="middle" style="white-space: pre;" direction="ltr" dominant-baseline="text-before-edge">11005</text></g><g transform="translate(1291.2931846419906 970.7482061056709) rotate(0 11.507999420166016 17.5)"><text x="11.507999420166016" y="0" font-family="Virgil, Segoe UI Emoji" font-size="28px" fill="#1e1e1e" text-anchor="middle" style="white-space: pre;" direction="ltr" dominant-baseline="text-before-edge">...</text></g><g transform="translate(1504.292346643334 967.5541199714327) rotate(0 11.507999420166016 17.5)"><text x="11.507999420166016" y="0" font-family="Virgil, Segoe UI Emoji" font-size="28px" fill="#1e1e1e" text-anchor="middle" style="white-space: pre;" direction="ltr" dominant-baseline="text-before-edge">...</text></g><g stroke-linecap="round" transform="translate(1196.7341779565654 1024.7058598179715) rotate(0 212.99916200134282 157.36505252338026)"><path d="M32 0 M32 0 C133.94 0.1, 236.49 -0.77, 394 0 M32 0 C150.1 0.57, 267.47 0.81, 394 0 M394 0 C416.71 -1.81, 427.05 8.8, 426 32 M394 0 C414.88 -0.56, 427.64 9.39, 426 32 M426 32 C424.24 104.52, 425.73 173.27, 426 282.73 M426 32 C426.27 107.54, 426.24 183.52, 426 282.73 M426 282.73 C424.22 302.2, 416.37 313.71, 394 314.73 M426 282.73 C427.39 303.66, 415.67 317.03, 394 314.73 M394 314.73 C301.76 314.73, 207.04 313.49, 32 314.73 M394 314.73 C263.81 316.27, 135.03 317.19, 32 314.73 M32 314.73 C11.08 316.63, 0.76 303.57, 0 282.73 M32 314.73 C11.52 316.65, 1.46 304.49, 0 282.73 M0 282.73 C-2.59 219.62, -0.99 152.58, 0 32 M0 282.73 C1.98 195.95, 0.72 108.89, 0 32 M0 32 C0.49 9.89, 11.6 1.99, 32 0 M0 32 C1.33 9.9, 12.54 0.18, 32 0" stroke="#1e1e1e" stroke-width="2" fill="none"></path></g><g transform="translate(1346.935046783747 1043.7804116389875) rotate(0 69.947998046875 22.5)"><text x="69.947998046875" y="0" font-family="Virgil, Segoe UI Emoji" font-size="36px" fill="#1e1e1e" text-anchor="middle" style="white-space: pre;" direction="ltr" dominant-baseline="text-before-edge">페이지(7)</text></g><g stroke-linecap="round"><g transform="translate(1195.9655400013112 1083.5190612661036) rotate(0 214.2718895333728 1.008255248068167)"><path d="M-0.12 0.31 C71.46 0.52, 358.57 1.06, 430.19 1.24 M-1.65 -0.58 C69.8 -0.19, 357.98 2.06, 429.78 2.59" stroke="#1e1e1e" stroke-width="2" fill="none"></path></g></g><mask></mask><g stroke-linecap="round"><g transform="translate(1410.554247987739 1085.108607251188) rotate(0 1.0721076130665779 126.2090936551756)"><path d="M1.02 -0.35 C1.38 41.69, 2.03 210.33, 2.05 252.55 M0.09 -1.58 C0.35 40.62, 1.34 211.32, 1.35 254" stroke="#1e1e1e" stroke-width="2" fill="none"></path></g></g><mask></mask><g stroke-linecap="round"><g transform="translate(1197.136223620229 1134.9284520826968) rotate(0 213.99033657160612 0.2682081393322733)"><path d="M0.46 -0.18 C71.75 0.19, 357.14 1.75, 428.73 1.86 M-0.75 -1.32 C70.25 -1.31, 355.81 -0.55, 427.55 -0.12" stroke="#1e1e1e" stroke-width="2" fill="none"></path></g></g><mask></mask><g stroke-linecap="round"><g transform="translate(1195.8457822778755 1203.3918627368043) rotate(0 214.7777571822984 0.4211278083904517)"><path d="M-0.45 0.27 C71.14 0.39, 358.29 0.47, 430 0.51 M1.52 -0.63 C72.98 -0.39, 358.18 1.17, 429.49 1.47" stroke="#1e1e1e" stroke-width="2" fill="none"></path></g></g><mask></mask><g stroke-linecap="round"><g transform="translate(1195.8457822778755 1273.5109780506982) rotate(0 214.80343713996012 0.1678561062535664)"><path d="M0.82 -1.08 C72.53 -1.05, 358.46 0.07, 429.81 0.47 M-0.2 0.96 C71.44 1.08, 357.82 1.17, 429.19 1.42" stroke="#1e1e1e" stroke-width="2" fill="none"></path></g></g><mask></mask><g transform="translate(1247.0251223752734 1093.2876992213573) rotate(0 55.439998626708984 17.5)"><text x="55.439998626708984" y="0" font-family="Virgil, Segoe UI Emoji" font-size="28px" fill="#1e1e1e" text-anchor="middle" style="white-space: pre;" direction="ltr" dominant-baseline="text-before-edge">인덱스 키</text></g><g transform="translate(1435.4460954008778 1090.5040671020347) rotate(0 79.66000366210926 17.5)"><text x="79.66000366210938" y="0" font-family="Virgil, Segoe UI Emoji" font-size="28px" fill="#1e1e1e" text-anchor="middle" style="white-space: pre;" direction="ltr" dominant-baseline="text-before-edge">프라이머리 키</text></g><g transform="translate(1265.3952997238152 1150.2799926396588) rotate(0 43.42800521850586 17.5)"><text x="43.42800521850586" y="0" font-family="Virgil, Segoe UI Emoji" font-size="28px" fill="#1e1e1e" text-anchor="middle" style="white-space: pre;" direction="ltr" dominant-baseline="text-before-edge">Jaana</text></g><g transform="translate(1477.082737201347 1153.459084609828) rotate(0 36.79199981689453 17.5)"><text x="36.79199981689453" y="0" font-family="Virgil, Segoe UI Emoji" font-size="28px" fill="#1e1e1e" text-anchor="middle" style="white-space: pre;" direction="ltr" dominant-baseline="text-before-edge">11384</text></g><g transform="translate(1268.1474568934427 1221.675412458753) rotate(0 40.80999755859375 17.5)"><text x="40.80999755859375" y="0" font-family="Virgil, Segoe UI Emoji" font-size="28px" fill="#1e1e1e" text-anchor="middle" style="white-space: pre;" direction="ltr" dominant-baseline="text-before-edge">Kagan</text></g><g transform="translate(1470.3347361027143 1221.8095619684682) rotate(0 43.540000915527344 17.5)"><text x="43.540000915527344" y="0" font-family="Virgil, Segoe UI Emoji" font-size="28px" fill="#1e1e1e" text-anchor="middle" style="white-space: pre;" direction="ltr" dominant-baseline="text-before-edge">12338</text></g><g transform="translate(1290.9571215818164 1291.7495853121927) rotate(0 11.507999420166016 17.5)"><text x="11.507999420166016" y="0" font-family="Virgil, Segoe UI Emoji" font-size="28px" fill="#1e1e1e" text-anchor="middle" style="white-space: pre;" direction="ltr" dominant-baseline="text-before-edge">...</text></g><g transform="translate(1503.9562835831598 1288.5554991779545) rotate(0 11.507999420166016 17.5)"><text x="11.507999420166016" y="0" font-family="Virgil, Segoe UI Emoji" font-size="28px" fill="#1e1e1e" text-anchor="middle" style="white-space: pre;" direction="ltr" dominant-baseline="text-before-edge">...</text></g><g stroke-linecap="round"><g transform="translate(623.0871988844842 395.43869581803665) rotate(0 215.45631020114763 0.44869243946698134)"><path d="M1.14 0.1 C72.71 0.47, 357.05 1.36, 428.36 1.79 M0.27 -0.9 C72.33 -0.88, 359.34 -0.53, 430.64 -0.22" stroke="#1e1e1e" stroke-width="2" fill="none"></path></g></g><mask></mask><g transform="translate(726.805821674938 405.34999963831496) rotate(0 11.507999420166016 17.5)"><text x="11.507999420166016" y="0" font-family="Virgil, Segoe UI Emoji" font-size="28px" fill="#1e1e1e" text-anchor="middle" style="white-space: pre;" direction="ltr" dominant-baseline="text-before-edge">...</text></g><g transform="translate(937.8055934331032 409.8778917361296) rotate(0 11.507999420166016 17.5)"><text x="11.507999420166016" y="0" font-family="Virgil, Segoe UI Emoji" font-size="28px" fill="#1e1e1e" text-anchor="middle" style="white-space: pre;" direction="ltr" dominant-baseline="text-before-edge">...</text></g><g stroke-linecap="round"><g transform="translate(448.4971726638155 540.1472656423036) rotate(0 87.86366187912648 -160.5254966319802)"><path d="M0.19 -0.69 C29.12 -54.29, 145.51 -268.87, 174.64 -322.61 M-1.18 1.56 C28.04 -51.74, 147.73 -267.11, 176.9 -321.05" stroke="#1e1e1e" stroke-width="2" fill="none"></path></g><g transform="translate(448.4971726638155 540.1472656423036) rotate(0 87.86366187912648 -160.5254966319802)"><path d="M171.18 -292.82 C174.44 -303.84, 175.32 -312.82, 174.97 -320.46 M172.85 -291.88 C173.64 -299.76, 175.05 -305.81, 176.88 -320.33" stroke="#1e1e1e" stroke-width="2" fill="none"></path></g><g transform="translate(448.4971726638155 540.1472656423036) rotate(0 87.86366187912648 -160.5254966319802)"><path d="M153.19 -302.69 C163.35 -309.91, 171.2 -315.07, 174.97 -320.46 M154.86 -301.76 C160.22 -307.02, 166.16 -310.58, 176.88 -320.33" stroke="#1e1e1e" stroke-width="2" fill="none"></path></g></g><mask></mask><g stroke-linecap="round"><g transform="translate(448.4971726638155 602.4170537434075) rotate(0 90.36304684245567 275.9650564309442)"><path d="M0.75 1.14 C30.74 93.14, 150.86 459.39, 181.03 551.23 M-0.31 0.7 C29.41 92.38, 149.74 457.61, 180.03 549.23" stroke="#1e1e1e" stroke-width="2" fill="none"></path></g><g transform="translate(448.4971726638155 602.4170537434075) rotate(0 90.36304684245567 275.9650564309442)"><path d="M163.36 525.48 C169 535.93, 177.87 542.68, 178.67 550.07 M161.2 525.22 C165.74 531.43, 169.8 536.67, 180.6 549.35" stroke="#1e1e1e" stroke-width="2" fill="none"></path></g><g transform="translate(448.4971726638155 602.4170537434075) rotate(0 90.36304684245567 275.9650564309442)"><path d="M182.85 519.06 C180.79 532.15, 181.99 541.42, 178.67 550.07 M180.69 518.8 C180.87 526.33, 180.61 532.99, 180.6 549.35" stroke="#1e1e1e" stroke-width="2" fill="none"></path></g></g><mask></mask><g stroke-linecap="round"><g transform="translate(1048.5514943653611 217.4765454820386) rotate(0 70.59078643511293 -0.8521863721166056)"><path d="M-0.88 0.56 C22.96 0.34, 118.25 -1.92, 142.06 -2.26 M0.86 -0.2 C24.67 -0.16, 117.96 -0.35, 141.4 -0.92" stroke="#1e1e1e" stroke-width="2" fill="none"></path></g><g transform="translate(1048.5514943653611 217.4765454820386) rotate(0 70.59078643511293 -0.8521863721166056)"><path d="M114.26 10.56 C118.93 8.37, 126.34 4.93, 141.04 -2.55 M113.93 9.59 C120.22 6.33, 127.17 4.66, 141.54 -0.86" stroke="#1e1e1e" stroke-width="2" fill="none"></path></g><g transform="translate(1048.5514943653611 217.4765454820386) rotate(0 70.59078643511293 -0.8521863721166056)"><path d="M114.02 -9.96 C118.58 -7.66, 126.04 -6.6, 141.04 -2.55 M113.69 -10.93 C120.08 -9.06, 127.09 -5.6, 141.54 -0.86" stroke="#1e1e1e" stroke-width="2" fill="none"></path></g></g><mask></mask><g stroke-linecap="round"><g transform="translate(1050.4384576411521 287.29418668630655) rotate(0 73.31124127563226 122.51174755501751)"><path d="M1.12 0.97 C25.23 41.38, 120.2 202.58, 144.23 243.18 M0.25 0.44 C24.76 40.97, 122.33 204.2, 146.38 244.59" stroke="#1e1e1e" stroke-width="2" fill="none"></path></g><g transform="translate(1050.4384576411521 287.29418668630655) rotate(0 73.31124127563226 122.51174755501751)"><path d="M124.74 223.85 C128.9 230.38, 137.23 236.05, 147.13 243.9 M123.72 226.33 C131.59 233.61, 141.2 239.49, 146.88 244.07" stroke="#1e1e1e" stroke-width="2" fill="none"></path></g><g transform="translate(1050.4384576411521 287.29418668630655) rotate(0 73.31124127563226 122.51174755501751)"><path d="M142.36 213.34 C141.98 222.77, 145.71 231.19, 147.13 243.9 M141.34 215.81 C142.57 227.13, 145.45 237.02, 146.88 244.07" stroke="#1e1e1e" stroke-width="2" fill="none"></path></g></g><mask></mask><g stroke-linecap="round"><g transform="translate(1052.3254209169431 357.1118278905744) rotate(0 71.91391199715565 246.0327860505855)"><path d="M-1.08 0.1 C22.92 82.41, 120.43 410.93, 144.91 492.96 M0.55 -0.9 C24.28 81.13, 119.63 408.68, 143.76 491.08" stroke="#1e1e1e" stroke-width="2" fill="none"></path></g><g transform="translate(1052.3254209169431 357.1118278905744) rotate(0 71.91391199715565 246.0327860505855)"><path d="M126.18 466.25 C133.27 477.02, 138.84 484.57, 145.71 492.83 M125.12 466.24 C131.85 473.36, 136.14 481.53, 143.77 490.81" stroke="#1e1e1e" stroke-width="2" fill="none"></path></g><g transform="translate(1052.3254209169431 357.1118278905744) rotate(0 71.91391199715565 246.0327860505855)"><path d="M145.88 460.5 C145.53 473.25, 143.71 482.96, 145.71 492.83 M144.82 460.5 C146 469.17, 144.72 478.96, 143.77 490.81" stroke="#1e1e1e" stroke-width="2" fill="none"></path></g></g><mask></mask><g stroke-linecap="round"><g transform="translate(1056.0993474685251 1151.5233669985955) rotate(0 69.04247839792049 6.420716546784092)"><path d="M-0.61 0.26 C22.62 2.36, 115.76 10.03, 138.7 12.38 M1.27 -0.64 C24.48 1.6, 115.2 11.27, 138.25 13.49" stroke="#1e1e1e" stroke-width="2" fill="none"></path></g><g transform="translate(1056.0993474685251 1151.5233669985955) rotate(0 69.04247839792049 6.420716546784092)"><path d="M109.6 22.42 C114.86 17.99, 125.27 17.57, 137.46 11.86 M109.15 21.43 C119.56 18.1, 129.37 14.74, 137.65 14.09" stroke="#1e1e1e" stroke-width="2" fill="none"></path></g><g transform="translate(1056.0993474685251 1151.5233669985955) rotate(0 69.04247839792049 6.420716546784092)"><path d="M111.68 2 C116.4 2.52, 126.31 7.05, 137.46 11.86 M111.24 1.02 C120.98 5.14, 130.03 9.25, 137.65 14.09" stroke="#1e1e1e" stroke-width="2" fill="none"></path></g></g><mask></mask><g stroke-linecap="round"><g transform="translate(759.8461131693346 459.0078447832897) rotate(0 3.9927868622705773 269.6418056882436)"><path d="M0.48 -0.06 C1.84 90, 6.52 449.34, 7.5 539.34" stroke="#1e1e1e" stroke-width="2.5" fill="none" stroke-dasharray="8 10"></path></g><g transform="translate(759.8461131693346 459.0078447832897) rotate(0 3.9927868622705773 269.6418056882436)"><path d="M-3.2 511.2 C-1.29 516.14, 2.29 525.56, 9.21 539.3" stroke="#1e1e1e" stroke-width="2.5" fill="none"></path></g><g transform="translate(759.8461131693346 459.0078447832897) rotate(0 3.9927868622705773 269.6418056882436)"><path d="M17.32 510.95 C14.21 516.04, 12.76 525.52, 9.21 539.3" stroke="#1e1e1e" stroke-width="2.5" fill="none"></path></g></g><mask></mask><g stroke-linecap="round"><g transform="translate(905.1422854052432 996.7923783837316) rotate(0 -2.114148716227078 -270.447625362438)"><path d="M-0.6 1.02 C-1.19 -89.24, -3.1 -451.44, -3.62 -541.92" stroke="#1e1e1e" stroke-width="2.5" fill="none" stroke-dasharray="8 10"></path></g><g transform="translate(905.1422854052432 996.7923783837316) rotate(0 -2.114148716227078 -270.447625362438)"><path d="M8.49 -513.54 C3.26 -521.91, 0.4 -530.53, -1.71 -541.67" stroke="#1e1e1e" stroke-width="2.5" fill="none"></path></g><g transform="translate(905.1422854052432 996.7923783837316) rotate(0 -2.114148716227078 -270.447625362438)"><path d="M-12.03 -513.42 C-11.33 -521.72, -8.27 -530.37, -1.71 -541.67" stroke="#1e1e1e" stroke-width="2.5" fill="none"></path></g></g><mask></mask><g stroke-linecap="round" transform="translate(1886.0479471677584 572.9447283084655) rotate(0 112.67887367336243 67.60732420401746)"><path d="M0 0 C0 0, 0 0, 0 0 M0 0 C0 0, 0 0, 0 0 M-0.35 5.7 C2.44 3.88, 3.2 1.99, 4.6 0.07 M-0.12 6.07 C1.61 4.11, 3.45 1.92, 4.91 0.71 M1.53 12.51 C3.19 7.64, 6.86 5.97, 11.95 -0.69 M-0.66 11.38 C3 8.75, 5.77 5.29, 10.94 -0.43 M0.87 20.01 C5.09 10.21, 10.31 3.78, 15.03 -0.06 M-0.04 17.84 C4.45 12.84, 10.59 5.44, 16.42 1 M1.33 25.3 C5.82 20.16, 7.69 13.33, 22.18 -1.17 M-0.4 23.95 C7.03 16.15, 13.82 8.73, 20.7 0.27 M-1.45 30.56 C8.34 20.14, 14.39 12.79, 26.98 2.22 M-0.51 29.54 C6.67 23.44, 12.44 17.2, 25.93 -0.27 M-1.74 35.67 C12.78 23.12, 24.38 7.55, 32.73 1.68 M-1.21 36.55 C7.48 28.23, 16.06 18.12, 31.6 0.42 M0.12 42.19 C13.81 27.42, 28.77 11, 34.98 -0.47 M0.21 41.78 C10.49 31.07, 20.07 19.46, 36.17 -0.21 M-0.8 47.16 C10.94 35.91, 20.93 24.19, 44.21 0.35 M0.83 48.94 C12.99 33.44, 26.98 17.99, 42.11 0.35 M-0.02 55.41 C15.54 36.7, 33.67 16.56, 47.99 0.6 M0.47 54.04 C10.72 41.25, 21.05 30.73, 47.37 -0.56 M-1.42 61.14 C20.38 37.32, 38.09 16.84, 53.73 0.13 M-0.78 61.2 C11.45 48.11, 22.52 35.18, 52.47 -0.08 M0.74 68.18 C13.44 54.8, 22 38.04, 58.81 -0.19 M-0.2 68.01 C17.43 45.17, 37.92 23.05, 58.03 -0.12 M-0.68 71.86 C24.8 44.92, 51.4 15.14, 65.28 1 M0.4 73.59 C16.61 55.99, 31.17 37.5, 63.76 -0.6 M1.78 78.81 C27.33 51.13, 49.26 19.51, 70.07 -0.8 M0.5 79.52 C23.75 53.77, 46.98 26.93, 68.02 0.23 M2.19 85.24 C25.92 53.84, 52.37 22.98, 75.65 -0.44 M0.19 84.29 C15.32 67.03, 30.94 50.31, 74.86 0.52 M1.41 92.55 C17.86 70.9, 35.37 51.04, 80.25 -1.53 M0.75 92.08 C19.37 69.46, 38.03 48, 79.52 0.53 M-0.87 97.6 C19.76 73.81, 42.48 47.48, 84.51 -0.9 M0.03 97.16 C23.46 70.43, 46.97 42.4, 85.5 -0.62 M1.38 104.55 C32.89 64.71, 68.83 26.06, 89.69 0.97 M0.22 102.89 C35.58 63.25, 70.63 23.74, 90.05 0.73 M-2.08 110.66 C29.27 75.41, 60.68 42.11, 96.36 -0.47 M0.7 109.71 C31.43 72.72, 64.34 35.78, 95.23 -0.47 M0.34 114.61 C41.34 70.34, 78.67 25.97, 102.56 -0.29 M0.39 114.55 C35.86 74.81, 72.26 33.79, 101.44 -0.28 M0.19 122.06 C41.97 75.61, 82.95 27.26, 106.53 -0.54 M-0.69 122.64 C25.41 91.86, 51.76 60.93, 106.43 -1.05 M-0.91 129.96 C22.63 102.28, 46.28 74.67, 112.87 -0.64 M-1.07 128.86 C30.82 92.09, 61.94 55.28, 110.86 0.31 M2.09 132.34 C25.5 102.53, 53.79 73.09, 114.57 -1.12 M0.97 133.81 C44.75 84.75, 86.15 34.47, 116.65 -0.22 M3.87 137.17 C47.74 85.04, 91.95 33.37, 122.48 -1.77 M1.9 137.73 C42.16 92.54, 82.27 46.91, 121.8 0.22 M6.81 139.39 C44.87 93.09, 86.37 50.32, 128.8 2.17 M8.34 137.72 C37.29 101.27, 69.64 64.61, 126.23 0.32 M12.45 136.75 C57.61 84.36, 107.55 31.05, 131.09 -1.71 M12.89 136.76 C37.55 107.55, 63.12 77.97, 133.11 -0.91 M16.24 137.59 C51.82 99.65, 84.94 59.93, 136.46 0.64 M18.23 137.61 C63.19 87.44, 106.4 38.31, 137.4 0.56 M22.94 136.17 C65.46 89.59, 109.24 38.8, 142.26 -0.8 M22.81 137.29 C58 97.13, 91.99 58.15, 143.91 -0.5 M28.78 138.23 C61 103.07, 93.02 64.81, 148.26 -0.49 M28.45 136.87 C66.22 93.67, 102.93 50.49, 147.82 0.16 M36.19 136.53 C79.95 86.7, 123.81 36.78, 153.36 0.23 M35.3 138.06 C60.66 104.99, 89.28 72.27, 154.7 -0.06 M39.95 136.46 C77.85 90.86, 119.23 42.54, 159.76 0.65 M39.43 137.06 C67.06 104.7, 95.64 72.69, 159.04 0.19 M45.89 135.56 C74.27 101.79, 107.74 64.99, 165.63 -1.68 M45.82 137.2 C70.62 110.14, 93.61 82.23, 164.29 -0.17 M49.09 137.12 C93.04 87.48, 136.43 36.4, 169.36 0.58 M49.91 136.67 C80.62 102.09, 111.78 66.85, 169.39 0.16 M56.56 137.67 C94.88 94.62, 131.4 52.61, 174.16 -1.91 M56.64 137.26 C86.32 100.95, 119.53 63.7, 174.81 0.5 M61.41 136.67 C89.13 103.4, 116.31 71.36, 180.32 0.47 M59.97 138.08 C108.78 84.09, 156.17 30.91, 181.05 0.98 M65.58 135.92 C103.4 90.16, 145.58 45.25, 185.86 -2.21 M65.89 136.24 C109.96 88.28, 154.04 39.04, 184.72 0.2 M69.97 137.25 C105.52 97.22, 138.09 58.91, 190.73 0.18 M72 136.62 C98.64 105.52, 127.67 71.89, 191.03 0 M77.17 138 C117.57 87.28, 161.96 41.39, 197.5 -0.66 M76.5 136.55 C117.62 92.32, 156.61 46.37, 195.82 -0.88 M81.64 136.65 C118.12 96.06, 152.74 57.1, 199.53 0.17 M81.74 137.54 C119.15 95.72, 157.03 53.28, 202.15 -0.02 M88.39 136.29 C127.34 93.5, 165.41 48.43, 205.69 -1.7 M87.24 138 C122.9 96.45, 158.64 56.24, 206.24 0.36 M91.17 138.31 C120.83 107.32, 148.05 74.17, 212.5 -0.38 M93.25 136.98 C126.51 100.35, 157.26 62.36, 212.08 0.12 M99.15 137.82 C129.35 97.76, 164.43 57.66, 216.87 -2.1 M97.72 136.85 C135.52 95.78, 170.23 55.36, 217.42 -1.06 M103.13 137.34 C149.06 87.5, 192.1 35.59, 224.26 -1.68 M103.91 137.05 C140.99 94.14, 179.73 48.37, 222.3 1.02 M109.54 139.02 C150.71 91.17, 190.6 43.56, 228.04 0.54 M108.7 137.53 C137.16 106.05, 163.97 75.44, 227.82 0.31 M113.94 138.5 C153.17 95.41, 189.01 51.46, 225.72 6.28 M113.44 136.74 C140.03 108.5, 166.27 77.51, 226.58 7.26 M120.47 136.71 C149.96 101.47, 177.87 69.21, 227.46 11.81 M119.75 138.61 C153.87 96.96, 188.13 57.14, 226.68 13.41 M125.87 138.2 C152.07 106.18, 178.56 79.74, 225.81 19.6 M124.89 136.99 C152.26 104.49, 179.63 72.78, 227.68 20.27 M127.71 138.65 C167.97 94.35, 205.54 50.77, 227.64 24.09 M130.29 138.38 C153.2 108.61, 179.25 79.57, 225.96 25.2 M137.03 138.5 C156.27 113.25, 176.89 88.6, 225.63 31.52 M135.61 137.64 C163.45 107.19, 189.78 74.33, 226.51 32.4 M138.55 138.48 C159.1 116.14, 177.87 93.74, 227.73 37.73 M139.24 136.76 C161.56 112.5, 182.79 88.38, 225.74 38.89 M147.36 137.15 C166.63 113.87, 188.07 90.8, 227.18 44.48 M146.32 136.48 C167.86 114.18, 186.82 91.27, 227.87 43.94 M149.11 138.51 C167.58 116.71, 184.09 98.6, 228.74 49 M151.33 137.12 C176.97 107.52, 203.45 76.27, 226.45 50.86 M156.67 137.52 C175.27 115.81, 195.49 89.59, 226.65 56.31 M156.05 138.2 C176.55 113.04, 196.65 91.44, 226.73 56.38 M162.36 135.69 C178.33 113.96, 198.43 93.97, 226.18 61.05 M162.13 137.23 C185.64 110.04, 208.45 81.98, 226.5 62.68 M166.6 138.64 C178.32 125.58, 190.38 108, 227.03 67.26 M167.14 137.4 C180.12 120.28, 194.25 105.65, 225.87 68.34 M170.11 135.66 C189.29 119.66, 201.72 100.76, 227.41 74.71 M171.04 138.31 C191.31 116.85, 209.71 94.22, 226.65 74.81 M178.62 137.23 C186.12 122.91, 199.65 113.11, 228.2 82.47 M178.27 137.64 C194.04 118.16, 208.68 99.37, 226.91 81.13 M183.02 138.67 C193.1 123.59, 203.68 113.05, 224.98 87.2 M182.27 137.97 C194.17 123.39, 206.53 110.14, 226.32 86.41 M188.07 137.62 C197.74 125.04, 209.88 113.86, 227.53 91 M187.48 136.37 C199.81 125.03, 209.51 112.04, 225.97 92.75 M192.59 137.66 C208.01 121.87, 218.9 107.74, 225.25 99.16 M193.88 137.26 C206.02 124.38, 216.6 109.95, 227.21 99.29 M198.13 137.83 C206.13 131.03, 213.46 120.65, 225.24 104.55 M199.08 137.98 C209.77 124.14, 221.18 111.74, 227.99 105.59 M205.16 136.22 C211.47 127.32, 220.22 122.6, 226.45 109.13 M204.76 137.65 C208.49 133, 213.64 125.99, 226.4 111.44 M209.79 135.52 C214.45 130.95, 218.91 123.66, 225.74 116.26 M208.75 136.77 C213.74 130.2, 219.2 126.21, 227.07 118.25 M215.84 138.53 C218.54 133.3, 221.45 129.31, 227.3 124.47 M213.64 138 C218.66 132.56, 223.53 125.32, 226 123.04 M220.02 137.51 C221.4 134.62, 224.19 131.97, 226.45 128.55 M220.3 137.48 C222.53 134.57, 224.74 131.92, 226.4 129.46" stroke="#868e96" stroke-width="0.5" fill="none"></path><path d="M1.6 -0.27 C76.93 -0.65, 151.91 -0.07, 224.96 0.31 M-0.66 -0.38 C55.19 -0.36, 110.9 0.09, 226.01 -0.85 M223.64 -0.89 C224.78 34.22, 224.43 70.99, 227.27 133.67 M225.35 0.9 C225.48 30.78, 225.46 62.91, 225.94 135.6 M226.87 135.75 C152.84 136.07, 81.51 136.81, 0.11 136.86 M225.31 134.47 C136.85 135.4, 48.64 136.27, -0.53 134.55 M0.16 136.18 C1.44 101.74, -1.62 66.64, 0.35 1.47 M0.62 135.98 C1.14 85.9, -0.24 36.15, 0.14 0.61" stroke="#000000" stroke-width="1" fill="none"></path></g><g stroke-linecap="round"><g transform="translate(2021.2625955757933 572.9447283084655) rotate(0 -67.4763007169413 -22.614682393949806)" fill-rule="evenodd"><path d="M-135.42 -44.84 C-135.42 -44.84, -135.42 -44.84, -135.42 -44.84 M-135.42 -44.84 C-135.42 -44.84, -135.42 -44.84, -135.42 -44.84 M-134.86 -39.78 C-132.54 -41.24, -130.61 -43.92, -129.85 -44.74 M-135.07 -39.11 C-133.78 -40.62, -132.08 -42.49, -129.48 -45.06 M-135.75 -34.01 C-133.56 -37.02, -130.25 -39.59, -123.99 -43.38 M-135.89 -32.11 C-131.45 -37.45, -126.76 -41.28, -125.54 -44.45 M-133.53 -26.17 C-131.86 -32.98, -125.62 -38.07, -118.92 -45.18 M-134.65 -27.51 C-129.14 -33.31, -125.06 -38.6, -119.25 -45.85 M-134.59 -22.09 C-127.58 -30.36, -117.47 -38.13, -115.57 -43.85 M-134.35 -21.03 C-129.46 -25.92, -125.32 -32.65, -113.24 -45.81 M-135.29 -13.47 C-126.44 -25.43, -115.16 -34.47, -109.58 -44.51 M-135.45 -13.75 C-125.21 -25.34, -116.84 -35.11, -107.59 -44.93 M-135.6 -7.29 C-126.04 -17.43, -118.88 -30.13, -104.27 -45.22 M-134.38 -8.86 C-123.44 -21.85, -113.64 -34.39, -103.86 -45.38 M-135.82 -2.39 C-127.25 -11.97, -113.81 -24.1, -97.67 -47.08 M-135.84 -2.53 C-123.97 -16.01, -113.05 -28.36, -97.28 -45.09 M-135.17 3.36 C-123.21 -9.78, -111.48 -22.76, -94.43 -46.65 M-134.13 1.07 C-118.72 -15.21, -102.32 -34.98, -92.24 -45.01 M-126.98 -0.14 C-117.96 -10.27, -106.27 -22.18, -89.04 -46.38 M-127.99 1.7 C-113.58 -14.74, -99.93 -31.16, -88.22 -45.44 M-121.15 3.19 C-110.15 -16.81, -93.44 -32.2, -81.73 -43.04 M-123.67 1.62 C-109.55 -13.48, -97.59 -28.11, -81.27 -45.26 M-118.26 2.79 C-103.3 -13.16, -88.37 -28.52, -77.71 -46.19 M-116.75 1.97 C-108.2 -9.97, -97.98 -21.64, -75.98 -46.22 M-110.63 2.86 C-99.26 -17.01, -81.45 -33.61, -71.02 -46.6 M-111.82 2.23 C-99.94 -11.94, -89.91 -25.19, -70.95 -44.24 M-107.66 1.84 C-95.29 -13.37, -78.52 -30.36, -67.85 -46.67 M-107.5 0.99 C-95.01 -11.77, -81.82 -25.61, -66.78 -45.7 M-101.64 2.08 C-86.26 -15.94, -69.62 -36.44, -62.31 -44.9 M-100.88 1.66 C-86.45 -15.59, -72.42 -32.06, -61.49 -44.67 M-97.06 1.3 C-86.57 -10.74, -78.34 -20.07, -56.45 -45.56 M-96.5 1.14 C-85.36 -12.54, -72.68 -25.25, -55.2 -44.5 M-92.4 2.24 C-79.5 -10.45, -68.56 -24.24, -48.75 -46.87 M-90.81 1.61 C-74.67 -15.96, -60.23 -32.91, -50.27 -44.83 M-85.48 0.14 C-75.24 -8.44, -67.97 -17.78, -44.67 -43.19 M-85.17 1.18 C-72.57 -12.76, -61.77 -26.95, -44.51 -45.58 M-79.26 0.38 C-72.83 -8.29, -62.4 -17.08, -41.26 -41.73 M-80.27 1.69 C-69.18 -9.91, -58.9 -22.24, -41.44 -42.55 M-75.13 1.98 C-68.84 -6.54, -60.3 -15.41, -40.42 -38.72 M-75.14 1.32 C-64.2 -11.79, -53.33 -23.91, -40.2 -39.42 M-70.74 3.2 C-60.61 -8.98, -47.5 -23, -36.68 -35.85 M-69.57 2.44 C-57.19 -12.64, -44.99 -26.94, -37.06 -37.02 M-65.99 1.84 C-52.27 -11, -42.6 -27.19, -31.88 -34.95 M-63.82 2.95 C-54.91 -10.25, -42.84 -23.76, -32.62 -33.9 M-57.51 1.04 C-46.59 -12.55, -36.83 -25.46, -30.31 -31.67 M-59.7 2.32 C-50.69 -7.41, -42.4 -17.49, -30.72 -30.79 M-55.25 1.14 C-45.59 -5.1, -38.91 -11.72, -28.68 -26.98 M-54.85 2.58 C-43.98 -9.66, -34.86 -21.37, -27.02 -27.95 M-50.4 1.92 C-40.96 -4.63, -37.56 -14.23, -26.62 -25.01 M-49.32 0.72 C-43.28 -6.18, -35.86 -13.04, -25.15 -25.93 M-43.24 2.23 C-35.83 -7.65, -30.33 -13.93, -21.27 -23.79 M-43.02 1.46 C-37.4 -4.43, -31.89 -11.42, -22 -22.09 M-38.4 1.5 C-33.18 -4.74, -31.18 -7.81, -19.86 -19.97 M-37.75 0.95 C-30.89 -6.59, -23.95 -13.88, -19.9 -20.13 M-32.75 3.35 C-27.27 -4.42, -23.14 -10.08, -16.25 -16.68 M-32.62 1.47 C-27.54 -5.13, -21.81 -11.23, -15.85 -17.89 M-26.64 1.1 C-22.6 -3.13, -19.82 -7.38, -14.82 -13.04 M-28.01 1.21 C-23.46 -4.09, -18.54 -7.75, -13.06 -13.63 M-23.54 1.46 C-20.66 -2.45, -16.37 -3.66, -12.18 -11.04 M-22.98 1.06 C-20.22 -1.31, -16.77 -4.26, -11.45 -10.81 M-17.8 1.61 C-14.16 -1.47, -11.31 -4.77, -9.37 -8.81 M-16.08 1.59 C-14.86 -0.85, -12.57 -3.46, -7.73 -8.3 M-11.53 1.86 C-8.84 -1.76, -6.8 -3.58, -5.48 -5.69 M-11.88 1.68 C-10.23 0.14, -8.38 -1.95, -5.01 -6 M-5.77 1.56 C-5.08 0.74, -4.16 -1.59, -2.25 -2.53 M-6.12 1.4 C-5.08 0.43, -4.46 -0.33, -2.26 -2.92" stroke="#868e96" stroke-width="0.5" fill="none"></path><path d="M1.65 0.94 C-16.33 -15.37, -34.72 -33.54, -46.17 -45.21 M-0.03 -0.22 C-13.01 -13.81, -26.7 -28.99, -45.45 -45.28 M-45.37 -46.36 C-74.8 -45.5, -101.31 -47.01, -136.6 -44.74 M-45.17 -45.5 C-65.53 -43.78, -85.15 -43.87, -135.03 -44.82 M-136.02 -44.52 C-135.04 -29.25, -134.69 -14.35, -133.39 -0.14 M-135.63 -45.68 C-135.71 -29.49, -135.85 -15.52, -135.66 0.27 M-133.41 1.13 C-94.69 -0.02, -51.31 0.82, 1.37 -0.68 M-134.53 0.48 C-86.83 -0.5, -36.9 -0.41, -0.06 0.08 M0 0 C0 0, 0 0, 0 0 M0 0 C0 0, 0 0, 0 0" stroke="#000000" stroke-width="1" fill="none"></path></g></g><mask></mask><g stroke-linecap="round"><g transform="translate(1622.1883302058325 204.2678025515017) rotate(0 144.6911358573368 202.15321784800338)"><path d="M-0.7 1.19 C47.2 68.21, 239.54 335.32, 287.83 401.97 M1.13 0.77 C49.37 68.01, 242.2 336.66, 290.08 403.53" stroke="#1e1e1e" stroke-width="2" fill="none"></path></g><g transform="translate(1622.1883302058325 204.2678025515017) rotate(0 144.6911358573368 202.15321784800338)"><path d="M267.31 385.14 C273.66 392.97, 280.53 397.08, 290.13 404.26 M264.71 386.08 C274.08 393.99, 284.56 400.44, 290.49 403.21" stroke="#1e1e1e" stroke-width="2" fill="none"></path></g><g transform="translate(1622.1883302058325 204.2678025515017) rotate(0 144.6911358573368 202.15321784800338)"><path d="M283.98 373.19 C284.75 384.91, 286.04 393.02, 290.13 404.26 M281.38 374.12 C284.06 386.86, 287.93 398.05, 290.49 403.21" stroke="#1e1e1e" stroke-width="2" fill="none"></path></g></g><mask></mask><g stroke-linecap="round"><g transform="translate(1624.0752934816235 279.74633358314253) rotate(0 146.89779093696916 168.13098276966187)"><path d="M0.09 -0.89 C49.3 54.96, 245.97 279.71, 295.12 335.71 M-1.33 1.26 C47.81 57.24, 245.25 281.36, 294.57 337.15" stroke="#1e1e1e" stroke-width="2" fill="none"></path></g><g transform="translate(1624.0752934816235 279.74633358314253) rotate(0 146.89779093696916 168.13098276966187)"><path d="M266.75 324.06 C275.56 327.99, 282.09 329.59, 293.64 336.49 M267.35 322.53 C274.9 325.6, 282.35 331.09, 294.82 337.26" stroke="#1e1e1e" stroke-width="2" fill="none"></path></g><g transform="translate(1624.0752934816235 279.74633358314253) rotate(0 146.89779093696916 168.13098276966187)"><path d="M282.14 310.49 C286.61 318.31, 288.74 323.8, 293.64 336.49 M282.74 308.95 C286.29 315.46, 289.8 324.43, 294.82 337.26" stroke="#1e1e1e" stroke-width="2" fill="none"></path></g></g><mask></mask><g stroke-linecap="round"><g transform="translate(1625.9622567574145 532.5994125391398) rotate(0 167.30177158177366 49.755889388895525)"><path d="M0.18 -1.07 C55.72 15.63, 277.91 83.69, 333.39 100.58 M-1.18 0.98 C54.74 17.3, 279.68 81.97, 335.79 98.76" stroke="#1e1e1e" stroke-width="2" fill="none"></path></g><g transform="translate(1625.9622567574145 532.5994125391398) rotate(0 167.30177158177366 49.755889388895525)"><path d="M304.06 99.69 C316.2 98.46, 325.12 99.32, 336.34 98.42 M304.88 100.62 C316.08 100.54, 325.57 100.32, 336.49 98.01" stroke="#1e1e1e" stroke-width="2" fill="none"></path></g><g transform="translate(1625.9622567574145 532.5994125391398) rotate(0 167.30177158177366 49.755889388895525)"><path d="M309.82 80 C320.21 84.96, 327.32 92, 336.34 98.42 M310.64 80.93 C319.85 87.2, 327.48 93.32, 336.49 98.01" stroke="#1e1e1e" stroke-width="2" fill="none"></path></g></g><mask></mask><g stroke-linecap="round"><g transform="translate(1622.1883302058325 600.5300904676167) rotate(0 159.31079207038988 26.591516128260764)"><path d="M1.13 -0.19 C53.72 8.53, 263.33 43.93, 316.11 52.93 M0.27 -1.34 C53.18 7.55, 265.48 45.64, 318.35 54.52" stroke="#1e1e1e" stroke-width="2" fill="none"></path></g><g transform="translate(1622.1883302058325 600.5300904676167) rotate(0 159.31079207038988 26.591516128260764)"><path d="M288.5 58.29 C299.26 59.04, 311 56.56, 320.27 54.72 M289.35 60.41 C296.1 57.81, 302.99 57.42, 318.26 53.77" stroke="#1e1e1e" stroke-width="2" fill="none"></path></g><g transform="translate(1622.1883302058325 600.5300904676167) rotate(0 159.31079207038988 26.591516128260764)"><path d="M292.03 38.07 C301.65 45.91, 312.17 50.48, 320.27 54.72 M292.87 40.19 C298.8 42.63, 304.79 47.29, 318.26 53.77" stroke="#1e1e1e" stroke-width="2" fill="none"></path></g></g><mask></mask><g stroke-linecap="round"><g transform="translate(1627.8492200332055 836.4004999414944) rotate(0 179.46799475124772 -96.27341472029894)"><path d="M-1.06 0.55 C58.98 -31.22, 299.71 -159.29, 359.99 -191.49 M0.59 -0.21 C60.45 -32.23, 298.92 -161.22, 358.83 -193.1" stroke="#1e1e1e" stroke-width="2" fill="none"></path></g><g transform="translate(1627.8492200332055 836.4004999414944) rotate(0 179.46799475124772 -96.27341472029894)"><path d="M339.76 -171.41 C346.28 -176.43, 349.97 -181.94, 359.89 -194.44 M338.68 -170.27 C346.19 -179.08, 352.72 -185.47, 358.24 -192.86" stroke="#1e1e1e" stroke-width="2" fill="none"></path></g><g transform="translate(1627.8492200332055 836.4004999414944) rotate(0 179.46799475124772 -96.27341472029894)"><path d="M330.05 -189.49 C339.18 -189.32, 345.61 -189.73, 359.89 -194.44 M328.97 -188.35 C339.69 -191.29, 349.41 -191.75, 358.24 -192.86" stroke="#1e1e1e" stroke-width="2" fill="none"></path></g></g><mask></mask><g stroke-linecap="round"><g transform="translate(1627.8492200332055 917.5399208005085) rotate(0 168.8202762093522 -118.61674649892257)"><path d="M-0.28 -0.82 C56.11 -40.6, 281.75 -199.13, 337.92 -238.6 M1.78 1.37 C58.06 -38.29, 280.83 -197.9, 337.05 -237.51" stroke="#1e1e1e" stroke-width="2" fill="none"></path></g><g transform="translate(1627.8492200332055 917.5399208005085) rotate(0 168.8202762093522 -118.61674649892257)"><path d="M318.66 -212.55 C323.1 -221, 329.18 -225.67, 336.38 -235.87 M320.78 -212.02 C323.8 -219.11, 328.94 -224.45, 336.22 -236.96" stroke="#1e1e1e" stroke-width="2" fill="none"></path></g><g transform="translate(1627.8492200332055 917.5399208005085) rotate(0 168.8202762093522 -118.61674649892257)"><path d="M306.77 -229.28 C314.36 -233.28, 323.59 -233.53, 336.38 -235.87 M308.89 -228.74 C315.04 -231.54, 323.19 -232.66, 336.22 -236.96" stroke="#1e1e1e" stroke-width="2" fill="none"></path></g></g><mask></mask><g stroke-linecap="round"><g transform="translate(1627.8492200332055 1168.5060364807148) rotate(0 171.07919436240832 -251.89169533089182)"><path d="M0.39 0.06 C57.31 -84.04, 283.69 -419.92, 340.73 -503.84 M-0.87 -0.95 C56.51 -84.92, 285.8 -418.21, 343.02 -502.32" stroke="#1e1e1e" stroke-width="2" fill="none"></path></g><g transform="translate(1627.8492200332055 1168.5060364807148) rotate(0 171.07919436240832 -251.89169533089182)"><path d="M335.67 -474.6 C337.07 -478.2, 339.45 -487.55, 342.33 -502.88 M336 -473.99 C336.22 -480.16, 338.9 -485.75, 342.77 -502.87" stroke="#1e1e1e" stroke-width="2" fill="none"></path></g><g transform="translate(1627.8492200332055 1168.5060364807148) rotate(0 171.07919436240832 -251.89169533089182)"><path d="M318.73 -486.2 C324.14 -487.15, 330.45 -493.82, 342.33 -502.88 M319.06 -485.58 C322.81 -489.47, 328.98 -492.67, 342.77 -502.87" stroke="#1e1e1e" stroke-width="2" fill="none"></path></g></g><mask></mask><g stroke-linecap="round"><g transform="translate(1625.9622567574145 1230.7758245818186) rotate(0 188.44452530349326 -292.2107081237945)"><path d="M0.89 0.48 C63.66 -97.02, 314.32 -487.36, 376.99 -584.9 M-0.1 -0.31 C62.45 -97.61, 313.16 -486.16, 375.83 -583.34" stroke="#1e1e1e" stroke-width="2" fill="none"></path></g><g transform="translate(1625.9622567574145 1230.7758245818186) rotate(0 188.44452530349326 -292.2107081237945)"><path d="M369.98 -554.75 C371.44 -564.54, 373.81 -573.11, 376.78 -583.96 M368.79 -554.65 C370.24 -560.72, 372.73 -568.05, 375.75 -582.44" stroke="#1e1e1e" stroke-width="2" fill="none"></path></g><g transform="translate(1625.9622567574145 1230.7758245818186) rotate(0 188.44452530349326 -292.2107081237945)"><path d="M352.73 -565.88 C359.89 -572.12, 367.95 -577.02, 376.78 -583.96 M351.55 -565.77 C356.89 -569.29, 363.24 -574.12, 375.75 -582.44" stroke="#1e1e1e" stroke-width="2" fill="none"></path></g></g><mask></mask></svg>