<svg version="1.1" xmlns="http://www.w3.org/2000/svg" viewBox="0 0 1642.4252235124934 1350.2247608547655" width="3284.850447024987" height="2700.449521709531">
  <!-- svg-source:excalidraw -->
  
  <defs>
    <style class="style-fonts">
      @font-face {
        font-family: "Virgil";
        src: url("https://excalidraw.com/Virgil.woff2");
      }
      @font-face {
        font-family: "Cascadia";
        src: url("https://excalidraw.com/Cascadia.woff2");
      }
    </style>
    
  </defs>
  <rect x="0" y="0" width="1642.4252235124934" height="1350.2247608547655" fill="#ffffff"></rect><g stroke-linecap="round" transform="translate(10 16.894699890531342) rotate(0 226.87830838322895 661.130330196833)"><path d="M32 0 M32 0 C183.84 0.84, 337.3 -0.51, 421.76 0 M32 0 C136.03 -1.88, 239.91 -1.57, 421.76 0 M421.76 0 C441.41 -0.93, 454.95 8.68, 453.76 32 M421.76 0 C444.55 -1.31, 455.49 10.69, 453.76 32 M453.76 32 C454.17 367.42, 452.83 700.89, 453.76 1290.26 M453.76 32 C450.36 405.09, 450.05 778.25, 453.76 1290.26 M453.76 1290.26 C453.43 1313.24, 442.31 1322.36, 421.76 1322.26 M453.76 1290.26 C455.55 1312.97, 442.37 1323.51, 421.76 1322.26 M421.76 1322.26 C296.94 1322.19, 172.43 1321.11, 32 1322.26 M421.76 1322.26 C289.66 1322.39, 156.7 1322.98, 32 1322.26 M32 1322.26 C9.69 1320.97, 0.76 1312.16, 0 1290.26 M32 1322.26 C9.35 1321.09, -0.08 1310.04, 0 1290.26 M0 1290.26 C2.3 901.63, 2.48 513.39, 0 32 M0 1290.26 C-4.47 893.51, -4.53 496.6, 0 32 M0 32 C-0.46 11.8, 11.87 -0.24, 32 0 M0 32 C1.01 9.46, 12.12 0.88, 32 0" stroke="#1e1e1e" stroke-width="2" fill="none"></path></g><g stroke-linecap="round" transform="translate(24.573941490962852 384.10050487382637) rotate(0 212.99916200134294 157.3650525233802)"><path d="M32 0 M32 0 C137.33 -0.27, 244.69 0.01, 394 0 M32 0 C128.84 -1.8, 226.24 -2.45, 394 0 M394 0 C413.66 -0.98, 426.07 10, 426 32 M394 0 C415.51 1.17, 423.95 12.37, 426 32 M426 32 C422.9 94.51, 423.24 155.93, 426 282.73 M426 32 C428.06 97.88, 428.21 164.9, 426 282.73 M426 282.73 C425.42 305.8, 415.1 314.11, 394 314.73 M426 282.73 C427.2 304.41, 413.34 316.47, 394 314.73 M394 314.73 C249.69 315.25, 104.91 312.96, 32 314.73 M394 314.73 C300.66 312.89, 206.58 313.39, 32 314.73 M32 314.73 C10.48 315.16, 1.53 303.59, 0 282.73 M32 314.73 C11.19 315.19, -0.15 303.93, 0 282.73 M0 282.73 C-2.37 219.15, -3.55 158.52, 0 32 M0 282.73 C-1.93 190.57, -2.19 98.95, 0 32 M0 32 C-1.29 11.96, 8.87 1.06, 32 0 M0 32 C-0.15 12.76, 8.39 -1.88, 32 0" stroke="#1e1e1e" stroke-width="2" fill="none"></path></g><g transform="translate(179.5808100740045 403.17505669484217) rotate(0 65.14199829101562 22.5)"><text x="65.14199829101562" y="0" font-family="Virgil, Segoe UI Emoji" font-size="36px" fill="#1e1e1e" text-anchor="middle" style="white-space: pre;" direction="ltr" dominant-baseline="text-before-edge">페이지(1)</text></g><g transform="translate(113.20818911481877 23.336683889060907) rotate(0 131.54400634765625 22.5)"><text x="131.54400634765625" y="0" font-family="Virgil, Segoe UI Emoji" font-size="36px" fill="#1e1e1e" text-anchor="middle" style="white-space: pre;" direction="ltr" dominant-baseline="text-before-edge">루트 노드(페이지)</text></g><g stroke-linecap="round"><g transform="translate(23.805303535708845 442.91370632195844) rotate(0 215.13439224818734 1.045626691200198)"><path d="M-0.32 0.98 C70.98 1.3, 356.73 2.02, 428.33 2.03 M1.71 0.45 C73.34 0.39, 359.46 -0.13, 430.59 0.14" stroke="#1e1e1e" stroke-width="2" fill="none"></path></g></g><mask></mask><g stroke-linecap="round"><g transform="translate(238.39401152213645 444.503252307043) rotate(0 0.7209733277357486 126.54528593606787)"><path d="M0.8 0.26 C1.05 42.63, 1.46 211.82, 1.67 253.73 M-0.23 -0.64 C-0.16 41.44, 0.47 209.94, 0.77 252.14" stroke="#1e1e1e" stroke-width="2" fill="none"></path></g></g><mask></mask><g stroke-linecap="round"><g transform="translate(24.975987154626296 494.32309713855165) rotate(0 214.7084657098634 0.7536014255633461)"><path d="M-0.34 0.64 C71.29 0.77, 357.98 1.77, 429.76 1.8 M1.68 -0.06 C73.21 0.2, 357.7 -0.51, 429.11 -0.22" stroke="#1e1e1e" stroke-width="2" fill="none"></path></g></g><mask></mask><g stroke-linecap="round"><g transform="translate(23.685545812273176 562.786507792659) rotate(0 214.31857372415266 0.3566076406820571)"><path d="M-0.02 -0.07 C71.61 0.13, 358.47 0.42, 430.13 0.77 M-1.5 -1.16 C70.03 -0.78, 357.84 1.7, 429.69 1.87" stroke="#1e1e1e" stroke-width="2" fill="none"></path></g></g><mask></mask><g stroke-linecap="round"><g transform="translate(23.685545812273176 632.9056231065529) rotate(0 214.3926315996332 1.254285367442833)"><path d="M-0.82 0.77 C70.79 1.01, 357.91 2.44, 429.61 2.41 M0.95 0.13 C72.45 -0.04, 357.6 0.5, 428.89 0.72" stroke="#1e1e1e" stroke-width="2" fill="none"></path></g></g><mask></mask><g transform="translate(74.86488590967133 452.68234427721234) rotate(0 55.439998626708984 17.5)"><text x="55.439998626708984" y="0" font-family="Virgil, Segoe UI Emoji" font-size="28px" fill="#1e1e1e" text-anchor="middle" style="white-space: pre;" direction="ltr" dominant-baseline="text-before-edge">인덱스 키</text></g><g transform="translate(256.28586656466973 449.8987121578896) rotate(0 86.65999603271484 17.5)"><text x="86.65999603271484" y="0" font-family="Virgil, Segoe UI Emoji" font-size="28px" fill="#1e1e1e" text-anchor="middle" style="white-space: pre;" direction="ltr" dominant-baseline="text-before-edge">자식 노드 주소</text></g><g transform="translate(95.60106820206067 509.67463769551364) rotate(0 41.0620002746582 17.5)"><text x="41.0620002746582" y="0" font-family="Virgil, Segoe UI Emoji" font-size="28px" fill="#1e1e1e" text-anchor="middle" style="white-space: pre;" direction="ltr" dominant-baseline="text-before-edge">Aamer</text></g><g transform="translate(331.7465001406514 512.8537296656829) rotate(0 9.968000411987305 17.5)"><text x="9.968000411987305" y="0" font-family="Virgil, Segoe UI Emoji" font-size="28px" fill="#1e1e1e" text-anchor="middle" style="white-space: pre;" direction="ltr" dominant-baseline="text-before-edge">2</text></g><g transform="translate(94.8246092432978 579.6146610392383) rotate(0 43.42800521850586 17.5)"><text x="43.42800521850586" y="0" font-family="Virgil, Segoe UI Emoji" font-size="28px" fill="#1e1e1e" text-anchor="middle" style="white-space: pre;" direction="ltr" dominant-baseline="text-before-edge">Jaana</text></g><g transform="translate(332.1805001559102 581.2042070243228) rotate(0 9.534000396728516 17.5)"><text x="9.534000396728516" y="0" font-family="Virgil, Segoe UI Emoji" font-size="28px" fill="#1e1e1e" text-anchor="middle" style="white-space: pre;" direction="ltr" dominant-baseline="text-before-edge">3</text></g><g transform="translate(118.7968851162143 651.1442303680474) rotate(0 11.507999420166016 17.5)"><text x="11.507999420166016" y="0" font-family="Virgil, Segoe UI Emoji" font-size="28px" fill="#1e1e1e" text-anchor="middle" style="white-space: pre;" direction="ltr" dominant-baseline="text-before-edge">...</text></g><g transform="translate(331.7960471175571 647.9501442338092) rotate(0 11.507999420166016 17.5)"><text x="11.507999420166016" y="0" font-family="Virgil, Segoe UI Emoji" font-size="28px" fill="#1e1e1e" text-anchor="middle" style="white-space: pre;" direction="ltr" dominant-baseline="text-before-edge">...</text></g><g stroke-linecap="round" transform="translate(610.6711173893598 10) rotate(0 226.87830838322895 663.3335658844481)"><path d="M32 0 M32 0 C131.85 -0.69, 231.81 -1.25, 421.76 0 M32 0 C181.41 -0.26, 329.68 0.25, 421.76 0 M421.76 0 C444.86 -1.57, 454.49 11.34, 453.76 32 M421.76 0 C443.3 -0.83, 452.13 8.77, 453.76 32 M453.76 32 C452.13 463.74, 452.9 895.81, 453.76 1294.67 M453.76 32 C449.09 297.04, 449 562.06, 453.76 1294.67 M453.76 1294.67 C453.56 1316.11, 444.95 1325.62, 421.76 1326.67 M453.76 1294.67 C452.81 1317.96, 442.45 1325.83, 421.76 1326.67 M421.76 1326.67 C281.44 1328.25, 140.37 1328.56, 32 1326.67 M421.76 1326.67 C302.35 1325.84, 183.28 1325.78, 32 1326.67 M32 1326.67 C10.89 1325.06, -0.05 1317.41, 0 1294.67 M32 1326.67 C12.23 1328.46, 0.22 1314.56, 0 1294.67 M0 1294.67 C-4.38 821.07, -4.53 347.39, 0 32 M0 1294.67 C-2.81 817.99, -3.05 340.55, 0 32 M0 32 C0.76 8.7, 12.36 1.61, 32 0 M0 32 C-0.76 9.87, 8.69 0.21, 32 0" stroke="#1e1e1e" stroke-width="2" fill="none"></path></g><g transform="translate(699.5746394638718 17.707309023652385) rotate(0 147.11399841308594 22.5)"><text x="147.11399841308594" y="0" font-family="Virgil, Segoe UI Emoji" font-size="36px" fill="#1e1e1e" text-anchor="middle" style="white-space: pre;" direction="ltr" dominant-baseline="text-before-edge">브랜치 노드(페이지)</text></g><g stroke-linecap="round" transform="translate(1178.6686067460355 10) rotate(0 226.87830838322895 665.1123804273827)"><path d="M32 0 M32 0 C186.76 0.25, 342.78 -0.54, 421.76 0 M32 0 C152.65 -1.26, 274.36 -2.04, 421.76 0 M421.76 0 C441.56 -1.09, 451.81 11.13, 453.76 32 M421.76 0 C445.38 -1.78, 451.51 11.44, 453.76 32 M453.76 32 C448.93 351.49, 448.77 671.05, 453.76 1298.22 M453.76 32 C455.76 289.19, 455.88 546.1, 453.76 1298.22 M453.76 1298.22 C452.02 1320.61, 445.05 1329.71, 421.76 1330.22 M453.76 1298.22 C454.57 1319.63, 444.07 1331.88, 421.76 1330.22 M421.76 1330.22 C335.7 1329.82, 249.99 1328.28, 32 1330.22 M421.76 1330.22 C310.72 1329.04, 198.54 1328.94, 32 1330.22 M32 1330.22 C9.33 1329.66, 0.2 1318.69, 0 1298.22 M32 1330.22 C11.89 1330.47, -1.8 1318.44, 0 1298.22 M0 1298.22 C4.61 814.13, 4.86 330.04, 0 32 M0 1298.22 C-3.72 851.7, -3.25 406.11, 0 32 M0 32 C-1.59 9.58, 12.26 1.85, 32 0 M0 32 C-2.19 10.55, 8.44 -0.14, 32 0" stroke="#1e1e1e" stroke-width="2" fill="none"></path></g><g stroke-linecap="round" transform="translate(1193.2425482369986 377.205804983295) rotate(0 212.99916200134282 157.3650525233802)"><path d="M32 0 M32 0 C147.52 -1.43, 262.35 -0.64, 394 0 M32 0 C164.13 -1.41, 295.22 -1.13, 394 0 M394 0 C413.38 0.47, 427.99 9.12, 426 32 M394 0 C413.09 0.78, 424.9 8.66, 426 32 M426 32 C423.79 115.36, 423.37 197.15, 426 282.73 M426 32 C424.23 95.22, 423.85 158.41, 426 282.73 M426 282.73 C427.96 303.55, 416.04 314.79, 394 314.73 M426 282.73 C426.98 305.72, 413.49 312.49, 394 314.73 M394 314.73 C309.44 316.5, 225.44 315.76, 32 314.73 M394 314.73 C304.43 314.71, 214.55 314.63, 32 314.73 M32 314.73 C10.86 313.86, 1.07 304.28, 0 282.73 M32 314.73 C8.87 313.61, 1.89 301.88, 0 282.73 M0 282.73 C0.62 183.37, 1.36 84.7, 0 32 M0 282.73 C1.48 224.08, 0.23 163.68, 0 32 M0 32 C1.6 12.51, 8.77 -0.11, 32 0 M0 32 C-2.23 10.53, 11.11 -0.85, 32 0" stroke="#1e1e1e" stroke-width="2" fill="none"></path></g><g transform="translate(1342.0034146227745 396.2803568043108) rotate(0 71.38800048828125 22.5)"><text x="71.38800048828125" y="0" font-family="Virgil, Segoe UI Emoji" font-size="36px" fill="#1e1e1e" text-anchor="middle" style="white-space: pre;" direction="ltr" dominant-baseline="text-before-edge">페이지(5)</text></g><g transform="translate(1286.9380959613457 18.972634048775035) rotate(0 131.54400634765625 22.5)"><text x="131.54400634765625" y="0" font-family="Virgil, Segoe UI Emoji" font-size="36px" fill="#1e1e1e" text-anchor="middle" style="white-space: pre;" direction="ltr" dominant-baseline="text-before-edge">리프 노드(페이지)</text></g><g stroke-linecap="round"><g transform="translate(1192.4739102817443 436.0190064314271) rotate(0 214.4429228689056 0.44047347054140573)"><path d="M-0.82 0.41 C70.69 0.35, 358.2 0.3, 429.71 0.39 M0.95 -0.42 C72.29 -0.45, 357.42 0.91, 429.04 1.3" stroke="#1e1e1e" stroke-width="2" fill="none"></path></g></g><mask></mask><g stroke-linecap="round"><g transform="translate(1407.0626182681722 437.60855241651154) rotate(0 1.1273416575029387 126.0382888161345)"><path d="M0.53 -1.2 C0.78 40.75, 0.69 209.71, 0.67 252.08 M-0.65 0.79 C0.05 42.84, 2.34 210.99, 2.9 253.27" stroke="#1e1e1e" stroke-width="2" fill="none"></path></g></g><mask></mask><g stroke-linecap="round"><g transform="translate(1193.6445939006621 487.42839724802025) rotate(0 214.5944193564078 0.6063371463476699)"><path d="M-0.92 -0.66 C70.33 -0.14, 356.13 1.65, 428.01 1.87 M0.8 1.61 C72.35 1.85, 358.53 -0.09, 430.11 -0.11" stroke="#1e1e1e" stroke-width="2" fill="none"></path></g></g><mask></mask><g stroke-linecap="round"><g transform="translate(1192.3541525583091 555.8918079021277) rotate(0 214.60197632568895 0.5465904891474906)"><path d="M-1.17 0.28 C70.71 0.5, 358.84 0.38, 430.37 0.66 M0.42 -0.62 C72.33 -0.22, 358.41 1.63, 430.05 1.71" stroke="#1e1e1e" stroke-width="2" fill="none"></path></g></g><mask></mask><g stroke-linecap="round"><g transform="translate(1192.3541525583091 626.0109232160215) rotate(0 215.23436640090324 0.5334054513632509)"><path d="M1.2 -0.93 C72.73 -0.64, 356.77 1.75, 428.01 1.99 M0.36 1.2 C72.35 1.09, 358.91 0.07, 430.1 0.08" stroke="#1e1e1e" stroke-width="2" fill="none"></path></g></g><mask></mask><g transform="translate(1243.533492655707 445.7876443866809) rotate(0 55.439998626708984 17.5)"><text x="55.439998626708984" y="0" font-family="Virgil, Segoe UI Emoji" font-size="28px" fill="#1e1e1e" text-anchor="middle" style="white-space: pre;" direction="ltr" dominant-baseline="text-before-edge">인덱스 키</text></g><g transform="translate(1431.954465681311 443.00401226735823) rotate(0 79.66000366210926 17.5)"><text x="79.66000366210938" y="0" font-family="Virgil, Segoe UI Emoji" font-size="28px" fill="#1e1e1e" text-anchor="middle" style="white-space: pre;" direction="ltr" dominant-baseline="text-before-edge">프라이머리 키</text></g><g transform="translate(1274.0136744292977 502.7799378049823) rotate(0 31.31800079345703 17.5)"><text x="31.31800079345703" y="0" font-family="Virgil, Segoe UI Emoji" font-size="28px" fill="#1e1e1e" text-anchor="middle" style="white-space: pre;" direction="ltr" dominant-baseline="text-before-edge">Ebbe</text></g><g transform="translate(1471.1411067188408 505.9590297751514) rotate(0 39.242000579833984 17.5)"><text x="39.242000579833984" y="0" font-family="Virgil, Segoe UI Emoji" font-size="28px" fill="#1e1e1e" text-anchor="middle" style="white-space: pre;" direction="ltr" dominant-baseline="text-before-edge">10057</text></g><g transform="translate(1254.5192245952908 572.7199611487068) rotate(0 52.40199661254883 17.5)"><text x="52.40199661254883" y="0" font-family="Virgil, Segoe UI Emoji" font-size="28px" fill="#1e1e1e" text-anchor="middle" style="white-space: pre;" direction="ltr" dominant-baseline="text-before-edge">Fabrizio</text></g><g transform="translate(1474.4731074512626 574.3095071337915) rotate(0 35.90999984741211 17.5)"><text x="35.90999984741211" y="0" font-family="Virgil, Segoe UI Emoji" font-size="28px" fill="#1e1e1e" text-anchor="middle" style="white-space: pre;" direction="ltr" dominant-baseline="text-before-edge">11854</text></g><g transform="translate(1287.46549186225 644.249530477516) rotate(0 11.507999420166016 17.5)"><text x="11.507999420166016" y="0" font-family="Virgil, Segoe UI Emoji" font-size="28px" fill="#1e1e1e" text-anchor="middle" style="white-space: pre;" direction="ltr" dominant-baseline="text-before-edge">...</text></g><g transform="translate(1500.464653863593 641.0554443432778) rotate(0 11.507999420166016 17.5)"><text x="11.507999420166016" y="0" font-family="Virgil, Segoe UI Emoji" font-size="28px" fill="#1e1e1e" text-anchor="middle" style="white-space: pre;" direction="ltr" dominant-baseline="text-before-edge">...</text></g><g stroke-linecap="round" transform="translate(623.0151093999343 64.13221876401587) rotate(0 212.99916200134294 193.58818930589786)"><path d="M32 0 M32 0 C125.7 2.23, 221.2 0.88, 394 0 M32 0 C148.94 -1, 264.77 -1.16, 394 0 M394 0 C413.95 -0.08, 424.49 10.34, 426 32 M394 0 C416.23 -0.65, 425.27 11.31, 426 32 M426 32 C422.6 141.5, 424.66 253.45, 426 355.18 M426 32 C423.82 114, 424.09 196.41, 426 355.18 M426 355.18 C425.24 375.42, 416.77 387.31, 394 387.18 M426 355.18 C425.55 375.08, 413.17 388.48, 394 387.18 M394 387.18 C311 385.78, 227.46 385.84, 32 387.18 M394 387.18 C258.77 385.87, 122.68 385.76, 32 387.18 M32 387.18 C9.05 389.09, 1.4 374.9, 0 355.18 M32 387.18 C8.58 385.53, -0.23 377.21, 0 355.18 M0 355.18 C0.19 241.71, 2.14 125.23, 0 32 M0 355.18 C-0.94 258.26, -0.19 162.38, 0 32 M0 32 C-0.13 9.42, 11.86 -1.03, 32 0 M0 32 C-1.83 9.59, 9.99 2.04, 32 0" stroke="#1e1e1e" stroke-width="2" fill="none"></path></g><g transform="translate(770.0839744429368 82.3011921654687) rotate(0 73.08000183105469 22.5)"><text x="73.08000183105469" y="0" font-family="Virgil, Segoe UI Emoji" font-size="36px" fill="#1e1e1e" text-anchor="middle" style="white-space: pre;" direction="ltr" dominant-baseline="text-before-edge">페이지(2)</text></g><g stroke-linecap="round"><g transform="translate(622.2464714446801 122.03984179258498) rotate(0 214.88325618761598 0.8755609630591579)"><path d="M-0.37 0.26 C71.16 0.61, 358.36 2.01, 430.14 2.41 M1.63 -0.65 C73.02 -0.66, 358.28 0.46, 429.7 0.71" stroke="#1e1e1e" stroke-width="2" fill="none"></path></g></g><mask></mask><g stroke-linecap="round"><g transform="translate(836.8351794311079 123.62938777766954) rotate(0 1.3725688649512904 165.93333490528786)"><path d="M0.96 0.82 C1.48 56.05, 2.6 276.58, 2.74 331.67 M0.01 0.2 C0.5 55.1, 2.21 275.23, 2.39 330.1" stroke="#1e1e1e" stroke-width="2" fill="none"></path></g></g><mask></mask><g stroke-linecap="round"><g transform="translate(623.4171550635979 173.44923260917818) rotate(0 214.81651475292642 1.353987409729342)"><path d="M1.15 1.05 C72.54 1.3, 358.14 2.25, 429.34 2.33 M0.29 0.56 C71.46 0.4, 356.73 0.22, 428.48 0.6" stroke="#1e1e1e" stroke-width="2" fill="none"></path></g></g><mask></mask><g stroke-linecap="round"><g transform="translate(622.1267137212444 241.91264326328553) rotate(0 214.70863648689362 1.5734189891799133)"><path d="M0.17 0.74 C71.37 0.83, 357 1.44, 428.35 1.54 M-1.21 0.09 C70.27 0.89, 358.64 2.64, 430.62 3.06" stroke="#1e1e1e" stroke-width="2" fill="none"></path></g></g><mask></mask><g stroke-linecap="round"><g transform="translate(622.1267137212444 312.0317585771794) rotate(0 214.8402483625432 0.8555196246488777)"><path d="M-0.83 -0.05 C70.52 0.06, 356.53 1.18, 428.27 1.39 M0.94 -1.12 C72.65 -0.89, 359.15 2.24, 430.51 2.83" stroke="#1e1e1e" stroke-width="2" fill="none"></path></g></g><mask></mask><g transform="translate(673.3060538186428 131.80847974783887) rotate(0 55.439998626708984 17.5)"><text x="55.439998626708984" y="0" font-family="Virgil, Segoe UI Emoji" font-size="28px" fill="#1e1e1e" text-anchor="middle" style="white-space: pre;" direction="ltr" dominant-baseline="text-before-edge">인덱스 키</text></g><g transform="translate(854.7270344736412 129.0248476285161) rotate(0 86.65999603271484 17.5)"><text x="86.65999603271484" y="0" font-family="Virgil, Segoe UI Emoji" font-size="28px" fill="#1e1e1e" text-anchor="middle" style="white-space: pre;" direction="ltr" dominant-baseline="text-before-edge">자식 노드 주소</text></g><g transform="translate(694.0422361110323 188.80077316614017) rotate(0 41.0620002746582 17.5)"><text x="41.0620002746582" y="0" font-family="Virgil, Segoe UI Emoji" font-size="28px" fill="#1e1e1e" text-anchor="middle" style="white-space: pre;" direction="ltr" dominant-baseline="text-before-edge">Aamer</text></g><g transform="translate(931.1956684234633 191.9798651363094) rotate(0 8.960000038146973 17.5)"><text x="8.960000038146973" y="0" font-family="Virgil, Segoe UI Emoji" font-size="28px" fill="#1e1e1e" text-anchor="middle" style="white-space: pre;" direction="ltr" dominant-baseline="text-before-edge">4</text></g><g transform="translate(705.3757815773179 258.7407965098648) rotate(0 31.31800079345703 17.5)"><text x="31.31800079345703" y="0" font-family="Virgil, Segoe UI Emoji" font-size="28px" fill="#1e1e1e" text-anchor="middle" style="white-space: pre;" direction="ltr" dominant-baseline="text-before-edge">Ebbe</text></g><g transform="translate(931.5036680343642 261.2359209145123) rotate(0 8.652000427246094 17.5)"><text x="8.652000427246094" y="0" font-family="Virgil, Segoe UI Emoji" font-size="28px" fill="#1e1e1e" text-anchor="middle" style="white-space: pre;" direction="ltr" dominant-baseline="text-before-edge">5</text></g><g transform="translate(700.3960539712307 330.2703658386739) rotate(0 28.349998474121094 17.5)"><text x="28.349998474121094" y="0" font-family="Virgil, Segoe UI Emoji" font-size="28px" fill="#1e1e1e" text-anchor="middle" style="white-space: pre;" direction="ltr" dominant-baseline="text-before-edge">Gad</text></g><g transform="translate(932.7852144085477 327.0762797044357) rotate(0 8.960000038146973 17.5)"><text x="8.960000038146973" y="0" font-family="Virgil, Segoe UI Emoji" font-size="28px" fill="#1e1e1e" text-anchor="middle" style="white-space: pre;" direction="ltr" dominant-baseline="text-before-edge">6</text></g><g stroke-linecap="round" transform="translate(626.4019215104227 997.7389736674608) rotate(0 212.99916200134294 157.36505252338026)"><path d="M32 0 M32 0 C135.66 -0.42, 240.87 -1.34, 394 0 M32 0 C153.67 0.27, 275.92 0.67, 394 0 M394 0 C414.37 -0.89, 424.53 12.44, 426 32 M394 0 C417.32 -0.44, 424.81 10.67, 426 32 M426 32 C425.24 92.98, 424.73 153.42, 426 282.73 M426 32 C427.34 98.86, 427.24 164.75, 426 282.73 M426 282.73 C427.52 302.09, 415.03 314.61, 394 314.73 M426 282.73 C427.49 306.23, 414.35 315.81, 394 314.73 M394 314.73 C273.61 314.02, 151.2 315.05, 32 314.73 M394 314.73 C311.34 315.95, 228.07 316.46, 32 314.73 M32 314.73 C11.54 316.35, -0.39 305.12, 0 282.73 M32 314.73 C9.42 316.49, 1.04 303.7, 0 282.73 M0 282.73 C-0.97 196.4, 0.23 114.15, 0 32 M0 282.73 C2.16 202.92, 0.73 123.99, 0 32 M0 32 C-0.41 11.94, 11.67 -1.78, 32 0 M0 32 C-1.75 9.64, 10.92 0.54, 32 0" stroke="#1e1e1e" stroke-width="2" fill="none"></path></g><g transform="translate(774.0287852106517 1016.8135254884766) rotate(0 72.52200317382812 22.499999999999943)"><text x="72.52200317382812" y="0" font-family="Virgil, Segoe UI Emoji" font-size="36px" fill="#1e1e1e" text-anchor="middle" style="white-space: pre;" direction="ltr" dominant-baseline="text-before-edge">페이지(3)</text></g><g stroke-linecap="round"><g transform="translate(625.6332835551689 1056.552175115593) rotate(0 214.66199601623248 1.1725758763200247)"><path d="M-0.46 0.44 C71.1 0.71, 358.28 1.2, 429.78 1.32 M1.5 -0.37 C72.92 0.1, 358.15 2.28, 429.15 2.71" stroke="#1e1e1e" stroke-width="2" fill="none"></path></g></g><mask></mask><g stroke-linecap="round"><g transform="translate(840.2219915415963 1058.1417211006774) rotate(0 1.4210556131771455 126.05728648069794)"><path d="M0.61 -0.27 C0.85 41.7, 0.84 210.06, 0.98 252.28 M-0.54 -1.46 C0.14 40.64, 3.18 210.91, 3.38 253.57" stroke="#1e1e1e" stroke-width="2" fill="none"></path></g></g><mask></mask><g stroke-linecap="round"><g transform="translate(626.8039671740862 1107.9615659321862) rotate(0 214.22806731197068 0.06515765932226714)"><path d="M-0.61 -0.46 C70.8 -0.1, 357.53 1.62, 429.06 1.88 M1.28 -1.75 C72.47 -1.75, 357.01 -0.73, 428.05 -0.09" stroke="#1e1e1e" stroke-width="2" fill="none"></path></g></g><mask></mask><g stroke-linecap="round"><g transform="translate(625.5135258317332 1176.4249765862937) rotate(0 214.68553382174127 0.8546694176442315)"><path d="M-0.12 0.29 C71.42 0.54, 357.2 0.66, 428.6 1.06 M-1.64 -0.61 C70.35 -0.16, 358.95 2.07, 431.01 2.32" stroke="#1e1e1e" stroke-width="2" fill="none"></path></g></g><mask></mask><g stroke-linecap="round"><g transform="translate(625.5135258317332 1246.5440919001876) rotate(0 214.98374816710145 1.0610960221647474)"><path d="M-0.58 -0.53 C70.82 -0.14, 356.5 2.34, 428.3 2.65 M1.32 1.8 C73.11 1.86, 359.1 0.96, 430.55 1.09" stroke="#1e1e1e" stroke-width="2" fill="none"></path></g></g><mask></mask><g transform="translate(676.6928659291311 1066.3208130708467) rotate(0 55.439998626708984 17.5)"><text x="55.439998626708984" y="0" font-family="Virgil, Segoe UI Emoji" font-size="28px" fill="#1e1e1e" text-anchor="middle" style="white-space: pre;" direction="ltr" dominant-baseline="text-before-edge">인덱스 키</text></g><g transform="translate(858.1138465841295 1063.537180951524) rotate(0 86.65999603271484 17.5)"><text x="86.65999603271484" y="0" font-family="Virgil, Segoe UI Emoji" font-size="28px" fill="#1e1e1e" text-anchor="middle" style="white-space: pre;" direction="ltr" dominant-baseline="text-before-edge">자식 노드 주소</text></g><g transform="translate(695.0630432776729 1123.3131064891481) rotate(0 43.42800521850586 17.5)"><text x="43.42800521850586" y="0" font-family="Virgil, Segoe UI Emoji" font-size="28px" fill="#1e1e1e" text-anchor="middle" style="white-space: pre;" direction="ltr" dominant-baseline="text-before-edge">Jaana</text></g><g transform="translate(936.0104805072488 1126.4921984593175) rotate(0 7.5320000648498535 17.5)"><text x="7.5320000648498535" y="0" font-family="Virgil, Segoe UI Emoji" font-size="28px" fill="#1e1e1e" text-anchor="middle" style="white-space: pre;" direction="ltr" dominant-baseline="text-before-edge">7</text></g><g transform="translate(689.0925955188613 1193.2531298328727) rotate(0 50.987998962402344 17.5)"><text x="50.987998962402344" y="0" font-family="Virgil, Segoe UI Emoji" font-size="28px" fill="#1e1e1e" text-anchor="middle" style="white-space: pre;" direction="ltr" dominant-baseline="text-before-edge">Lakshmi</text></g><g transform="translate(932.8324805339516 1194.8426758179576) rotate(0 10.710000038146973 17.5)"><text x="10.710000038146973" y="0" font-family="Virgil, Segoe UI Emoji" font-size="28px" fill="#1e1e1e" text-anchor="middle" style="white-space: pre;" direction="ltr" dominant-baseline="text-before-edge">8</text></g><g transform="translate(720.6248651356741 1264.782699161682) rotate(0 11.507999420166016 17.5)"><text x="11.507999420166016" y="0" font-family="Virgil, Segoe UI Emoji" font-size="28px" fill="#1e1e1e" text-anchor="middle" style="white-space: pre;" direction="ltr" dominant-baseline="text-before-edge">...</text></g><g transform="translate(933.624027137017 1261.588613027444) rotate(0 11.507999420166016 17.5)"><text x="11.507999420166016" y="0" font-family="Virgil, Segoe UI Emoji" font-size="28px" fill="#1e1e1e" text-anchor="middle" style="white-space: pre;" direction="ltr" dominant-baseline="text-before-edge">...</text></g><g stroke-linecap="round" transform="translate(1192.246248314077 60.01064520934449) rotate(0 212.99916200134305 157.3650525233802)"><path d="M32 0 M32 0 C152.48 1.17, 273.26 0.56, 394 0 M32 0 C121.51 -1.02, 211.55 -0.95, 394 0 M394 0 C415.51 0.78, 427.56 10.78, 426 32 M394 0 C414.62 -1.17, 425.58 11.42, 426 32 M426 32 C425.36 118.64, 426.86 203.17, 426 282.73 M426 32 C427.95 84.52, 427.47 135.51, 426 282.73 M426 282.73 C427.27 303.45, 416.47 315.32, 394 314.73 M426 282.73 C424.63 303.11, 413.27 314.18, 394 314.73 M394 314.73 C317.62 312.74, 240.81 313.08, 32 314.73 M394 314.73 C264.7 313.01, 134.81 312.73, 32 314.73 M32 314.73 C9.34 315.48, 0.06 305.97, 0 282.73 M32 314.73 C12.77 314.08, -1.55 302.89, 0 282.73 M0 282.73 C-2.77 199.12, -3.54 117.45, 0 32 M0 282.73 C-1.93 186.1, -2.05 89.83, 0 32 M0 32 C-0.97 11.06, 11.77 0.23, 32 0 M0 32 C-1.93 11.34, 9.39 -1.61, 32 0" stroke="#1e1e1e" stroke-width="2" fill="none"></path></g><g transform="translate(1340.6111186061025 79.08519703036029) rotate(0 71.78399658203125 22.5)"><text x="71.78399658203125" y="0" font-family="Virgil, Segoe UI Emoji" font-size="36px" fill="#1e1e1e" text-anchor="middle" style="white-space: pre;" direction="ltr" dominant-baseline="text-before-edge">페이지(4)</text></g><g stroke-linecap="round"><g transform="translate(1191.4776103588229 118.82384665747657) rotate(0 214.6511019918604 0.6158092356084666)"><path d="M-0.32 -0.63 C71.24 -0.14, 358.1 1.65, 429.63 1.86 M1.71 1.66 C73.13 1.86, 357.89 -0.08, 428.91 -0.12" stroke="#1e1e1e" stroke-width="2" fill="none"></path></g></g><mask></mask><g stroke-linecap="round"><g transform="translate(1406.0663183452507 120.41339264256112) rotate(0 0.2235736076052035 126.07625155720397)"><path d="M0.45 0.27 C0.71 42.33, 0.99 209.83, 1.22 251.76 M-0.77 -0.64 C-0.68 41.6, -0.25 210.55, 0.08 252.79" stroke="#1e1e1e" stroke-width="2" fill="none"></path></g></g><mask></mask><g stroke-linecap="round"><g transform="translate(1192.6482939777407 170.23323747406977) rotate(0 214.53181028100664 0.44945731322972904)"><path d="M-0.37 -0.97 C71.13 -0.9, 357.82 0.24, 429.43 0.75 M1.64 1.13 C72.96 1.31, 357.46 2.04, 428.62 1.84" stroke="#1e1e1e" stroke-width="2" fill="none"></path></g></g><mask></mask><g stroke-linecap="round"><g transform="translate(1191.3578526353872 238.69664812817712) rotate(0 214.1076364829579 0.6064720368741945)"><path d="M0.25 -0.84 C71.86 -0.34, 357.64 1.64, 429.29 2.06 M-1.07 1.33 C70.42 1.55, 356.58 -0.1, 428.4 0.18" stroke="#1e1e1e" stroke-width="2" fill="none"></path></g></g><mask></mask><g stroke-linecap="round"><g transform="translate(1191.3578526353872 308.815763442071) rotate(0 214.41237079331677 1.4487282871252773)"><path d="M0.11 0.47 C71.75 0.88, 358.67 1.57, 430.12 1.66 M-1.29 -0.33 C70.25 0.37, 358.14 2.85, 429.66 3.23" stroke="#1e1e1e" stroke-width="2" fill="none"></path></g></g><mask></mask><g transform="translate(1242.5371927327851 128.59248461273046) rotate(0 55.439998626708984 17.5)"><text x="55.439998626708984" y="0" font-family="Virgil, Segoe UI Emoji" font-size="28px" fill="#1e1e1e" text-anchor="middle" style="white-space: pre;" direction="ltr" dominant-baseline="text-before-edge">인덱스 키</text></g><g transform="translate(1430.9581657583897 125.8088524934077) rotate(0 79.66000366210938 17.5)"><text x="79.66000366210938" y="0" font-family="Virgil, Segoe UI Emoji" font-size="28px" fill="#1e1e1e" text-anchor="middle" style="white-space: pre;" direction="ltr" dominant-baseline="text-before-edge">프라이머리 키</text></g><g transform="translate(1263.2733750251746 185.58477803103176) rotate(0 41.0620002746582 17.5)"><text x="41.0620002746582" y="0" font-family="Virgil, Segoe UI Emoji" font-size="28px" fill="#1e1e1e" text-anchor="middle" style="white-space: pre;" direction="ltr" dominant-baseline="text-before-edge">Aamer</text></g><g transform="translate(1471.8248071010946 188.76387000120098) rotate(0 37.5620002746582 17.5)"><text x="37.5620002746582" y="0" font-family="Virgil, Segoe UI Emoji" font-size="28px" fill="#1e1e1e" text-anchor="middle" style="white-space: pre;" direction="ltr" dominant-baseline="text-before-edge">11800</text></g><g transform="translate(1248.1609213459528 255.5248013747564) rotate(0 57.763999938964844 17.5)"><text x="57.763999938964844" y="0" font-family="Virgil, Segoe UI Emoji" font-size="28px" fill="#1e1e1e" text-anchor="middle" style="white-space: pre;" direction="ltr" dominant-baseline="text-before-edge">Babette</text></g><g transform="translate(1471.4888085659384 257.11434735984096) rotate(0 37.89799880981445 17.5)"><text x="37.89799880981445" y="0" font-family="Virgil, Segoe UI Emoji" font-size="28px" fill="#1e1e1e" text-anchor="middle" style="white-space: pre;" direction="ltr" dominant-baseline="text-before-edge">10128</text></g><g transform="translate(1286.469191939328 327.0543707035655) rotate(0 11.507999420166016 17.5)"><text x="11.507999420166016" y="0" font-family="Virgil, Segoe UI Emoji" font-size="28px" fill="#1e1e1e" text-anchor="middle" style="white-space: pre;" direction="ltr" dominant-baseline="text-before-edge">...</text></g><g transform="translate(1499.4683539406715 323.8602845693273) rotate(0 11.507999420166016 17.5)"><text x="11.507999420166016" y="0" font-family="Virgil, Segoe UI Emoji" font-size="28px" fill="#1e1e1e" text-anchor="middle" style="white-space: pre;" direction="ltr" dominant-baseline="text-before-edge">...</text></g><g stroke-linecap="round" transform="translate(1197.0702410167396 696.7776819607586) rotate(0 212.99916200134305 157.3650525233802)"><path d="M32 0 M32 0 C171.23 -1.47, 311.9 -0.99, 394 0 M32 0 C107.41 2.59, 183.96 2.49, 394 0 M394 0 C415.69 -1.38, 427.34 11.99, 426 32 M394 0 C414.64 1.35, 428.14 11.26, 426 32 M426 32 C425.58 92.48, 425.88 152.72, 426 282.73 M426 32 C426.22 119.04, 426.21 206.62, 426 282.73 M426 282.73 C427.57 304.84, 415.01 314.72, 394 314.73 M426 282.73 C427.22 306.27, 414.08 315.34, 394 314.73 M394 314.73 C253.76 317.44, 112.36 316.49, 32 314.73 M394 314.73 C298.34 314.22, 202.12 314.69, 32 314.73 M32 314.73 C11.1 313.58, -1.13 302.65, 0 282.73 M32 314.73 C10.85 315.18, -0.54 304.8, 0 282.73 M0 282.73 C1.15 230.4, 0.4 178.46, 0 32 M0 282.73 C1.58 212.82, 0.11 143.59, 0 32 M0 32 C-1.5 9.89, 10.52 -0.16, 32 0 M0 32 C1.23 11.34, 12.5 1.26, 32 0" stroke="#1e1e1e" stroke-width="2" fill="none"></path></g><g transform="translate(1345.435111308765 715.8522337817744) rotate(0 71.78399658203125 22.5)"><text x="71.78399658203125" y="0" font-family="Virgil, Segoe UI Emoji" font-size="36px" fill="#1e1e1e" text-anchor="middle" style="white-space: pre;" direction="ltr" dominant-baseline="text-before-edge">페이지(6)</text></g><g stroke-linecap="round"><g transform="translate(1196.3016030614854 755.5908834088906) rotate(0 214.81746392411185 0.14968679494268144)"><path d="M0.64 -1.08 C72.3 -1.16, 358.86 -0.13, 430.12 0.44 M-0.48 0.96 C71.08 0.91, 357.83 1.46, 429.66 1.38" stroke="#1e1e1e" stroke-width="2" fill="none"></path></g></g><mask></mask><g stroke-linecap="round"><g transform="translate(1410.8903110479132 757.1804293939753) rotate(0 1.377312163336569 126.18687483282298)"><path d="M0.94 -1.15 C0.93 41.29, 0.46 211.11, 0.59 253.52 M-0.02 0.86 C0.28 43.06, 2.6 210.07, 2.78 251.81" stroke="#1e1e1e" stroke-width="2" fill="none"></path></g></g><mask></mask><g stroke-linecap="round"><g transform="translate(1197.4722866804032 807.0002742254838) rotate(0 214.1712045099123 1.1673371639172387)"><path d="M-1 0.78 C70.4 1.34, 357.61 2.19, 429.34 2.19 M0.68 0.15 C71.85 0.45, 357.13 0.13, 428.48 0.38" stroke="#1e1e1e" stroke-width="2" fill="none"></path></g></g><mask></mask><g stroke-linecap="round"><g transform="translate(1196.1818453380497 875.4636848795914) rotate(0 214.09279219773623 0.8658544594033515)"><path d="M0.16 0.6 C71.9 0.59, 357.76 0.47, 429.39 0.76 M-1.21 -0.14 C70.47 -0.08, 356.75 1.77, 428.56 1.87" stroke="#1e1e1e" stroke-width="2" fill="none"></path></g></g><mask></mask><g stroke-linecap="round"><g transform="translate(1196.1818453380497 945.5828001934852) rotate(0 214.4279312275072 0.7792403503118521)"><path d="M0.22 -0.83 C71.85 -0.53, 358.55 1.86, 429.98 2.38 M-1.13 1.36 C70.41 1.27, 357.96 0.85, 429.46 0.68" stroke="#1e1e1e" stroke-width="2" fill="none"></path></g></g><mask></mask><g transform="translate(1247.3611854354476 765.3595213641446) rotate(0 55.439998626708984 17.5)"><text x="55.439998626708984" y="0" font-family="Virgil, Segoe UI Emoji" font-size="28px" fill="#1e1e1e" text-anchor="middle" style="white-space: pre;" direction="ltr" dominant-baseline="text-before-edge">인덱스 키</text></g><g transform="translate(1435.782158461052 762.5758892448217) rotate(0 79.66000366210949 17.5)"><text x="79.66000366210938" y="0" font-family="Virgil, Segoe UI Emoji" font-size="28px" fill="#1e1e1e" text-anchor="middle" style="white-space: pre;" direction="ltr" dominant-baseline="text-before-edge">프라이머리 키</text></g><g transform="translate(1280.8093695283742 822.3518147824458) rotate(0 28.349998474121094 17.5)"><text x="28.349998474121094" y="0" font-family="Virgil, Segoe UI Emoji" font-size="28px" fill="#1e1e1e" text-anchor="middle" style="white-space: pre;" direction="ltr" dominant-baseline="text-before-edge">Gad</text></g><g transform="translate(1476.2007979421849 825.5309067526151) rotate(0 38.01000213623047 17.5)"><text x="38.01000213623047" y="0" font-family="Virgil, Segoe UI Emoji" font-size="28px" fill="#1e1e1e" text-anchor="middle" style="white-space: pre;" direction="ltr" dominant-baseline="text-before-edge">10799</text></g><g transform="translate(1270.330914720002 892.2918381261705) rotate(0 40.417999267578125 17.5)"><text x="40.417999267578125" y="0" font-family="Virgil, Segoe UI Emoji" font-size="28px" fill="#1e1e1e" text-anchor="middle" style="white-space: pre;" direction="ltr" dominant-baseline="text-before-edge">Hailing</text></g><g transform="translate(1478.706802275681 893.8813841112552) rotate(0 35.503997802734375 17.5)"><text x="35.503997802734375" y="0" font-family="Virgil, Segoe UI Emoji" font-size="28px" fill="#1e1e1e" text-anchor="middle" style="white-space: pre;" direction="ltr" dominant-baseline="text-before-edge">11005</text></g><g transform="translate(1291.2931846419906 963.8214074549797) rotate(0 11.507999420166016 17.5)"><text x="11.507999420166016" y="0" font-family="Virgil, Segoe UI Emoji" font-size="28px" fill="#1e1e1e" text-anchor="middle" style="white-space: pre;" direction="ltr" dominant-baseline="text-before-edge">...</text></g><g transform="translate(1504.292346643334 960.6273213207415) rotate(0 11.507999420166016 17.5)"><text x="11.507999420166016" y="0" font-family="Virgil, Segoe UI Emoji" font-size="28px" fill="#1e1e1e" text-anchor="middle" style="white-space: pre;" direction="ltr" dominant-baseline="text-before-edge">...</text></g><g stroke-linecap="round" transform="translate(1196.7341779565654 1017.7790611672802) rotate(0 212.99916200134282 157.36505252338026)"><path d="M32 0 M32 0 C133.94 0.1, 236.49 -0.77, 394 0 M32 0 C150.1 0.57, 267.47 0.81, 394 0 M394 0 C416.71 -1.81, 427.05 8.8, 426 32 M394 0 C414.88 -0.56, 427.64 9.39, 426 32 M426 32 C424.24 104.52, 425.73 173.27, 426 282.73 M426 32 C426.27 107.54, 426.24 183.52, 426 282.73 M426 282.73 C424.22 302.2, 416.37 313.71, 394 314.73 M426 282.73 C427.39 303.66, 415.67 317.03, 394 314.73 M394 314.73 C301.76 314.73, 207.04 313.49, 32 314.73 M394 314.73 C263.81 316.27, 135.03 317.19, 32 314.73 M32 314.73 C11.08 316.63, 0.76 303.57, 0 282.73 M32 314.73 C11.52 316.65, 1.46 304.49, 0 282.73 M0 282.73 C-2.59 219.62, -0.99 152.58, 0 32 M0 282.73 C1.98 195.95, 0.72 108.89, 0 32 M0 32 C0.49 9.89, 11.6 1.99, 32 0 M0 32 C1.33 9.9, 12.54 0.18, 32 0" stroke="#1e1e1e" stroke-width="2" fill="none"></path></g><g transform="translate(1346.935046783747 1036.8536129882964) rotate(0 69.947998046875 22.5)"><text x="69.947998046875" y="0" font-family="Virgil, Segoe UI Emoji" font-size="36px" fill="#1e1e1e" text-anchor="middle" style="white-space: pre;" direction="ltr" dominant-baseline="text-before-edge">페이지(7)</text></g><g stroke-linecap="round"><g transform="translate(1195.9655400013112 1076.5922626154124) rotate(0 214.2718895333728 1.008255248068167)"><path d="M-0.12 0.31 C71.46 0.52, 358.57 1.06, 430.19 1.24 M-1.65 -0.58 C69.8 -0.19, 357.98 2.06, 429.78 2.59" stroke="#1e1e1e" stroke-width="2" fill="none"></path></g></g><mask></mask><g stroke-linecap="round"><g transform="translate(1410.554247987739 1078.1818086004969) rotate(0 1.0721076130665779 126.2090936551756)"><path d="M1.02 -0.35 C1.38 41.69, 2.03 210.33, 2.05 252.55 M0.09 -1.58 C0.35 40.62, 1.34 211.32, 1.35 254" stroke="#1e1e1e" stroke-width="2" fill="none"></path></g></g><mask></mask><g stroke-linecap="round"><g transform="translate(1197.136223620229 1128.0016534320057) rotate(0 213.99033657160612 0.2682081393322733)"><path d="M0.46 -0.18 C71.75 0.19, 357.14 1.75, 428.73 1.86 M-0.75 -1.32 C70.25 -1.31, 355.81 -0.55, 427.55 -0.12" stroke="#1e1e1e" stroke-width="2" fill="none"></path></g></g><mask></mask><g stroke-linecap="round"><g transform="translate(1195.8457822778755 1196.4650640861132) rotate(0 214.7777571822984 0.4211278083904517)"><path d="M-0.45 0.27 C71.14 0.39, 358.29 0.47, 430 0.51 M1.52 -0.63 C72.98 -0.39, 358.18 1.17, 429.49 1.47" stroke="#1e1e1e" stroke-width="2" fill="none"></path></g></g><mask></mask><g stroke-linecap="round"><g transform="translate(1195.8457822778755 1266.584179400007) rotate(0 214.80343713996012 0.1678561062535664)"><path d="M0.82 -1.08 C72.53 -1.05, 358.46 0.07, 429.81 0.47 M-0.2 0.96 C71.44 1.08, 357.82 1.17, 429.19 1.42" stroke="#1e1e1e" stroke-width="2" fill="none"></path></g></g><mask></mask><g transform="translate(1247.0251223752734 1086.3609005706662) rotate(0 55.439998626708984 17.5)"><text x="55.439998626708984" y="0" font-family="Virgil, Segoe UI Emoji" font-size="28px" fill="#1e1e1e" text-anchor="middle" style="white-space: pre;" direction="ltr" dominant-baseline="text-before-edge">인덱스 키</text></g><g transform="translate(1435.4460954008778 1083.5772684513436) rotate(0 79.66000366210926 17.5)"><text x="79.66000366210938" y="0" font-family="Virgil, Segoe UI Emoji" font-size="28px" fill="#1e1e1e" text-anchor="middle" style="white-space: pre;" direction="ltr" dominant-baseline="text-before-edge">프라이머리 키</text></g><g transform="translate(1265.3952997238152 1143.3531939889676) rotate(0 43.42800521850586 17.5)"><text x="43.42800521850586" y="0" font-family="Virgil, Segoe UI Emoji" font-size="28px" fill="#1e1e1e" text-anchor="middle" style="white-space: pre;" direction="ltr" dominant-baseline="text-before-edge">Jaana</text></g><g transform="translate(1477.082737201347 1146.532285959137) rotate(0 36.79199981689453 17.5)"><text x="36.79199981689453" y="0" font-family="Virgil, Segoe UI Emoji" font-size="28px" fill="#1e1e1e" text-anchor="middle" style="white-space: pre;" direction="ltr" dominant-baseline="text-before-edge">11384</text></g><g transform="translate(1268.1474568934427 1214.748613808062) rotate(0 40.80999755859375 17.5)"><text x="40.80999755859375" y="0" font-family="Virgil, Segoe UI Emoji" font-size="28px" fill="#1e1e1e" text-anchor="middle" style="white-space: pre;" direction="ltr" dominant-baseline="text-before-edge">Kagan</text></g><g transform="translate(1470.3347361027143 1214.882763317777) rotate(0 43.540000915527344 17.5)"><text x="43.540000915527344" y="0" font-family="Virgil, Segoe UI Emoji" font-size="28px" fill="#1e1e1e" text-anchor="middle" style="white-space: pre;" direction="ltr" dominant-baseline="text-before-edge">12338</text></g><g transform="translate(1290.9571215818164 1284.8227866615016) rotate(0 11.507999420166016 17.5)"><text x="11.507999420166016" y="0" font-family="Virgil, Segoe UI Emoji" font-size="28px" fill="#1e1e1e" text-anchor="middle" style="white-space: pre;" direction="ltr" dominant-baseline="text-before-edge">...</text></g><g transform="translate(1503.9562835831598 1281.6287005272634) rotate(0 11.507999420166016 17.5)"><text x="11.507999420166016" y="0" font-family="Virgil, Segoe UI Emoji" font-size="28px" fill="#1e1e1e" text-anchor="middle" style="white-space: pre;" direction="ltr" dominant-baseline="text-before-edge">...</text></g><g stroke-linecap="round"><g transform="translate(623.0871988844842 388.5118971673455) rotate(0 215.45631020114763 0.44869243946698134)"><path d="M1.14 0.1 C72.71 0.47, 357.05 1.36, 428.36 1.79 M0.27 -0.9 C72.33 -0.88, 359.34 -0.53, 430.64 -0.22" stroke="#1e1e1e" stroke-width="2" fill="none"></path></g></g><mask></mask><g transform="translate(726.805821674938 398.42320098762383) rotate(0 11.507999420166016 17.5)"><text x="11.507999420166016" y="0" font-family="Virgil, Segoe UI Emoji" font-size="28px" fill="#1e1e1e" text-anchor="middle" style="white-space: pre;" direction="ltr" dominant-baseline="text-before-edge">...</text></g><g transform="translate(937.8055934331032 402.95109308543846) rotate(0 11.507999420166016 17.5)"><text x="11.507999420166016" y="0" font-family="Virgil, Segoe UI Emoji" font-size="28px" fill="#1e1e1e" text-anchor="middle" style="white-space: pre;" direction="ltr" dominant-baseline="text-before-edge">...</text></g><g stroke-linecap="round"><g transform="translate(448.4971726638155 533.2204669916125) rotate(0 87.86366187912648 -160.5254966319802)"><path d="M0.19 -0.69 C29.12 -54.29, 145.51 -268.87, 174.64 -322.61 M-1.18 1.56 C28.04 -51.74, 147.73 -267.11, 176.9 -321.05" stroke="#1e1e1e" stroke-width="2" fill="none"></path></g><g transform="translate(448.4971726638155 533.2204669916125) rotate(0 87.86366187912648 -160.5254966319802)"><path d="M171.18 -292.82 C174.44 -303.84, 175.32 -312.82, 174.97 -320.46 M172.85 -291.88 C173.64 -299.76, 175.05 -305.81, 176.88 -320.33" stroke="#1e1e1e" stroke-width="2" fill="none"></path></g><g transform="translate(448.4971726638155 533.2204669916125) rotate(0 87.86366187912648 -160.5254966319802)"><path d="M153.19 -302.69 C163.35 -309.91, 171.2 -315.07, 174.97 -320.46 M154.86 -301.76 C160.22 -307.02, 166.16 -310.58, 176.88 -320.33" stroke="#1e1e1e" stroke-width="2" fill="none"></path></g></g><mask></mask><g stroke-linecap="round"><g transform="translate(448.4971726638155 595.4902550927163) rotate(0 90.36304684245567 275.9650564309442)"><path d="M0.75 1.14 C30.74 93.14, 150.86 459.39, 181.03 551.23 M-0.31 0.7 C29.41 92.38, 149.74 457.61, 180.03 549.23" stroke="#1e1e1e" stroke-width="2" fill="none"></path></g><g transform="translate(448.4971726638155 595.4902550927163) rotate(0 90.36304684245567 275.9650564309442)"><path d="M163.36 525.48 C169 535.93, 177.87 542.68, 178.67 550.07 M161.2 525.22 C165.74 531.43, 169.8 536.67, 180.6 549.35" stroke="#1e1e1e" stroke-width="2" fill="none"></path></g><g transform="translate(448.4971726638155 595.4902550927163) rotate(0 90.36304684245567 275.9650564309442)"><path d="M182.85 519.06 C180.79 532.15, 181.99 541.42, 178.67 550.07 M180.69 518.8 C180.87 526.33, 180.61 532.99, 180.6 549.35" stroke="#1e1e1e" stroke-width="2" fill="none"></path></g></g><mask></mask><g stroke-linecap="round"><g transform="translate(1048.5514943653611 210.54974683134748) rotate(0 70.59078643511293 -0.8521863721166056)"><path d="M-0.88 0.56 C22.96 0.34, 118.25 -1.92, 142.06 -2.26 M0.86 -0.2 C24.67 -0.16, 117.96 -0.35, 141.4 -0.92" stroke="#1e1e1e" stroke-width="2" fill="none"></path></g><g transform="translate(1048.5514943653611 210.54974683134748) rotate(0 70.59078643511293 -0.8521863721166056)"><path d="M114.26 10.56 C118.93 8.37, 126.34 4.93, 141.04 -2.55 M113.93 9.59 C120.22 6.33, 127.17 4.66, 141.54 -0.86" stroke="#1e1e1e" stroke-width="2" fill="none"></path></g><g transform="translate(1048.5514943653611 210.54974683134748) rotate(0 70.59078643511293 -0.8521863721166056)"><path d="M114.02 -9.96 C118.58 -7.66, 126.04 -6.6, 141.04 -2.55 M113.69 -10.93 C120.08 -9.06, 127.09 -5.6, 141.54 -0.86" stroke="#1e1e1e" stroke-width="2" fill="none"></path></g></g><mask></mask><g stroke-linecap="round"><g transform="translate(1050.4384576411521 280.3673880356154) rotate(0 73.31124127563226 122.51174755501751)"><path d="M1.12 0.97 C25.23 41.38, 120.2 202.58, 144.23 243.18 M0.25 0.44 C24.76 40.97, 122.33 204.2, 146.38 244.59" stroke="#1e1e1e" stroke-width="2" fill="none"></path></g><g transform="translate(1050.4384576411521 280.3673880356154) rotate(0 73.31124127563226 122.51174755501751)"><path d="M124.74 223.85 C128.9 230.38, 137.23 236.05, 147.13 243.9 M123.72 226.33 C131.59 233.61, 141.2 239.49, 146.88 244.07" stroke="#1e1e1e" stroke-width="2" fill="none"></path></g><g transform="translate(1050.4384576411521 280.3673880356154) rotate(0 73.31124127563226 122.51174755501751)"><path d="M142.36 213.34 C141.98 222.77, 145.71 231.19, 147.13 243.9 M141.34 215.81 C142.57 227.13, 145.45 237.02, 146.88 244.07" stroke="#1e1e1e" stroke-width="2" fill="none"></path></g></g><mask></mask><g stroke-linecap="round"><g transform="translate(1052.3254209169431 350.18502923988325) rotate(0 71.91391199715565 246.0327860505855)"><path d="M-1.08 0.1 C22.92 82.41, 120.43 410.93, 144.91 492.96 M0.55 -0.9 C24.28 81.13, 119.63 408.68, 143.76 491.08" stroke="#1e1e1e" stroke-width="2" fill="none"></path></g><g transform="translate(1052.3254209169431 350.18502923988325) rotate(0 71.91391199715565 246.0327860505855)"><path d="M126.18 466.25 C133.27 477.02, 138.84 484.57, 145.71 492.83 M125.12 466.24 C131.85 473.36, 136.14 481.53, 143.77 490.81" stroke="#1e1e1e" stroke-width="2" fill="none"></path></g><g transform="translate(1052.3254209169431 350.18502923988325) rotate(0 71.91391199715565 246.0327860505855)"><path d="M145.88 460.5 C145.53 473.25, 143.71 482.96, 145.71 492.83 M144.82 460.5 C146 469.17, 144.72 478.96, 143.77 490.81" stroke="#1e1e1e" stroke-width="2" fill="none"></path></g></g><mask></mask><g stroke-linecap="round"><g transform="translate(1056.0993474685251 1144.5965683479044) rotate(0 69.04247839792049 6.420716546784092)"><path d="M-0.61 0.26 C22.62 2.36, 115.76 10.03, 138.7 12.38 M1.27 -0.64 C24.48 1.6, 115.2 11.27, 138.25 13.49" stroke="#1e1e1e" stroke-width="2" fill="none"></path></g><g transform="translate(1056.0993474685251 1144.5965683479044) rotate(0 69.04247839792049 6.420716546784092)"><path d="M109.6 22.42 C114.86 17.99, 125.27 17.57, 137.46 11.86 M109.15 21.43 C119.56 18.1, 129.37 14.74, 137.65 14.09" stroke="#1e1e1e" stroke-width="2" fill="none"></path></g><g transform="translate(1056.0993474685251 1144.5965683479044) rotate(0 69.04247839792049 6.420716546784092)"><path d="M111.68 2 C116.4 2.52, 126.31 7.05, 137.46 11.86 M111.24 1.02 C120.98 5.14, 130.03 9.25, 137.65 14.09" stroke="#1e1e1e" stroke-width="2" fill="none"></path></g></g><mask></mask><g stroke-linecap="round"><g transform="translate(759.8461131693346 452.0810461325986) rotate(0 3.9927868622705773 269.6418056882436)"><path d="M0.48 -0.06 C1.84 90, 6.52 449.34, 7.5 539.34" stroke="#1e1e1e" stroke-width="2.5" fill="none" stroke-dasharray="8 10"></path></g><g transform="translate(759.8461131693346 452.0810461325986) rotate(0 3.9927868622705773 269.6418056882436)"><path d="M-3.2 511.2 C-1.29 516.14, 2.29 525.56, 9.21 539.3" stroke="#1e1e1e" stroke-width="2.5" fill="none"></path></g><g transform="translate(759.8461131693346 452.0810461325986) rotate(0 3.9927868622705773 269.6418056882436)"><path d="M17.32 510.95 C14.21 516.04, 12.76 525.52, 9.21 539.3" stroke="#1e1e1e" stroke-width="2.5" fill="none"></path></g></g><mask></mask><g stroke-linecap="round"><g transform="translate(905.1422854052432 989.8655797330405) rotate(0 -2.114148716227078 -270.447625362438)"><path d="M-0.6 1.02 C-1.19 -89.24, -3.1 -451.44, -3.62 -541.92" stroke="#1e1e1e" stroke-width="2.5" fill="none" stroke-dasharray="8 10"></path></g><g transform="translate(905.1422854052432 989.8655797330405) rotate(0 -2.114148716227078 -270.447625362438)"><path d="M8.49 -513.54 C3.26 -521.91, 0.4 -530.53, -1.71 -541.67" stroke="#1e1e1e" stroke-width="2.5" fill="none"></path></g><g transform="translate(905.1422854052432 989.8655797330405) rotate(0 -2.114148716227078 -270.447625362438)"><path d="M-12.03 -513.42 C-11.33 -521.72, -8.27 -530.37, -1.71 -541.67" stroke="#1e1e1e" stroke-width="2.5" fill="none"></path></g></g><mask></mask><g stroke-linecap="round"><g transform="translate(26.245234464460623 526.9096721955287) rotate(0 680.9078109734241 40.74100307483417)"><path d="M-0.04 0.85 C163.75 -1.08, 326.38 -1.82, 437.89 -1.9 M-0.55 -0.29 C94.97 -4.22, 190.38 -4.27, 436.28 0.53 M439.86 -1.09 C472.99 -47.29, 507.82 -100.56, 610.21 -243.29 M437.4 -1 C494.64 -73.74, 547.61 -151.35, 610.04 -244.9 M608.38 -245.58 C725.73 -245.99, 844.77 -247.03, 1029.33 -245.91 M608.57 -246.74 C712.51 -246.12, 816.58 -245.44, 1030.17 -245.2 M1030.75 -248.78 C1078.65 -171.68, 1135.07 -94.06, 1195.34 -5.33 M1031.03 -246.84 C1072.29 -191.63, 1111.36 -133.14, 1196.3 -3.19 M1195.07 -7.77 C1237.18 -4.65, 1276.13 -1.93, 1361.34 -12.34 M1194.46 -4.24 C1254.97 -1.85, 1311.23 -3.13, 1361.93 -8.43 M1362.22 -8.66 C1359.93 98.91, 1359.56 206.59, 1357.89 330.27 M1361.8 -9.25 C1363.58 85.55, 1360.76 183.44, 1358.27 329.13 M1356.88 327.35 C900.12 326.2, 444.21 323.09, 5.36 317.52 M1357.71 327.26 C959.33 326.15, 560.43 323, 3.91 316.14" stroke="#1971c2" stroke-width="4" fill="none"></path></g><g transform="translate(26.245234464460623 526.9096721955287) rotate(0 680.9078109734241 40.74100307483417)"><path d="M32.13 307.87 C21.68 313.37, 9.03 315.63, 5.39 312.38 M31.14 305.62 C24.51 309.05, 17.82 311.13, 2.2 317.2" stroke="#1971c2" stroke-width="4" fill="none"></path></g><g transform="translate(26.245234464460623 526.9096721955287) rotate(0 680.9078109734241 40.74100307483417)"><path d="M31.9 328.39 C21.76 326.2, 9.2 320.78, 5.39 312.38 M30.91 326.14 C24.61 325.08, 17.97 322.67, 2.2 317.2" stroke="#1971c2" stroke-width="4" fill="none"></path></g></g><mask></mask></svg>