<svg version="1.1" xmlns="http://www.w3.org/2000/svg" viewBox="0 0 1241.625991024277 1233.1922267059367" width="2483.251982048554" height="2466.3844534118734">
  <!-- svg-source:excalidraw -->
  
  <defs>
    <style class="style-fonts">
      @font-face {
        font-family: "Virgil";
        src: url("https://excalidraw.com/Virgil.woff2");
      }
      @font-face {
        font-family: "Cascadia";
        src: url("https://excalidraw.com/Cascadia.woff2");
      }
    </style>
    
  </defs>
  <rect x="0" y="0" width="1241.625991024277" height="1233.1922267059367" fill="#ffffff"></rect><g stroke-linecap="round"><g transform="translate(88.9759386629704 89.62005073617655) rotate(0 2.104927354894187 566.8598913180731)"><path d="M-0.17 0.15 C1.55 448.79, 3.59 901.54, 5.86 1133.57 M-0.19 0.58 C-4.98 345.32, -1.94 689.98, 6.67 1132.98" stroke="#1e1e1e" stroke-width="4" fill="none"></path></g></g><mask></mask><g stroke-linecap="round"><g transform="translate(1156.394719919933 72.29444063856022) rotate(0 1.7340967524676216 566.5299384965651)"><path d="M1.26 -0.05 C-5.16 363.47, -2.27 728.38, 5.72 1133.5 M0.04 -0.44 C-3.76 380.55, -2.25 759.38, 5.38 1132.47" stroke="#1e1e1e" stroke-width="4" fill="none"></path></g></g><mask></mask><g transform="translate(10 22.651715390314394) rotate(0 67.15799713134766 22.5)"><text x="67.15799713134766" y="0" font-family="Virgil, Segoe UI Emoji" font-size="36px" fill="#1e1e1e" text-anchor="middle" style="white-space: pre;" direction="ltr" dominant-baseline="text-before-edge">트랜잭션1</text></g><g transform="translate(1081.4339896815036 10) rotate(0 75.09600067138672 22.5)"><text x="75.09600067138672" y="0" font-family="Virgil, Segoe UI Emoji" font-size="36px" fill="#1e1e1e" text-anchor="middle" style="white-space: pre;" direction="ltr" dominant-baseline="text-before-edge">트랜잭션2</text></g><g stroke-linecap="round"><g transform="translate(87.00628174103326 136.89181686266744) rotate(0 213.74909607169553 0.16362836195855834)"><path d="M-1.09 -0.19 C139.35 4.6, 276.54 0.22, 428.58 -0.75 M0.06 0.92 C168.73 -0.83, 337.8 -2.79, 426.85 -0.93" stroke="#1e1e1e" stroke-width="4" fill="none"></path></g><g transform="translate(87.00628174103326 136.89181686266744) rotate(0 213.74909607169553 0.16362836195855834)"><path d="M396.49 8.75 C408.03 9.73, 413.34 -0.71, 429.09 1.42 M398.69 10.88 C408.52 5.71, 419.14 -0.52, 425.75 1.07" stroke="#1e1e1e" stroke-width="4" fill="none"></path></g><g transform="translate(87.00628174103326 136.89181686266744) rotate(0 213.74909607169553 0.16362836195855834)"><path d="M396.65 -11.77 C408.12 -4.1, 413.38 -7.86, 429.09 1.42 M398.84 -9.64 C408.69 -6.68, 419.25 -4.78, 425.75 1.07" stroke="#1e1e1e" stroke-width="4" fill="none"></path></g></g><mask></mask><g transform="translate(256.36254339825746 86.74142304842803) rotate(0 47.305999755859375 17.5)"><text x="47.305999755859375" y="0" font-family="Virgil, Segoe UI Emoji" font-size="28px" fill="#1e1e1e" text-anchor="middle" style="white-space: pre;" direction="ltr" dominant-baseline="text-before-edge">BEGIN</text></g><g stroke-linecap="round" transform="translate(406.09070309484696 227.4960352717751) rotate(0 218.6319183350206 135.90632761366135)"><path d="M0.91 -0.26 C85.68 -4.09, 175.26 -5.16, 438.63 1.96 M0.61 -0.99 C166.52 -0.9, 331.07 -1.62, 437.12 0.49 M434.88 -0.38 C441.29 101.99, 442.8 210.18, 437 271.24 M437.68 0.05 C437.57 85.31, 439.17 169.7, 437.97 272.65 M437.27 271.49 C283.21 271.46, 133.44 273.03, -0.13 270.85 M437.54 270.86 C282.34 272.26, 127.29 272.05, -0.97 271.55 M1.12 273.46 C-0.09 215.23, 4.55 156.7, -1.36 -0.87 M-0.77 272.42 C-0.84 206.66, 1.83 139.73, -0.92 -1.25" stroke="#1e1e1e" stroke-width="4" fill="none"></path></g><g stroke-linecap="round"><g transform="translate(410.030016938721 304.3126552273228) rotate(0 218.10280176003414 0.9696201197240839)"><path d="M-1.51 -0.57 C125.92 -2.77, 251.59 -0.98, 435.64 2.93 M-0.86 0.02 C121.07 -1.67, 239.99 -0.18, 437.72 3.46" stroke="#1e1e1e" stroke-width="4" fill="none"></path></g></g><mask></mask><g stroke-linecap="round"><g transform="translate(406.61981966983353 403.79553812639193) rotate(0 219.28715821928256 2.1437111762354846)"><path d="M1.33 0.75 C118.37 -0.2, 233.72 2.94, 439.28 2.67 M-0.7 0.54 C104.87 -1.78, 211.77 -0.29, 436.41 4.82" stroke="#1e1e1e" stroke-width="4" fill="none"></path></g></g><mask></mask><g stroke-linecap="round"><g transform="translate(626.6922783518048 225.52637834983807) rotate(0 -0.8335514164018605 134.21780810869186)"><path d="M-2.81 -1.98 C3.52 96.89, 2.26 188.83, -2.59 270.22 M-1.13 0.32 C1.37 105.88, -1.2 214.12, -3.17 270.41" stroke="#1e1e1e" stroke-width="4" fill="none"></path></g></g><mask></mask><g transform="translate(460.9101178007231 237.3443198814607) rotate(0 63.36000061035156 22.5)"><text x="63.36000061035156" y="0" font-family="Virgil, Segoe UI Emoji" font-size="36px" fill="#1e1e1e" text-anchor="middle" style="white-space: pre;" direction="ltr" dominant-baseline="text-before-edge">emp_no</text></g><g transform="translate(642.068725709838 249.16226141308357) rotate(0 96.89399719238281 22.5)"><text x="96.89399719238281" y="0" font-family="Virgil, Segoe UI Emoji" font-size="36px" fill="#1e1e1e" text-anchor="middle" style="white-space: pre;" direction="ltr" dominant-baseline="text-before-edge">first_name</text></g><g transform="translate(503.7577749820589 337.796822900254) rotate(0 22.48200035095215 22.5)"><text x="22.48200035095215" y="0" font-family="Virgil, Segoe UI Emoji" font-size="36px" fill="#1e1e1e" text-anchor="middle" style="white-space: pre;" direction="ltr" dominant-baseline="text-before-edge">49</text></g><g transform="translate(705.9740946041206 335.827165978317) rotate(0 25.110000610351562 22.5)"><text x="25.110000610351562" y="0" font-family="Virgil, Segoe UI Emoji" font-size="36px" fill="#1e1e1e" text-anchor="middle" style="white-space: pre;" direction="ltr" dominant-baseline="text-before-edge">sim</text></g><g transform="translate(494.8531482250969 432.3403551532358) rotate(0 23.507999420166016 22.5)"><text x="23.507999420166016" y="0" font-family="Virgil, Segoe UI Emoji" font-size="36px" fill="#1e1e1e" text-anchor="middle" style="white-space: pre;" direction="ltr" dominant-baseline="text-before-edge">50</text></g><g transform="translate(706.9820940242867 434.31001207517295) rotate(0 24.102001190185547 22.5)"><text x="24.102001190185547" y="0" font-family="Virgil, Segoe UI Emoji" font-size="36px" fill="#1e1e1e" text-anchor="middle" style="white-space: pre;" direction="ltr" dominant-baseline="text-before-edge">kim</text></g><g stroke-linecap="round"><g transform="translate(90.94559558490755 448.09761052873284) rotate(0 157.59300398785683 0.27052911167069493)"><path d="M1.07 -0.3 C82.09 -2.28, 165.87 -2.58, 314.52 2.19 M0.67 0.82 C103.95 -1.42, 206.85 -2.25, 313.25 1.27" stroke="#1e1e1e" stroke-width="4" fill="none"></path></g><g transform="translate(90.94559558490755 448.09761052873284) rotate(0 157.59300398785683 0.27052911167069493)"><path d="M286.35 10.5 C291.8 8.79, 301.03 5.82, 315.14 4.35 M285.78 12.06 C295.44 7.64, 304.51 3.29, 313.36 3.06" stroke="#1e1e1e" stroke-width="4" fill="none"></path></g><g transform="translate(90.94559558490755 448.09761052873284) rotate(0 157.59300398785683 0.27052911167069493)"><path d="M286.79 -10.02 C291.92 -6.32, 301.03 -3.87, 315.14 4.35 M286.23 -8.45 C295.7 -6.12, 304.63 -3.72, 313.36 3.06" stroke="#1e1e1e" stroke-width="4" fill="none"></path></g></g><mask></mask><g transform="translate(165.85780137900178 399.91687363643064) rotate(0 84.6300048828125 17.5)"><text x="84.6300048828125" y="0" font-family="Virgil, Segoe UI Emoji" font-size="28px" fill="#1e1e1e" text-anchor="middle" style="white-space: pre;" direction="ltr" dominant-baseline="text-before-edge">INSERT(kim)</text></g><g stroke-linecap="round" transform="translate(411.86104770413544 556.4330254477934) rotate(0 218.6319183350206 135.90632761366135)"><path d="M-1.05 0.91 C90.73 -0.81, 178.39 -0.87, 438.12 0.67 M0.25 -0.2 C116.84 -1.14, 235.23 -1.48, 437.19 0.01 M437.39 2.9 C441.75 81.64, 436.37 161.97, 434.52 273.45 M437.37 -0.32 C434.56 73.88, 437.19 147.63, 436.36 270.27 M438.63 270.93 C289.39 273.76, 138.2 271.37, 1.39 270.02 M436.74 271.2 C324.34 268.61, 209.57 270.16, -0.3 271.02 M-2.28 273.47 C5.46 201.06, 5.76 127.12, -3.08 -1.68 M0.17 272.85 C-3.94 207.07, -3.15 141.23, 0.1 0.21" stroke="#1e1e1e" stroke-width="4" fill="none"></path></g><g stroke-linecap="round"><g transform="translate(415.8003615480095 633.249645403341) rotate(0 218.29781517264166 2.47966091860134)"><path d="M1.52 1.66 C155.62 1.02, 312.19 1.48, 436.63 2.09 M-0.6 0.55 C148.24 2.43, 295.7 3.56, 437.2 4.41" stroke="#1e1e1e" stroke-width="4" fill="none"></path></g></g><mask></mask><g stroke-linecap="round"><g transform="translate(412.3901642791218 732.7325283024102) rotate(0 219.00081349362915 1.7682910556667935)"><path d="M-0.03 1.61 C151.8 -1.61, 301.22 -2.77, 438.03 4.45 M0.35 0.21 C122.29 -1.29, 244.69 0.27, 437.15 3.98" stroke="#1e1e1e" stroke-width="4" fill="none"></path></g></g><mask></mask><g stroke-linecap="round"><g transform="translate(632.4626229610933 554.4633685258564) rotate(0 -0.6342666358984843 136.5405896364343)"><path d="M1.33 1.03 C-1.8 101.12, -0.38 208.72, -2.6 269.96 M-0.12 0.01 C0.65 97.09, -0.12 192.78, -0.52 273.07" stroke="#1e1e1e" stroke-width="4" fill="none"></path></g></g><mask></mask><g transform="translate(466.6804624100116 566.281310057479) rotate(0 63.36000061035156 22.5)"><text x="63.36000061035156" y="0" font-family="Virgil, Segoe UI Emoji" font-size="36px" fill="#1e1e1e" text-anchor="middle" style="white-space: pre;" direction="ltr" dominant-baseline="text-before-edge">emp_no</text></g><g transform="translate(647.8390703191264 578.0992515891019) rotate(0 96.89399719238281 22.5)"><text x="96.89399719238281" y="0" font-family="Virgil, Segoe UI Emoji" font-size="36px" fill="#1e1e1e" text-anchor="middle" style="white-space: pre;" direction="ltr" dominant-baseline="text-before-edge">first_name</text></g><g transform="translate(509.5281195913474 666.7338130762723) rotate(0 22.48200035095215 22.5)"><text x="22.48200035095215" y="0" font-family="Virgil, Segoe UI Emoji" font-size="36px" fill="#1e1e1e" text-anchor="middle" style="white-space: pre;" direction="ltr" dominant-baseline="text-before-edge">49</text></g><g transform="translate(711.7444392134091 664.7641561543353) rotate(0 25.110000610351562 22.5)"><text x="25.110000610351562" y="0" font-family="Virgil, Segoe UI Emoji" font-size="36px" fill="#1e1e1e" text-anchor="middle" style="white-space: pre;" direction="ltr" dominant-baseline="text-before-edge">sim</text></g><g transform="translate(500.6234928343854 761.2773453292541) rotate(0 23.507999420166016 22.5)"><text x="23.507999420166016" y="0" font-family="Virgil, Segoe UI Emoji" font-size="36px" fill="#1e1e1e" text-anchor="middle" style="white-space: pre;" direction="ltr" dominant-baseline="text-before-edge">50</text></g><g transform="translate(712.7524386335751 763.2470022511911) rotate(0 24.102001190185547 22.5)"><text x="24.102001190185547" y="0" font-family="Virgil, Segoe UI Emoji" font-size="36px" fill="#1e1e1e" text-anchor="middle" style="white-space: pre;" direction="ltr" dominant-baseline="text-before-edge">kim</text></g><g stroke-linecap="round" transform="translate(407.9217338602605 950.3644098352175) rotate(0 218.6319183350206 135.90632761366135)"><path d="M-1.67 1.64 C117.19 1.11, 237.4 -0.44, 436.88 1.03 M-1 0.5 C130.22 2.58, 259.26 3.48, 436.26 -0.74 M435.48 -0.48 C431.89 61.6, 435.49 125.34, 434.96 273.11 M436.55 -0.12 C435.07 99.12, 436.89 196.84, 438.78 270.48 M438.65 271.01 C306.78 274.42, 178.24 272.66, -1.6 271.73 M437.23 272.09 C325.61 271.75, 214.58 272.12, 0.79 271.68 M2.49 269.28 C-4.73 208.77, -4.07 147.28, 0 1.05 M0.83 271.34 C-2.84 171.47, -3.17 71.2, -0.32 -0.58" stroke="#1e1e1e" stroke-width="4" fill="none"></path></g><g stroke-linecap="round"><g transform="translate(411.86104770413453 1027.181029790765) rotate(0 218.16552335331085 1.4075960928812492)"><path d="M-0.86 -0.45 C116.98 -4.54, 230.97 -0.47, 437.19 4.93 M0.65 -0.18 C103.88 -0.53, 206.55 -1.05, 436.59 3.08" stroke="#1e1e1e" stroke-width="4" fill="none"></path></g></g><mask></mask><g stroke-linecap="round"><g transform="translate(408.4508504352468 1126.6639126898344) rotate(0 218.83836591265072 0.7471694683270016)"><path d="M1.31 -2 C166.28 3.51, 333.27 4.98, 436 1.94 M0.12 0.72 C151.84 1.44, 305.01 2.7, 437.56 3.36" stroke="#1e1e1e" stroke-width="4" fill="none"></path></g></g><mask></mask><g stroke-linecap="round"><g transform="translate(628.5233091172183 948.3947529132805) rotate(0 -0.7640420851512317 136.33304727786145)"><path d="M-0.59 1.59 C2.1 77, -0.29 147.87, -0.42 273.81 M-1.56 -1.14 C-1.1 75.27, -0.16 152.27, -2.21 270.93" stroke="#1e1e1e" stroke-width="4" fill="none"></path></g></g><mask></mask><g transform="translate(462.74114856613664 960.2126944449031) rotate(0 63.36000061035156 22.5)"><text x="63.36000061035156" y="0" font-family="Virgil, Segoe UI Emoji" font-size="36px" fill="#1e1e1e" text-anchor="middle" style="white-space: pre;" direction="ltr" dominant-baseline="text-before-edge">emp_no</text></g><g transform="translate(643.8997564752515 972.030635976526) rotate(0 96.89399719238281 22.5)"><text x="96.89399719238281" y="0" font-family="Virgil, Segoe UI Emoji" font-size="36px" fill="#1e1e1e" text-anchor="middle" style="white-space: pre;" direction="ltr" dominant-baseline="text-before-edge">first_name</text></g><g transform="translate(505.5888057474724 1060.6651974636966) rotate(0 22.48200035095215 22.5)"><text x="22.48200035095215" y="0" font-family="Virgil, Segoe UI Emoji" font-size="36px" fill="#1e1e1e" text-anchor="middle" style="white-space: pre;" direction="ltr" dominant-baseline="text-before-edge">49</text></g><g transform="translate(707.8051253695342 1058.6955405417593) rotate(0 25.110000610351562 22.5)"><text x="25.110000610351562" y="0" font-family="Virgil, Segoe UI Emoji" font-size="36px" fill="#1e1e1e" text-anchor="middle" style="white-space: pre;" direction="ltr" dominant-baseline="text-before-edge">sim</text></g><g transform="translate(496.6841789905104 1155.2087297166781) rotate(0 23.507999420166016 22.5)"><text x="23.507999420166016" y="0" font-family="Virgil, Segoe UI Emoji" font-size="36px" fill="#1e1e1e" text-anchor="middle" style="white-space: pre;" direction="ltr" dominant-baseline="text-before-edge">50</text></g><g transform="translate(708.8131247897002 1157.1783866386154) rotate(0 24.102001190185547 22.5)"><text x="24.102001190185547" y="0" font-family="Virgil, Segoe UI Emoji" font-size="36px" fill="#1e1e1e" text-anchor="middle" style="white-space: pre;" direction="ltr" dominant-baseline="text-before-edge">kim</text></g><g stroke-linecap="round"><g transform="translate(1158.4996472748276 767.1820318825464) rotate(0 -153.12891768208408 76.66980720141157)"><path d="M1.95 -1.89 C-74.3 0.08, -153.92 2.61, -306.19 2.9 M-1.37 0.31 C-68.43 2.46, -137.5 1.29, -305.42 2.81 M-308.21 2.66 C-305.4 40.49, -304.61 75.77, -307.19 154.55 M-303.77 1.82 C-304.53 49.39, -303.2 95.48, -304.11 155.23 M-304.32 151.99 C-221.78 152.64, -144.24 151.74, -4.37 151.19 M-303.76 154.67 C-220.9 154.63, -137.21 151.83, -2.99 149.9" stroke="#1e1e1e" stroke-width="4" fill="none"></path></g><g transform="translate(1158.4996472748276 767.1820318825464) rotate(0 -153.12891768208408 76.66980720141157)"><path d="M-28.3 158.03 C-22.11 158.7, -20.68 158.86, -4.22 151.18 M-32.88 161.08 C-24.56 158.5, -18.93 153.86, -3.15 151.06" stroke="#1e1e1e" stroke-width="4" fill="none"></path></g><g transform="translate(1158.4996472748276 767.1820318825464) rotate(0 -153.12891768208408 76.66980720141157)"><path d="M-28.66 137.51 C-22.57 143.27, -21.05 148.51, -4.22 151.18 M-33.24 140.56 C-24.72 142.59, -19 142.56, -3.15 151.06" stroke="#1e1e1e" stroke-width="4" fill="none"></path></g></g><mask></mask><g stroke-linecap="round"><g transform="translate(92.9152525068447 1174.9010147235306) rotate(0 154.91608527196507 0.5888957260665393)"><path d="M0.43 2.02 C121.68 -3.23, 243.86 1.26, 308.6 0.4 M0.15 1.21 C99.7 -2.49, 199.61 -0.51, 309.68 1.79" stroke="#1e1e1e" stroke-width="4" fill="none"></path></g><g transform="translate(92.9152525068447 1174.9010147235306) rotate(0 154.91608527196507 0.5888957260665393)"><path d="M281.89 14.33 C290.79 3.76, 300.76 5.06, 308.79 -0.4 M281.51 13.21 C289.63 6.49, 298.26 5.2, 310.3 1.55" stroke="#1e1e1e" stroke-width="4" fill="none"></path></g><g transform="translate(92.9152525068447 1174.9010147235306) rotate(0 154.91608527196507 0.5888957260665393)"><path d="M282.29 -6.18 C290.66 -8.59, 300.48 0.88, 308.79 -0.4 M281.9 -7.31 C289.88 -7.37, 298.38 -2, 310.3 1.55" stroke="#1e1e1e" stroke-width="4" fill="none"></path></g></g><mask></mask><g transform="translate(859.1727361595681 682.6384996295648) rotate(0 143.72401428222656 35)"><text x="143.72401428222656" y="0" font-family="Virgil, Segoe UI Emoji" font-size="28px" fill="#1e1e1e" text-anchor="middle" style="white-space: pre;" direction="ltr" dominant-baseline="text-before-edge">SELECT</text><text x="143.72401428222656" y="35" font-family="Virgil, Segoe UI Emoji" font-size="28px" fill="#1e1e1e" text-anchor="middle" style="white-space: pre;" direction="ltr" dominant-baseline="text-before-edge">WHERE emp_no = 50</text></g><g transform="translate(941.0727529442361 873.5435056671513) rotate(0 61.823997497558594 17.5)"><text x="61.823997497558594" y="0" font-family="Virgil, Segoe UI Emoji" font-size="28px" fill="#1e1e1e" text-anchor="middle" style="white-space: pre;" direction="ltr" dominant-baseline="text-before-edge">retun kim</text></g><g transform="translate(165.6251181525637 1127.6292485970396) rotate(0 88.80200195312494 17.5)"><text x="88.802001953125" y="0" font-family="Virgil, Segoe UI Emoji" font-size="28px" fill="#1e1e1e" text-anchor="middle" style="white-space: pre;" direction="ltr" dominant-baseline="text-before-edge">COMMIT(kim)</text></g></svg>