<svg version="1.1" xmlns="http://www.w3.org/2000/svg" viewBox="0 0 1336.0392373440643 1361.5782697061345" width="2672.0784746881286" height="2723.156539412269">
  <!-- svg-source:excalidraw -->
  
  <defs>
    <style class="style-fonts">
      @font-face {
        font-family: "Virgil";
        src: url("https://excalidraw.com/Virgil.woff2");
      }
      @font-face {
        font-family: "Cascadia";
        src: url("https://excalidraw.com/Cascadia.woff2");
      }
    </style>
    
  </defs>
  <rect x="0" y="0" width="1336.0392373440643" height="1361.5782697061345" fill="#ffffff"></rect><g stroke-linecap="round"><g transform="translate(82.87730611167376 91.58970765811353) rotate(0 -2.8139444723765905 608.661330027722)"><path d="M0.54 -0.18 C4.1 472.24, 0.05 941.92, -6.67 1217.51 M-0.07 -0.05 C4.52 442.03, 1.7 886.14, -7.72 1217.34" stroke="#1e1e1e" stroke-width="4" fill="none"></path></g><g transform="translate(82.87730611167376 91.58970765811353) rotate(0 -2.8139444723765905 608.661330027722)"><path d="M-16.04 1188.49 C-11.36 1203.71, -10.11 1212.04, -4.69 1217.99 M-17.56 1188.83 C-13.25 1197.17, -9.61 1210.86, -7.31 1217.58" stroke="#1e1e1e" stroke-width="4" fill="none"></path></g><g transform="translate(82.87730611167376 91.58970765811353) rotate(0 -2.8139444723765905 608.661330027722)"><path d="M4.48 1188.91 C1.22 1203.92, -5.47 1212.08, -4.69 1217.99 M2.95 1189.25 C-0.2 1197.75, -4.02 1211.29, -7.31 1217.58" stroke="#1e1e1e" stroke-width="4" fill="none"></path></g></g><mask></mask><g stroke-linecap="round"><g transform="translate(1262.2998392168777 77.80210920455374) rotate(0 4.992903961795264 609.0594175180718)"><path d="M0.52 0.68 C-4.14 359.51, -2.48 717.65, 11.79 1216.19 M-0.56 0.59 C9.1 435.2, 12.8 871.36, 9.71 1217.53" stroke="#1e1e1e" stroke-width="4" fill="none"></path></g><g transform="translate(1262.2998392168777 77.80210920455374) rotate(0 4.992903961795264 609.0594175180718)"><path d="M0.83 1191.01 C2.91 1198.24, 2.51 1203.75, 13.56 1214.88 M-1.87 1190.78 C4.02 1197.33, 7.73 1207.75, 8.35 1218.25" stroke="#1e1e1e" stroke-width="4" fill="none"></path></g><g transform="translate(1262.2998392168777 77.80210920455374) rotate(0 4.992903961795264 609.0594175180718)"><path d="M21.35 1191.07 C17.37 1198.32, 10.92 1203.81, 13.56 1214.88 M18.65 1190.84 C17.19 1197.68, 13.55 1208.08, 8.35 1218.25" stroke="#1e1e1e" stroke-width="4" fill="none"></path></g></g><mask></mask><g transform="translate(10 25.53034307806297) rotate(0 67.15799713134766 22.5)"><text x="0" y="0" font-family="Virgil, Segoe UI Emoji" font-size="36px" fill="#1e1e1e" text-anchor="start" style="white-space: pre;" direction="ltr" dominant-baseline="text-before-edge">트랜잭션1</text></g><g transform="translate(1175.8472360012906 10) rotate(0 75.09600067138683 22.5)"><text x="0" y="0" font-family="Virgil, Segoe UI Emoji" font-size="36px" fill="#1e1e1e" text-anchor="start" style="white-space: pre;" direction="ltr" dominant-baseline="text-before-edge">트랜잭션2</text></g><g stroke-linecap="round" transform="translate(405.9010413093615 69.92348151680528) rotate(0 258.0250567737629 75.83179149457919)"><path d="M0.39 1.51 C173.65 2.44, 344.92 3.06, 515 -0.1 M-0.47 0.65 C104.75 -2.71, 209.05 -3.98, 515.52 0.68 M519.65 0.32 C513.41 54.1, 517.47 114.34, 513.83 149.75 M517.64 -1.51 C515 48.5, 514.52 95.18, 517.75 150.38 M517.6 153.06 C393.88 147.04, 270.39 147.94, 0.6 152.03 M515.5 152.09 C385.75 148.27, 255.6 149.09, 0.14 151.61 M3.66 149.76 C-4.1 117.05, -4.72 84.03, -2.87 -3.36 M-2 151.3 C-2.56 104.69, -2.1 59.22, -1.44 -0.08" stroke="#1e1e1e" stroke-width="4" fill="none"></path></g><g stroke-linecap="round"><g transform="translate(661.9564411611873 71.89313843874254) rotate(0 0.39413662627339363 75.82300405538138)"><path d="M3.66 -1.9 C0.76 35.7, 0.15 73.01, -2.87 150.27 M-2 -0.36 C-1.06 45.14, -0.61 91.78, -1.44 153.55" stroke="#1e1e1e" stroke-width="4" fill="none"></path></g></g><mask></mask><g stroke-linecap="round"><g transform="translate(405.9010413093615 142.80078762847882) rotate(0 258.4092321537097 -1.25506304763951)"><path d="M-0.15 -1.46 C201.04 -3.6, 400.87 -3.01, 517.26 -3.12 M-0.44 0.61 C169.87 -0.77, 338.99 -2.1, 516.36 -2.73" stroke="#1e1e1e" stroke-width="4" fill="none"></path></g></g><mask></mask><g transform="translate(453.1728074358523 89.6200507361765) rotate(0 95.30998992919922 22.5)"><text x="0" y="0" font-family="Virgil, Segoe UI Emoji" font-size="36px" fill="#1e1e1e" text-anchor="start" style="white-space: pre;" direction="ltr" dominant-baseline="text-before-edge">product_id</text></g><g transform="translate(724.985462663175 83.71107997036518) rotate(0 73.18799591064453 22.5)"><text x="0" y="0" font-family="Virgil, Segoe UI Emoji" font-size="36px" fill="#1e1e1e" text-anchor="start" style="white-space: pre;" direction="ltr" dominant-baseline="text-before-edge">quantity</text></g><g transform="translate(522.1107997036515 160.52769992591288) rotate(0 23.777999877929688 22.5)"><text x="0" y="0" font-family="Virgil, Segoe UI Emoji" font-size="36px" fill="#1e1e1e" text-anchor="start" style="white-space: pre;" direction="ltr" dominant-baseline="text-before-edge">34</text></g><g transform="translate(774.226885711603 160.52769992591288) rotate(0 17.261999130249023 22.5)"><text x="0" y="0" font-family="Virgil, Segoe UI Emoji" font-size="36px" fill="#1e1e1e" text-anchor="start" style="white-space: pre;" direction="ltr" dominant-baseline="text-before-edge">10</text></g><g stroke-linecap="round"><g transform="translate(80.9076491897365 257.0408891008319) rotate(0 190.44941741702786 2.916643915069443)"><path d="M1.02 0.65 C94.08 3.21, 186.29 5.64, 378.46 1.81 M0.68 0.52 C139.99 5.76, 282.47 6.06, 380.22 4.46" stroke="#1e1e1e" stroke-width="4" fill="none"></path></g><g transform="translate(80.9076491897365 257.0408891008319) rotate(0 190.44941741702786 2.916643915069443)"><path d="M353.82 16.05 C361.5 12.4, 368.01 12.31, 377.41 0.9 M353.25 15.82 C361.53 12.82, 374.89 7, 380.34 5.32" stroke="#1e1e1e" stroke-width="4" fill="none"></path></g><g transform="translate(80.9076491897365 257.0408891008319) rotate(0 190.44941741702786 2.916643915069443)"><path d="M353.64 -4.47 C361.73 -3.13, 368.28 1.76, 377.41 0.9 M353.08 -4.7 C361.15 -0.1, 374.58 1.67, 380.34 5.32" stroke="#1e1e1e" stroke-width="4" fill="none"></path></g></g><mask></mask><g transform="translate(240.44985986664324 210.82980913046686) rotate(0 47.305999755859375 17.5)"><text x="0" y="0" font-family="Virgil, Segoe UI Emoji" font-size="28px" fill="#1e1e1e" text-anchor="start" style="white-space: pre;" direction="ltr" dominant-baseline="text-before-edge">BEGIN</text></g><g stroke-linecap="round" transform="translate(405.51686592941473 354.5811264900965) rotate(0 258.0250567737629 75.83179149457919)"><path d="M1.52 0.4 C148.88 -2.27, 297.73 -2.13, 517.33 1.36 M0.08 0.35 C147.58 -0.9, 295.71 -0.49, 516.24 0.68 M517.01 3.45 C512.08 58.38, 515.29 112.39, 513.08 151.53 M514.75 0.34 C515.42 50.39, 515.27 103.13, 516.61 150.88 M517.39 152.33 C317.86 153.94, 123.5 152.98, -1.51 152.5 M516.26 152.09 C387.22 150.48, 259.03 149.82, 0.03 151.27 M2.33 148.63 C5.1 96.72, 0.64 36.1, -1.55 -0.21 M-1.02 151.18 C1.97 117.5, 2.95 80.59, 1.42 -0.41" stroke="#1e1e1e" stroke-width="4" fill="none"></path></g><g stroke-linecap="round"><g transform="translate(661.57226578124 356.55078341203375) rotate(0 1.4386316811996949 75.45812885145153)"><path d="M0.12 -3.43 C3.06 46.38, 6.12 102.3, -0.56 154.34 M0.03 -1.17 C1.74 47.57, 0.77 97.13, 1.29 153.02" stroke="#1e1e1e" stroke-width="4" fill="none"></path></g></g><mask></mask><g stroke-linecap="round"><g transform="translate(405.51686592941473 427.45843260177) rotate(0 258.13542244319217 0.20034575538596755)"><path d="M0.05 -1.23 C168.93 4.26, 335.09 2.54, 516.22 -1.82 M0.58 -0.06 C177.43 2.43, 355 0.82, 516 -1.78" stroke="#1e1e1e" stroke-width="4" fill="none"></path></g></g><mask></mask><g transform="translate(452.7886320559053 374.2776957094677) rotate(0 95.30998992919922 22.5)"><text x="0" y="0" font-family="Virgil, Segoe UI Emoji" font-size="36px" fill="#1e1e1e" text-anchor="start" style="white-space: pre;" direction="ltr" dominant-baseline="text-before-edge">product_id</text></g><g transform="translate(724.6012872832277 368.3687249436564) rotate(0 73.18799591064453 22.5)"><text x="0" y="0" font-family="Virgil, Segoe UI Emoji" font-size="36px" fill="#1e1e1e" text-anchor="start" style="white-space: pre;" direction="ltr" dominant-baseline="text-before-edge">quantity</text></g><g transform="translate(521.7266243237043 445.1853448992041) rotate(0 23.777999877929688 22.5)"><text x="0" y="0" font-family="Virgil, Segoe UI Emoji" font-size="36px" fill="#1e1e1e" text-anchor="start" style="white-space: pre;" direction="ltr" dominant-baseline="text-before-edge">34</text></g><g transform="translate(773.842710331656 445.1853448992041) rotate(0 17.261999130249023 22.5)"><text x="0" y="0" font-family="Virgil, Segoe UI Emoji" font-size="36px" fill="#1e1e1e" text-anchor="start" style="white-space: pre;" direction="ltr" dominant-baseline="text-before-edge">10</text></g><g stroke-linecap="round" transform="translate(397.63823824166593 590.9399571225514) rotate(0 258.0250567737629 75.83179149457919)"><path d="M-0.82 -0.85 C180.94 -0.43, 362.03 -3.07, 517.47 -0.95 M0.25 0.39 C139.8 -1.97, 280.83 -1.44, 515.81 -0.47 M516.44 -2.87 C516.03 46.98, 510.55 102.44, 513.74 151.77 M514.95 -1.48 C517.49 61.13, 517.68 121.12, 514.95 151.92 M515.22 152.11 C392.08 150.94, 270.03 150.77, 0.86 151.56 M515.31 151.21 C321.23 149.64, 126.81 149.26, -0.72 151.69 M1.27 153.02 C2.45 105.31, 0.08 57.21, 0.96 1.39 M-1.72 150.78 C-0.88 119.39, -0.58 86.06, -1.24 0.91" stroke="#1e1e1e" stroke-width="4" fill="none"></path></g><g stroke-linecap="round"><g transform="translate(653.6936380934922 592.9096140444886) rotate(0 0.015125805487741673 77.03810961319562)"><path d="M-0.37 3.38 C-1.95 49.48, 1.99 103.04, -1.14 155.52 M-0.68 -1.44 C2.67 51.18, 0.38 101.4, 0.72 151.64" stroke="#1e1e1e" stroke-width="4" fill="none"></path></g></g><mask></mask><g stroke-linecap="round"><g transform="translate(397.63823824166593 663.8172632342249) rotate(0 258.2200808751991 -1.3456336729626983)"><path d="M-0.15 -1.29 C128.78 -4.92, 254.26 -3.7, 516.59 -1.46 M0.68 -0.05 C179.44 1.81, 359.64 0.81, 515.35 -1.89" stroke="#1e1e1e" stroke-width="4" fill="none"></path></g></g><mask></mask><g transform="translate(444.91000436815693 610.6365263419226) rotate(0 95.30998992919922 22.5)"><text x="0" y="0" font-family="Virgil, Segoe UI Emoji" font-size="36px" fill="#1e1e1e" text-anchor="start" style="white-space: pre;" direction="ltr" dominant-baseline="text-before-edge">product_id</text></g><g transform="translate(716.7226595954799 604.7275555761113) rotate(0 73.18799591064453 22.5)"><text x="0" y="0" font-family="Virgil, Segoe UI Emoji" font-size="36px" fill="#1e1e1e" text-anchor="start" style="white-space: pre;" direction="ltr" dominant-baseline="text-before-edge">quantity</text></g><g transform="translate(513.8479966359564 681.544175531659) rotate(0 23.777999877929688 22.5)"><text x="0" y="0" font-family="Virgil, Segoe UI Emoji" font-size="36px" fill="#1e1e1e" text-anchor="start" style="white-space: pre;" direction="ltr" dominant-baseline="text-before-edge">34</text></g><g transform="translate(765.9640826439077 681.544175531659) rotate(0 13.770000457763672 22.5)"><text x="0" y="0" font-family="Virgil, Segoe UI Emoji" font-size="36px" fill="#1e1e1e" text-anchor="start" style="white-space: pre;" direction="ltr" dominant-baseline="text-before-edge">8</text></g><g stroke-linecap="round" transform="translate(401.5775520855402 858.8132985059996) rotate(0 258.0250567737629 75.83179149457919)"><path d="M-0.26 -1.34 C165.92 1.61, 329.43 3.99, 515.94 1.16 M-0.04 0.51 C181.49 -3.01, 362.46 -2.69, 515.9 -0.41 M516.03 -1.09 C516.36 31.46, 517.11 63.89, 512.47 154.26 M515.26 -1.45 C519.19 56.82, 519.4 115.26, 514.74 151.55 M516.37 151.08 C395.69 148.94, 274.84 149.89, 0.5 150.71 M515.45 151.84 C403.5 153.38, 291.78 152.87, 0.56 151.86 M-3.26 148.3 C2.29 104.66, -2.43 55.44, -1.41 -3.66 M-2 149.98 C0.67 119.67, -0.7 87.49, 0.5 1.77" stroke="#1e1e1e" stroke-width="4" fill="none"></path></g><g stroke-linecap="round"><g transform="translate(657.6329519373664 860.7829554279368) rotate(0 0.24964987765997648 76.2111496455824)"><path d="M1.56 -2.12 C-3.38 40.78, -0.77 76.81, 2.03 150.42 M1.12 -1.86 C0.78 53.47, -0.54 108.04, -1.53 154.54" stroke="#1e1e1e" stroke-width="4" fill="none"></path></g></g><mask></mask><g stroke-linecap="round"><g transform="translate(401.5775520855402 931.6906046176731) rotate(0 257.88797910098333 -0.07730741245200079)"><path d="M-1.15 1.53 C111.42 2.93, 223.88 0.05, 516.93 -2.06 M0.38 -0.42 C187.76 2.72, 375.23 2.77, 516.68 -1.97" stroke="#1e1e1e" stroke-width="4" fill="none"></path></g></g><mask></mask><g transform="translate(448.8493182120312 878.5098677253708) rotate(0 95.30998992919922 22.5)"><text x="0" y="0" font-family="Virgil, Segoe UI Emoji" font-size="36px" fill="#1e1e1e" text-anchor="start" style="white-space: pre;" direction="ltr" dominant-baseline="text-before-edge">product_id</text></g><g transform="translate(720.6619734393541 872.6008969595595) rotate(0 73.18799591064453 22.5)"><text x="0" y="0" font-family="Virgil, Segoe UI Emoji" font-size="36px" fill="#1e1e1e" text-anchor="start" style="white-space: pre;" direction="ltr" dominant-baseline="text-before-edge">quantity</text></g><g transform="translate(517.7873104798307 949.4175169151072) rotate(0 23.777999877929688 22.5)"><text x="0" y="0" font-family="Virgil, Segoe UI Emoji" font-size="36px" fill="#1e1e1e" text-anchor="start" style="white-space: pre;" direction="ltr" dominant-baseline="text-before-edge">34</text></g><g transform="translate(769.903396487782 949.4175169151072) rotate(0 9.684000015258789 22.5)"><text x="0" y="0" font-family="Virgil, Segoe UI Emoji" font-size="36px" fill="#1e1e1e" text-anchor="start" style="white-space: pre;" direction="ltr" dominant-baseline="text-before-edge">7</text></g><g stroke-linecap="round"><g transform="translate(74.99867842392496 702.1833534586214) rotate(0 158.50669173167063 1.6995041601200995)"><path d="M2.75 1.55 C118.71 1.74, 236.46 4.6, 316.51 2.14 M0.51 1.16 C102.42 -0.3, 200.89 1.84, 314.87 0.26" stroke="#1e1e1e" stroke-width="4" fill="none"></path></g><g transform="translate(74.99867842392496 702.1833534586214) rotate(0 158.50669173167063 1.6995041601200995)"><path d="M290.62 12.88 C299.29 6.25, 310.59 6.38, 318.73 3.28 M287.46 12.33 C297.89 5.64, 303.33 5.28, 316.43 0.63" stroke="#1e1e1e" stroke-width="4" fill="none"></path></g><g transform="translate(74.99867842392496 702.1833534586214) rotate(0 158.50669173167063 1.6995041601200995)"><path d="M290.49 -7.64 C299.45 -6.6, 310.79 1.19, 318.73 3.28 M287.33 -8.2 C297.52 -8.27, 303 -2.02, 316.43 0.63" stroke="#1e1e1e" stroke-width="4" fill="none"></path></g></g><mask></mask><g transform="translate(86.81661995554782 617.4881058153251) rotate(0 126.47599792480469 35)"><text x="0" y="0" font-family="Virgil, Segoe UI Emoji" font-size="28px" fill="#1e1e1e" text-anchor="start" style="white-space: pre;" direction="ltr" dominant-baseline="text-before-edge">UPDATE</text><text x="0" y="35" font-family="Virgil, Segoe UI Emoji" font-size="28px" fill="#1e1e1e" text-anchor="start" style="white-space: pre;" direction="ltr" dominant-baseline="text-before-edge">SET quantity = 8</text></g><g stroke-linecap="round"><g transform="translate(1260.7321454300716 302.34299830538566) rotate(0 -216.23424330464923 -0.6519031215898963)"><path d="M-1.37 0.66 C-118.06 -0.25, -234.03 -1.18, -432.05 -3.2 M0.5 -0.27 C-173.73 3.2, -346.36 2.48, -432.97 -2.34" stroke="#1e1e1e" stroke-width="4" fill="none"></path></g><g transform="translate(1260.7321454300716 302.34299830538566) rotate(0 -216.23424330464923 -0.6519031215898963)"><path d="M-407.15 -10.38 C-414.54 -7.62, -420.56 -5.89, -430.48 -4.74 M-403.48 -12.21 C-417.72 -7.34, -428.63 -3.48, -432.28 -3.07" stroke="#1e1e1e" stroke-width="4" fill="none"></path></g><g transform="translate(1260.7321454300716 302.34299830538566) rotate(0 -216.23424330464923 -0.6519031215898963)"><path d="M-407.82 10.13 C-415.05 7.36, -420.88 3.57, -430.48 -4.74 M-404.15 8.31 C-417.74 4.97, -428.38 0.65, -432.28 -3.07" stroke="#1e1e1e" stroke-width="4" fill="none"></path></g></g><mask></mask><g transform="translate(1049.9788547828 253.10157525695763) rotate(0 47.305999755859375 17.5)"><text x="0" y="0" font-family="Virgil, Segoe UI Emoji" font-size="28px" fill="#1e1e1e" text-anchor="start" style="white-space: pre;" direction="ltr" dominant-baseline="text-before-edge">BEGIN</text></g><g stroke-linecap="round"><g transform="translate(82.13119178952502 436.2890538879001) rotate(0 162.8721596960723 56.69201731802942)"><path d="M-1.99 -2.37 C98.18 -0.24, 192.76 -1.75, 323.38 2.24 M-0.73 -0.43 C105.5 -3.39, 208.87 -5.5, 326.51 0.89 M324.64 -3.41 C321.72 26.69, 325.27 57.3, 324.27 111.36 M327.73 0.62 C323.71 38.66, 324.55 78.08, 320.64 114.49 M319.21 113.08 C248.65 114.5, 179.26 111.22, 3.82 112.45 M321.51 115.55 C242.37 117.25, 159.9 117.7, 3.6 113.75" stroke="#1e1e1e" stroke-width="4" fill="none"></path></g><g transform="translate(82.13119178952502 436.2890538879001) rotate(0 162.8721596960723 56.69201731802942)"><path d="M29.11 100.62 C26.01 110.4, 14.91 111.08, 0.18 117.01 M30.94 103.42 C24.17 109.15, 13.24 109.21, 4.71 115.05" stroke="#1e1e1e" stroke-width="4" fill="none"></path></g><g transform="translate(82.13119178952502 436.2890538879001) rotate(0 162.8721596960723 56.69201731802942)"><path d="M28.7 121.13 C25.93 124.84, 14.95 119.44, 0.18 117.01 M30.53 123.94 C23.8 123.07, 12.99 116.54, 4.71 115.05" stroke="#1e1e1e" stroke-width="4" fill="none"></path></g></g><mask></mask><g transform="translate(88.78627687748485 357.4933921196251) rotate(0 154.7840118408203 35)"><text x="0" y="0" font-family="Virgil, Segoe UI Emoji" font-size="28px" fill="#1e1e1e" text-anchor="start" style="white-space: pre;" direction="ltr" dominant-baseline="text-before-edge">SELECT quantity</text><text x="0" y="35" font-family="Virgil, Segoe UI Emoji" font-size="28px" fill="#1e1e1e" text-anchor="start" style="white-space: pre;" direction="ltr" dominant-baseline="text-before-edge">WHERE product_id=34</text></g><g transform="translate(153.7849553014098 499.3086904990979) rotate(0 80.73800659179688 17.5)"><text x="0" y="0" font-family="Virgil, Segoe UI Emoji" font-size="28px" fill="#1e1e1e" text-anchor="start" style="white-space: pre;" direction="ltr" dominant-baseline="text-before-edge">quantity: 10</text></g><g transform="translate(931.185261691493 379.8453450557148) rotate(0 154.7840118408202 35)"><text x="309.5680236816406" y="0" font-family="Virgil, Segoe UI Emoji" font-size="28px" fill="#1e1e1e" text-anchor="end" style="white-space: pre;" direction="ltr" dominant-baseline="text-before-edge">SELECT quantity</text><text x="309.5680236816406" y="35" font-family="Virgil, Segoe UI Emoji" font-size="28px" fill="#1e1e1e" text-anchor="end" style="white-space: pre;" direction="ltr" dominant-baseline="text-before-edge">WHERE product_id=34</text></g><g transform="translate(1031.6377647102863 509.8427019035647) rotate(0 80.73800659179688 17.5)"><text x="0" y="0" font-family="Virgil, Segoe UI Emoji" font-size="28px" fill="#1e1e1e" text-anchor="start" style="white-space: pre;" direction="ltr" dominant-baseline="text-before-edge">quantity: 10</text></g><g stroke-linecap="round"><g transform="translate(1256.792831586198 455.9762382164812) rotate(0 -165.45575406334444 47.37074843637988)"><path d="M2.66 0.76 C-96.07 -3.43, -192 -4.75, -332.65 -4.47 M0.07 1.11 C-124.58 1.75, -248.8 -1.37, -333.64 -2.7 M-331.21 -6.17 C-332.74 23.66, -332.75 45.12, -331.53 94.45 M-333.56 -2.73 C-329.89 27.17, -332.8 61.85, -328.98 96.89 M-330.55 95.96 C-256.74 95.03, -180.83 93.72, 2.39 98.91 M-331.67 96.13 C-237.15 100.8, -141.61 102.43, 2.73 99.29" stroke="#1e1e1e" stroke-width="4" fill="none"></path></g><g transform="translate(1256.792831586198 455.9762382164812) rotate(0 -165.45575406334444 47.37074843637988)"><path d="M-21.39 111.05 C-15.33 108.8, -5.24 105.45, 3.05 98.51 M-25.22 111.56 C-14.75 106.93, -3.62 100.52, 1.6 101.12" stroke="#1e1e1e" stroke-width="4" fill="none"></path></g><g transform="translate(1256.792831586198 455.9762382164812) rotate(0 -165.45575406334444 47.37074843637988)"><path d="M-21.67 90.53 C-15.87 94.28, -5.69 96.92, 3.05 98.51 M-25.49 91.04 C-14.85 94.09, -3.63 95.36, 1.6 101.12" stroke="#1e1e1e" stroke-width="4" fill="none"></path></g></g><mask></mask><g transform="translate(964.8656522186752 868.0883594962079) rotate(0 123.2979965209961 35)"><text x="0" y="0" font-family="Virgil, Segoe UI Emoji" font-size="28px" fill="#1e1e1e" text-anchor="start" style="white-space: pre;" direction="ltr" dominant-baseline="text-before-edge">UPDATE</text><text x="0" y="35" font-family="Virgil, Segoe UI Emoji" font-size="28px" fill="#1e1e1e" text-anchor="start" style="white-space: pre;" direction="ltr" dominant-baseline="text-before-edge">SET quantity = 7</text></g><g stroke-linecap="round"><g transform="translate(1270.5804300397579 948.3904687007616) rotate(0 -173.63653893130402 3.8220395211409652)"><path d="M-2.08 -2.26 C-102.22 2.76, -198.2 7.45, -347.62 9.91 M0.34 -1.19 C-111.51 3.99, -224.13 6.68, -347.3 9.35" stroke="#1e1e1e" stroke-width="4" fill="none"></path></g><g transform="translate(1270.5804300397579 948.3904687007616) rotate(0 -173.63653893130402 3.8220395211409652)"><path d="M-322.53 -5.01 C-330.55 2.45, -332.2 8.42, -348.77 9.44 M-318.83 -3.37 C-326.9 1.38, -336.15 4.15, -348.29 8.58" stroke="#1e1e1e" stroke-width="4" fill="none"></path></g><g transform="translate(1270.5804300397579 948.3904687007616) rotate(0 -173.63653893130402 3.8220395211409652)"><path d="M-322.06 15.51 C-329.94 17.04, -331.73 17.07, -348.77 9.44 M-318.36 17.15 C-326.54 15.24, -335.95 11.35, -348.29 8.58" stroke="#1e1e1e" stroke-width="4" fill="none"></path></g></g><mask></mask><g stroke-linecap="round"><g transform="translate(74.99867842392496 1078.3878255486115) rotate(0 196.0532761681742 0.9576022402930846)"><path d="M1.58 -0.46 C118.24 -3.51, 230.73 -1.39, 392.7 3.78 M-0.93 0.15 C101.46 0.89, 203.55 1.38, 393.03 2.45" stroke="#1e1e1e" stroke-width="4" fill="none"></path></g><g transform="translate(74.99867842392496 1078.3878255486115) rotate(0 196.0532761681742 0.9576022402930846)"><path d="M367.5 11.76 C376.41 5.93, 377.98 5.57, 394.3 5.58 M363.19 12.82 C372.63 11.38, 381.41 8.75, 394.88 3.28" stroke="#1e1e1e" stroke-width="4" fill="none"></path></g><g transform="translate(74.99867842392496 1078.3878255486115) rotate(0 196.0532761681742 0.9576022402930846)"><path d="M367.62 -8.76 C376.28 -8.49, 377.81 -2.76, 394.3 5.58 M363.3 -7.7 C372.48 -3.84, 381.23 -1.18, 394.88 3.28" stroke="#1e1e1e" stroke-width="4" fill="none"></path></g></g><mask></mask><g transform="translate(202.17779378813543 1025.2070886563095) rotate(0 59.513999938964844 17.5)"><text x="119.02799987792969" y="0" font-family="Virgil, Segoe UI Emoji" font-size="28px" fill="#1e1e1e" text-anchor="end" style="white-space: pre;" direction="ltr" dominant-baseline="text-before-edge">COMMIT</text></g><g stroke-linecap="round"><g transform="translate(1276.4894008055692 1151.265131660285) rotate(0 -215.67347063877787 1.2366493720290919)"><path d="M-0.19 0.98 C-105.8 1.96, -212.48 2.77, -432.05 2.24 M0.71 -0.41 C-144.79 1.44, -288.18 3.22, -431.58 2.83" stroke="#1e1e1e" stroke-width="4" fill="none"></path></g><g transform="translate(1276.4894008055692 1151.265131660285) rotate(0 -215.67347063877787 1.2366493720290919)"><path d="M-403.77 -5.56 C-409 -2.09, -416.41 1.08, -432.93 3.35 M-402.03 -8.27 C-414.14 -4.46, -422.2 1.16, -432.01 4.5" stroke="#1e1e1e" stroke-width="4" fill="none"></path></g><g transform="translate(1276.4894008055692 1151.265131660285) rotate(0 -215.67347063877787 1.2366493720290919)"><path d="M-403.74 14.96 C-409.23 13.37, -416.64 11.47, -432.93 3.35 M-402 12.25 C-414.26 9.21, -422.33 7.97, -432.01 4.5" stroke="#1e1e1e" stroke-width="4" fill="none"></path></g></g><mask></mask><g transform="translate(942.7687964364932 1107.9326793776684) rotate(0 59.513999938964844 17.5)"><text x="119.02799987792969" y="0" font-family="Virgil, Segoe UI Emoji" font-size="28px" fill="#1e1e1e" text-anchor="end" style="white-space: pre;" direction="ltr" dominant-baseline="text-before-edge">COMMIT</text></g><g stroke-linecap="round" transform="translate(406.038118982141 1195.2030542528673) rotate(0 258.0250567737629 75.83179149457919)"><path d="M-0.92 0.72 C150.55 0.27, 300.54 1.25, 517.6 1.29 M-0.38 0.47 C144.22 -1.35, 286.88 -0.04, 516.19 0.26 M518.58 -2.61 C515.51 33.68, 516.22 62.27, 514.7 154.02 M515.44 1.59 C514.45 49.81, 513.84 95.31, 515.34 151.16 M515.22 150.31 C320.56 152.06, 126.2 152.02, 0.2 151.66 M515.55 152.43 C394.73 151.67, 273.32 151.6, -0.46 151.91 M3.61 152.86 C3.99 117.28, 5.42 91.33, 1.68 -1.89 M1.19 152.57 C3.02 105.87, 3.85 62.51, 0.17 -0.11" stroke="#1e1e1e" stroke-width="4" fill="none"></path></g><g stroke-linecap="round"><g transform="translate(662.0935188339672 1197.1727111748046) rotate(0 -0.29099722765386105 75.70299510339703)"><path d="M0.61 -3 C-1.93 40.06, 2.11 84.47, -0.86 154.41 M1.13 -1.84 C-3.1 49.79, -1.11 97.39, -1.71 154.02" stroke="#1e1e1e" stroke-width="4" fill="none"></path></g></g><mask></mask><g stroke-linecap="round"><g transform="translate(406.038118982141 1268.0803603645409) rotate(0 257.81616747822966 -0.2607343866146721)"><path d="M-0.07 -0.22 C179.44 3.71, 355.44 2.05, 516.29 -2.73 M-0.65 0.57 C185.21 3.35, 369.47 2.54, 515.49 -1.46" stroke="#1e1e1e" stroke-width="4" fill="none"></path></g></g><mask></mask><g transform="translate(453.309885108632 1214.8996234722385) rotate(0 95.30998992919922 22.5)"><text x="0" y="0" font-family="Virgil, Segoe UI Emoji" font-size="36px" fill="#1e1e1e" text-anchor="start" style="white-space: pre;" direction="ltr" dominant-baseline="text-before-edge">product_id</text></g><g transform="translate(725.1225403359549 1208.9906527064272) rotate(0 73.18799591064453 22.5)"><text x="0" y="0" font-family="Virgil, Segoe UI Emoji" font-size="36px" fill="#1e1e1e" text-anchor="start" style="white-space: pre;" direction="ltr" dominant-baseline="text-before-edge">quantity</text></g><g transform="translate(522.2478773764315 1285.8072726619748) rotate(0 23.777999877929688 22.5)"><text x="0" y="0" font-family="Virgil, Segoe UI Emoji" font-size="36px" fill="#1e1e1e" text-anchor="start" style="white-space: pre;" direction="ltr" dominant-baseline="text-before-edge">34</text></g><g transform="translate(774.3639633843827 1285.8072726619748) rotate(0 9.684000015258789 22.5)"><text x="0" y="0" font-family="Virgil, Segoe UI Emoji" font-size="36px" fill="#1e1e1e" text-anchor="start" style="white-space: pre;" direction="ltr" dominant-baseline="text-before-edge">7</text></g></svg>