<svg version="1.1" xmlns="http://www.w3.org/2000/svg" viewBox="0 0 1241.625991024277 1502.34884633494" width="2483.251982048554" height="3004.69769266988">
  <!-- svg-source:excalidraw -->
  
  <defs>
    <style class="style-fonts">
      @font-face {
        font-family: "Virgil";
        src: url("https://excalidraw.com/Virgil.woff2");
      }
      @font-face {
        font-family: "Cascadia";
        src: url("https://excalidraw.com/Cascadia.woff2");
      }
    </style>
    
  </defs>
  <rect x="0" y="0" width="1241.625991024277" height="1502.34884633494" fill="#ffffff"></rect><g stroke-linecap="round"><g transform="translate(88.9759386629704 89.62005073617655) rotate(0 1.7467629390088177 668.297222797835)"><path d="M-0.17 0.15 C1.63 529.39, 3.67 1062.75, 5.86 1336.45 M-0.19 0.58 C-6.05 407.08, -3.02 813.51, 6.67 1335.86" stroke="#1e1e1e" stroke-width="4" fill="none"></path></g></g><mask></mask><g stroke-linecap="round"><g transform="translate(1170.182318373493 70.3247837166233) rotate(0 5.214025655763066 670.9217553592325)"><path d="M1.26 -0.05 C-4.53 430.52, 0.26 862.44, 11.63 1342.28 M0.04 -0.44 C-2.82 450.58, 0.67 899.44, 11.29 1341.25" stroke="#1e1e1e" stroke-width="4" fill="none"></path></g></g><mask></mask><g transform="translate(10 22.651715390314394) rotate(0 67.15799713134766 22.5)"><text x="67.15799713134766" y="0" font-family="Virgil, Segoe UI Emoji" font-size="36px" fill="#1e1e1e" text-anchor="middle" style="white-space: pre;" direction="ltr" dominant-baseline="text-before-edge">트랜잭션1</text></g><g transform="translate(1081.4339896815036 10) rotate(0 75.09600067138672 22.5)"><text x="75.09600067138672" y="0" font-family="Virgil, Segoe UI Emoji" font-size="36px" fill="#1e1e1e" text-anchor="middle" style="white-space: pre;" direction="ltr" dominant-baseline="text-before-edge">트랜잭션2</text></g><g transform="translate(935.8941814665645 84.77176612649089) rotate(0 47.305999755859375 17.5)"><text x="47.305999755859375" y="0" font-family="Virgil, Segoe UI Emoji" font-size="28px" fill="#1e1e1e" text-anchor="middle" style="white-space: pre;" direction="ltr" dominant-baseline="text-before-edge">BEGIN</text></g><g stroke-linecap="round" transform="translate(406.09070309484696 227.4960352717751) rotate(0 218.6319183350206 135.90632761366135)"><path d="M0.91 -0.26 C85.68 -4.09, 175.26 -5.16, 438.63 1.96 M0.61 -0.99 C166.52 -0.9, 331.07 -1.62, 437.12 0.49 M434.88 -0.38 C441.29 101.99, 442.8 210.18, 437 271.24 M437.68 0.05 C437.57 85.31, 439.17 169.7, 437.97 272.65 M437.27 271.49 C283.21 271.46, 133.44 273.03, -0.13 270.85 M437.54 270.86 C282.34 272.26, 127.29 272.05, -0.97 271.55 M1.12 273.46 C-0.09 215.23, 4.55 156.7, -1.36 -0.87 M-0.77 272.42 C-0.84 206.66, 1.83 139.73, -0.92 -1.25" stroke="#1e1e1e" stroke-width="4" fill="none"></path></g><g stroke-linecap="round"><g transform="translate(410.030016938721 304.3126552273228) rotate(0 218.10280176003414 0.9696201197240839)"><path d="M-1.51 -0.57 C125.92 -2.77, 251.59 -0.98, 435.64 2.93 M-0.86 0.02 C121.07 -1.67, 239.99 -0.18, 437.72 3.46" stroke="#1e1e1e" stroke-width="4" fill="none"></path></g></g><mask></mask><g stroke-linecap="round"><g transform="translate(406.61981966983353 403.79553812639193) rotate(0 219.28715821928256 2.1437111762354846)"><path d="M1.33 0.75 C118.37 -0.2, 233.72 2.94, 439.28 2.67 M-0.7 0.54 C104.87 -1.78, 211.77 -0.29, 436.41 4.82" stroke="#1e1e1e" stroke-width="4" fill="none"></path></g></g><mask></mask><g stroke-linecap="round"><g transform="translate(626.6922783518048 225.52637834983807) rotate(0 -0.8335514164018605 134.21780810869186)"><path d="M-2.81 -1.98 C3.52 96.89, 2.26 188.83, -2.59 270.22 M-1.13 0.32 C1.37 105.88, -1.2 214.12, -3.17 270.41" stroke="#1e1e1e" stroke-width="4" fill="none"></path></g></g><mask></mask><g transform="translate(460.9101178007231 237.3443198814607) rotate(0 63.36000061035156 22.5)"><text x="63.36000061035156" y="0" font-family="Virgil, Segoe UI Emoji" font-size="36px" fill="#1e1e1e" text-anchor="middle" style="white-space: pre;" direction="ltr" dominant-baseline="text-before-edge">emp_no</text></g><g transform="translate(642.068725709838 249.16226141308357) rotate(0 96.89399719238281 22.5)"><text x="96.89399719238281" y="0" font-family="Virgil, Segoe UI Emoji" font-size="36px" fill="#1e1e1e" text-anchor="middle" style="white-space: pre;" direction="ltr" dominant-baseline="text-before-edge">first_name</text></g><g transform="translate(503.7577749820589 337.796822900254) rotate(0 22.48200035095215 22.5)"><text x="22.48200035095215" y="0" font-family="Virgil, Segoe UI Emoji" font-size="36px" fill="#1e1e1e" text-anchor="middle" style="white-space: pre;" direction="ltr" dominant-baseline="text-before-edge">49</text></g><g transform="translate(705.9740946041206 335.827165978317) rotate(0 25.110000610351562 22.5)"><text x="25.110000610351562" y="0" font-family="Virgil, Segoe UI Emoji" font-size="36px" fill="#1e1e1e" text-anchor="middle" style="white-space: pre;" direction="ltr" dominant-baseline="text-before-edge">sim</text></g><g transform="translate(494.8531482250969 432.3403551532358) rotate(0 23.507999420166016 22.5)"><text x="23.507999420166016" y="0" font-family="Virgil, Segoe UI Emoji" font-size="36px" fill="#1e1e1e" text-anchor="middle" style="white-space: pre;" direction="ltr" dominant-baseline="text-before-edge">50</text></g><g transform="translate(706.9820940242867 434.31001207517295) rotate(0 24.102001190185547 22.5)"><text x="24.102001190185547" y="0" font-family="Virgil, Segoe UI Emoji" font-size="36px" fill="#1e1e1e" text-anchor="middle" style="white-space: pre;" direction="ltr" dominant-baseline="text-before-edge">kim</text></g><g stroke-linecap="round" transform="translate(415.80036154800973 702.1876376711405) rotate(0 218.6319183350206 135.90632761366132)"><path d="M-1.05 0.91 C90.73 -0.81, 178.39 -0.87, 438.12 0.67 M0.25 -0.2 C116.84 -1.14, 235.23 -1.48, 437.19 0.01 M437.39 2.9 C441.75 81.64, 436.37 161.97, 434.52 273.45 M437.37 -0.32 C434.56 73.88, 437.19 147.63, 436.36 270.27 M438.63 270.93 C289.39 273.76, 138.2 271.37, 1.39 270.02 M436.74 271.2 C324.34 268.61, 209.57 270.16, -0.3 271.02 M-2.28 273.47 C5.46 201.06, 5.76 127.12, -3.08 -1.68 M0.17 272.85 C-3.94 207.07, -3.15 141.23, 0.1 0.21" stroke="#1e1e1e" stroke-width="4" fill="none"></path></g><g stroke-linecap="round"><g transform="translate(419.7396753918838 779.0042576266881) rotate(0 218.29781517264166 2.4796609186013256)"><path d="M1.52 1.66 C155.62 1.02, 312.19 1.48, 436.63 2.09 M-0.6 0.55 C148.24 2.43, 295.7 3.56, 437.2 4.41" stroke="#1e1e1e" stroke-width="4" fill="none"></path></g></g><mask></mask><g stroke-linecap="round"><g transform="translate(416.3294781229961 878.4871405257572) rotate(0 219.00081349362915 1.7682910556667935)"><path d="M-0.03 1.61 C151.8 -1.61, 301.22 -2.77, 438.03 4.45 M0.35 0.21 C122.29 -1.29, 244.69 0.27, 437.15 3.98" stroke="#1e1e1e" stroke-width="4" fill="none"></path></g></g><mask></mask><g stroke-linecap="round"><g transform="translate(636.4019368049676 700.2179807492034) rotate(0 -0.6342666358984843 136.54058963643425)"><path d="M1.33 1.03 C-1.8 101.12, -0.38 208.72, -2.6 269.96 M-0.12 0.01 C0.65 97.09, -0.12 192.78, -0.52 273.07" stroke="#1e1e1e" stroke-width="4" fill="none"></path></g></g><mask></mask><g transform="translate(470.6197762538859 712.0359222808261) rotate(0 63.36000061035156 22.5)"><text x="63.36000061035156" y="0" font-family="Virgil, Segoe UI Emoji" font-size="36px" fill="#1e1e1e" text-anchor="middle" style="white-space: pre;" direction="ltr" dominant-baseline="text-before-edge">emp_no</text></g><g transform="translate(651.7783841630007 723.8538638124489) rotate(0 96.89399719238281 22.5)"><text x="96.89399719238281" y="0" font-family="Virgil, Segoe UI Emoji" font-size="36px" fill="#1e1e1e" text-anchor="middle" style="white-space: pre;" direction="ltr" dominant-baseline="text-before-edge">first_name</text></g><g transform="translate(513.4674334352217 812.4884252996194) rotate(0 22.48200035095215 22.5)"><text x="22.48200035095215" y="0" font-family="Virgil, Segoe UI Emoji" font-size="36px" fill="#1e1e1e" text-anchor="middle" style="white-space: pre;" direction="ltr" dominant-baseline="text-before-edge">49</text></g><g transform="translate(715.6837530572834 810.5187683776824) rotate(0 25.110000610351562 22.5)"><text x="25.110000610351562" y="0" font-family="Virgil, Segoe UI Emoji" font-size="36px" fill="#1e1e1e" text-anchor="middle" style="white-space: pre;" direction="ltr" dominant-baseline="text-before-edge">sim</text></g><g transform="translate(504.5628066782597 907.0319575526012) rotate(0 23.507999420166016 22.5)"><text x="23.507999420166016" y="0" font-family="Virgil, Segoe UI Emoji" font-size="36px" fill="#1e1e1e" text-anchor="middle" style="white-space: pre;" direction="ltr" dominant-baseline="text-before-edge">50</text></g><g transform="translate(716.3677549798908 909.0016144745382) rotate(0 24.42599868774414 22.5)"><text x="24.42599868774414" y="0" font-family="Virgil, Segoe UI Emoji" font-size="36px" fill="#1e1e1e" text-anchor="middle" style="white-space: pre;" direction="ltr" dominant-baseline="text-before-edge">lee</text></g><g stroke-linecap="round" transform="translate(413.8307046260718 1121.724562043747) rotate(0 218.6319183350206 135.90632761366135)"><path d="M-1.67 1.64 C117.19 1.11, 237.4 -0.44, 436.88 1.03 M-1 0.5 C130.22 2.58, 259.26 3.48, 436.26 -0.74 M435.48 -0.48 C431.89 61.6, 435.49 125.34, 434.96 273.11 M436.55 -0.12 C435.07 99.12, 436.89 196.84, 438.78 270.48 M438.65 271.01 C306.78 274.42, 178.24 272.66, -1.6 271.73 M437.23 272.09 C325.61 271.75, 214.58 272.12, 0.79 271.68 M2.49 269.28 C-4.73 208.77, -4.07 147.28, 0 1.05 M0.83 271.34 C-2.84 171.47, -3.17 71.2, -0.32 -0.58" stroke="#1e1e1e" stroke-width="4" fill="none"></path></g><g stroke-linecap="round"><g transform="translate(417.77001846994585 1198.5411819992946) rotate(0 218.16552335331085 1.4075960928812492)"><path d="M-0.86 -0.45 C116.98 -4.54, 230.97 -0.47, 437.19 4.93 M0.65 -0.18 C103.88 -0.53, 206.55 -1.05, 436.59 3.08" stroke="#1e1e1e" stroke-width="4" fill="none"></path></g></g><mask></mask><g stroke-linecap="round"><g transform="translate(414.35982120105814 1298.0240648983636) rotate(0 218.83836591265072 0.7471694683270016)"><path d="M1.31 -2 C166.28 3.51, 333.27 4.98, 436 1.94 M0.12 0.72 C151.84 1.44, 305.01 2.7, 437.56 3.36" stroke="#1e1e1e" stroke-width="4" fill="none"></path></g></g><mask></mask><g stroke-linecap="round"><g transform="translate(634.4322798830297 1119.7549051218098) rotate(0 -0.7640420851512317 136.33304727786145)"><path d="M-0.59 1.59 C2.1 77, -0.29 147.87, -0.42 273.81 M-1.56 -1.14 C-1.1 75.27, -0.16 152.27, -2.21 270.93" stroke="#1e1e1e" stroke-width="4" fill="none"></path></g></g><mask></mask><g transform="translate(468.65011933194796 1131.5728466534324) rotate(0 63.36000061035156 22.5)"><text x="63.36000061035156" y="0" font-family="Virgil, Segoe UI Emoji" font-size="36px" fill="#1e1e1e" text-anchor="middle" style="white-space: pre;" direction="ltr" dominant-baseline="text-before-edge">emp_no</text></g><g transform="translate(649.8087272410628 1143.3907881850555) rotate(0 96.89399719238281 22.5)"><text x="96.89399719238281" y="0" font-family="Virgil, Segoe UI Emoji" font-size="36px" fill="#1e1e1e" text-anchor="middle" style="white-space: pre;" direction="ltr" dominant-baseline="text-before-edge">first_name</text></g><g transform="translate(511.4977765132837 1232.0253496722257) rotate(0 22.48200035095215 22.5)"><text x="22.48200035095215" y="0" font-family="Virgil, Segoe UI Emoji" font-size="36px" fill="#1e1e1e" text-anchor="middle" style="white-space: pre;" direction="ltr" dominant-baseline="text-before-edge">49</text></g><g transform="translate(713.7140961353455 1230.055692750289) rotate(0 25.110000610351562 22.5)"><text x="25.110000610351562" y="0" font-family="Virgil, Segoe UI Emoji" font-size="36px" fill="#1e1e1e" text-anchor="middle" style="white-space: pre;" direction="ltr" dominant-baseline="text-before-edge">sim</text></g><g transform="translate(502.59314975632174 1326.5688819252077) rotate(0 23.507999420166016 22.5)"><text x="23.507999420166016" y="0" font-family="Virgil, Segoe UI Emoji" font-size="36px" fill="#1e1e1e" text-anchor="middle" style="white-space: pre;" direction="ltr" dominant-baseline="text-before-edge">50</text></g><g transform="translate(714.3980980579529 1328.5385388471445) rotate(0 24.42599868774414 22.5)"><text x="24.42599868774414" y="0" font-family="Virgil, Segoe UI Emoji" font-size="36px" fill="#1e1e1e" text-anchor="middle" style="white-space: pre;" direction="ltr" dominant-baseline="text-before-edge">lee</text></g><g stroke-linecap="round"><g transform="translate(1158.4996472748276 132.95250301879378) rotate(0 -195.2176651194958 -1.4785478669341785)"><path d="M0.17 -0.42 C-131.51 -5.54, -264.17 -1.28, -388.73 -0.96 M-0.21 -0.03 C-130.96 -0.89, -260.66 -0.75, -390.61 -0.9" stroke="#1e1e1e" stroke-width="4" fill="none"></path></g><g transform="translate(1158.4996472748276 132.95250301879378) rotate(0 -195.2176651194958 -1.4785478669341785)"><path d="M-362.11 -11.86 C-371.66 -11.63, -383.01 -0.88, -388.45 -2.54 M-362.77 -11.19 C-373.13 -7.71, -381.8 -4.06, -391.66 -2.44" stroke="#1e1e1e" stroke-width="4" fill="none"></path></g><g transform="translate(1158.4996472748276 132.95250301879378) rotate(0 -195.2176651194958 -1.4785478669341785)"><path d="M-362.13 8.66 C-371.91 1.96, -383.25 5.8, -388.45 -2.54 M-362.78 9.33 C-373.34 5.96, -382 2.76, -391.66 -2.44" stroke="#1e1e1e" stroke-width="4" fill="none"></path></g></g><mask></mask><g stroke-linecap="round"><g transform="translate(1160.6560510598456 444.1582966848589) rotate(0 -157.5216174700921 74.35275646889293)"><path d="M-2.77 -0.75 C-90.51 -3.66, -181.52 -2, -314.49 -0.95 M1.35 -0.65 C-87.2 -0.6, -174.94 -1.68, -314.23 0.93 M-315.67 -2.99 C-313.51 51.23, -310.36 110.17, -309.86 144.67 M-316.39 -0.98 C-313.5 43.66, -314.16 88.21, -311.79 143.19 M-312.39 144.68 C-242.83 145.52, -175.01 148.92, -3.52 151.7 M-310.84 144.83 C-196.48 144.05, -80.02 147.85, -5.48 150.58" stroke="#1e1e1e" stroke-width="4" fill="none"></path></g><g transform="translate(1160.6560510598456 444.1582966848589) rotate(0 -157.5216174700921 74.35275646889293)"><path d="M-37.92 158.83 C-27.15 153.46, -21.13 153.16, -4.29 149.23 M-32.09 158.97 C-24.89 156.9, -16.49 152.78, -3.92 151.89" stroke="#1e1e1e" stroke-width="4" fill="none"></path></g><g transform="translate(1160.6560510598456 444.1582966848589) rotate(0 -157.5216174700921 74.35275646889293)"><path d="M-37.23 138.32 C-26.92 138.78, -21.1 144.29, -4.29 149.23 M-31.4 138.46 C-24.3 142.11, -16.09 143.72, -3.92 151.89" stroke="#1e1e1e" stroke-width="4" fill="none"></path></g></g><mask></mask><g transform="translate(850.3160447544192 363.402362885437) rotate(0 156.52001953125 35)"><text x="313.0400390625" y="0" font-family="Virgil, Segoe UI Emoji" font-size="28px" fill="#1e1e1e" text-anchor="end" style="white-space: pre;" direction="ltr" dominant-baseline="text-before-edge">SELECT</text><text x="313.0400390625" y="35" font-family="Virgil, Segoe UI Emoji" font-size="28px" fill="#1e1e1e" text-anchor="end" style="white-space: pre;" direction="ltr" dominant-baseline="text-before-edge">WHERE first_name=lee</text></g><g transform="translate(949.4264087370229 544.6107997036517) rotate(0 55.439998626708984 17.5)"><text x="55.439998626708984" y="0" font-family="Virgil, Segoe UI Emoji" font-size="28px" fill="#1e1e1e" text-anchor="middle" style="white-space: pre;" direction="ltr" dominant-baseline="text-before-edge">결과 없음</text></g><g stroke-linecap="round"><g transform="translate(88.97593866297052 649.0026165663193) rotate(0 188.6217481931937 1.1039240715563068)"><path d="M-0.32 -2.28 C119.71 1.33, 241.59 0.63, 376.76 4.49 M-0.28 -0.5 C147.37 -3.42, 292.54 -0.6, 377.56 4.11" stroke="#1e1e1e" stroke-width="4" fill="none"></path></g><g transform="translate(88.97593866297052 649.0026165663193) rotate(0 188.6217481931937 1.1039240715563068)"><path d="M348.46 9.46 C355.15 11.37, 364.72 5.17, 375.22 5.02 M348.52 12.42 C361.09 8.03, 369.75 6.64, 376.55 4.39" stroke="#1e1e1e" stroke-width="4" fill="none"></path></g><g transform="translate(88.97593866297052 649.0026165663193) rotate(0 188.6217481931937 1.1039240715563068)"><path d="M349.27 -11.04 C355.39 -2.54, 364.7 -2.14, 375.22 5.02 M349.33 -8.09 C361.92 -4.51, 370.27 2.05, 376.55 4.39" stroke="#1e1e1e" stroke-width="4" fill="none"></path></g></g><mask></mask><g transform="translate(220.9087188033891 601.9577627372624) rotate(0 47.305999755859375 17.5)"><text x="47.305999755859375" y="0" font-family="Virgil, Segoe UI Emoji" font-size="28px" fill="#1e1e1e" text-anchor="middle" style="white-space: pre;" direction="ltr" dominant-baseline="text-before-edge">BEGIN</text></g><g stroke-linecap="round"><g transform="translate(94.88490942878184 928.6938994813905) rotate(0 159.04915841441493 1.6436608803964532)"><path d="M-1.61 -1.94 C93.66 -0.35, 186.87 -1.44, 317.72 5.22 M0.2 0.78 C78.68 -0.28, 155.06 0.54, 319.71 2.78" stroke="#1e1e1e" stroke-width="4" fill="none"></path></g><g transform="translate(94.88490942878184 928.6938994813905) rotate(0 159.04915841441493 1.6436608803964532)"><path d="M289.09 9.92 C298.27 10.76, 304.39 4.6, 317.77 4.61 M291.67 13.79 C300.27 10.29, 305.66 7.69, 320.6 1.12" stroke="#1e1e1e" stroke-width="4" fill="none"></path></g><g transform="translate(94.88490942878184 928.6938994813905) rotate(0 159.04915841441493 1.6436608803964532)"><path d="M289.35 -10.6 C298.28 -3.65, 304.33 -3.72, 317.77 4.61 M291.93 -6.73 C300.14 -5.25, 305.46 -2.87, 320.6 1.12" stroke="#1e1e1e" stroke-width="4" fill="none"></path></g></g><mask></mask><g stroke-linecap="round"><g transform="translate(92.91525250684481 1082.327139392486) rotate(0 195.07864932215017 3.988221909906599)"><path d="M-0.05 0.11 C133.56 1.84, 263.6 3.51, 390.21 7.87 M0.33 0.91 C153.65 0.82, 305.88 3.2, 387.69 5.04" stroke="#1e1e1e" stroke-width="4" fill="none"></path></g><g transform="translate(92.91525250684481 1082.327139392486) rotate(0 195.07864932215017 3.988221909906599)"><path d="M359.22 14.95 C372.34 10.95, 379.51 7.09, 391.41 8.38 M359.87 16.32 C370.89 10.91, 380.11 7.14, 387.12 3.56" stroke="#1e1e1e" stroke-width="4" fill="none"></path></g><g transform="translate(92.91525250684481 1082.327139392486) rotate(0 195.07864932215017 3.988221909906599)"><path d="M359.61 -5.57 C372.77 -2.61, 379.81 0.48, 391.41 8.38 M360.26 -4.2 C371.19 -1.49, 380.26 2.85, 387.12 3.56" stroke="#1e1e1e" stroke-width="4" fill="none"></path></g></g><mask></mask><g transform="translate(189.00900994383665 1038.9946871098696) rotate(0 89.05399322509766 17.5)"><text x="89.05399322509766" y="0" font-family="Virgil, Segoe UI Emoji" font-size="28px" fill="#1e1e1e" text-anchor="middle" style="white-space: pre;" direction="ltr" dominant-baseline="text-before-edge">COMMIT(lee)</text></g><g transform="translate(105.8074540284781 847.9379656819686) rotate(0 146.65000915527344 35)"><text x="0" y="0" font-family="Virgil, Segoe UI Emoji" font-size="28px" fill="#1e1e1e" text-anchor="start" style="white-space: pre;" direction="ltr" dominant-baseline="text-before-edge">UPDATE</text><text x="0" y="35" font-family="Virgil, Segoe UI Emoji" font-size="28px" fill="#1e1e1e" text-anchor="start" style="white-space: pre;" direction="ltr" dominant-baseline="text-before-edge">SET first_name='lee'</text></g><g stroke-linecap="round"><g transform="translate(1169.591833810597 1340.3362596390712) rotate(0 -157.8258429567045 75.12014734921064)"><path d="M-0.05 0.54 C-119.31 1.94, -235.83 4.43, -315.43 -1.67 M1.35 0.92 C-104.12 2.78, -208.72 2, -315.46 1.16 M-317 2 C-310.46 41.23, -313.38 78.39, -313.34 140.58 M-315.97 -1.77 C-311.99 55.77, -310.32 114.33, -311.91 141.82 M-309.1 146.51 C-197.14 143.12, -86.09 149.16, -6.62 152.01 M-311.67 144.09 C-217.45 148.75, -123.28 150.32, -6.22 148.86" stroke="#1e1e1e" stroke-width="4" fill="none"></path></g><g transform="translate(1169.591833810597 1340.3362596390712) rotate(0 -157.8258429567045 75.12014734921064)"><path d="M-34.43 160.03 C-26.48 153.45, -14.66 153.09, -6.36 146.5 M-32.45 160.56 C-24.14 154.67, -14.43 150.11, -6.4 150.5" stroke="#1e1e1e" stroke-width="4" fill="none"></path></g><g transform="translate(1169.591833810597 1340.3362596390712) rotate(0 -157.8258429567045 75.12014734921064)"><path d="M-34.53 139.51 C-26.5 140.57, -14.64 147.86, -6.36 146.5 M-32.55 140.04 C-23.86 140.97, -14.12 143.24, -6.4 150.5" stroke="#1e1e1e" stroke-width="4" fill="none"></path></g></g><mask></mask><g transform="translate(859.2518275051707 1259.5803258396495) rotate(0 156.52001953125 35)"><text x="313.0400390625" y="0" font-family="Virgil, Segoe UI Emoji" font-size="28px" fill="#1e1e1e" text-anchor="end" style="white-space: pre;" direction="ltr" dominant-baseline="text-before-edge">SELECT</text><text x="313.0400390625" y="35" font-family="Virgil, Segoe UI Emoji" font-size="28px" fill="#1e1e1e" text-anchor="end" style="white-space: pre;" direction="ltr" dominant-baseline="text-before-edge">WHERE first_name=lee</text></g><g transform="translate(945.7061894430967 1440.788762657864) rotate(0 68.09600067138672 17.5)"><text x="68.09600067138672" y="0" font-family="Virgil, Segoe UI Emoji" font-size="28px" fill="#1e1e1e" text-anchor="middle" style="white-space: pre;" direction="ltr" dominant-baseline="text-before-edge">return lee</text></g></svg>