<svg version="1.1" xmlns="http://www.w3.org/2000/svg" viewBox="0 0 1631.618061567827 1487.015949234255" width="3263.236123135654" height="2974.03189846851">
  <!-- svg-source:excalidraw -->
  
  <defs>
    <style class="style-fonts">
      @font-face {
        font-family: "Virgil";
        src: url("https://excalidraw.com/Virgil.woff2");
      }
      @font-face {
        font-family: "Cascadia";
        src: url("https://excalidraw.com/Cascadia.woff2");
      }
    </style>
    
  </defs>
  <rect x="0" y="0" width="1631.618061567827" height="1487.015949234255" fill="#ffffff"></rect><g stroke-linecap="round"><g transform="translate(88.97593866297046 93.55936458005084) rotate(0 1.746762939008761 668.297222797835)"><path d="M-0.17 0.15 C1.63 529.39, 3.67 1062.75, 5.86 1336.45 M-0.19 0.58 C-6.05 407.08, -3.02 813.51, 6.67 1335.86" stroke="#1e1e1e" stroke-width="4" fill="none"></path></g></g><mask></mask><g stroke-linecap="round"><g transform="translate(1560.174388917043 70.3247837166233) rotate(0 5.214025655763066 670.9217553592325)"><path d="M1.26 -0.05 C-4.53 430.52, 0.26 862.44, 11.63 1342.28 M0.04 -0.44 C-2.82 450.58, 0.67 899.44, 11.29 1341.25" stroke="#1e1e1e" stroke-width="4" fill="none"></path></g></g><mask></mask><g transform="translate(10 26.59102923418868) rotate(0 67.15799713134768 22.5)"><text x="67.15799713134766" y="0" font-family="Virgil, Segoe UI Emoji" font-size="36px" fill="#1e1e1e" text-anchor="middle" style="white-space: pre;" direction="ltr" dominant-baseline="text-before-edge">트랜잭션1</text></g><g transform="translate(1471.4260602250536 10) rotate(0 75.09600067138672 22.5)"><text x="75.09600067138672" y="0" font-family="Virgil, Segoe UI Emoji" font-size="36px" fill="#1e1e1e" text-anchor="middle" style="white-space: pre;" direction="ltr" dominant-baseline="text-before-edge">트랜잭션2</text></g><g stroke-linecap="round" transform="translate(494.72526458201725 229.46569219371213) rotate(0 311.20579366606535 135.90632761366135)"><path d="M0.72 -0.21 C123.1 -4.63, 249.28 -5.48, 623.5 1.56 M0.48 -0.79 C236.45 -1.27, 471.35 -1.84, 622.3 0.39 M620.03 -0.38 C626.44 101.99, 627.95 210.18, 622.14 271.24 M622.83 0.05 C622.72 85.31, 624.32 169.7, 623.12 272.65 M622.42 271.56 C403.92 271.82, 188.84 273.07, -0.1 271.05 M622.63 271.06 C401.7 272.26, 180.89 272.09, -0.77 271.61 M1.12 273.46 C-0.09 215.23, 4.55 156.7, -1.36 -0.87 M-0.77 272.42 C-0.84 206.66, 1.83 139.73, -0.92 -1.25" stroke="#1e1e1e" stroke-width="4" fill="none"></path></g><g stroke-linecap="round"><g transform="translate(496.6949215039543 310.221625993134) rotate(0 311.7710821229741 -1.681883985803438)"><path d="M-1.2 -0.45 C179.9 -4.55, 359.6 -4.03, 623.09 -0.8 M-0.68 0.01 C172.32 -2.9, 342.95 -2.58, 624.74 -0.38" stroke="#1e1e1e" stroke-width="4" fill="none"></path></g></g><mask></mask><g stroke-linecap="round"><g transform="translate(499.1936950008781 409.70450889220314) rotate(0 309.7556807476596 -0.6596746988629256)"><path d="M1.06 0.59 C166.69 -1.19, 330.96 0.46, 620.07 -1.01 M-0.56 0.43 C148.94 -3.08, 299.47 -2.65, 617.8 0.69" stroke="#1e1e1e" stroke-width="4" fill="none"></path></g></g><mask></mask><g stroke-linecap="round"><g transform="translate(900.4745905010645 227.4960352717751) rotate(0 -0.8335514164018605 134.21780810869186)"><path d="M-2.81 -1.98 C3.52 96.89, 2.26 188.83, -2.59 270.22 M-1.13 0.32 C1.37 105.88, -1.2 214.12, -3.17 270.41" stroke="#1e1e1e" stroke-width="4" fill="none"></path></g></g><mask></mask><g transform="translate(728.7834591841715 243.25329064727202) rotate(0 63.36000061035156 22.5)"><text x="63.36000061035156" y="0" font-family="Virgil, Segoe UI Emoji" font-size="36px" fill="#1e1e1e" text-anchor="middle" style="white-space: pre;" direction="ltr" dominant-baseline="text-before-edge">emp_no</text></g><g transform="translate(913.8813809371607 247.19260449114643) rotate(0 96.89399719238281 22.5)"><text x="96.89399719238281" y="0" font-family="Virgil, Segoe UI Emoji" font-size="36px" fill="#1e1e1e" text-anchor="middle" style="white-space: pre;" direction="ltr" dominant-baseline="text-before-edge">first_name</text></g><g transform="translate(777.5400871313186 339.76647982219106) rotate(0 22.48200035095215 22.5)"><text x="22.48200035095215" y="0" font-family="Virgil, Segoe UI Emoji" font-size="36px" fill="#1e1e1e" text-anchor="middle" style="white-space: pre;" direction="ltr" dominant-baseline="text-before-edge">49</text></g><g transform="translate(979.7564067533804 337.796822900254) rotate(0 25.110000610351562 22.5)"><text x="25.110000610351562" y="0" font-family="Virgil, Segoe UI Emoji" font-size="36px" fill="#1e1e1e" text-anchor="middle" style="white-space: pre;" direction="ltr" dominant-baseline="text-before-edge">sim</text></g><g transform="translate(768.6354603743566 434.31001207517284) rotate(0 23.507999420166016 22.5)"><text x="23.507999420166016" y="0" font-family="Virgil, Segoe UI Emoji" font-size="36px" fill="#1e1e1e" text-anchor="middle" style="white-space: pre;" direction="ltr" dominant-baseline="text-before-edge">50</text></g><g transform="translate(980.7644061735464 436.27966899711) rotate(0 24.102001190185547 22.5)"><text x="24.102001190185547" y="0" font-family="Virgil, Segoe UI Emoji" font-size="36px" fill="#1e1e1e" text-anchor="middle" style="white-space: pre;" direction="ltr" dominant-baseline="text-before-edge">kim</text></g><g stroke-linecap="round"><g transform="translate(676.7672528166347 225.2452409328704) rotate(0 -1.1508106108607308 136.56939230354342)"><path d="M-2.04 1.67 C3.77 97.96, -1.81 192.78, -2.16 274.65 M-0.57 -1.51 C0.96 79.67, -1.88 161.14, -2.89 272.27" stroke="#1e1e1e" stroke-width="4" fill="none"></path></g></g><mask></mask><g transform="translate(517.203421417584 246.1319183350206) rotate(0 68.68800354003906 22.5)"><text x="68.68800354003906" y="0" font-family="Virgil, Segoe UI Emoji" font-size="36px" fill="#1e1e1e" text-anchor="middle" style="white-space: pre;" direction="ltr" dominant-baseline="text-before-edge">TRX-ID</text></g><g transform="translate(575.7791394552983 339.76647982219095) rotate(0 11.520000457763672 22.5)"><text x="11.520000457763672" y="0" font-family="Virgil, Segoe UI Emoji" font-size="36px" fill="#1e1e1e" text-anchor="middle" style="white-space: pre;" direction="ltr" dominant-baseline="text-before-edge">6</text></g><g transform="translate(573.809482533361 432.3403551532357) rotate(0 11.520000457763672 22.5)"><text x="11.520000457763672" y="0" font-family="Virgil, Segoe UI Emoji" font-size="36px" fill="#1e1e1e" text-anchor="middle" style="white-space: pre;" direction="ltr" dominant-baseline="text-before-edge">6</text></g><g stroke-linecap="round" transform="translate(506.36362395479165 636.1127129460714) rotate(0 311.20579366606535 178.25395143530955)"><path d="M-0.76 -0.98 C204.07 1.26, 408.02 1.17, 622.85 -0.95 M0.31 0.65 C177.94 4.4, 354.89 5.24, 622.72 -0.74 M622.85 1.06 C618.29 79.81, 618.61 162.11, 624.91 357.02 M623.34 0.47 C624.05 137.46, 623.26 275.95, 622.89 355.68 M623.21 355.09 C465.69 359.75, 311.23 360.5, -0.77 357.24 M622.37 356.42 C418.97 354.8, 215.21 355.42, -0.36 357.07 M0.29 358.04 C1.14 268.7, 2.78 175.99, -2.42 -0.19 M-0.39 356.91 C4.02 229.43, 3.46 99.65, 0.85 -1.27" stroke="#1e1e1e" stroke-width="4" fill="none"></path></g><g stroke-linecap="round"><g transform="translate(508.33328087672845 716.8686467454933) rotate(0 312.1263907238619 -0.2640182969047089)"><path d="M0.11 1.36 C188.59 4.31, 377.4 2.1, 624.14 -0.79 M0.52 -0.37 C127.53 -3.61, 255.29 -4.82, 623.78 -0.44" stroke="#1e1e1e" stroke-width="4" fill="none"></path></g></g><mask></mask><g stroke-linecap="round"><g transform="translate(510.8320543736525 816.3515296445624) rotate(0 309.6501390113994 -1.0987545200211173)"><path d="M0.11 1.27 C148.26 -5.15, 295.41 -4.98, 616.94 0.62 M0.04 0.47 C236.4 1.57, 471.58 1.87, 619.26 0.14" stroke="#1e1e1e" stroke-width="4" fill="none"></path></g></g><mask></mask><g stroke-linecap="round"><g transform="translate(912.1129498738389 634.1430560241344) rotate(0 -0.5302651520087238 178.32108729186518)"><path d="M0.7 -1.51 C-0.83 135.96, -3.65 275.4, 0.12 358.16 M0.49 -1.18 C-1.21 89.62, 0.5 180.84, -1.44 355.7" stroke="#1e1e1e" stroke-width="4" fill="none"></path></g></g><mask></mask><g transform="translate(740.4218185569459 649.9003113996313) rotate(0 63.36000061035156 22.5)"><text x="63.36000061035156" y="0" font-family="Virgil, Segoe UI Emoji" font-size="36px" fill="#1e1e1e" text-anchor="middle" style="white-space: pre;" direction="ltr" dominant-baseline="text-before-edge">emp_no</text></g><g transform="translate(925.5197403099348 653.8396252435057) rotate(0 96.89399719238281 22.5)"><text x="96.89399719238281" y="0" font-family="Virgil, Segoe UI Emoji" font-size="36px" fill="#1e1e1e" text-anchor="middle" style="white-space: pre;" direction="ltr" dominant-baseline="text-before-edge">first_name</text></g><g transform="translate(789.178446504093 746.4135005745503) rotate(0 22.48200035095215 22.5)"><text x="22.48200035095215" y="0" font-family="Virgil, Segoe UI Emoji" font-size="36px" fill="#1e1e1e" text-anchor="middle" style="white-space: pre;" direction="ltr" dominant-baseline="text-before-edge">49</text></g><g transform="translate(991.3947661261548 744.4438436526133) rotate(0 25.110000610351562 22.5)"><text x="25.110000610351562" y="0" font-family="Virgil, Segoe UI Emoji" font-size="36px" fill="#1e1e1e" text-anchor="middle" style="white-space: pre;" direction="ltr" dominant-baseline="text-before-edge">sim</text></g><g transform="translate(780.273819747131 840.9570328275321) rotate(0 23.507999420166016 22.5)"><text x="23.507999420166016" y="0" font-family="Virgil, Segoe UI Emoji" font-size="36px" fill="#1e1e1e" text-anchor="middle" style="white-space: pre;" direction="ltr" dominant-baseline="text-before-edge">50</text></g><g transform="translate(992.4027655463208 842.9266897494692) rotate(0 24.102001190185547 22.5)"><text x="24.102001190185547" y="0" font-family="Virgil, Segoe UI Emoji" font-size="36px" fill="#1e1e1e" text-anchor="middle" style="white-space: pre;" direction="ltr" dominant-baseline="text-before-edge">kim</text></g><g stroke-linecap="round"><g transform="translate(688.4056121894089 631.8922616852296) rotate(0 -3.8892533601540435 178.33105326213212)"><path d="M-1.41 2.52 C-5.77 120.93, -9.83 239.23, -7.21 355.92 M0.26 0.75 C-0.51 141.53, -3.06 280.96, -5.98 353.41" stroke="#1e1e1e" stroke-width="4" fill="none"></path></g></g><mask></mask><g transform="translate(528.8417807903581 652.7789390873799) rotate(0 68.68800354003906 22.5)"><text x="68.68800354003906" y="0" font-family="Virgil, Segoe UI Emoji" font-size="36px" fill="#1e1e1e" text-anchor="middle" style="white-space: pre;" direction="ltr" dominant-baseline="text-before-edge">TRX-ID</text></g><g transform="translate(587.4174988280727 746.4135005745502) rotate(0 11.520000457763672 22.5)"><text x="11.520000457763672" y="0" font-family="Virgil, Segoe UI Emoji" font-size="36px" fill="#1e1e1e" text-anchor="middle" style="white-space: pre;" direction="ltr" dominant-baseline="text-before-edge">6</text></g><g transform="translate(585.4478419061354 838.987375905595) rotate(0 11.520000457763672 22.5)"><text x="11.520000457763672" y="0" font-family="Virgil, Segoe UI Emoji" font-size="36px" fill="#1e1e1e" text-anchor="middle" style="white-space: pre;" direction="ltr" dominant-baseline="text-before-edge">6</text></g><g stroke-linecap="round"><g transform="translate(514.0078315341175 908.1264278601033) rotate(0 308.8185067493037 -0.1920746999924745)"><path d="M-1.36 1.14 C178.34 -3.76, 356.74 -4.21, 617.88 -0.23 M-0.31 0.05 C243.6 3.77, 487.42 2.92, 618.99 0.02" stroke="#1e1e1e" stroke-width="4" fill="none"></path></g></g><mask></mask><g transform="translate(577.4837673566701 932.6332133252648) rotate(0 17.694000244140625 22.5)"><text x="17.694000244140625" y="0" font-family="Virgil, Segoe UI Emoji" font-size="36px" fill="#1e1e1e" text-anchor="middle" style="white-space: pre;" direction="ltr" dominant-baseline="text-before-edge">12</text></g><g transform="translate(782.050431658967 928.6938994813905) rotate(0 16.001998901367188 22.5)"><text x="16.001998901367188" y="0" font-family="Virgil, Segoe UI Emoji" font-size="36px" fill="#1e1e1e" text-anchor="middle" style="white-space: pre;" direction="ltr" dominant-baseline="text-before-edge">51</text></g><g transform="translate(988.3190363637361 930.6635564033276) rotate(0 24.42599868774414 22.5)"><text x="24.42599868774414" y="0" font-family="Virgil, Segoe UI Emoji" font-size="36px" fill="#1e1e1e" text-anchor="middle" style="white-space: pre;" direction="ltr" dominant-baseline="text-before-edge">lee</text></g><g stroke-linecap="round" transform="translate(512.3081284011832 1120.5080463636361) rotate(0 311.20579366606535 178.2539514353095)"><path d="M-1.26 -1.36 C203.76 -1.9, 407.54 -2.18, 623.68 1.25 M0.74 -0.29 C153.18 -2.81, 305.25 -2.99, 622.85 -0.32 M621.8 0.32 C623.96 95.69, 625.47 187.32, 624.45 357.67 M621.69 -0.62 C625.14 127.69, 624.36 253.23, 622.66 357.4 M620.95 357.71 C431.26 356.09, 242.63 357.84, -0.45 357.85 M622.87 356.4 C392.39 352.89, 160.57 351.97, -0.57 357.12 M0.97 355.75 C2.96 226.96, 4.51 97.87, 2.48 1.23 M0.19 357.28 C3.82 222.38, 2.6 86.6, -0.62 -0.64" stroke="#1e1e1e" stroke-width="4" fill="none"></path></g><g stroke-linecap="round"><g transform="translate(514.27778532312 1201.263980163058) rotate(0 311.88173865859966 1.7759326950204581)"><path d="M-0.32 0.2 C213.05 4.18, 428.61 5.51, 623.51 0.02 M0.26 -0.12 C220.39 1.52, 442.43 1.5, 624.08 0.37" stroke="#1e1e1e" stroke-width="4" fill="none"></path></g></g><mask></mask><g stroke-linecap="round"><g transform="translate(516.7765588200441 1300.7468630621272) rotate(0 309.3578640035853 0.5835372906178122)"><path d="M-0.62 -0.08 C134.08 0.62, 264.76 -0.61, 619.34 1.47 M-0.61 -0.3 C163.45 0.44, 325.72 1.13, 618.5 -0.19" stroke="#1e1e1e" stroke-width="4" fill="none"></path></g></g><mask></mask><g stroke-linecap="round"><g transform="translate(918.0574543202308 1118.538389441699) rotate(0 -0.7865046742242612 178.41107219367876)"><path d="M2.03 2 C-3.77 111.52, -1.62 225.34, -2.9 357.33 M0.7 -0.51 C-4.49 102.05, -4.53 202.63, -1.81 356.23" stroke="#1e1e1e" stroke-width="4" fill="none"></path></g></g><mask></mask><g transform="translate(746.3663230033378 1134.295644817196) rotate(0 63.36000061035156 22.5)"><text x="63.36000061035156" y="0" font-family="Virgil, Segoe UI Emoji" font-size="36px" fill="#1e1e1e" text-anchor="middle" style="white-space: pre;" direction="ltr" dominant-baseline="text-before-edge">emp_no</text></g><g transform="translate(931.4642447563263 1138.2349586610703) rotate(0 96.89399719238281 22.5)"><text x="96.89399719238281" y="0" font-family="Virgil, Segoe UI Emoji" font-size="36px" fill="#1e1e1e" text-anchor="middle" style="white-space: pre;" direction="ltr" dominant-baseline="text-before-edge">first_name</text></g><g transform="translate(795.1229509504844 1230.808833992115) rotate(0 22.48200035095215 22.5)"><text x="22.48200035095215" y="0" font-family="Virgil, Segoe UI Emoji" font-size="36px" fill="#1e1e1e" text-anchor="middle" style="white-space: pre;" direction="ltr" dominant-baseline="text-before-edge">49</text></g><g transform="translate(997.3392705725462 1228.839177070178) rotate(0 25.110000610351562 22.5)"><text x="25.110000610351562" y="0" font-family="Virgil, Segoe UI Emoji" font-size="36px" fill="#1e1e1e" text-anchor="middle" style="white-space: pre;" direction="ltr" dominant-baseline="text-before-edge">sim</text></g><g transform="translate(786.2183241935224 1325.3523662450968) rotate(0 23.507999420166016 22.5)"><text x="23.507999420166016" y="0" font-family="Virgil, Segoe UI Emoji" font-size="36px" fill="#1e1e1e" text-anchor="middle" style="white-space: pre;" direction="ltr" dominant-baseline="text-before-edge">50</text></g><g transform="translate(998.3472699927122 1327.3220231670339) rotate(0 24.102001190185547 22.5)"><text x="24.102001190185547" y="0" font-family="Virgil, Segoe UI Emoji" font-size="36px" fill="#1e1e1e" text-anchor="middle" style="white-space: pre;" direction="ltr" dominant-baseline="text-before-edge">kim</text></g><g stroke-linecap="round"><g transform="translate(694.3501166358005 1116.2875951027945) rotate(0 -2.5344383312951777 176.74731743272156)"><path d="M1.18 0.08 C-4.54 126.16, -6.58 253.67, -4.94 354.42 M0.65 -0.92 C-0.9 134, -1.98 269.98, -6.25 353.91" stroke="#1e1e1e" stroke-width="4" fill="none"></path></g></g><mask></mask><g transform="translate(534.7862852367498 1137.1742725049446) rotate(0 68.68800354003906 22.5)"><text x="68.68800354003906" y="0" font-family="Virgil, Segoe UI Emoji" font-size="36px" fill="#1e1e1e" text-anchor="middle" style="white-space: pre;" direction="ltr" dominant-baseline="text-before-edge">TRX-ID</text></g><g transform="translate(593.3620032744643 1230.808833992115) rotate(0 11.520000457763672 22.5)"><text x="11.520000457763672" y="0" font-family="Virgil, Segoe UI Emoji" font-size="36px" fill="#1e1e1e" text-anchor="middle" style="white-space: pre;" direction="ltr" dominant-baseline="text-before-edge">6</text></g><g transform="translate(591.392346352527 1323.3827093231598) rotate(0 11.520000457763672 22.5)"><text x="11.520000457763672" y="0" font-family="Virgil, Segoe UI Emoji" font-size="36px" fill="#1e1e1e" text-anchor="middle" style="white-space: pre;" direction="ltr" dominant-baseline="text-before-edge">6</text></g><g stroke-linecap="round"><g transform="translate(519.9523359805091 1392.521761277668) rotate(0 309.6154770552681 0.6171941228686251)"><path d="M1.27 0.73 C234.1 1.04, 465.25 -0.67, 617.7 0.54 M0.16 0.56 C222.78 3.14, 445.46 1.67, 619.07 -0.69" stroke="#1e1e1e" stroke-width="4" fill="none"></path></g></g><mask></mask><g transform="translate(583.4282718030618 1417.0285467428296) rotate(0 17.694000244140625 22.5)"><text x="17.694000244140625" y="0" font-family="Virgil, Segoe UI Emoji" font-size="36px" fill="#1e1e1e" text-anchor="middle" style="white-space: pre;" direction="ltr" dominant-baseline="text-before-edge">12</text></g><g transform="translate(787.9949361053584 1413.0892328989553) rotate(0 16.001998901367188 22.5)"><text x="16.001998901367188" y="0" font-family="Virgil, Segoe UI Emoji" font-size="36px" fill="#1e1e1e" text-anchor="middle" style="white-space: pre;" direction="ltr" dominant-baseline="text-before-edge">51</text></g><g transform="translate(994.2635408101276 1415.0588898208923) rotate(0 24.42599868774414 22.5)"><text x="24.42599868774414" y="0" font-family="Virgil, Segoe UI Emoji" font-size="36px" fill="#1e1e1e" text-anchor="middle" style="white-space: pre;" direction="ltr" dominant-baseline="text-before-edge">lee</text></g><g stroke-linecap="round"><g transform="translate(1560.3096593500004 111.28627687748508) rotate(0 -260.21243053635476 0.45755610448111383)"><path d="M-0.5 -0.12 C-177.63 -2.44, -357.91 -3.04, -519.68 2.71 M-0.43 0.3 C-133.48 -1.83, -266.41 -0.93, -519.99 2.05" stroke="#1e1e1e" stroke-width="4" fill="none"></path></g><g transform="translate(1560.3096593500004 111.28627687748508) rotate(0 -260.21243053635476 0.45755610448111383)"><path d="M-493.17 -8.81 C-499.99 -5.76, -514.73 -5.33, -519.22 3.9 M-492.99 -7.75 C-499.4 -6.39, -505.46 -2.68, -520 2.24" stroke="#1e1e1e" stroke-width="4" fill="none"></path></g><g transform="translate(1560.3096593500004 111.28627687748508) rotate(0 -260.21243053635476 0.45755610448111383)"><path d="M-492.95 11.71 C-500.01 7.72, -514.83 1.12, -519.22 3.9 M-492.78 12.77 C-499.08 8.86, -505.2 7.31, -520 2.24" stroke="#1e1e1e" stroke-width="4" fill="none"></path></g></g><mask></mask><g transform="translate(1182.955874675367 70.98416767293122) rotate(0 135.0859832763672 17.5)"><text x="135.0859832763672" y="0" font-family="Virgil, Segoe UI Emoji" font-size="28px" fill="#1e1e1e" text-anchor="middle" style="white-space: pre;" direction="ltr" dominant-baseline="text-before-edge">BEGIN(TRX-ID: 10)</text></g><g stroke-linecap="round"><g transform="translate(1562.2793162719372 438.24932591904724) rotate(0 -219.09735539089286 60.90248638264456)"><path d="M1.04 -0.12 C-108.07 7.49, -216.05 9.31, -438.97 7.25 M0.41 -0.16 C-171.31 7.09, -339.78 8.78, -436.69 8.88 M-436.81 9.67 C-436.56 42.74, -435.03 75.36, -439.24 117.29 M-437.52 8.13 C-437.6 34.14, -438.32 64.83, -439.07 121.96 M-438.48 119.09 C-273 119.42, -108.23 118.16, -3.2 121.41 M-437.97 119.77 C-328.74 118.84, -220.52 119.6, -3.14 121.76" stroke="#1e1e1e" stroke-width="4" fill="none"></path></g><g transform="translate(1562.2793162719372 438.24932591904724) rotate(0 -219.09735539089286 60.90248638264456)"><path d="M-29.36 131.52 C-22.94 132.38, -14.05 129.6, -6.53 120.52 M-30.63 131.45 C-22.22 129.36, -7.67 122.75, -2 123.75" stroke="#1e1e1e" stroke-width="4" fill="none"></path></g><g transform="translate(1562.2793162719372 438.24932591904724) rotate(0 -219.09735539089286 60.90248638264456)"><path d="M-29.18 111 C-22.53 116.97, -13.68 119.31, -6.53 120.52 M-30.44 110.93 C-22.45 116.83, -7.98 118.21, -2 123.75" stroke="#1e1e1e" stroke-width="4" fill="none"></path></g></g><mask></mask><g transform="translate(1256.4463074009245 320.06991060281996) rotate(0 143.51402282714844 52.5)"><text x="287.0280456542969" y="0" font-family="Virgil, Segoe UI Emoji" font-size="28px" fill="#1e1e1e" text-anchor="end" style="white-space: pre;" direction="ltr" dominant-baseline="text-before-edge">SELECT</text><text x="287.0280456542969" y="35" font-family="Virgil, Segoe UI Emoji" font-size="28px" fill="#1e1e1e" text-anchor="end" style="white-space: pre;" direction="ltr" dominant-baseline="text-before-edge">WHERE emp_no &gt;=50</text><text x="287.0280456542969" y="70" font-family="Virgil, Segoe UI Emoji" font-size="28px" fill="#1e1e1e" text-anchor="end" style="white-space: pre;" direction="ltr" dominant-baseline="text-before-edge">FOR UPDATE</text></g><g transform="translate(1330.6690342674992 513.096288952658) rotate(0 76.41200256347656 17.5)"><text x="152.82400512695312" y="0" font-family="Virgil, Segoe UI Emoji" font-size="28px" fill="#1e1e1e" text-anchor="end" style="white-space: pre;" direction="ltr" dominant-baseline="text-before-edge">결과 1건(kim)</text></g><g stroke-linecap="round"><g transform="translate(88.9759386629704 595.8218796740169) rotate(0 226.3664411096926 -1.079136105779071)"><path d="M-0.06 1.05 C181.31 -2.64, 360.19 -1.72, 452.73 -1.69 M-0.04 -0.11 C126.89 -3.98, 254.1 -4.42, 452.79 -0.31" stroke="#1e1e1e" stroke-width="4" fill="none"></path></g><g transform="translate(88.9759386629704 595.8218796740169) rotate(0 226.3664411096926 -1.079136105779071)"><path d="M424.32 11.7 C439.57 5.55, 449.56 3.58, 452.19 -3.85 M424.37 9.28 C432.51 5.24, 441.17 1.58, 452.31 -0.96" stroke="#1e1e1e" stroke-width="4" fill="none"></path></g><g transform="translate(88.9759386629704 595.8218796740169) rotate(0 226.3664411096926 -1.079136105779071)"><path d="M424.64 -8.82 C439.61 -6.84, 449.47 -0.67, 452.19 -3.85 M424.69 -11.24 C432.54 -9.53, 441.11 -7.45, 452.31 -0.96" stroke="#1e1e1e" stroke-width="4" fill="none"></path></g></g><mask></mask><g transform="translate(195.8217582497128 552.7163396888344) rotate(0 135.42198181152344 17.5)"><text x="135.42198181152344" y="0" font-family="Virgil, Segoe UI Emoji" font-size="28px" fill="#1e1e1e" text-anchor="middle" style="white-space: pre;" direction="ltr" dominant-baseline="text-before-edge">BEGIN(TRX-ID: 12)</text></g><g stroke-linecap="round"><g transform="translate(94.88490942878184 932.6332133252648) rotate(0 205.78719604121005 -4.0396092015971305)"><path d="M1.99 -1.67 C159.21 -0.37, 313.64 -1.87, 410.9 -7.9 M-1.08 -0.18 C151.06 -3.95, 300.42 -6.28, 412.66 -7.46" stroke="#1e1e1e" stroke-width="4" fill="none"></path></g><g transform="translate(94.88490942878184 932.6332133252648) rotate(0 205.78719604121005 -4.0396092015971305)"><path d="M388.24 0.11 C398.51 -2.84, 403.64 -4.14, 411.27 -7.5 M382.62 2.83 C396.41 -2.47, 405.15 -5.33, 414.48 -6.68" stroke="#1e1e1e" stroke-width="4" fill="none"></path></g><g transform="translate(94.88490942878184 932.6332133252648) rotate(0 205.78719604121005 -4.0396092015971305)"><path d="M387.99 -20.41 C398.05 -15.51, 403.27 -8.95, 411.27 -7.5 M382.36 -17.69 C396.57 -15.5, 405.41 -10.88, 414.48 -6.68" stroke="#1e1e1e" stroke-width="4" fill="none"></path></g></g><mask></mask><g transform="translate(109.85847141860359 847.9379656819684) rotate(0 171.75199890136722 35)"><text x="0" y="0" font-family="Virgil, Segoe UI Emoji" font-size="28px" fill="#1e1e1e" text-anchor="start" style="white-space: pre;" direction="ltr" dominant-baseline="text-before-edge">INSERT INTO employees</text><text x="0" y="35" font-family="Virgil, Segoe UI Emoji" font-size="28px" fill="#1e1e1e" text-anchor="start" style="white-space: pre;" direction="ltr" dominant-baseline="text-before-edge">(51, 'lee')</text></g><g stroke-linecap="round"><g transform="translate(96.99867126379525 1063.9629693923166) rotate(0 227.3403877710864 0.652269873731484)"><path d="M0.2 0.18 C135.43 -1.06, 275.13 -2.12, 454.9 -0.17 M-0.22 0.25 C177.75 2.72, 353.29 3.72, 452.16 0.6" stroke="#1e1e1e" stroke-width="4" fill="none"></path></g><g transform="translate(96.99867126379525 1063.9629693923166) rotate(0 227.3403877710864 0.652269873731484)"><path d="M424.55 11.71 C430.1 9.99, 444.94 4.53, 456.08 0.25 M423.68 11.84 C436.58 6.52, 444.59 4.42, 450.35 1.86" stroke="#1e1e1e" stroke-width="4" fill="none"></path></g><g transform="translate(96.99867126379525 1063.9629693923166) rotate(0 227.3403877710864 0.652269873731484)"><path d="M424.21 -8.81 C429.79 -4.34, 444.72 -3.61, 456.08 0.25 M423.34 -8.68 C436.76 -5.97, 444.91 -0.07, 450.35 1.86" stroke="#1e1e1e" stroke-width="4" fill="none"></path></g></g><mask></mask><g transform="translate(191.63648303803762 1020.8574294071342) rotate(0 147.62998962402344 17.5)"><text x="147.62998962402344" y="0" font-family="Virgil, Segoe UI Emoji" font-size="28px" fill="#1e1e1e" text-anchor="middle" style="white-space: pre;" direction="ltr" dominant-baseline="text-before-edge">COMMIT(TRX-ID: 12)</text></g><g stroke-linecap="round"><g transform="translate(1574.5626948594322 1318.7634462963758) rotate(0 -218.9526118079142 59.94850184687385)"><path d="M1.33 -2.01 C-125.35 -1.38, -248.45 2.05, -435.61 9.65 M0.37 0.95 C-163.19 5.81, -326.81 9.68, -437.61 7.55 M-434.57 10.23 C-433.43 54.29, -436.61 95.71, -435.14 117.71 M-436.42 9.39 C-437.34 32, -436.43 54.67, -437.59 119.56 M-439.24 119.35 C-333.01 119.38, -230.79 123.22, -2.49 121.37 M-436.54 120.25 C-283.38 118.96, -130.85 120.79, -4.38 121.91" stroke="#1e1e1e" stroke-width="4" fill="none"></path></g><g transform="translate(1574.5626948594322 1318.7634462963758) rotate(0 -218.9526118079142 59.94850184687385)"><path d="M-30.02 127.92 C-25.45 129.03, -13.53 128.49, -1.1 125.41 M-31.92 133.79 C-21.31 127.62, -11 125.73, -5.06 121.27" stroke="#1e1e1e" stroke-width="4" fill="none"></path></g><g transform="translate(1574.5626948594322 1318.7634462963758) rotate(0 -218.9526118079142 59.94850184687385)"><path d="M-29.84 107.4 C-25.04 114.37, -13.17 119.7, -1.1 125.41 M-31.74 113.27 C-21.42 114.77, -11.18 120.55, -5.06 121.27" stroke="#1e1e1e" stroke-width="4" fill="none"></path></g></g><mask></mask><g transform="translate(1268.7296859884195 1200.5840309801486) rotate(0 143.51402282714844 52.5)"><text x="287.0280456542969" y="0" font-family="Virgil, Segoe UI Emoji" font-size="28px" fill="#1e1e1e" text-anchor="end" style="white-space: pre;" direction="ltr" dominant-baseline="text-before-edge">SELECT</text><text x="287.0280456542969" y="35" font-family="Virgil, Segoe UI Emoji" font-size="28px" fill="#1e1e1e" text-anchor="end" style="white-space: pre;" direction="ltr" dominant-baseline="text-before-edge">WHERE emp_no &gt;=50</text><text x="287.0280456542969" y="70" font-family="Virgil, Segoe UI Emoji" font-size="28px" fill="#1e1e1e" text-anchor="end" style="white-space: pre;" direction="ltr" dominant-baseline="text-before-edge">FOR UPDATE</text></g><g transform="translate(1285.4124195688614 1393.6104093299869) rotate(0 105.18199920654297 17.5)"><text x="210.36399841308594" y="0" font-family="Virgil, Segoe UI Emoji" font-size="28px" fill="#1e1e1e" text-anchor="end" style="white-space: pre;" direction="ltr" dominant-baseline="text-before-edge">결과 2건(kim,lee)</text></g></svg>