<svg version="1.1" xmlns="http://www.w3.org/2000/svg" viewBox="0 0 1302.8156415375227 1673.895862060578" width="2605.6312830750453" height="3347.791724121156">
  <!-- svg-source:excalidraw -->
  
  <defs>
    <style class="style-fonts">
      @font-face {
        font-family: "Virgil";
        src: url("https://excalidraw.com/Virgil.woff2");
      }
      @font-face {
        font-family: "Cascadia";
        src: url("https://excalidraw.com/Cascadia.woff2");
      }
    </style>
    
  </defs>
  <rect x="0" y="0" width="1302.8156415375227" height="1673.895862060578" fill="#ffffff"></rect><g stroke-linecap="round" transform="translate(424.0072771777666 199.0870645059639) rotate(0 215.67743295211483 118.17941531622728)"><path d="M-1.09 -1.45 C128.94 -1.03, 262.18 -1.05, 433.07 -1.98 M-0.33 -0.14 C93.12 0.66, 187.91 -0.9, 430.94 -0.28 M428.57 1.81 C427.73 60.76, 428.64 116.07, 431.88 234.02 M431.61 -0.67 C434.08 51.39, 435.1 101.01, 432.31 236.88 M431.52 234.38 C269.32 240.89, 107.62 241.41, -0.19 234.58 M431.66 236.61 C311.99 240.02, 193.57 240.79, -0.96 235.85 M-0.88 237.82 C0.76 172.15, 0.23 115.17, -2.69 -2.44 M0.1 235.87 C-2.22 142.58, -2.01 49.22, -0.66 0.4" stroke="#1e1e1e" stroke-width="4" fill="none"></path></g><g stroke-linecap="round"><g transform="translate(642.639195512787 199.0870645059639) rotate(0 1.2688228789231744 119.11702104313963)"><path d="M0.8 2.82 C-0.82 69.22, 4.34 138.56, -1.05 236.38 M0.32 0.67 C3.57 58.44, 5.08 117.56, 1.63 237.57" stroke="#1e1e1e" stroke-width="4" fill="none"></path></g></g><mask></mask><g stroke-linecap="round"><g transform="translate(424.0072771777666 272.2071152421404) rotate(0 216.11780269518988 -1.869103468589799)"><path d="M0.58 -1.8 C163.44 -4.28, 332.04 -6.04, 432.14 -1.01 M-0.08 0.49 C117.16 -4.23, 234.03 -4.5, 432.32 -1.93" stroke="#1e1e1e" stroke-width="4" fill="none"></path></g></g><mask></mask><g stroke-linecap="round"><g transform="translate(425.9769340997036 346.90236288543656) rotate(0 214.78094768638312 2.3371725619063284)"><path d="M-1.09 1.88 C136.03 5.66, 275.49 5.2, 430.65 2.56 M0.91 0.04 C122.69 2.21, 244.02 3.08, 429.08 2.79" stroke="#1e1e1e" stroke-width="4" fill="none"></path></g></g><mask></mask><g transform="translate(474.5563989314044 209.84431988146082) rotate(0 63.36000061035156 22.5)"><text x="126.72000122070312" y="0" font-family="Virgil, Segoe UI Emoji" font-size="36px" fill="#1e1e1e" text-anchor="end" style="white-space: pre;" direction="ltr" dominant-baseline="text-before-edge">emp_no</text></g><g transform="translate(651.7258640875448 214.84431988146082) rotate(0 96.89399719238281 22.5)"><text x="193.78799438476562" y="0" font-family="Virgil, Segoe UI Emoji" font-size="36px" fill="#1e1e1e" text-anchor="end" style="white-space: pre;" direction="ltr" dominant-baseline="text-before-edge">first_name</text></g><g transform="translate(511.01029024564923 289.6912829150715) rotate(0 22.48200035095215 22.5)"><text x="44.9640007019043" y="0" font-family="Virgil, Segoe UI Emoji" font-size="36px" fill="#1e1e1e" text-anchor="end" style="white-space: pre;" direction="ltr" dominant-baseline="text-before-edge">49</text></g><g transform="translate(518.8065767169071 372.4168736364305) rotate(0 23.507999420166016 22.5)"><text x="47.01599884033203" y="0" font-family="Virgil, Segoe UI Emoji" font-size="36px" fill="#1e1e1e" text-anchor="end" style="white-space: pre;" direction="ltr" dominant-baseline="text-before-edge">50</text></g><g transform="translate(714.5379234521852 289.6912829150715) rotate(0 25.110000610351562 22.5)"><text x="50.220001220703125" y="0" font-family="Virgil, Segoe UI Emoji" font-size="36px" fill="#1e1e1e" text-anchor="end" style="white-space: pre;" direction="ltr" dominant-baseline="text-before-edge">sim</text></g><g transform="translate(714.5842653705804 376.3561874803048) rotate(0 24.102001190185547 22.5)"><text x="48.204002380371094" y="0" font-family="Virgil, Segoe UI Emoji" font-size="36px" fill="#1e1e1e" text-anchor="end" style="white-space: pre;" direction="ltr" dominant-baseline="text-before-edge">kim</text></g><g stroke-linecap="round" transform="translate(418.48906317296587 590.4451623993423) rotate(0 215.67743295211483 118.17941531622728)"><path d="M1.44 1.13 C115.03 1.29, 231.77 1.44, 430.8 -1.16 M0.16 0.41 C112.47 -2.74, 224.3 -3.48, 431.94 0.37 M431.9 2.82 C432.76 89.4, 430.89 174.51, 433.05 238.59 M431.13 -1.09 C434.93 65.25, 433.39 132.59, 430.87 236.66 M433.34 237.64 C307.59 230.88, 182.83 232.48, -0.17 235.99 M431.49 236.67 C276.48 233.49, 120.62 234.31, -1.03 236.32 M-0.89 233.16 C-3.8 171.98, -3.23 107.81, -2.64 0.01 M0.63 237.04 C1.28 160.74, -0.59 84.5, 1.4 -1.62" stroke="#1e1e1e" stroke-width="4" fill="none"></path></g><g stroke-linecap="round"><g transform="translate(637.1209815079865 590.4451623993423) rotate(0 0.39413354316116056 120.42984858818701)"><path d="M-2.4 2.38 C1.37 75.07, 3.08 143.01, 0.61 239.67 M0.92 1.19 C2.18 90.12, 3.05 180.88, 3.19 239.39" stroke="#1e1e1e" stroke-width="4" fill="none"></path></g></g><mask></mask><g stroke-linecap="round"><g transform="translate(418.48906317296587 663.5652131355188) rotate(0 216.84429877008813 -0.8610005925758699)"><path d="M-1.24 1.61 C153.17 -5.01, 306.62 -3.73, 434.92 -1.65 M0.5 -0.01 C147.86 -3.45, 295.31 -3.84, 434.29 -1.8" stroke="#1e1e1e" stroke-width="4" fill="none"></path></g></g><mask></mask><g stroke-linecap="round"><g transform="translate(420.45872009490313 738.260460778815) rotate(0 214.8458684813379 0.8052468239505473)"><path d="M-0.56 -1.17 C158.54 -1.93, 320.4 -1.71, 430.21 3.11 M0.59 0.38 C160.15 1.42, 319.75 1.66, 430.25 1.63" stroke="#1e1e1e" stroke-width="4" fill="none"></path></g></g><mask></mask><g transform="translate(469.0381849266041 601.2024177748392) rotate(0 63.36000061035156 22.5)"><text x="126.72000122070312" y="0" font-family="Virgil, Segoe UI Emoji" font-size="36px" fill="#1e1e1e" text-anchor="end" style="white-space: pre;" direction="ltr" dominant-baseline="text-before-edge">emp_no</text></g><g transform="translate(646.2076500827443 606.2024177748392) rotate(0 96.89399719238281 22.5)"><text x="193.78799438476562" y="0" font-family="Virgil, Segoe UI Emoji" font-size="36px" fill="#1e1e1e" text-anchor="end" style="white-space: pre;" direction="ltr" dominant-baseline="text-before-edge">first_name</text></g><g transform="translate(505.49207624084875 681.0493808084499) rotate(0 22.48200035095215 22.5)"><text x="44.9640007019043" y="0" font-family="Virgil, Segoe UI Emoji" font-size="36px" fill="#1e1e1e" text-anchor="end" style="white-space: pre;" direction="ltr" dominant-baseline="text-before-edge">49</text></g><g transform="translate(513.2883627121064 763.7749715298089) rotate(0 23.507999420166016 22.5)"><text x="47.01599884033203" y="0" font-family="Virgil, Segoe UI Emoji" font-size="36px" fill="#1e1e1e" text-anchor="end" style="white-space: pre;" direction="ltr" dominant-baseline="text-before-edge">50</text></g><g transform="translate(709.0197094473847 681.0493808084499) rotate(0 25.110000610351562 22.5)"><text x="50.220001220703125" y="0" font-family="Virgil, Segoe UI Emoji" font-size="36px" fill="#1e1e1e" text-anchor="end" style="white-space: pre;" direction="ltr" dominant-baseline="text-before-edge">sim</text></g><g transform="translate(708.4180563706627 767.7142853736832) rotate(0 24.42599868774414 22.5)"><text x="48.85199737548828" y="0" font-family="Virgil, Segoe UI Emoji" font-size="36px" fill="#1e1e1e" text-anchor="end" style="white-space: pre;" direction="ltr" dominant-baseline="text-before-edge">lee</text></g><g stroke-linecap="round" transform="translate(422.4283770168406 927.2564960505902) rotate(0 215.67743295211483 71.89247765070493)"><path d="M-0.56 -1.51 C115.65 2.97, 235.45 4.46, 430.32 0.13 M-0.6 -0.17 C164.92 0.96, 329.95 1.09, 431.86 -0.15 M433.35 2.89 C428.57 40.17, 428.48 78.95, 429.07 142.39 M431.73 -1.18 C432.64 42.71, 433.52 80.67, 430.27 145.08 M429.84 144.32 C330.91 143.1, 233.2 142.6, -0.62 143.63 M432.32 143.42 C311.94 147.16, 193.14 148.08, -0.49 143.13 M1.22 141.04 C-0.79 109.61, -3.1 67.34, 0.59 3.78 M-0.76 144.09 C-0.35 102.98, -2.07 62.71, -0.5 1.24" stroke="#1e1e1e" stroke-width="4" fill="none"></path></g><g stroke-linecap="round"><g transform="translate(641.0602953518612 927.2564960505902) rotate(0 -0.6933721723173676 66.84340396943472)"><path d="M-2.14 -2.68 C2.67 27.26, -3.54 54.37, 1.37 136.37 M-0.95 -0.1 C-3.83 37.24, -1.69 73.93, -2.76 134.59" stroke="#1e1e1e" stroke-width="4" fill="none"></path></g></g><mask></mask><g stroke-linecap="round"><g transform="translate(422.4283770168406 1000.3765467867667) rotate(0 215.99090683292332 -0.6202765978285925)"><path d="M1.94 0.11 C97.09 2.65, 197.94 3.32, 432.86 -3.17 M-0.87 0.07 C123.39 -0.48, 245.37 -0.56, 432.56 -1.46" stroke="#1e1e1e" stroke-width="4" fill="none"></path></g></g><mask></mask><g transform="translate(472.9774987704784 938.0137514260871) rotate(0 63.36000061035156 22.5)"><text x="126.72000122070312" y="0" font-family="Virgil, Segoe UI Emoji" font-size="36px" fill="#1e1e1e" text-anchor="end" style="white-space: pre;" direction="ltr" dominant-baseline="text-before-edge">emp_no</text></g><g transform="translate(650.146963926619 943.0137514260871) rotate(0 96.89399719238281 22.5)"><text x="193.78799438476562" y="0" font-family="Virgil, Segoe UI Emoji" font-size="36px" fill="#1e1e1e" text-anchor="end" style="white-space: pre;" direction="ltr" dominant-baseline="text-before-edge">first_name</text></g><g transform="translate(509.4313900847235 1017.8607144596978) rotate(0 22.48200035095215 22.5)"><text x="44.9640007019043" y="0" font-family="Virgil, Segoe UI Emoji" font-size="36px" fill="#1e1e1e" text-anchor="end" style="white-space: pre;" direction="ltr" dominant-baseline="text-before-edge">49</text></g><g transform="translate(714.9750221315915 1017.8607144596978) rotate(0 24.102001190185547 22.5)"><text x="48.204002380371094" y="0" font-family="Virgil, Segoe UI Emoji" font-size="36px" fill="#1e1e1e" text-anchor="end" style="white-space: pre;" direction="ltr" dominant-baseline="text-before-edge">kim</text></g><g transform="translate(570.9868471439295 870.7400748865224) rotate(0 71.27999877929688 22.5)"><text x="142.55999755859375" y="0" font-family="Virgil, Segoe UI Emoji" font-size="36px" fill="#1e1e1e" text-anchor="end" style="white-space: pre;" direction="ltr" dominant-baseline="text-before-edge">언두 로그</text></g><g stroke-linecap="round" transform="translate(433.6735244304475 1213.7747414331334) rotate(0 215.67743295211483 118.17941531622728)"><path d="M0.25 1.65 C146.12 -1.08, 287.73 -2.89, 433.26 -1.12 M0.93 -0.45 C165.22 3.03, 330.66 2.71, 430.5 -0.29 M430.61 0.57 C430.33 66.4, 433.82 139.21, 428.66 233.08 M432.53 0.34 C433.09 87.19, 432.92 173.3, 432.37 236.16 M431.62 236.9 C317.99 237.72, 207.13 235.92, 1.72 235.88 M431.18 236.39 C267.85 241.12, 103.73 240.12, -0.47 237.08 M0.97 239.35 C-0.73 189.8, -1.58 139.79, 0.5 -0.36 M0.75 236.02 C-2.22 150.87, -2.74 63.76, -0.73 -0.53" stroke="#1e1e1e" stroke-width="4" fill="none"></path></g><g stroke-linecap="round"><g transform="translate(652.3054427654681 1213.7747414331334) rotate(0 2.5739007048330222 119.6035878088544)"><path d="M2.33 3.18 C-1.45 87.98, 5.03 173.71, 4.73 236.35 M0.41 0.66 C5.26 57.52, 3.18 114.28, 1.76 238.55" stroke="#1e1e1e" stroke-width="4" fill="none"></path></g></g><mask></mask><g stroke-linecap="round"><g transform="translate(433.6735244304475 1286.8947921693098) rotate(0 216.3405326178447 -2.3658541127623494)"><path d="M-1.62 0.14 C166.59 -6.07, 331.08 -6.91, 432.11 -0.11 M0.71 0.08 C110.09 -2.54, 221.75 -2.61, 434.3 -2.2" stroke="#1e1e1e" stroke-width="4" fill="none"></path></g></g><mask></mask><g stroke-linecap="round"><g transform="translate(435.6431813523848 1361.590039812606) rotate(0 214.35264457036476 0.7106123531252706)"><path d="M1.92 -1.13 C171.28 -0.75, 337.94 3.13, 428.47 2.48 M-0.86 -0.3 C145.57 0.44, 292.37 0.75, 429.56 1.49" stroke="#1e1e1e" stroke-width="4" fill="none"></path></g></g><mask></mask><g transform="translate(484.22264618408576 1224.5319968086303) rotate(0 63.36000061035156 22.5)"><text x="126.72000122070312" y="0" font-family="Virgil, Segoe UI Emoji" font-size="36px" fill="#1e1e1e" text-anchor="end" style="white-space: pre;" direction="ltr" dominant-baseline="text-before-edge">emp_no</text></g><g transform="translate(661.3921113402259 1229.5319968086303) rotate(0 96.89399719238281 22.5)"><text x="193.78799438476562" y="0" font-family="Virgil, Segoe UI Emoji" font-size="36px" fill="#1e1e1e" text-anchor="end" style="white-space: pre;" direction="ltr" dominant-baseline="text-before-edge">first_name</text></g><g transform="translate(520.6765374983304 1304.3789598422409) rotate(0 22.48200035095215 22.5)"><text x="44.9640007019043" y="0" font-family="Virgil, Segoe UI Emoji" font-size="36px" fill="#1e1e1e" text-anchor="end" style="white-space: pre;" direction="ltr" dominant-baseline="text-before-edge">49</text></g><g transform="translate(528.472823969588 1387.1045505636) rotate(0 23.507999420166016 22.5)"><text x="47.01599884033203" y="0" font-family="Virgil, Segoe UI Emoji" font-size="36px" fill="#1e1e1e" text-anchor="end" style="white-space: pre;" direction="ltr" dominant-baseline="text-before-edge">50</text></g><g transform="translate(724.2041707048663 1304.3789598422409) rotate(0 25.110000610351562 22.5)"><text x="50.220001220703125" y="0" font-family="Virgil, Segoe UI Emoji" font-size="36px" fill="#1e1e1e" text-anchor="end" style="white-space: pre;" direction="ltr" dominant-baseline="text-before-edge">sim</text></g><g transform="translate(723.6025176281444 1391.0438644074743) rotate(0 24.42599868774414 22.5)"><text x="48.85199737548828" y="0" font-family="Virgil, Segoe UI Emoji" font-size="36px" fill="#1e1e1e" text-anchor="end" style="white-space: pre;" direction="ltr" dominant-baseline="text-before-edge">lee</text></g><g stroke-linecap="round"><g transform="translate(75.37800199489607 74.99867842392518) rotate(0 -2.354258699874208 794.1894652307418)"><path d="M1.07 -0.12 C6.63 540.21, 2.34 1080.61, -7.13 1588.9 M0.59 -0.52 C-7.94 542.96, -9.8 1085.23, -7.11 1587.83" stroke="#1e1e1e" stroke-width="4" fill="none"></path></g><g transform="translate(75.37800199489607 74.99867842392518) rotate(0 -2.354258699874208 794.1894652307418)"><path d="M-14.76 1559.35 C-11.84 1569.94, -12.36 1580.83, -5.23 1591.22 M-15.96 1558.37 C-15.61 1569.28, -9.97 1577.1, -5.2 1588.55" stroke="#1e1e1e" stroke-width="4" fill="none"></path></g><g transform="translate(75.37800199489607 74.99867842392518) rotate(0 -2.354258699874208 794.1894652307418)"><path d="M5.76 1559.3 C1.7 1570.09, -5.8 1581, -5.23 1591.22 M4.57 1558.32 C-2.11 1569.15, -3.49 1576.99, -5.2 1588.55" stroke="#1e1e1e" stroke-width="4" fill="none"></path></g></g><mask></mask><g stroke-linecap="round"><g transform="translate(1218.1636184963631 74.58095273384345) rotate(0 -2.5159940570537174 793.7049437459942)"><path d="M-0.28 -1.31 C4.3 429.66, 3.67 859.16, -6.36 1588.72 M-0.46 -0.73 C-0.13 561.84, -3.38 1123.59, -7.48 1586.99" stroke="#1e1e1e" stroke-width="4" fill="none"></path></g><g transform="translate(1218.1636184963631 74.58095273384345) rotate(0 -2.5159940570537174 793.7049437459942)"><path d="M-18.23 1555.45 C-18.11 1566.15, -11.65 1573.33, -3.68 1589.93 M-18.67 1556.89 C-14.1 1568.74, -11.7 1578.71, -6.5 1585.62" stroke="#1e1e1e" stroke-width="4" fill="none"></path></g><g transform="translate(1218.1636184963631 74.58095273384345) rotate(0 -2.5159940570537174 793.7049437459942)"><path d="M2.29 1555.61 C-3.15 1566.45, -2.23 1573.59, -3.68 1589.93 M1.85 1557.05 C-0.84 1569.04, -5.71 1578.95, -6.5 1585.62" stroke="#1e1e1e" stroke-width="4" fill="none"></path></g></g><mask></mask><g transform="translate(10 10) rotate(0 67.15799713134766 22.5)"><text x="134.3159942626953" y="0" font-family="Virgil, Segoe UI Emoji" font-size="36px" fill="#1e1e1e" text-anchor="end" style="white-space: pre;" direction="ltr" dominant-baseline="text-before-edge">트랜잭션1</text></g><g transform="translate(1142.6236401947492 11.135883063245615) rotate(0 75.09600067138672 22.5)"><text x="150.19200134277344" y="0" font-family="Virgil, Segoe UI Emoji" font-size="36px" fill="#1e1e1e" text-anchor="end" style="white-space: pre;" direction="ltr" dominant-baseline="text-before-edge">트랜잭션2</text></g><g stroke-linecap="round"><g transform="translate(75.37800199489607 484.6873181868465) rotate(0 166.77983406355418 0.7022146561454008)"><path d="M-2.67 1.08 C117.64 1.83, 239.33 3.75, 335.64 3.02 M0.05 -1.06 C110.74 -2.3, 224.47 -2.33, 336.23 1.95" stroke="#1e1e1e" stroke-width="4" fill="none"></path></g><g transform="translate(75.37800199489607 484.6873181868465) rotate(0 166.77983406355418 0.7022146561454008)"><path d="M303.79 13.04 C316 8.39, 330.38 6.87, 334.49 3.52 M307.85 9.86 C315.21 7.2, 327.3 3.03, 335.37 1.93" stroke="#1e1e1e" stroke-width="4" fill="none"></path></g><g transform="translate(75.37800199489607 484.6873181868465) rotate(0 166.77983406355418 0.7022146561454008)"><path d="M304.36 -7.47 C316.58 -4.89, 330.76 0.82, 334.49 3.52 M308.42 -10.66 C315.92 -6.49, 327.83 -3.84, 335.37 1.93" stroke="#1e1e1e" stroke-width="4" fill="none"></path></g></g><mask></mask><g transform="translate(213.18551927175758 440.44589513841856) rotate(0 47.305999755859375 17.5)"><text x="94.61199951171875" y="0" font-family="Virgil, Segoe UI Emoji" font-size="28px" fill="#1e1e1e" text-anchor="end" style="white-space: pre;" direction="ltr" dominant-baseline="text-before-edge">BEGIN</text></g><g stroke-linecap="round"><g transform="translate(77.3476589168331 703.3192365218671) rotate(0 158.65564052698466 0.8796250961783443)"><path d="M-1.48 2.66 C114.69 -3.51, 226.59 -0.17, 318.79 2.16 M-0.69 -0.56 C91.21 -0.95, 182.42 -2.07, 316.79 2.72" stroke="#1e1e1e" stroke-width="4" fill="none"></path></g><g transform="translate(77.3476589168331 703.3192365218671) rotate(0 158.65564052698466 0.8796250961783443)"><path d="M286.25 16.01 C301.34 8.19, 310.37 8.55, 319.17 2.99 M287.36 11.44 C296.66 9.95, 304.99 4.82, 316.34 3.78" stroke="#1e1e1e" stroke-width="4" fill="none"></path></g><g transform="translate(77.3476589168331 703.3192365218671) rotate(0 158.65564052698466 0.8796250961783443)"><path d="M286.78 -4.51 C301.66 -5.02, 310.5 2.62, 319.17 2.99 M287.9 -9.08 C297.07 -4.67, 305.24 -3.9, 316.34 3.78" stroke="#1e1e1e" stroke-width="4" fill="none"></path></g></g><mask></mask><g transform="translate(85.28335597409364 618.6239888785706) rotate(0 160.6500244140625 35)"><text x="0" y="0" font-family="Virgil, Segoe UI Emoji" font-size="28px" fill="#1e1e1e" text-anchor="start" style="white-space: pre;" direction="ltr" dominant-baseline="text-before-edge">UPDATE</text><text x="0" y="35" font-family="Virgil, Segoe UI Emoji" font-size="28px" fill="#1e1e1e" text-anchor="start" style="white-space: pre;" direction="ltr" dominant-baseline="text-before-edge">SET first_name = 'lee'</text></g><g stroke-linecap="round"><g transform="translate(1221.7183305623007 797.8627687748489) rotate(0 -184.85178035759975 125.18824978858589)"><path d="M-0.12 1.23 C-106.91 -4.21, -218.3 -5.07, -367.94 -2.31 M-0.38 1.16 C-81.48 1.26, -162.6 1.45, -367.1 0.93 M-368.19 2.21 C-371.31 56.15, -367.61 110.19, -366.41 248.91 M-368.42 0.4 C-370.48 66.85, -369.59 135.93, -367.33 247.08 M-368.13 246.71 C-288.19 246.39, -209.72 247.9, -1.69 254.21 M-369.01 248.98 C-243.58 248.4, -121.24 248.1, -1.89 251.35" stroke="#1e1e1e" stroke-width="4" fill="none"></path></g><g transform="translate(1221.7183305623007 797.8627687748489) rotate(0 -184.85178035759975 125.18824978858589)"><path d="M-30.47 263.05 C-20.27 257.5, -17.3 253.26, -1.27 247.61 M-30.89 262.95 C-25.05 260, -19.38 258.18, 0.09 252.85" stroke="#1e1e1e" stroke-width="4" fill="none"></path></g><g transform="translate(1221.7183305623007 797.8627687748489) rotate(0 -184.85178035759975 125.18824978858589)"><path d="M-30.08 242.54 C-19.61 243, -16.76 244.77, -1.27 247.61 M-30.5 242.43 C-25.06 243.98, -19.48 246.66, 0.09 252.85" stroke="#1e1e1e" stroke-width="4" fill="none"></path></g></g><mask></mask><g stroke-linecap="round"><g transform="translate(418.09830641195504 778.1661995554776) rotate(0 -36.66925093930661 132.50670485659575)"><path d="M0.56 -2.18 C-25.89 0.23, -45.36 -1.58, -73.9 -0.86 M-72.26 -2.4 C-75.25 57.86, -70.01 118.97, -66.53 267.41 M-64.9 262.89 C-49.74 262.54, -41 268.73, -0.14 262.78" stroke="#1e1e1e" stroke-width="4.5" fill="none" stroke-dasharray="8 12"></path></g><g transform="translate(418.09830641195504 778.1661995554776) rotate(0 -36.66925093930661 132.50670485659575)"><path d="M-26.76 273.31 C-22.53 272.93, -11.51 267.9, 0.81 263.89" stroke="#1e1e1e" stroke-width="4.5" fill="none"></path></g><g transform="translate(418.09830641195504 778.1661995554776) rotate(0 -36.66925093930661 132.50670485659575)"><path d="M-28.57 252.87 C-24.15 258.6, -12.58 259.69, 0.81 263.89" stroke="#1e1e1e" stroke-width="4.5" fill="none"></path></g></g><mask></mask><g transform="translate(924.6701064928855 711.1978642096154) rotate(0 138.7820281982422 35)"><text x="277.5640563964844" y="0" font-family="Virgil, Segoe UI Emoji" font-size="28px" fill="#1e1e1e" text-anchor="end" style="white-space: pre;" direction="ltr" dominant-baseline="text-before-edge">SELECT</text><text x="277.5640563964844" y="35" font-family="Virgil, Segoe UI Emoji" font-size="28px" fill="#1e1e1e" text-anchor="end" style="white-space: pre;" direction="ltr" dominant-baseline="text-before-edge">WHERE emp_num=50</text></g><g transform="translate(870.0354551301011 990.8891471246867) rotate(0 166.9779815673828 17.5)"><text x="333.9559631347656" y="0" font-family="Virgil, Segoe UI Emoji" font-size="28px" fill="#1e1e1e" text-anchor="end" style="white-space: pre;" direction="ltr" dominant-baseline="text-before-edge">언두 로그 데이터('lee') 반환</text></g><g stroke-linecap="round"><g transform="translate(69.46903122908475 1380.8812176682368) rotate(0 178.12445312002774 2.0401749044762596)"><path d="M0.4 0.42 C107.72 -0.2, 216.58 0.56, 355.2 2.65 M1.21 0.69 C98.31 4.53, 197.8 4.42, 355.85 2.82" stroke="#1e1e1e" stroke-width="4" fill="none"></path></g><g transform="translate(69.46903122908475 1380.8812176682368) rotate(0 178.12445312002774 2.0401749044762596)"><path d="M328.36 13.96 C333.44 9.76, 341.12 6.79, 353.81 3.88 M329.63 14.38 C335.62 10.66, 345.27 6.74, 354.82 4.16" stroke="#1e1e1e" stroke-width="4" fill="none"></path></g><g transform="translate(69.46903122908475 1380.8812176682368) rotate(0 178.12445312002774 2.0401749044762596)"><path d="M328.21 -6.56 C333.69 -4.46, 341.42 -1.13, 353.81 3.88 M329.47 -6.14 C335.38 -4.2, 345.07 -2.46, 354.82 4.16" stroke="#1e1e1e" stroke-width="4" fill="none"></path></g></g><mask></mask><g transform="translate(159.23438616233807 1335.579108463683) rotate(0 89.05399322509766 17.5)"><text x="178.1079864501953" y="0" font-family="Virgil, Segoe UI Emoji" font-size="28px" fill="#1e1e1e" text-anchor="end" style="white-space: pre;" direction="ltr" dominant-baseline="text-before-edge">COMMIT(lee)</text></g><g transform="translate(119.22472815302149 862.8614471987736) rotate(0 98.7699966430664 35)"><text x="98.7699966430664" y="0" font-family="Virgil, Segoe UI Emoji" font-size="28px" fill="#1e1e1e" text-anchor="middle" style="white-space: pre;" direction="ltr" dominant-baseline="text-before-edge">변경 전 데이터를</text><text x="98.7699966430664" y="35" font-family="Virgil, Segoe UI Emoji" font-size="28px" fill="#1e1e1e" text-anchor="middle" style="white-space: pre;" direction="ltr" dominant-baseline="text-before-edge">언두 로그로 복사</text></g></svg>