<svg version="1.1" xmlns="http://www.w3.org/2000/svg" viewBox="0 0 1511.5992752628576 1677.2389287242738" width="3023.1985505257153" height="3354.4778574485476">
  <!-- svg-source:excalidraw -->
  
  <defs>
    <style class="style-fonts">
      @font-face {
        font-family: "Virgil";
        src: url("https://excalidraw.com/Virgil.woff2");
      }
      @font-face {
        font-family: "Cascadia";
        src: url("https://excalidraw.com/Cascadia.woff2");
      }
    </style>
    
  </defs>
  <rect x="0" y="0" width="1511.5992752628576" height="1677.2389287242738" fill="#ffffff"></rect><g stroke-linecap="round" transform="translate(437.79487563132614 171.51186759884422) rotate(0 311.20579366606535 118.17941531622728)"><path d="M-0.84 -1.13 C187.1 -1.7, 377.56 -1.71, 623.75 -1.54 M-0.26 -0.11 C134.91 0.47, 271.13 -0.75, 622.09 -0.22 M619.63 1.81 C618.79 60.76, 619.7 116.07, 622.93 234.02 M622.66 -0.67 C625.14 51.39, 626.15 101.01, 623.36 236.88 M622.54 234.82 C388.61 241.19, 155.07 241.59, -0.15 234.98 M622.65 236.55 C450.82 240.65, 279.96 241.25, -0.75 235.96 M-0.88 237.82 C0.76 172.15, 0.23 115.17, -2.69 -2.44 M0.1 235.87 C-2.22 142.58, -2.01 49.22, -0.66 0.4" stroke="#1e1e1e" stroke-width="4" fill="none"></path></g><g stroke-linecap="round"><g transform="translate(847.4835153942475 171.51186759884422) rotate(0 1.2688228789231744 119.11702104313963)"><path d="M0.8 2.82 C-0.82 69.22, 4.34 138.56, -1.05 236.38 M0.32 0.67 C3.57 58.44, 5.08 117.56, 1.63 237.57" stroke="#1e1e1e" stroke-width="4" fill="none"></path></g></g><mask></mask><g stroke-linecap="round"><g transform="translate(441.73418947520076 244.6319183350207) rotate(0 309.7948254845673 -1.960285420129992)"><path d="M0.45 -1.41 C235.15 -4.5, 474.35 -6.04, 619.52 -1.22 M-0.06 0.39 C167.95 -4.52, 335.65 -4.85, 619.65 -1.94" stroke="#1e1e1e" stroke-width="4" fill="none"></path></g></g><mask></mask><g stroke-linecap="round"><g transform="translate(445.6735033190746 315.3878521344426) rotate(0 307.33474763700616 3.510438065552904)"><path d="M-0.84 1.45 C195.73 6.81, 394.1 7.86, 615.51 6.37 M0.71 0.03 C175.02 3.81, 349 5.73, 614.3 6.55" stroke="#1e1e1e" stroke-width="4" fill="none"></path></g></g><mask></mask><g transform="translate(679.400718812865 182.26912297434114) rotate(0 63.36000061035156 22.5)"><text x="126.72000122070312" y="0" font-family="Virgil, Segoe UI Emoji" font-size="36px" fill="#1e1e1e" text-anchor="end" style="white-space: pre;" direction="ltr" dominant-baseline="text-before-edge">emp_no</text></g><g transform="translate(856.5701839690054 187.26912297434114) rotate(0 96.89399719238281 22.5)"><text x="193.78799438476562" y="0" font-family="Virgil, Segoe UI Emoji" font-size="36px" fill="#1e1e1e" text-anchor="end" style="white-space: pre;" direction="ltr" dominant-baseline="text-before-edge">first_name</text></g><g transform="translate(715.8546101271098 262.1160860079518) rotate(0 22.48200035095215 22.5)"><text x="44.9640007019043" y="0" font-family="Virgil, Segoe UI Emoji" font-size="36px" fill="#1e1e1e" text-anchor="end" style="white-space: pre;" direction="ltr" dominant-baseline="text-before-edge">49</text></g><g transform="translate(723.6508965983677 344.84167672931085) rotate(0 23.507999420166016 22.5)"><text x="47.01599884033203" y="0" font-family="Virgil, Segoe UI Emoji" font-size="36px" fill="#1e1e1e" text-anchor="end" style="white-space: pre;" direction="ltr" dominant-baseline="text-before-edge">50</text></g><g transform="translate(919.3822433336458 262.1160860079518) rotate(0 25.110000610351562 22.5)"><text x="50.220001220703125" y="0" font-family="Virgil, Segoe UI Emoji" font-size="36px" fill="#1e1e1e" text-anchor="end" style="white-space: pre;" direction="ltr" dominant-baseline="text-before-edge">sim</text></g><g transform="translate(919.428585252041 348.78099057318514) rotate(0 24.102001190185547 22.5)"><text x="48.204002380371094" y="0" font-family="Virgil, Segoe UI Emoji" font-size="36px" fill="#1e1e1e" text-anchor="end" style="white-space: pre;" direction="ltr" dominant-baseline="text-before-edge">kim</text></g><g stroke-linecap="round"><g transform="translate(75.37800199489607 74.99867842392518) rotate(0 -2.354258699874208 794.1894652307418)"><path d="M1.07 -0.12 C6.63 540.21, 2.34 1080.61, -7.13 1588.9 M0.59 -0.52 C-7.94 542.96, -9.8 1085.23, -7.11 1587.83" stroke="#1e1e1e" stroke-width="4" fill="none"></path></g><g transform="translate(75.37800199489607 74.99867842392518) rotate(0 -2.354258699874208 794.1894652307418)"><path d="M-14.76 1559.35 C-11.84 1569.94, -12.36 1580.83, -5.23 1591.22 M-15.96 1558.37 C-15.61 1569.28, -9.97 1577.1, -5.2 1588.55" stroke="#1e1e1e" stroke-width="4" fill="none"></path></g><g transform="translate(75.37800199489607 74.99867842392518) rotate(0 -2.354258699874208 794.1894652307418)"><path d="M5.76 1559.3 C1.7 1570.09, -5.8 1581, -5.23 1591.22 M4.57 1558.32 C-2.11 1569.15, -3.49 1576.99, -5.2 1588.55" stroke="#1e1e1e" stroke-width="4" fill="none"></path></g></g><mask></mask><g stroke-linecap="round"><g transform="translate(1426.947252221698 80.48992349965476) rotate(0 4.931044993114256 792.7201152850259)"><path d="M-0.28 -1.31 C8.55 429.07, 12.19 858.04, 9.4 1586.75 M-0.46 -0.73 C5.44 561.08, 7.77 1122.14, 8.27 1585.02" stroke="#1e1e1e" stroke-width="4" fill="none"></path></g><g transform="translate(1426.947252221698 80.48992349965476) rotate(0 4.931044993114256 792.7201152850259)"><path d="M-2.75 1553.58 C-2.56 1564.25, 3.98 1571.41, 12.08 1587.96 M-3.2 1555.02 C1.48 1566.84, 3.97 1576.77, 9.26 1583.65" stroke="#1e1e1e" stroke-width="4" fill="none"></path></g><g transform="translate(1426.947252221698 80.48992349965476) rotate(0 4.931044993114256 792.7201152850259)"><path d="M17.77 1553.54 C12.41 1564.4, 13.4 1571.57, 12.08 1587.96 M17.32 1554.97 C14.74 1567, 9.97 1576.95, 9.26 1583.65" stroke="#1e1e1e" stroke-width="4" fill="none"></path></g></g><mask></mask><g transform="translate(10 10) rotate(0 67.15799713134766 22.5)"><text x="134.3159942626953" y="0" font-family="Virgil, Segoe UI Emoji" font-size="36px" fill="#1e1e1e" text-anchor="end" style="white-space: pre;" direction="ltr" dominant-baseline="text-before-edge">트랜잭션1</text></g><g transform="translate(1351.4072739200842 17.044853829056933) rotate(0 75.09600067138672 22.5)"><text x="150.19200134277344" y="0" font-family="Virgil, Segoe UI Emoji" font-size="36px" fill="#1e1e1e" text-anchor="end" style="white-space: pre;" direction="ltr" dominant-baseline="text-before-edge">트랜잭션2</text></g><g stroke-linecap="round"><g transform="translate(75.37800199489607 484.6873181868465) rotate(0 166.77983406355423 0.7022146561454008)"><path d="M-2.67 1.08 C117.64 1.83, 239.33 3.75, 335.64 3.02 M0.05 -1.06 C110.74 -2.3, 224.47 -2.33, 336.23 1.95" stroke="#1e1e1e" stroke-width="4" fill="none"></path></g><g transform="translate(75.37800199489607 484.6873181868465) rotate(0 166.77983406355423 0.7022146561454008)"><path d="M303.79 13.04 C316 8.39, 330.38 6.87, 334.49 3.52 M307.85 9.86 C315.21 7.2, 327.3 3.03, 335.37 1.93" stroke="#1e1e1e" stroke-width="4" fill="none"></path></g><g transform="translate(75.37800199489607 484.6873181868465) rotate(0 166.77983406355423 0.7022146561454008)"><path d="M304.36 -7.47 C316.58 -4.89, 330.76 0.82, 334.49 3.52 M308.42 -10.66 C315.92 -6.49, 327.83 -3.84, 335.37 1.93" stroke="#1e1e1e" stroke-width="4" fill="none"></path></g></g><mask></mask><g transform="translate(111.80051819404002 436.5065812945444) rotate(0 135.42198181152344 17.5)"><text x="270.8439636230469" y="0" font-family="Virgil, Segoe UI Emoji" font-size="28px" fill="#1e1e1e" text-anchor="end" style="white-space: pre;" direction="ltr" dominant-baseline="text-before-edge">BEGIN(TRX-ID: 12)</text></g><g stroke-linecap="round"><g transform="translate(93.10491429233048 717.106834975427) rotate(0 158.65564052698466 0.8796250961783443)"><path d="M-1.48 2.66 C114.69 -3.51, 226.59 -0.17, 318.79 2.16 M-0.69 -0.56 C91.21 -0.95, 182.42 -2.07, 316.79 2.72" stroke="#1e1e1e" stroke-width="4" fill="none"></path></g><g transform="translate(93.10491429233048 717.106834975427) rotate(0 158.65564052698466 0.8796250961783443)"><path d="M286.25 16.01 C301.34 8.19, 310.37 8.55, 319.17 2.99 M287.36 11.44 C296.66 9.95, 304.99 4.82, 316.34 3.78" stroke="#1e1e1e" stroke-width="4" fill="none"></path></g><g transform="translate(93.10491429233048 717.106834975427) rotate(0 158.65564052698466 0.8796250961783443)"><path d="M286.78 -4.51 C301.66 -5.02, 310.5 2.62, 319.17 2.99 M287.9 -9.08 C297.07 -4.67, 305.24 -3.9, 316.34 3.78" stroke="#1e1e1e" stroke-width="4" fill="none"></path></g></g><mask></mask><g transform="translate(101.04061134959102 632.4115873321305) rotate(0 160.6500244140625 35)"><text x="0" y="0" font-family="Virgil, Segoe UI Emoji" font-size="28px" fill="#1e1e1e" text-anchor="start" style="white-space: pre;" direction="ltr" dominant-baseline="text-before-edge">UPDATE</text><text x="0" y="35" font-family="Virgil, Segoe UI Emoji" font-size="28px" fill="#1e1e1e" text-anchor="start" style="white-space: pre;" direction="ltr" dominant-baseline="text-before-edge">SET first_name = 'lee'</text></g><g stroke-linecap="round"><g transform="translate(1432.470290490628 359.67486496590413) rotate(0 -184.57933519181051 53.33306013010089)"><path d="M-0.13 1.24 C-105.75 -4.21, -216.01 -5.08, -364.01 -2.34 M-0.39 1.17 C-80.63 1.27, -160.89 1.46, -363.16 0.94 M-364.24 2.69 C-367.46 26.53, -363.79 50.51, -366 110.52 M-364.51 0.48 C-366.99 28.74, -366.98 60.16, -367.12 108.28 M-368.14 108.14 C-289.02 106.54, -211.39 106.78, -5.61 109.73 M-369.03 110.44 C-244.93 107.84, -123.92 105.51, -5.81 106.84" stroke="#1e1e1e" stroke-width="4" fill="none"></path></g><g transform="translate(1432.470290490628 359.67486496590413) rotate(0 -184.57933519181051 53.33306013010089)"><path d="M-34.23 119 C-24.08 113.31, -21.16 108.93, -5.18 103.1 M-34.65 118.89 C-28.83 115.84, -23.2 113.92, -3.82 108.34" stroke="#1e1e1e" stroke-width="4" fill="none"></path></g><g transform="translate(1432.470290490628 359.67486496590413) rotate(0 -184.57933519181051 53.33306013010089)"><path d="M-34.17 98.48 C-23.66 98.81, -20.75 100.45, -5.18 103.1 M-34.59 98.37 C-29.11 99.82, -23.49 102.4, -3.82 108.34" stroke="#1e1e1e" stroke-width="4" fill="none"></path></g></g><mask></mask><g stroke-linecap="round"><g transform="translate(433.8555617874521 752.5606595702948) rotate(0 -40.608564783180896 118.87740595710414)"><path d="M0.56 -2.18 C-28.31 1.38, -50.14 0.74, -81.78 3.08 M-79.96 1.51 C-83.11 54.71, -77.66 108.83, -74.51 239.94 M-72.78 235.31 C-57.62 234.97, -48.88 241.16, -8.02 235.21" stroke="#1e1e1e" stroke-width="4.5" fill="none" stroke-dasharray="8 12"></path></g><g transform="translate(433.8555617874521 752.5606595702948) rotate(0 -40.608564783180896 118.87740595710414)"><path d="M-34.64 245.73 C-30.41 245.35, -19.39 240.33, -7.07 236.32" stroke="#1e1e1e" stroke-width="4.5" fill="none"></path></g><g transform="translate(433.8555617874521 752.5606595702948) rotate(0 -40.608564783180896 118.87740595710414)"><path d="M-36.45 225.29 C-32.03 231.03, -20.46 232.11, -7.07 236.32" stroke="#1e1e1e" stroke-width="4.5" fill="none"></path></g></g><mask></mask><g transform="translate(1138.5893520013365 273.93402753957423) rotate(0 137.3022606686784 34.626811452411175)"><text x="274.60452133735686" y="0" font-family="Virgil, Segoe UI Emoji" font-size="27.70144916192895px" fill="#1e1e1e" text-anchor="end" style="white-space: pre;" direction="ltr" dominant-baseline="text-before-edge">SELECT</text><text x="274.60452133735686" y="34.62681145241119" font-family="Virgil, Segoe UI Emoji" font-size="27.70144916192895px" fill="#1e1e1e" text-anchor="end" style="white-space: pre;" direction="ltr" dominant-baseline="text-before-edge">WHERE emp_num=50</text></g><g stroke-linecap="round"><g transform="translate(85.2262866045819 1059.827139392486) rotate(0 178.12445312002774 2.0401749044762596)"><path d="M0.4 0.42 C107.72 -0.2, 216.58 0.56, 355.2 2.65 M1.21 0.69 C98.31 4.53, 197.8 4.42, 355.85 2.82" stroke="#1e1e1e" stroke-width="4" fill="none"></path></g><g transform="translate(85.2262866045819 1059.827139392486) rotate(0 178.12445312002774 2.0401749044762596)"><path d="M328.36 13.96 C333.44 9.76, 341.12 6.79, 353.81 3.88 M329.63 14.38 C335.62 10.66, 345.27 6.74, 354.82 4.16" stroke="#1e1e1e" stroke-width="4" fill="none"></path></g><g transform="translate(85.2262866045819 1059.827139392486) rotate(0 178.12445312002774 2.0401749044762596)"><path d="M328.21 -6.56 C333.69 -4.46, 341.42 -1.13, 353.81 3.88 M329.47 -6.14 C335.38 -4.2, 345.07 -2.46, 354.82 4.16" stroke="#1e1e1e" stroke-width="4" fill="none"></path></g></g><mask></mask><g transform="translate(174.99164153783522 1014.5250301879323) rotate(0 89.05399322509766 17.5)"><text x="178.1079864501953" y="0" font-family="Virgil, Segoe UI Emoji" font-size="28px" fill="#1e1e1e" text-anchor="end" style="white-space: pre;" direction="ltr" dominant-baseline="text-before-edge">COMMIT(lee)</text></g><g transform="translate(127.10335584076995 809.6807103064712) rotate(0 98.7699966430664 35)"><text x="98.7699966430664" y="0" font-family="Virgil, Segoe UI Emoji" font-size="28px" fill="#1e1e1e" text-anchor="middle" style="white-space: pre;" direction="ltr" dominant-baseline="text-before-edge">변경 전 데이터를</text><text x="98.7699966430664" y="35" font-family="Virgil, Segoe UI Emoji" font-size="28px" fill="#1e1e1e" text-anchor="middle" style="white-space: pre;" direction="ltr" dominant-baseline="text-before-edge">언두 로그로 복사</text></g><g stroke-linecap="round"><g transform="translate(649.2490003216116 174.5135757158062) rotate(0 1.9697417252855303 118.66434921031846)"><path d="M0.29 2.14 C0.65 70.36, 1.16 137.54, 4.05 235 M-0.11 0.4 C0.21 52.76, -0.18 105.06, 2.81 236.93" stroke="#1e1e1e" stroke-width="4" fill="none"></path></g></g><mask></mask><g transform="translate(473.4986889539547 188.17809374015275) rotate(0 68.68800354003906 22.5)"><text x="68.68800354003906" y="0" font-family="Virgil, Segoe UI Emoji" font-size="36px" fill="#1e1e1e" text-anchor="middle" style="white-space: pre;" direction="ltr" dominant-baseline="text-before-edge">TRX-ID</text></g><g transform="translate(528.6970351142926 258.17677216407765) rotate(0 11.520000457763672 22.5)"><text x="11.520000457763672" y="0" font-family="Virgil, Segoe UI Emoji" font-size="36px" fill="#1e1e1e" text-anchor="middle" style="white-space: pre;" direction="ltr" dominant-baseline="text-before-edge">6</text></g><g transform="translate(530.6666920362298 346.8113336512481) rotate(0 11.520000457763672 22.5)"><text x="11.520000457763672" y="0" font-family="Virgil, Segoe UI Emoji" font-size="36px" fill="#1e1e1e" text-anchor="middle" style="white-space: pre;" direction="ltr" dominant-baseline="text-before-edge">6</text></g><g stroke-linecap="round" transform="translate(437.2043539593236 549.871091536208) rotate(0 311.20579366606535 118.17941531622728)"><path d="M-1.18 0.89 C214.21 -3.45, 427.18 -3.23, 621.49 -0.58 M-0.19 -0.63 C132.33 5.11, 265.04 5.27, 623.17 0.66 M620.59 3.11 C620.58 52.71, 621.6 103.29, 622.85 239.61 M622.04 -1.67 C624.65 67.02, 625.57 131.61, 623.96 237.89 M621.61 235.75 C399.75 238.77, 176.66 241.45, 0.69 237.81 M623.06 236.68 C486.07 231.39, 349.95 231.61, 0.6 237.03 M0.64 234.71 C6.12 176.82, 6.11 115.25, -0.97 1.39 M-1.62 237.34 C2.48 154.18, 3.07 72.77, 0.28 -0.33" stroke="#1e1e1e" stroke-width="4" fill="none"></path></g><g stroke-linecap="round"><g transform="translate(846.892993722245 549.871091536208) rotate(0 0.5356039335609921 119.63355562139634)"><path d="M2.79 -0.81 C0.75 85.77, -3.44 171.06, -0.96 240.08 M0.21 0.63 C0.7 49.47, 1.47 98.39, 0.64 238.01" stroke="#1e1e1e" stroke-width="4" fill="none"></path></g></g><mask></mask><g stroke-linecap="round"><g transform="translate(441.1436678031981 622.9911422723844) rotate(0 310.847445132547 -1.0238412497206681)"><path d="M1.43 -0.17 C219.7 -0.07, 439.85 0.64, 618.9 -2.34 M0.59 0.46 C137.91 -1.63, 273.67 -2.89, 621.11 -2.4" stroke="#1e1e1e" stroke-width="4" fill="none"></path></g></g><mask></mask><g stroke-linecap="round"><g transform="translate(445.0829816470722 693.7470760718063) rotate(0 307.176545554715 2.7656432129652444)"><path d="M-0.92 -0.58 C168.08 3, 337.38 3.42, 613.27 6.11 M0.76 0.66 C206.81 -0.98, 415.52 0.74, 615.27 5.65" stroke="#1e1e1e" stroke-width="4" fill="none"></path></g></g><mask></mask><g transform="translate(678.8101971408624 560.628346911705) rotate(0 63.36000061035156 22.5)"><text x="126.72000122070312" y="0" font-family="Virgil, Segoe UI Emoji" font-size="36px" fill="#1e1e1e" text-anchor="end" style="white-space: pre;" direction="ltr" dominant-baseline="text-before-edge">emp_no</text></g><g transform="translate(855.9796622970028 565.628346911705) rotate(0 96.89399719238281 22.5)"><text x="193.78799438476562" y="0" font-family="Virgil, Segoe UI Emoji" font-size="36px" fill="#1e1e1e" text-anchor="end" style="white-space: pre;" direction="ltr" dominant-baseline="text-before-edge">first_name</text></g><g transform="translate(715.2640884551073 640.4753099453155) rotate(0 22.48200035095215 22.5)"><text x="44.9640007019043" y="0" font-family="Virgil, Segoe UI Emoji" font-size="36px" fill="#1e1e1e" text-anchor="end" style="white-space: pre;" direction="ltr" dominant-baseline="text-before-edge">49</text></g><g transform="translate(723.0603749263652 723.2009006666747) rotate(0 23.507999420166016 22.5)"><text x="47.01599884033203" y="0" font-family="Virgil, Segoe UI Emoji" font-size="36px" fill="#1e1e1e" text-anchor="end" style="white-space: pre;" direction="ltr" dominant-baseline="text-before-edge">50</text></g><g transform="translate(918.7917216616432 640.4753099453155) rotate(0 25.110000610351562 22.5)"><text x="50.220001220703125" y="0" font-family="Virgil, Segoe UI Emoji" font-size="36px" fill="#1e1e1e" text-anchor="end" style="white-space: pre;" direction="ltr" dominant-baseline="text-before-edge">sim</text></g><g transform="translate(918.1900685849213 727.140214510549) rotate(0 24.42599868774414 22.5)"><text x="48.85199737548828" y="0" font-family="Virgil, Segoe UI Emoji" font-size="36px" fill="#1e1e1e" text-anchor="end" style="white-space: pre;" direction="ltr" dominant-baseline="text-before-edge">lee</text></g><g stroke-linecap="round"><g transform="translate(648.658478649609 552.87279965317) rotate(0 1.8323701226223648 118.08022801782775)"><path d="M-0.64 2.78 C2.28 97.3, 3.8 188.98, 1.92 237.38 M0.8 -1.22 C4.11 72.98, 5.43 149.93, 3.22 237.18" stroke="#1e1e1e" stroke-width="4" fill="none"></path></g></g><mask></mask><g transform="translate(472.90816728195216 566.5373176775165) rotate(0 68.68800354003906 22.5)"><text x="68.68800354003906" y="0" font-family="Virgil, Segoe UI Emoji" font-size="36px" fill="#1e1e1e" text-anchor="middle" style="white-space: pre;" direction="ltr" dominant-baseline="text-before-edge">TRX-ID</text></g><g transform="translate(528.1065134422901 636.5359961014415) rotate(0 11.520000457763672 22.5)"><text x="11.520000457763672" y="0" font-family="Virgil, Segoe UI Emoji" font-size="36px" fill="#1e1e1e" text-anchor="middle" style="white-space: pre;" direction="ltr" dominant-baseline="text-before-edge">6</text></g><g transform="translate(523.9021705778504 725.1705575886119) rotate(0 17.694000244140625 22.5)"><text x="17.694000244140625" y="0" font-family="Virgil, Segoe UI Emoji" font-size="36px" fill="#1e1e1e" text-anchor="middle" style="white-space: pre;" direction="ltr" dominant-baseline="text-before-edge">12</text></g><g stroke-linecap="round" transform="translate(437.2043539593236 868.9555128900217) rotate(0 311.20579366606535 71.89247765070488)"><path d="M-0.14 1.37 C218.17 4.1, 435.82 5.31, 623.87 0.56 M0.67 -0.26 C163.88 0.38, 329.64 1.4, 622.56 -0.45 M619.34 -1.96 C617.6 50.64, 619.07 100.94, 621.81 146.07 M621.01 -0.95 C622.14 37.66, 624.61 76.31, 621.5 143.48 M621.16 144.89 C413.19 146.42, 205.51 146.88, -0.32 142.26 M621.71 143.76 C491.88 142.54, 362.22 142.5, -0.2 144.29 M-0.61 144.79 C5.64 85.12, 5.79 34.76, -1.79 -4 M-0.11 145.43 C1.18 101.01, -2.46 57.93, 0.61 -0.33" stroke="#1e1e1e" stroke-width="4" fill="none"></path></g><g stroke-linecap="round"><g transform="translate(846.892993722245 868.9555128900217) rotate(0 1.7078075253048155 71.11898956498803)"><path d="M-0.15 -0.92 C-1.03 32.25, 5.03 61.77, 2.51 143.16 M-1.53 -0.57 C5.22 43.4, 5.07 81.67, 4.89 142.95" stroke="#1e1e1e" stroke-width="4" fill="none"></path></g></g><mask></mask><g stroke-linecap="round"><g transform="translate(441.1436678031981 942.0755636261981) rotate(0 310.01511308807966 -0.8698268473353892)"><path d="M-0.64 0.84 C240.8 0.94, 478.11 -0.62, 620.25 -0.62 M0.66 0.79 C165.94 0.44, 331.95 0.03, 620.67 -2.58" stroke="#1e1e1e" stroke-width="4" fill="none"></path></g></g><mask></mask><g transform="translate(678.8101971408624 879.7127682655187) rotate(0 63.36000061035156 22.5)"><text x="126.72000122070312" y="0" font-family="Virgil, Segoe UI Emoji" font-size="36px" fill="#1e1e1e" text-anchor="end" style="white-space: pre;" direction="ltr" dominant-baseline="text-before-edge">emp_no</text></g><g transform="translate(855.9796622970028 884.7127682655187) rotate(0 96.89399719238281 22.5)"><text x="193.78799438476562" y="0" font-family="Virgil, Segoe UI Emoji" font-size="36px" fill="#1e1e1e" text-anchor="end" style="white-space: pre;" direction="ltr" dominant-baseline="text-before-edge">first_name</text></g><g transform="translate(713.2120903166796 959.5597312991292) rotate(0 23.507999420166016 22.5)"><text x="47.01599884033203" y="0" font-family="Virgil, Segoe UI Emoji" font-size="36px" fill="#1e1e1e" text-anchor="end" style="white-space: pre;" direction="ltr" dominant-baseline="text-before-edge">50</text></g><g transform="translate(920.8077205019753 959.5597312991292) rotate(0 24.102001190185547 22.5)"><text x="48.204002380371094" y="0" font-family="Virgil, Segoe UI Emoji" font-size="36px" fill="#1e1e1e" text-anchor="end" style="white-space: pre;" direction="ltr" dominant-baseline="text-before-edge">kim</text></g><g stroke-linecap="round"><g transform="translate(648.658478649609 871.9572210069837) rotate(0 0.940178745699086 71.24944855788698)"><path d="M-1.66 1.14 C-3.41 43.26, -2.7 91.15, 1.79 142.83 M1.19 -0.33 C1.34 39.47, 1.89 80.27, 4.42 141.69" stroke="#1e1e1e" stroke-width="4" fill="none"></path></g></g><mask></mask><g transform="translate(472.90816728195216 885.6217390313302) rotate(0 68.68800354003906 22.5)"><text x="68.68800354003906" y="0" font-family="Virgil, Segoe UI Emoji" font-size="36px" fill="#1e1e1e" text-anchor="middle" style="white-space: pre;" direction="ltr" dominant-baseline="text-before-edge">TRX-ID</text></g><g transform="translate(528.1065134422901 955.6204174552552) rotate(0 11.520000457763672 22.5)"><text x="11.520000457763672" y="0" font-family="Virgil, Segoe UI Emoji" font-size="36px" fill="#1e1e1e" text-anchor="middle" style="white-space: pre;" direction="ltr" dominant-baseline="text-before-edge">6</text></g><g stroke-linecap="round"><g transform="translate(430.38832543528144 1308.18744336206) rotate(0 -34.509260379036164 132.52734666117198)"><path d="M1.63 3.88 C-18.34 1.21, -40.26 -4, -73.93 -3.57 M-73.34 0.15 C-68.72 104.94, -63.85 212.5, -65.65 268.65 M-61.05 262.1 C-46.1 263.54, -33.19 265.57, 4.91 260.97" stroke="#1e1e1e" stroke-width="4.5" fill="none" stroke-dasharray="8 12"></path></g><g transform="translate(430.38832543528144 1308.18744336206) rotate(0 -34.509260379036164 132.52734666117198)"><path d="M-20.61 277.6 C-15.54 272.01, -12.29 264.14, 5.83 259.36" stroke="#1e1e1e" stroke-width="4.5" fill="none"></path></g><g transform="translate(430.38832543528144 1308.18744336206) rotate(0 -34.509260379036164 132.52734666117198)"><path d="M-22.46 257.16 C-16.68 256.61, -12.97 253.78, 5.83 259.36" stroke="#1e1e1e" stroke-width="4.5" fill="none"></path></g></g><mask></mask><g stroke-linecap="round" transform="translate(441.61574529490156 1133.0730722350927) rotate(0 311.20579366606535 118.17941531622728)"><path d="M0.06 0.6 C193.28 -6.12, 389.57 -5.47, 624 1.46 M-0.42 0.02 C204.84 -3.17, 409.87 -2.66, 621.87 -0.13 M625.2 -2.29 C626.88 56.09, 628.79 110.1, 625.39 233.23 M623.4 0.32 C625.32 76.84, 625.39 153.97, 621.37 236.64 M622.86 236.65 C387.58 238.18, 148.61 237.78, -0.28 237.6 M622.23 236.67 C495.32 240.82, 368.55 240.73, -0.57 235.63 M1.04 234.12 C4.64 166.04, 4.54 96.46, 3 -1.98 M0.92 234.84 C0 187.17, -0.11 133.54, 0.03 -0.53" stroke="#1e1e1e" stroke-width="4" fill="none"></path></g><g stroke-linecap="round"><g transform="translate(851.304385057823 1133.0730722350927) rotate(0 0.4203677254996592 118.64465698554227)"><path d="M-2.75 -2.69 C1.71 93.26, 5.04 192.27, 2.95 239.93 M-0.38 0.39 C-1.72 89.04, -1.78 174.88, 0.94 239.98" stroke="#1e1e1e" stroke-width="4" fill="none"></path></g></g><mask></mask><g stroke-linecap="round"><g transform="translate(445.5550591387761 1206.1931229712695) rotate(0 310.67831490893 -0.03256621176757335)"><path d="M0.37 -0.64 C211.05 4.79, 419.38 3.43, 621.52 -2.81 M-0.16 0.7 C186.91 -1.88, 374.4 -1.55, 619.68 -1.3" stroke="#1e1e1e" stroke-width="4" fill="none"></path></g></g><mask></mask><g stroke-linecap="round"><g transform="translate(449.49437298265013 1276.9490567706912) rotate(0 307.01330407293386 2.7114759574498066)"><path d="M1.58 1.46 C135.42 4.03, 270.97 3.72, 614.57 5.55 M-0.54 -0.13 C198.13 -1.6, 396.49 0.19, 613.99 6.04" stroke="#1e1e1e" stroke-width="4" fill="none"></path></g></g><mask></mask><g transform="translate(683.2215884764406 1143.8303276105898) rotate(0 63.36000061035156 22.5)"><text x="126.72000122070312" y="0" font-family="Virgil, Segoe UI Emoji" font-size="36px" fill="#1e1e1e" text-anchor="end" style="white-space: pre;" direction="ltr" dominant-baseline="text-before-edge">emp_no</text></g><g transform="translate(860.3910536325808 1148.8303276105898) rotate(0 96.89399719238281 22.5)"><text x="193.78799438476562" y="0" font-family="Virgil, Segoe UI Emoji" font-size="36px" fill="#1e1e1e" text-anchor="end" style="white-space: pre;" direction="ltr" dominant-baseline="text-before-edge">first_name</text></g><g transform="translate(719.6754797906852 1223.6772906442006) rotate(0 22.48200035095215 22.5)"><text x="44.9640007019043" y="0" font-family="Virgil, Segoe UI Emoji" font-size="36px" fill="#1e1e1e" text-anchor="end" style="white-space: pre;" direction="ltr" dominant-baseline="text-before-edge">49</text></g><g transform="translate(727.4717662619433 1306.4028813655596) rotate(0 23.507999420166016 22.5)"><text x="47.01599884033203" y="0" font-family="Virgil, Segoe UI Emoji" font-size="36px" fill="#1e1e1e" text-anchor="end" style="white-space: pre;" direction="ltr" dominant-baseline="text-before-edge">50</text></g><g transform="translate(923.2031129972212 1223.6772906442006) rotate(0 25.110000610351562 22.5)"><text x="50.220001220703125" y="0" font-family="Virgil, Segoe UI Emoji" font-size="36px" fill="#1e1e1e" text-anchor="end" style="white-space: pre;" direction="ltr" dominant-baseline="text-before-edge">sim</text></g><g transform="translate(922.6014599204992 1310.3421952094336) rotate(0 24.42599868774414 22.5)"><text x="48.85199737548828" y="0" font-family="Virgil, Segoe UI Emoji" font-size="36px" fill="#1e1e1e" text-anchor="end" style="white-space: pre;" direction="ltr" dominant-baseline="text-before-edge">lee</text></g><g stroke-linecap="round"><g transform="translate(653.069869985187 1136.0747803520549) rotate(0 1.8184240321268135 118.10667632660125)"><path d="M3.3 -3.18 C2.58 53.14, 0.82 110.63, 4.43 235.85 M0.74 -1.17 C-1.97 92.96, -1.04 185.67, 3.19 239.4" stroke="#1e1e1e" stroke-width="4" fill="none"></path></g></g><mask></mask><g transform="translate(477.31955861753033 1149.7392983764014) rotate(0 68.68800354003906 22.5)"><text x="68.68800354003906" y="0" font-family="Virgil, Segoe UI Emoji" font-size="36px" fill="#1e1e1e" text-anchor="middle" style="white-space: pre;" direction="ltr" dominant-baseline="text-before-edge">TRX-ID</text></g><g transform="translate(532.517904777868 1219.7379768003261) rotate(0 11.520000457763672 22.5)"><text x="11.520000457763672" y="0" font-family="Virgil, Segoe UI Emoji" font-size="36px" fill="#1e1e1e" text-anchor="middle" style="white-space: pre;" direction="ltr" dominant-baseline="text-before-edge">6</text></g><g transform="translate(528.3135619134283 1308.3725382874968) rotate(0 17.694000244140625 22.5)"><text x="17.694000244140625" y="0" font-family="Virgil, Segoe UI Emoji" font-size="36px" fill="#1e1e1e" text-anchor="middle" style="white-space: pre;" direction="ltr" dominant-baseline="text-before-edge">12</text></g><g stroke-linecap="round" transform="translate(441.61574529490156 1452.1574935889066) rotate(0 311.20579366606535 71.89247765070485)"><path d="M1.42 -1.49 C183.23 4.4, 364.6 4.64, 622.72 1.1 M-0.5 0.14 C201.82 -3.36, 402.77 -2.96, 622.56 0.79 M621.71 3.11 C616.88 40.47, 624.67 73.51, 623.96 144.71 M620.98 -1.83 C624.69 32.91, 626.39 69.43, 621.08 144.79 M623.84 142.84 C466.75 139.71, 315.36 140.55, -1.45 143.87 M622.43 143.53 C378.18 139.66, 132.72 139.76, -0.4 144.28 M-1.64 146.66 C0.9 106.54, -0.56 69.5, -1.34 -3.11 M-0.63 142.58 C-0.21 114.86, 1.45 81.44, 1.14 0.19" stroke="#1e1e1e" stroke-width="4" fill="none"></path></g><g stroke-linecap="round"><g transform="translate(851.304385057823 1452.1574935889066) rotate(0 2.9007782608573507 73.132886508058)"><path d="M0.94 1.77 C0.65 34.9, 5.1 67.75, 4.87 146.7 M1.6 -0.44 C0.64 52.88, 1.44 106.63, 3.11 142.59" stroke="#1e1e1e" stroke-width="4" fill="none"></path></g></g><mask></mask><g stroke-linecap="round"><g transform="translate(445.5550591387761 1525.277544325083) rotate(0 310.1743942767017 -1.0101130060921832)"><path d="M-1.12 0.94 C128.59 -1.51, 256.95 -1.84, 621.46 -2.96 M0.4 0.23 C196.83 1.26, 393.05 -0.64, 619.91 -2.11" stroke="#1e1e1e" stroke-width="4" fill="none"></path></g></g><mask></mask><g transform="translate(683.2215884764406 1462.9147489644033) rotate(0 63.36000061035156 22.5)"><text x="126.72000122070312" y="0" font-family="Virgil, Segoe UI Emoji" font-size="36px" fill="#1e1e1e" text-anchor="end" style="white-space: pre;" direction="ltr" dominant-baseline="text-before-edge">emp_no</text></g><g transform="translate(860.3910536325808 1467.9147489644033) rotate(0 96.89399719238281 22.5)"><text x="193.78799438476562" y="0" font-family="Virgil, Segoe UI Emoji" font-size="36px" fill="#1e1e1e" text-anchor="end" style="white-space: pre;" direction="ltr" dominant-baseline="text-before-edge">first_name</text></g><g transform="translate(717.6234816522575 1542.761711998014) rotate(0 23.507999420166016 22.5)"><text x="47.01599884033203" y="0" font-family="Virgil, Segoe UI Emoji" font-size="36px" fill="#1e1e1e" text-anchor="end" style="white-space: pre;" direction="ltr" dominant-baseline="text-before-edge">50</text></g><g transform="translate(925.2191118375532 1542.761711998014) rotate(0 24.102001190185547 22.5)"><text x="48.204002380371094" y="0" font-family="Virgil, Segoe UI Emoji" font-size="36px" fill="#1e1e1e" text-anchor="end" style="white-space: pre;" direction="ltr" dominant-baseline="text-before-edge">kim</text></g><g stroke-linecap="round"><g transform="translate(653.069869985187 1455.1592017058683) rotate(0 2.393436762518377 71.18266024304529)"><path d="M-0.88 1.99 C2.55 34.41, 6.33 65.79, 1.55 139.17 M1.63 1.99 C2.87 40.89, 4.9 78.95, 5.66 140.38" stroke="#1e1e1e" stroke-width="4" fill="none"></path></g></g><mask></mask><g transform="translate(477.31955861753033 1468.823719730215) rotate(0 68.68800354003906 22.5)"><text x="68.68800354003906" y="0" font-family="Virgil, Segoe UI Emoji" font-size="36px" fill="#1e1e1e" text-anchor="middle" style="white-space: pre;" direction="ltr" dominant-baseline="text-before-edge">TRX-ID</text></g><g transform="translate(532.517904777868 1538.82239815414) rotate(0 11.520000457763672 22.5)"><text x="11.520000457763672" y="0" font-family="Virgil, Segoe UI Emoji" font-size="36px" fill="#1e1e1e" text-anchor="middle" style="white-space: pre;" direction="ltr" dominant-baseline="text-before-edge">6</text></g><g stroke-linecap="round"><g transform="translate(1426.5626504437614 187.26912297434126) rotate(0 -177.62047133078704 -2.0493312053268653)"><path d="M-0.12 -1.6 C-95.82 -2.09, -195.35 -3.81, -355.8 -3.77 M0.55 0.6 C-120.79 -0.97, -243.45 -2.19, -355.58 -4.7" stroke="#1e1e1e" stroke-width="4" fill="none"></path></g><g transform="translate(1426.5626504437614 187.26912297434126) rotate(0 -177.62047133078704 -2.0493312053268653)"><path d="M-327.38 -16.94 C-333.61 -14.27, -345.59 -11.81, -354.46 -1.34 M-326.33 -13.49 C-334.78 -10.97, -345.52 -6.38, -354.12 -2.8" stroke="#1e1e1e" stroke-width="4" fill="none"></path></g><g transform="translate(1426.5626504437614 187.26912297434126) rotate(0 -177.62047133078704 -2.0493312053268653)"><path d="M-327.77 3.58 C-333.59 0.68, -345.46 -2.43, -354.46 -1.34 M-326.72 7.03 C-335.32 2.53, -345.93 0.09, -354.12 -2.8" stroke="#1e1e1e" stroke-width="4" fill="none"></path></g></g><mask></mask><g transform="translate(1139.8130841782358 143.02769992591323) rotate(0 135.0859832763672 17.5)"><text x="135.0859832763672" y="0" font-family="Virgil, Segoe UI Emoji" font-size="28px" fill="#1e1e1e" text-anchor="middle" style="white-space: pre;" direction="ltr" dominant-baseline="text-before-edge">BEGIN(TRX-ID: 10)</text></g><g transform="translate(1232.6606056697656 419.6886397629215) rotate(0 67.84400177001953 17.5)"><text x="67.84400177001953" y="0" font-family="Virgil, Segoe UI Emoji" font-size="28px" fill="#1e1e1e" text-anchor="middle" style="white-space: pre;" direction="ltr" dominant-baseline="text-before-edge">return kim</text></g><g stroke-linecap="round"><g transform="translate(1434.8685650443326 1314.3551160619277) rotate(0 -182.91246562736796 125.70723492184459)"><path d="M0.83 -1.7 C-120.1 -3.47, -236.15 -1.66, -366.43 -0.97 M0.9 0.74 C-127.71 3.65, -254.8 2.25, -365.6 1.02 M-365.31 -1.63 C-360.3 84.06, -364.41 162.77, -365.1 251.74 M-365.71 1.37 C-363.48 69.9, -364.07 142.34, -365.27 252.97 M-364.88 251.05 C-277.91 248.56, -191.27 249.03, -13.69 252.32 M-366.72 252.6 C-291.44 254.59, -214.08 253.98, -15.56 252.53" stroke="#1e1e1e" stroke-width="4" fill="none"></path></g><g transform="translate(1434.8685650443326 1314.3551160619277) rotate(0 -182.91246562736796 125.70723492184459)"><path d="M-42.35 260.27 C-36.39 259.86, -22.69 259.33, -18.8 250.99 M-42.25 264.16 C-33.16 259.35, -21.83 253.44, -17.47 254.15" stroke="#1e1e1e" stroke-width="4" fill="none"></path></g><g transform="translate(1434.8685650443326 1314.3551160619277) rotate(0 -182.91246562736796 125.70723492184459)"><path d="M-42.5 239.75 C-36.61 246.04, -22.85 252.2, -18.8 250.99 M-42.39 243.64 C-33.59 246.04, -22.22 247.34, -17.47 254.15" stroke="#1e1e1e" stroke-width="4" fill="none"></path></g></g><mask></mask><g transform="translate(1140.9876265550397 1228.6142786355977) rotate(0 137.3022606686784 34.626811452411175)"><text x="274.60452133735686" y="0" font-family="Virgil, Segoe UI Emoji" font-size="27.70144916192895px" fill="#1e1e1e" text-anchor="end" style="white-space: pre;" direction="ltr" dominant-baseline="text-before-edge">SELECT</text><text x="274.60452133735686" y="34.62681145241119" font-family="Virgil, Segoe UI Emoji" font-size="27.70144916192895px" fill="#1e1e1e" text-anchor="end" style="white-space: pre;" direction="ltr" dominant-baseline="text-before-edge">WHERE emp_num=50</text></g><g transform="translate(1229.149909457657 1516.1841892384182) rotate(0 67.84400177001953 17.5)"><text x="67.84400177001953" y="0" font-family="Virgil, Segoe UI Emoji" font-size="28px" fill="#1e1e1e" text-anchor="middle" style="white-space: pre;" direction="ltr" dominant-baseline="text-before-edge">return kim</text></g></svg>