<svg version="1.1" xmlns="http://www.w3.org/2000/svg" viewBox="0 0 859.2263813185672 342.8690383683932" width="1718.4527626371344" height="685.7380767367864">
  <!-- svg-source:excalidraw -->
  
  <defs>
    <style class="style-fonts">
      @font-face {
        font-family: "Virgil";
        src: url("https://excalidraw.com/Virgil.woff2");
      }
      @font-face {
        font-family: "Cascadia";
        src: url("https://excalidraw.com/Cascadia.woff2");
      }
      @font-face {
        font-family: "Assistant";
        src: url("https://excalidraw.com/Assistant-Regular.woff2");
      }
    </style>
    
  </defs>
  <rect x="0" y="0" width="859.2263813185672" height="342.8690383683932" fill="#ffffff"></rect><g stroke-linecap="round" transform="translate(10 10) rotate(0 419.6131906592836 161.4345191841966)"><path d="M32 0 C294.93 -3.04, 556.09 -3.3, 807.23 0 M807.23 0 C827.81 -1.16, 839 9.09, 839.23 32 M839.23 32 C839.29 98.15, 836.91 162.07, 839.23 290.87 M839.23 290.87 C837.67 310.54, 828.79 321.95, 807.23 322.87 M807.23 322.87 C575.23 323.1, 343.49 323.73, 32 322.87 M32 322.87 C8.76 324.69, -1.58 312.57, 0 290.87 M0 290.87 C-0.58 209.98, 0.66 127.87, 0 32 M0 32 C0.34 9.78, 11.36 -1.33, 32 0" stroke="#1e1e1e" stroke-width="2.5" fill="none" stroke-dasharray="8 10"></path></g><g stroke-linecap="round"><g transform="translate(164.78254862706615 82.04834318424173) rotate(0 5.741543741290741 -15.102756362958928)"><path d="M-0.35 0.68 C-0.59 -0.07, -1.43 -2.98, -2.52 -5.06 C-3.61 -7.14, -5.78 -11.57, -6.86 -11.79 C-7.95 -12.01, -8.61 -8.09, -9.03 -6.4 C-9.45 -4.7, -8.76 -1.53, -9.39 -1.61 C-10.01 -1.69, -12.05 -4.53, -12.79 -6.87 C-13.52 -9.21, -13.98 -13.2, -13.79 -15.65 C-13.61 -18.1, -11.66 -19.97, -11.7 -21.55 C-11.74 -23.14, -12.96 -23.46, -14.03 -25.16 C-15.09 -26.86, -16.66 -29.47, -18.08 -31.77 C-19.5 -34.08, -22.19 -37.57, -22.56 -39 C-22.92 -40.44, -20.75 -39.88, -20.26 -40.36 C-19.77 -40.84, -20.75 -42.35, -19.63 -41.87 C-18.51 -41.39, -15.5 -38.04, -13.54 -37.48 C-11.57 -36.92, -10.56 -39.44, -7.84 -38.51 C-5.11 -37.57, -0.14 -34.19, 2.82 -31.85 C5.77 -29.52, 7.3 -28.41, 9.88 -24.48 C12.45 -20.56, 16.31 -11.54, 18.26 -8.32 C20.2 -5.1, 19.5 -6.67, 21.53 -5.17 C23.57 -3.68, 30.65 -0.92, 30.44 0.65 C30.23 2.23, 21.33 3.07, 20.28 4.28 C19.23 5.49, 22.08 6.67, 24.15 7.92 C26.21 9.18, 31.23 11.21, 32.66 11.78 M1.67 -0.01 C1.47 -0.54, -1.28 -1.92, -2.84 -3.73 C-4.41 -5.54, -6.71 -10.09, -7.72 -10.87 C-8.74 -11.64, -8.4 -9.99, -8.93 -8.38 C-9.47 -6.77, -10.54 -1.39, -10.94 -1.21 C-11.34 -1.03, -10.97 -4.73, -11.34 -7.32 C-11.72 -9.91, -12.96 -14.27, -13.18 -16.76 C-13.41 -19.25, -12.36 -21.18, -12.71 -22.27 C-13.05 -23.35, -14.42 -21.59, -15.26 -23.25 C-16.11 -24.9, -16.52 -29.64, -17.77 -32.2 C-19.01 -34.75, -22.18 -37.21, -22.74 -38.58 C-23.3 -39.95, -21.56 -39.78, -21.1 -40.42 C-20.65 -41.05, -21.1 -42.94, -20.01 -42.39 C-18.93 -41.85, -16.7 -37.67, -14.6 -37.17 C-12.49 -36.66, -9.92 -39.89, -7.36 -39.36 C-4.81 -38.82, -2.45 -36.48, 0.75 -33.95 C3.95 -31.41, 9.05 -28.42, 11.83 -24.14 C14.62 -19.86, 15.54 -11.47, 17.45 -8.26 C19.36 -5.05, 21.04 -6.65, 23.29 -4.88 C25.53 -3.11, 31.06 0.94, 30.92 2.35 C30.78 3.76, 23.62 2.76, 22.43 3.57 C21.25 4.38, 22.14 6.01, 23.81 7.19 C25.47 8.38, 30.69 9.6, 32.42 10.68" stroke="#00758f" stroke-width="2" fill="none"></path></g></g><mask></mask><g transform="translate(57.41464148196394 82.05995645078315) rotate(0 29.83210435578735 25.54927749282774)"><text x="59.664208711574645" y="0" font-family="Helvetica, Segoe UI Emoji" font-size="44.50201705879798px" fill="#00758f" text-anchor="end" style="white-space: pre;" direction="ltr" dominant-baseline="text-before-edge">My</text></g><g transform="translate(115.83484904958607 83.25611139688829) rotate(0 44.640502588531376 25.549869648741435)"><text x="89.28100517706277" y="0" font-family="Helvetica, Segoe UI Emoji" font-size="44.50201705879796px" fill="#f29111" text-anchor="end" style="white-space: pre;" direction="ltr" dominant-baseline="text-before-edge">SQL</text></g><g stroke-linecap="round"><g transform="translate(153.8990244979151 49.05021465126174) rotate(0 0.8240178517592653 1.1828643355897839)"><path d="M-0.09 0.32 C0.19 0.76, 1.31 1.97, 1.6 2.37 M0.52 0.18 C0.75 0.69, 1.15 2.49, 1.3 2.82" stroke="#00758f" stroke-width="2" fill="none"></path></g></g><mask></mask><g stroke-linecap="round"><g transform="translate(162.40770479288994 245.20348712329968) rotate(0 5.741543741290741 -15.102756362958928)"><path d="M0.38 -0.59 C-0.34 -1.37, -3.84 -2.99, -4.86 -4.65 C-5.88 -6.3, -5.22 -10.03, -5.75 -10.51 C-6.28 -10.98, -7.58 -8.96, -8.04 -7.51 C-8.49 -6.05, -7.52 -1.58, -8.48 -1.77 C-9.43 -1.95, -12.88 -6.26, -13.77 -8.63 C-14.65 -11, -14.25 -14.17, -13.8 -16.01 C-13.35 -17.85, -10.94 -18.13, -11.07 -19.67 C-11.21 -21.21, -13.67 -23.26, -14.59 -25.26 C-15.52 -27.27, -15.54 -29.59, -16.62 -31.71 C-17.7 -33.82, -20.19 -36.27, -21.07 -37.95 C-21.94 -39.62, -22.09 -41.09, -21.85 -41.75 C-21.6 -42.41, -21.23 -42.59, -19.59 -41.92 C-17.95 -41.25, -13.92 -38.2, -12 -37.73 C-10.09 -37.26, -10.24 -40.04, -8.09 -39.11 C-5.93 -38.18, -2.36 -34.75, 0.91 -32.14 C4.19 -29.53, 8.98 -27.54, 11.57 -23.45 C14.15 -19.36, 14.62 -10.71, 16.43 -7.58 C18.25 -4.45, 19.95 -6.29, 22.46 -4.68 C24.97 -3.06, 31.69 0.71, 31.48 2.1 C31.27 3.5, 22.04 2.84, 21.21 3.69 C20.38 4.54, 24.33 5.76, 26.49 7.21 C28.66 8.66, 32.96 11.7, 34.22 12.4 M-0.88 1.71 C-1.2 1.14, -1.89 -0.73, -2.75 -3.11 C-3.61 -5.49, -5.25 -12.02, -6.02 -12.57 C-6.8 -13.12, -6.83 -8.27, -7.42 -6.41 C-8.01 -4.56, -8.65 -1.46, -9.55 -1.45 C-10.45 -1.44, -12.22 -3.7, -12.83 -6.35 C-13.44 -8.99, -13.37 -15.14, -13.19 -17.31 C-13.01 -19.49, -11.26 -18.38, -11.75 -19.39 C-12.24 -20.41, -15.5 -21.29, -16.13 -23.41 C-16.76 -25.52, -14.81 -29.84, -15.53 -32.1 C-16.26 -34.36, -19.75 -35.23, -20.47 -36.96 C-21.19 -38.7, -19.95 -41.62, -19.87 -42.53 C-19.78 -43.45, -21.22 -43.31, -19.95 -42.48 C-18.68 -41.65, -14.3 -38.52, -12.26 -37.55 C-10.23 -36.57, -10.04 -37.76, -7.74 -36.62 C-5.45 -35.49, -1.57 -33.06, 1.51 -30.72 C4.59 -28.38, 7.95 -26.49, 10.75 -22.56 C13.55 -18.63, 16.61 -10.21, 18.33 -7.14 C20.04 -4.06, 19.29 -5.46, 21.04 -4.12 C22.79 -2.79, 28.98 -0.23, 28.84 0.9 C28.7 2.03, 21.04 1.81, 20.19 2.68 C19.33 3.54, 21.29 4.61, 23.73 6.1 C26.17 7.59, 33.32 10.34, 34.81 11.62" stroke="#00758f" stroke-width="2" fill="none"></path></g></g><mask></mask><g transform="translate(55.039797647787964 245.2151003898411) rotate(0 29.832104355787294 25.54927749282774)"><text x="59.664208711574645" y="0" font-family="Helvetica, Segoe UI Emoji" font-size="44.50201705879798px" fill="#00758f" text-anchor="end" style="white-space: pre;" direction="ltr" dominant-baseline="text-before-edge">My</text></g><g transform="translate(113.46000521541009 246.41125533594612) rotate(0 44.640502588531376 25.549869648741435)"><text x="89.28100517706277" y="0" font-family="Helvetica, Segoe UI Emoji" font-size="44.50201705879796px" fill="#f29111" text-anchor="end" style="white-space: pre;" direction="ltr" dominant-baseline="text-before-edge">SQL</text></g><g stroke-linecap="round"><g transform="translate(151.52418066373912 212.2053585903197) rotate(0 0.8240178517592653 1.1828643355897839)"><path d="M0.21 -0.01 C0.47 0.36, 1.68 1.96, 1.87 2.32 M-0.11 -0.31 C0.1 0.09, 1.34 2.29, 1.71 2.75" stroke="#00758f" stroke-width="2" fill="none"></path></g></g><mask></mask><g stroke-linecap="round" transform="translate(562.4907010347232 53.126911262204146) rotate(0 126.46675329592301 118.89040402013035)"><path d="M32 0 C99.13 -0.59, 163.71 2.46, 220.93 0 M32 0 C80.74 0.97, 131.2 1.73, 220.93 0 M220.93 0 C243.82 0.69, 253.12 11.91, 252.93 32 M220.93 0 C244.16 -0.75, 252.7 9.21, 252.93 32 M252.93 32 C253.96 78.41, 255.31 124.48, 252.93 205.78 M252.93 32 C252.35 70.04, 251.93 106.68, 252.93 205.78 M252.93 205.78 C252.49 227.7, 243.23 237.09, 220.93 237.78 M252.93 205.78 C251.66 229.02, 241.11 235.98, 220.93 237.78 M220.93 237.78 C153.43 237.28, 85.06 238.04, 32 237.78 M220.93 237.78 C168.56 237.36, 116.39 235.92, 32 237.78 M32 237.78 C12.08 237.1, 0.52 226.74, 0 205.78 M32 237.78 C11.75 237.2, 1.41 229, 0 205.78 M0 205.78 C2.11 139.71, -0.6 75.05, 0 32 M0 205.78 C-2.14 145.36, -1.65 84.67, 0 32 M0 32 C-1.1 11.16, 9.16 -1.75, 32 0 M0 32 C-0.39 9.5, 9.48 -2.1, 32 0" stroke="#1e1e1e" stroke-width="2" fill="none"></path></g><g transform="translate(642.2474552461734 149.5173152823345) rotate(0 46.709999084472656 22.50000000000003)"><text x="46.709999084472656" y="0" font-family="Virgil, Segoe UI Emoji" font-size="36px" fill="#1e1e1e" text-anchor="middle" style="white-space: pre;" direction="ltr" dominant-baseline="text-before-edge">웹서버</text></g><g stroke-linecap="round"><g transform="translate(219.80659532964182 89.26026934675355) rotate(0 166.09688796929976 28.55700880875679)"><path d="M0.35 -0.63 C55.75 8.83, 276.26 46.92, 331.62 56.7 M-0.93 1.66 C54.34 11.29, 274.9 48.93, 330.38 58.02" stroke="#1e1e1e" stroke-width="2" fill="none"></path></g><g transform="translate(219.80659532964182 89.26026934675355) rotate(0 166.09688796929976 28.55700880875679)"><path d="M305.79 62.56 C310.42 60.49, 316.46 60.93, 330.38 58.02 M305.79 62.56 C314.74 60.24, 324.73 59.32, 330.38 58.02" stroke="#1e1e1e" stroke-width="2" fill="none"></path></g><g transform="translate(219.80659532964182 89.26026934675355) rotate(0 166.09688796929976 28.55700880875679)"><path d="M308.62 45.7 C312.59 47.53, 317.97 51.86, 330.38 58.02 M308.62 45.7 C316.38 49.75, 325.29 55.18, 330.38 58.02" stroke="#1e1e1e" stroke-width="2" fill="none"></path></g></g><mask></mask><g stroke-linecap="round"><g transform="translate(216.30981874081442 271.0926519657765) rotate(0 172.50764504881658 -34.384969790135756)"><path d="M0.5 -0.66 C57.98 -12.02, 288.39 -57.8, 345.76 -69.15 M-0.69 1.6 C56.62 -9.49, 287.79 -56.31, 345.2 -67.81" stroke="#1e1e1e" stroke-width="2" fill="none"></path></g><g transform="translate(216.30981874081442 271.0926519657765) rotate(0 172.50764504881658 -34.384969790135756)"><path d="M323.86 -54.79 C330.82 -58.49, 339.26 -65.1, 345.2 -67.81 M323.86 -54.79 C329.41 -58.53, 336.94 -62.26, 345.2 -67.81" stroke="#1e1e1e" stroke-width="2" fill="none"></path></g><g transform="translate(216.30981874081442 271.0926519657765) rotate(0 172.50764504881658 -34.384969790135756)"><path d="M320.48 -71.55 C328.56 -69.02, 338.25 -69.38, 345.2 -67.81 M320.48 -71.55 C327.15 -70.19, 335.7 -68.83, 345.2 -67.81" stroke="#1e1e1e" stroke-width="2" fill="none"></path></g></g><mask></mask><g transform="translate(350.35292131252993 63.61724102868624) rotate(0 56.933998107910156 22.5)"><text x="0" y="0" font-family="Virgil, Segoe UI Emoji" font-size="36px" fill="#1e1e1e" text-anchor="start" style="white-space: pre;" direction="ltr" dominant-baseline="text-before-edge">1,3,5,...</text></g><g transform="translate(352.6841057050816 252.44317682536376) rotate(0 59.90399932861328 22.5)"><text x="0" y="0" font-family="Virgil, Segoe UI Emoji" font-size="36px" fill="#1e1e1e" text-anchor="start" style="white-space: pre;" direction="ltr" dominant-baseline="text-before-edge">2,4,6...</text></g></svg>