<svg version="1.1" xmlns="http://www.w3.org/2000/svg" viewBox="0 0 1312.029573294862 1303.0162728729479" width="2624.059146589724" height="2606.0325457458957">
  <!-- svg-source:excalidraw -->
  
  <defs>
    <style class="style-fonts">
      @font-face {
        font-family: "Virgil";
        src: url("https://excalidraw.com/Virgil.woff2");
      }
      @font-face {
        font-family: "Cascadia";
        src: url("https://excalidraw.com/Cascadia.woff2");
      }
    </style>
    
  </defs>
  <rect x="0" y="0" width="1312.029573294862" height="1303.0162728729479" fill="#ffffff"></rect><g stroke-linecap="round" transform="translate(420.461801842324 10) rotate(0 270.38071534411847 565.7519309477075)"><path d="M32 0 M32 0 C134.39 2.2, 237.26 2.19, 508.76 0 M32 0 C199.22 -1.3, 364.48 -2.25, 508.76 0 M508.76 0 C533.41 -1.85, 540 11.57, 540.76 32 M508.76 0 C527.77 -3.03, 543.29 10.19, 540.76 32 M540.76 32 C547.05 264.27, 546.41 494.2, 540.76 1099.5 M540.76 32 C543.37 425.05, 543.07 818.04, 540.76 1099.5 M540.76 1099.5 C536.84 1121.48, 533.9 1130.89, 508.76 1131.5 M540.76 1099.5 C537 1121.15, 534.36 1130.31, 508.76 1131.5 M508.76 1131.5 C401.19 1129.41, 290.5 1129.2, 32 1131.5 M508.76 1131.5 C335.88 1128.8, 165.18 1128.21, 32 1131.5 M32 1131.5 C9.95 1127.9, -2.79 1122.24, 0 1099.5 M32 1131.5 C13.68 1130.39, 1.95 1120.18, 0 1099.5 M0 1099.5 C-3.65 738.09, -1.81 379.19, 0 32 M0 1099.5 C3.01 811.61, 3.17 524.52, 0 32 M0 32 C-2.41 7.53, 13.59 2.95, 32 0 M0 32 C-4.26 8.11, 11.06 1, 32 0" stroke="#1e1e1e" stroke-width="4" fill="none"></path></g><g transform="translate(643.6439102866833 23.771060445152784) rotate(0 46.709999084472656 22.5)"><text x="46.709999084472656" y="0" font-family="Virgil, Segoe UI Emoji" font-size="36px" fill="#1e1e1e" text-anchor="middle" style="white-space: pre;" direction="ltr" dominant-baseline="text-before-edge">인덱스</text></g><g stroke-linecap="round" transform="translate(436.30035205140894 85.57806705081055) rotate(0 254.8425435226032 65.48585483707757)"><path d="M32 0 M32 0 C163.9 5.64, 293.49 2.29, 477.69 0 M32 0 C131.95 -4.3, 232.47 -5.17, 477.69 0 M477.69 0 C495.55 1.07, 513.39 10.31, 509.69 32 M477.69 0 C502.45 -0.65, 507.58 12.8, 509.69 32 M509.69 32 C508.2 58.48, 507.45 79.34, 509.69 98.97 M509.69 32 C509.34 53.74, 508.77 71.82, 509.69 98.97 M509.69 98.97 C509.77 119.17, 502.71 134.02, 477.69 130.97 M509.69 98.97 C509.12 118.79, 501.92 133, 477.69 130.97 M477.69 130.97 C361.92 129.24, 247.81 130.09, 32 130.97 M477.69 130.97 C375.38 125.91, 274.16 126.61, 32 130.97 M32 130.97 C11.24 131.8, -3.07 117.82, 0 98.97 M32 130.97 C6.62 134.3, -3.94 118.55, 0 98.97 M0 98.97 C4.1 75.13, 4.23 53.94, 0 32 M0 98.97 C2.16 82.57, 1.3 64.9, 0 32 M0 32 C0.64 14.64, 12.52 3.54, 32 0 M0 32 C2.91 10.36, 7.77 -1.85, 32 0" stroke="#1e1e1e" stroke-width="4" fill="none"></path></g><g transform="translate(679.3348959631113 128.5639218878881) rotate(0 11.807999610900879 22.5)"><text x="11.807999610900879" y="0" font-family="Virgil, Segoe UI Emoji" font-size="36px" fill="#1e1e1e" text-anchor="middle" style="white-space: pre;" direction="ltr" dominant-baseline="text-before-edge">A</text></g><g stroke-linecap="round" transform="translate(437.08933825426516 387.759782744795) rotate(0 254.8425435226032 65.48585483707757)"><path d="M32 0 M32 0 C123.17 -1.78, 215.23 -1.66, 477.69 0 M32 0 C187.17 -1.64, 343.85 -1.69, 477.69 0 M477.69 0 C502.14 -0.54, 510.03 8.43, 509.69 32 M477.69 0 C499.22 4.34, 510.37 9.99, 509.69 32 M509.69 32 C509.24 56.26, 507.6 77.74, 509.69 98.97 M509.69 32 C508.4 59.17, 508.42 82.49, 509.69 98.97 M509.69 98.97 C512.68 123.84, 500.73 134.6, 477.69 130.97 M509.69 98.97 C512.7 116.35, 497.79 128.92, 477.69 130.97 M477.69 130.97 C312.92 132.6, 151.15 131.8, 32 130.97 M477.69 130.97 C385.93 127.28, 293.21 127.68, 32 130.97 M32 130.97 C10.14 133.35, 3.86 119.56, 0 98.97 M32 130.97 C15.18 134.72, -1.17 124.16, 0 98.97 M0 98.97 C-3.84 74.59, 0.1 49.21, 0 32 M0 98.97 C0.67 73.69, 1.63 49.93, 0 32 M0 32 C1.83 14.53, 9.85 1.06, 32 0 M0 32 C-0.87 9.74, 8.71 -0.64, 32 0" stroke="#1e1e1e" stroke-width="4" fill="none"></path></g><g transform="translate(680.339881769239 430.7456375818726) rotate(0 11.592000007629395 22.5)"><text x="11.592000007629395" y="0" font-family="Virgil, Segoe UI Emoji" font-size="36px" fill="#1e1e1e" text-anchor="middle" style="white-space: pre;" direction="ltr" dominant-baseline="text-before-edge">C</text></g><g stroke-linecap="round" transform="translate(437.0893382542654 685.9965674244977) rotate(0 254.8425435226032 65.48585483707757)"><path d="M32 0 M32 0 C176.66 0.61, 323.34 1.11, 477.69 0 M32 0 C174.08 -0.63, 317.24 -1.05, 477.69 0 M477.69 0 C499.83 0.24, 512.38 12.8, 509.69 32 M477.69 0 C498.7 -3.22, 510.31 12.79, 509.69 32 M509.69 32 C512.75 44.06, 507.18 59.98, 509.69 98.97 M509.69 32 C511.39 45.02, 510.61 57.41, 509.69 98.97 M509.69 98.97 C506.34 118.73, 496.12 127.53, 477.69 130.97 M509.69 98.97 C511.49 117.15, 495.59 133.71, 477.69 130.97 M477.69 130.97 C364.45 125.76, 249.03 125.93, 32 130.97 M477.69 130.97 C314.47 129.28, 149.86 129.33, 32 130.97 M32 130.97 C9.85 132.84, -1.07 116.31, 0 98.97 M32 130.97 C11.63 131.84, 1.54 118.39, 0 98.97 M0 98.97 C2.65 77.43, 3.33 55.7, 0 32 M0 98.97 C1.69 75.46, -0.86 55.92, 0 32 M0 32 C2.35 11.37, 10.71 2.01, 32 0 M0 32 C-2.63 10.96, 6.47 -3.59, 32 0" stroke="#1e1e1e" stroke-width="4" fill="none"></path></g><g transform="translate(679.7998818073862 728.9824222615753) rotate(0 12.131999969482422 22.5)"><text x="12.131999969482422" y="0" font-family="Virgil, Segoe UI Emoji" font-size="36px" fill="#1e1e1e" text-anchor="middle" style="white-space: pre;" direction="ltr" dominant-baseline="text-before-edge">E</text></g><g stroke-linecap="round" transform="translate(437.0893382542656 988.9672693213383) rotate(0 254.8425435226032 65.48585483707757)"><path d="M32 0 M32 0 C130.68 -3.03, 229.32 -2.6, 477.69 0 M32 0 C186.75 4.55, 341.42 3.95, 477.69 0 M477.69 0 C501.13 -2.85, 511.86 12.36, 509.69 32 M477.69 0 C501.41 2.73, 514.26 12.31, 509.69 32 M509.69 32 C508.56 49.82, 514.45 73.75, 509.69 98.97 M509.69 32 C508.55 53.4, 507.88 72.99, 509.69 98.97 M509.69 98.97 C509.28 116.47, 500.84 134.04, 477.69 130.97 M509.69 98.97 C505.38 121.58, 502.64 128.97, 477.69 130.97 M477.69 130.97 C367.46 134.48, 259 134.18, 32 130.97 M477.69 130.97 C325.08 127.4, 173.04 126.62, 32 130.97 M32 130.97 C9.65 132.94, 0.93 118.84, 0 98.97 M32 130.97 C8.36 134.03, 4.18 119.04, 0 98.97 M0 98.97 C-2.3 71.16, 0.54 46.9, 0 32 M0 98.97 C0.08 74.99, -2.16 50.3, 0 32 M0 32 C0.15 9.54, 9.73 2.05, 32 0 M0 32 C1.05 8.64, 10.06 3.98, 32 0" stroke="#1e1e1e" stroke-width="4" fill="none"></path></g><g transform="translate(677.7298821125622 1031.953124158416) rotate(0 14.20199966430664 22.5)"><text x="14.20199966430664" y="0" font-family="Virgil, Segoe UI Emoji" font-size="36px" fill="#1e1e1e" text-anchor="middle" style="white-space: pre;" direction="ltr" dominant-baseline="text-before-edge">G</text></g><g stroke-linecap="round" transform="translate(438.66731065997703 231.54051457923822) rotate(0 254.84254352260314 72.5)"><path d="M32 0 M32 0 C173.34 -5.17, 313.21 -3.96, 477.69 0 M477.69 0 C502.9 1.37, 512.13 10.06, 509.69 32 M509.69 32 C512.15 65.41, 508.23 91.44, 509.69 113 M509.69 113 C513.1 138.13, 500.36 147.98, 477.69 145 M477.69 145 C311.13 146.6, 147.89 145.27, 32 145 M32 145 C6.85 142.04, -0.43 135.11, 0 113 M0 113 C3.93 84.79, -0.13 52.6, 0 32 M0 32 C-1.55 9.9, 12.25 2.67, 32 0" stroke="#1e1e1e" stroke-width="4.5" fill="none" stroke-dasharray="8 12"></path></g><g transform="translate(678.7138537019283 236.54051457923822) rotate(0 14.796000480651855 67.5)"><text x="14.796000480651855" y="0" font-family="Virgil, Segoe UI Emoji" font-size="36px" fill="#1e1e1e" text-anchor="middle" style="white-space: pre;" direction="ltr" dominant-baseline="text-before-edge">...</text><text x="14.796000480651855" y="45" font-family="Virgil, Segoe UI Emoji" font-size="36px" fill="#1e1e1e" text-anchor="middle" style="white-space: pre;" direction="ltr" dominant-baseline="text-before-edge">B</text><text x="14.796000480651855" y="90" font-family="Virgil, Segoe UI Emoji" font-size="36px" fill="#1e1e1e" text-anchor="middle" style="white-space: pre;" direction="ltr" dominant-baseline="text-before-edge">...</text></g><g stroke-linecap="round" transform="translate(433.9333934428397 532.9332440703664) rotate(0 254.84254352260314 72.5)"><path d="M32 0 M32 0 C207.49 2.72, 382.89 2.5, 477.69 0 M477.69 0 C500.92 2.66, 511.78 9.08, 509.69 32 M509.69 32 C510.41 58.73, 509.35 84, 509.69 113 M509.69 113 C506.75 132.2, 500.87 146.32, 477.69 145 M477.69 145 C376.62 142.05, 272.71 142.72, 32 145 M32 145 C8.23 144.61, -2.16 132.13, 0 113 M0 113 C2.21 80.07, -3.2 51.61, 0 32 M0 32 C3.28 7.97, 10.67 1.3, 32 0" stroke="#1e1e1e" stroke-width="4.5" fill="none" stroke-dasharray="8 12"></path></g><g transform="translate(673.979936484791 537.9332440703664) rotate(0 14.796000480651855 67.5)"><text x="14.796000480651855" y="0" font-family="Virgil, Segoe UI Emoji" font-size="36px" fill="#1e1e1e" text-anchor="middle" style="white-space: pre;" direction="ltr" dominant-baseline="text-before-edge">...</text><text x="14.796000480651855" y="45" font-family="Virgil, Segoe UI Emoji" font-size="36px" fill="#1e1e1e" text-anchor="middle" style="white-space: pre;" direction="ltr" dominant-baseline="text-before-edge">D</text><text x="14.796000480651855" y="90" font-family="Virgil, Segoe UI Emoji" font-size="36px" fill="#1e1e1e" text-anchor="middle" style="white-space: pre;" direction="ltr" dominant-baseline="text-before-edge">...</text></g><g stroke-linecap="round" transform="translate(437.08933825426504 828.0140839386436) rotate(0 254.84254352260314 72.5)"><path d="M32 0 M32 0 C175.82 2.99, 321.16 3.13, 477.69 0 M477.69 0 C496.82 3.15, 513.3 11.94, 509.69 32 M509.69 32 C508.72 67.01, 506.07 95.47, 509.69 113 M509.69 113 C510.99 135.42, 500.74 145.33, 477.69 145 M477.69 145 C359.55 143.42, 238.91 143.9, 32 145 M32 145 C8.7 141.67, 0.34 132.44, 0 113 M0 113 C0.56 85.83, 4.48 59.29, 0 32 M0 32 C0.52 12.21, 7.96 -1.76, 32 0" stroke="#1e1e1e" stroke-width="4.5" fill="none" stroke-dasharray="8 12"></path></g><g transform="translate(677.1358812962163 833.0140839386436) rotate(0 14.796000480651855 67.5)"><text x="14.796000480651855" y="0" font-family="Virgil, Segoe UI Emoji" font-size="36px" fill="#1e1e1e" text-anchor="middle" style="white-space: pre;" direction="ltr" dominant-baseline="text-before-edge">...</text><text x="14.796000480651855" y="45" font-family="Virgil, Segoe UI Emoji" font-size="36px" fill="#1e1e1e" text-anchor="middle" style="white-space: pre;" direction="ltr" dominant-baseline="text-before-edge">F</text><text x="14.796000480651855" y="90" font-family="Virgil, Segoe UI Emoji" font-size="36px" fill="#1e1e1e" text-anchor="middle" style="white-space: pre;" direction="ltr" dominant-baseline="text-before-edge">...</text></g><g stroke-linecap="round"><g transform="translate(976.4235563433334 97.66694934727599) rotate(0 30.919713810381268 61.160153995655946)"><path d="M-1.54 0.44 C8.24 -0.16, 25.87 3.23, 58.05 3.71 M-1.93 -1.4 C10.65 2.57, 26.7 -0.41, 55.56 4.47 M56.05 2.14 C59.59 49.27, 64.57 98, 58.99 120.14 M56.55 1.54 C59.53 44.39, 63.74 91.11, 60.79 122.88 M62.36 123.72 C42.16 116.97, 15.29 118.66, 0.91 117.99 M63.77 121.68 C44.02 122.82, 23.34 121.97, -0.28 119.6" stroke="#1e1e1e" stroke-width="4" fill="none"></path></g></g><mask></mask><g transform="translate(1061.7295855018933 115.34601701767923) rotate(0 120.14999389648438 45)"><text x="0" y="0" font-family="Virgil, Segoe UI Emoji" font-size="36px" fill="#1e1e1e" text-anchor="start" style="white-space: pre;" direction="ltr" dominant-baseline="text-before-edge">레코드 락</text><text x="0" y="45" font-family="Virgil, Segoe UI Emoji" font-size="36px" fill="#1e1e1e" text-anchor="start" style="white-space: pre;" direction="ltr" dominant-baseline="text-before-edge">(Record Lock)</text></g><g stroke-linecap="round"><g transform="translate(978.9491374391054 535.8552694636971) rotate(0 28.298833969972293 74.06256291388947)"><path d="M1.36 2.03 C19.01 1.65, 38.17 3.47, 57.18 0.54 M0.18 1.82 C15.28 1.05, 27.53 -0.81, 58.71 0.27 M58.53 1.56 C59.18 31.48, 58.48 64.73, 55.31 146.29 M58.9 0.64 C54.56 49.32, 53.88 101.67, 53.93 145.96 M51.05 145.38 C41.14 147.08, 34.29 148.03, -2.3 148.18 M54.43 147.26 C38.58 146.26, 20.31 146.06, -0.88 147.12" stroke="#1e1e1e" stroke-width="4" fill="none"></path></g></g><mask></mask><g transform="translate(1098.9142394882697 571.2134048045034) rotate(0 96.19200134277344 45)"><text x="0" y="0" font-family="Virgil, Segoe UI Emoji" font-size="36px" fill="#1e1e1e" text-anchor="start" style="white-space: pre;" direction="ltr" dominant-baseline="text-before-edge">갭 락</text><text x="0" y="45" font-family="Virgil, Segoe UI Emoji" font-size="36px" fill="#1e1e1e" text-anchor="start" style="white-space: pre;" direction="ltr" dominant-baseline="text-before-edge">(Gap Lock)</text></g><g stroke-linecap="round"><g transform="translate(404.379438151002 400.73668083990265) rotate(0 -41.9883208426366 137.79596908907462)"><path d="M-3.96 -1.41 C-26.12 3.74, -54.1 -2.81, -91.2 -2.23 M-1.08 -1.67 C-25.12 0.2, -52.74 -0.44, -93.7 0.82 M-92.63 -0.23 C-91.03 73.46, -85.86 142.68, -89.82 269.48 M-93.19 0.29 C-90.34 86.05, -87.36 172.91, -88.24 272.5 M-83.83 272.42 C-53.18 270.85, -11.4 268.97, 6.57 277.86 M-89.1 271.56 C-63.55 270.12, -36.92 271.56, 9.72 275.62" stroke="#1e1e1e" stroke-width="4" fill="none"></path></g></g><mask></mask><g transform="translate(10 485.3436475482607) rotate(0 141.156005859375 45)"><text x="282.31201171875" y="0" font-family="Virgil, Segoe UI Emoji" font-size="36px" fill="#1e1e1e" text-anchor="end" style="white-space: pre;" direction="ltr" dominant-baseline="text-before-edge">넥스트 키 락</text><text x="282.31201171875" y="45" font-family="Virgil, Segoe UI Emoji" font-size="36px" fill="#1e1e1e" text-anchor="end" style="white-space: pre;" direction="ltr" dominant-baseline="text-before-edge">(Next Key Lock)</text></g><g stroke-linecap="round"><g transform="translate(386.7757838140691 1201.3138534025056) rotate(0 78.48461864891988 -0.3021234527877823)"><path d="M0.94 -0.92 C51.3 0.91, 95.63 -0.49, 156.29 0.1 M-1.77 -0.24 C61.73 -1.99, 122.57 1.21, 158.74 0.05" stroke="#1e1e1e" stroke-width="4" fill="none"></path></g></g><mask></mask><g stroke-linecap="round"><g transform="translate(389.58796942851166 1262.156150242904) rotate(0 76.68486150171202 0.25603969865119325)"><path d="M-2.04 -2.43 C55.67 4.7, 108.26 3, 155.41 2.09" stroke="#1e1e1e" stroke-width="4.5" fill="none" stroke-dasharray="8 12"></path></g></g><mask></mask><g transform="translate(572.1292852109776 1175.3680648078157) rotate(0 173.70001220703125 22.5)"><text x="347.4000244140625" y="0" font-family="Virgil, Segoe UI Emoji" font-size="36px" fill="#1e1e1e" text-anchor="end" style="white-space: pre;" direction="ltr" dominant-baseline="text-before-edge">실제로 존재하는 레코드</text></g><g transform="translate(569.6866216981731 1248.0162728729479) rotate(0 213.84002685546875 22.5)"><text x="427.6800537109375" y="0" font-family="Virgil, Segoe UI Emoji" font-size="36px" fill="#1e1e1e" text-anchor="end" style="white-space: pre;" direction="ltr" dominant-baseline="text-before-edge">실제로 존재하지 않는 레코드</text></g></svg>