<svg version="1.1" xmlns="http://www.w3.org/2000/svg" viewBox="0 0 928.9950498512569 433.82081938391406" width="1857.9900997025138" height="867.6416387678281">
  <!-- svg-source:excalidraw -->
  
  <defs>
    <style class="style-fonts">
      @font-face {
        font-family: "Virgil";
        src: url("https://excalidraw.com/Virgil.woff2");
      }
      @font-face {
        font-family: "Cascadia";
        src: url("https://excalidraw.com/Cascadia.woff2");
      }
      @font-face {
        font-family: "Assistant";
        src: url("https://excalidraw.com/Assistant-Regular.woff2");
      }
    </style>
    
  </defs>
  <rect x="0" y="0" width="928.9950498512569" height="433.82081938391406" fill="#ffffff"></rect><g stroke-linecap="round" transform="translate(346.4496035785039 146.00594220518673) rotate(0 112.67452137055193 19.11852512091953)"><path d="M225.35 19.12 C225.35 19.78, 225.14 20.45, 224.73 21.12 C224.32 21.78, 223.7 22.44, 222.89 23.09 C222.07 23.75, 221.05 24.39, 219.83 25.03 C218.62 25.66, 217.2 26.29, 215.61 26.89 C214.01 27.5, 212.22 28.1, 210.25 28.68 C208.29 29.25, 206.14 29.82, 203.83 30.36 C201.52 30.9, 199.03 31.42, 196.41 31.91 C193.78 32.41, 190.99 32.88, 188.07 33.33 C185.15 33.77, 182.08 34.19, 178.9 34.59 C175.73 34.98, 172.41 35.34, 169.01 35.68 C165.61 36.01, 162.09 36.31, 158.5 36.58 C154.92 36.86, 151.23 37.1, 147.49 37.3 C143.76 37.51, 139.94 37.68, 136.1 37.82 C132.26 37.96, 128.36 38.06, 124.45 38.13 C120.55 38.2, 116.6 38.24, 112.67 38.24 C108.75 38.24, 104.8 38.2, 100.9 38.13 C96.99 38.06, 93.09 37.96, 89.25 37.82 C85.41 37.68, 81.59 37.51, 77.86 37.3 C74.12 37.1, 70.43 36.86, 66.85 36.58 C63.26 36.31, 59.74 36.01, 56.34 35.68 C52.94 35.34, 49.62 34.98, 46.45 34.59 C43.27 34.19, 40.2 33.77, 37.28 33.33 C34.36 32.88, 31.57 32.41, 28.94 31.91 C26.31 31.42, 23.83 30.9, 21.52 30.36 C19.21 29.82, 17.06 29.25, 15.1 28.68 C13.13 28.1, 11.34 27.5, 9.74 26.89 C8.14 26.29, 6.73 25.66, 5.51 25.03 C4.3 24.39, 3.28 23.75, 2.46 23.09 C1.65 22.44, 1.03 21.78, 0.62 21.12 C0.21 20.45, 0 19.78, 0 19.12 C0 18.45, 0.21 17.78, 0.62 17.12 C1.03 16.46, 1.65 15.8, 2.46 15.14 C3.28 14.49, 4.3 13.84, 5.51 13.21 C6.73 12.58, 8.14 11.95, 9.74 11.34 C11.34 10.73, 13.13 10.14, 15.1 9.56 C17.06 8.98, 19.21 8.42, 21.52 7.88 C23.83 7.34, 26.31 6.82, 28.94 6.33 C31.57 5.83, 34.36 5.36, 37.28 4.91 C40.2 4.46, 43.27 4.04, 46.45 3.65 C49.62 3.26, 52.94 2.89, 56.34 2.56 C59.74 2.23, 63.26 1.92, 66.85 1.65 C70.43 1.38, 74.12 1.14, 77.86 0.94 C81.59 0.73, 85.41 0.56, 89.25 0.42 C93.09 0.28, 96.99 0.17, 100.9 0.1 C104.8 0.04, 108.75 0, 112.67 0 C116.6 0, 120.55 0.04, 124.45 0.1 C128.36 0.17, 132.26 0.28, 136.1 0.42 C139.94 0.56, 143.76 0.73, 147.49 0.94 C151.23 1.14, 154.92 1.38, 158.5 1.65 C162.09 1.92, 165.61 2.23, 169.01 2.56 C172.41 2.89, 175.73 3.26, 178.9 3.65 C182.08 4.04, 185.15 4.46, 188.07 4.91 C190.99 5.36, 193.78 5.83, 196.41 6.33 C199.03 6.82, 201.52 7.34, 203.83 7.88 C206.14 8.42, 208.29 8.98, 210.25 9.56 C212.22 10.14, 214.01 10.73, 215.61 11.34 C217.2 11.95, 218.62 12.58, 219.83 13.21 C221.05 13.84, 222.07 14.49, 222.89 15.14 C223.7 15.8, 224.32 16.46, 224.73 17.12 C225.14 17.78, 225.25 18.79, 225.35 19.12 C225.45 19.45, 225.45 18.79, 225.35 19.12" stroke="#000000" stroke-width="1" fill="none"></path></g><g stroke-linecap="round" transform="translate(346.2402211667418 270.30984380286054) rotate(0 112.8728032556254 21.380021771228215)"><path d="M225.75 21.38 C225.75 22.12, 225.54 22.87, 225.13 23.61 C224.72 24.36, 224.1 25.1, 223.28 25.83 C222.46 26.55, 221.44 27.28, 220.22 27.99 C219.01 28.7, 217.59 29.4, 215.99 30.08 C214.39 30.76, 212.59 31.42, 210.62 32.07 C208.66 32.72, 206.5 33.34, 204.19 33.95 C201.88 34.55, 199.39 35.13, 196.75 35.69 C194.12 36.24, 191.32 36.77, 188.4 37.27 C185.48 37.77, 182.4 38.24, 179.22 38.68 C176.04 39.11, 172.72 39.52, 169.31 39.9 C165.9 40.27, 162.38 40.61, 158.78 40.91 C155.19 41.21, 151.49 41.48, 147.75 41.71 C144.01 41.94, 140.19 42.14, 136.34 42.29 C132.49 42.45, 128.58 42.57, 124.67 42.64 C120.76 42.72, 116.81 42.76, 112.87 42.76 C108.94 42.76, 104.99 42.72, 101.07 42.64 C97.16 42.57, 93.25 42.45, 89.41 42.29 C85.56 42.14, 81.73 41.94, 77.99 41.71 C74.25 41.48, 70.56 41.21, 66.96 40.91 C63.37 40.61, 59.84 40.27, 56.44 39.9 C53.03 39.52, 49.71 39.11, 46.53 38.68 C43.35 38.24, 40.27 37.77, 37.35 37.27 C34.42 36.77, 31.62 36.24, 28.99 35.69 C26.36 35.13, 23.87 34.55, 21.56 33.95 C19.25 33.34, 17.09 32.72, 15.12 32.07 C13.16 31.42, 11.36 30.76, 9.76 30.08 C8.16 29.4, 6.74 28.7, 5.52 27.99 C4.31 27.28, 3.28 26.55, 2.47 25.83 C1.65 25.1, 1.03 24.36, 0.62 23.61 C0.21 22.87, 0 22.12, 0 21.38 C0 20.64, 0.21 19.89, 0.62 19.15 C1.03 18.4, 1.65 17.66, 2.47 16.93 C3.28 16.21, 4.31 15.48, 5.52 14.77 C6.74 14.06, 8.16 13.36, 9.76 12.68 C11.36 12, 13.16 11.34, 15.12 10.69 C17.09 10.04, 19.25 9.42, 21.56 8.81 C23.87 8.21, 26.36 7.63, 28.99 7.07 C31.62 6.52, 34.42 5.99, 37.35 5.49 C40.27 4.99, 43.35 4.52, 46.53 4.08 C49.71 3.65, 53.03 3.24, 56.44 2.86 C59.84 2.49, 63.37 2.15, 66.96 1.85 C70.56 1.55, 74.25 1.28, 77.99 1.05 C81.73 0.82, 85.56 0.62, 89.41 0.47 C93.25 0.31, 97.16 0.19, 101.07 0.12 C104.99 0.04, 108.94 0, 112.87 0 C116.81 0, 120.76 0.04, 124.67 0.12 C128.58 0.19, 132.49 0.31, 136.34 0.47 C140.19 0.62, 144.01 0.82, 147.75 1.05 C151.49 1.28, 155.19 1.55, 158.78 1.85 C162.38 2.15, 165.9 2.49, 169.31 2.86 C172.72 3.24, 176.04 3.65, 179.22 4.08 C182.4 4.52, 185.48 4.99, 188.4 5.49 C191.32 5.99, 194.12 6.52, 196.75 7.07 C199.39 7.63, 201.88 8.21, 204.19 8.81 C206.5 9.42, 208.66 10.04, 210.62 10.69 C212.59 11.34, 214.39 12, 215.99 12.68 C217.59 13.36, 219.01 14.06, 220.22 14.77 C221.44 15.48, 222.46 16.21, 223.28 16.93 C224.1 17.66, 224.72 18.4, 225.13 19.15 C225.54 19.89, 225.64 21.01, 225.75 21.38 C225.85 21.75, 225.85 21.01, 225.75 21.38" stroke="#000000" stroke-width="1" fill="none"></path></g><g stroke-linecap="round" transform="translate(349.31362809143104 255.6652391042674) rotate(0 109.9571328038241 14.175372588109745)"><path d="M0 0 L219.91 0 L219.91 28.35 L0 28.35" stroke="none" stroke-width="0" fill="#fff"></path><path d="M0 0 C67.26 0, 134.52 0, 219.91 0 M0 0 C82.27 0, 164.54 0, 219.91 0 M219.91 0 C219.91 8.03, 219.91 16.07, 219.91 28.35 M219.91 0 C219.91 9.33, 219.91 18.66, 219.91 28.35 M219.91 28.35 C134.85 28.35, 49.78 28.35, 0 28.35 M219.91 28.35 C165.01 28.35, 110.11 28.35, 0 28.35 M0 28.35 C0 20.57, 0 12.79, 0 0 M0 28.35 C0 22.52, 0 16.69, 0 0" stroke="#ffff" stroke-width="4" fill="none"></path></g><g stroke-linecap="round"><g transform="translate(571.6294905871503 161.6018766910341) rotate(0 0.36260044014034065 64.99253638809576)"><path d="M0 0 C0.12 21.66, 0.6 108.32, 0.73 129.99 M0 0 C0.12 21.66, 0.6 108.32, 0.73 129.99" stroke="#000000" stroke-width="1" fill="none"></path></g></g><mask></mask><g stroke-linecap="round"><g transform="translate(346.70725800544346 162.53839452109514) rotate(0 -0.20164259499000536 65.52488147867237)"><path d="M0 0 C-0.07 21.84, -0.34 109.21, -0.4 131.05 M0 0 C-0.07 21.84, -0.34 109.21, -0.4 131.05" stroke="#000000" stroke-width="1" fill="none"></path></g></g><mask></mask><g stroke-linecap="round" transform="translate(10 60.316849629634305) rotate(0 51.25735149187119 44.67383845621799)"><path d="M42.3 0.79 C50.05 -1.18, 60.8 -0.44, 68.76 2.16 C76.73 4.76, 84.73 10.48, 90.08 16.36 C95.44 22.25, 99.34 30.24, 100.88 37.45 C102.41 44.65, 101.95 52.58, 99.29 59.61 C96.64 66.63, 91.52 74.66, 84.95 79.59 C78.38 84.52, 68.27 87.87, 59.87 89.2 C51.47 90.53, 42.64 90.32, 34.56 87.56 C26.47 84.8, 16.83 78.57, 11.35 72.67 C5.87 66.76, 2.97 59.39, 1.68 52.13 C0.39 44.87, 0.86 36.18, 3.61 29.1 C6.36 22.01, 10.92 14.57, 18.19 9.61 C25.46 4.65, 41.65 0.63, 47.21 -0.67 C52.77 -1.97, 51.62 0.84, 51.54 1.82 M38.87 0.22 C46.42 -1.94, 55.99 0.75, 64.34 2.87 C72.69 4.98, 82.88 7.95, 88.96 12.92 C95.04 17.88, 98.98 25.49, 100.81 32.64 C102.63 39.79, 101.96 48.44, 99.91 55.81 C97.87 63.17, 94.61 71.45, 88.51 76.82 C82.42 82.2, 71.93 86.03, 63.36 88.05 C54.78 90.07, 45.32 90.86, 37.05 88.96 C28.78 87.05, 19.83 82.05, 13.73 76.62 C7.64 71.2, 2.61 63.55, 0.49 56.42 C-1.64 49.29, -1.58 41.28, 0.98 33.85 C3.55 26.42, 9.69 17.03, 15.86 11.84 C22.04 6.65, 34.4 4.3, 38.04 2.71 C41.69 1.12, 37.47 1.68, 37.73 2.28" stroke="#1e1e1e" stroke-width="2" fill="none"></path></g><g transform="translate(35.062931810715895 92.4015139718282) rotate(0 25.94999885559082 12.5)"><text x="25.94999885559082" y="0" font-family="Virgil, Segoe UI Emoji" font-size="20px" fill="#1e1e1e" text-anchor="middle" style="white-space: pre;" direction="ltr" dominant-baseline="text-before-edge">발행자</text></g><g stroke-linecap="round"><g transform="translate(197.61437821571917 120.74161828827417) rotate(0 26.894538277203992 -0.0972270980790384)"><path d="M-0.2 -0.6 C8.93 -0.54, 45.4 -0.88, 54.42 -0.77 M-1.76 1.69 C7.3 2.01, 44.64 0.5, 53.81 0.46" stroke="#000000" stroke-width="1" fill="none"></path></g></g><mask></mask><g stroke-linecap="round"><g transform="translate(196.75319289326728 128.6085433584335) rotate(0 26.894538277203992 -0.0972270980790384)"><path d="M0.63 -0.58 C9.65 -0.48, 44.88 0.04, 53.91 0 M-0.49 1.73 C8.39 1.5, 43.85 -1.76, 53.03 -2.01" stroke="#000000" stroke-width="1" fill="none"></path></g></g><mask></mask><g stroke-linecap="round"><g transform="translate(198.07333952625197 138.01839039973507) rotate(0 26.894538277203992 -0.0972270980790384)"><path d="M0.12 0.2 C9.15 0.16, 45.84 -0.62, 54.82 -0.81 M-1.27 -0.74 C7.63 -0.58, 45.3 0.29, 54.41 0.4" stroke="#000000" stroke-width="1" fill="none"></path></g></g><mask></mask><g stroke-linecap="round"><g transform="translate(197.21215420380008 145.88531546989444) rotate(0 26.894538277203992 -0.0972270980790384)"><path d="M1.03 -0.62 C10.01 -0.81, 45.28 -1.11, 54.01 -0.95 M0.11 1.68 C8.94 1.61, 44.46 0.76, 53.18 0.19" stroke="#000000" stroke-width="1" fill="none"></path></g></g><mask></mask><g stroke-linecap="round"><g transform="translate(197.72951556870748 153.79599137683772) rotate(0 26.894538277203992 -0.09722709807903929)"><path d="M0.22 -0.75 C8.96 -0.6, 44.43 0.06, 53.43 0.33 M-1.12 1.47 C7.34 1.32, 43.16 -1.13, 52.29 -1.52" stroke="#000000" stroke-width="1" fill="none"></path></g></g><mask></mask><g stroke-linecap="round"><g transform="translate(196.8683302462556 161.6629164469971) rotate(0 26.894538277203992 -0.09722709807903929)"><path d="M-0.36 0.52 C8.63 0.79, 45.26 1.11, 54.19 0.87 M1.65 -0.25 C10.5 -0.23, 45.04 -0.74, 53.46 -0.7" stroke="#000000" stroke-width="1" fill="none"></path></g></g><mask></mask><g stroke-linecap="round"><g transform="translate(198.18847687924028 171.07276348829862) rotate(0 26.894538277203992 -0.09722709807903929)"><path d="M0.4 1.06 C9.33 0.83, 44.26 -0.7, 53.2 -0.9 M-0.84 0.58 C8.52 0.44, 46.56 0.16, 55.61 0.27" stroke="#000000" stroke-width="1" fill="none"></path></g></g><mask></mask><g stroke-linecap="round"><g transform="translate(197.3272915567884 178.939688558458) rotate(0 26.894538277203992 -0.09722709807903929)"><path d="M-0.59 -0.71 C8.36 -0.91, 44.96 -0.03, 54.06 -0.14 M1.31 1.54 C10.08 2.06, 44.58 1.79, 53.26 1.42" stroke="#000000" stroke-width="1" fill="none"></path></g></g><mask></mask><g stroke-linecap="round"><g transform="translate(190.20050183234287 110.38943394193178) rotate(0 0.5276568771079724 39.83191827168494)"><path d="M0.27 0.05 C0.59 13.25, 0.97 65.29, 1.29 78.51 M-1.04 -0.97 C-0.82 12.4, -0.05 65.86, 0.47 79.44" stroke="#000000" stroke-width="1" fill="none"></path></g></g><mask></mask><g stroke-linecap="round"><g transform="translate(191.69741636959714 189.38249445111626) rotate(0 33.987440360568996 0.08222157568250488)"><path d="M0.24 -1.16 C11.72 -1.19, 58.04 -0.26, 69.15 -0.14 M-1.1 0.85 C10.3 0.99, 57.1 1.28, 68.82 1.23" stroke="#000000" stroke-width="1" fill="none"></path></g></g><mask></mask><g stroke-linecap="round"><g transform="translate(260.48916488209284 190.4631906810279) rotate(0 -0.10831666098988535 -37.115979798736035)"><path d="M1.18 -0.31 C0.92 -12.59, -0.9 -62.62, -1.3 -74.85 M0.33 -1.52 C0.41 -13.55, 0.71 -61.26, 0.84 -73.63" stroke="#000000" stroke-width="1" fill="none"></path></g></g><mask></mask><g stroke-linecap="round"><g transform="translate(260.26677638915316 116.22713188159857) rotate(0 -4.75605156360615 -4.260183861941542)"><path d="M-0.32 -0.18 C-2.02 -1.56, -8.34 -7, -9.81 -8.36 M0.16 0.49 C-1.46 -0.99, -7.61 -7.33, -9.17 -8.91" stroke="#000000" stroke-width="1" fill="none"></path></g></g><mask></mask><g stroke-linecap="round"><g transform="translate(252.55528165545934 107.69537597744349) rotate(0 -30.872963085407605 1.500246835534135)"><path d="M-1.02 0.53 C-10.94 1.23, -50.6 3.16, -60.58 3.61 M0.64 -0.24 C-9.23 0.17, -50.61 0.99, -60.91 1.8" stroke="#000000" stroke-width="1" fill="none"></path></g></g><mask></mask><g stroke-linecap="round"><g transform="translate(200.3999025879574 238.998422808089) rotate(0 26.894538277203992 -0.0972270980790384)"><path d="M1.05 0.21 C9.97 -0.04, 44.79 -1.09, 53.62 -1.06 M0.14 -0.73 C8.88 -0.89, 43.71 0.17, 52.59 0.02" stroke="#000000" stroke-width="1" fill="none"></path></g></g><mask></mask><g stroke-linecap="round"><g transform="translate(199.5387172655054 246.86534787824837) rotate(0 26.894538277203992 -0.0972270980790384)"><path d="M-0.16 -0.86 C8.67 -0.83, 44.89 0.09, 54.05 0.4 M-1.71 1.3 C6.9 0.96, 43.86 -1.07, 53.24 -1.4" stroke="#000000" stroke-width="1" fill="none"></path></g></g><mask></mask><g stroke-linecap="round"><g transform="translate(200.85886389849009 256.2751949195499) rotate(0 26.894538277203992 -0.0972270980790384)"><path d="M0.26 0.6 C9.42 0.91, 46.03 1.25, 54.8 1 M-1.06 -0.13 C8.05 -0.05, 44.99 -0.52, 54.38 -0.5" stroke="#000000" stroke-width="1" fill="none"></path></g></g><mask></mask><g stroke-linecap="round"><g transform="translate(199.99767857603808 264.1421199897093) rotate(0 26.894538277203992 -0.0972270980790384)"><path d="M1.01 1.19 C9.77 0.94, 43.99 -0.87, 52.85 -0.92 M0.08 0.77 C9.19 0.61, 46.14 0.51, 55.06 0.24" stroke="#000000" stroke-width="1" fill="none"></path></g></g><mask></mask><g stroke-linecap="round"><g transform="translate(200.5150399409457 272.0527958966526) rotate(0 26.894538277203992 -0.0972270980790384)"><path d="M-0.94 -0.73 C7.92 -0.77, 45.15 0.72, 54.16 0.91 M0.76 1.51 C9.41 1.66, 44.87 -0.11, 53.41 -0.63" stroke="#000000" stroke-width="1" fill="none"></path></g></g><mask></mask><g stroke-linecap="round"><g transform="translate(199.6538546184937 279.9197209668119) rotate(0 26.894538277203992 -0.0972270980790384)"><path d="M0.37 1.11 C9.38 1.3, 44.39 0.65, 53.12 0.42 M-0.89 0.64 C8.6 0.55, 46.14 -1.44, 55.48 -1.38" stroke="#000000" stroke-width="1" fill="none"></path></g></g><mask></mask><g stroke-linecap="round"><g transform="translate(200.9740012514784 289.3295680081135) rotate(0 26.894538277203992 -0.0972270980790384)"><path d="M-0.67 0.62 C8.06 0.39, 43.67 -0.32, 52.76 -0.27 M1.18 -0.11 C10.24 0.37, 46.28 1.35, 54.93 1.23" stroke="#000000" stroke-width="1" fill="none"></path></g></g><mask></mask><g stroke-linecap="round"><g transform="translate(200.1128159290264 297.19649307827285) rotate(0 26.894538277203992 -0.0972270980790455)"><path d="M-1.03 -0.07 C8.06 -0.02, 44.76 0.88, 53.85 0.93 M0.63 -1.16 C9.63 -1.47, 44.27 -0.48, 52.93 -0.6" stroke="#000000" stroke-width="1" fill="none"></path></g></g><mask></mask><g stroke-linecap="round"><g transform="translate(192.98602620458098 228.64623846174663) rotate(0 0.5276568771079724 39.83191827168495)"><path d="M0.06 1.12 C0.36 14.48, 0.66 67.14, 0.78 80.07 M-1.37 0.67 C-1.16 13.66, -0.52 65.03, -0.32 78.17" stroke="#000000" stroke-width="1" fill="none"></path></g></g><mask></mask><g stroke-linecap="round"><g transform="translate(194.48294074183525 307.6392989709311) rotate(0 33.987440360568996 0.0822215756825102)"><path d="M-0.28 0.41 C10.99 0.09, 56.26 -0.74, 67.67 -0.8 M1.77 -0.42 C12.85 -0.11, 55.61 -0.05, 66.57 0.22" stroke="#000000" stroke-width="1" fill="none"></path></g></g><mask></mask><g stroke-linecap="round"><g transform="translate(263.27468925433084 308.71999520084273) rotate(0 -0.10831666098988535 -37.115979798736035)"><path d="M-0.3 -0.97 C-0.26 -13.43, -0.19 -62.02, -0.01 -74.38 M1.74 1.14 C1.67 -11.17, -0.64 -60.35, -0.85 -72.92" stroke="#000000" stroke-width="1" fill="none"></path></g></g><mask></mask><g stroke-linecap="round"><g transform="translate(263.0523007613914 234.48393640141342) rotate(0 -4.75605156360615 -4.260183861941542)"><path d="M0.06 -0.04 C-1.46 -1.46, -7.62 -7.36, -9.22 -8.79 M-0.34 -0.37 C-1.87 -1.73, -7.78 -7.16, -9.35 -8.48" stroke="#000000" stroke-width="1" fill="none"></path></g></g><mask></mask><g stroke-linecap="round"><g transform="translate(255.34080602769734 225.95218049725833) rotate(0 -30.872963085407605 1.500246835534135)"><path d="M0.97 -0.91 C-9.37 -0.44, -51.21 1.92, -61.85 2.67 M0.03 1.23 C-10.5 1.89, -52.76 3.98, -62.85 4.04" stroke="#000000" stroke-width="1" fill="none"></path></g></g><mask></mask><g stroke-linecap="round"><g transform="translate(699.8063914353629 82.875113676885) rotate(0 26.894538277203992 -0.0972270980790384)"><path d="M-0.81 0.98 C7.97 0.7, 43.93 -0.28, 52.95 -0.62 M0.96 0.45 C10.1 0.85, 46.67 0.8, 55.22 0.69" stroke="#000000" stroke-width="1" fill="none"></path></g></g><mask></mask><g stroke-linecap="round"><g transform="translate(698.9452061129109 90.74203874704436) rotate(0 26.894538277203992 -0.0972270980790384)"><path d="M-0.84 -0.43 C8.17 -0.77, 44.06 -1.24, 53.28 -1.05 M0.92 -1.7 C9.8 -1.99, 43.21 -0.05, 52.07 0.04" stroke="#000000" stroke-width="1" fill="none"></path></g></g><mask></mask><g stroke-linecap="round"><g transform="translate(700.2653527458956 100.1518857883459) rotate(0 26.894538277203992 -0.0972270980790384)"><path d="M-0.51 -0.85 C8.72 -0.66, 45.32 0.76, 54.49 0.73 M1.43 1.32 C10.63 1.22, 45.13 -0.67, 53.9 -0.9" stroke="#000000" stroke-width="1" fill="none"></path></g></g><mask></mask><g stroke-linecap="round"><g transform="translate(699.404167423444 108.01881085850526) rotate(0 26.894538277203992 -0.0972270980790384)"><path d="M0.7 0.93 C9.86 0.9, 45.52 -0.72, 54.48 -1.01 M-0.4 0.37 C8.72 0.55, 44.82 0.13, 53.89 0.1" stroke="#000000" stroke-width="1" fill="none"></path></g></g><mask></mask><g stroke-linecap="round"><g transform="translate(699.9215287883512 115.92948676544856) rotate(0 26.894538277203992 -0.0972270980790384)"><path d="M0.69 -0.81 C9.65 -1.1, 45.78 -0.96, 54.44 -0.78 M-0.41 1.37 C8.39 1.16, 44.6 0.98, 53.84 0.45" stroke="#000000" stroke-width="1" fill="none"></path></g></g><mask></mask><g stroke-linecap="round"><g transform="translate(699.0603434658992 123.79641183560791) rotate(0 26.894538277203992 -0.0972270980790384)"><path d="M0.65 -0.59 C9.32 -0.41, 43.98 0.08, 52.69 0.25 M-0.46 1.72 C8.5 1.6, 45.53 -1.09, 54.82 -1.63" stroke="#000000" stroke-width="1" fill="none"></path></g></g><mask></mask><g stroke-linecap="round"><g transform="translate(700.3804900988839 133.2062588769095) rotate(0 26.894538277203992 -0.0972270980790384)"><path d="M-1.1 0.45 C7.6 0.62, 43.84 0.69, 52.88 0.45 M0.52 -0.36 C9.54 -0.49, 46.54 -1.38, 55.11 -1.33" stroke="#000000" stroke-width="1" fill="none"></path></g></g><mask></mask><g stroke-linecap="round"><g transform="translate(699.5193047764324 141.07318394706883) rotate(0 26.894538277203992 -0.0972270980790384)"><path d="M-0.91 0.64 C8.13 0.41, 43.94 -0.84, 53.11 -0.98 M0.81 -0.06 C10.34 -0.2, 46.68 -0.05, 55.47 0.14" stroke="#000000" stroke-width="1" fill="none"></path></g></g><mask></mask><g stroke-linecap="round"><g transform="translate(692.3925150519867 72.52292933054262) rotate(0 0.5276568771080292 39.83191827168494)"><path d="M-0.68 -0.79 C-0.29 12.38, 1.21 66.11, 1.4 79.63 M1.17 1.41 C1.5 14.72, 0.93 68.33, 0.64 81.15" stroke="#000000" stroke-width="1" fill="none"></path></g></g><mask></mask><g stroke-linecap="round"><g transform="translate(693.889429589241 151.51598983972713) rotate(0 33.98744036056894 0.08222157568250488)"><path d="M0.35 -0.03 C11.7 0.24, 55.97 0.94, 67.41 0.85 M-0.93 -1.1 C10.27 -1.1, 54.55 -1.15, 66.17 -0.91" stroke="#000000" stroke-width="1" fill="none"></path></g></g><mask></mask><g stroke-linecap="round"><g transform="translate(762.6811781017368 152.59668606963874) rotate(0 -0.10831666098988535 -37.115979798736035)"><path d="M-0.56 0.68 C-0.48 -11.81, 0.6 -62.47, 0.82 -74.99 M1.35 0 C1.33 -12.35, 0.55 -61.64, 0.42 -73.84" stroke="#000000" stroke-width="1" fill="none"></path></g></g><mask></mask><g stroke-linecap="round"><g transform="translate(762.4587896087969 78.3606272702094) rotate(0 -4.756051563606093 -4.260183861941542)"><path d="M0.31 -0.22 C-1.2 -1.69, -7.56 -7.18, -9.22 -8.58 M0.04 0.43 C-1.48 -1, -7.69 -6.71, -9.34 -8.16" stroke="#000000" stroke-width="1" fill="none"></path></g></g><mask></mask><g stroke-linecap="round"><g transform="translate(754.7472948751029 69.82887136605432) rotate(0 -30.872963085407605 1.500246835534135)"><path d="M1 -0.21 C-9.52 0.36, -51.71 2.07, -62.09 2.67 M0.07 -1.36 C-10.73 -0.55, -52.9 3.6, -63.22 4.04" stroke="#000000" stroke-width="1" fill="none"></path></g></g><mask></mask><g stroke-linecap="round"><g transform="translate(657.4838076347351 188.2113222473359) rotate(0 26.894538277203992 -0.0972270980790384)"><path d="M-0.04 1.16 C8.64 1.3, 44.01 1.25, 52.96 0.88 M-1.52 0.72 C7.47 0.55, 46.18 -0.53, 55.23 -0.67" stroke="#000000" stroke-width="1" fill="none"></path></g></g><mask></mask><g stroke-linecap="round"><g transform="translate(656.622622312283 196.07824731749525) rotate(0 26.894538277203992 -0.0972270980790384)"><path d="M-0.83 1.08 C8.11 0.71, 44.68 -0.67, 53.64 -1.03 M0.93 0.6 C9.71 0.87, 43.54 0.21, 52.62 0.07" stroke="#000000" stroke-width="1" fill="none"></path></g></g><mask></mask><g stroke-linecap="round"><g transform="translate(657.9427689452677 205.4880943587968) rotate(0 26.894538277203992 -0.0972270980790384)"><path d="M-0.15 -0.84 C8.82 -1.2, 43.85 -1.31, 52.96 -1.1 M-1.68 1.34 C7.73 1.62, 45.94 0.46, 55.23 -0.03" stroke="#000000" stroke-width="1" fill="none"></path></g></g><mask></mask><g stroke-linecap="round"><g transform="translate(657.0815836228162 213.35501942895615) rotate(0 26.894538277203992 -0.0972270980790384)"><path d="M-0.83 -0.9 C8.27 -0.69, 45.19 0.16, 54.46 0.41 M0.93 1.24 C9.95 1.17, 44.93 -0.97, 53.87 -1.39" stroke="#000000" stroke-width="1" fill="none"></path></g></g><mask></mask><g stroke-linecap="round"><g transform="translate(657.5989449877234 221.26569533589944) rotate(0 26.894538277203992 -0.0972270980790384)"><path d="M0.67 0.61 C9.95 0.87, 45.86 0.7, 54.79 0.65 M-0.43 -0.12 C8.84 -0.11, 45.33 -0.76, 54.37 -1.03" stroke="#000000" stroke-width="1" fill="none"></path></g></g><mask></mask><g stroke-linecap="round"><g transform="translate(656.7377596652714 229.13262040605878) rotate(0 26.894538277203992 -0.0972270980790384)"><path d="M1 0.84 C9.94 0.79, 45.58 0.41, 54.29 0.3 M0.07 0.24 C8.84 -0.23, 44.91 -1.19, 53.61 -1.56" stroke="#000000" stroke-width="1" fill="none"></path></g></g><mask></mask><g stroke-linecap="round"><g transform="translate(658.0579062982561 238.54246744736034) rotate(0 26.894538277203992 -0.0972270980790384)"><path d="M0.5 0.5 C9.22 0.39, 44.52 0.24, 53.28 0.18 M-0.69 -0.29 C7.73 -0.85, 42.68 -1.46, 52.06 -1.74" stroke="#000000" stroke-width="1" fill="none"></path></g></g><mask></mask><g stroke-linecap="round"><g transform="translate(657.1967209758045 246.4093925175197) rotate(0 26.894538277203992 -0.0972270980790384)"><path d="M-0.51 0.38 C8.25 0.32, 43.88 0.14, 53.08 0.16 M1.42 -0.47 C10.53 -0.94, 46.59 -1.61, 55.43 -1.78" stroke="#000000" stroke-width="1" fill="none"></path></g></g><mask></mask><g stroke-linecap="round"><g transform="translate(650.0699312513589 177.85913790099352) rotate(0 0.5276568771080292 39.83191827168494)"><path d="M-0.7 0.35 C-0.29 13.68, 1.87 66.97, 1.97 80.36 M1.13 -0.51 C1.51 12.45, 1.32 65.37, 1.51 78.6" stroke="#000000" stroke-width="1" fill="none"></path></g></g><mask></mask><g stroke-linecap="round"><g transform="translate(651.5668457886131 256.852198410178) rotate(0 33.98744036056894 0.0822215756825031)"><path d="M0.92 0.7 C12.18 0.84, 55.83 1.4, 66.85 1.2 M-0.06 0.02 C11.61 -0.19, 57.39 -0.45, 68.97 -0.38" stroke="#000000" stroke-width="1" fill="none"></path></g></g><mask></mask><g stroke-linecap="round"><g transform="translate(720.358594301109 257.9328946400896) rotate(0 -0.10831666098988535 -37.115979798736035)"><path d="M-1.13 1.04 C-1.47 -11.57, -1.41 -62.43, -1.17 -74.92 M0.48 0.54 C0.42 -11.98, 1.15 -61.58, 1.04 -73.74" stroke="#000000" stroke-width="1" fill="none"></path></g></g><mask></mask><g stroke-linecap="round"><g transform="translate(720.136205808169 183.6968358406603) rotate(0 -4.756051563606093 -4.260183861941542)"><path d="M-0.28 -0.2 C-1.79 -1.66, -7.77 -7.05, -9.35 -8.42 M0.22 0.46 C-1.29 -0.95, -8 -7.59, -9.55 -9" stroke="#000000" stroke-width="1" fill="none"></path></g></g><mask></mask><g stroke-linecap="round"><g transform="translate(712.424711074475 175.1650799365052) rotate(0 -30.872963085407605 1.500246835534135)"><path d="M0.54 0.32 C-9.74 0.98, -52.29 2.81, -62.62 3.27 M-0.63 -0.55 C-10.45 -0.21, -50.13 0.45, -60.37 1.29" stroke="#000000" stroke-width="1" fill="none"></path></g></g><mask></mask><g stroke-linecap="round"><g transform="translate(715.7949230933777 311.4170662002741) rotate(0 26.894538277203992 -0.0972270980790455)"><path d="M-0.23 -0.52 C8.62 -0.34, 44.28 0.54, 53.45 0.54 M-1.81 1.83 C6.83 1.7, 42.93 -1, 52.33 -1.2" stroke="#000000" stroke-width="1" fill="none"></path></g></g><mask></mask><g stroke-linecap="round"><g transform="translate(714.9337377709257 319.2839912704335) rotate(0 26.894538277203992 -0.0972270980790455)"><path d="M-0.33 0.73 C8.84 0.73, 45.79 -0.38, 54.83 -0.54 M1.69 0.07 C10.82 0.29, 45.85 0.65, 54.42 0.82" stroke="#000000" stroke-width="1" fill="none"></path></g></g><mask></mask><g stroke-linecap="round"><g transform="translate(716.2538844039104 328.693838311735) rotate(0 26.894538277203992 -0.0972270980790455)"><path d="M1.04 -0.34 C10.07 -0.5, 44.87 -0.18, 53.86 -0.2 M0.12 -1.56 C9.03 -1.58, 43.84 0.96, 52.95 1.34" stroke="#000000" stroke-width="1" fill="none"></path></g></g><mask></mask><g stroke-linecap="round"><g transform="translate(715.3926990814589 336.5607633818944) rotate(0 26.894538277203992 -0.0972270980790455)"><path d="M0.07 0 C9.06 -0.02, 46.21 -0.37, 54.97 -0.45 M-1.35 -1.05 C7.5 -0.85, 45.27 0.67, 54.64 0.95" stroke="#000000" stroke-width="1" fill="none"></path></g></g><mask></mask><g stroke-linecap="round"><g transform="translate(715.9100604463661 344.4714392888377) rotate(0 26.894538277203992 -0.0972270980790455)"><path d="M1.18 -0.26 C9.94 -0.34, 43.82 -0.52, 52.63 -0.51 M0.34 -1.44 C9.45 -1.35, 45.89 0.44, 54.73 0.86" stroke="#000000" stroke-width="1" fill="none"></path></g></g><mask></mask><g stroke-linecap="round"><g transform="translate(715.0488751239141 352.33836435899707) rotate(0 26.894538277203992 -0.0972270980790455)"><path d="M-1.16 -0.32 C7.64 -0.31, 44.87 -0.08, 54.02 -0.21 M0.43 -1.53 C8.99 -1.3, 44.44 1.1, 53.19 1.32" stroke="#000000" stroke-width="1" fill="none"></path></g></g><mask></mask><g stroke-linecap="round"><g transform="translate(716.3690217568987 361.7482114002986) rotate(0 26.894538277203992 -0.0972270980790455)"><path d="M0.23 -0.02 C9.37 -0.15, 44.77 -1.06, 53.71 -1.09 M-1.11 -1.07 C7.97 -1.05, 43.67 -0.38, 52.72 -0.03" stroke="#000000" stroke-width="1" fill="none"></path></g></g><mask></mask><g stroke-linecap="round"><g transform="translate(715.5078364344472 369.61513647045797) rotate(0 26.894538277203992 -0.0972270980790455)"><path d="M-0.08 -0.9 C8.86 -0.93, 44.97 -0.23, 53.87 -0.23 M-1.58 1.24 C7.19 1.41, 43.98 1.48, 52.97 1.29" stroke="#000000" stroke-width="1" fill="none"></path></g></g><mask></mask><g stroke-linecap="round"><g transform="translate(708.3810467100016 301.06488185393175) rotate(0 0.5276568771080292 39.83191827168494)"><path d="M0.08 -0.04 C0.2 13.27, 0.5 65.51, 0.62 78.96 M-1.33 -1.1 C-1.41 12.43, -0.76 66.8, -0.56 80.13" stroke="#000000" stroke-width="1" fill="none"></path></g></g><mask></mask><g stroke-linecap="round"><g transform="translate(709.8779612472558 380.05794236311624) rotate(0 33.98744036056894 0.0822215756825102)"><path d="M-0.44 -0.71 C10.83 -0.51, 56.18 0.9, 67.69 1.15 M1.53 1.54 C12.61 1.42, 55.48 0, 66.59 -0.46" stroke="#000000" stroke-width="1" fill="none"></path></g></g><mask></mask><g stroke-linecap="round"><g transform="translate(778.6697097597516 381.13863859302785) rotate(0 -0.10831666098988535 -37.115979798736035)"><path d="M-0.28 0.99 C-0.13 -11.16, 0.45 -60.88, 0.46 -73.6 M1.77 0.46 C1.86 -11.98, 0.33 -62.88, -0.13 -75.39" stroke="#000000" stroke-width="1" fill="none"></path></g></g><mask></mask><g stroke-linecap="round"><g transform="translate(778.4473212668117 306.90257979359853) rotate(0 -4.756051563606093 -4.260183861941542)"><path d="M0.2 0.19 C-1.37 -1.34, -7.94 -7.42, -9.52 -8.85 M-0.13 -0.02 C-1.74 -1.54, -8.26 -7.07, -9.8 -8.57" stroke="#000000" stroke-width="1" fill="none"></path></g></g><mask></mask><g stroke-linecap="round"><g transform="translate(770.7358265331177 298.37082388944344) rotate(0 -30.872963085407605 1.500246835534142)"><path d="M-0.02 -1.12 C-10.28 -0.66, -50.41 2.58, -60.89 3.4 M-1.48 0.91 C-11.89 0.95, -51.53 1.33, -61.39 1.49" stroke="#000000" stroke-width="1" fill="none"></path></g></g><mask></mask><g stroke-linecap="round" transform="translate(20.815771415715858 285.5670456351974) rotate(0 51.25735149187119 44.67383845621799)"><path d="M75.34 6.23 C83.01 8.87, 90.31 14.12, 94.91 20.41 C99.51 26.7, 102.72 36.49, 102.96 43.97 C103.2 51.44, 100.35 58.9, 96.35 65.26 C92.35 71.63, 86.3 78.29, 78.98 82.18 C71.66 86.06, 60.96 88.2, 52.44 88.56 C43.92 88.92, 35.4 87.62, 27.85 84.34 C20.3 81.06, 11.73 75.36, 7.16 68.88 C2.59 62.4, 0.69 53.11, 0.42 45.47 C0.14 37.83, 1.45 29.38, 5.5 23.05 C9.55 16.72, 17.25 11.2, 24.72 7.51 C32.19 3.83, 40.84 0.7, 50.33 0.96 C59.81 1.22, 75.48 6.89, 81.63 9.06 C87.79 11.23, 87.75 13.35, 87.23 13.96 M35.32 3.04 C42.9 0.11, 54.97 -1.9, 63.17 -0.32 C71.37 1.26, 78.33 7.34, 84.54 12.52 C90.74 17.7, 97.56 23.86, 100.4 30.77 C103.24 37.68, 103.47 46.75, 101.6 53.96 C99.73 61.17, 94.99 68.42, 89.2 74.04 C83.41 79.66, 74.84 85.44, 66.86 87.68 C58.88 89.93, 49.79 89.35, 41.33 87.5 C32.87 85.66, 22.52 81.46, 16.11 76.6 C9.7 71.74, 5.54 65.4, 2.88 58.35 C0.22 51.31, -1.79 41.79, 0.13 34.33 C2.05 26.87, 8.67 19.2, 14.42 13.6 C20.16 8, 31.2 2.33, 34.61 0.73 C38.01 -0.87, 34.64 3.11, 34.86 4.02" stroke="#1e1e1e" stroke-width="2" fill="none"></path></g><g transform="translate(45.87870322643175 317.6517099773913) rotate(0 25.94999885559082 12.5)"><text x="25.94999885559082" y="0" font-family="Virgil, Segoe UI Emoji" font-size="20px" fill="#1e1e1e" text-anchor="middle" style="white-space: pre;" direction="ltr" dominant-baseline="text-before-edge">발행자</text></g><g stroke-linecap="round" transform="translate(809.8968338318612 10) rotate(0 51.25735149187119 44.67383845621799)"><path d="M51.83 1 C59.79 0.38, 69.16 2.78, 76.55 6.45 C83.93 10.12, 91.92 16.63, 96.11 23.01 C100.31 29.39, 101.7 37.29, 101.7 44.74 C101.7 52.19, 100.19 61.38, 96.12 67.71 C92.04 74.03, 84.87 78.99, 77.24 82.71 C69.61 86.43, 58.94 89.86, 50.32 90.02 C41.7 90.18, 32.74 87.51, 25.52 83.66 C18.29 79.82, 11.25 73.36, 6.96 66.95 C2.66 60.53, -0.35 52.74, -0.26 45.18 C-0.17 37.62, 2.99 27.98, 7.49 21.58 C11.99 15.19, 18.69 10.31, 26.75 6.83 C34.81 3.34, 50.49 1.72, 55.86 0.66 C61.23 -0.4, 59.21 -0.28, 58.95 0.48 M38.31 1.48 C45.49 -1.27, 54.26 -0.52, 62.56 1.24 C70.86 3, 81.69 6.81, 88.13 12.03 C94.56 17.26, 98.89 25.37, 101.18 32.61 C103.46 39.84, 103.9 48.29, 101.84 55.42 C99.79 62.56, 95.11 70.16, 88.85 75.42 C82.59 80.68, 72.88 85.11, 64.28 86.98 C55.68 88.86, 45.46 88.6, 37.26 86.68 C29.06 84.75, 20.8 80.4, 15.07 75.44 C9.35 70.48, 5.27 63.66, 2.91 56.9 C0.55 50.14, -0.92 42.15, 0.89 34.88 C2.7 27.6, 7.66 18.79, 13.8 13.26 C19.94 7.73, 33.95 3.64, 37.73 1.68 C41.51 -0.29, 36.12 0.79, 36.47 1.48" stroke="#1e1e1e" stroke-width="2" fill="none"></path></g><g transform="translate(834.9597656425769 42.08466434219389) rotate(0 25.94999885559082 12.5)"><text x="25.94999885559082" y="0" font-family="Virgil, Segoe UI Emoji" font-size="20px" fill="#1e1e1e" text-anchor="middle" style="white-space: pre;" direction="ltr" dominant-baseline="text-before-edge">구독자</text></g><g stroke-linecap="round" transform="translate(811.7778375563337 334.47314247147807) rotate(0 51.25735149187119 44.67383845621799)"><path d="M46.96 -0.59 C55.08 -1.74, 66.52 0.9, 74.48 4.43 C82.43 7.96, 90.18 14.54, 94.7 20.6 C99.22 26.65, 101.32 33.41, 101.6 40.78 C101.89 48.15, 100.12 57.96, 96.42 64.8 C92.72 71.64, 86.38 77.81, 79.41 81.85 C72.44 85.88, 62.89 88.42, 54.59 89 C46.29 89.59, 37.2 88.62, 29.63 85.35 C22.05 82.08, 14.08 75.69, 9.15 69.4 C4.21 63.12, 0.7 55.15, 0.01 47.64 C-0.69 40.13, 1.1 31.13, 4.96 24.32 C8.83 17.51, 15.38 10.73, 23.2 6.75 C31.02 2.78, 46.37 1.29, 51.86 0.47 C57.34 -0.35, 56.3 1.33, 56.13 1.85 M59.01 1.36 C66.71 1.48, 74.61 3.86, 81.2 8.07 C87.79 12.28, 94.92 19.28, 98.56 26.61 C102.21 33.93, 104.3 44.59, 103.06 52.02 C101.82 59.44, 96.43 65.32, 91.13 71.14 C85.83 76.96, 79.2 84.01, 71.27 86.94 C63.35 89.86, 52.03 90.06, 43.59 88.7 C35.15 87.35, 27.43 83.16, 20.62 78.79 C13.81 74.41, 5.89 68.93, 2.75 62.46 C-0.4 55.99, 0.38 47.73, 1.75 39.99 C3.13 32.25, 6.21 22.25, 10.98 16 C15.75 9.76, 22.79 5, 30.39 2.52 C38 0.03, 51.99 1.26, 56.62 1.1 C61.24 0.95, 58.02 1.15, 58.16 1.57" stroke="#1e1e1e" stroke-width="2" fill="none"></path></g><g transform="translate(836.8407693670495 366.55780681367196) rotate(0 25.94999885559082 12.5)"><text x="25.94999885559082" y="0" font-family="Virgil, Segoe UI Emoji" font-size="20px" fill="#1e1e1e" text-anchor="middle" style="white-space: pre;" direction="ltr" dominant-baseline="text-before-edge">구독자</text></g><g stroke-linecap="round" transform="translate(816.4803468675143 169.88531658014864) rotate(0 51.25735149187119 44.67383845621799)"><path d="M75.01 4.63 C82.52 7.19, 89.01 13.59, 93.54 19.67 C98.06 25.75, 101.54 33.63, 102.14 41.1 C102.73 48.57, 100.77 57.74, 97.1 64.48 C93.43 71.22, 87.18 77.47, 80.12 81.54 C73.06 85.61, 63.43 88.41, 54.76 88.88 C46.09 89.36, 35.93 87.73, 28.1 84.39 C20.28 81.05, 12.64 75.11, 7.81 68.84 C2.97 62.57, -0.64 54.16, -0.89 46.74 C-1.14 39.33, 2.32 30.94, 6.28 24.34 C10.25 17.74, 15.77 11.29, 22.9 7.15 C30.03 3.01, 40.15 -0.26, 49.07 -0.51 C57.99 -0.76, 71.32 4.22, 76.44 5.66 C81.56 7.11, 80.12 7.58, 79.81 8.18 M27.74 5.59 C34.71 1.44, 44.96 -1.43, 53.36 -1.16 C61.76 -0.88, 71.18 3.01, 78.14 7.24 C85.11 11.46, 91.02 17.52, 95.13 24.22 C99.23 30.91, 102.63 39.92, 102.79 47.4 C102.95 54.88, 100.79 62.8, 96.07 69.11 C91.35 75.43, 82.28 81.91, 74.46 85.29 C66.64 88.68, 57.34 89.65, 49.15 89.43 C40.96 89.21, 32.68 87.71, 25.32 83.98 C17.95 80.25, 9.39 74, 4.97 67.05 C0.55 60.1, -1.8 49.8, -1.2 42.27 C-0.61 34.73, 3.63 28, 8.56 21.83 C13.49 15.66, 25.21 7.88, 28.38 5.25 C31.54 2.61, 27.49 5.36, 27.54 6.03" stroke="#1e1e1e" stroke-width="2" fill="none"></path></g><g transform="translate(841.5432786782301 201.96998092234253) rotate(0 25.94999885559082 12.5)"><text x="25.94999885559082" y="0" font-family="Virgil, Segoe UI Emoji" font-size="20px" fill="#1e1e1e" text-anchor="middle" style="white-space: pre;" direction="ltr" dominant-baseline="text-before-edge">구독자</text></g><g stroke-linecap="round"><g transform="translate(113.45520484597853 113.9254557770966) rotate(0 112.86022346834022 48.435845905162665)"><path d="M0.63 0.73 C37.95 16.91, 187.14 80.99, 224.64 96.96 M-0.51 0.06 C37.11 16.47, 189.23 82.26, 226.79 98.54" stroke="#1e1e1e" stroke-width="2" fill="none"></path></g><g transform="translate(113.45520484597853 113.9254557770966) rotate(0 112.86022346834022 48.435845905162665)"><path d="M201.83 97.05 C212.02 95.66, 219.94 97.84, 226.79 98.54 M201.83 97.05 C209.15 97.38, 215.39 97.21, 226.79 98.54" stroke="#1e1e1e" stroke-width="2" fill="none"></path></g><g transform="translate(113.45520484597853 113.9254557770966) rotate(0 112.86022346834022 48.435845905162665)"><path d="M208.63 81.36 C216.35 85.65, 221.82 93.48, 226.79 98.54 M208.63 81.36 C213.95 86.03, 218.32 90.17, 226.79 98.54" stroke="#1e1e1e" stroke-width="2" fill="none"></path></g></g><mask></mask><g stroke-linecap="round"><g transform="translate(120.97921974386782 321.77636733128986) rotate(0 108.6279650882775 -44.67383845621799)"><path d="M0.62 -0.83 C36.75 -15.55, 181.35 -74.58, 217.62 -89.38 M-0.51 1.35 C35.42 -13.07, 180.44 -72.89, 216.87 -87.87" stroke="#1e1e1e" stroke-width="2" fill="none"></path></g><g transform="translate(120.97921974386782 321.77636733128986) rotate(0 108.6279650882775 -44.67383845621799)"><path d="M198.4 -71.02 C204.03 -76.76, 212.21 -81.89, 216.87 -87.87 M198.4 -71.02 C202.89 -76.21, 208.43 -80.13, 216.87 -87.87" stroke="#1e1e1e" stroke-width="2" fill="none"></path></g><g transform="translate(120.97921974386782 321.77636733128986) rotate(0 108.6279650882775 -44.67383845621799)"><path d="M191.89 -86.83 C199.79 -86.73, 210.39 -86, 216.87 -87.87 M191.89 -86.83 C198.29 -87.67, 205.6 -87.28, 216.87 -87.87" stroke="#1e1e1e" stroke-width="2" fill="none"></path></g></g><mask></mask><g stroke-linecap="round"><g transform="translate(572.4201136172289 193.86811406717095) rotate(0 120.38423836622951 -57.84086452752439)"><path d="M0.39 -0.34 C40.64 -19.72, 200.24 -97.32, 240.49 -116.52 M-0.87 -1.56 C39.29 -20.79, 198.96 -96.67, 239.4 -115.42" stroke="#1e1e1e" stroke-width="2" fill="none"></path></g><g transform="translate(572.4201136172289 193.86811406717095) rotate(0 120.38423836622951 -57.84086452752439)"><path d="M221.78 -97.68 C225.07 -102.04, 228.05 -103.49, 239.4 -115.42 M221.78 -97.68 C227.62 -102.66, 232.69 -109.72, 239.4 -115.42" stroke="#1e1e1e" stroke-width="2" fill="none"></path></g><g transform="translate(572.4201136172289 193.86811406717095) rotate(0 120.38423836622951 -57.84086452752439)"><path d="M214.51 -113.16 C219.34 -114.19, 223.89 -112.29, 239.4 -115.42 M214.51 -113.16 C222.62 -113.22, 229.98 -115.4, 239.4 -115.42" stroke="#1e1e1e" stroke-width="2" fill="none"></path></g></g><mask></mask><g stroke-linecap="round"><g transform="translate(570.5391098927564 226.78567924543682) rotate(0 117.09248184840294 -3.762007448944672)"><path d="M-0.03 0.03 C39.25 -1.04, 196.06 -5.12, 235.07 -6.4 M-1.51 -0.99 C37.75 -2.38, 195.47 -7.03, 234.59 -7.93" stroke="#1e1e1e" stroke-width="2" fill="none"></path></g><g transform="translate(570.5391098927564 226.78567924543682) rotate(0 117.09248184840294 -3.762007448944672)"><path d="M211.34 1.24 C217.12 0.47, 224.65 -3.48, 234.59 -7.93 M211.34 1.24 C218.85 -1.82, 225.25 -4.59, 234.59 -7.93" stroke="#1e1e1e" stroke-width="2" fill="none"></path></g><g transform="translate(570.5391098927564 226.78567924543682) rotate(0 117.09248184840294 -3.762007448944672)"><path d="M210.88 -15.85 C216.78 -12.41, 224.43 -12.16, 234.59 -7.93 M210.88 -15.85 C218.66 -13.96, 225.2 -11.79, 234.59 -7.93" stroke="#1e1e1e" stroke-width="2" fill="none"></path></g></g><mask></mask><g stroke-linecap="round"><g transform="translate(573.360615479465 260.64374628593885) rotate(0 119.44373650399348 55.01935894081589)"><path d="M-0.12 -0.59 C39.75 17.75, 198.12 91.5, 238.11 109.82 M-1.65 1.71 C38.71 20.25, 200.21 93.15, 240.42 111.24" stroke="#1e1e1e" stroke-width="2" fill="none"></path></g><g transform="translate(573.360615479465 260.64374628593885) rotate(0 119.44373650399348 55.01935894081589)"><path d="M215.49 109.38 C219.58 108.5, 225.29 111.79, 240.42 111.24 M215.49 109.38 C220.69 109.34, 226.9 109.53, 240.42 111.24" stroke="#1e1e1e" stroke-width="2" fill="none"></path></g><g transform="translate(573.360615479465 260.64374628593885) rotate(0 119.44373650399348 55.01935894081589)"><path d="M222.52 93.79 C225.15 96.08, 229.42 102.55, 240.42 111.24 M222.52 93.79 C226.06 97.56, 230.56 101.53, 240.42 111.24" stroke="#1e1e1e" stroke-width="2" fill="none"></path></g></g><mask></mask></svg>