<svg version="1.1" xmlns="http://www.w3.org/2000/svg" viewBox="0 0 1232.1018196010136 265" width="2464.2036392020273" height="530">
  <!-- svg-source:excalidraw -->
  
  <defs>
    <style class="style-fonts">
      @font-face {
        font-family: "Virgil";
        src: url("https://excalidraw.com/Virgil.woff2");
      }
      @font-face {
        font-family: "Cascadia";
        src: url("https://excalidraw.com/Cascadia.woff2");
      }
      @font-face {
        font-family: "Assistant";
        src: url("https://excalidraw.com/Assistant-Regular.woff2");
      }
    </style>
    
  </defs>
  <rect x="0" y="0" width="1232.1018196010136" height="265" fill="#ffffff"></rect><g stroke-linecap="round" transform="translate(10 100) rotate(0 113.5 35)"><path d="M17.5 0 C68.84 -0.46, 118.72 0.03, 209.5 0 M17.5 0 C68.13 -0.11, 121.06 0.62, 209.5 0 M209.5 0 C220.23 1.84, 225.64 7.28, 227 17.5 M209.5 0 C221.9 0.38, 225.55 5.4, 227 17.5 M227 17.5 C226.22 24.34, 225.8 31.92, 227 52.5 M227 17.5 C227.72 29.87, 227.37 40.47, 227 52.5 M227 52.5 C227.54 64.53, 222.98 71.25, 209.5 70 M227 52.5 C226.22 66.14, 223.13 70.64, 209.5 70 M209.5 70 C168.39 71.66, 126.45 71.41, 17.5 70 M209.5 70 C132.75 70.92, 55.65 72.16, 17.5 70 M17.5 70 C4.14 68.39, 0.53 63.02, 0 52.5 M17.5 70 C4.42 70.11, 1.05 62.21, 0 52.5 M0 52.5 C-1.37 41.97, 2.04 29.87, 0 17.5 M0 52.5 C0.18 40.03, 0.96 28.2, 0 17.5 M0 17.5 C-1.22 6.36, 6.68 -1.16, 17.5 0 M0 17.5 C-0.62 7.26, 8.11 1.24, 17.5 0" stroke="#1e1e1e" stroke-width="2" fill="none"></path></g><g transform="translate(72.5199966430664 122.5) rotate(0 50.980003356933594 12.5)"><text x="50.980003356933594" y="0" font-family="Virgil, Segoe UI Emoji" font-size="20px" fill="#1e1e1e" text-anchor="middle" style="white-space: pre;" direction="ltr" dominant-baseline="text-before-edge">Application</text></g><g stroke-linecap="round" transform="translate(444 10) rotate(0 116.5 122.5)"><path d="M32 0 C92.26 -3.33, 153.47 -1.96, 201 0 M32 0 C93.76 0.66, 156.53 0.98, 201 0 M201 0 C221.67 1.78, 232.59 12.55, 233 32 M201 0 C223.66 1.96, 232.95 12.13, 233 32 M233 32 C232.26 82.79, 233.8 132.15, 233 213 M233 32 C233.84 73.65, 234.95 117.36, 233 213 M233 213 C233.88 232.74, 223.81 244.76, 201 245 M233 213 C233.31 232.54, 223.97 243.68, 201 245 M201 245 C136.99 245.38, 72.76 243.88, 32 245 M201 245 C139.33 244.87, 78.35 245.8, 32 245 M32 245 C10.38 243.92, -1.41 235.59, 0 213 M32 245 C11 246.9, 1.66 235.09, 0 213 M0 213 C2.38 159.09, 0.26 108.66, 0 32 M0 213 C-1.36 168.2, -2.5 122.9, 0 32 M0 32 C0.14 10.06, 8.81 -0.84, 32 0 M0 32 C-2.21 8.47, 12.18 0.75, 32 0" stroke="#1e1e1e" stroke-width="2" fill="none"></path></g><g transform="translate(455.6351032261206 116.21947093570145) rotate(0 105.979995727539 12.5)"><text x="0" y="0" font-family="Virgil, Segoe UI Emoji" font-size="20px" fill="#1e1e1e" text-anchor="start" style="white-space: pre;" direction="ltr" dominant-baseline="text-before-edge">In-Memory databases</text></g><g stroke-linecap="round"><g transform="translate(238 113) rotate(0 102.5 -0.5)"><path d="M-0.11 -1 C34.35 -1.1, 171.81 -0.26, 206.09 -0.3 M-1.63 1.09 C32.83 0.61, 171.26 -1.86, 205.71 -2.06" stroke="#1e1e1e" stroke-width="2" fill="none"></path></g><g transform="translate(238 113) rotate(0 102.5 -0.5)"><path d="M182.33 6.79 C186.36 6.46, 194.91 3.4, 205.71 -2.06 M182.33 6.79 C188.23 3.18, 195.79 2.43, 205.71 -2.06" stroke="#1e1e1e" stroke-width="2" fill="none"></path></g><g transform="translate(238 113) rotate(0 102.5 -0.5)"><path d="M182.11 -10.31 C186.24 -6.46, 194.85 -5.33, 205.71 -2.06 M182.11 -10.31 C188.21 -9.19, 195.83 -5.21, 205.71 -2.06" stroke="#1e1e1e" stroke-width="2" fill="none"></path></g></g><mask></mask><g stroke-linecap="round"><g transform="translate(444 149) rotate(0 -102 0)"><path d="M-0.43 -0.9 C-34.62 -0.78, -170.22 -0.04, -204.27 0.2 M1.54 1.24 C-32.9 1.03, -171.39 -1.35, -205.37 -1.82" stroke="#1e1e1e" stroke-width="2" fill="none"></path></g><g transform="translate(444 149) rotate(0 -102 0)"><path d="M-181.75 -10 C-191.97 -7.54, -198.82 -5.37, -205.37 -1.82 M-181.75 -10 C-188.91 -8.14, -198.17 -4.13, -205.37 -1.82" stroke="#1e1e1e" stroke-width="2" fill="none"></path></g><g transform="translate(444 149) rotate(0 -102 0)"><path d="M-182.01 7.1 C-192.06 3.28, -198.81 -0.84, -205.37 -1.82 M-182.01 7.1 C-189.19 3.1, -198.36 1.24, -205.37 -1.82" stroke="#1e1e1e" stroke-width="2" fill="none"></path></g></g><mask></mask><g stroke-linecap="round" transform="translate(803.6717068616972 19.245313129171166) rotate(0 103.04970642789658 27.98038386452822)"><path d="M13.99 0 C79.41 2.6, 148.34 2.89, 192.11 0 M13.99 0 C74.51 0.34, 135.58 -0.49, 192.11 0 M192.11 0 C203.37 -0.61, 204.96 3.51, 206.1 13.99 M192.11 0 C202.79 1.25, 204.53 6.66, 206.1 13.99 M206.1 13.99 C204.49 20.1, 207.66 31.62, 206.1 41.97 M206.1 13.99 C205.69 19.24, 205.26 26.38, 206.1 41.97 M206.1 41.97 C204.49 51.25, 202.21 55.8, 192.11 55.96 M206.1 41.97 C206.93 51.64, 203.6 56.43, 192.11 55.96 M192.11 55.96 C123.46 58.35, 52.4 57.93, 13.99 55.96 M192.11 55.96 C146.74 56.12, 101.22 55.74, 13.99 55.96 M13.99 55.96 C2.9 56.33, 0.66 50.55, 0 41.97 M13.99 55.96 C5.2 55.92, -1.22 52.84, 0 41.97 M0 41.97 C-1.85 35.27, -0.96 29.09, 0 13.99 M0 41.97 C0.83 33.08, -0.09 26.29, 0 13.99 M0 13.99 C0.5 2.81, 4.44 -1.25, 13.99 0 M0 13.99 C1.28 5.46, 3.76 -1.38, 13.99 0" stroke="#1e1e1e" stroke-width="2" fill="none"></path></g><g transform="translate(886.9414126029483 34.72569699369939) rotate(0 19.780000686645508 12.5)"><text x="19.780000686645508" y="0" font-family="Virgil, Segoe UI Emoji" font-size="20px" fill="#1e1e1e" text-anchor="middle" style="white-space: pre;" direction="ltr" dominant-baseline="text-before-edge">Ram</text></g><g stroke-linecap="round" transform="translate(804.3541552486367 93.63218730559987) rotate(0 103.04970642789658 27.98038386452822)"><path d="M13.99 0 C79.98 2.27, 148.42 0.73, 192.11 0 M13.99 0 C51.61 -0.74, 88.02 0.64, 192.11 0 M192.11 0 C202.83 1.21, 204.55 3.28, 206.1 13.99 M192.11 0 C202.68 -1.66, 205.56 5.63, 206.1 13.99 M206.1 13.99 C206.01 23.71, 207.42 36.77, 206.1 41.97 M206.1 13.99 C206.48 20.64, 206.41 25.99, 206.1 41.97 M206.1 41.97 C204.32 51.98, 200.24 54.64, 192.11 55.96 M206.1 41.97 C205.65 49.47, 199.56 56.92, 192.11 55.96 M192.11 55.96 C149.45 59.46, 102.92 56.67, 13.99 55.96 M192.11 55.96 C148.9 55.66, 105.93 55.22, 13.99 55.96 M13.99 55.96 C5.75 56.57, 1.38 53.1, 0 41.97 M13.99 55.96 C4.73 55.17, -1.66 50.14, 0 41.97 M0 41.97 C0.55 32.84, 0.12 23.38, 0 13.99 M0 41.97 C0.28 32.15, 0.1 24.54, 0 13.99 M0 13.99 C1.39 3.04, 6.42 0.83, 13.99 0 M0 13.99 C1.02 3.29, 4.9 -1.37, 13.99 0" stroke="#1e1e1e" stroke-width="2" fill="none"></path></g><g transform="translate(887.6238609898878 109.11257117012809) rotate(0 19.780000686645508 12.5)"><text x="19.780000686645508" y="0" font-family="Virgil, Segoe UI Emoji" font-size="20px" fill="#1e1e1e" text-anchor="middle" style="white-space: pre;" direction="ltr" dominant-baseline="text-before-edge">Ram</text></g><g stroke-linecap="round" transform="translate(804.3541552486367 168.7015098689683) rotate(0 103.04970642789658 27.98038386452822)"><path d="M13.99 0 C76.14 1.33, 135.77 -1.11, 192.11 0 M13.99 0 C56.85 1.31, 98.9 1.84, 192.11 0 M192.11 0 C200.31 -1.98, 207.4 2.76, 206.1 13.99 M192.11 0 C201.05 1.62, 207.41 2.67, 206.1 13.99 M206.1 13.99 C204.41 25.61, 207.8 32.89, 206.1 41.97 M206.1 13.99 C205.4 21.56, 206.64 29.46, 206.1 41.97 M206.1 41.97 C205.31 50.71, 200.64 55.6, 192.11 55.96 M206.1 41.97 C205.46 49.13, 201.75 57.54, 192.11 55.96 M192.11 55.96 C124.07 56.68, 55.62 55.39, 13.99 55.96 M192.11 55.96 C145.36 54.7, 99.96 54.33, 13.99 55.96 M13.99 55.96 C5.16 56.82, 1.02 49.84, 0 41.97 M13.99 55.96 C6.4 57.38, -0.94 51.22, 0 41.97 M0 41.97 C1.7 34.45, 1.53 28.49, 0 13.99 M0 41.97 C-0.58 34.72, -0.32 25.78, 0 13.99 M0 13.99 C0.24 4.46, 4.39 -0.84, 13.99 0 M0 13.99 C-0.55 5.55, 6.37 0.41, 13.99 0" stroke="#1e1e1e" stroke-width="2" fill="none"></path></g><g transform="translate(887.6238609898878 184.1818937334965) rotate(0 19.780000686645508 12.5)"><text x="19.780000686645508" y="0" font-family="Virgil, Segoe UI Emoji" font-size="20px" fill="#1e1e1e" text-anchor="middle" style="white-space: pre;" direction="ltr" dominant-baseline="text-before-edge">Ram</text></g><g stroke-linecap="round"><g transform="translate(678.1012036647899 98.40932601417785) rotate(0 55.96076772905644 -1.3648967738794227)"><path d="M0.48 -0.91 C19.11 -1.15, 93.98 -2.13, 112.66 -2.57 M-0.73 1.23 C17.74 1.3, 93.3 -0.31, 112.09 -0.95" stroke="#1e1e1e" stroke-width="2" fill="none"></path></g><g transform="translate(678.1012036647899 98.40932601417785) rotate(0 55.96076772905644 -1.3648967738794227)"><path d="M88.83 8.22 C96.04 5.94, 106.46 2.29, 112.09 -0.95 M88.83 8.22 C94.9 7.14, 99.02 4.96, 112.09 -0.95" stroke="#1e1e1e" stroke-width="2" fill="none"></path></g><g transform="translate(678.1012036647899 98.40932601417785) rotate(0 55.96076772905644 -1.3648967738794227)"><path d="M88.38 -8.88 C95.6 -4.81, 106.19 -2.11, 112.09 -0.95 M88.38 -8.88 C94.47 -5.98, 98.7 -4.18, 112.09 -0.95" stroke="#1e1e1e" stroke-width="2" fill="none"></path></g></g><mask></mask><g stroke-linecap="round"><g transform="translate(788.6578423490234 140.72112600444) rotate(0 -52.54852579435794 1.3648967738794227)"><path d="M0.56 -0.9 C-16.89 -0.54, -87.15 2.72, -104.95 3.22 M-0.6 1.25 C-18.19 1.76, -88.59 1.05, -105.82 1.35" stroke="#1e1e1e" stroke-width="2" fill="none"></path></g><g transform="translate(788.6578423490234 140.72112600444) rotate(0 -52.54852579435794 1.3648967738794227)"><path d="M-82.35 -7.25 C-90.39 -4.47, -94.71 -4.24, -105.82 1.35 M-82.35 -7.25 C-87.96 -5.56, -93.11 -3.26, -105.82 1.35" stroke="#1e1e1e" stroke-width="2" fill="none"></path></g><g transform="translate(788.6578423490234 140.72112600444) rotate(0 -52.54852579435794 1.3648967738794227)"><path d="M-82.31 9.85 C-90.52 7.81, -94.84 3.21, -105.82 1.35 M-82.31 9.85 C-88.02 7.35, -93.17 5.47, -105.82 1.35" stroke="#1e1e1e" stroke-width="2" fill="none"></path></g></g><mask></mask><g transform="translate(1046.6233326122351 30.164487320206547) rotate(0 81.28999328613281 12.5)"><text x="0" y="0" font-family="Virgil, Segoe UI Emoji" font-size="20px" fill="#1e1e1e" text-anchor="start" style="white-space: pre;" direction="ltr" dominant-baseline="text-before-edge">Data partition 1</text></g><g transform="translate(1048.5920425327472 105.01788084848971) rotate(0 85.69999694824219 12.5)"><text x="0" y="0" font-family="Virgil, Segoe UI Emoji" font-size="20px" fill="#1e1e1e" text-anchor="start" style="white-space: pre;" direction="ltr" dominant-baseline="text-before-edge">Data partition 2</text></g><g transform="translate(1051.3218360805058 180.08720341185818) rotate(0 85.3899917602539 12.5)"><text x="0" y="0" font-family="Virgil, Segoe UI Emoji" font-size="20px" fill="#1e1e1e" text-anchor="start" style="white-space: pre;" direction="ltr" dominant-baseline="text-before-edge">Data partition 3</text></g></svg>