<svg version="1.1" xmlns="http://www.w3.org/2000/svg" viewBox="0 0 1082.3983154367297 698.3846684052346" width="2164.7966308734594" height="1396.7693368104692">
  <!-- svg-source:excalidraw -->
  
  <defs>
    <style class="style-fonts">
      @font-face {
        font-family: "Virgil";
        src: url("https://excalidraw.com/Virgil.woff2");
      }
      @font-face {
        font-family: "Cascadia";
        src: url("https://excalidraw.com/Cascadia.woff2");
      }
      @font-face {
        font-family: "Assistant";
        src: url("https://excalidraw.com/Assistant-Regular.woff2");
      }
    </style>
    
  </defs>
  <rect x="0" y="0" width="1082.3983154367297" height="698.3846684052346" fill="#ffffff"></rect><g stroke-linecap="round" transform="translate(902.6648354305025 10) rotate(0 78.57907332855893 34.026836779025956)"><path d="M79.18 0.11 L157.46 36.68 L77.81 69.84 L-0.21 36.98" stroke="none" stroke-width="0" fill="#c13b3c" fill-rule="evenodd"></path><path d="M79 0 C109.77 12.51, 137.34 27.16, 157.16 35 M79 0 C100.27 10.37, 120.8 18.35, 157.16 35 M157.16 35 C136.34 43.35, 117.88 51.15, 79 68.05 M157.16 35 C134.44 43.55, 112.2 54.36, 79 68.05 M79 68.05 C48.3 56.19, 19.2 43.51, 0 35 M79 68.05 C48.76 55.97, 18.36 43.16, 0 35 M0 35 C21.6 23.34, 48.01 13.25, 79 0 M0 35 C24.17 24.26, 49.26 14.08, 79 0" stroke="#c13b3c" stroke-width="2" fill="none"></path></g><g stroke-linecap="round" transform="translate(904.3600332493106 71.37268262722841) rotate(0 78.57907332855893 34.026836779025956)"><path d="M79.31 1.68 L155.97 36.78 L78.79 70.04 L1.7 33.86" stroke="none" stroke-width="0" fill="#c13b3c" fill-rule="evenodd"></path><path d="M79 0 C97.78 9.37, 115.61 18.29, 157.16 35 M79 0 C100.68 8.33, 120.2 17.4, 157.16 35 M157.16 35 C129.97 45.56, 102.69 55.99, 79 68.05 M157.16 35 C138.36 43.45, 119.65 51.59, 79 68.05 M79 68.05 C62.52 62.71, 48.93 54.78, 0 35 M79 68.05 C56.07 59.64, 32.18 49.83, 0 35 M0 35 C25.03 24.14, 46.3 14.84, 79 0 M0 35 C18.73 27.38, 38.25 18.43, 79 0" stroke="#c13b3c" stroke-width="2" fill="none"></path></g><g stroke-linecap="round" transform="translate(903.1315200064905 39.5919178594545) rotate(0 78.57907332855893 34.026836779025956)"><path d="M77.81 1.78 L156.95 36.98 L80.7 66.91 L1.08 34.32" stroke="none" stroke-width="0" fill="#c13b3c" fill-rule="evenodd"></path><path d="M79 0 C97.83 9.8, 117.53 18.54, 157.16 35 M79 0 C109.61 13.55, 141.42 27.25, 157.16 35 M157.16 35 C134.57 42.4, 111.36 53.74, 79 68.05 M157.16 35 C138.64 44.61, 117.58 51.47, 79 68.05 M79 68.05 C52.32 56.08, 21.94 45.1, 0 35 M79 68.05 C49.11 56.94, 19.42 43.16, 0 35 M0 35 C17.83 27.13, 34.23 18.18, 79 0 M0 35 C22.29 24.81, 44.39 15.83, 79 0" stroke="#c13b3c" stroke-width="2" fill="none"></path></g><g stroke-linecap="round"><g transform="translate(1019.2337279249534 35.853887618839394) rotate(0 -10.231047318983087 8.60827612138911)" fill-rule="evenodd"><path d="M-20.41 8.76 C-20.41 8.76, -20.41 8.76, -20.41 8.76 M-20.41 8.76 C-20.41 8.76, -20.41 8.76, -20.41 8.76 M-12.41 11.74 C-8.72 7.58, -5.99 4.06, -3.22 1.17 M-12.41 11.74 C-9.64 9, -7.6 5.68, -3.22 1.17 M-5.06 15.48 C-4.18 13.83, -3.22 13.29, 0.19 9.44 M-5.06 15.48 C-2.89 13.14, -1.02 10.99, 0.19 9.44 M-20.72 8.59 C-20.72 8.59, -20.72 8.59, -20.72 8.59 M-20.72 8.59 C-20.72 8.59, -20.72 8.59, -20.72 8.59 M0.38 16.33 C-4.68 12.88, -7.56 8.93, -12.45 5.18 M0.38 16.33 C-2.48 14.07, -5.46 11.34, -12.45 5.18 M0.35 5.7 C-1.18 4.32, -2.85 3.07, -4.18 1.76 M0.35 5.7 C-0.71 4.8, -1.66 4.03, -4.18 1.76" stroke="#9a2e20" stroke-width="1" fill="none"></path><path d="M0 0 C-0.33 6.27, 0.78 12.11, 0 17.22 M0 0 C0.15 4.56, -0.1 9.6, 0 17.22 M0 17.22 C-5.91 14.99, -11.24 13.03, -20.46 8.81 M0 17.22 C-8.23 13.89, -15.14 10.81, -20.46 8.81 M-20.46 8.81 C-13.52 6.1, -5.69 3.27, 0 0 M-20.46 8.81 C-12.84 5.1, -5.48 2.61, 0 0 M0 0 C0 0, 0 0, 0 0 M0 0 C0 0, 0 0, 0 0" stroke="#9a2e20" stroke-width="2" fill="none"></path></g></g><mask></mask><g stroke-linecap="round"><g transform="translate(1019.2152651053898 36.83514562354844) rotate(0 9.735175349434257 8.045633674986675)" fill-rule="evenodd"><path d="M0 0 C0 0, 0 0, 0 0 M0 0 C0 0, 0 0, 0 0 M0.13 12.04 C2.99 8.47, 5.59 5.93, 8.01 2.98 M0.13 12.04 C1.56 9.89, 3.05 8.31, 8.01 2.98 M10.76 12.01 C11.92 10.65, 13.92 8.4, 15.36 6.72 M10.76 12.01 C12.02 10.64, 13.15 9.15, 15.36 6.72 M0.33 16.38 C0.33 16.38, 0.33 16.38, 0.33 16.38 M0.33 16.38 C0.33 16.38, 0.33 16.38, 0.33 16.38 M8.6 12.97 C6.96 11.25, 3.85 9.08, 0.3 5.75 M8.6 12.97 C5.44 10.27, 2.68 7.93, 0.3 5.75 M16.87 9.56 C13.49 6.79, 10.44 3.83, 9.32 2.99 M16.87 9.56 C14.8 7.9, 12.73 5.99, 9.32 2.99" stroke="#571f1e" stroke-width="1" fill="none"></path><path d="M0 0 C0.73 6.44, -0.2 11.31, 0 16.09 M0 0 C-0.02 4.14, -0.12 8.22, 0 16.09 M0 16.09 C3.63 14.71, 9.06 13.45, 19.47 8.16 M0 16.09 C7.79 12.94, 15.15 10.51, 19.47 8.16 M19.47 8.16 C14.75 6.39, 9.27 3.53, 0 0 M19.47 8.16 C11.89 5.55, 4.72 2.12, 0 0 M0 0 C0 0, 0 0, 0 0 M0 0 C0 0, 0 0, 0 0" stroke="#571f1e" stroke-width="2" fill="none"></path></g></g><mask></mask><g stroke-linecap="round"><g transform="translate(974.0358337135394 24.265394015997003) rotate(0 9.437711642792806 7.216471486770672)" fill-rule="evenodd"><path d="M0.86 0.5 L2.87 4.14 L-5.58 8.6 L5.8 8.94 L8.64 15.49 L12.16 9.25 L25.85 7.88 L14.17 5.41 L17.87 -2.08 L8.64 2.97 L-0.39 0.94" stroke="none" stroke-width="0" fill="#ffff" fill-rule="evenodd"></path><path d="M0 0 C0.98 1.49, 1.93 3.38, 2.8 4.52 M0 0 C0.63 1.09, 1.25 2.14, 2.8 4.52 M2.8 4.52 C0.44 5.95, -2.24 6.21, -6.05 8.01 M2.8 4.52 C0.7 5.59, -1.67 6.24, -6.05 8.01 M-6.05 8.01 C-2.01 8.31, 1.58 8.66, 4.93 9.12 M-6.05 8.01 C-3.67 8.26, -0.99 8.31, 4.93 9.12 M4.93 9.12 C6.02 10.65, 6.67 12.17, 8.76 15.74 M4.93 9.12 C6.36 11.83, 8.01 14.08, 8.76 15.74 M8.76 15.74 C10.46 13.52, 11.44 10.53, 12.48 8.89 M8.76 15.74 C9.96 13.55, 11.09 11.83, 12.48 8.89 M12.48 8.89 C15.14 9.08, 17.54 9.02, 24.92 7.96 M12.48 8.89 C16.29 8.64, 20.72 8.17, 24.92 7.96 M24.92 7.96 C23.12 6.82, 20.22 7.2, 13.65 4.78 M24.92 7.96 C21.83 7.11, 18.71 6.06, 13.65 4.78 M13.65 4.78 C14.45 2.98, 15.64 1.56, 17.36 -1.31 M13.65 4.78 C14.67 3.01, 15.51 1.41, 17.36 -1.31 M17.36 -1.31 C14.01 -0.18, 11.7 1.09, 8.71 2.26 M17.36 -1.31 C14.54 0, 11.83 1.03, 8.71 2.26 M8.71 2.26 C6.05 1.22, 3.97 0.8, 0 0 M8.71 2.26 C6.16 1.59, 3.84 1.06, 0 0 M0 0 C0 0, 0 0, 0 0 M0 0 C0 0, 0 0, 0 0" stroke="#ffff" stroke-width="2" fill="none"></path></g></g><mask></mask><g stroke-linecap="round" transform="translate(930.131437829356 39.825214333687654) rotate(0 16.56959008369961 5.17033147273105)"><path d="M12.2 0.37 C15.35 0.13, 20.08 0.43, 23.39 0.82 C26.7 1.21, 30.54 1.79, 32.06 2.71 C33.59 3.62, 33.61 5.13, 32.55 6.31 C31.49 7.48, 28.72 9.02, 25.69 9.75 C22.66 10.49, 17.83 10.93, 14.35 10.72 C10.87 10.51, 7.25 9.44, 4.79 8.5 C2.32 7.55, -0.16 6.11, -0.43 5.06 C-0.7 4.01, 0.92 3.1, 3.18 2.19 C5.43 1.28, 11.33 -0.12, 13.09 -0.39 C14.86 -0.67, 13.61 0.47, 13.77 0.56 M15.51 0.22 C18.7 0.11, 23.21 0.41, 25.95 0.92 C28.69 1.43, 31.08 2.25, 31.96 3.29 C32.85 4.33, 32.59 6.12, 31.26 7.14 C29.94 8.17, 27.27 8.96, 24.03 9.46 C20.78 9.95, 15.28 10.41, 11.78 10.13 C8.28 9.86, 4.84 8.69, 3.01 7.81 C1.19 6.93, 0.44 6.05, 0.82 4.88 C1.21 3.72, 2.93 1.73, 5.3 0.81 C7.67 -0.11, 13.3 -0.63, 15.03 -0.64 C16.76 -0.64, 15.58 0.7, 15.68 0.79" stroke="none" stroke-width="0" fill="#ffffff"></path><path d="M18.46 -0.16 C21.87 -0.16, 26.14 0.33, 28.54 1.18 C30.93 2.02, 32.65 3.69, 32.83 4.89 C33.01 6.1, 31.62 7.46, 29.62 8.41 C27.62 9.35, 24.15 10.41, 20.81 10.56 C17.47 10.71, 12.86 9.81, 9.58 9.31 C6.3 8.8, 2.63 8.43, 1.12 7.53 C-0.39 6.64, -0.6 5.04, 0.52 3.91 C1.65 2.79, 4.82 1.38, 7.87 0.76 C10.93 0.14, 16.9 0.25, 18.87 0.2 C20.83 0.14, 19.61 0.36, 19.64 0.42 M18.92 0.8 C22.21 1.02, 26.45 1.31, 28.8 1.96 C31.14 2.62, 32.99 3.67, 32.97 4.73 C32.95 5.79, 31 7.34, 28.69 8.34 C26.37 9.34, 22.45 10.5, 19.06 10.72 C15.66 10.95, 11.32 10.21, 8.33 9.68 C5.33 9.16, 2.4 8.5, 1.1 7.56 C-0.19 6.62, -0.62 5.08, 0.56 4.06 C1.75 3.04, 4.97 2.17, 8.23 1.43 C11.49 0.7, 18.18 -0.1, 20.11 -0.35 C22.04 -0.6, 20.09 -0.35, 19.82 -0.07" stroke="#ffff" stroke-width="2" fill="none"></path></g><g stroke-linecap="round"><g transform="translate(1019.1827495463083 36.101045100572264) rotate(0 -10.231047318983087 8.60827612138911)" fill-rule="evenodd"><path d="M0.47 0.1 L-0.97 17.18 L-20.82 8.06 L0.43 -0.92" stroke="none" stroke-width="0" fill="#9a2e20" fill-rule="evenodd"></path><path d="M0 0 C-0.51 4.19, -0.03 8.3, 0 17.22 M0 0 C-0.05 4.73, 0.06 10.24, 0 17.22 M0 17.22 C-8.15 14.6, -15.61 11.29, -20.46 8.81 M0 17.22 C-7.77 14.33, -15.6 11.08, -20.46 8.81 M-20.46 8.81 C-15.16 5.5, -7.53 3, 0 0 M-20.46 8.81 C-14.39 6, -7.83 3.64, 0 0 M0 0 C0 0, 0 0, 0 0 M0 0 C0 0, 0 0, 0 0" stroke="#9a2e20" stroke-width="2" fill="none"></path></g></g><mask></mask><g stroke-linecap="round"><g transform="translate(1019.1279738289538 37.16981656695464) rotate(0 9.735175349434257 8.045633674986675)" fill-rule="evenodd"><path d="M-0.97 -0.03 L-0.36 15.34 L19.9 7.24 L0.59 0.7" stroke="none" stroke-width="0" fill="#571f1e" fill-rule="evenodd"></path><path d="M0 0 C-0.04 5.26, -0.14 10.42, 0 16.09 M0 0 C0.13 4.25, 0.3 8.21, 0 16.09 M0 16.09 C3.64 14.86, 8.78 12.63, 19.47 8.16 M0 16.09 C5.98 14.05, 11.45 11.69, 19.47 8.16 M19.47 8.16 C14.81 5.08, 8.36 3.13, 0 0 M19.47 8.16 C14.59 6.49, 10.2 4.25, 0 0 M0 0 C0 0, 0 0, 0 0 M0 0 C0 0, 0 0, 0 0" stroke="#571f1e" stroke-width="2" fill="none"></path></g></g><mask></mask><g stroke-linecap="round"><g transform="translate(985.0198794406667 66.70020639209395) rotate(0 -5.145943475141394 -6.583836474319753)" fill-rule="evenodd"><path d="M-0.36 -0.75 L-20.84 -9.53 L11.56 -12.47 L-0.73 0.11" stroke="none" stroke-width="0" fill="#ffffff" fill-rule="evenodd"></path><path d="M0 0 C-6.2 -3.38, -12.71 -4.9, -21.27 -8.61 M0 0 C-4.92 -1.64, -11.03 -4.43, -21.27 -8.61 M-21.27 -8.61 C-8.74 -10.51, 1.99 -11.68, 10.97 -13.17 M-21.27 -8.61 C-9.21 -10.09, 2.88 -12.49, 10.97 -13.17 M10.97 -13.17 C8.68 -10.42, 5.55 -7.88, 0 0 M10.97 -13.17 C7.92 -9.44, 4.89 -5.43, 0 0 M0 0 C0 0, 0 0, 0 0 M0 0 C0 0, 0 0, 0 0" stroke="#ffffff" stroke-width="2" fill="none"></path></g></g><mask></mask><g stroke-linecap="round"><g transform="translate(903.0197580858583 46.50871048955378) rotate(0 78.71858412589575 26.420105099377565)" fill-rule="evenodd"><path d="M0.82 -1.75 L-0.05 17.09 L80.06 54.8 L157.72 17.53 L156.96 1.06 L78.11 33.9 L-1.2 -0.77" stroke="none" stroke-width="0" fill="#922b1c" fill-rule="evenodd"></path><path d="M0 0 C-0.88 5.07, -0.63 10.46, 0.72 18.83 M0 0 C-0.51 6.62, 1.26 13.88, 0.72 18.83 M0.72 18.83 C27.86 31.3, 56.4 43.44, 79.17 53.01 M0.72 18.83 C30.01 30.43, 58.79 44.87, 79.17 53.01 M79.17 53.01 C96.27 43.74, 115.4 36.31, 157.19 19.17 M79.17 53.01 C107.48 41.58, 134.92 29.41, 157.19 19.17 M157.19 19.17 C155.97 14.61, 156.49 6.28, 157.44 -0.17 M157.19 19.17 C156.26 11.47, 156.95 3.11, 157.44 -0.17 M157.44 -0.17 C131.46 10.29, 103.23 22.03, 78.45 33.25 M157.44 -0.17 C136.86 8.52, 113.93 16.42, 78.45 33.25 M78.45 33.25 C61.12 24.49, 44.23 21.16, 0 0 M78.45 33.25 C50 20.12, 19.85 8.22, 0 0 M0 0 C0 0, 0 0, 0 0 M0 0 C0 0, 0 0, 0 0" stroke="#922b1c" stroke-width="2" fill="none"></path></g></g><mask></mask><g stroke-linecap="round"><g transform="translate(903.5191314111212 75.97104250508039) rotate(0 78.71858412589575 26.420105099377565)" fill-rule="evenodd"><path d="M-0.77 -1.74 L1.62 20.62 L79.69 51.38 L156.72 20.39 L157.1 0.48 L77.25 32.49 L0.55 1.22" stroke="none" stroke-width="0" fill="#922b1c" fill-rule="evenodd"></path><path d="M0 0 C-0.94 4.58, 1.65 9.36, 0.72 18.83 M0 0 C0.67 6.9, 0.78 15.23, 0.72 18.83 M0.72 18.83 C24.27 29.2, 46.32 37.69, 79.17 53.01 M0.72 18.83 C29.02 32.97, 58.17 44.83, 79.17 53.01 M79.17 53.01 C100.56 43.25, 123.83 35.02, 157.19 19.17 M79.17 53.01 C102.35 42.91, 126.67 32.68, 157.19 19.17 M157.19 19.17 C156.74 10.03, 159.36 5.2, 157.44 -0.17 M157.19 19.17 C157.11 12.44, 157.95 6.28, 157.44 -0.17 M157.44 -0.17 C129.57 10.07, 100.48 24.4, 78.45 33.25 M157.44 -0.17 C140.96 6, 124.32 13.81, 78.45 33.25 M78.45 33.25 C52.4 23.67, 31.09 9.82, 0 0 M78.45 33.25 C57.25 24.28, 35.45 14.95, 0 0 M0 0 C0 0, 0 0, 0 0 M0 0 C0 0, 0 0, 0 0" stroke="#922b1c" stroke-width="2" fill="none"></path></g></g><mask></mask><g stroke-linecap="round"><g transform="translate(904.9875921725777 106.87134645182397) rotate(0 78.71858412589575 25.963580261079642)" fill-rule="evenodd"><path d="M0.89 1.79 L1.25 15.04 L78.78 53.33 L156.71 19.11 L156.23 -0.94 L79 34.47 L1.97 -0.18" stroke="none" stroke-width="0" fill="#922b1c" fill-rule="evenodd"></path><path d="M0 0 C1.42 6.32, 1.73 8.59, 0.72 16.67 M0 0 C0.64 4.91, 0.31 8.32, 0.72 16.67 M0.72 16.67 C28.35 27.82, 54.13 39.42, 79.26 52.1 M0.72 16.67 C18.14 24.33, 36.89 31.86, 79.26 52.1 M79.26 52.1 C98.11 45.06, 114.53 37.6, 157.05 18.46 M79.26 52.1 C109.22 39.48, 140.03 25.01, 157.05 18.46 M157.05 18.46 C159.05 12.75, 157.58 3.46, 157.44 -0.17 M157.05 18.46 C157.63 12.08, 157.89 8.06, 157.44 -0.17 M157.44 -0.17 C139 8.13, 119.7 16.2, 78.45 33.25 M157.44 -0.17 C130.3 10.11, 105.31 20.6, 78.45 33.25 M78.45 33.25 C64.47 25.32, 46.53 22.12, 0 0 M78.45 33.25 C57.27 24.62, 36.04 15.1, 0 0 M0 0 C0 0, 0 0, 0 0 M0 0 C0 0, 0 0, 0 0" stroke="#922b1c" stroke-width="2" fill="none"></path></g></g><mask></mask><g transform="translate(919.1750779617146 619.2619495778509) rotate(0 59.50314001776894 34.561359413691804)"><text x="59.50314001776897" y="0" font-family="Virgil, Segoe UI Emoji" font-size="57.60226568948633px" fill="#000000" text-anchor="middle" style="white-space: pre;" direction="ltr" dominant-baseline="text-before-edge">RDS</text></g><g stroke-linecap="round" transform="translate(884.9581205222369 417.16369592273634) rotate(0 93.72009745724642 93.72009745724637)"><path d="M0 0 C0 0, 0 0, 0 0 M0 0 C0 0, 0 0, 0 0 M0.13 12.04 C2.9 8.86, 5.67 5.67, 10.63 -0.03 M0.13 12.04 C2.97 8.77, 5.81 5.51, 10.63 -0.03 M0.27 24.08 C7.96 15.23, 15.65 6.39, 21.26 -0.07 M0.27 24.08 C6.29 17.15, 12.31 10.22, 21.26 -0.07 M-0.26 36.88 C12.45 22.26, 25.15 7.65, 31.89 -0.1 M-0.26 36.88 C10.64 24.34, 21.54 11.81, 31.89 -0.1 M-0.12 48.92 C13.79 32.91, 27.71 16.9, 42.52 -0.14 M-0.12 48.92 C14.76 31.8, 29.64 14.68, 42.52 -0.14 M0.01 60.96 C14.58 44.2, 29.15 27.44, 53.15 -0.17 M0.01 60.96 C14.27 44.55, 28.54 28.14, 53.15 -0.17 M0.14 73 C18.05 52.4, 35.96 31.8, 63.78 -0.21 M0.14 73 C15.26 55.61, 30.38 38.21, 63.78 -0.21 M0.28 85.04 C15.85 67.12, 31.43 49.21, 74.41 -0.24 M0.28 85.04 C18.4 64.19, 36.52 43.34, 74.41 -0.24 M-0.25 97.84 C28.08 65.25, 56.41 32.65, 85.04 -0.28 M-0.25 97.84 C24.02 69.92, 48.29 42, 85.04 -0.28 M-0.11 109.88 C20.96 85.63, 42.04 61.38, 95.67 -0.31 M-0.11 109.88 C20.95 85.65, 42.01 61.42, 95.67 -0.31 M0.02 121.92 C35.86 80.69, 71.7 39.46, 106.3 -0.34 M0.02 121.92 C36.02 80.5, 72.02 39.09, 106.3 -0.34 M0.15 133.96 C38.35 90.02, 76.55 46.08, 116.27 0.38 M0.15 133.96 C25.08 105.28, 50.02 76.6, 116.27 0.38 M0.29 146 C27.24 115, 54.19 83.99, 126.91 0.34 M0.29 146 C34 107.22, 67.71 68.43, 126.91 0.34 M-0.24 158.8 C36.9 116.08, 74.03 73.36, 137.54 0.31 M-0.24 158.8 C29.53 124.55, 59.3 90.3, 137.54 0.31 M-0.1 170.84 C34.47 131.06, 69.05 91.28, 148.17 0.27 M-0.1 170.84 C37.02 128.13, 74.15 85.42, 148.17 0.27 M0.03 182.88 C60.73 113.04, 121.44 43.21, 158.8 0.24 M0.03 182.88 C44.23 132.03, 88.43 81.19, 158.8 0.24 M6.72 187.37 C60.46 125.56, 114.19 63.74, 169.43 0.2 M6.72 187.37 C54.16 132.8, 101.6 78.22, 169.43 0.2 M17.35 187.34 C68.73 128.23, 120.11 69.13, 180.06 0.17 M17.35 187.34 C53.67 145.56, 89.98 103.79, 180.06 0.17 M27.98 187.3 C91.02 114.79, 154.06 42.27, 188.06 3.15 M27.98 187.3 C77.21 130.68, 126.43 74.05, 188.06 3.15 M38.61 187.27 C87.16 131.42, 135.7 75.58, 187.54 15.95 M38.61 187.27 C89.13 129.15, 139.65 71.04, 187.54 15.95 M49.24 187.23 C100.65 128.1, 152.05 68.96, 187.67 27.99 M49.24 187.23 C81.49 150.14, 113.74 113.04, 187.67 27.99 M59.87 187.2 C108.1 131.72, 156.32 76.25, 187.8 40.03 M59.87 187.2 C96.01 145.63, 132.14 104.07, 187.8 40.03 M70.5 187.16 C113.76 137.4, 157.02 87.64, 187.94 52.07 M70.5 187.16 C108.08 143.93, 145.66 100.7, 187.94 52.07 M81.13 187.13 C106.85 157.55, 132.57 127.96, 188.07 64.11 M81.13 187.13 C121.34 140.88, 161.54 94.64, 188.07 64.11 M91.76 187.09 C125.1 148.75, 158.43 110.4, 187.55 76.91 M91.76 187.09 C114.55 160.89, 137.33 134.68, 187.55 76.91 M101.74 187.82 C135.79 148.64, 169.84 109.47, 187.68 88.95 M101.74 187.82 C128.38 157.16, 155.03 126.51, 187.68 88.95 M112.37 187.78 C129.82 167.7, 147.28 147.62, 187.81 100.99 M112.37 187.78 C140.5 155.42, 168.63 123.05, 187.81 100.99 M123 187.75 C144.53 162.98, 166.06 138.21, 187.95 113.03 M123 187.75 C138.73 169.65, 154.46 151.55, 187.95 113.03 M133.63 187.71 C155.26 162.83, 176.88 137.95, 188.08 125.07 M133.63 187.71 C151.53 167.12, 169.43 146.53, 188.08 125.07 M144.26 187.68 C154.72 175.64, 165.19 163.6, 187.56 137.87 M144.26 187.68 C157.13 172.87, 170 158.07, 187.56 137.87 M154.89 187.64 C167.42 173.22, 179.96 158.8, 187.69 149.91 M154.89 187.64 C162.31 179.11, 169.72 170.58, 187.69 149.91 M165.52 187.61 C172.87 179.15, 180.23 170.68, 187.82 161.95 M165.52 187.61 C171.47 180.76, 177.42 173.91, 187.82 161.95 M176.15 187.57 C180.64 182.4, 185.14 177.23, 187.96 173.99 M176.15 187.57 C178.55 184.82, 180.94 182.06, 187.96 173.99 M186.78 187.54 C187.18 187.08, 187.58 186.61, 188.09 186.03 M186.78 187.54 C187.19 187.07, 187.59 186.6, 188.09 186.03 M0.02 187.46 C0.02 187.46, 0.02 187.46, 0.02 187.46 M0.02 187.46 C0.02 187.46, 0.02 187.46, 0.02 187.46 M12.06 187.33 C8.55 184.27, 5.04 181.22, -0.01 176.83 M12.06 187.33 C9 184.67, 5.94 182.01, -0.01 176.83 M24.1 187.19 C17.2 181.2, 10.31 175.2, -0.05 166.2 M24.1 187.19 C18.47 182.3, 12.84 177.4, -0.05 166.2 M36.9 187.72 C25.47 177.78, 14.03 167.84, -0.08 155.57 M36.9 187.72 C26.17 178.39, 15.45 169.07, -0.08 155.57 M48.94 187.58 C30.79 171.81, 12.65 156.03, -0.12 144.94 M48.94 187.58 C31.85 172.73, 14.76 157.87, -0.12 144.94 M60.98 187.45 C36.8 166.43, 12.61 145.41, -0.15 134.31 M60.98 187.45 C43.82 172.53, 26.66 157.61, -0.15 134.31 M73.02 187.32 C56.64 173.08, 40.26 158.84, -0.19 123.68 M73.02 187.32 C53.49 170.34, 33.96 153.36, -0.19 123.68 M85.06 187.18 C60.13 165.51, 35.19 143.83, -0.22 113.05 M85.06 187.18 C63.47 168.41, 41.88 149.64, -0.22 113.05 M97.86 187.71 C75.23 168.03, 52.59 148.36, -0.25 102.42 M97.86 187.71 C67.21 161.06, 36.56 134.42, -0.25 102.42 M109.9 187.57 C71.39 154.1, 32.89 120.63, -0.29 91.79 M109.9 187.57 C76.57 158.6, 43.25 129.63, -0.29 91.79 M121.94 187.44 C93.57 162.78, 65.21 138.12, -0.32 81.16 M121.94 187.44 C94.28 163.4, 66.63 139.36, -0.32 81.16 M133.98 187.31 C103.81 161.08, 73.65 134.86, -0.36 70.53 M133.98 187.31 C94.93 153.36, 55.87 119.41, -0.36 70.53 M146.02 187.17 C112.97 158.44, 79.92 129.71, 0.36 60.55 M146.02 187.17 C107.2 153.42, 68.37 119.67, 0.36 60.55 M158.82 187.7 C98.08 134.9, 37.35 82.11, 0.33 49.92 M158.82 187.7 C103.77 139.85, 48.72 91.99, 0.33 49.92 M170.86 187.56 C124.41 147.18, 77.95 106.8, 0.29 39.29 M170.86 187.56 C118.17 141.76, 65.49 95.97, 0.29 39.29 M182.9 187.43 C110.06 124.12, 37.23 60.8, 0.26 28.66 M182.9 187.43 C115.53 128.87, 48.17 70.31, 0.26 28.66 M187.39 180.74 C115.7 118.41, 44 56.09, 0.22 18.03 M187.39 180.74 C122.66 124.46, 57.93 68.19, 0.22 18.03 M187.36 170.11 C140.1 129.03, 92.85 87.95, 0.19 7.4 M187.36 170.11 C127.64 118.2, 67.93 66.29, 0.19 7.4 M187.32 159.48 C144.66 122.39, 102.01 85.31, 3.17 -0.6 M187.32 159.48 C116 97.48, 44.68 35.48, 3.17 -0.6 M187.29 148.85 C147.33 114.11, 107.37 79.37, 15.97 -0.08 M187.29 148.85 C130.96 99.88, 74.62 50.91, 15.97 -0.08 M187.25 138.22 C147.68 103.81, 108.1 69.41, 28.01 -0.21 M187.25 138.22 C129.88 88.35, 72.52 38.47, 28.01 -0.21 M187.22 127.59 C152.2 97.15, 117.19 66.71, 40.05 -0.35 M187.22 127.59 C128.9 76.89, 70.57 26.18, 40.05 -0.35 M187.19 116.96 C143.7 79.16, 100.22 41.36, 52.09 -0.48 M187.19 116.96 C158.96 92.42, 130.73 67.88, 52.09 -0.48 M187.15 106.33 C153.8 77.33, 120.44 48.34, 64.13 -0.61 M187.15 106.33 C151.87 75.65, 116.58 44.98, 64.13 -0.61 M187.12 95.7 C154.31 67.18, 121.51 38.67, 76.93 -0.09 M187.12 95.7 C143.62 57.89, 100.13 20.08, 76.93 -0.09 M187.08 85.07 C153.21 55.62, 119.33 26.17, 88.97 -0.22 M187.08 85.07 C164.24 65.21, 141.39 45.35, 88.97 -0.22 M187.8 75.09 C163.51 53.98, 139.22 32.86, 101.01 -0.36 M187.8 75.09 C153.41 45.2, 119.02 15.3, 101.01 -0.36 M187.77 64.46 C159.33 39.74, 130.9 15.03, 113.05 -0.49 M187.77 64.46 C170.28 49.26, 152.79 34.05, 113.05 -0.49 M187.73 53.83 C167.06 35.86, 146.39 17.89, 125.09 -0.62 M187.73 53.83 C174.63 42.44, 161.52 31.05, 125.09 -0.62 M187.7 43.2 C172.5 29.99, 157.3 16.78, 137.89 -0.1 M187.7 43.2 C169.9 27.73, 152.1 12.25, 137.89 -0.1 M187.66 32.57 C173.79 20.51, 159.92 8.45, 149.93 -0.23 M187.66 32.57 C178.36 24.48, 169.05 16.39, 149.93 -0.23 M187.63 21.94 C178.53 14.03, 169.42 6.12, 161.97 -0.37 M187.63 21.94 C181.55 16.66, 175.48 11.38, 161.97 -0.37 M187.59 11.31 C183.93 8.12, 180.26 4.94, 174.01 -0.5 M187.59 11.31 C184.35 8.49, 181.11 5.67, 174.01 -0.5 M187.56 0.68 C187 0.19, 186.43 -0.3, 186.05 -0.63 M187.56 0.68 C187 0.19, 186.43 -0.3, 186.05 -0.63" stroke="#4c6ef588" stroke-width="1" fill="none"></path><path d="M0 0 C59.33 0, 118.66 0, 187.44 0 M0 0 C37.74 0, 75.48 0, 187.44 0 M187.44 0 C187.44 64.77, 187.44 129.53, 187.44 187.44 M187.44 0 C187.44 39.33, 187.44 78.66, 187.44 187.44 M187.44 187.44 C146.65 187.44, 105.87 187.44, 0 187.44 M187.44 187.44 C130.85 187.44, 74.27 187.44, 0 187.44 M0 187.44 C0 116.51, 0 45.59, 0 0 M0 187.44 C0 122.86, 0 58.29, 0 0" stroke="#000000" stroke-width="2" fill="none"></path></g><g stroke-linecap="round"><g transform="translate(1031.2141691749357 559.2401940305652) rotate(347.8150297286332 6.502067480581331 9.805950294362631)"><path d="M0 0 C5.16 7.78, 10.32 15.56, 13 19.61 M0 0 C3.45 5.2, 6.9 10.41, 13 19.61" stroke="#000000" stroke-width="2" fill="none"></path></g></g><mask></mask><g stroke-linecap="round"><g transform="translate(1041.3034078899498 437.788694151272) rotate(1.7147489031136585 -7.0249159656489155 10.35079043229048)"><path d="M0 0 C-4.22 6.22, -8.44 12.44, -14.05 20.7 M0 0 C-4.08 6.01, -8.16 12.02, -14.05 20.7" stroke="#000000" stroke-width="2" fill="none"></path></g></g><mask></mask><g stroke-linecap="round"><g transform="translate(1053.4544891612225 568.28626602688) rotate(330.3350417630171 -10.119975795541905 7.237469469954671)"><path d="M0 0 C-2.07 3.91, -4.13 7.82, -7.65 14.47 M0 0 C-1.58 2.99, -3.16 5.98, -7.65 14.47 M-7.65 14.47 C-10.55 12.49, -13.45 10.51, -20.24 5.86 M-7.65 14.47 C-11.31 11.97, -14.97 9.46, -20.24 5.86" stroke="#000000" stroke-width="2" fill="none"></path></g></g><mask></mask><g stroke-linecap="round"><g transform="translate(917.8240489484283 435.93478943173477) rotate(142.4753661383674 -9.332443797790916 6.377637854435079)"><path d="M0 0 C-2.19 3.17, -4.37 6.35, -8.79 12.76 M0 0 C-1.86 2.7, -3.72 5.4, -8.79 12.76 M-8.79 12.76 C-11.07 10.09, -13.34 7.43, -18.66 1.2 M-8.79 12.76 C-10.99 10.18, -13.2 7.6, -18.66 1.2" stroke="#000000" stroke-width="2" fill="none"></path></g></g><mask></mask><g stroke-linecap="round"><g transform="translate(908.553611470707 439.77598838342766) rotate(347.8150297286332 6.502067480581331 9.805950294362631)"><path d="M0 0 C3.43 5.18, 6.87 10.36, 13 19.61 M0 0 C3.06 4.61, 6.11 9.22, 13 19.61" stroke="#000000" stroke-width="2" fill="none"></path></g></g><mask></mask><g stroke-linecap="round"><g transform="translate(923.0224090136517 558.5240460848433) rotate(3.9451862290376525 -7.0249159656489155 10.350790432290479)"><path d="M0 0 C-4.39 6.47, -8.79 12.95, -14.05 20.7 M0 0 C-4.27 6.29, -8.54 12.59, -14.05 20.7" stroke="#000000" stroke-width="2" fill="none"></path></g></g><mask></mask><g stroke-linecap="round"><g transform="translate(1050.626333710099 433.65803929013083) rotate(220.82937908555525 -9.332443797790916 6.377637854435079)"><path d="M0 0 C-3.04 4.41, -6.07 8.81, -8.79 12.76 M0 0 C-1.84 2.68, -3.69 5.35, -8.79 12.76 M-8.79 12.76 C-10.94 10.24, -13.09 7.73, -18.66 1.2 M-8.79 12.76 C-11.77 9.27, -14.75 5.78, -18.66 1.2" stroke="#000000" stroke-width="2" fill="none"></path></g></g><mask></mask><g stroke-linecap="round"><g transform="translate(917.9042886806683 570.7750851260353) rotate(38.039922017610984 -9.332443797790916 6.377637854435073)"><path d="M0 0 C-3.08 4.48, -6.17 8.95, -8.79 12.76 M0 0 C-2.4 3.48, -4.8 6.96, -8.79 12.76 M-8.79 12.76 C-10.97 10.2, -13.15 7.65, -18.66 1.2 M-8.79 12.76 C-11.42 9.68, -14.05 6.6, -18.66 1.2" stroke="#000000" stroke-width="2" fill="none"></path></g></g><mask></mask><g stroke-linecap="round"><g transform="translate(942.1278328301062 467.9580620834949) rotate(0 33.31630849573878 43.303507752347215)"><path d="M0 0 C0 12.24, -0.19 59, 0 73.45 C0.19 87.91, -0.36 83.71, 1.17 86.74 C2.7 89.76, 5.84 90.16, 9.18 91.62 C12.52 93.07, 17.05 94.67, 21.18 95.48 C25.32 96.28, 30.03 96.47, 33.98 96.47 C37.94 96.47, 41.38 96.05, 44.91 95.48 C48.44 94.9, 51.75 94.57, 55.16 93.02 C58.57 91.48, 63.56 89.47, 65.38 86.21 C67.2 82.95, 65.87 86.15, 66.08 73.45 C66.29 60.75, 66.68 22.3, 66.63 10.01 C66.58 -2.29, 67.31 2.32, 65.79 -0.32 C64.27 -2.96, 60.44 -4.39, 57.51 -5.83 C54.58 -7.27, 51.78 -8.28, 48.21 -8.95 C44.65 -9.62, 39.42 -9.72, 36.13 -9.86 C32.84 -10.01, 32.46 -10.17, 28.46 -9.84 C24.46 -9.5, 16.87 -9.49, 12.13 -7.85 C7.38 -6.21, 2.02 -1.31, 0 0 M0 0 C0 12.24, -0.19 59, 0 73.45 C0.19 87.91, -0.36 83.71, 1.17 86.74 C2.7 89.76, 5.84 90.16, 9.18 91.62 C12.52 93.07, 17.05 94.67, 21.18 95.48 C25.32 96.28, 30.03 96.47, 33.98 96.47 C37.94 96.47, 41.38 96.05, 44.91 95.48 C48.44 94.9, 51.75 94.57, 55.16 93.02 C58.57 91.48, 63.56 89.47, 65.38 86.21 C67.2 82.95, 65.87 86.15, 66.08 73.45 C66.29 60.75, 66.68 22.3, 66.63 10.01 C66.58 -2.29, 67.31 2.32, 65.79 -0.32 C64.27 -2.96, 60.44 -4.39, 57.51 -5.83 C54.58 -7.27, 51.78 -8.28, 48.21 -8.95 C44.65 -9.62, 39.42 -9.72, 36.13 -9.86 C32.84 -10.01, 32.46 -10.17, 28.46 -9.84 C24.46 -9.5, 16.87 -9.49, 12.13 -7.85 C7.38 -6.21, 2.02 -1.31, 0 0" stroke="#000000" stroke-width="2" fill="none"></path></g></g><mask></mask><g stroke-linecap="round" transform="translate(941.8824996794467 457.7395728205606) rotate(0 33.25732057970731 9.042495153210673)"><path d="M66.51 9.04 C66.51 9.57, 66.34 10.1, 66.01 10.61 C65.68 11.13, 65.17 11.64, 64.51 12.14 C63.85 12.63, 63.02 13.11, 62.06 13.56 C61.1 14.02, 59.97 14.45, 58.73 14.85 C57.5 15.26, 56.11 15.63, 54.63 15.97 C53.16 16.31, 51.55 16.61, 49.89 16.87 C48.22 17.14, 46.44 17.36, 44.63 17.54 C42.82 17.72, 40.93 17.86, 39.03 17.95 C37.14 18.04, 35.18 18.08, 33.26 18.08 C31.33 18.08, 29.38 18.04, 27.48 17.95 C25.59 17.86, 23.69 17.72, 21.88 17.54 C20.07 17.36, 18.3 17.14, 16.63 16.87 C14.96 16.61, 13.35 16.31, 11.88 15.97 C10.41 15.63, 9.02 15.26, 7.78 14.85 C6.54 14.45, 5.42 14.02, 4.46 13.56 C3.49 13.11, 2.66 12.63, 2.01 12.14 C1.35 11.64, 0.84 11.13, 0.51 10.61 C0.17 10.1, 0 9.57, 0 9.04 C0 8.52, 0.17 7.99, 0.51 7.47 C0.84 6.96, 1.35 6.44, 2.01 5.95 C2.66 5.46, 3.49 4.97, 4.46 4.52 C5.42 4.07, 6.54 3.63, 7.78 3.23 C9.02 2.83, 10.41 2.45, 11.88 2.12 C13.35 1.78, 14.96 1.47, 16.63 1.21 C18.3 0.95, 20.07 0.72, 21.88 0.55 C23.69 0.37, 25.59 0.23, 27.48 0.14 C29.38 0.05, 31.33 0, 33.26 0 C35.18 0, 37.14 0.05, 39.03 0.14 C40.93 0.23, 42.82 0.37, 44.63 0.55 C46.44 0.72, 48.22 0.95, 49.89 1.21 C51.55 1.47, 53.16 1.78, 54.63 2.12 C56.11 2.45, 57.5 2.83, 58.73 3.23 C59.97 3.63, 61.1 4.07, 62.06 4.52 C63.02 4.97, 63.85 5.46, 64.51 5.95 C65.17 6.44, 65.68 6.96, 66.01 7.47 C66.34 7.99, 66.43 8.78, 66.51 9.04 C66.6 9.3, 66.6 8.78, 66.51 9.04" stroke="none" stroke-width="0" fill="#ffffff"></path><path d="M66.51 9.04 C66.51 9.57, 66.34 10.1, 66.01 10.61 C65.68 11.13, 65.17 11.64, 64.51 12.14 C63.85 12.63, 63.02 13.11, 62.06 13.56 C61.1 14.02, 59.97 14.45, 58.73 14.85 C57.5 15.26, 56.11 15.63, 54.63 15.97 C53.16 16.31, 51.55 16.61, 49.89 16.87 C48.22 17.14, 46.44 17.36, 44.63 17.54 C42.82 17.72, 40.93 17.86, 39.03 17.95 C37.14 18.04, 35.18 18.08, 33.26 18.08 C31.33 18.08, 29.38 18.04, 27.48 17.95 C25.59 17.86, 23.69 17.72, 21.88 17.54 C20.07 17.36, 18.3 17.14, 16.63 16.87 C14.96 16.61, 13.35 16.31, 11.88 15.97 C10.41 15.63, 9.02 15.26, 7.78 14.85 C6.54 14.45, 5.42 14.02, 4.46 13.56 C3.49 13.11, 2.66 12.63, 2.01 12.14 C1.35 11.64, 0.84 11.13, 0.51 10.61 C0.17 10.1, 0 9.57, 0 9.04 C0 8.52, 0.17 7.99, 0.51 7.47 C0.84 6.96, 1.35 6.44, 2.01 5.95 C2.66 5.46, 3.49 4.97, 4.46 4.52 C5.42 4.07, 6.54 3.63, 7.78 3.23 C9.02 2.83, 10.41 2.45, 11.88 2.12 C13.35 1.78, 14.96 1.47, 16.63 1.21 C18.3 0.95, 20.07 0.72, 21.88 0.55 C23.69 0.37, 25.59 0.23, 27.48 0.14 C29.38 0.05, 31.33 0, 33.26 0 C35.18 0, 37.14 0.05, 39.03 0.14 C40.93 0.23, 42.82 0.37, 44.63 0.55 C46.44 0.72, 48.22 0.95, 49.89 1.21 C51.55 1.47, 53.16 1.78, 54.63 2.12 C56.11 2.45, 57.5 2.83, 58.73 3.23 C59.97 3.63, 61.1 4.07, 62.06 4.52 C63.02 4.97, 63.85 5.46, 64.51 5.95 C65.17 6.44, 65.68 6.96, 66.01 7.47 C66.34 7.99, 66.43 8.78, 66.51 9.04 C66.6 9.3, 66.6 8.78, 66.51 9.04" stroke="#000000" stroke-width="2" fill="none"></path></g><g stroke-linecap="round"><g transform="translate(943.0337041035409 494.208739927886) rotate(0 32.70064079498013 3.3211612049629906)"><path d="M0 0 C0.33 0.35, 0.84 1.4, 1.96 2.12 C3.08 2.85, 4.98 3.74, 6.72 4.33 C8.46 4.91, 9.61 5.14, 12.42 5.66 C15.23 6.17, 19.94 7.1, 23.59 7.41 C27.24 7.72, 30.95 7.6, 34.32 7.52 C37.7 7.44, 40.88 7.2, 43.83 6.92 C46.79 6.64, 49.4 6.35, 52.06 5.82 C54.72 5.3, 57.86 4.5, 59.81 3.78 C61.77 3.05, 62.89 2.26, 63.82 1.49 C64.75 0.71, 65.14 -0.49, 65.4 -0.88 M0 0 C0.33 0.35, 0.84 1.4, 1.96 2.12 C3.08 2.85, 4.98 3.74, 6.72 4.33 C8.46 4.91, 9.61 5.14, 12.42 5.66 C15.23 6.17, 19.94 7.1, 23.59 7.41 C27.24 7.72, 30.95 7.6, 34.32 7.52 C37.7 7.44, 40.88 7.2, 43.83 6.92 C46.79 6.64, 49.4 6.35, 52.06 5.82 C54.72 5.3, 57.86 4.5, 59.81 3.78 C61.77 3.05, 62.89 2.26, 63.82 1.49 C64.75 0.71, 65.14 -0.49, 65.4 -0.88" stroke="#000000" stroke-width="2" fill="none"></path></g></g><mask></mask><g stroke-linecap="round"><g transform="translate(941.1843068132264 525.1252722797407) rotate(0 32.70064079498013 3.321161204962994)"><path d="M0 0 C0.33 0.35, 0.84 1.4, 1.96 2.12 C3.08 2.85, 4.98 3.74, 6.72 4.33 C8.46 4.91, 9.61 5.14, 12.42 5.66 C15.23 6.17, 19.94 7.1, 23.59 7.41 C27.24 7.72, 30.95 7.6, 34.32 7.52 C37.7 7.44, 40.88 7.2, 43.83 6.92 C46.79 6.64, 49.4 6.35, 52.06 5.82 C54.72 5.3, 57.86 4.5, 59.81 3.78 C61.77 3.05, 62.89 2.26, 63.82 1.49 C64.75 0.71, 65.14 -0.49, 65.4 -0.88 M0 0 C0.33 0.35, 0.84 1.4, 1.96 2.12 C3.08 2.85, 4.98 3.74, 6.72 4.33 C8.46 4.91, 9.61 5.14, 12.42 5.66 C15.23 6.17, 19.94 7.1, 23.59 7.41 C27.24 7.72, 30.95 7.6, 34.32 7.52 C37.7 7.44, 40.88 7.2, 43.83 6.92 C46.79 6.64, 49.4 6.35, 52.06 5.82 C54.72 5.3, 57.86 4.5, 59.81 3.78 C61.77 3.05, 62.89 2.26, 63.82 1.49 C64.75 0.71, 65.14 -0.49, 65.4 -0.88" stroke="#000000" stroke-width="2" fill="none"></path></g></g><mask></mask><g stroke-linecap="round"><g transform="translate(940.9591057901473 486.71231513278025) rotate(345.7367506517737 -13.410328515313154 25.447831051086222)"><path d="M0 0 C-1.66 0.37, -7.16 1.13, -9.98 2.22 C-12.8 3.31, -14.93 4.89, -16.92 6.53 C-18.91 8.17, -20.42 9.65, -21.92 12.06 C-23.42 14.47, -25.1 18.37, -25.91 21.01 C-26.73 23.64, -27.03 25.07, -26.82 27.87 C-26.61 30.67, -25.71 34.91, -24.64 37.78 C-23.57 40.66, -22.16 42.94, -20.41 45.13 C-18.65 47.31, -15.15 49.93, -14.1 50.9 M0 0 C-1.66 0.37, -7.16 1.13, -9.98 2.22 C-12.8 3.31, -14.93 4.89, -16.92 6.53 C-18.91 8.17, -20.42 9.65, -21.92 12.06 C-23.42 14.47, -25.1 18.37, -25.91 21.01 C-26.73 23.64, -27.03 25.07, -26.82 27.87 C-26.61 30.67, -25.71 34.91, -24.64 37.78 C-23.57 40.66, -22.16 42.94, -20.41 45.13 C-18.65 47.31, -15.15 49.93, -14.1 50.9" stroke="#000000" stroke-width="2" fill="none"></path></g></g><mask></mask><g stroke-linecap="round"><g transform="translate(1007.8077727120674 486.7756006365556) rotate(17.81142405980979 15.24517934668495 25.976149175706695)"><path d="M0 0 C1.89 0.38, 8.14 1.16, 11.35 2.27 C14.55 3.38, 16.98 5, 19.24 6.67 C21.5 8.34, 23.22 9.85, 24.92 12.31 C26.62 14.77, 28.53 18.75, 29.46 21.44 C30.39 24.13, 30.73 25.59, 30.49 28.45 C30.25 31.3, 29.22 35.63, 28.01 38.57 C26.79 41.5, 25.19 43.83, 23.2 46.06 C21.2 48.29, 17.22 50.97, 16.03 51.95 M0 0 C1.89 0.38, 8.14 1.16, 11.35 2.27 C14.55 3.38, 16.98 5, 19.24 6.67 C21.5 8.34, 23.22 9.85, 24.92 12.31 C26.62 14.77, 28.53 18.75, 29.46 21.44 C30.39 24.13, 30.73 25.59, 30.49 28.45 C30.25 31.3, 29.22 35.63, 28.01 38.57 C26.79 41.5, 25.19 43.83, 23.2 46.06 C21.2 48.29, 17.22 50.97, 16.03 51.95" stroke="#000000" stroke-width="2" fill="none"></path></g></g><mask></mask><g stroke-linecap="round" transform="translate(10 168.5470464198346) rotate(0 182.08237180065473 145.6658974405238)"><path d="M32 0 C105.27 -2.84, 181.82 -0.77, 332.16 0 M32 0 C131.86 1.05, 232 1.2, 332.16 0 M332.16 0 C354.53 -0.65, 364.47 11.31, 364.16 32 M332.16 0 C352.55 -0.12, 365.31 11.87, 364.16 32 M364.16 32 C363.3 86.73, 362.77 140.19, 364.16 259.33 M364.16 32 C365.13 101.32, 363.98 171.2, 364.16 259.33 M364.16 259.33 C363.86 281.44, 353.15 292.31, 332.16 291.33 M364.16 259.33 C365.41 279.39, 352.87 291.13, 332.16 291.33 M332.16 291.33 C236.21 289.85, 141.33 291.93, 32 291.33 M332.16 291.33 C215.85 292.93, 98.31 293.9, 32 291.33 M32 291.33 C11.43 293.18, 0.83 282.02, 0 259.33 M32 291.33 C8.81 290.61, 1.35 282.25, 0 259.33 M0 259.33 C2.34 173.24, 2.73 86.67, 0 32 M0 259.33 C-1.09 190.19, -1.07 120.95, 0 32 M0 32 C1.54 10.75, 11.46 -0.61, 32 0 M0 32 C-0.35 10.65, 11.26 0.36, 32 0" stroke="#1e1e1e" stroke-width="2" fill="none"></path></g><g transform="translate(100.31837186168985 291.7129438603584) rotate(0 91.76399993896484 22.5)"><text x="91.76399993896484" y="0" font-family="Virgil, Segoe UI Emoji" font-size="36px" fill="#1e1e1e" text-anchor="middle" style="white-space: pre;" direction="ltr" dominant-baseline="text-before-edge">Application</text></g><g stroke-linecap="round"><g transform="translate(384.3613564221461 229.72672334485458) rotate(0 249.81701411049846 -68.46297179704621)"><path d="M1.05 0.57 C84.18 -22.18, 415.29 -114.54, 498.58 -137.42 M0.14 -0.17 C83.65 -22.68, 417.33 -113.63, 500.74 -136.14" stroke="#1e1e1e" stroke-width="2" fill="none"></path></g><g transform="translate(384.3613564221461 229.72672334485458) rotate(0 249.81701411049846 -68.46297179704621)"><path d="M21.4 -13.95 C16.5 -11.42, 8.97 -3.65, 1.05 0.57 M21.4 -13.95 C14.95 -9.21, 8.93 -3.62, 1.05 0.57" stroke="#1e1e1e" stroke-width="2" fill="none"></path></g><g transform="translate(384.3613564221461 229.72672334485458) rotate(0 249.81701411049846 -68.46297179704621)"><path d="M25.97 2.53 C19.9 0.44, 11.08 3.56, 1.05 0.57 M25.97 2.53 C17.92 1.97, 10.43 2.26, 1.05 0.57" stroke="#1e1e1e" stroke-width="2" fill="none"></path></g><g transform="translate(384.3613564221461 229.72672334485458) rotate(0 249.81701411049846 -68.46297179704621)"><path d="M480.31 -121.73 C487.14 -127.74, 491.14 -128.14, 500.74 -136.14 M480.31 -121.73 C486.74 -126.37, 493.84 -130.08, 500.74 -136.14" stroke="#1e1e1e" stroke-width="2" fill="none"></path></g><g transform="translate(384.3613564221461 229.72672334485458) rotate(0 249.81701411049846 -68.46297179704621)"><path d="M475.83 -138.24 C483.81 -139.62, 489.07 -135.36, 500.74 -136.14 M475.83 -138.24 C483.83 -137.57, 492.37 -135.97, 500.74 -136.14" stroke="#1e1e1e" stroke-width="2" fill="none"></path></g></g><mask></mask><g stroke-linecap="round"><g transform="translate(387.2746743709567 295.2763771930903) rotate(0 249.81701411049835 -76.47459615627503)"><path d="M-1.08 0.08 C82.23 -25.53, 416.47 -126.85, 499.79 -152.52" stroke="#1e1e1e" stroke-width="2.5" fill="none" stroke-dasharray="8 10"></path></g><g transform="translate(387.2746743709567 295.2763771930903) rotate(0 249.81701411049835 -76.47459615627503)"><path d="M479.82 -137.48 C485.72 -141.49, 492.21 -147.49, 499.79 -152.52" stroke="#1e1e1e" stroke-width="2.5" fill="none"></path></g><g transform="translate(387.2746743709567 295.2763771930903) rotate(0 249.81701411049835 -76.47459615627503)"><path d="M474.83 -153.84 C482.36 -152.96, 490.33 -154.12, 499.79 -152.52" stroke="#1e1e1e" stroke-width="2.5" fill="none"></path></g></g><mask></mask><g stroke-linecap="round"><g transform="translate(854.8622051550383 513.775223353876) rotate(0 -230.15211795602772 -73.56127820746451)"><path d="M0.51 0.72 C-76.15 -23.71, -382.58 -122.43, -459.54 -147.16" stroke="#1e1e1e" stroke-width="2.5" fill="none" stroke-dasharray="8 10"></path></g><g transform="translate(854.8622051550383 513.775223353876) rotate(0 -230.15211795602772 -73.56127820746451)"><path d="M-434.55 -148.1 C-441.81 -146.4, -451.52 -148.91, -459.54 -147.16" stroke="#1e1e1e" stroke-width="2.5" fill="none"></path></g><g transform="translate(854.8622051550383 513.775223353876) rotate(0 -230.15211795602772 -73.56127820746451)"><path d="M-439.79 -131.82 C-445.2 -135.65, -453.13 -143.66, -459.54 -147.16" stroke="#1e1e1e" stroke-width="2.5" fill="none"></path></g></g><mask></mask><g transform="translate(537.3105487346963 104.45405154600411) rotate(347.0294712184484 71.27999877929688 22.5)"><text x="0" y="0" font-family="Virgil, Segoe UI Emoji" font-size="36px" fill="#1e1e1e" text-anchor="start" style="white-space: pre;" direction="ltr" dominant-baseline="text-before-edge">캐시 히트</text></g><g transform="translate(630.5367230966315 222.44342847282837) rotate(344.72581460181584 89.71199798583984 22.5)"><text x="0" y="0" font-family="Virgil, Segoe UI Emoji" font-size="36px" fill="#1e1e1e" text-anchor="start" style="white-space: pre;" direction="ltr" dominant-baseline="text-before-edge">캐시 미스(1)</text></g><g transform="translate(466.2547170341705 442.570960887343) rotate(19.213923783715636 97.6500015258789 22.5)"><text x="0" y="0" font-family="Virgil, Segoe UI Emoji" font-size="36px" fill="#1e1e1e" text-anchor="start" style="white-space: pre;" direction="ltr" dominant-baseline="text-before-edge">캐시 미스(2)</text></g><g stroke-linecap="round"><g transform="translate(921.8685179776792 161.2637515478084) rotate(0 -256.37197949532197 152.22086282534735)"><path d="M0.11 0.24 C-85.4 27.69, -500.28 115.1, -512.99 165.67 C-525.7 216.24, -149.21 280.43, -76.16 303.65" stroke="#1e1e1e" stroke-width="2.5" fill="none" stroke-dasharray="8 10"></path></g><g transform="translate(921.8685179776792 161.2637515478084) rotate(0 -256.37197949532197 152.22086282534735)"><path d="M-20.3 14.67 C-13.79 9.83, -6.16 5.15, 0.11 0.24" stroke="#1e1e1e" stroke-width="2.5" fill="none"></path></g><g transform="translate(921.8685179776792 161.2637515478084) rotate(0 -256.37197949532197 152.22086282534735)"><path d="M-24.8 -1.83 C-16.77 -1.63, -7.78 -1.27, 0.11 0.24" stroke="#1e1e1e" stroke-width="2.5" fill="none"></path></g><g transform="translate(921.8685179776792 161.2637515478084) rotate(0 -256.37197949532197 152.22086282534735)"><path d="M-100.99 306.57 C-93.02 305.24, -84.06 304.07, -76.16 303.65" stroke="#1e1e1e" stroke-width="2.5" fill="none"></path></g><g transform="translate(921.8685179776792 161.2637515478084) rotate(0 -256.37197949532197 152.22086282534735)"><path d="M-97.05 289.92 C-90.16 293.69, -82.39 297.61, -76.16 303.65" stroke="#1e1e1e" stroke-width="2.5" fill="none"></path></g></g><mask></mask></svg>