<svg version="1.1" xmlns="http://www.w3.org/2000/svg" viewBox="0 0 949.7480115983522 128.05970006788465" width="1899.4960231967043" height="256.1194001357693">
  <!-- svg-source:excalidraw -->
  
  <defs>
    <style class="style-fonts">
      @font-face {
        font-family: "Virgil";
        src: url("https://excalidraw.com/Virgil.woff2");
      }
      @font-face {
        font-family: "Cascadia";
        src: url("https://excalidraw.com/Cascadia.woff2");
      }
      @font-face {
        font-family: "Assistant";
        src: url("https://excalidraw.com/Assistant-Regular.woff2");
      }
    </style>
    
  </defs>
  <rect x="0" y="0" width="949.7480115983522" height="128.05970006788465" fill="#ffffff"></rect><g stroke-linecap="round" transform="translate(9.999999999999886 21.546249700512107) rotate(0 57.7312485025588 47.8344630449773)"><path d="M37.38 3.18 C45.45 -0.25, 56.81 -1.11, 66.22 0.32 C75.62 1.75, 86.35 6.73, 93.81 11.73 C101.27 16.74, 107.58 23.07, 111 30.35 C114.43 37.63, 115.81 47.3, 114.36 55.42 C112.92 63.54, 108.34 72.78, 102.32 79.08 C96.3 85.38, 87.22 90.69, 78.24 93.23 C69.25 95.77, 57.91 95.61, 48.39 94.31 C38.87 93.01, 28.6 90.53, 21.13 85.43 C13.66 80.32, 7 71.16, 3.57 63.68 C0.15 56.19, -0.89 48.22, 0.57 40.52 C2.03 32.81, 5.84 23.75, 12.31 17.44 C18.78 11.14, 34.45 5.22, 39.4 2.67 C44.35 0.11, 41.45 1.48, 42 2.11 M41.53 1.74 C50.17 -0.81, 63.62 -0.58, 73.02 1.27 C82.43 3.13, 91.37 7.09, 97.97 12.86 C104.57 18.63, 109.85 27.82, 112.62 35.89 C115.39 43.95, 116.75 53.85, 114.58 61.24 C112.41 68.63, 106.66 74.83, 99.61 80.21 C92.56 85.6, 81.61 91.36, 72.28 93.55 C62.95 95.73, 53.01 95.06, 43.62 93.32 C34.23 91.59, 22.65 88.45, 15.93 83.14 C9.21 77.82, 5.71 69.13, 3.31 61.42 C0.91 53.72, -0.52 44.92, 1.52 36.89 C3.57 28.87, 8.6 19.28, 15.58 13.28 C22.57 7.28, 38.84 2.72, 43.44 0.9 C48.04 -0.91, 42.89 1.43, 43.17 2.37" stroke="#1e1e1e" stroke-width="2" fill="none"></path></g><g transform="translate(41.959092344442865 57.056639551968644) rotate(0 25.94999885559082 12.5)"><text x="25.94999885559082" y="0" font-family="Virgil, Segoe UI Emoji" font-size="20px" fill="#1e1e1e" text-anchor="middle" style="white-space: pre;" direction="ltr" dominant-baseline="text-before-edge">생산자</text></g><g stroke-linecap="round"><g transform="translate(399.25296550077087 25.06783782259035) rotate(0 21.752970612975673 0.0052178129416020624)"><path d="M0 0 C7.25 0, 36.25 0.01, 43.51 0.01 M0 0 C7.25 0, 36.25 0.01, 43.51 0.01" stroke="#000000" stroke-width="1" fill="none"></path></g></g><mask></mask><g stroke-linecap="round"><g transform="translate(439.7710222633186 25.06783782259035) rotate(0 0 46.49593112264715)"><path d="M0 0 C0 15.5, 0 77.49, 0 92.99 M0 0 C0 15.5, 0 77.49, 0 92.99" stroke="#000000" stroke-width="1" fill="none"></path></g></g><mask></mask><g stroke-linecap="round"><g transform="translate(439.7710222633186 118.0554892013019) rotate(0 42.75311151311337 -1.5055678850980119)"><path d="M0 0 C14.25 -0.5, 71.26 -2.51, 85.51 -3.01 M0 0 C14.25 -0.5, 71.26 -2.51, 85.51 -3.01" stroke="#000000" stroke-width="1" fill="none"></path></g></g><mask></mask><g stroke-linecap="round"><g transform="translate(525.2596694985841 115.03245315597589) rotate(0 -0.5243810434872103 -46.95745124026734)"><path d="M0 0 C-0.17 -15.65, -0.87 -78.26, -1.05 -93.91 M0 0 C-0.17 -15.65, -0.87 -78.26, -1.05 -93.91" stroke="#000000" stroke-width="1" fill="none"></path></g></g><mask></mask><g stroke-linecap="round"><g transform="translate(522.2893608261418 23.60080852079787) rotate(0 16.02721758580526 0.535844895293792)"><path d="M0 0 C5.34 0.18, 26.71 0.89, 32.05 1.07 M0 0 C5.34 0.18, 26.71 0.89, 32.05 1.07" stroke="#000000" stroke-width="1" fill="none"></path></g></g><mask></mask><g stroke-linecap="round" transform="translate(438.27122143462975 59.59163446159144) rotate(0 43.503011927457806 26.984880803581348)"><path d="M0 0 C0 0, 0 0, 0 0 M0 0 C0 0, 0 0, 0 0 M-0.26 6.4 C1.65 4.19, 3.57 1.99, 4.99 0.36 M-0.26 6.4 C1.16 4.76, 2.59 3.12, 4.99 0.36 M0.13 12.04 C3.2 8.52, 6.26 4.99, 10.63 -0.03 M0.13 12.04 C3.93 7.67, 7.73 3.31, 10.63 -0.03 M-0.13 18.44 C4.91 12.64, 9.95 6.84, 15.62 0.33 M-0.13 18.44 C3.03 14.81, 6.19 11.18, 15.62 0.33 M0.27 24.08 C7.54 15.71, 14.82 7.34, 21.26 -0.07 M0.27 24.08 C4.62 19.07, 8.97 14.07, 21.26 -0.07 M0 30.48 C6.3 23.24, 12.59 16, 26.25 0.29 M0 30.48 C9.78 19.23, 19.56 7.98, 26.25 0.29 M-0.26 36.88 C7.89 27.5, 16.04 18.12, 31.89 -0.1 M-0.26 36.88 C7.64 27.79, 15.54 18.71, 31.89 -0.1 M0.14 42.52 C8.9 32.45, 17.65 22.37, 36.88 0.26 M0.14 42.52 C11.98 28.9, 23.82 15.27, 36.88 0.26 M-0.12 48.92 C10.75 36.41, 21.62 23.9, 42.52 -0.14 M-0.12 48.92 C9.8 37.51, 19.71 26.1, 42.52 -0.14 M0.27 54.56 C18.51 33.58, 36.75 12.6, 47.51 0.22 M0.27 54.56 C15.75 36.75, 31.24 18.94, 47.51 0.22 M5.91 54.17 C22.42 35.18, 38.92 16.2, 53.15 -0.17 M5.91 54.17 C18.58 39.59, 31.25 25.02, 53.15 -0.17 M10.9 54.53 C25.53 37.7, 40.15 20.88, 58.14 0.19 M10.9 54.53 C20.85 43.08, 30.8 31.64, 58.14 0.19 M16.54 54.13 C30.32 38.29, 44.09 22.45, 63.78 -0.21 M16.54 54.13 C35.25 32.62, 53.95 11.1, 63.78 -0.21 M21.53 54.49 C40.04 33.19, 58.56 11.9, 68.77 0.15 M21.53 54.49 C37.43 36.21, 53.32 17.92, 68.77 0.15 M27.17 54.1 C45.71 32.77, 64.25 11.44, 74.41 -0.24 M27.17 54.1 C36.78 43.04, 46.39 31.99, 74.41 -0.24 M32.16 54.46 C49.74 34.24, 67.32 14.01, 79.4 0.12 M32.16 54.46 C42.3 42.8, 52.43 31.14, 79.4 0.12 M37.8 54.06 C52.9 36.7, 67.99 19.33, 85.04 -0.28 M37.8 54.06 C48.28 42.02, 58.75 29.97, 85.04 -0.28 M42.79 54.42 C58.21 36.68, 73.63 18.94, 87.4 3.1 M42.79 54.42 C56.08 39.13, 69.38 23.84, 87.4 3.1 M48.43 54.03 C59.9 40.84, 71.37 27.65, 87.14 9.5 M48.43 54.03 C61.04 39.53, 73.65 25.03, 87.14 9.5 M53.42 54.39 C65.85 40.1, 78.27 25.8, 87.54 15.14 M53.42 54.39 C66.5 39.34, 79.58 24.29, 87.54 15.14 M59.06 53.99 C67.59 44.18, 76.12 34.37, 87.28 21.54 M59.06 53.99 C68.49 43.16, 77.91 32.32, 87.28 21.54 M64.05 54.35 C69.46 48.13, 74.87 41.91, 87.01 27.94 M64.05 54.35 C68.91 48.77, 73.76 43.18, 87.01 27.94 M69.04 54.71 C74.07 48.93, 79.1 43.14, 87.41 33.58 M69.04 54.71 C72.88 50.3, 76.72 45.88, 87.41 33.58 M74.68 54.32 C78.72 49.67, 82.76 45.03, 87.15 39.98 M74.68 54.32 C78 50.5, 81.32 46.68, 87.15 39.98 M79.67 54.68 C82.06 51.93, 84.44 49.19, 87.54 45.62 M79.67 54.68 C81.69 52.35, 83.72 50.02, 87.54 45.62 M85.31 54.29 C86 53.49, 86.69 52.7, 87.28 52.02 M85.31 54.29 C86.05 53.43, 86.79 52.58, 87.28 52.02" stroke="#868e96" stroke-width="0.5" fill="none"></path><path d="M0 0 C31.43 0, 62.86 0, 87.01 0 M0 0 C32.57 0, 65.15 0, 87.01 0 M87.01 0 C87.01 14.74, 87.01 29.49, 87.01 53.97 M87.01 0 C87.01 17.6, 87.01 35.2, 87.01 53.97 M87.01 53.97 C56.49 53.97, 25.97 53.97, 0 53.97 M87.01 53.97 C57.26 53.97, 27.51 53.97, 0 53.97 M0 53.97 C0 42.28, 0 30.59, 0 0 M0 53.97 C0 32.6, 0 11.24, 0 0" stroke="#000000" stroke-width="1" fill="none"></path></g><g transform="translate(471.2756275612653 67.82900490656192) rotate(0 11.998406629510896 17.247709529921988)"><text x="11.998406629510947" y="0" font-family="Helvetica, Segoe UI Emoji" font-size="29.996016573777368px" fill="#000000" text-anchor="middle" style="white-space: pre;" direction="ltr" dominant-baseline="text-before-edge">Q</text></g><g stroke-linecap="round"><g transform="translate(235.97101493058585 34.78471372041142) rotate(0 30.233734130859375 -0.1092987060546875)"><path d="M0.48 -0.64 C10.51 -0.69, 51.36 -0.83, 61.19 -0.85 M-0.73 1.64 C9.12 1.79, 50.2 0.58, 60.62 0.36" stroke="#000000" stroke-width="1" fill="none"></path></g></g><mask></mask><g stroke-linecap="round"><g transform="translate(235.00290579972648 43.628387426466105) rotate(0 30.233734130859375 -0.1092987060546875)"><path d="M0.72 -0.63 C10.55 -0.64, 49.47 -0.86, 59.43 -0.71 M-0.36 1.66 C9.79 1.86, 51.58 1.14, 61.6 0.57" stroke="#000000" stroke-width="1" fill="none"></path></g></g><mask></mask><g stroke-linecap="round"><g transform="translate(236.48696036515616 54.20655057343876) rotate(0 30.233734130859375 -0.1092987060546875)"><path d="M-1.03 -0.49 C8.93 -0.34, 50.11 0.23, 60.53 0.29 M0.62 -1.8 C10.38 -1.95, 49.51 -2.07, 59.61 -1.57" stroke="#000000" stroke-width="1" fill="none"></path></g></g><mask></mask><g stroke-linecap="round"><g transform="translate(235.5188512342968 63.05022427949345) rotate(0 30.233734130859375 -0.1092987060546875)"><path d="M0.06 0.51 C10.48 0.57, 51.48 -0.21, 61.47 -0.14 M-1.37 -0.27 C9.07 0.04, 51 1.53, 61.05 1.44" stroke="#000000" stroke-width="1" fill="none"></path></g></g><mask></mask><g stroke-linecap="round"><g transform="translate(236.1004476088085 71.94308087739384) rotate(0 30.233734130859375 -0.1092987060546875)"><path d="M1.01 0.08 C10.99 0.15, 50.05 0.83, 59.99 0.93 M0.07 -0.92 C9.86 -1.2, 48.81 -0.54, 58.79 -0.58" stroke="#000000" stroke-width="1" fill="none"></path></g></g><mask></mask><g stroke-linecap="round"><g transform="translate(235.13233847794913 80.78675458344853) rotate(0 30.233734130859375 -0.1092987060546875)"><path d="M-0.48 1.15 C9.46 1.26, 50.66 1.08, 60.65 0.7 M1.47 0.71 C11.18 0.48, 49.74 -0.77, 59.79 -0.94" stroke="#000000" stroke-width="1" fill="none"></path></g></g><mask></mask><g stroke-linecap="round"><g transform="translate(236.61639304337882 91.36491773042118) rotate(0 30.233734130859375 -0.1092987060546875)"><path d="M0.18 0.92 C10.16 0.54, 49.54 -0.76, 59.42 -1.13 M-1.19 0.36 C9.2 0.61, 51.08 0.07, 61.59 -0.07" stroke="#000000" stroke-width="1" fill="none"></path></g></g><mask></mask><g stroke-linecap="round"><g transform="translate(235.64828391251945 100.20859143647587) rotate(0 30.233734130859375 -0.1092987060546875)"><path d="M-1.05 -0.91 C8.83 -1.28, 49.22 -1.59, 59.46 -1.28 M0.61 1.22 C10.83 0.89, 51.81 0.03, 61.64 -0.3" stroke="#000000" stroke-width="1" fill="none"></path></g></g><mask></mask><g stroke-linecap="round"><g transform="translate(227.6366399305864 23.147213720411486) rotate(0 0.593170166015625 44.77740478515625)"><path d="M-1.01 -1.06 C-0.65 14.21, 0.87 75.59, 1.11 90.72 M0.66 0.99 C0.94 16.04, -0.26 74.19, 0.12 89.2" stroke="#000000" stroke-width="1" fill="none"></path></g></g><mask></mask><g stroke-linecap="round"><g transform="translate(229.31940970597702 111.94796445283336) rotate(0 38.20728302001953 0.09243011474609375)"><path d="M-0.08 1.16 C12.71 1.39, 62.78 0.59, 75.68 0.31 M-1.58 0.73 C11.68 1.26, 64.9 1.96, 78 1.91" stroke="#000000" stroke-width="1" fill="none"></path></g></g><mask></mask><g stroke-linecap="round"><g transform="translate(306.6522649305863 113.16283872041149) rotate(0 -0.12176513671875 -41.72425842285156)"><path d="M-0.74 0.12 C-0.61 -14.09, 0.63 -70.27, 0.68 -84.15 M1.08 -0.86 C1.13 -14.42, 0.62 -68.91, 0.21 -82.97" stroke="#000000" stroke-width="1" fill="none"></path></g></g><mask></mask><g stroke-linecap="round"><g transform="translate(306.4022649305863 29.709713720411486) rotate(0 -5.3465576171875 -4.78912353515625)"><path d="M0.42 -0.32 C-1.32 -1.9, -8.93 -7.82, -10.8 -9.42 M-0.03 0.71 C-1.82 -1.05, -9.43 -8.61, -11.29 -10.3" stroke="#000000" stroke-width="1" fill="none"></path></g></g><mask></mask><g stroke-linecap="round"><g transform="translate(297.7333196180863 20.11866452607555) rotate(0 -34.70611572265625 1.6865158081054688)"><path d="M-0.24 0.35 C-12 0.91, -58.28 2.23, -69.65 2.69 M-1.82 -0.52 C-13.84 0.25, -59.57 3.06, -70.72 3.86" stroke="#000000" stroke-width="1" fill="none"></path></g></g><mask></mask><g stroke-linecap="round"><g transform="translate(638.5769685740224 32.582435028776594) rotate(0 30.233734130859375 -0.1092987060546875)"><path d="M0.3 1.14 C10.21 1.04, 49.99 -0.78, 59.92 -0.93 M-1.01 0.7 C8.66 0.77, 48.72 0.66, 58.68 0.24" stroke="#000000" stroke-width="1" fill="none"></path></g></g><mask></mask><g stroke-linecap="round"><g transform="translate(637.608859443163 41.42610873483128) rotate(0 30.233734130859375 -0.1092987060546875)"><path d="M-0.55 -0.71 C9.37 -0.86, 49.46 0.09, 59.82 0.26 M1.36 1.53 C11.65 1.53, 52.18 -1.07, 62.19 -1.61" stroke="#000000" stroke-width="1" fill="none"></path></g></g><mask></mask><g stroke-linecap="round"><g transform="translate(639.0929140085927 52.00427188180394) rotate(0 30.233734130859375 -0.1092987060546875)"><path d="M-0.65 0.48 C9.71 0.65, 51.46 0.4, 61.59 0.33 M1.21 -0.32 C11.56 -0.44, 51.56 -1.8, 61.24 -1.5" stroke="#000000" stroke-width="1" fill="none"></path></g></g><mask></mask><g stroke-linecap="round"><g transform="translate(638.1248048777334 60.847945587858625) rotate(0 30.233734130859375 -0.1092987060546875)"><path d="M1.13 0.55 C11.26 0.48, 50.35 0.32, 60.17 0.05 M0.26 -0.2 C10.27 -0.7, 49.27 -1.93, 59.07 -1.93" stroke="#000000" stroke-width="1" fill="none"></path></g></g><mask></mask><g stroke-linecap="round"><g transform="translate(638.7064012522451 69.74080218575901) rotate(0 30.233734130859375 -0.1092987060546875)"><path d="M-0.3 0.27 C9.52 0, 50.03 -0.8, 60.04 -1.06 M1.75 -0.63 C11.27 -0.82, 49.38 0.02, 58.87 0.04" stroke="#000000" stroke-width="1" fill="none"></path></g></g><mask></mask><g stroke-linecap="round"><g transform="translate(637.7382921213857 78.5844758918137) rotate(0 30.233734130859375 -0.1092987060546875)"><path d="M-0.43 -0.84 C9.59 -1.09, 49.61 -1.33, 59.79 -1.25 M1.55 1.34 C11.98 1.18, 52.4 -0.19, 62.15 -0.25" stroke="#000000" stroke-width="1" fill="none"></path></g></g><mask></mask><g stroke-linecap="round"><g transform="translate(639.2223466868154 89.16263903878635) rotate(0 30.233734130859375 -0.1092987060546875)"><path d="M-0.67 -1.03 C9.51 -0.94, 50.44 -0.33, 60.68 -0.31 M1.17 1.05 C11.26 1.41, 50.02 1.35, 59.85 1.18" stroke="#000000" stroke-width="1" fill="none"></path></g></g><mask></mask><g stroke-linecap="round"><g transform="translate(638.254237555956 98.00631274484104) rotate(0 30.233734130859375 -0.1092987060546875)"><path d="M0.22 -0.09 C10.46 -0.07, 50.63 -0.86, 60.77 -0.91 M-1.13 -1.18 C9.04 -0.93, 49.69 -0.08, 59.99 0.27" stroke="#000000" stroke-width="1" fill="none"></path></g></g><mask></mask><g stroke-linecap="round"><g transform="translate(630.242593574023 20.944935028776655) rotate(0 0.593170166015625 44.77740478515625)"><path d="M0.31 -0.69 C0.57 14.23, 1.78 74.2, 1.8 89.42 M-0.99 1.56 C-0.85 16.68, 0.52 76.33, 1.17 90.88" stroke="#000000" stroke-width="1" fill="none"></path></g></g><mask></mask><g stroke-linecap="round"><g transform="translate(631.9253633494136 109.74568576119853) rotate(0 38.20728302001953 0.09243011474609375)"><path d="M0.61 -0.14 C13.18 0.19, 63.04 1.16, 75.68 1.27 M-0.52 -1.25 C12.4 -1.18, 65.3 -0.22, 78 -0.28" stroke="#000000" stroke-width="1" fill="none"></path></g></g><mask></mask><g stroke-linecap="round"><g transform="translate(709.258218574023 110.96056002877665) rotate(0 -0.12176513671875 -41.72425842285156)"><path d="M-0.74 1.08 C-0.87 -12.74, -0.17 -69.2, -0.2 -83.09 M1.08 0.61 C0.73 -13.58, -0.61 -70.93, -1.13 -85.03" stroke="#000000" stroke-width="1" fill="none"></path></g></g><mask></mask><g stroke-linecap="round"><g transform="translate(709.008218574023 27.507435028776662) rotate(0 -5.3465576171875 -4.7891235351562536)"><path d="M0.02 0.16 C-1.76 -1.43, -9.17 -7.4, -11 -9.04 M-0.64 -0.23 C-2.2 -1.72, -8.13 -8.25, -9.92 -9.73" stroke="#000000" stroke-width="1" fill="none"></path></g></g><mask></mask><g stroke-linecap="round"><g transform="translate(700.339273261523 17.916385834440717) rotate(0 -34.70611572265625 1.6865158081054688)"><path d="M-0.66 1.17 C-12.32 1.65, -58.55 2.69, -69.91 3.18 M1.19 0.75 C-10.67 1.37, -59.37 4.38, -71.12 4.61" stroke="#000000" stroke-width="1" fill="none"></path></g></g><mask></mask><g stroke-linecap="round" transform="translate(824.2855145932344 10) rotate(0 57.731248502558856 47.8344630449773)"><path d="M61.73 0.88 C71.02 0.7, 82.57 3.6, 90.55 8 C98.52 12.4, 105.27 20, 109.56 27.28 C113.85 34.56, 116.96 43.86, 116.26 51.66 C115.56 59.46, 111.01 67.67, 105.34 74.08 C99.66 80.48, 90.87 86.37, 82.21 90.1 C73.56 93.83, 63.1 96.96, 53.42 96.46 C43.74 95.96, 32.17 91.79, 24.12 87.11 C16.06 82.44, 9.13 75.69, 5.08 68.4 C1.03 61.1, -1.06 51.2, -0.19 43.32 C0.69 35.43, 4.65 27.6, 10.31 21.09 C15.96 14.57, 23.51 7.56, 33.75 4.22 C43.99 0.88, 64.04 0.86, 71.76 1.05 C79.47 1.24, 80.17 4.43, 80.04 5.37 M33.94 3.1 C41.88 -0.67, 52.35 0.82, 62.03 1.57 C71.71 2.31, 83.83 3.06, 92.04 7.59 C100.25 12.11, 107.51 21.22, 111.29 28.72 C115.06 36.21, 115.83 44.54, 114.7 52.58 C113.57 60.62, 109.8 70.35, 104.49 76.95 C99.19 83.55, 91.52 88.91, 82.84 92.18 C74.17 95.44, 62.06 97.38, 52.45 96.53 C42.85 95.67, 32.89 91.88, 25.22 87.04 C17.54 82.2, 10.62 74.75, 6.42 67.48 C2.22 60.21, -0.84 51.41, 0.04 43.44 C0.91 35.47, 5.93 25.9, 11.68 19.64 C17.42 13.38, 30.73 8.46, 34.52 5.86 C38.32 3.26, 34.07 3.76, 34.43 4.03" stroke="#1e1e1e" stroke-width="2" fill="none"></path></g><g transform="translate(856.2446069376774 45.51038985145654) rotate(0 25.94999885559082 12.5)"><text x="25.94999885559082" y="0" font-family="Virgil, Segoe UI Emoji" font-size="20px" fill="#1e1e1e" text-anchor="middle" style="white-space: pre;" direction="ltr" dominant-baseline="text-before-edge">소비자</text></g><g stroke-linecap="round"><g transform="translate(129.6889963055113 64.62298583540104) rotate(0 149.0773808951139 -5.7497489477733765)"><path d="M0.53 0.03 C50.27 -2.02, 249.17 -9.71, 298.86 -11.72 M-0.65 -0.99 C48.95 -2.91, 248.48 -8.63, 298.27 -10.29" stroke="#1e1e1e" stroke-width="2" fill="none"></path></g><g transform="translate(129.6889963055113 64.62298583540104) rotate(0 149.0773808951139 -5.7497489477733765)"><path d="M275.06 -1.02 C282.89 -3.08, 290.29 -6.59, 298.27 -10.29 M275.06 -1.02 C281.81 -2.86, 287.53 -6.06, 298.27 -10.29" stroke="#1e1e1e" stroke-width="2" fill="none"></path></g><g transform="translate(129.6889963055113 64.62298583540104) rotate(0 149.0773808951139 -5.7497489477733765)"><path d="M274.53 -18.11 C282.62 -14.42, 290.2 -12.18, 298.27 -10.29 M274.53 -18.11 C281.35 -15.56, 287.19 -14.36, 298.27 -10.29" stroke="#1e1e1e" stroke-width="2" fill="none"></path></g></g><mask></mask><g stroke-linecap="round"><g transform="translate(535.6669649555213 57.688773952881) rotate(0 140.19806983480782 -0.873012381866733)"><path d="M0.78 0.33 C47.78 0.23, 234.41 -1.01, 280.92 -1.34 M-0.28 -0.54 C46.72 -0.95, 233.74 -3.3, 280.25 -3.25" stroke="#1e1e1e" stroke-width="2" fill="none"></path></g><g transform="translate(535.6669649555213 57.688773952881) rotate(0 140.19806983480782 -0.873012381866733)"><path d="M256.82 5.46 C262.27 4.38, 267.24 0.76, 280.25 -3.25 M256.82 5.46 C263.3 2.73, 271.15 -0.39, 280.25 -3.25" stroke="#1e1e1e" stroke-width="2" fill="none"></path></g><g transform="translate(535.6669649555213 57.688773952881) rotate(0 140.19806983480782 -0.873012381866733)"><path d="M256.7 -11.64 C262.06 -9.18, 267.06 -9.27, 280.25 -3.25 M256.7 -11.64 C263.13 -9.08, 271.02 -6.93, 280.25 -3.25" stroke="#1e1e1e" stroke-width="2" fill="none"></path></g></g><mask></mask></svg>