<svg version="1.1" xmlns="http://www.w3.org/2000/svg" viewBox="0 0 1360.755717573914 566.2765535246339" width="2721.511435147828" height="1132.5531070492677">
  <!-- svg-source:excalidraw -->
  
  <defs>
    <style class="style-fonts">
      @font-face {
        font-family: "Virgil";
        src: url("https://excalidraw.com/Virgil.woff2");
      }
      @font-face {
        font-family: "Cascadia";
        src: url("https://excalidraw.com/Cascadia.woff2");
      }
      @font-face {
        font-family: "Assistant";
        src: url("https://excalidraw.com/Assistant-Regular.woff2");
      }
    </style>
    
  </defs>
  <rect x="0" y="0" width="1360.755717573914" height="566.2765535246339" fill="#ffffff"></rect><g stroke-linecap="round" transform="translate(77.89878066407891 65.55354781606457) rotate(0 120.36602026813966 245.36150285428465)"><path d="M32 0 C87.87 -1.01, 145.81 0.69, 208.73 0 M32 0 C97.46 -1.6, 161.81 -1.54, 208.73 0 M208.73 0 C229.8 1.38, 241.79 12.53, 240.73 32 M208.73 0 C231.72 -1.17, 241.95 12.25, 240.73 32 M240.73 32 C239.56 140.68, 237.77 251.16, 240.73 458.72 M240.73 32 C240.85 201.85, 240.1 371.24, 240.73 458.72 M240.73 458.72 C239.43 480.5, 231.69 492.38, 208.73 490.72 M240.73 458.72 C240.37 478.81, 228.9 492.34, 208.73 490.72 M208.73 490.72 C160.93 491.3, 117.03 489.44, 32 490.72 M208.73 490.72 C154.66 491.98, 99.55 491.9, 32 490.72 M32 490.72 C12.63 492.68, -0.25 481.83, 0 458.72 M32 490.72 C11.59 489.73, -0.76 480.75, 0 458.72 M0 458.72 C0.9 335.87, -1 214.3, 0 32 M0 458.72 C0.04 318.52, -0.22 178.8, 0 32 M0 32 C-0.64 10.68, 10.86 -1.92, 32 0 M0 32 C-1.67 10.95, 11.74 1.41, 32 0" stroke="#1e1e1e" stroke-width="2" fill="none"></path></g><g transform="translate(151.97017775216455 10) rotate(0 46.709999084472656 22.5)"><text x="0" y="0" font-family="Virgil, Segoe UI Emoji" font-size="36px" fill="#1e1e1e" text-anchor="start" style="white-space: pre;" direction="ltr" dominant-baseline="text-before-edge">백로그</text></g><g stroke-linecap="round"><g transform="translate(77.89878066407891 258.4478110662883) rotate(0 120.36602026813966 0.7715770530008967)"><path d="M0.17 0.27 C40.2 0.67, 200.36 2.1, 240.55 2.13 M-1.2 -0.63 C38.63 -0.56, 199.16 0.01, 239.51 0.32" stroke="#1e1e1e" stroke-width="2" fill="none"></path></g></g><mask></mask><g stroke-linecap="round"><g transform="translate(79.44193477008048 354.12336563839926) rotate(0 120.36602026813966 0)"><path d="M-0.18 -0.24 C40.02 -0.01, 200.69 0.62, 240.68 0.79 M-1.73 -1.41 C38.36 -1.46, 199.06 -0.96, 239.7 -0.91" stroke="#1e1e1e" stroke-width="2" fill="none"></path></g></g><mask></mask><g stroke-linecap="round"><g transform="translate(121.10709563212913 351.0370574263958) rotate(0 0.771577053000783 -138.88386954016113)"><path d="M-0.37 0.86 C-0.34 -45.61, 0.57 -232.13, 1.08 -278.6 M1.63 0.26 C1.38 -46.1, -0.26 -231.33, -0.12 -277.49" stroke="#1e1e1e" stroke-width="2" fill="none"></path></g><g transform="translate(121.10709563212913 351.0370574263958) rotate(0 0.771577053000783 -138.88386954016113)"><path d="M-8.82 -22.67 C-4.18 -14.59, -3.82 -3.13, -0.37 0.86 M-8.82 -22.67 C-6.26 -16.23, -4.15 -9.52, -0.37 0.86" stroke="#1e1e1e" stroke-width="2" fill="none"></path></g><g transform="translate(121.10709563212913 351.0370574263958) rotate(0 0.771577053000783 -138.88386954016113)"><path d="M8.28 -22.6 C6.5 -14.6, 0.45 -3.16, -0.37 0.86 M8.28 -22.6 C5.94 -16.11, 3.15 -9.43, -0.37 0.86" stroke="#1e1e1e" stroke-width="2" fill="none"></path></g><g transform="translate(121.10709563212913 351.0370574263958) rotate(0 0.771577053000783 -138.88386954016113)"><path d="M8.52 -254.03 C6.66 -263.64, 0.62 -269.82, -0.12 -277.49 M8.52 -254.03 C6.43 -260.98, 3.64 -267.74, -0.12 -277.49" stroke="#1e1e1e" stroke-width="2" fill="none"></path></g><g transform="translate(121.10709563212913 351.0370574263958) rotate(0 0.771577053000783 -138.88386954016113)"><path d="M-8.58 -253.97 C-4.02 -263.55, -3.65 -269.75, -0.12 -277.49 M-8.58 -253.97 C-5.78 -261, -3.66 -267.77, -0.12 -277.49" stroke="#1e1e1e" stroke-width="2" fill="none"></path></g></g><mask></mask><g transform="translate(128.8228661621381 118.39132510211994) rotate(0 122.98999786376953 17.5)"><text x="0" y="0" font-family="Virgil, Segoe UI Emoji" font-size="28px" fill="#1e1e1e" text-anchor="start" style="white-space: pre;" direction="ltr" dominant-baseline="text-before-edge">백로그에 저장된 내용</text></g><g stroke-linecap="round"><g transform="translate(235.3004994762614 263.0772733842937) rotate(0 0.7715770530010104 45.523046127052794)"><path d="M0.36 -1.1 C0.63 14.1, 2.19 74.96, 2.43 90.4 M-0.91 0.93 C-0.79 16.35, 1.6 76.84, 1.95 91.6" stroke="#1e1e1e" stroke-width="2" fill="none"></path></g><g transform="translate(235.3004994762614 263.0772733842937) rotate(0 0.7715770530010104 45.523046127052794)"><path d="M9.45 22.19 C4.41 15.1, 1.82 5.47, 0.36 -1.1 M9.45 22.19 C5.48 14.75, 3.37 6.99, 0.36 -1.1" stroke="#1e1e1e" stroke-width="2" fill="none"></path></g><g transform="translate(235.3004994762614 263.0772733842937) rotate(0 0.7715770530010104 45.523046127052794)"><path d="M-7.64 22.58 C-6.37 15.3, -2.66 5.53, 0.36 -1.1 M-7.64 22.58 C-5.77 14.94, -2.03 7.04, 0.36 -1.1" stroke="#1e1e1e" stroke-width="2" fill="none"></path></g><g transform="translate(235.3004994762614 263.0772733842937) rotate(0 0.7715770530010104 45.523046127052794)"><path d="M-7.36 68.4 C-5.92 78.41, -1.72 85.93, 1.95 91.6 M-7.36 68.4 C-4.83 76.78, -0.65 84.92, 1.95 91.6" stroke="#1e1e1e" stroke-width="2" fill="none"></path></g><g transform="translate(235.3004994762614 263.0772733842937) rotate(0 0.7715770530010104 45.523046127052794)"><path d="M9.74 67.84 C4.87 78.11, 2.76 85.84, 1.95 91.6 M9.74 67.84 C6.42 76.49, 4.76 84.82, 1.95 91.6" stroke="#1e1e1e" stroke-width="2" fill="none"></path></g></g><mask></mask><g transform="translate(337.14867047237976 293.94035550432943) rotate(0 122.98999786376953 17.5)"><text x="0" y="0" font-family="Virgil, Segoe UI Emoji" font-size="28px" fill="#1e1e1e" text-anchor="start" style="white-space: pre;" direction="ltr" dominant-baseline="text-before-edge">복제본에 전달할 내용</text></g><g transform="translate(10 250.73204053627933) rotate(0 27.790000915527344 17.5)"><text x="0" y="0" font-family="Virgil, Segoe UI Emoji" font-size="28px" fill="#1e1e1e" text-anchor="start" style="white-space: pre;" direction="ltr" dominant-baseline="text-before-edge">900</text></g><g transform="translate(20.802078742012554 338.69182457838144) rotate(0 20.972000122070312 17.5)"><text x="0" y="0" font-family="Virgil, Segoe UI Emoji" font-size="28px" fill="#1e1e1e" text-anchor="start" style="white-space: pre;" direction="ltr" dominant-baseline="text-before-edge">915</text></g><g stroke-linecap="round" transform="translate(645.779491672738 67.09670192206613) rotate(0 324.06236226037595 77.92928235309046)"><path d="M32 0 C217.56 1.63, 401.95 0.51, 616.12 0 M32 0 C182.57 1.53, 332.32 1.16, 616.12 0 M616.12 0 C637.44 0.35, 646.87 10.96, 648.12 32 M616.12 0 C635.84 0.82, 649.75 11.45, 648.12 32 M648.12 32 C649.11 66.04, 647.18 102.09, 648.12 123.86 M648.12 32 C648.2 68.08, 648.63 102.48, 648.12 123.86 M648.12 123.86 C647.58 145.55, 637.56 156.08, 616.12 155.86 M648.12 123.86 C649.04 143.4, 638.16 155.17, 616.12 155.86 M616.12 155.86 C385.81 155.66, 154.31 156.69, 32 155.86 M616.12 155.86 C397.94 155.52, 179.69 155.29, 32 155.86 M32 155.86 C12.53 157.71, 0.26 145.18, 0 123.86 M32 155.86 C12.4 156.7, -0.01 143.53, 0 123.86 M0 123.86 C-2.39 106.83, -0.67 84.93, 0 32 M0 123.86 C0.1 100.69, 1 77.45, 0 32 M0 32 C0.23 8.75, 11.13 1.4, 32 0 M0 32 C0.21 11.62, 12.22 -0.23, 32 0" stroke="#1e1e1e" stroke-width="2" fill="none"></path></g><g transform="translate(679.7288820047775 88.70085940609124) rotate(0 163.67401123046875 52.5)"><text x="0" y="0" font-family="Virgil, Segoe UI Emoji" font-size="28px" fill="#1e1e1e" text-anchor="start" style="white-space: pre;" direction="ltr" dominant-baseline="text-before-edge">role:master</text><text x="0" y="35" font-family="Virgil, Segoe UI Emoji" font-size="28px" fill="#1e1e1e" text-anchor="start" style="white-space: pre;" direction="ltr" dominant-baseline="text-before-edge">master_replid: ~~~</text><text x="0" y="70" font-family="Virgil, Segoe UI Emoji" font-size="28px" fill="#1e1e1e" text-anchor="start" style="white-space: pre;" direction="ltr" dominant-baseline="text-before-edge">master_repl_offset:915</text></g><g stroke-linecap="round" transform="translate(651.9521080967452 359.52440500940554) rotate(0 324.06236226037595 77.92928235309046)"><path d="M32 0 C183.52 0.19, 334 -0.55, 616.12 0 M32 0 C226.1 1.33, 419.27 0.73, 616.12 0 M616.12 0 C639.16 -1.6, 650.08 9.51, 648.12 32 M616.12 0 C635.54 2.02, 647.85 8.9, 648.12 32 M648.12 32 C648.74 50.7, 648.11 71.54, 648.12 123.86 M648.12 32 C648.08 63.28, 649.58 96.64, 648.12 123.86 M648.12 123.86 C647.85 145.74, 636.4 155.12, 616.12 155.86 M648.12 123.86 C649.76 145.86, 636.79 157.01, 616.12 155.86 M616.12 155.86 C473.58 156.42, 331.99 157.06, 32 155.86 M616.12 155.86 C491.18 154.18, 366.18 154.43, 32 155.86 M32 155.86 C11.95 157.17, -1.77 143.76, 0 123.86 M32 155.86 C11.57 155.33, -1.52 143.72, 0 123.86 M0 123.86 C-1.16 96.36, 1.62 70.22, 0 32 M0 123.86 C1.23 101.41, 1.07 77.23, 0 32 M0 32 C0.87 10.07, 10.3 0.89, 32 0 M0 32 C-0.45 9.65, 10.86 1.58, 32 0" stroke="#1e1e1e" stroke-width="2" fill="none"></path></g><g transform="translate(685.9014984287851 381.12856249343065) rotate(0 170.49200439453125 52.5)"><text x="0" y="0" font-family="Virgil, Segoe UI Emoji" font-size="28px" fill="#1e1e1e" text-anchor="start" style="white-space: pre;" direction="ltr" dominant-baseline="text-before-edge">role:slave</text><text x="0" y="35" font-family="Virgil, Segoe UI Emoji" font-size="28px" fill="#1e1e1e" text-anchor="start" style="white-space: pre;" direction="ltr" dominant-baseline="text-before-edge">master_replid: ~~~</text><text x="0" y="70" font-family="Virgil, Segoe UI Emoji" font-size="28px" fill="#1e1e1e" text-anchor="start" style="white-space: pre;" direction="ltr" dominant-baseline="text-before-edge">master_repl_offset:900</text></g><g stroke-linecap="round"><g transform="translate(946.694542343087 351.0370574263957) rotate(0 0.7715770530010104 -63.26931834607342)"><path d="M-1.05 0.63 C-0.88 -20.2, 0.09 -104.45, 0.61 -125.82 M0.6 -0.08 C1.18 -21.19, 2.67 -106.44, 2.84 -127.56" stroke="#1e1e1e" stroke-width="2" fill="none"></path></g><g transform="translate(946.694542343087 351.0370574263957) rotate(0 0.7715770530010104 -63.26931834607342)"><path d="M11.07 -103.96 C10.1 -111.83, 8.06 -115.62, 2.84 -127.56 M11.07 -103.96 C9.3 -109.53, 8.32 -114.4, 2.84 -127.56" stroke="#1e1e1e" stroke-width="2" fill="none"></path></g><g transform="translate(946.694542343087 351.0370574263957) rotate(0 0.7715770530010104 -63.26931834607342)"><path d="M-6.03 -104.19 C-2.47 -111.86, 0.02 -115.58, 2.84 -127.56 M-6.03 -104.19 C-4.18 -109.69, -1.54 -114.5, 2.84 -127.56" stroke="#1e1e1e" stroke-width="2" fill="none"></path></g></g><mask></mask><g transform="translate(959.0397751911014 273.5088144443115) rotate(0 195.85797119140625 22.5)"><text x="0" y="0" font-family="Virgil, Segoe UI Emoji" font-size="36px" fill="#1e1e1e" text-anchor="start" style="white-space: pre;" direction="ltr" dominant-baseline="text-before-edge">복제 재연결 시도(PSYNC)</text></g></svg>