<svg version="1.1" xmlns="http://www.w3.org/2000/svg" viewBox="0 0 1315.5407904274994 571.2043931167245" width="2631.0815808549987" height="1142.408786233449">
  <!-- svg-source:excalidraw -->
  
  <defs>
    <style class="style-fonts">
      @font-face {
        font-family: "Virgil";
        src: url("https://excalidraw.com/Virgil.woff2");
      }
      @font-face {
        font-family: "Cascadia";
        src: url("https://excalidraw.com/Cascadia.woff2");
      }
    </style>
    
  </defs>
  <rect x="0" y="0" width="1315.5407904274994" height="571.2043931167245" fill="#ffffff"></rect><g stroke-linecap="round" transform="translate(10 196.63536542341035) rotate(0 126.5 98.5)"><path d="M7.86 8.16 C7.86 8.16, 7.86 8.16, 7.86 8.16 M7.86 8.16 C7.86 8.16, 7.86 8.16, 7.86 8.16 M8.78 31.49 C13.09 19.63, 19.68 10.67, 34.37 2.05 M8.78 31.49 C14.03 27.01, 19.25 19.34, 34.37 2.05 M8.39 56.32 C19.12 44.07, 27.2 30.73, 55.63 1.98 M8.39 56.32 C22.83 41.4, 35.18 24.85, 55.63 1.98 M8.66 80.4 C37.58 49.74, 63.05 20.22, 76.89 1.91 M8.66 80.4 C23.92 62.01, 38.92 44.79, 76.89 1.91 M8.27 105.24 C45.7 62.73, 80.22 27.6, 98.15 1.85 M8.27 105.24 C41.76 67.59, 74.98 30, 98.15 1.85 M8.54 129.32 C35.87 92.4, 68.41 64.49, 119.41 1.78 M8.54 129.32 C39.37 94.02, 66.87 60.35, 119.41 1.78 M8.15 154.16 C34.29 118.69, 64.83 88.05, 140.67 1.71 M8.15 154.16 C34.95 120.97, 63.89 90.13, 140.67 1.71 M5.13 182.01 C60.74 109.34, 119.3 42.71, 161.28 2.39 M5.13 182.01 C61.19 118.57, 112.83 57.01, 161.28 2.39 M15.24 194.78 C48.26 149.48, 88.67 105.44, 182.54 2.32 M15.24 194.78 C59.17 138.77, 107.84 86.26, 182.54 2.32 M33.22 198.48 C88.59 133.48, 146.39 65.99, 203.8 2.26 M33.22 198.48 C84.41 137.95, 141.24 75.44, 203.8 2.26 M54.48 198.41 C88.35 155.17, 124.45 117.38, 224.4 2.94 M54.48 198.41 C108.55 140.23, 163.97 78.17, 224.4 2.94 M75.74 198.34 C110.42 155.67, 143.53 117.24, 241.72 7.4 M75.74 198.34 C116.74 148.49, 160.33 98.05, 241.72 7.4 M97 198.27 C146.05 139.43, 199.45 80.31, 252.49 19.41 M97 198.27 C157.62 134.07, 211.94 68.38, 252.49 19.41 M118.26 198.2 C162.66 152.41, 199.66 105.02, 258.66 36.7 M118.26 198.2 C154.08 151.06, 195.37 106.76, 258.66 36.7 M139.52 198.13 C176.03 156.24, 216.26 103.5, 258.27 61.53 M139.52 198.13 C176.17 152.54, 213.3 107.21, 258.27 61.53 M160.78 198.07 C194.47 154.34, 228.65 113.91, 258.53 85.61 M160.78 198.07 C190.66 165.35, 221.51 129.55, 258.53 85.61 M182.04 198 C209.94 162.69, 233.34 135.76, 258.8 109.7 M182.04 198 C213.76 164.43, 242.06 128.71, 258.8 109.7 M203.3 197.93 C213.39 178.55, 230.62 162.04, 258.41 134.53 M203.3 197.93 C221.33 175.47, 239.95 158.96, 258.41 134.53 M223.25 199.37 C235.47 187.02, 240.91 178.13, 252.77 165.41 M223.25 199.37 C227.81 191.56, 237.23 185.28, 252.77 165.41" stroke="#ffc9c9" stroke-width="2" fill="none"></path><path d="M32 0 M32 0 C104.35 0.18, 179.13 4.08, 221 0 M32 0 C86.76 0.87, 141.65 4.69, 221 0 M221 0 C239.93 -2.68, 253.92 12.87, 253 32 M221 0 C243.43 -2.45, 250.73 14.31, 253 32 M253 32 C252.62 68.09, 250.66 95.5, 253 165 M253 32 C253.31 75.07, 253.95 117.73, 253 165 M253 165 C256.37 183.6, 243.72 199.19, 221 197 M253 165 C250.55 186.66, 246.26 196.5, 221 197 M221 197 C157.19 203.02, 87.82 203.58, 32 197 M221 197 C171.03 196.19, 121.21 198.6, 32 197 M32 197 C14.39 200.74, 0.02 184.08, 0 165 M32 197 C10.81 196.47, -2 185.11, 0 165 M0 165 C-2.04 130.85, 1.62 96.93, 0 32 M0 165 C-1.15 121.92, 0.09 82.47, 0 32 M0 32 C1.97 10.71, 13.82 1.1, 32 0 M0 32 C0.23 10.26, 6.44 4.56, 32 0" stroke="#1e1e1e" stroke-width="4" fill="none"></path></g><g transform="translate(59.62200164794922 250.13536542341035) rotate(0 76.87799835205078 45)"><text x="76.87799835205078" y="0" font-family="Virgil, Segoe UI Emoji" font-size="36px" fill="#1e1e1e" text-anchor="middle" style="white-space: pre;" direction="ltr" dominant-baseline="text-before-edge">Redis</text><text x="76.87799835205078" y="45" font-family="Virgil, Segoe UI Emoji" font-size="36px" fill="#1e1e1e" text-anchor="middle" style="white-space: pre;" direction="ltr" dominant-baseline="text-before-edge">(Master)</text></g><g stroke-linecap="round" transform="translate(547.0096378102024 10) rotate(0 126.5 98.5)"><path d="M7.86 8.16 C7.86 8.16, 7.86 8.16, 7.86 8.16 M7.86 8.16 C7.86 8.16, 7.86 8.16, 7.86 8.16 M8.78 31.49 C12.79 26.98, 20.51 16.67, 34.37 2.05 M8.78 31.49 C12.25 23.26, 18.92 18.04, 34.37 2.05 M8.39 56.32 C18.98 42.32, 32.35 29.01, 55.63 1.98 M8.39 56.32 C26.7 35.2, 44.01 12.23, 55.63 1.98 M8.66 80.4 C21.82 65.15, 40.44 51.25, 76.89 1.91 M8.66 80.4 C33.26 51.21, 57.2 24.43, 76.89 1.91 M8.27 105.24 C41.19 62.95, 76.29 27.89, 98.15 1.85 M8.27 105.24 C45.26 62.79, 78.92 23.69, 98.15 1.85 M8.54 129.32 C49.35 81.79, 94.77 31.28, 119.41 1.78 M8.54 129.32 C30.98 101.33, 54.02 77.32, 119.41 1.78 M8.15 154.16 C36.36 119.42, 70.98 86.68, 140.67 1.71 M8.15 154.16 C45.4 111.5, 83.4 69.29, 140.67 1.71 M5.13 182.01 C40.68 144.14, 71.61 107.9, 161.28 2.39 M5.13 182.01 C43.61 132.16, 86.64 81.71, 161.28 2.39 M15.24 194.78 C51.18 151.79, 81.15 111.41, 182.54 2.32 M15.24 194.78 C68.33 137.29, 116.47 79.4, 182.54 2.32 M33.22 198.48 C93.12 134.61, 152.3 68.82, 203.8 2.26 M33.22 198.48 C80.41 142.43, 129.78 89.79, 203.8 2.26 M54.48 198.41 C118.03 127.2, 173.46 61.39, 224.4 2.94 M54.48 198.41 C120.71 122.19, 187.54 43.82, 224.4 2.94 M75.74 198.34 C117.22 153.16, 160.04 107.86, 241.72 7.4 M75.74 198.34 C128.83 142.33, 178.37 85.13, 241.72 7.4 M97 198.27 C160.4 134.35, 219.98 63.8, 252.49 19.41 M97 198.27 C145.67 140.86, 195.43 83.72, 252.49 19.41 M118.26 198.2 C155.16 159.36, 190.65 117.1, 258.66 36.7 M118.26 198.2 C152.65 157.34, 191.78 111.79, 258.66 36.7 M139.52 198.13 C177.06 151.69, 211.25 113.9, 258.27 61.53 M139.52 198.13 C173.59 161.05, 207.44 119.75, 258.27 61.53 M160.78 198.07 C188.45 166.56, 212.34 132.41, 258.53 85.61 M160.78 198.07 C184.29 169.55, 209.44 142.73, 258.53 85.61 M182.04 198 C206.71 175.67, 226.93 149.26, 258.8 109.7 M182.04 198 C208.86 164.37, 237.32 134.47, 258.8 109.7 M203.3 197.93 C223.54 180.49, 242.91 158.87, 258.41 134.53 M203.3 197.93 C220.51 175.8, 241.78 155.16, 258.41 134.53 M223.25 199.37 C232.13 188.07, 241.91 176.16, 252.77 165.41 M223.25 199.37 C229.11 192.64, 234.46 184.13, 252.77 165.41" stroke="#ffc9c9" stroke-width="2" fill="none"></path><path d="M32 0 M32 0 C96.64 -4.42, 159.87 -0.13, 221 0 M32 0 C76.87 -0.14, 124.51 1.14, 221 0 M221 0 C242.57 -2.22, 249.25 13.89, 253 32 M221 0 C238.28 -1.19, 248.65 15.21, 253 32 M253 32 C253.55 79.85, 252.15 123.85, 253 165 M253 32 C252.19 77.17, 249.67 119.05, 253 165 M253 165 C255.47 187.4, 240.61 199.52, 221 197 M253 165 C249.93 190.45, 246.06 197.49, 221 197 M221 197 C144.07 195.05, 71.56 195.33, 32 197 M221 197 C163.67 195.61, 108.62 196.75, 32 197 M32 197 C6.68 195.75, -0.29 189.99, 0 165 M32 197 C11 199.35, -1.95 182.55, 0 165 M0 165 C4.97 133.9, 4.1 111.22, 0 32 M0 165 C-0.15 118.96, 0.29 74.35, 0 32 M0 32 C0.36 10.09, 13.75 1.23, 32 0 M0 32 C-2.52 8.48, 9.11 0.97, 32 0" stroke="#1e1e1e" stroke-width="4" fill="none"></path></g><g transform="translate(599.3136386646946 63.5) rotate(0 74.19599914550781 45)"><text x="74.19599914550781" y="0" font-family="Virgil, Segoe UI Emoji" font-size="36px" fill="#1e1e1e" text-anchor="middle" style="white-space: pre;" direction="ltr" dominant-baseline="text-before-edge">Redis</text><text x="74.19599914550781" y="45" font-family="Virgil, Segoe UI Emoji" font-size="36px" fill="#1e1e1e" text-anchor="middle" style="white-space: pre;" direction="ltr" dominant-baseline="text-before-edge">(Replica)</text></g><g stroke-linecap="round" transform="translate(548.6725692332856 362.5414616936414) rotate(0 126.5 98.5)"><path d="M7.86 8.16 C7.86 8.16, 7.86 8.16, 7.86 8.16 M7.86 8.16 C7.86 8.16, 7.86 8.16, 7.86 8.16 M8.78 31.49 C21.22 21.3, 24.41 10.23, 34.37 2.05 M8.78 31.49 C18.63 20.72, 27.12 7.66, 34.37 2.05 M8.39 56.32 C21.89 37.96, 36.93 21.7, 55.63 1.98 M8.39 56.32 C23.62 41.13, 36.98 23.81, 55.63 1.98 M8.66 80.4 C25.56 60.22, 45.03 35.85, 76.89 1.91 M8.66 80.4 C30.65 53.67, 54.48 25.33, 76.89 1.91 M8.27 105.24 C29.37 73.36, 57.99 51.77, 98.15 1.85 M8.27 105.24 C31.1 80.01, 53.95 53.37, 98.15 1.85 M8.54 129.32 C28.19 101.23, 53.02 75.48, 119.41 1.78 M8.54 129.32 C49.31 84.13, 89.67 37.56, 119.41 1.78 M8.15 154.16 C55.81 101.85, 106.42 40.17, 140.67 1.71 M8.15 154.16 C54.89 98.45, 103.22 41.03, 140.67 1.71 M5.13 182.01 C38.79 148.4, 67.73 105.93, 161.28 2.39 M5.13 182.01 C62.5 115.09, 119.33 46.22, 161.28 2.39 M15.24 194.78 C74.51 128.9, 133.47 56.46, 182.54 2.32 M15.24 194.78 C69.01 128.88, 125.4 66.16, 182.54 2.32 M33.22 198.48 C84.1 145.2, 138.51 81.57, 203.8 2.26 M33.22 198.48 C77.05 150, 117.51 103.63, 203.8 2.26 M54.48 198.41 C92.36 155.36, 135.09 104.69, 224.4 2.94 M54.48 198.41 C104.45 142.94, 149.03 89.02, 224.4 2.94 M75.74 198.34 C130.93 138.66, 184.79 71.55, 241.72 7.4 M75.74 198.34 C120.87 146.04, 169.45 91.86, 241.72 7.4 M97 198.27 C135.02 149.88, 174.93 106.85, 252.49 19.41 M97 198.27 C150.75 135.1, 204.74 72.39, 252.49 19.41 M118.26 198.2 C163.7 149.04, 205.49 107.32, 258.66 36.7 M118.26 198.2 C163.47 144.76, 210.34 91.89, 258.66 36.7 M139.52 198.13 C177.49 160.43, 215.55 119.79, 258.27 61.53 M139.52 198.13 C179.09 149.65, 222.37 101.56, 258.27 61.53 M160.78 198.07 C182.99 170.99, 210.11 137.38, 258.53 85.61 M160.78 198.07 C181.27 174.74, 202.17 152.98, 258.53 85.61 M182.04 198 C207.39 170.26, 230.79 145.05, 258.8 109.7 M182.04 198 C203.9 175.19, 224.84 151.47, 258.8 109.7 M203.3 197.93 C217.85 179.7, 232.51 165.87, 258.41 134.53 M203.3 197.93 C222.41 174.8, 240.23 152.89, 258.41 134.53 M223.25 199.37 C226.92 189.98, 237.16 185.61, 252.77 165.41 M223.25 199.37 C234.65 188.97, 245.69 173, 252.77 165.41" stroke="#ffc9c9" stroke-width="2" fill="none"></path><path d="M32 0 M32 0 C73.84 1.69, 123.31 -4.69, 221 0 M32 0 C102.02 2.6, 171.12 3.25, 221 0 M221 0 C243.81 3.26, 250.83 10.45, 253 32 M221 0 C241.79 2.62, 250.68 11.29, 253 32 M253 32 C250.91 79.49, 257.39 128.46, 253 165 M253 32 C256.77 68.38, 253.27 99.08, 253 165 M253 165 C254.1 185, 244.15 195.92, 221 197 M253 165 C252.82 188.63, 240.57 200.77, 221 197 M221 197 C171.71 202.19, 111.47 198.77, 32 197 M221 197 C170.58 193.72, 122.72 192.67, 32 197 M32 197 C9.46 196.81, 1.03 183.15, 0 165 M32 197 C12.96 194.56, 2.56 186.98, 0 165 M0 165 C-1.22 124.78, -0.75 78.52, 0 32 M0 165 C-0.65 133.47, -0.36 104.94, 0 32 M0 32 C-1.78 7.49, 9.45 1.93, 32 0 M0 32 C-4.53 10.13, 12.1 -2.27, 32 0" stroke="#1e1e1e" stroke-width="4" fill="none"></path></g><g transform="translate(600.9765700877778 416.0414616936414) rotate(0 74.19599914550781 45)"><text x="74.19599914550781" y="0" font-family="Virgil, Segoe UI Emoji" font-size="36px" fill="#1e1e1e" text-anchor="middle" style="white-space: pre;" direction="ltr" dominant-baseline="text-before-edge">Redis</text><text x="74.19599914550781" y="45" font-family="Virgil, Segoe UI Emoji" font-size="36px" fill="#1e1e1e" text-anchor="middle" style="white-space: pre;" direction="ltr" dominant-baseline="text-before-edge">(Replica)</text></g><g stroke-linecap="round" transform="translate(1052.5407904274994 364.20439311672453) rotate(0 126.5 98.5)"><path d="M7.86 8.16 C7.86 8.16, 7.86 8.16, 7.86 8.16 M7.86 8.16 C7.86 8.16, 7.86 8.16, 7.86 8.16 M8.78 31.49 C16.52 24.81, 15.74 20.36, 34.37 2.05 M8.78 31.49 C13.78 24.87, 21.76 17.24, 34.37 2.05 M8.39 56.32 C16.1 43.25, 31.97 34.98, 55.63 1.98 M8.39 56.32 C23.98 37.51, 37.81 24.99, 55.63 1.98 M8.66 80.4 C25.74 57.48, 43.63 36.84, 76.89 1.91 M8.66 80.4 C23.34 58.82, 43.01 41.61, 76.89 1.91 M8.27 105.24 C35.26 68.06, 69.65 35.08, 98.15 1.85 M8.27 105.24 C33.61 73.47, 61.89 43.04, 98.15 1.85 M8.54 129.32 C53.36 80.9, 96.01 29.4, 119.41 1.78 M8.54 129.32 C38.32 94.46, 62.25 65.19, 119.41 1.78 M8.15 154.16 C38.49 119.35, 70.14 82.97, 140.67 1.71 M8.15 154.16 C44.89 110.47, 78.24 69.69, 140.67 1.71 M5.13 182.01 C50.76 123.84, 104.75 66.73, 161.28 2.39 M5.13 182.01 C59.52 115.49, 113.21 54.9, 161.28 2.39 M15.24 194.78 C59.59 147.34, 98.34 97.27, 182.54 2.32 M15.24 194.78 C58.91 148.28, 103.95 98.66, 182.54 2.32 M33.22 198.48 C90.05 131.76, 146.3 67.75, 203.8 2.26 M33.22 198.48 C67.29 162.55, 101.89 120.15, 203.8 2.26 M54.48 198.41 C124.22 120.17, 188.82 42.26, 224.4 2.94 M54.48 198.41 C94.17 153.68, 132.17 109.03, 224.4 2.94 M75.74 198.34 C140.88 126.11, 200.04 59.17, 241.72 7.4 M75.74 198.34 C116.54 150.95, 155.82 105.45, 241.72 7.4 M97 198.27 C129.8 163.91, 163.29 125.45, 252.49 19.41 M97 198.27 C158.26 127.29, 218.4 53.5, 252.49 19.41 M118.26 198.2 C152.62 159.03, 182.55 125.47, 258.66 36.7 M118.26 198.2 C171.87 137.52, 224.93 77.67, 258.66 36.7 M139.52 198.13 C164 166.61, 191.78 134.33, 258.27 61.53 M139.52 198.13 C181.79 154.05, 223.12 108.03, 258.27 61.53 M160.78 198.07 C186.14 165.09, 206.36 142.82, 258.53 85.61 M160.78 198.07 C197.9 154.81, 233.98 114.85, 258.53 85.61 M182.04 198 C199.06 177.68, 223.76 154.48, 258.8 109.7 M182.04 198 C202.15 175.46, 220.15 156.15, 258.8 109.7 M203.3 197.93 C222.4 178.55, 242.34 151.14, 258.41 134.53 M203.3 197.93 C226.15 170.97, 243.42 149.23, 258.41 134.53 M223.25 199.37 C230.66 192.46, 237.16 184.68, 252.77 165.41 M223.25 199.37 C233.81 190.94, 238.59 179.67, 252.77 165.41" stroke="#ffc9c9" stroke-width="2" fill="none"></path><path d="M32 0 M32 0 C79.11 2.88, 131.33 0.77, 221 0 M32 0 C81.4 0.02, 132.93 0.14, 221 0 M221 0 C242.89 0.66, 249.36 9.61, 253 32 M221 0 C238.14 2.15, 249.35 8, 253 32 M253 32 C248.76 57.56, 249.34 89.14, 253 165 M253 32 C251.85 64.03, 250.65 100.61, 253 165 M253 165 C251.03 190.33, 239.93 193.84, 221 197 M253 165 C257.48 190.43, 239.61 196.47, 221 197 M221 197 C183.2 199.42, 142.1 196.5, 32 197 M221 197 C167.34 198.23, 117.63 197.11, 32 197 M32 197 C14.12 200.83, 0.23 187.48, 0 165 M32 197 C8.63 195.6, 3.73 187.04, 0 165 M0 165 C2.23 128.93, 2.93 85.04, 0 32 M0 165 C1.39 128.63, -0.04 89.32, 0 32 M0 32 C-1.38 13.09, 10.85 3.02, 32 0 M0 32 C0.39 13.78, 13.61 -0.87, 32 0" stroke="#1e1e1e" stroke-width="4" fill="none"></path></g><g transform="translate(1104.8447912819915 417.70439311672453) rotate(0 74.19599914550781 45)"><text x="74.19599914550781" y="0" font-family="Virgil, Segoe UI Emoji" font-size="36px" fill="#1e1e1e" text-anchor="middle" style="white-space: pre;" direction="ltr" dominant-baseline="text-before-edge">Redis</text><text x="74.19599914550781" y="45" font-family="Virgil, Segoe UI Emoji" font-size="36px" fill="#1e1e1e" text-anchor="middle" style="white-space: pre;" direction="ltr" dominant-baseline="text-before-edge">(Replica)</text></g><g stroke-linecap="round"><g transform="translate(266.091439154815 289.75952511607034) rotate(0 74.967746594329 -0.26686904135203804)"><path d="M-0.72 0.92 C23.74 0.66, 120.1 -1.86, 144.99 -1.63 M4.08 -1.04 C29.65 -0.96, 126.66 1.27, 150.66 1.11" stroke="#1e1e1e" stroke-width="4" fill="none"></path></g></g><mask></mask><g stroke-linecap="round"><g transform="translate(415.75526723230416 289.75952511607034) rotate(0 62.33427607222927 -87.47956157217817)"><path d="M-2.17 -0.21 C-3.03 -63.99, -5.85 -132.06, -0.55 -168.71 M1.34 -0.89 C1.61 -40.92, 1.76 -83.47, -1.4 -173.17 M-1.5 -172.37 C24.27 -168.75, 50.67 -167.82, 128.97 -174.75 M-4.9 -171.52 C43.64 -174.67, 90.54 -175.54, 129.57 -172.6" stroke="#1e1e1e" stroke-width="4" fill="none"></path></g><g transform="translate(415.75526723230416 289.75952511607034) rotate(0 62.33427607222927 -87.47956157217817)"><path d="M98.78 -163.82 C111.49 -165.28, 121.04 -170.49, 132.35 -170.02 M102.29 -164.5 C107.41 -163.98, 115.48 -166.23, 131.5 -174.49" stroke="#1e1e1e" stroke-width="4" fill="none"></path></g><g transform="translate(415.75526723230416 289.75952511607034) rotate(0 62.33427607222927 -87.47956157217817)"><path d="M99.7 -184.32 C112.21 -177.82, 121.4 -175.1, 132.35 -170.02 M103.21 -185 C107.71 -179.4, 115.56 -176.56, 131.5 -174.49" stroke="#1e1e1e" stroke-width="4" fill="none"></path></g></g><mask></mask><g stroke-linecap="round"><g transform="translate(415.75526723230416 288.0965936929871) rotate(0 66.4864605057635 91.02342423428541)"><path d="M3 -0.6 C0.76 47.72, 0.33 101.98, 4.22 177.1 M1.08 1.6 C0.7 70.96, 0.97 139.17, 1.85 178.22 M1.2 182.64 C40.41 175.32, 73.72 172.2, 132.06 179.18 M4.09 178.91 C35.98 177.71, 64.15 177.94, 127.83 177.05" stroke="#1e1e1e" stroke-width="4" fill="none"></path></g><g transform="translate(415.75526723230416 288.0965936929871) rotate(0 66.4864605057635 91.02342423428541)"><path d="M102.76 187.04 C108.63 182.09, 115.15 182.91, 128.72 174.55 M100.84 189.24 C110.55 185, 120.39 179.61, 126.35 175.67" stroke="#1e1e1e" stroke-width="4" fill="none"></path></g><g transform="translate(415.75526723230416 288.0965936929871) rotate(0 66.4864605057635 91.02342423428541)"><path d="M102.52 166.52 C108.33 167.33, 114.92 173.93, 128.72 174.55 M100.6 168.72 C110.35 172.42, 120.28 174.97, 126.35 175.67" stroke="#1e1e1e" stroke-width="4" fill="none"></path></g></g><mask></mask><g stroke-linecap="round"><g transform="translate(806.5441516568595 469.3561188090574) rotate(0 122.57050490594477 -0.0036166572305091904)"><path d="M2.92 -2.37 C93.19 3.22, 185.49 1.22, 241.85 -2.43 M1.03 0.92 C62.73 2.72, 122.43 3.62, 244.12 -0.63" stroke="#1e1e1e" stroke-width="4" fill="none"></path></g><g transform="translate(806.5441516568595 469.3561188090574) rotate(0 122.57050490594477 -0.0036166572305091904)"><path d="M219.73 7.53 C225.94 6.58, 234.4 0.66, 242.98 -1.55 M217.45 11.49 C224.9 7.96, 229.85 6.76, 245.72 0.61" stroke="#1e1e1e" stroke-width="4" fill="none"></path></g><g transform="translate(806.5441516568595 469.3561188090574) rotate(0 122.57050490594477 -0.0036166572305091904)"><path d="M219.18 -12.99 C225.2 -5.96, 233.88 -3.91, 242.98 -1.55 M216.9 -9.02 C224.33 -7.35, 229.42 -3.36, 245.72 0.61" stroke="#1e1e1e" stroke-width="4" fill="none"></path></g></g><mask></mask><g transform="translate(306.45749095774465 226.56813103890818) rotate(0 31.139999389648438 22.5)"><text x="31.139999389648438" y="0" font-family="Virgil, Segoe UI Emoji" font-size="36px" fill="#1e1e1e" text-anchor="middle" style="white-space: pre;" direction="ltr" dominant-baseline="text-before-edge">복제</text></g><g transform="translate(898.4610775753689 418.58628461664273) rotate(0 31.139999389648438 22.5)"><text x="31.139999389648438" y="0" font-family="Virgil, Segoe UI Emoji" font-size="36px" fill="#1e1e1e" text-anchor="middle" style="white-space: pre;" direction="ltr" dominant-baseline="text-before-edge">복제</text></g></svg>