<svg version="1.1" xmlns="http://www.w3.org/2000/svg" viewBox="0 0 1622.4211723184246 733.1663662792076" width="3244.8423446368492" height="1466.3327325584153">
  <!-- svg-source:excalidraw -->
  
  <defs>
    <style class="style-fonts">
      @font-face {
        font-family: "Virgil";
        src: url("https://excalidraw.com/Virgil.woff2");
      }
      @font-face {
        font-family: "Cascadia";
        src: url("https://excalidraw.com/Cascadia.woff2");
      }
      @font-face {
        font-family: "Assistant";
        src: url("https://excalidraw.com/Assistant-Regular.woff2");
      }
    </style>
    
  </defs>
  <rect x="0" y="0" width="1622.4211723184246" height="733.1663662792076" fill="#ffffff"></rect><g stroke-linecap="round" transform="translate(215.53711873697353 138.97030040038396) rotate(0 91.62251605575659 37.701131008588845)"><path d="M91.69 -1.88 L182.27 38.32 L90.23 77.15 L0.76 38.26" stroke="none" stroke-width="0" fill="#c6302b" fill-rule="evenodd"></path><path d="M92 0 C118.48 12.52, 143.14 21.2, 183.25 38 M92 0 C127.22 15.28, 164.15 30.72, 183.25 38 M183.25 38 C148.8 53.71, 116.03 66.96, 92 75.4 M183.25 38 C162.75 47.77, 141.77 55.65, 92 75.4 M92 75.4 C58.8 62.48, 24.86 46.58, 0 38 M92 75.4 C67.83 64.76, 44.88 56.3, 0 38 M0 38 C22.27 29.06, 43.05 19.53, 92 0 M0 38 C33.31 25.02, 67.52 10.59, 92 0" stroke="#000000" stroke-width="1" fill="none"></path></g><g stroke-linecap="round"><g transform="translate(214.3973171018299 176.25496542690098) rotate(0 91.26084822922076 25.250990070868795)" fill-rule="evenodd"><path d="M-1.74 -0.78 C-2.11 0.96, -1.6 5.53, -0.96 8.12 C-0.31 10.71, -4.26 11.15, 2.15 14.77 C8.57 18.39, 25.09 24.59, 37.51 29.86 C49.93 35.12, 67.74 42.66, 76.68 46.37 C85.62 50.08, 85.86 52.55, 91.14 52.12 C96.42 51.7, 99.3 47.5, 108.39 43.81 C117.47 40.12, 133.81 35.14, 145.66 29.96 C157.5 24.78, 173.39 16.93, 179.48 12.72 C185.56 8.51, 182.07 6.7, 182.15 4.71 C182.22 2.72, 182.96 -0.01, 179.93 0.78 C176.9 1.58, 176.92 3.92, 163.98 9.51 C151.03 15.09, 115.84 30.46, 102.25 34.32 C88.65 38.17, 99.45 38.72, 82.43 32.62 C65.41 26.52, 14.25 3.47, 0.12 -2.28" stroke="none" stroke-width="0" fill="#912626" fill-rule="evenodd"></path><path d="M0.97 0.07 C1.01 1.24, -0.6 5.48, -0.18 7.57 C0.25 9.65, -2.89 9.03, 3.51 12.57 C9.91 16.1, 25.83 23.08, 38.24 28.75 C50.66 34.41, 68.79 43.09, 78.01 46.55 C87.24 50.02, 88.65 49.7, 93.61 49.52 C98.57 49.34, 98.95 48.8, 107.78 45.48 C116.62 42.16, 134.78 35.06, 146.63 29.59 C158.48 24.13, 172.95 16.35, 178.89 12.69 C184.83 9.03, 181.89 9.49, 182.28 7.62 C182.67 5.75, 184 1.44, 181.24 1.47 C178.48 1.5, 178.91 2.48, 165.73 7.8 C152.55 13.12, 116.13 29.06, 102.17 33.4 C88.21 37.74, 98.81 39.29, 81.96 33.83 C65.11 28.37, 14.76 6.38, 1.07 0.65 M0.02 -0.93 C-0.08 -0.12, -1.64 3.56, -1.22 6.03 C-0.79 8.5, -3.97 9.89, 2.58 13.9 C9.14 17.9, 25.75 25.08, 38.12 30.07 C50.5 35.06, 67.88 40.22, 76.82 43.81 C85.76 47.41, 87.03 51, 91.78 51.63 C96.54 52.26, 96.31 51.31, 105.34 47.58 C114.37 43.86, 133.95 34.78, 145.97 29.26 C157.99 23.75, 171.28 18.12, 177.44 14.49 C183.59 10.86, 182.22 10, 182.92 7.48 C183.62 4.96, 184.15 -0.66, 181.63 -0.64 C179.1 -0.62, 180.88 2.12, 167.75 7.61 C154.63 13.09, 116.75 27.88, 102.85 32.26 C88.96 36.64, 101.79 39.21, 84.37 33.9 C66.94 28.6, 12.23 6.02, -1.69 0.43" stroke="#000000" stroke-width="1" fill="none"></path></g></g><mask></mask><g stroke-linecap="round"><g transform="translate(214.1123666930439 148.04487495710225) rotate(0 91.26084822922076 25.250990070868795)" fill-rule="evenodd"><path d="M-0.96 1.67 C-0.94 3.25, -2.22 6.61, -1.66 8.67 C-1.1 10.74, -4.25 10.65, 2.38 14.06 C9.02 17.48, 25.9 23.64, 38.14 29.15 C50.38 34.67, 66.42 43.95, 75.82 47.17 C85.21 50.38, 89.4 48.59, 94.5 48.43 C99.6 48.28, 97.67 49.56, 106.41 46.27 C115.15 42.98, 134.99 34.53, 146.94 28.7 C158.89 22.87, 172.37 14.83, 178.1 11.28 C183.83 7.73, 181.19 8.86, 181.33 7.4 C181.47 5.95, 181.32 2.49, 178.95 2.53 C176.57 2.58, 180.12 2.56, 167.08 7.68 C154.05 12.81, 114.72 29.38, 100.73 33.28 C86.74 37.17, 100.31 36.92, 83.13 31.06 C65.95 25.2, 11.84 3.46, -2.33 -1.89" stroke="none" stroke-width="0" fill="#912626" fill-rule="evenodd"></path><path d="M-0.18 1.12 C-0.39 2.19, -0.85 4.5, -0.3 6.47 C0.24 8.44, -3.51 9.14, 3.12 12.95 C9.75 16.77, 26.94 24.07, 39.47 29.34 C52 34.61, 69.21 41.11, 78.29 44.57 C87.36 48.03, 89.05 49.88, 93.9 50.1 C98.75 50.33, 98.64 49.47, 107.39 45.9 C116.13 42.33, 134.54 33.95, 146.35 28.67 C158.16 23.38, 172.19 17.62, 178.24 14.19 C184.28 10.76, 182.23 10.32, 182.64 8.09 C183.06 5.86, 183.3 1.05, 180.7 0.83 C178.09 0.61, 180.42 1.16, 167.01 6.77 C153.6 12.38, 114.08 29.95, 100.26 34.49 C86.44 39.03, 100.81 39.83, 84.08 33.99 C67.35 28.14, 13.79 5.29, -0.13 -0.56 M-1.73 0.66 C-2.21 1.93, -2.03 6.33, -1.41 8.02 C-0.79 9.72, -4.92 7.62, 1.99 10.83 C8.89 14.04, 27.45 21.71, 39.99 27.31 C52.53 32.91, 68.53 40.85, 77.24 44.45 C85.94 48.04, 87.03 48.84, 92.22 48.86 C97.42 48.88, 99.51 48.07, 108.39 44.57 C117.28 41.07, 133.59 33.09, 145.54 27.85 C157.49 22.61, 173.77 16.4, 180.1 13.13 C186.42 9.85, 183.36 10.05, 183.48 8.2 C183.59 6.36, 183.7 2.41, 180.8 2.05 C177.89 1.68, 179.53 0.72, 166.05 6.03 C152.57 11.34, 113.63 29.24, 99.94 33.93 C86.26 38.61, 100.58 40.03, 83.94 34.14 C67.31 28.24, 14.41 4.35, 0.14 -1.42" stroke="#000000" stroke-width="1" fill="none"></path></g></g><mask></mask><g stroke-linecap="round" transform="translate(214.39731710183014 109.90535870422764) rotate(0 91.62251605575659 37.701131008588845)"><path d="M92.76 0.26 L182.77 37.41 L92.1 73.54 L-1.91 36.45" stroke="none" stroke-width="0" fill="#c6302b" fill-rule="evenodd"></path><path d="M92 0 C118.44 9.91, 145.12 22.8, 183.25 38 M92 0 C128.19 15, 162.88 29.94, 183.25 38 M183.25 38 C153.46 50.53, 123.73 62.13, 92 75.4 M183.25 38 C151.94 50.54, 123.01 63.25, 92 75.4 M92 75.4 C63.66 63.62, 38.28 53.44, 0 38 M92 75.4 C57.78 63.09, 24.14 49.02, 0 38 M0 38 C19.4 28.32, 42.75 20.55, 92 0 M0 38 C23.91 28.97, 47.84 19.64, 92 0" stroke="#000000" stroke-width="1" fill="none"></path></g><g stroke-linecap="round" transform="translate(213.2327120910236 79.94403454804467) rotate(0 91.62251605575659 37.701131008588845)"><path d="M91.53 -0.59 L183.34 36.14 L90.09 73.86 L-1.54 37.13" stroke="none" stroke-width="0" fill="#c6302b" fill-rule="evenodd"></path><path d="M92 0 C117.76 11.85, 143.8 22.74, 183.25 38 M92 0 C112.85 8.62, 132.55 16.15, 183.25 38 M183.25 38 C159.7 47.86, 133.1 60.46, 92 75.4 M183.25 38 C160.98 48.28, 137.14 56.63, 92 75.4 M92 75.4 C59.43 60.84, 29.15 47.14, 0 38 M92 75.4 C55.91 61.68, 19.57 47.38, 0 38 M0 38 C34.61 24.89, 67.55 9.74, 92 0 M0 38 C18.23 30.91, 38.43 22.35, 92 0" stroke="#000000" stroke-width="1" fill="none"></path></g><g stroke-linecap="round"><g transform="translate(212.94776168223734 118.08355080091928) rotate(0 91.26084822922076 25.250990070868795)" fill-rule="evenodd"><path d="M-0.8 0.82 C-0.84 1.91, -2.72 6.46, -1.67 8.06 C-0.61 9.67, -1.21 7.03, 5.51 10.47 C12.23 13.91, 26.49 23.02, 38.66 28.72 C50.82 34.42, 69.52 41.43, 78.48 44.68 C87.44 47.93, 87.93 47.93, 92.43 48.2 C96.93 48.46, 96.95 49.02, 105.5 46.27 C114.06 43.52, 131.45 37.1, 143.77 31.71 C156.08 26.32, 173.05 18.15, 179.41 13.91 C185.77 9.67, 181.64 8.93, 181.94 6.29 C182.25 3.66, 184.26 -1.75, 181.24 -1.88 C178.22 -2.02, 177.45 -0.33, 163.82 5.47 C150.18 11.27, 112.73 28.41, 99.42 32.93 C86.12 37.45, 100.82 37.95, 83.96 32.58 C67.11 27.21, 12.14 5.74, -1.7 0.69" stroke="none" stroke-width="0" fill="#912626" fill-rule="evenodd"></path><path d="M0.53 1.01 C0.78 1.85, 0.07 3.61, 0.8 5.47 C1.53 7.32, -1.57 8.33, 4.91 12.14 C11.38 15.95, 27.47 22.94, 39.63 28.35 C51.8 33.77, 69.08 40.86, 77.9 44.65 C86.72 48.44, 87.74 50.72, 92.56 51.11 C97.38 51.49, 97.99 50.47, 106.81 46.95 C115.64 43.44, 133.43 35.67, 145.52 30.01 C157.61 24.35, 173.35 16.74, 179.34 12.99 C185.33 9.24, 181 9.5, 181.47 7.51 C181.95 5.52, 184.77 1.16, 182.19 1.04 C179.62 0.92, 179.4 1.5, 166.02 6.8 C152.64 12.1, 115.9 28.51, 101.92 32.87 C87.94 37.23, 99.22 38.3, 82.16 32.96 C65.09 27.62, 13.36 6.13, -0.47 0.82 M-0.65 0.49 C-0.43 1.41, -0.62 4.36, 0.28 6.49 C1.17 8.62, -1.95 9.42, 4.71 13.25 C11.38 17.08, 28.26 24.25, 40.24 29.47 C52.23 34.69, 67.71 41.08, 76.64 44.56 C85.58 48.05, 88.7 50.11, 93.85 50.38 C99 50.65, 99.12 49.59, 107.52 46.17 C115.93 42.76, 132.51 35.1, 144.27 29.89 C156.04 24.69, 171.88 18.72, 178.12 14.96 C184.36 11.19, 181.48 10.02, 181.69 7.31 C181.91 4.61, 182.27 -1.09, 179.42 -1.29 C176.56 -1.5, 177.37 0.01, 164.54 6.08 C151.72 12.15, 115.79 30.69, 102.47 35.11 C89.16 39.52, 101.81 38.3, 84.66 32.57 C67.52 26.83, 13.76 6.24, -0.39 0.69" stroke="#000000" stroke-width="1" fill="none"></path></g></g><mask></mask><g stroke-linecap="round" transform="translate(246.02453911704606 108.55199695085378) rotate(0 19.77891072748821 8.716130151096479)"><path d="M21.85 0.23 C25.98 0.3, 31.35 1, 34.37 2.28 C37.39 3.57, 39.79 6.11, 39.98 7.95 C40.18 9.78, 38.13 11.73, 35.53 13.31 C32.94 14.89, 28.39 16.92, 24.42 17.45 C20.45 17.98, 15.43 17.28, 11.7 16.49 C7.98 15.71, 3.88 14.43, 2.07 12.73 C0.26 11.02, -0.19 8.14, 0.85 6.26 C1.9 4.38, 4.82 2.41, 8.33 1.43 C11.83 0.45, 19.53 0.65, 21.9 0.37 C24.28 0.09, 22.66 -0.38, 22.6 -0.23 M22.2 0.02 C26.44 0.17, 31.75 1.68, 34.63 3.02 C37.52 4.35, 39.34 6.34, 39.51 8.04 C39.69 9.74, 38.16 11.65, 35.68 13.23 C33.2 14.81, 28.64 17.09, 24.64 17.52 C20.65 17.96, 15.52 16.7, 11.72 15.84 C7.93 14.99, 3.79 13.88, 1.85 12.4 C-0.09 10.92, -1.16 8.69, 0.09 6.96 C1.34 5.23, 5.75 3.2, 9.35 2.03 C12.96 0.87, 19.74 0.29, 21.72 -0.06 C23.69 -0.41, 21.28 -0.31, 21.22 -0.07" stroke="none" stroke-width="0" fill="#ffff"></path><path d="M24.25 0.4 C28.19 0.62, 32.62 1.9, 35.21 3.37 C37.8 4.85, 39.87 7.38, 39.78 9.23 C39.69 11.08, 37.59 13.07, 34.68 14.49 C31.78 15.91, 26.68 17.54, 22.36 17.73 C18.04 17.91, 12.3 16.59, 8.75 15.59 C5.2 14.58, 2.22 13.43, 1.07 11.71 C-0.08 9.98, 0.26 7, 1.85 5.25 C3.43 3.5, 6.85 2.09, 10.58 1.2 C14.3 0.31, 21.83 0.07, 24.21 -0.08 C26.59 -0.23, 24.81 0.15, 24.86 0.3 M24 0.48 C27.97 0.77, 32.4 2.63, 35.08 3.97 C37.75 5.32, 40.2 6.74, 40.05 8.55 C39.89 10.35, 37.07 13.36, 34.15 14.79 C31.22 16.21, 26.69 17.01, 22.48 17.1 C18.27 17.19, 12.54 16.27, 8.88 15.32 C5.21 14.36, 1.82 12.94, 0.5 11.38 C-0.83 9.82, -0.85 7.68, 0.91 5.96 C2.68 4.24, 7.24 2.04, 11.1 1.04 C14.96 0.05, 21.89 0.23, 24.07 0 C26.25 -0.22, 24.36 -0.38, 24.19 -0.3" stroke="#000000" stroke-width="1" fill="none"></path></g><g stroke-linecap="round"><g transform="translate(282.59876217414694 134.98234495386487) rotate(0 17.10021038476168 0.4388512741878685)" fill-rule="evenodd"><path d="M-0.77 -0.44 L25.79 8.17 L33.51 -7.33 L0.39 0.93" stroke="none" stroke-width="0" fill="#ffff" fill-rule="evenodd"></path><path d="M0 0 C8.95 3.57, 18.62 6.45, 25.4 8.48 M0 0 C5.75 2.29, 11.24 3.93, 25.4 8.48 M25.4 8.48 C29.09 3.36, 32.48 -3.54, 34.2 -7.61 M25.4 8.48 C27.26 4.31, 29.63 0.7, 34.2 -7.61 M34.2 -7.61 C26.92 -6.27, 18.69 -4.85, 0 0 M34.2 -7.61 C21.65 -4.89, 9.38 -2.36, 0 0 M0 0 C0 0, 0 0, 0 0 M0 0 C0 0, 0 0, 0 0" stroke="#000000" stroke-width="1" fill="none"></path></g></g><mask></mask><g stroke-linecap="round"><g transform="translate(295.1365801607242 91.454972423703) rotate(0 10.434213498187546 9.570981377454018)" fill-rule="evenodd"><path d="M-0.01 0.98 L2.67 7.64 L-5.56 11.86 L5.1 12.73 L11.24 21.77 L12.92 12.33 L26.2 10.36 L14.48 6.3 L17.93 -1.65 L8.82 3.04 L-0.63 0.41" stroke="none" stroke-width="0" fill="#ffff" fill-rule="evenodd"></path><path d="M0 0 C1.23 2.84, 2.17 5.35, 3.15 6.96 M0 0 C1.04 2.49, 2.35 4.76, 3.15 6.96 M3.15 6.96 C1.49 8.1, -1.02 9.58, -6.08 12.39 M3.15 6.96 C1.13 8.24, -0.85 9.42, -6.08 12.39 M-6.08 12.39 C-3.17 12.28, -0.27 13.31, 5.16 13.46 M-6.08 12.39 C-3.55 12.51, -1.28 12.57, 5.16 13.46 M5.16 13.46 C7.18 15.52, 8.4 17.07, 11.47 20.82 M5.16 13.46 C6.64 15.29, 8.39 17.37, 11.47 20.82 M11.47 20.82 C12.16 18.06, 13 14.67, 13.11 12.17 M11.47 20.82 C11.91 17.27, 12.9 14.17, 13.11 12.17 M13.11 12.17 C17.2 11.39, 20.56 10.85, 26.95 10.17 M13.11 12.17 C16.15 11.42, 20.15 11.35, 26.95 10.17 M26.95 10.17 C24.5 9.88, 22.36 8.69, 15.12 6.52 M26.95 10.17 C23.69 9.23, 20.55 7.77, 15.12 6.52 M15.12 6.52 C16.72 4.18, 17.83 1.04, 18.77 -1.68 M15.12 6.52 C16.08 4.32, 17.34 1.72, 18.77 -1.68 M18.77 -1.68 C15.98 -1.08, 14.56 -0.05, 8.8 2.88 M18.77 -1.68 C15.54 0.07, 12.54 1.44, 8.8 2.88 M8.8 2.88 C6.58 2.69, 5.48 1.59, 0 0 M8.8 2.88 C6.78 1.95, 4.3 1.39, 0 0 M0 0 C0 0, 0 0, 0 0 M0 0 C0 0, 0 0, 0 0" stroke="#000000" stroke-width="1" fill="none"></path></g></g><mask></mask><g stroke-linecap="round"><g transform="translate(347.0542867678323 107.83768687634097) rotate(0 0 8.54851226357539)" fill-rule="evenodd"><path d="M0.3 -0.05 L22.08 8.96 L-0.86 16.93 L-21.39 7.67 L0.28 0.45 L0.98 -0.91" stroke="none" stroke-width="0" fill="#912626" fill-rule="evenodd"></path><path d="M0 0 C6.9 2.82, 15.8 6.18, 21.37 8.55 M0 0 C8.67 3.04, 16.2 6.83, 21.37 8.55 M21.37 8.55 C12.27 12.38, 3.14 14.49, -0.85 17.1 M21.37 8.55 C15.05 11.37, 9.14 13.52, -0.85 17.1 M-0.85 17.1 C-5.69 15.44, -12.68 12.34, -21.37 8.55 M-0.85 17.1 C-7.43 13.89, -14.08 11.74, -21.37 8.55 M-21.37 8.55 C-16.76 6.46, -12.67 4.95, 0 0 M-21.37 8.55 C-17.29 6.64, -12.29 4.94, 0 0 M0 0 C0 0, 0 0, 0 0 M0 0 C0 0, 0 0, 0 0 M0 0 C0 0, 0 0, 0 0 M0 0 C0 0, 0 0, 0 0" stroke="#000000" stroke-width="1" fill="none"></path></g></g><mask></mask><g stroke-linecap="round"><g transform="translate(344.85636584523627 107.32166431406756) rotate(0 0.2191926221430549 8.54851226357539)"><path d="M0 0 C0.51 5.81, 1 11.14, 0.44 17.1 M0 0 C-0.16 5.93, 0.74 11.74, 0.44 17.1" stroke="#000000" stroke-width="1" fill="none"></path></g></g><mask></mask><g transform="translate(295.53336557350303 19.955780400747017) rotate(0 11.807999610900879 22.5)"><text x="0" y="0" font-family="Virgil, Segoe UI Emoji" font-size="36px" fill="#1e1e1e" text-anchor="start" style="white-space: pre;" direction="ltr" dominant-baseline="text-before-edge">A</text></g><g stroke-linecap="round" transform="translate(1049.482133679587 129.01451999963683) rotate(0 91.6225160557567 37.701131008588845)"><path d="M93.82 -1.54 L183.8 38.6 L90.05 77.18 L1.42 37.91" stroke="none" stroke-width="0" fill="#c6302b" fill-rule="evenodd"></path><path d="M92 0 C113.96 8.82, 133.42 18.15, 183.25 38 M92 0 C115.88 9.27, 140.6 20.64, 183.25 38 M183.25 38 C155 47.8, 125.3 61.99, 92 75.4 M183.25 38 C164.01 47.02, 145.25 54.16, 92 75.4 M92 75.4 C57.99 63.46, 20.38 47.74, 0 38 M92 75.4 C57.49 60.66, 25.36 46.97, 0 38 M0 38 C20.64 28.45, 44.78 19.8, 92 0 M0 38 C30.96 26.56, 60.65 13.6, 92 0" stroke="#000000" stroke-width="1" fill="none"></path></g><g stroke-linecap="round"><g transform="translate(1048.3423320444433 166.29918502615396) rotate(0 91.26084822922076 25.250990070868795)" fill-rule="evenodd"><path d="M-2.1 -1.61 C-1.65 -0.63, 1.19 2.21, 1.93 4.95 C2.66 7.69, -3.49 11.14, 2.32 14.83 C8.13 18.53, 24.51 21.76, 36.77 27.12 C49.04 32.48, 66.75 42.96, 75.91 46.99 C85.07 51.01, 86.98 51.82, 91.75 51.27 C96.53 50.72, 95.46 47.16, 104.55 43.68 C113.64 40.2, 134.23 35.4, 146.29 30.36 C158.35 25.33, 170.48 17.69, 176.89 13.48 C183.3 9.28, 183.94 7.19, 184.75 5.13 C185.57 3.07, 185.29 0.39, 181.79 1.13 C178.29 1.87, 176.88 4.09, 163.76 9.54 C150.63 15, 116.63 29.79, 103.05 33.89 C89.47 37.99, 99.86 39.64, 82.29 34.16 C64.73 28.69, 11.69 6.4, -2.33 1.02" stroke="none" stroke-width="0" fill="#912626" fill-rule="evenodd"></path><path d="M-0.03 -1.1 C-0.03 -0.13, -0.28 3.76, 0.17 6.01 C0.62 8.26, -3.82 8.87, 2.68 12.43 C9.18 15.98, 26.51 21.71, 39.14 27.33 C51.77 32.95, 69.51 42.19, 78.47 46.15 C87.43 50.11, 88.29 51.17, 92.9 51.09 C97.52 51.01, 97.47 49.46, 106.18 45.68 C114.88 41.91, 132.96 33.96, 145.14 28.42 C157.32 22.89, 173.05 15.84, 179.28 12.46 C185.5 9.08, 182.26 10.05, 182.48 8.13 C182.69 6.21, 183.39 1.11, 180.59 0.96 C177.78 0.82, 178.7 1.65, 165.64 7.27 C152.58 12.89, 115.94 30.24, 102.24 34.68 C88.54 39.12, 100.31 39.87, 83.45 33.89 C66.6 27.91, 14.98 4.32, 1.1 -1.19 M-1.51 0.94 C-1.66 2.06, -1.77 5.19, -0.69 7.32 C0.39 9.44, -1.72 10.26, 4.98 13.69 C11.68 17.12, 27.41 22.38, 39.5 27.91 C51.59 33.44, 68.38 43.12, 77.52 46.86 C86.67 50.6, 89.53 50.8, 94.37 50.36 C99.2 49.93, 97.72 47.44, 106.55 44.24 C115.38 41.03, 135.44 36.16, 147.35 31.14 C159.27 26.13, 172.05 17.96, 178.02 14.14 C184 10.33, 182.79 10.86, 183.22 8.26 C183.65 5.67, 183.23 -1.17, 180.63 -1.41 C178.03 -1.66, 180.57 0.85, 167.62 6.79 C154.68 12.73, 117.06 29.68, 102.95 34.22 C88.85 38.75, 100.42 39.48, 82.98 33.99 C65.55 28.5, 11.97 7.15, -1.66 1.28" stroke="#000000" stroke-width="1" fill="none"></path></g></g><mask></mask><g stroke-linecap="round"><g transform="translate(1048.057381635657 138.08909455635512) rotate(0 91.26084822922076 25.250990070868795)" fill-rule="evenodd"><path d="M1.93 -1.5 C2.03 0.23, -1.45 6.6, -1.5 8.74 C-1.54 10.88, -4.83 7.82, 1.65 11.33 C8.13 14.83, 24.9 23.94, 37.36 29.77 C49.83 35.6, 67.55 43.23, 76.43 46.32 C85.31 49.4, 85.56 48.24, 90.66 48.3 C95.77 48.36, 98.1 49.81, 107.05 46.67 C115.99 43.53, 132.07 35.29, 144.35 29.46 C156.63 23.63, 174.24 15.33, 180.71 11.71 C187.18 8.09, 183.53 9.27, 183.2 7.75 C182.86 6.23, 181.28 2.66, 178.73 2.57 C176.18 2.49, 180.91 1.88, 167.89 7.26 C154.86 12.63, 115.13 30.31, 100.6 34.82 C86.06 39.34, 97.74 39.85, 80.68 34.36 C63.62 28.87, 11.56 7.69, -1.78 1.9" stroke="none" stroke-width="0" fill="#912626" fill-rule="evenodd"></path><path d="M0.17 -0.43 C-0.01 0.8, -1.77 4.34, -1.13 6.33 C-0.49 8.33, -2.83 7.77, 4.02 11.54 C10.86 15.3, 27.67 23.17, 39.93 28.94 C52.19 34.7, 68.85 42.58, 77.58 46.14 C86.31 49.7, 87.57 50.54, 92.29 50.31 C97.01 50.07, 96.82 48.38, 105.89 44.73 C114.97 41.09, 134.65 33.44, 146.74 28.44 C158.83 23.43, 172.56 18.18, 178.43 14.71 C184.31 11.23, 181.63 9.98, 181.99 7.58 C182.35 5.18, 183.1 0.22, 180.61 0.3 C178.13 0.38, 180.22 2.34, 167.08 8.05 C153.93 13.76, 115.58 30.53, 101.76 34.55 C87.93 38.57, 101.04 37.77, 84.11 32.15 C67.17 26.52, 14.22 6.24, 0.13 0.81 M-1.2 -1.71 C-1.03 -0.18, 0.22 5.48, 0.98 7.81 C1.74 10.15, -3.26 9.18, 3.36 12.33 C9.98 15.48, 28.56 20.94, 40.69 26.7 C52.83 32.45, 67.37 43.09, 76.16 46.84 C84.95 50.58, 88.44 49.23, 93.43 49.17 C98.42 49.1, 97.33 49.45, 106.12 46.44 C114.9 43.44, 134.36 36.59, 146.13 31.16 C157.9 25.74, 170.68 17.86, 176.74 13.91 C182.79 9.95, 181.83 9.54, 182.48 7.43 C183.14 5.31, 183.39 1.14, 180.67 1.23 C177.94 1.32, 179.22 2.52, 166.15 7.98 C153.08 13.45, 115.91 29.51, 102.22 34.01 C88.52 38.51, 100.93 40.55, 83.98 34.99 C67.03 29.43, 14.46 6.41, 0.53 0.67" stroke="#000000" stroke-width="1" fill="none"></path></g></g><mask></mask><g stroke-linecap="round" transform="translate(1048.3423320444433 99.94957830348062) rotate(0 91.6225160557567 37.701131008588845)"><path d="M93.42 -0.09 L182.66 38.67 L90.1 76.24 L-1.45 39.55" stroke="none" stroke-width="0" fill="#c6302b" fill-rule="evenodd"></path><path d="M92 0 C120.36 13.14, 147.55 26.39, 183.25 38 M92 0 C123.57 12.7, 155.3 25.22, 183.25 38 M183.25 38 C151.3 50.79, 116.94 64.55, 92 75.4 M183.25 38 C157.27 49.9, 131.18 59.36, 92 75.4 M92 75.4 C62.36 61.75, 33.21 53.4, 0 38 M92 75.4 C69.38 66.84, 47.65 58.99, 0 38 M0 38 C21.73 29.33, 47.82 17.98, 92 0 M0 38 C27.13 27.77, 53.07 17.13, 92 0" stroke="#000000" stroke-width="1" fill="none"></path></g><g stroke-linecap="round" transform="translate(1047.1777270336368 69.98825414729754) rotate(0 91.6225160557567 37.701131008588845)"><path d="M91.42 0.67 L181.34 38.83 L90.55 76.95 L0.53 37.7" stroke="none" stroke-width="0" fill="#c6302b" fill-rule="evenodd"></path><path d="M92 0 C109.05 9.3, 130.47 15.62, 183.25 38 M92 0 C123.03 12.46, 156.23 25.75, 183.25 38 M183.25 38 C157.51 47.83, 129.38 61.3, 92 75.4 M183.25 38 C151.72 50.78, 118.34 65.8, 92 75.4 M92 75.4 C66.31 66.21, 41.87 53.45, 0 38 M92 75.4 C55.46 60.81, 19.45 45.81, 0 38 M0 38 C20.54 28.5, 39.35 23.54, 92 0 M0 38 C19.44 30.14, 41.65 20.73, 92 0" stroke="#000000" stroke-width="1" fill="none"></path></g><g stroke-linecap="round"><g transform="translate(1046.8927766248505 108.12777040017227) rotate(0 91.26084822922076 25.250990070868795)" fill-rule="evenodd"><path d="M-1.57 1.44 C-1.39 2.84, -1.59 5.73, -1.05 7.21 C-0.51 8.69, -5.05 6.69, 1.67 10.34 C8.4 13.99, 26.92 23.28, 39.29 29.13 C51.66 34.98, 66.61 42.19, 75.9 45.44 C85.19 48.69, 89.79 48.42, 95.04 48.62 C100.28 48.81, 99.28 49.42, 107.37 46.61 C115.45 43.8, 131.41 37.27, 143.55 31.75 C155.69 26.23, 173.84 17.47, 180.22 13.48 C186.59 9.5, 182.04 9.85, 181.81 7.84 C181.57 5.83, 181.7 1.18, 178.79 1.41 C175.89 1.65, 177.17 3.89, 164.37 9.26 C151.56 14.63, 115.48 29.37, 101.96 33.62 C88.44 37.87, 99.89 40.33, 83.27 34.76 C66.64 29.19, 16.23 5.88, 2.22 0.21" stroke="none" stroke-width="0" fill="#912626" fill-rule="evenodd"></path><path d="M0.99 0.6 C0.97 1.94, -0.29 5.08, 0.1 7.03 C0.48 8.99, -3.04 8.99, 3.3 12.35 C9.64 15.7, 25.64 21.84, 38.14 27.19 C50.64 32.53, 69.18 40.35, 78.28 44.42 C87.39 48.49, 88.11 51.28, 92.76 51.62 C97.41 51.96, 97.38 50.14, 106.16 46.44 C114.94 42.75, 133.22 34.83, 145.43 29.47 C157.64 24.11, 173.15 17.93, 179.41 14.27 C185.66 10.62, 182.5 10.08, 182.97 7.57 C183.44 5.05, 185 -0.9, 182.22 -0.8 C179.44 -0.7, 179.83 2.45, 166.28 8.17 C152.73 13.89, 114.96 29.47, 100.91 33.53 C86.86 37.59, 98.64 38.26, 81.98 32.55 C65.32 26.84, 14.73 4.5, 0.94 -0.73 M0.05 -0.12 C-0.14 0.95, -1.17 2.94, -0.8 5.22 C-0.43 7.5, -4.2 9.82, 2.26 13.56 C8.72 17.31, 25.47 22.58, 37.97 27.69 C50.46 32.8, 67.87 40.3, 77.23 44.22 C86.6 48.13, 89.27 50.97, 94.15 51.16 C99.03 51.36, 98.19 49.08, 106.53 45.4 C114.86 41.72, 132.19 34.44, 144.14 29.08 C156.09 23.72, 171.58 16.86, 178.22 13.25 C184.86 9.64, 183.76 9.68, 183.97 7.4 C184.17 5.12, 182.63 -0.57, 179.45 -0.44 C176.28 -0.31, 178.02 2.69, 164.94 8.17 C151.85 13.65, 114.35 28.5, 100.93 32.46 C87.5 36.43, 100.92 37.64, 84.39 31.95 C67.87 26.25, 15.85 3.76, 1.77 -1.68" stroke="#000000" stroke-width="1" fill="none"></path></g></g><mask></mask><g stroke-linecap="round" transform="translate(1079.9695540596592 98.59621655010687) rotate(0 19.77891072748821 8.716130151096479)"><path d="M20.34 -0.16 C24.35 -0.3, 29.9 1.02, 33.04 2.24 C36.17 3.46, 38.59 5.29, 39.16 7.18 C39.73 9.06, 38.6 11.9, 36.47 13.55 C34.34 15.2, 30.34 16.59, 26.4 17.09 C22.45 17.6, 16.79 17.26, 12.8 16.6 C8.8 15.94, 4.51 14.75, 2.44 13.14 C0.38 11.54, -0.46 8.81, 0.4 6.96 C1.27 5.1, 4.27 3.23, 7.65 2 C11.04 0.78, 18.31 -0.01, 20.73 -0.38 C23.14 -0.75, 22.05 -0.46, 22.15 -0.22 M20.49 -0.17 C24.54 -0.16, 29.67 1, 32.81 2.13 C35.96 3.27, 38.68 4.88, 39.34 6.65 C40 8.41, 38.95 10.98, 36.78 12.72 C34.6 14.47, 30.15 16.36, 26.27 17.12 C22.4 17.88, 17.59 17.89, 13.53 17.27 C9.46 16.65, 4.05 15.03, 1.88 13.39 C-0.28 11.75, -0.34 9.33, 0.52 7.43 C1.38 5.53, 3.86 3.31, 7.06 2.01 C10.25 0.7, 17.56 -0.2, 19.68 -0.41 C21.81 -0.62, 19.83 0.47, 19.82 0.74" stroke="none" stroke-width="0" fill="#ffff"></path><path d="M17.18 0.38 C21.09 0.13, 26.65 0.51, 30.32 1.46 C34 2.41, 37.95 4.31, 39.24 6.07 C40.54 7.83, 39.9 10.22, 38.11 12.03 C36.31 13.84, 32.25 16.04, 28.46 16.93 C24.66 17.82, 19.4 17.8, 15.33 17.36 C11.26 16.93, 6.67 15.85, 4.04 14.32 C1.41 12.79, -0.75 10.15, -0.45 8.19 C-0.15 6.22, 2.69 3.94, 5.85 2.51 C9.01 1.08, 16.23 -0.09, 18.48 -0.42 C20.74 -0.74, 19.37 0.4, 19.37 0.57 M23.89 0.68 C27.92 1.08, 32.84 2.44, 35.34 3.76 C37.84 5.07, 39.05 6.7, 38.87 8.56 C38.68 10.43, 37.14 13.49, 34.25 14.95 C31.37 16.41, 25.67 17.27, 21.56 17.34 C17.44 17.42, 12.99 16.4, 9.57 15.41 C6.15 14.43, 2.47 13.01, 1.03 11.43 C-0.42 9.85, -0.84 7.68, 0.9 5.92 C2.64 4.16, 7.59 1.79, 11.46 0.89 C15.34 -0.02, 22.14 0.52, 24.15 0.49 C26.17 0.46, 23.7 0.52, 23.57 0.72" stroke="#000000" stroke-width="1" fill="none"></path></g><g stroke-linecap="round"><g transform="translate(1116.5437771167606 125.02656455311785) rotate(0 17.100210384761567 0.4388512741878685)" fill-rule="evenodd"><path d="M0.27 -0.15 L25.5 9.06 L35.11 -7.52 L-0.33 0.3" stroke="none" stroke-width="0" fill="#ffff" fill-rule="evenodd"></path><path d="M0 0 C7.68 2, 14.71 5.95, 25.4 8.48 M0 0 C5 1.86, 10.24 3.33, 25.4 8.48 M25.4 8.48 C29.09 3.24, 31.08 -3.57, 34.2 -7.61 M25.4 8.48 C28.26 2.29, 32.25 -3.59, 34.2 -7.61 M34.2 -7.61 C25.57 -6.58, 18.48 -4.55, 0 0 M34.2 -7.61 C22.91 -5.08, 11.18 -2.74, 0 0 M0 0 C0 0, 0 0, 0 0 M0 0 C0 0, 0 0, 0 0" stroke="#000000" stroke-width="1" fill="none"></path></g></g><mask></mask><g stroke-linecap="round"><g transform="translate(1129.0815951033376 81.49919202295587) rotate(0 10.434213498187546 9.570981377454018)" fill-rule="evenodd"><path d="M-1 0.05 L3.78 6.64 L-5.17 13.17 L5.79 12.62 L11.92 21.74 L12.94 11.29 L27.75 9.61 L15.94 7.29 L19.44 -0.7 L8.04 2.35 L-0.61 0.87" stroke="none" stroke-width="0" fill="#ffff" fill-rule="evenodd"></path><path d="M0 0 C0.44 2.05, 1.25 3.57, 3.15 6.96 M0 0 C1.14 2.71, 2.61 5.57, 3.15 6.96 M3.15 6.96 C-0.48 8.89, -2.7 10.48, -6.08 12.39 M3.15 6.96 C0.93 8.18, -1.86 10.01, -6.08 12.39 M-6.08 12.39 C-3.38 12.41, -1.15 12.38, 5.16 13.46 M-6.08 12.39 C-3.9 12.58, -1.1 12.6, 5.16 13.46 M5.16 13.46 C7.67 16.24, 9.28 18.17, 11.47 20.82 M5.16 13.46 C7.05 16.09, 9.4 18.32, 11.47 20.82 M11.47 20.82 C11.99 17.98, 12.59 15.48, 13.11 12.17 M11.47 20.82 C12.04 18.69, 12.4 16.37, 13.11 12.17 M13.11 12.17 C16.65 11.59, 20.44 11.27, 26.95 10.17 M13.11 12.17 C16.01 11.95, 19.64 11.2, 26.95 10.17 M26.95 10.17 C23.08 9.31, 19.53 7.97, 15.12 6.52 M26.95 10.17 C24.21 9.41, 21.89 8.66, 15.12 6.52 M15.12 6.52 C15.98 4.85, 16.55 3.14, 18.77 -1.68 M15.12 6.52 C15.96 4.6, 16.74 2.35, 18.77 -1.68 M18.77 -1.68 C15.28 -0.25, 11.45 1.72, 8.8 2.88 M18.77 -1.68 C16.1 -0.66, 12.99 0.8, 8.8 2.88 M8.8 2.88 C6.36 2.12, 4.86 1.33, 0 0 M8.8 2.88 C5.91 1.97, 2.92 1, 0 0 M0 0 C0 0, 0 0, 0 0 M0 0 C0 0, 0 0, 0 0" stroke="#000000" stroke-width="1" fill="none"></path></g></g><mask></mask><g stroke-linecap="round"><g transform="translate(1180.999301710446 97.88190647559395) rotate(0 0 8.54851226357539)" fill-rule="evenodd"><path d="M0.89 -0.22 L21.76 8.66 L-0.76 16.33 L-21.52 8.06 L-0.31 0.27 L0.74 0.5" stroke="none" stroke-width="0" fill="#912626" fill-rule="evenodd"></path><path d="M0 0 C4 1.89, 10.86 3.48, 21.37 8.55 M0 0 C7.79 3.26, 15.01 6.18, 21.37 8.55 M21.37 8.55 C13.3 11.57, 3.54 14.39, -0.85 17.1 M21.37 8.55 C15.89 10.95, 10.55 12.24, -0.85 17.1 M-0.85 17.1 C-5.4 14.16, -11.45 13.17, -21.37 8.55 M-0.85 17.1 C-7.19 13.87, -14.33 11.56, -21.37 8.55 M-21.37 8.55 C-17.13 6.45, -12.43 4.06, 0 0 M-21.37 8.55 C-13.91 5.47, -6.68 2.91, 0 0 M0 0 C0 0, 0 0, 0 0 M0 0 C0 0, 0 0, 0 0 M0 0 C0 0, 0 0, 0 0 M0 0 C0 0, 0 0, 0 0" stroke="#000000" stroke-width="1" fill="none"></path></g></g><mask></mask><g stroke-linecap="round"><g transform="translate(1178.8013807878494 97.36588391332043) rotate(0 0.2191926221430549 8.54851226357539)"><path d="M0 0 C0.88 5.89, 0.65 12.17, 0.44 17.1 M0 0 C0.35 5.19, 0.71 9.55, 0.44 17.1" stroke="#000000" stroke-width="1" fill="none"></path></g></g><mask></mask><g transform="translate(1129.4783805161167 10) rotate(0 13.086000442504883 22.5)"><text x="0" y="0" font-family="Virgil, Segoe UI Emoji" font-size="36px" fill="#1e1e1e" text-anchor="start" style="white-space: pre;" direction="ltr" dominant-baseline="text-before-edge">B</text></g><g stroke-linecap="round"><g transform="translate(1019.1080679531244 137.80609760350012) rotate(0 -300.6147299258066 3.7112929620470254)"><path d="M-0.26 -0.88 C-100.11 0.02, -499.87 5.21, -600.19 6.49 M1.8 1.27 C-98.02 2.81, -500.33 6.45, -600.59 7.53" stroke="#1e1e1e" stroke-width="2" fill="none"></path></g><g transform="translate(1019.1080679531244 137.80609760350012) rotate(0 -300.6147299258066 3.7112929620470254)"><path d="M-577.19 -1.25 C-583.51 2.28, -588.52 0.81, -600.59 7.53 M-577.19 -1.25 C-583.32 1.94, -587.92 2.48, -600.59 7.53" stroke="#1e1e1e" stroke-width="2" fill="none"></path></g><g transform="translate(1019.1080679531244 137.80609760350012) rotate(0 -300.6147299258066 3.7112929620470254)"><path d="M-577.02 15.85 C-583.53 15.78, -588.57 10.71, -600.59 7.53 M-577.02 15.85 C-583.34 14.83, -587.97 11.16, -600.59 7.53" stroke="#1e1e1e" stroke-width="2" fill="none"></path></g></g><mask></mask><g transform="translate(459.44508927643756 84.36347895002359) rotate(0 261.647979736328 22.5)"><text x="0" y="0" font-family="Virgil, Segoe UI Emoji" font-size="36px" fill="#1e1e1e" text-anchor="start" style="white-space: pre;" direction="ltr" dominant-baseline="text-before-edge">(1) REPLICAOF &lt;IP&gt; &lt;PORT&gt;</text></g><g stroke-linecap="round"><g transform="translate(1123.0518157709387 575.4619616894087) rotate(0 30.233734130859375 -0.1092987060546875)"><path d="M-0.9 -1.15 C9.1 -1.06, 50.3 0.77, 60.63 0.75 M0.82 0.86 C10.63 0.61, 49.8 -0.63, 59.77 -0.87" stroke="#000000" stroke-width="1" fill="none"></path></g></g><mask></mask><g stroke-linecap="round"><g transform="translate(1122.0837066400793 584.3056353954634) rotate(0 30.233734130859375 -0.1092987060546875)"><path d="M0.17 0.97 C10.5 0.94, 50.88 -1.11, 61.09 -1.3 M-1.21 0.43 C9.1 0.61, 50.07 -0.45, 60.48 -0.34" stroke="#000000" stroke-width="1" fill="none"></path></g></g><mask></mask><g stroke-linecap="round"><g transform="translate(1123.567761205509 594.883798542436) rotate(0 30.233734130859375 -0.1092987060546875)"><path d="M0.63 -1.08 C10.84 -1.28, 51.44 -0.54, 61.46 -0.21 M-0.5 0.96 C9.63 0.89, 50.94 1.63, 61.03 1.34" stroke="#000000" stroke-width="1" fill="none"></path></g></g><mask></mask><g stroke-linecap="round"><g transform="translate(1122.5996520746496 603.7274722484907) rotate(0 30.233734130859375 -0.1092987060546875)"><path d="M0.99 0.01 C11.01 0.35, 50.96 0.87, 60.72 0.95 M0.06 -1.03 C9.88 -0.9, 49.59 -0.48, 59.9 -0.57" stroke="#000000" stroke-width="1" fill="none"></path></g></g><mask></mask><g stroke-linecap="round"><g transform="translate(1123.1812484491613 612.6203288463911) rotate(0 30.233734130859375 -0.1092987060546875)"><path d="M0.25 1.16 C10.01 1.24, 49.6 0.81, 59.53 0.44 M-1.07 0.73 C8.96 0.45, 51.79 -1.19, 61.74 -1.33" stroke="#000000" stroke-width="1" fill="none"></path></g></g><mask></mask><g stroke-linecap="round"><g transform="translate(1122.213139318302 621.4640025524458) rotate(0 30.233734130859375 -0.1092987060546875)"><path d="M-0.94 0.66 C8.98 0.3, 49.52 -0.81, 59.78 -1.01 M0.77 -0.03 C11.06 0.25, 52.27 0, 62.13 0.12" stroke="#000000" stroke-width="1" fill="none"></path></g></g><mask></mask><g stroke-linecap="round"><g transform="translate(1123.6971938837316 632.0421656994184) rotate(0 30.233734130859375 -0.1092987060546875)"><path d="M-0.69 -0.79 C9.57 -0.98, 50.44 -0.78, 60.63 -0.49 M1.15 1.41 C11.35 1.34, 50.01 1.27, 59.76 0.91" stroke="#000000" stroke-width="1" fill="none"></path></g></g><mask></mask><g stroke-linecap="round"><g transform="translate(1122.7290847528723 640.8858394054731) rotate(0 30.233734130859375 -0.1092987060546875)"><path d="M0.16 -0.27 C10.34 0.02, 50.46 0.82, 60.43 0.95 M-1.22 -1.45 C8.87 -1.4, 49.43 -0.55, 59.46 -0.55" stroke="#000000" stroke-width="1" fill="none"></path></g></g><mask></mask><g stroke-linecap="round"><g transform="translate(1114.7174407709392 563.8244616894084) rotate(0 0.593170166015625 44.77740478515625)"><path d="M-0.04 1.17 C0.05 16.27, 0.62 75.61, 0.68 90.29 M-1.52 0.74 C-1.65 15.52, -1.25 73.61, -0.54 88.55" stroke="#000000" stroke-width="1" fill="none"></path></g></g><mask></mask><g stroke-linecap="round"><g transform="translate(1116.4002105463298 652.6252124218303) rotate(0 38.20728302001953 0.09243011474609375)"><path d="M-0.51 0.73 C12.09 0.51, 62.79 -0.18, 75.56 -0.16 M1.43 0.07 C14.41 0.53, 65.53 1.4, 77.82 1.19" stroke="#000000" stroke-width="1" fill="none"></path></g></g><mask></mask><g stroke-linecap="round"><g transform="translate(1193.7330657709392 653.8400866894084) rotate(0 -0.12176513671875 -41.72425842285156)"><path d="M-0.86 -0.35 C-0.87 -14.27, -0.58 -68.83, -0.57 -82.79 M0.89 -1.57 C0.74 -15.91, -1.23 -70.97, -1.69 -84.56" stroke="#000000" stroke-width="1" fill="none"></path></g></g><mask></mask><g stroke-linecap="round"><g transform="translate(1193.4830657709392 570.3869616894084) rotate(0 -5.3465576171875 -4.78912353515625)"><path d="M-0.15 0.3 C-1.91 -1.32, -9.19 -8.29, -10.96 -9.88 M0.77 -0.02 C-1.05 -1.56, -9.54 -7.65, -11.52 -9.33" stroke="#000000" stroke-width="1" fill="none"></path></g></g><mask></mask><g stroke-linecap="round"><g transform="translate(1184.8141204584392 560.7959124950725) rotate(0 -34.70611572265625 1.6865158081054688)"><path d="M-0.58 -0.65 C-12.11 -0.06, -58.13 3.68, -69.51 4.19 M1.32 1.63 C-10.35 1.82, -58.73 2.23, -70.5 2.5" stroke="#000000" stroke-width="1" fill="none"></path></g></g><mask></mask><g transform="translate(1055.8057539512567 678.1663662792076) rotate(0 95.04000091552734 22.5)"><text x="0" y="0" font-family="Virgil, Segoe UI Emoji" font-size="36px" fill="#1e1e1e" text-anchor="start" style="white-space: pre;" direction="ltr" dominant-baseline="text-before-edge">RDB 스냅숏</text></g><g stroke-linecap="round" transform="translate(328.15490657123655 471.15366030957216) rotate(90.58601858780379 52.68620876075545 8.04996969524808)"><path d="M105.37 8.05 C105.37 8.47, 105.15 8.89, 104.72 9.31 C104.29 9.72, 103.64 10.14, 102.79 10.54 C101.94 10.94, 100.88 11.33, 99.63 11.7 C98.38 12.08, 96.93 12.44, 95.31 12.78 C93.7 13.12, 91.88 13.45, 89.94 13.74 C88 14.04, 85.88 14.32, 83.65 14.56 C81.43 14.81, 79.05 15.03, 76.61 15.22 C74.16 15.41, 71.58 15.58, 68.97 15.71 C66.35 15.84, 63.64 15.94, 60.93 16 C58.21 16.07, 55.43 16.1, 52.69 16.1 C49.94 16.1, 47.16 16.07, 44.44 16 C41.73 15.94, 39.02 15.84, 36.41 15.71 C33.79 15.58, 31.22 15.41, 28.77 15.22 C26.32 15.03, 23.94 14.81, 21.72 14.56 C19.5 14.32, 17.37 14.04, 15.43 13.74 C13.49 13.45, 11.68 13.12, 10.06 12.78 C8.45 12.44, 6.99 12.08, 5.74 11.7 C4.5 11.33, 3.43 10.94, 2.58 10.54 C1.73 10.14, 1.08 9.72, 0.65 9.31 C0.22 8.89, 0 8.47, 0 8.05 C0 7.63, 0.22 7.21, 0.65 6.79 C1.08 6.38, 1.73 5.96, 2.58 5.56 C3.43 5.16, 4.5 4.77, 5.74 4.4 C6.99 4.02, 8.45 3.66, 10.06 3.32 C11.68 2.98, 13.49 2.65, 15.43 2.36 C17.37 2.06, 19.5 1.78, 21.72 1.54 C23.94 1.29, 26.32 1.07, 28.77 0.88 C31.22 0.69, 33.79 0.52, 36.41 0.39 C39.02 0.26, 41.73 0.16, 44.44 0.1 C47.16 0.03, 49.94 0, 52.69 0 C55.43 0, 58.21 0.03, 60.93 0.1 C63.64 0.16, 66.35 0.26, 68.97 0.39 C71.58 0.52, 74.16 0.69, 76.61 0.88 C79.05 1.07, 81.43 1.29, 83.65 1.54 C85.88 1.78, 88 2.06, 89.94 2.36 C91.88 2.65, 93.7 2.98, 95.31 3.32 C96.93 3.66, 98.38 4.02, 99.63 4.4 C100.88 4.77, 101.94 5.16, 102.79 5.56 C103.64 5.96, 104.29 6.38, 104.72 6.79 C105.15 7.21, 105.26 7.84, 105.37 8.05 C105.48 8.26, 105.48 7.84, 105.37 8.05" stroke="#000000" stroke-width="1" fill="none"></path></g><g stroke-linecap="round" transform="translate(186.7580714960509 468.57417883296193) rotate(90.58601858780379 52.77892467082438 9.997222767371966)"><path d="M105.56 10 C105.56 10.52, 105.34 11.05, 104.91 11.56 C104.48 12.08, 103.83 12.59, 102.97 13.09 C102.12 13.58, 101.05 14.07, 99.81 14.54 C98.56 15, 97.1 15.45, 95.48 15.87 C93.86 16.3, 92.05 16.7, 90.1 17.07 C88.15 17.43, 86.03 17.78, 83.8 18.09 C81.58 18.39, 79.19 18.67, 76.74 18.9 C74.29 19.14, 71.71 19.34, 69.09 19.51 C66.47 19.67, 63.75 19.79, 61.04 19.87 C58.32 19.95, 55.53 19.99, 52.78 19.99 C50.03 19.99, 47.24 19.95, 44.52 19.87 C41.8 19.79, 39.09 19.67, 36.47 19.51 C33.85 19.34, 31.27 19.14, 28.82 18.9 C26.37 18.67, 23.98 18.39, 21.76 18.09 C19.53 17.78, 17.4 17.43, 15.46 17.07 C13.51 16.7, 11.7 16.3, 10.08 15.87 C8.46 15.45, 7 15, 5.75 14.54 C4.5 14.07, 3.43 13.58, 2.58 13.09 C1.73 12.59, 1.08 12.08, 0.65 11.56 C0.22 11.05, 0 10.52, 0 10 C0 9.48, 0.22 8.95, 0.65 8.43 C1.08 7.92, 1.73 7.4, 2.58 6.91 C3.43 6.41, 4.5 5.92, 5.75 5.46 C7 4.99, 8.46 4.54, 10.08 4.12 C11.7 3.7, 13.51 3.3, 15.46 2.93 C17.4 2.56, 19.53 2.22, 21.76 1.91 C23.98 1.6, 26.37 1.33, 28.82 1.09 C31.27 0.85, 33.85 0.65, 36.47 0.49 C39.09 0.33, 41.8 0.2, 44.52 0.12 C47.24 0.04, 50.03 0, 52.78 0 C55.53 0, 58.32 0.04, 61.04 0.12 C63.75 0.2, 66.47 0.33, 69.09 0.49 C71.71 0.65, 74.29 0.85, 76.74 1.09 C79.19 1.33, 81.58 1.6, 83.8 1.91 C86.03 2.22, 88.15 2.56, 90.1 2.93 C92.05 3.3, 93.86 3.7, 95.48 4.12 C97.1 4.54, 98.56 4.99, 99.81 5.46 C101.05 5.92, 102.12 6.41, 102.97 6.91 C103.83 7.4, 104.48 7.92, 104.91 8.43 C105.34 8.95, 105.45 9.74, 105.56 10 C105.67 10.26, 105.67 9.74, 105.56 10" stroke="#000000" stroke-width="1" fill="none"></path></g><g stroke-linecap="round" transform="translate(195.70041365460884 471.902068473011) rotate(90.58601858780379 51.41556745188427 6.62835422200277)"><path d="M0 0 L102.83 0 L102.83 13.26 L0 13.26" stroke="none" stroke-width="0" fill="#fff"></path><path d="M0 0 C31.07 0, 62.13 0, 102.83 0 M0 0 C32.51 0, 65.01 0, 102.83 0 M102.83 0 C102.83 3.45, 102.83 6.9, 102.83 13.26 M102.83 0 C102.83 3.64, 102.83 7.28, 102.83 13.26 M102.83 13.26 C62.17 13.26, 21.51 13.26, 0 13.26 M102.83 13.26 C67.34 13.26, 31.86 13.26, 0 13.26 M0 13.26 C0 8.28, 0 3.3, 0 0 M0 13.26 C0 10.27, 0 7.29, 0 0" stroke="#ffff" stroke-width="4" fill="none"></path></g><g stroke-linecap="round"><g transform="translate(308.48110769439427 462.15237230382536) rotate(90.58601858780379 -0.14043327532806416 70.08257001959697)"><path d="M0 0 C-0.05 23.36, -0.23 116.8, -0.28 140.17 M0 0 C-0.05 23.36, -0.23 116.8, -0.28 140.17" stroke="#000000" stroke-width="1" fill="none"></path></g></g><mask></mask><g stroke-linecap="round"><g transform="translate(309.38614625991477 355.71237104149986) rotate(90.58601858780379 0.31353630400610655 70.51124978168775)"><path d="M0 0 C0.1 23.5, 0.52 117.52, 0.63 141.02 M0 0 C0.1 23.5, 0.52 117.52, 0.63 141.02" stroke="#000000" stroke-width="1" fill="none"></path></g></g><mask></mask><g stroke-linecap="round"><g transform="translate(310.62151407699207 230.88118208548258) rotate(0 -0.7021538578540003 94.79077081028862)"><path d="M0.66 0.55 C0.45 32.22, -0.32 158.73, -0.78 190.11 M-0.45 -0.21 C-0.81 31.1, -1.54 156.61, -1.41 188.26" stroke="#1e1e1e" stroke-width="2" fill="none"></path></g><g transform="translate(310.62151407699207 230.88118208548258) rotate(0 -0.7021538578540003 94.79077081028862)"><path d="M-9.92 164.75 C-6.09 173.75, -3.23 179.52, -1.41 188.26 M-9.92 164.75 C-8 169.47, -5.37 175.18, -1.41 188.26" stroke="#1e1e1e" stroke-width="2" fill="none"></path></g><g transform="translate(310.62151407699207 230.88118208548258) rotate(0 -0.7021538578540003 94.79077081028862)"><path d="M7.18 164.78 C5.18 173.87, 2.22 179.62, -1.41 188.26 M7.18 164.78 C5.11 169.52, 3.74 175.22, -1.41 188.26" stroke="#1e1e1e" stroke-width="2" fill="none"></path></g></g><mask></mask><g transform="translate(10 276.66795114267063) rotate(0 137.23199462890625 45)"><text x="0" y="0" font-family="Virgil, Segoe UI Emoji" font-size="36px" fill="#1e1e1e" text-anchor="start" style="white-space: pre;" direction="ltr" dominant-baseline="text-before-edge">(3) 데이터셋 변경</text><text x="0" y="45" font-family="Virgil, Segoe UI Emoji" font-size="36px" fill="#1e1e1e" text-anchor="start" style="white-space: pre;" direction="ltr" dominant-baseline="text-before-edge">커멘드 저장</text></g><g transform="translate(143.50889590774273 545.4461104040698) rotate(0 160.5240020751953 22.5)"><text x="0" y="0" font-family="Virgil, Segoe UI Emoji" font-size="36px" fill="#1e1e1e" text-anchor="start" style="white-space: pre;" direction="ltr" dominant-baseline="text-before-edge">Replication Buffer</text></g><g stroke-linecap="round"><g transform="translate(399.09290016659475 476.63503233437893) rotate(0 323.6929284706889 -139.72861771294384)"><path d="M-0.91 0.25 C106.86 -46.16, 538.11 -231.67, 646.23 -278.31 M0.81 -0.66 C108.97 -47.39, 540.59 -233.55, 648.33 -279.83" stroke="#1e1e1e" stroke-width="2" fill="none"></path></g><g transform="translate(399.09290016659475 476.63503233437893) rotate(0 323.6929284706889 -139.72861771294384)"><path d="M630.14 -262.69 C635.4 -269.05, 641.74 -271.01, 648.33 -279.83 M630.14 -262.69 C636.36 -268.39, 640.59 -272.86, 648.33 -279.83" stroke="#1e1e1e" stroke-width="2" fill="none"></path></g><g transform="translate(399.09290016659475 476.63503233437893) rotate(0 323.6929284706889 -139.72861771294384)"><path d="M623.38 -278.39 C630.46 -280.51, 638.61 -278.28, 648.33 -279.83 M623.38 -278.39 C631.5 -279.5, 637.69 -279.39, 648.33 -279.83" stroke="#1e1e1e" stroke-width="2" fill="none"></path></g></g><mask></mask><g transform="translate(822.9561731188562 300.219706015444) rotate(0 105.35399627685547 45)"><text x="0" y="0" font-family="Virgil, Segoe UI Emoji" font-size="36px" fill="#1e1e1e" text-anchor="start" style="white-space: pre;" direction="ltr" dominant-baseline="text-before-edge">(6) 버퍼링된 </text><text x="0" y="45" font-family="Virgil, Segoe UI Emoji" font-size="36px" fill="#1e1e1e" text-anchor="start" style="white-space: pre;" direction="ltr" dominant-baseline="text-before-edge">커맨드 전달</text></g><g stroke-linecap="round"><g transform="translate(1163.0362975117353 544.0418026883619) rotate(0 0 -152.36738715431568)"><path d="M-0.79 -0.63 C-0.58 -51.5, 0.42 -254.53, 0.61 -305.2 M1 1.65 C1.16 -49.06, 0.19 -253.08, -0.01 -303.91" stroke="#1e1e1e" stroke-width="2" fill="none"></path></g><g transform="translate(1163.0362975117353 544.0418026883619) rotate(0 0 -152.36738715431568)"><path d="M8.64 -280.46 C5.46 -285.25, 3.61 -291.41, -0.01 -303.91 M8.64 -280.46 C6.05 -287.92, 3.2 -295.43, -0.01 -303.91" stroke="#1e1e1e" stroke-width="2" fill="none"></path></g><g transform="translate(1163.0362975117353 544.0418026883619) rotate(0 0 -152.36738715431568)"><path d="M-8.46 -280.39 C-7.44 -285.08, -5.1 -291.26, -0.01 -303.91 M-8.46 -280.39 C-5.85 -288, -3.48 -295.53, -0.01 -303.91" stroke="#1e1e1e" stroke-width="2" fill="none"></path></g></g><mask></mask><g transform="translate(1194.6411430215496 445.1215017765488) rotate(0 208.8900146484375 45)"><text x="0" y="0" font-family="Virgil, Segoe UI Emoji" font-size="36px" fill="#1e1e1e" text-anchor="start" style="white-space: pre;" direction="ltr" dominant-baseline="text-before-edge">(5) 메모리 내용 flush</text><text x="0" y="45" font-family="Virgil, Segoe UI Emoji" font-size="36px" fill="#1e1e1e" text-anchor="start" style="white-space: pre;" direction="ltr" dominant-baseline="text-before-edge">한 뒤 RDB 파일 내용 로딩</text></g><g stroke-linecap="round"><g transform="translate(424.84407406696687 172.17368166796496) rotate(0 301.68662772335006 -3.8578852650044837)"><path d="M1.19 0.12 C101.96 -0.92, 502.98 -5.56, 603.47 -6.82 M0.36 -0.87 C101.07 -2.18, 502 -7.62, 602.57 -8.47" stroke="#1e1e1e" stroke-width="2" fill="none"></path></g><g transform="translate(424.84407406696687 172.17368166796496) rotate(0 301.68662772335006 -3.8578852650044837)"><path d="M579.18 0.35 C584.3 -1.56, 590.47 -2.27, 602.57 -8.47 M579.18 0.35 C587.59 -2.65, 594.31 -5.58, 602.57 -8.47" stroke="#1e1e1e" stroke-width="2" fill="none"></path></g><g transform="translate(424.84407406696687 172.17368166796496) rotate(0 301.68662772335006 -3.8578852650044837)"><path d="M578.99 -16.75 C584.06 -15.09, 590.28 -12.24, 602.57 -8.47 M578.99 -16.75 C587.44 -14.21, 594.22 -11.59, 602.57 -8.47" stroke="#1e1e1e" stroke-width="2" fill="none"></path></g></g><mask></mask><g transform="translate(420.2146117489617 187.605222727983) rotate(0 177.93002319335938 67.5)"><text x="0" y="0" font-family="Virgil, Segoe UI Emoji" font-size="36px" fill="#1e1e1e" text-anchor="start" style="white-space: pre;" direction="ltr" dominant-baseline="text-before-edge">(2) 소켓 통신을 사용해</text><text x="0" y="45" font-family="Virgil, Segoe UI Emoji" font-size="36px" fill="#1e1e1e" text-anchor="start" style="white-space: pre;" direction="ltr" dominant-baseline="text-before-edge">diskless하게</text><text x="0" y="90" font-family="Virgil, Segoe UI Emoji" font-size="36px" fill="#1e1e1e" text-anchor="start" style="white-space: pre;" direction="ltr" dominant-baseline="text-before-edge">RDB 데이터 전달</text></g><g stroke-linecap="round"><g transform="translate(1131.608654615787 238.52930822604208) rotate(0 2.314731159002804 146.59964007017004)"><path d="M0.06 0.27 C0.61 49.36, 3.68 244.64, 4.28 293.49 M-1.37 -0.63 C-1.1 48.16, 1.92 242.28, 3.15 291.53" stroke="#1e1e1e" stroke-width="2" fill="none"></path></g><g transform="translate(1131.608654615787 238.52930822604208) rotate(0 2.314731159002804 146.59964007017004)"><path d="M-5.86 268.2 C-2.17 276.5, 1.3 284.31, 3.15 291.53 M-5.86 268.2 C-3.02 274.77, 0.33 283.8, 3.15 291.53" stroke="#1e1e1e" stroke-width="2" fill="none"></path></g><g transform="translate(1131.608654615787 238.52930822604208) rotate(0 2.314731159002804 146.59964007017004)"><path d="M11.24 267.87 C8.42 276.3, 5.37 284.24, 3.15 291.53 M11.24 267.87 C8.65 274.68, 6.56 283.82, 3.15 291.53" stroke="#1e1e1e" stroke-width="2" fill="none"></path></g></g><mask></mask><g transform="translate(736.5612034793287 446.85511253628374) rotate(0 190.8900146484375 45)"><text x="0" y="0" font-family="Virgil, Segoe UI Emoji" font-size="36px" fill="#1e1e1e" text-anchor="start" style="white-space: pre;" direction="ltr" dominant-baseline="text-before-edge">(4) 소캣에서 읽어온 </text><text x="0" y="45" font-family="Virgil, Segoe UI Emoji" font-size="36px" fill="#1e1e1e" text-anchor="start" style="white-space: pre;" direction="ltr" dominant-baseline="text-before-edge">RDB 데이터 파일로 저장</text></g></svg>