<svg version="1.1" xmlns="http://www.w3.org/2000/svg" viewBox="0 0 839.7781915157864 583.9085878685848" width="1679.5563830315728" height="1167.8171757371697">
  <!-- svg-source:excalidraw -->
  
  <defs>
    <style class="style-fonts">
      @font-face {
        font-family: "Virgil";
        src: url("https://excalidraw.com/Virgil.woff2");
      }
      @font-face {
        font-family: "Cascadia";
        src: url("https://excalidraw.com/Cascadia.woff2");
      }
      @font-face {
        font-family: "Assistant";
        src: url("https://excalidraw.com/Assistant-Regular.woff2");
      }
    </style>
    
  </defs>
  <rect x="0" y="0" width="839.7781915157864" height="583.9085878685848" fill="#ffffff"></rect><g stroke-linecap="round" transform="translate(26.592375787000492 82.94734269565049) rotate(0 59.16015625 59.8515625)"><path d="M0 0 C35.69 0.65, 69.21 0.96, 118.32 0 M0 0 C32.54 -0.68, 64.43 -0.86, 118.32 0 M118.32 0 C119.67 46.91, 120.36 91.76, 118.32 119.7 M118.32 0 C118.96 41.07, 119.32 81.94, 118.32 119.7 M118.32 119.7 C75.73 117.64, 30.07 118.84, 0 119.7 M118.32 119.7 C80.15 119.33, 42.08 119.12, 0 119.7 M0 119.7 C-2.71 87.67, 1.1 52.33, 0 0 M0 119.7 C1.55 90.07, 1.11 58.94, 0 0" stroke="#000000" stroke-width="1" fill="none"></path></g><g stroke-linecap="round" transform="translate(19.23828125 73.95731426463578) rotate(0 59.16015625 59.8515625)"><path d="M0.45 0 L120.08 0.61 L117.16 117.78 L0.71 119.77" stroke="none" stroke-width="0" fill="#fff"></path><path d="M0 0 C43.16 0.84, 83.16 0.36, 118.32 0 M0 0 C37.56 -0.09, 76.21 1.53, 118.32 0 M118.32 0 C119.3 22.7, 119.34 48.55, 118.32 119.7 M118.32 0 C119.48 46.42, 119.46 93.67, 118.32 119.7 M118.32 119.7 C83.31 117.79, 49.91 116.65, 0 119.7 M118.32 119.7 C85.18 119.06, 50.6 120.14, 0 119.7 M0 119.7 C3.05 76.26, 0.16 31.58, 0 0 M0 119.7 C-0.63 78.59, -1.67 39.18, 0 0" stroke="#000000" stroke-width="1" fill="none"></path></g><g stroke-linecap="round" transform="translate(10 64.25418926463578) rotate(0 59.16015625 59.8515625)"><path d="M1.76 0.61 L117.16 -1.92 L119.03 119.77 L1.19 121.53" stroke="none" stroke-width="0" fill="#fff"></path><path d="M0 0 C42.55 0.17, 86.56 -0.41, 118.32 0 M0 0 C30.85 1.74, 58.93 0.85, 118.32 0 M118.32 0 C119.75 38.51, 120.73 76.82, 118.32 119.7 M118.32 0 C119.9 31.65, 119.1 65.39, 118.32 119.7 M118.32 119.7 C94.91 117.36, 70.21 119.78, 0 119.7 M118.32 119.7 C85.04 119.9, 52.77 118.27, 0 119.7 M0 119.7 C-2.12 72.51, -0.38 29.17, 0 0 M0 119.7 C-1.14 79.1, -0.44 37.65, 0 0" stroke="#000000" stroke-width="1" fill="none"></path></g><g transform="translate(18.816488115432094 105.67555457211085) rotate(0 48.68999481201172 22.5)"><text x="0" y="0" font-family="Virgil, Segoe UI Emoji" font-size="36px" fill="#1e1e1e" text-anchor="start" style="white-space: pre;" direction="ltr" dominant-baseline="text-before-edge">Client</text></g><g stroke-linecap="round" transform="translate(499.09250603164264 120.64856372979455) rotate(0 84.90463444626255 34.936835226691755)"><path d="M86.56 1.65 L170.64 33.99 L84.11 70.68 L0.36 33.78" stroke="none" stroke-width="0" fill="#c6302b" fill-rule="evenodd"></path><path d="M85 0 C116.26 13.47, 149.86 27.34, 169.81 35 M85 0 C106.77 7.88, 129.89 16.67, 169.81 35 M169.81 35 C138.69 46.31, 109.43 57.5, 85 69.87 M169.81 35 C137.37 48.98, 105.94 62.23, 85 69.87 M85 69.87 C65.06 61.13, 44.81 54.17, 0 35 M85 69.87 C51.96 56.69, 19.7 42.39, 0 35 M0 35 C21.85 28.27, 44.61 17.21, 85 0 M0 35 C23.54 24.98, 46.18 15.21, 85 0" stroke="#000000" stroke-width="1" fill="none"></path></g><g stroke-linecap="round"><g transform="translate(498.03627612944 155.19946879991232) rotate(0 84.56948457344845 23.399554756481905)" fill-rule="evenodd"><path d="M-1.72 1.78 C-1.88 2.96, -2.15 3.62, -1.41 5.29 C-0.66 6.96, -3.21 8.49, 2.73 11.82 C8.68 15.14, 22.35 20.32, 34.27 25.22 C46.19 30.13, 65.56 37.72, 74.24 41.23 C82.93 44.73, 82.16 46.18, 86.36 46.26 C90.57 46.34, 91.35 45.11, 99.5 41.73 C107.64 38.36, 124.65 31.12, 135.23 26.01 C145.81 20.91, 157.01 14.04, 162.98 11.12 C168.95 8.21, 170.07 10.51, 171.05 8.52 C172.02 6.52, 171.88 -0.75, 168.86 -0.87 C165.83 -0.98, 165.3 2.67, 152.88 7.81 C140.46 12.96, 107.21 26.24, 94.33 30.01 C81.45 33.77, 91.49 35.34, 75.61 30.41 C59.73 25.47, 11.36 5.13, -0.95 0.39" stroke="none" stroke-width="0" fill="#912626" fill-rule="evenodd"></path><path d="M0.53 0.32 C0.51 1.32, 0.29 3.46, 0.88 5.47 C1.46 7.49, -1.75 9.07, 4.05 12.41 C9.86 15.75, 24.24 20.72, 35.71 25.52 C47.18 30.31, 64.38 37.55, 72.86 41.16 C81.34 44.78, 82.27 47.13, 86.61 47.21 C90.94 47.28, 90.84 45.01, 98.86 41.6 C106.87 38.2, 123.8 31.46, 134.7 26.77 C145.59 22.08, 158.54 16.76, 164.23 13.48 C169.92 10.2, 168.38 9.16, 168.85 7.08 C169.33 5, 169.63 0.89, 167.08 1 C164.53 1.1, 165.87 2.69, 153.55 7.71 C141.24 12.73, 105.9 27.2, 93.19 31.12 C80.49 35.04, 92.91 36.32, 77.32 31.23 C61.73 26.13, 12.45 5.59, -0.34 0.54 M-0.64 -0.56 C-0.84 0.64, -0.31 4.91, 0.39 6.75 C1.09 8.59, -2.34 7.23, 3.56 10.48 C9.45 13.72, 24.36 21.14, 35.76 26.23 C47.15 31.32, 63.79 37.64, 71.94 41 C80.1 44.36, 80.09 45.97, 84.68 46.38 C89.27 46.79, 90.76 46.82, 99.49 43.44 C108.22 40.06, 126.03 31.24, 137.05 26.1 C148.07 20.95, 160.21 15.76, 165.61 12.56 C171.01 9.37, 169.23 9.25, 169.47 6.93 C169.7 4.61, 169.32 -1.48, 167 -1.35 C164.69 -1.21, 167.9 2.51, 155.58 7.75 C143.26 12.99, 106.18 26.18, 93.06 30.09 C79.93 34, 92.36 36.18, 76.82 31.21 C61.28 26.24, 12.91 5.63, -0.2 0.27" stroke="#000000" stroke-width="1" fill="none"></path></g></g><mask></mask><g stroke-linecap="round"><g transform="translate(497.77221865388947 129.05777872040517) rotate(0 84.56948457344845 23.399554756481905)" fill-rule="evenodd"><path d="M-1.41 -0.68 C-1.25 0.05, -1.32 4.29, -0.8 6.17 C-0.28 8.05, -4.84 7.41, 1.72 10.59 C8.27 13.77, 26.78 20.09, 38.53 25.27 C50.27 30.45, 64.15 38.21, 72.17 41.67 C80.18 45.13, 82.18 46.11, 86.63 46.02 C91.08 45.93, 91.16 44.48, 98.86 41.13 C106.56 37.78, 121.42 30.35, 132.82 25.93 C144.23 21.51, 161.08 18.05, 167.3 14.61 C173.52 11.17, 170.25 7.48, 170.16 5.27 C170.07 3.06, 169.38 1.34, 166.75 1.35 C164.13 1.36, 166.77 0.38, 154.41 5.33 C142.05 10.27, 105.64 26.69, 92.57 31.02 C79.5 35.34, 91.11 36.13, 75.97 31.29 C60.83 26.45, 14.17 7.38, 1.75 1.99" stroke="none" stroke-width="0" fill="#912626" fill-rule="evenodd"></path><path d="M0.88 -0.5 C0.87 0.58, 0.14 4.86, 0.52 6.76 C0.9 8.66, -2.95 7.81, 3.16 10.88 C9.26 13.96, 25.6 19.92, 37.14 25.21 C48.68 30.49, 64.27 39.17, 72.41 42.62 C80.55 46.06, 81.67 46.01, 85.99 45.89 C90.31 45.77, 90.31 44.81, 98.33 41.88 C106.34 38.95, 122.95 33.07, 134.08 28.29 C145.21 23.5, 159.39 16.7, 165.1 13.17 C170.82 9.65, 167.99 9.12, 168.38 7.13 C168.77 5.14, 169.94 1.36, 167.42 1.25 C164.91 1.13, 165.47 1.34, 153.27 6.44 C141.08 11.54, 107.06 27.67, 94.28 31.83 C81.49 36, 92.2 36.58, 76.58 31.44 C60.96 26.3, 13.35 6.36, 0.55 0.97 M-0.12 -1.8 C-0.28 -1.1, -0.54 2.78, -0.16 5.05 C0.23 7.32, -3.55 8.36, 2.19 11.81 C7.93 15.26, 22.77 20.52, 34.28 25.76 C45.79 30.99, 62.4 39.51, 71.26 43.22 C80.11 46.93, 82.82 47.93, 87.39 48.03 C91.96 48.14, 90.57 47.13, 98.69 43.86 C106.81 40.59, 124.73 33.71, 136.1 28.41 C147.48 23.12, 161.5 15.66, 166.94 12.09 C172.38 8.53, 168.65 9.19, 168.75 7.01 C168.85 4.83, 169.79 -0.76, 167.53 -0.96 C165.26 -1.16, 167.29 0.46, 155.16 5.82 C143.02 11.17, 107.96 26.9, 94.71 31.18 C81.47 35.47, 91.28 36.58, 75.69 31.53 C60.1 26.49, 13.67 6.2, 1.17 0.93" stroke="#000000" stroke-width="1" fill="none"></path></g></g><mask></mask><g stroke-linecap="round" transform="translate(498.03627612944047 93.71470122363564) rotate(0 84.90463444626255 34.936835226691755)"><path d="M85.36 -1.22 L168.74 34.6 L84.22 70.2 L1.43 36.62" stroke="none" stroke-width="0" fill="#c6302b" fill-rule="evenodd"></path><path d="M85 0 C117.8 12.06, 146.9 27.51, 169.81 35 M85 0 C103.2 6.4, 120.8 14.07, 169.81 35 M169.81 35 C153.79 40.62, 136.64 48.28, 85 69.87 M169.81 35 C138.25 48.03, 105.94 61.24, 85 69.87 M85 69.87 C53.85 56.26, 27.37 44.45, 0 35 M85 69.87 C61.23 60.03, 39.83 50.55, 0 35 M0 35 C26.2 23.75, 52.46 10.77, 85 0 M0 35 C20.54 25.4, 40.07 17.91, 85 0" stroke="#000000" stroke-width="1" fill="none"></path></g><g stroke-linecap="round" transform="translate(496.9570614672207 65.95018018102826) rotate(0 84.90463444626255 34.936835226691755)"><path d="M83.93 -0.4 L169.03 35.32 L86.43 71.5 L1.17 34.15" stroke="none" stroke-width="0" fill="#c6302b" fill-rule="evenodd"></path><path d="M85 0 C113.11 14.04, 141.7 25.3, 169.81 35 M85 0 C112.87 11.8, 140.67 24.76, 169.81 35 M169.81 35 C147.63 43.39, 124.65 52.56, 85 69.87 M169.81 35 C146.91 45.03, 124.93 54.74, 85 69.87 M85 69.87 C62.7 58.27, 36.67 48.92, 0 35 M85 69.87 C60.07 58.37, 33.03 47.81, 0 35 M0 35 C26.65 21.64, 54.26 13.77, 85 0 M0 35 C31.91 22.45, 65.04 8.05, 85 0" stroke="#000000" stroke-width="1" fill="none"></path></g><g stroke-linecap="round"><g transform="translate(496.6930039916697 101.29325767779778) rotate(0 84.56948457344845 23.399554756481905)" fill-rule="evenodd"><path d="M2.44 -0.98 C2.8 0.1, 0.08 3.46, 0.36 5.43 C0.65 7.4, -1.79 7.6, 4.16 10.84 C10.11 14.08, 25.2 19.88, 36.07 24.87 C46.94 29.85, 60.75 36.75, 69.39 40.74 C78.03 44.73, 82.82 48.72, 87.91 48.82 C92.99 48.91, 92.18 44.68, 99.89 41.28 C107.59 37.88, 123.16 33.42, 134.15 28.39 C145.14 23.36, 160.22 14.82, 165.84 11.1 C171.45 7.37, 167.65 7.73, 167.83 6.01 C168 4.29, 168.91 0.29, 166.89 0.76 C164.87 1.23, 167.64 3.86, 155.71 8.81 C143.78 13.76, 108.61 26.62, 95.31 30.46 C82.02 34.31, 91.6 37.35, 75.94 31.89 C60.28 26.43, 14.22 3.13, 1.35 -2.3" stroke="none" stroke-width="0" fill="#912626" fill-rule="evenodd"></path><path d="M1.06 -1.05 C1.22 0.14, 0.19 4.42, 0.61 6.38 C1.02 8.34, -2.3 7.5, 3.52 10.71 C9.34 13.92, 24.36 20.22, 35.54 25.62 C46.73 31.02, 62.28 39.47, 70.64 43.1 C79 46.72, 81.13 47.37, 85.71 47.38 C90.29 47.39, 89.92 46.33, 98.11 43.14 C106.29 39.96, 123.72 33.44, 134.82 28.28 C145.92 23.13, 158.91 15.79, 164.7 12.21 C170.49 8.63, 169.07 8.71, 169.53 6.83 C170 4.95, 170 0.75, 167.5 0.91 C164.99 1.07, 166.82 2.85, 154.52 7.8 C142.21 12.75, 106.75 26.63, 93.67 30.63 C80.6 34.62, 91.81 36.93, 76.08 31.77 C60.35 26.61, 12.06 4.95, -0.69 -0.33 M0.15 1.02 C0.24 1.9, -0.46 2.71, -0.02 4.47 C0.41 6.23, -3.17 7.9, 2.75 11.55 C8.67 15.2, 23.93 20.99, 35.51 26.39 C47.09 31.79, 63.64 40.58, 72.22 43.95 C80.8 47.33, 82.62 46.95, 86.97 46.64 C91.33 46.34, 90.59 45.17, 98.35 42.13 C106.12 39.09, 122.25 33.05, 133.58 28.41 C144.91 23.77, 160.17 17.93, 166.33 14.28 C172.48 10.64, 170.29 8.57, 170.51 6.55 C170.73 4.53, 170.49 1.96, 167.64 2.18 C164.78 2.4, 165.7 2.75, 153.39 7.89 C141.09 13.02, 106.26 28.98, 93.79 33 C81.32 37.03, 94.34 37.71, 78.59 32.03 C62.84 26.36, 12.3 4.04, -0.72 -1.07" stroke="#000000" stroke-width="1" fill="none"></path></g></g><mask></mask><g stroke-linecap="round" transform="translate(527.3445492412434 92.46056970782115) rotate(0 18.328695361745986 8.077052193311772)"><path d="M16.03 -0.21 C19.66 -0.57, 25.13 0.18, 28.51 1.18 C31.9 2.18, 35.32 4.17, 36.33 5.8 C37.34 7.44, 36.23 9.47, 34.59 10.99 C32.94 12.52, 29.83 14.14, 26.45 14.93 C23.07 15.72, 18.11 16.09, 14.31 15.74 C10.5 15.39, 6.07 14.14, 3.62 12.82 C1.16 11.51, -0.76 9.57, -0.42 7.86 C-0.09 6.14, 2.78 3.8, 5.63 2.55 C8.48 1.31, 14.61 0.86, 16.69 0.41 C18.77 -0.04, 17.99 -0.16, 18.1 -0.12 M19.51 0.58 C23.23 0.57, 28.46 0.53, 31.26 1.75 C34.06 2.97, 35.82 6.09, 36.32 7.91 C36.83 9.74, 36.48 11.36, 34.27 12.72 C32.07 14.08, 26.95 15.65, 23.11 16.08 C19.27 16.51, 14.82 16.06, 11.25 15.32 C7.68 14.59, 3.5 13.21, 1.7 11.68 C-0.1 10.15, -0.42 7.86, 0.44 6.16 C1.3 4.46, 3.58 2.54, 6.84 1.49 C10.1 0.45, 17.86 0.19, 19.97 -0.1 C22.09 -0.39, 19.54 -0.47, 19.55 -0.25" stroke="none" stroke-width="0" fill="#ffff"></path><path d="M18.01 -0.48 C21.87 -0.57, 27.34 0.62, 30.44 1.75 C33.54 2.89, 35.94 4.64, 36.61 6.34 C37.29 8.03, 36.42 10.42, 34.49 11.92 C32.56 13.43, 28.77 14.72, 25.01 15.37 C21.26 16.02, 15.68 16.4, 11.95 15.84 C8.22 15.28, 4.53 13.48, 2.62 11.99 C0.71 10.51, -0.22 8.62, 0.5 6.93 C1.21 5.23, 3.84 3.03, 6.91 1.82 C9.98 0.61, 16.64 -0.02, 18.93 -0.34 C21.21 -0.66, 20.61 -0.25, 20.63 -0.08 M19.45 -0.3 C23.29 -0.34, 27.64 0.68, 30.5 1.83 C33.37 2.98, 36.05 4.93, 36.63 6.6 C37.22 8.26, 36.2 10.39, 34.01 11.83 C31.82 13.28, 27.13 14.54, 23.51 15.27 C19.89 16, 15.78 16.84, 12.3 16.23 C8.81 15.61, 4.63 13.16, 2.59 11.6 C0.54 10.03, -0.72 8.53, 0.01 6.82 C0.74 5.11, 3.92 2.49, 6.97 1.33 C10.02 0.17, 16.39 0.03, 18.3 -0.15 C20.2 -0.32, 18.25 0.02, 18.4 0.28" stroke="#000000" stroke-width="1" fill="none"></path></g><g stroke-linecap="round"><g transform="translate(561.237102867794 116.95301034454769) rotate(0 15.846400799436992 0.4066741300633794)" fill-rule="evenodd"><path d="M0.58 -0.42 L23.13 8.27 L32.25 -7.99 L-0.51 -0.27" stroke="none" stroke-width="0" fill="#ffff" fill-rule="evenodd"></path><path d="M0 0 C7.5 2.31, 15.98 4.54, 23.53 7.86 M0 0 C8.48 3.15, 17.42 6.19, 23.53 7.86 M23.53 7.86 C25.77 3.99, 27.9 1.01, 31.69 -7.05 M23.53 7.86 C26.36 2.52, 29.52 -3.59, 31.69 -7.05 M31.69 -7.05 C22.8 -4.28, 14.35 -3.25, 0 0 M31.69 -7.05 C22.89 -5.42, 13.59 -3.48, 0 0 M0 0 C0 0, 0 0, 0 0 M0 0 C0 0, 0 0, 0 0" stroke="#000000" stroke-width="1" fill="none"></path></g></g><mask></mask><g stroke-linecap="round"><g transform="translate(572.8556317920195 76.61712117478646) rotate(0 9.669163442954982 8.869224619963518)" fill-rule="evenodd"><path d="M0.29 -0.05 L1.97 7.07 L-6.28 10.99 L4.57 12.41 L9.81 18.46 L11.71 10.28 L24.83 8.93 L14.87 5.63 L16.4 -0.8 L7.39 2.33 L0.85 -0.17" stroke="none" stroke-width="0" fill="#ffff" fill-rule="evenodd"></path><path d="M0 0 C0.66 1.59, 1.98 3.77, 2.92 6.45 M0 0 C0.94 2.37, 1.91 4.43, 2.92 6.45 M2.92 6.45 C0.3 8.34, -2.37 9.7, -5.64 11.48 M2.92 6.45 C0.82 7.55, -1.06 8.78, -5.64 11.48 M-5.64 11.48 C-3.5 11.73, -1.05 12.01, 4.78 12.47 M-5.64 11.48 C-3.1 11.62, 0.15 12.26, 4.78 12.47 M4.78 12.47 C6.94 14.9, 8.48 16.9, 10.62 19.29 M4.78 12.47 C6.57 14.56, 8.17 16.19, 10.62 19.29 M10.62 19.29 C10.62 17, 11.29 14.94, 12.15 11.28 M10.62 19.29 C11.03 16.38, 11.59 13.53, 12.15 11.28 M12.15 11.28 C14.96 11.27, 19.56 10.43, 24.98 9.43 M12.15 11.28 C14.7 10.91, 17.52 10.53, 24.98 9.43 M24.98 9.43 C21.59 8.43, 16.96 6.89, 14.01 6.04 M24.98 9.43 C20.5 8.2, 16.42 6.71, 14.01 6.04 M14.01 6.04 C14.94 3.59, 15.84 2.11, 17.4 -1.55 M14.01 6.04 C15.14 4, 15.83 1.89, 17.4 -1.55 M17.4 -1.55 C13.6 0.39, 10.07 2.22, 8.15 2.67 M17.4 -1.55 C13.95 0.14, 9.98 1.6, 8.15 2.67 M8.15 2.67 C5.67 1.44, 2.45 0.66, 0 0 M8.15 2.67 C6.34 2.09, 4.58 1.53, 0 0 M0 0 C0 0, 0 0, 0 0 M0 0 C0 0, 0 0, 0 0" stroke="#000000" stroke-width="1" fill="none"></path></g></g><mask></mask><g stroke-linecap="round"><g transform="translate(620.9666648712932 91.79863377363552) rotate(0 0 7.921724266517344)" fill-rule="evenodd"><path d="M-0.04 0.75 L20.13 7.26 L-1.09 16.79 L-18.86 8.13 L-0.45 0.33 L0.42 -0.19" stroke="none" stroke-width="0" fill="#912626" fill-rule="evenodd"></path><path d="M0 0 C5.77 1.87, 10.56 3.5, 19.8 7.92 M0 0 C6.68 2.56, 14.12 5.65, 19.8 7.92 M19.8 7.92 C15.04 9.94, 7.91 11.57, -0.79 15.84 M19.8 7.92 C11.94 10.89, 4.06 13.59, -0.79 15.84 M-0.79 15.84 C-8.6 12.95, -16.29 9.52, -19.8 7.92 M-0.79 15.84 C-4.99 14.27, -9.8 11.68, -19.8 7.92 M-19.8 7.92 C-15.37 5.34, -9.89 3.47, 0 0 M-19.8 7.92 C-13.28 5.12, -7.51 3.04, 0 0 M0 0 C0 0, 0 0, 0 0 M0 0 C0 0, 0 0, 0 0 M0 0 C0 0, 0 0, 0 0 M0 0 C0 0, 0 0, 0 0" stroke="#000000" stroke-width="1" fill="none"></path></g></g><mask></mask><g stroke-linecap="round"><g transform="translate(618.9298983589958 91.32044665433409) rotate(0 0.20312113503894125 7.921724266517344)"><path d="M0 0 C0.52 2.72, 0.64 6.17, 0.41 15.84 M0 0 C0.24 6.03, 0.14 12.02, 0.41 15.84" stroke="#000000" stroke-width="1" fill="none"></path></g></g><mask></mask><g stroke-linecap="round" transform="translate(506.44022969689127 491.8221988913456) rotate(0 84.90463444626243 34.936835226691755)"><path d="M83.6 -1.68 L171.5 33.51 L86.82 68.48 L1.53 33.93" stroke="none" stroke-width="0" fill="#c6302b" fill-rule="evenodd"></path><path d="M85 0 C104.59 10.5, 122.37 17.07, 169.81 35 M85 0 C102.86 5.89, 122.75 13.46, 169.81 35 M169.81 35 C139.19 46.95, 107.71 61.72, 85 69.87 M169.81 35 C136.85 49.22, 102.02 61.3, 85 69.87 M85 69.87 C55.92 57.75, 29.06 49.16, 0 35 M85 69.87 C51.54 55.87, 18.23 43.17, 0 35 M0 35 C24.49 26.96, 47.84 14.59, 85 0 M0 35 C27.1 24.77, 56.36 13.43, 85 0" stroke="#000000" stroke-width="1" fill="none"></path></g><g stroke-linecap="round"><g transform="translate(505.38399979468863 526.3731039614634) rotate(0 84.56948457344834 23.399554756481933)" fill-rule="evenodd"><path d="M0.79 -1.46 C1.3 -0.46, 1.83 5.42, 2.23 7.48 C2.64 9.53, -2.39 7.72, 3.23 10.84 C8.84 13.96, 24.12 21.19, 35.95 26.19 C47.78 31.19, 65.94 37.3, 74.21 40.83 C82.48 44.37, 81.82 47.34, 85.58 47.4 C89.33 47.46, 88.79 44.24, 96.74 41.18 C104.69 38.12, 121.5 33.52, 133.29 29.04 C145.09 24.55, 161.84 18.37, 167.53 14.27 C173.22 10.17, 167.03 7.06, 167.43 4.44 C167.82 1.82, 171.78 -1.57, 169.91 -1.46 C168.04 -1.34, 168.55 -0.15, 156.19 5.12 C143.83 10.4, 109.21 26.16, 95.76 30.19 C82.31 34.23, 91.27 34.06, 75.49 29.34 C59.7 24.63, 13.71 7.1, 1.03 1.91" stroke="none" stroke-width="0" fill="#912626" fill-rule="evenodd"></path><path d="M1.15 -0.37 C1.39 0.4, -0.19 2.77, 0.38 4.96 C0.96 7.15, -1.21 9.4, 4.6 12.78 C10.4 16.16, 23.83 20.51, 35.21 25.25 C46.59 29.99, 64.25 37.53, 72.87 41.24 C81.49 44.95, 82.71 47.16, 86.92 47.49 C91.14 47.82, 90.18 46.38, 98.17 43.19 C106.15 40.01, 123.52 33.27, 134.82 28.36 C146.12 23.45, 160.27 17.5, 165.96 13.74 C171.65 9.98, 168.53 7.85, 168.97 5.8 C169.42 3.75, 171.25 1.45, 168.63 1.46 C166.01 1.46, 165.68 0.7, 153.25 5.84 C140.83 10.97, 106.92 28.28, 94.08 32.26 C81.23 36.24, 91.91 35.27, 76.17 29.7 C60.44 24.12, 12.17 3.56, -0.34 -1.19 M0.29 -1.6 C0.5 -0.76, -1.05 3.85, -0.37 5.96 C0.32 8.07, -1.51 7.74, 4.39 11.05 C10.28 14.36, 23.74 20.81, 35 25.83 C46.26 30.84, 63.6 37.62, 71.96 41.12 C80.32 44.62, 80.75 46.63, 85.16 46.81 C89.57 46.99, 90.37 45.25, 98.44 42.2 C106.51 39.16, 122.55 33.4, 133.58 28.53 C144.6 23.65, 158.57 16.89, 164.58 12.96 C170.6 9.04, 168.86 7.25, 169.66 4.98 C170.45 2.71, 171.79 -1.24, 169.37 -0.65 C166.95 -0.05, 167.62 3.14, 155.13 8.55 C142.63 13.97, 107.14 27.84, 94.41 31.83 C81.67 35.83, 94.5 37.63, 78.73 32.54 C62.97 27.45, 13.09 6.81, -0.19 1.28" stroke="#000000" stroke-width="1" fill="none"></path></g></g><mask></mask><g stroke-linecap="round"><g transform="translate(505.1199423191381 500.2314138819563) rotate(0 84.56948457344834 23.399554756481933)" fill-rule="evenodd"><path d="M2.23 1.5 C2.05 2.61, -0.5 3.52, -0.31 5.19 C-0.11 6.87, -3.07 8.28, 3.4 11.56 C9.86 14.84, 27.16 19.67, 38.49 24.88 C49.82 30.09, 63.82 39.38, 71.38 42.81 C78.94 46.24, 79.61 45.24, 83.87 45.47 C88.13 45.69, 88.01 46.88, 96.92 44.15 C105.84 41.42, 126.25 34.68, 137.38 29.08 C148.5 23.48, 158.04 14.6, 163.68 10.54 C169.32 6.47, 170.15 6.66, 171.21 4.68 C172.28 2.7, 172.63 -1.47, 170.07 -1.33 C167.5 -1.2, 168.78 0.3, 155.84 5.51 C142.9 10.73, 105.43 25.4, 92.45 29.95 C79.47 34.5, 93.46 38.09, 77.95 32.81 C62.45 27.52, 12.14 3.34, -0.57 -1.79" stroke="none" stroke-width="0" fill="#912626" fill-rule="evenodd"></path><path d="M0.38 -1.01 C0.37 0.24, 0.68 5.19, 1.06 7.13 C1.44 9.07, -3.35 7.59, 2.66 10.61 C8.68 13.64, 25.48 19.9, 37.15 25.28 C48.83 30.66, 64.7 39.2, 72.72 42.9 C80.75 46.6, 81.01 47.38, 85.3 47.48 C89.59 47.57, 90.03 46.63, 98.45 43.47 C106.87 40.32, 124.68 33.82, 135.8 28.55 C146.93 23.29, 159.54 15.39, 165.23 11.89 C170.91 8.4, 169.62 9.68, 169.93 7.59 C170.25 5.51, 169.76 -0.62, 167.13 -0.62 C164.5 -0.62, 166.49 2.43, 154.16 7.58 C141.83 12.74, 106.06 26.62, 93.13 30.31 C80.2 33.99, 91.92 34.55, 76.58 29.7 C61.25 24.85, 13.95 6.02, 1.12 1.19 M-0.88 1.07 C-1.06 2.05, -0.33 3.9, 0.67 5.62 C1.67 7.34, -0.51 8.03, 5.1 11.4 C10.7 14.78, 23.19 20.5, 34.3 25.88 C45.41 31.25, 63.06 40.17, 71.74 43.65 C80.41 47.14, 81.82 46.97, 86.34 46.8 C90.86 46.63, 90.75 45.63, 98.88 42.63 C107 39.64, 123.7 33.62, 135.08 28.81 C146.45 24.01, 161.73 17.32, 167.13 13.8 C172.53 10.29, 167.47 10.04, 167.46 7.71 C167.45 5.39, 169.51 -0.13, 167.07 -0.16 C164.64 -0.18, 165.2 2.11, 152.85 7.55 C140.5 13, 105.82 28.35, 92.97 32.51 C80.11 36.68, 91.47 37.75, 75.7 32.54 C59.94 27.33, 10.92 6.9, -1.63 1.25" stroke="#000000" stroke-width="1" fill="none"></path></g></g><mask></mask><g stroke-linecap="round" transform="translate(505.3839997946891 464.8883363851867) rotate(0 84.90463444626243 34.936835226691755)"><path d="M86.53 -1.07 L168.64 33.73 L85.84 71.43 L-0.47 33.54" stroke="none" stroke-width="0" fill="#c6302b" fill-rule="evenodd"></path><path d="M85 0 C114.77 9.41, 139.3 24.25, 169.81 35 M85 0 C103.27 7.75, 122.1 15.66, 169.81 35 M169.81 35 C139.53 48.32, 113.07 57.91, 85 69.87 M169.81 35 C150.78 42.13, 132.66 49.72, 85 69.87 M85 69.87 C52.42 56.53, 16.63 43.99, 0 35 M85 69.87 C54.27 56.97, 24.58 43.83, 0 35 M0 35 C22.86 24.26, 49.31 17.69, 85 0 M0 35 C32.42 22.07, 63.81 9.22, 85 0" stroke="#000000" stroke-width="1" fill="none"></path></g><g stroke-linecap="round" transform="translate(504.3047851324693 437.1238153425793) rotate(0 84.90463444626243 34.936835226691755)"><path d="M83.83 -1.27 L170.65 36.56 L84.53 68.42 L1.36 36.69" stroke="none" stroke-width="0" fill="#c6302b" fill-rule="evenodd"></path><path d="M85 0 C116.61 15.99, 149.61 29.34, 169.81 35 M85 0 C114.78 12.84, 145.92 25.51, 169.81 35 M169.81 35 C147.15 44.36, 119.41 55.85, 85 69.87 M169.81 35 C138.52 45.82, 108.95 60.46, 85 69.87 M85 69.87 C60.95 62.68, 40.72 51.31, 0 35 M85 69.87 C63.21 59.94, 39.25 51.39, 0 35 M0 35 C19.63 29.97, 37.77 19.36, 85 0 M0 35 C18.97 27.38, 37.18 19.98, 85 0" stroke="#000000" stroke-width="1" fill="none"></path></g><g stroke-linecap="round"><g transform="translate(504.0407276569183 472.4668928393487) rotate(0 84.56948457344834 23.399554756481933)" fill-rule="evenodd"><path d="M2.41 -1.37 C2.36 -0.27, -0.26 4.63, -0.42 6.57 C-0.59 8.52, -4.36 6.73, 1.4 10.29 C7.17 13.84, 22.05 22.29, 34.14 27.89 C46.23 33.49, 65.58 41.08, 73.94 43.89 C82.3 46.7, 79.79 45.27, 84.29 44.74 C88.79 44.21, 92.08 43.86, 100.94 40.69 C109.81 37.52, 126.41 30.6, 137.47 25.7 C148.52 20.8, 162.23 14.74, 167.27 11.28 C172.31 7.82, 167.44 6.45, 167.7 4.95 C167.97 3.45, 171.25 2.26, 168.87 2.28 C166.48 2.29, 165.61 -0.18, 153.39 5.04 C141.17 10.26, 108.5 29.42, 95.55 33.58 C82.6 37.73, 91.42 35.38, 75.7 29.97 C59.98 24.57, 13.95 5.88, 1.22 1.17" stroke="none" stroke-width="0" fill="#912626" fill-rule="evenodd"></path><path d="M1.07 -0.97 C1.37 0.31, 0.63 4.45, 0.92 6.66 C1.21 8.87, -2.96 8.87, 2.83 12.3 C8.62 15.72, 24.08 22.04, 35.67 27.21 C47.26 32.39, 64.01 40.21, 72.37 43.36 C80.73 46.51, 81.29 46.06, 85.84 46.1 C90.39 46.14, 91.55 46.89, 99.67 43.6 C107.78 40.32, 123.54 31.46, 134.53 26.41 C145.51 21.37, 159.94 16.87, 165.58 13.35 C171.23 9.83, 168.07 7.67, 168.39 5.3 C168.71 2.94, 169.72 -1.28, 167.5 -0.83 C165.28 -0.38, 167.42 2.5, 155.08 8.01 C142.75 13.52, 106.44 28.52, 93.48 32.21 C80.52 35.91, 92.71 35.42, 77.31 30.18 C61.91 24.93, 14 5.83, 1.09 0.74 M0.17 1.14 C0.47 2.16, -0.41 3.37, 0.46 4.9 C1.32 6.43, -0.52 6.94, 5.36 10.31 C11.23 13.69, 24.72 20.1, 35.7 25.16 C46.67 30.23, 62.62 36.83, 71.2 40.69 C79.77 44.56, 82.85 48, 87.16 48.35 C91.47 48.71, 88.8 46.02, 97.07 42.83 C105.34 39.64, 125.63 34.29, 136.79 29.21 C147.94 24.14, 158.68 15.92, 164.01 12.36 C169.34 8.81, 168.16 10.02, 168.76 7.88 C169.37 5.74, 170.06 -0.52, 167.64 -0.47 C165.23 -0.41, 166.62 2.84, 154.26 8.21 C141.9 13.58, 106.41 28.19, 93.5 31.76 C80.59 35.33, 92.67 34.81, 76.81 29.61 C60.95 24.41, 11 5.39, -1.66 0.57" stroke="#000000" stroke-width="1" fill="none"></path></g></g><mask></mask><g stroke-linecap="round" transform="translate(534.692272906492 463.63420486937207) rotate(0 18.328695361745986 8.077052193311772)"><path d="M16.29 -0.07 C20.05 -0.43, 25.31 0.27, 28.62 1.24 C31.94 2.21, 35.12 4.03, 36.17 5.77 C37.22 7.52, 36.56 10.12, 34.94 11.7 C33.32 13.29, 29.87 14.49, 26.46 15.27 C23.05 16.06, 18.32 16.87, 14.49 16.41 C10.65 15.96, 5.94 13.92, 3.45 12.55 C0.96 11.17, -0.67 9.91, -0.43 8.17 C-0.2 6.44, 1.86 3.52, 4.86 2.12 C7.85 0.73, 15.16 0.13, 17.52 -0.22 C19.89 -0.57, 19.1 -0.24, 19.05 0.02 M20.36 0.11 C24.02 0.17, 28.44 1.56, 31.21 2.79 C33.98 4.01, 36.64 5.8, 36.97 7.44 C37.29 9.08, 35.33 11.14, 33.15 12.65 C30.97 14.16, 27.64 15.94, 23.87 16.5 C20.1 17.06, 14.14 16.88, 10.53 16.01 C6.92 15.15, 3.82 13.1, 2.2 11.31 C0.58 9.53, -0.04 6.89, 0.8 5.3 C1.64 3.71, 4.11 2.75, 7.24 1.78 C10.37 0.82, 17.57 -0.2, 19.56 -0.49 C21.55 -0.78, 19.16 -0.19, 19.18 0.04" stroke="none" stroke-width="0" fill="#ffff"></path><path d="M16.05 0.32 C19.74 0, 25.18 0.21, 28.41 1.13 C31.64 2.05, 34.19 4.25, 35.43 5.86 C36.66 7.46, 37.29 9.19, 35.83 10.75 C34.36 12.32, 30.11 14.44, 26.64 15.26 C23.16 16.08, 18.82 16.06, 14.96 15.68 C11.1 15.29, 6.04 14.18, 3.47 12.95 C0.89 11.73, -0.77 10.05, -0.49 8.32 C-0.22 6.58, 2.17 3.9, 5.12 2.55 C8.06 1.19, 15.06 0.51, 17.18 0.19 C19.3 -0.13, 17.8 0.52, 17.83 0.62 M17.61 -0.4 C21.3 -0.59, 25.86 0.68, 28.83 1.68 C31.8 2.69, 34.51 3.91, 35.42 5.64 C36.33 7.37, 35.75 10.33, 34.28 12.05 C32.81 13.77, 30.16 15.41, 26.6 15.94 C23.04 16.47, 16.71 15.87, 12.92 15.23 C9.13 14.59, 5.9 13.51, 3.87 12.1 C1.84 10.69, 0.4 8.49, 0.77 6.79 C1.13 5.09, 3.43 3.13, 6.04 1.92 C8.65 0.71, 14.57 -0.26, 16.43 -0.45 C18.3 -0.64, 17.15 0.65, 17.22 0.77" stroke="#000000" stroke-width="1" fill="none"></path></g><g stroke-linecap="round"><g transform="translate(568.5848265330426 488.12664550609884) rotate(0 15.846400799436992 0.4066741300633794)" fill-rule="evenodd"><path d="M0.68 0.85 L23.04 7.49 L32.19 -6.57 L-0.27 0.7" stroke="none" stroke-width="0" fill="#ffff" fill-rule="evenodd"></path><path d="M0 0 C9.46 2.68, 18.56 6.47, 23.53 7.86 M0 0 C9.64 3.64, 18.33 5.88, 23.53 7.86 M23.53 7.86 C25.22 2.93, 27.8 -0.75, 31.69 -7.05 M23.53 7.86 C26.95 1.64, 30.45 -3.79, 31.69 -7.05 M31.69 -7.05 C22.55 -4.05, 12.91 -3.18, 0 0 M31.69 -7.05 C20.98 -4.51, 11.53 -2.22, 0 0 M0 0 C0 0, 0 0, 0 0 M0 0 C0 0, 0 0, 0 0" stroke="#000000" stroke-width="1" fill="none"></path></g></g><mask></mask><g stroke-linecap="round"><g transform="translate(580.2033554572683 447.7907563363376) rotate(0 9.669163442954982 8.869224619963518)" fill-rule="evenodd"><path d="M0.27 0.77 L2.18 7.21 L-5.08 12.16 L5.09 12.87 L11.1 19.94 L12.83 12 L24.04 8.54 L14.12 5.2 L16.88 -1.85 L8.04 3.46 L-0.08 0.23" stroke="none" stroke-width="0" fill="#ffff" fill-rule="evenodd"></path><path d="M0 0 C1.01 1.73, 1.77 3.07, 2.92 6.45 M0 0 C0.62 1.4, 1.46 3.22, 2.92 6.45 M2.92 6.45 C0.37 8.09, -0.68 8.66, -5.64 11.48 M2.92 6.45 C0.08 8.38, -3.25 9.96, -5.64 11.48 M-5.64 11.48 C-2.86 11.63, 0.63 11.56, 4.78 12.47 M-5.64 11.48 C-2.85 11.87, -0.71 11.71, 4.78 12.47 M4.78 12.47 C6.69 15.41, 9.01 17.43, 10.62 19.29 M4.78 12.47 C6.13 13.9, 7.71 15.87, 10.62 19.29 M10.62 19.29 C11.21 17.17, 11.69 15.23, 12.15 11.28 M10.62 19.29 C11.37 16.27, 11.74 13.53, 12.15 11.28 M12.15 11.28 C16.59 11.25, 22.17 9.28, 24.98 9.43 M12.15 11.28 C16.2 10.5, 20.76 10.15, 24.98 9.43 M24.98 9.43 C21.05 8.26, 17.36 7.31, 14.01 6.04 M24.98 9.43 C21.76 8.6, 17.95 7.5, 14.01 6.04 M14.01 6.04 C14.81 3.08, 16.59 0.5, 17.4 -1.55 M14.01 6.04 C14.83 4.3, 15.41 2.33, 17.4 -1.55 M17.4 -1.55 C14.78 -0.48, 12.17 0.93, 8.15 2.67 M17.4 -1.55 C14.61 -0.5, 11.91 0.97, 8.15 2.67 M8.15 2.67 C6.65 1.74, 4.6 1.17, 0 0 M8.15 2.67 C5.04 1.74, 2.04 0.5, 0 0 M0 0 C0 0, 0 0, 0 0 M0 0 C0 0, 0 0, 0 0" stroke="#000000" stroke-width="1" fill="none"></path></g></g><mask></mask><g stroke-linecap="round"><g transform="translate(628.3143885365419 462.97226893518655) rotate(0 0 7.921724266517316)" fill-rule="evenodd"><path d="M0.77 0.11 L19.84 8.54 L-0.27 16.02 L-20.17 7.91 L0.88 0.85 L-0.25 0.78" stroke="none" stroke-width="0" fill="#912626" fill-rule="evenodd"></path><path d="M0 0 C6.24 1.92, 9.96 4.82, 19.8 7.92 M0 0 C7.8 3.49, 15.15 5.78, 19.8 7.92 M19.8 7.92 C15.16 9.84, 9.16 12.65, -0.79 15.84 M19.8 7.92 C14.83 9.73, 9.92 11.78, -0.79 15.84 M-0.79 15.84 C-8.1 11.8, -16.46 8.72, -19.8 7.92 M-0.79 15.84 C-8.15 12.58, -14.35 9.72, -19.8 7.92 M-19.8 7.92 C-12.57 4.16, -4.92 2.07, 0 0 M-19.8 7.92 C-11.97 5.42, -5.07 1.82, 0 0 M0 0 C0 0, 0 0, 0 0 M0 0 C0 0, 0 0, 0 0 M0 0 C0 0, 0 0, 0 0 M0 0 C0 0, 0 0, 0 0" stroke="#000000" stroke-width="1" fill="none"></path></g></g><mask></mask><g stroke-linecap="round"><g transform="translate(626.2776220242442 462.494081815885) rotate(0 0.20312113503894125 7.921724266517316)"><path d="M0 0 C-0.24 6.03, 1.08 10.53, 0.41 15.84 M0 0 C-0.15 3.05, 0.08 6.5, 0.41 15.84" stroke="#000000" stroke-width="1" fill="none"></path></g></g><mask></mask><g transform="translate(514.1689561420069 10) rotate(0 63.323997497558594 22.5)"><text x="0" y="0" font-family="Virgil, Segoe UI Emoji" font-size="36px" fill="#1e1e1e" text-anchor="start" style="white-space: pre;" direction="ltr" dominant-baseline="text-before-edge">Master</text></g><g transform="translate(532.6868054140284 386.5296018644368) rotate(0 60.64200210571289 22.5)"><text x="0" y="0" font-family="Virgil, Segoe UI Emoji" font-size="36px" fill="#1e1e1e" text-anchor="start" style="white-space: pre;" direction="ltr" dominant-baseline="text-before-edge">Replica</text></g><g stroke-linecap="round"><g transform="translate(163.87297407960045 139.62494490415042) rotate(0 159.71644997118528 -0.7715770530008967)"><path d="M-0.85 0.26 C52.7 -0.04, 267.2 -2.03, 320.41 -2.27 M0.91 -0.65 C54.46 -0.77, 266.67 -0.67, 319.97 -1.11" stroke="#1e1e1e" stroke-width="2" fill="none"></path></g><g transform="translate(163.87297407960045 139.62494490415042) rotate(0 159.71644997118528 -0.7715770530008967)"><path d="M296.51 7.52 C302.3 7.35, 305.99 2.03, 319.97 -1.11 M296.51 7.52 C303.57 4.32, 311.19 1.06, 319.97 -1.11" stroke="#1e1e1e" stroke-width="2" fill="none"></path></g><g transform="translate(163.87297407960045 139.62494490415042) rotate(0 159.71644997118528 -0.7715770530008967)"><path d="M296.45 -9.58 C302.19 -5.87, 305.89 -7.31, 319.97 -1.11 M296.45 -9.58 C303.56 -7.09, 311.2 -4.66, 319.97 -1.11" stroke="#1e1e1e" stroke-width="2" fill="none"></path></g></g><mask></mask><g stroke-linecap="round"><g transform="translate(585.1540450180894 212.1531878862345) rotate(0 2.3147311590025765 83.33032172409673)"><path d="M0.69 1.01 C1.57 28.81, 3.69 138.14, 4.39 165.81 M-0.4 0.5 C0.37 28.52, 2.53 139.5, 3.31 166.91" stroke="#1e1e1e" stroke-width="2" fill="none"></path></g><g transform="translate(585.1540450180894 212.1531878862345) rotate(0 2.3147311590025765 83.33032172409673)"><path d="M-5.78 143.62 C-2.22 148.47, -3.25 154.64, 3.31 166.91 M-5.78 143.62 C-3.26 151.27, 1.14 159.69, 3.31 166.91" stroke="#1e1e1e" stroke-width="2" fill="none"></path></g><g transform="translate(585.1540450180894 212.1531878862345) rotate(0 2.3147311590025765 83.33032172409673)"><path d="M11.31 143.22 C10.98 148.26, 6.06 154.52, 3.31 166.91 M11.31 143.22 C8.14 151.06, 6.84 159.62, 3.31 166.91" stroke="#1e1e1e" stroke-width="2" fill="none"></path></g></g><mask></mask><g stroke-linecap="round"><g transform="translate(474.04694938596026 110.30501689011635) rotate(0 -152.7722564941771 1.5431541060017935)"><path d="M1.19 -0.96 C-49.65 -0.21, -254.73 3.16, -305.74 4.03 M0.36 1.16 C-50.6 1.62, -255.85 2.17, -306.79 2.4" stroke="#1e1e1e" stroke-width="2" fill="none"></path></g><g transform="translate(474.04694938596026 110.30501689011635) rotate(0 -152.7722564941771 1.5431541060017935)"><path d="M-283.33 -6.23 C-290.64 -4.24, -293.15 -0.7, -306.79 2.4 M-283.33 -6.23 C-292.21 -3.64, -302.43 0.97, -306.79 2.4" stroke="#1e1e1e" stroke-width="2" fill="none"></path></g><g transform="translate(474.04694938596026 110.30501689011635) rotate(0 -152.7722564941771 1.5431541060017935)"><path d="M-283.27 10.87 C-290.53 8.72, -293.06 8.13, -306.79 2.4 M-283.27 10.87 C-292.29 6.68, -302.53 4.5, -306.79 2.4" stroke="#1e1e1e" stroke-width="2" fill="none"></path></g></g><mask></mask><g stroke-linecap="round"><g transform="translate(565.0930416400663 375.7275231224244) rotate(0 -2.314731159002804 -81.01559056509404)"><path d="M0 0.26 C-0.76 -26.78, -4.77 -135.68, -5.35 -162.66 M-1.46 -0.65 C-1.76 -27.51, -2.65 -134.27, -3.02 -161.46" stroke="#1e1e1e" stroke-width="2" fill="none"></path></g><g transform="translate(565.0930416400663 375.7275231224244) rotate(0 -2.314731159002804 -81.01559056509404)"><path d="M5.78 -138.06 C4.23 -144.76, 0.68 -147.18, -3.02 -161.46 M5.78 -138.06 C3.57 -146.44, -0.1 -154.51, -3.02 -161.46" stroke="#1e1e1e" stroke-width="2" fill="none"></path></g><g transform="translate(565.0930416400663 375.7275231224244) rotate(0 -2.314731159002804 -81.01559056509404)"><path d="M-11.32 -137.88 C-8.86 -144.62, -8.39 -147.08, -3.02 -161.46 M-11.32 -137.88 C-7.82 -146.48, -5.77 -154.61, -3.02 -161.46" stroke="#1e1e1e" stroke-width="2" fill="none"></path></g></g><mask></mask><g transform="translate(213.25390547165784 167.4017188121827) rotate(0 104.12998962402344 22.5)"><text x="0" y="0" font-family="Virgil, Segoe UI Emoji" font-size="36px" fill="#1e1e1e" text-anchor="start" style="white-space: pre;" direction="ltr" dominant-baseline="text-before-edge">(1) SET a b</text></g><g transform="translate(264.17799096971726 57.837777286055484) rotate(0 59.47200012207031 22.5)"><text x="0" y="0" font-family="Virgil, Segoe UI Emoji" font-size="36px" fill="#1e1e1e" text-anchor="start" style="white-space: pre;" direction="ltr" dominant-baseline="text-before-edge">(2) OK</text></g><g transform="translate(606.7582025021145 284.6814308683188) rotate(0 111.50999450683594 22.5)"><text x="0" y="0" font-family="Virgil, Segoe UI Emoji" font-size="36px" fill="#1e1e1e" text-anchor="start" style="white-space: pre;" direction="ltr" dominant-baseline="text-before-edge">(3) SET a b</text></g><g transform="translate(420.7475656878971 294.58766709435645) rotate(0 58.17599868774414 22.5)"><text x="0" y="0" font-family="Virgil, Segoe UI Emoji" font-size="36px" fill="#1e1e1e" text-anchor="start" style="white-space: pre;" direction="ltr" dominant-baseline="text-before-edge">(4) OK</text></g></svg>