<svg version="1.1" xmlns="http://www.w3.org/2000/svg" viewBox="0 0 478.22575213780976 189.7526743223364" width="956.4515042756195" height="379.5053486446728">
  <!-- svg-source:excalidraw -->
  
  <defs>
    <style class="style-fonts">
      @font-face {
        font-family: "Virgil";
        src: url("https://excalidraw.com/Virgil.woff2");
      }
      @font-face {
        font-family: "Cascadia";
        src: url("https://excalidraw.com/Cascadia.woff2");
      }
      @font-face {
        font-family: "Assistant";
        src: url("https://excalidraw.com/Assistant-Regular.woff2");
      }
    </style>
    
  </defs>
  <rect x="0" y="0" width="478.22575213780976" height="189.7526743223364" fill="#ffffff"></rect><g stroke-linecap="round"><g transform="translate(229.27436101467583 11.681603553937748) rotate(0 113.9688806189319 37.53466128168422)"><path d="M-0.51 -0.42 C37.4 6.01, 225.91 25.7, 227.77 38.39 C229.62 51.08, 46.57 69.4, 10.62 75.7 M1.42 -1.68 C39.13 4.98, 225.35 27.46, 226.73 40.02 C228.11 52.58, 45.94 67.98, 9.69 73.68" stroke="#1e1e1e" stroke-width="2" fill="none"></path></g><g transform="translate(229.27436101467583 11.681603553937748) rotate(0 113.9688806189319 37.53466128168422)"><path d="M32.03 62.45 C24.05 65.73, 17.77 69.15, 9.69 73.68 M32.03 62.45 C23.47 66.22, 15.42 70.56, 9.69 73.68" stroke="#1e1e1e" stroke-width="2" fill="none"></path></g><g transform="translate(229.27436101467583 11.681603553937748) rotate(0 113.9688806189319 37.53466128168422)"><path d="M34.02 79.43 C25.42 77.18, 18.49 75.08, 9.69 73.68 M34.02 79.43 C24.6 77.24, 15.85 75.6, 9.69 73.68" stroke="#1e1e1e" stroke-width="2" fill="none"></path></g></g><mask></mask><g stroke-linecap="round"><g transform="translate(200.61152876320784 82.65623579566793) rotate(0 -94.8603257846201 -34.80486773392538)"><path d="M-0.5 -0.45 C-32.19 -4.14, -188.99 -10.22, -189.68 -21.73 C-190.36 -33.24, -35.25 -61.49, -4.61 -69.51 M1.44 -1.73 C-30.44 -5.24, -189.55 -9.07, -190.61 -20.14 C-191.67 -31.21, -35.73 -60.02, -4.93 -68.13" stroke="#1e1e1e" stroke-width="2" fill="none"></path></g><g transform="translate(200.61152876320784 82.65623579566793) rotate(0 -94.8603257846201 -34.80486773392538)"><path d="M-26.04 -54.74 C-19.73 -59.09, -11.7 -62.25, -4.93 -68.13 M-26.04 -54.74 C-20.22 -58.6, -13.9 -63.13, -4.93 -68.13" stroke="#1e1e1e" stroke-width="2" fill="none"></path></g><g transform="translate(200.61152876320784 82.65623579566793) rotate(0 -94.8603257846201 -34.80486773392538)"><path d="M-29.71 -71.44 C-22.11 -70.15, -12.84 -67.69, -4.93 -68.13 M-29.71 -71.44 C-22.81 -70.14, -15.36 -69.52, -4.93 -68.13" stroke="#1e1e1e" stroke-width="2" fill="none"></path></g></g><mask></mask><g transform="translate(19.418165772434236 120.29572740631662) rotate(34.18790162723783 27.049999237060547 12.5)"><text x="0" y="0" font-family="Virgil, Segoe UI Emoji" font-size="20px" fill="#1e1e1e" text-anchor="start" style="white-space: pre;" direction="ltr" dominant-baseline="text-before-edge">Client</text></g><g transform="translate(86.24271548193985 120.91055409738092) rotate(34.18790162723783 27.049999237060547 12.5)"><text x="0" y="0" font-family="Virgil, Segoe UI Emoji" font-size="20px" fill="#1e1e1e" text-anchor="start" style="white-space: pre;" direction="ltr" dominant-baseline="text-before-edge">Client</text></g><g transform="translate(150.43634086451834 120.22030006100923) rotate(34.18790162723783 27.049999237060547 12.5)"><text x="0" y="0" font-family="Virgil, Segoe UI Emoji" font-size="20px" fill="#1e1e1e" text-anchor="start" style="white-space: pre;" direction="ltr" dominant-baseline="text-before-edge">Client</text></g><g transform="translate(206.34691781063452 118.14953795189373) rotate(34.18790162723783 27.049999237060547 12.5)"><text x="0" y="0" font-family="Virgil, Segoe UI Emoji" font-size="20px" fill="#1e1e1e" text-anchor="start" style="white-space: pre;" direction="ltr" dominant-baseline="text-before-edge">Client</text></g><g transform="translate(271.9210512659565 116.76902987915017) rotate(34.18790162723783 27.04999923706049 12.5)"><text x="0" y="0" font-family="Virgil, Segoe UI Emoji" font-size="20px" fill="#1e1e1e" text-anchor="start" style="white-space: pre;" direction="ltr" dominant-baseline="text-before-edge">Client</text></g><g transform="translate(334.93410729774735 128.89591456175512) rotate(34.18790162723783 49.86000061035156 12.5)"><text x="0" y="0" font-family="Virgil, Segoe UI Emoji" font-size="20px" fill="#1e1e1e" text-anchor="start" style="white-space: pre;" direction="ltr" dominant-baseline="text-before-edge">Connection</text></g><g transform="translate(403.17004821143007 103.53821735171167) rotate(34.18790162723783 31.759998321533203 12.5)"><text x="0" y="0" font-family="Virgil, Segoe UI Emoji" font-size="20px" fill="#1e1e1e" text-anchor="start" style="white-space: pre;" direction="ltr" dominant-baseline="text-before-edge">Timers</text></g></svg>