<svg version="1.1" xmlns="http://www.w3.org/2000/svg" viewBox="0 0 1447.86622593096 525.0755135769915" width="2895.73245186192" height="1050.151027153983">
  <!-- svg-source:excalidraw -->
  
  <defs>
    <style class="style-fonts">
      @font-face {
        font-family: "Virgil";
        src: url("https://excalidraw.com/Virgil.woff2");
      }
      @font-face {
        font-family: "Cascadia";
        src: url("https://excalidraw.com/Cascadia.woff2");
      }
    </style>
    
  </defs>
  <rect x="0" y="0" width="1447.86622593096" height="525.0755135769915" fill="#ffffff"></rect><g stroke-linecap="round" transform="translate(538.8103573461015 13.030638612056237) rotate(0 125.6033934052376 89.71670957516966)"><path d="M7.86 8.16 C7.86 8.16, 7.86 8.16, 7.86 8.16 M7.86 8.16 C7.86 8.16, 7.86 8.16, 7.86 8.16 M8.78 31.49 C18.84 21.68, 29.1 8.8, 34.37 2.05 M8.78 31.49 C18.93 22.4, 28.84 8.43, 34.37 2.05 M8.39 56.32 C19.77 36.25, 41.94 18.88, 55.63 1.98 M8.39 56.32 C20.32 42.13, 34.11 24.5, 55.63 1.98 M8.66 80.4 C25.15 62.29, 44.94 41.63, 76.89 1.91 M8.66 80.4 C35.94 49.88, 63.98 18.63, 76.89 1.91 M8.27 105.24 C41.84 66.82, 71.45 32.94, 98.15 1.85 M8.27 105.24 C29.16 80.13, 50.37 54.97, 98.15 1.85 M8.54 129.32 C33.98 97.4, 59.51 70.63, 119.41 1.78 M8.54 129.32 C29.43 100.62, 54.33 72.17, 119.41 1.78 M8.15 154.16 C46.94 118.5, 76.16 73.57, 140.67 1.71 M8.15 154.16 C38.63 122.08, 67.93 87.76, 140.67 1.71 M11.69 174.47 C56.89 117.85, 104.63 71.38, 161.28 2.39 M11.69 174.47 C43.07 136.49, 81.07 94.86, 161.28 2.39 M25.08 183.45 C62.6 142.41, 100.74 101.64, 182.54 2.32 M25.08 183.45 C72.89 124.34, 126.3 64.83, 182.54 2.32 M42.41 187.91 C98.98 118.34, 159.48 49.79, 203.8 2.26 M42.41 187.91 C86.81 132.74, 134.28 79.86, 203.8 2.26 M63.01 188.6 C124.33 114.97, 183.15 46.72, 223.74 3.7 M63.01 188.6 C103.95 138.62, 145.02 89.98, 223.74 3.7 M84.27 188.53 C124.7 141.08, 166.78 95.09, 240.41 8.91 M84.27 188.53 C132.84 133.4, 179.38 79.4, 240.41 8.91 M105.53 188.46 C164.81 124.35, 223.82 59.15, 251.83 20.16 M105.53 188.46 C143.66 141.65, 183.75 95.54, 251.83 20.16 M126.79 188.39 C167.92 135.19, 214.34 81.24, 258 37.45 M126.79 188.39 C175.39 129.08, 225.03 73.61, 258 37.45 M148.05 188.32 C175.06 159.84, 190.75 138.45, 257.61 62.29 M148.05 188.32 C177.53 152.06, 207 120.02, 257.61 62.29 M169.31 188.25 C189.02 164.86, 216.11 135.21, 257.88 86.37 M169.31 188.25 C197.26 154.79, 226.33 117.3, 257.88 86.37 M190.57 188.19 C215.94 162.03, 244.54 131.9, 257.49 111.21 M190.57 188.19 C205.96 166.99, 224.38 148.85, 257.49 111.21 M219.05 179.81 C230.87 168.61, 246.79 151.63, 257.75 135.29 M219.05 179.81 C232.91 164.84, 248.08 144.84, 257.75 135.29" stroke="#ffc9c9" stroke-width="2" fill="none"></path><path d="M32 0 M32 0 C89.6 2.07, 152.19 1.3, 219.21 0 M32 0 C103.27 1.76, 174.53 1.4, 219.21 0 M219.21 0 C241.76 -2.2, 249.26 9.71, 251.21 32 M219.21 0 C236.36 1.6, 254.27 14.04, 251.21 32 M251.21 32 C247.83 79.38, 251.34 116.67, 251.21 147.43 M251.21 32 C254.66 58.14, 254.51 86.37, 251.21 147.43 M251.21 147.43 C247.28 170.85, 241.94 181.26, 219.21 179.43 M251.21 147.43 C250.41 166.49, 243.26 175.13, 219.21 179.43 M219.21 179.43 C162.92 176.62, 98.39 177.81, 32 179.43 M219.21 179.43 C181.23 181.29, 141.39 180.33, 32 179.43 M32 179.43 C9.23 175.76, 1.51 169.12, 0 147.43 M32 179.43 C8.35 181.17, 3.75 171.38, 0 147.43 M0 147.43 C4 126.16, 4.64 101.36, 0 32 M0 147.43 C3 105.22, 1.29 66.18, 0 32 M0 32 C2.19 10.91, 9.33 -3.4, 32 0 M0 32 C-1.89 14.39, 15.08 -3.61, 32 0" stroke="#1e1e1e" stroke-width="4" fill="none"></path></g><g transform="translate(618.4057475164757 80.24734818722595) rotate(0 46.00800323486328 22.5)"><text x="46.00800323486328" y="0" font-family="Virgil, Segoe UI Emoji" font-size="36px" fill="#1e1e1e" text-anchor="middle" style="white-space: pre;" direction="ltr" dominant-baseline="text-before-edge">Redis</text></g><g stroke-linecap="round" transform="translate(1186.6594391204846 15.863797861798616) rotate(0 125.60339340523763 89.71670957516966)"><path d="M7.86 8.16 C7.86 8.16, 7.86 8.16, 7.86 8.16 M7.86 8.16 C7.86 8.16, 7.86 8.16, 7.86 8.16 M8.78 31.49 C15.65 22.46, 26.8 14.03, 34.37 2.05 M8.78 31.49 C14.57 25.27, 25.38 15.54, 34.37 2.05 M8.39 56.32 C22.09 39.26, 40.27 20.99, 55.63 1.98 M8.39 56.32 C24.71 36.36, 39.35 17.64, 55.63 1.98 M8.66 80.4 C25.21 60.44, 42.26 45.24, 76.89 1.91 M8.66 80.4 C23.21 62.89, 41.36 43.76, 76.89 1.91 M8.27 105.24 C29.74 83.54, 43.05 64.24, 98.15 1.85 M8.27 105.24 C40.2 68.56, 73.16 35.14, 98.15 1.85 M8.54 129.32 C30.09 101.49, 58.69 82.6, 119.41 1.78 M8.54 129.32 C40.67 94.15, 72.25 54.29, 119.41 1.78 M8.15 154.16 C41.57 112.88, 81.48 63.94, 140.67 1.71 M8.15 154.16 C60.38 96.62, 109.92 41.01, 140.67 1.71 M11.69 174.47 C64.56 115.54, 113.95 58.64, 161.28 2.39 M11.69 174.47 C63.07 111.95, 117.05 53.05, 161.28 2.39 M25.08 183.45 C85.37 116.97, 140 49.45, 182.54 2.32 M25.08 183.45 C63.39 144.23, 101.45 102.49, 182.54 2.32 M42.41 187.91 C93.24 131.06, 141.71 74.05, 203.8 2.26 M42.41 187.91 C104.89 113.25, 166.03 43.15, 203.8 2.26 M63.01 188.6 C112.61 133.62, 162.55 77.99, 223.74 3.7 M63.01 188.6 C105.49 139.11, 149.61 89.16, 223.74 3.7 M84.27 188.53 C125.38 148, 165.9 103.28, 240.41 8.91 M84.27 188.53 C129.84 142.3, 169.17 92.61, 240.41 8.91 M105.53 188.46 C160.23 124.21, 217.38 53.8, 251.83 20.16 M105.53 188.46 C155.71 127.22, 208.52 67.23, 251.83 20.16 M126.79 188.39 C171.9 138.32, 209.1 91.4, 258 37.45 M126.79 188.39 C156.42 156.43, 184.34 123.45, 258 37.45 M148.05 188.32 C179.64 152.21, 209.72 124.22, 257.61 62.29 M148.05 188.32 C189.68 145.79, 229.69 101.15, 257.61 62.29 M169.31 188.25 C197.88 160.02, 219.04 125.15, 257.88 86.37 M169.31 188.25 C190.6 159.9, 213.53 136.67, 257.88 86.37 M190.57 188.19 C221.84 155.44, 243.92 128.65, 257.49 111.21 M190.57 188.19 C206.65 169.77, 223.73 152.02, 257.49 111.21 M219.05 179.81 C230.44 171.67, 240.08 163.02, 257.75 135.29 M219.05 179.81 C228.86 171.06, 236.8 160.73, 257.75 135.29" stroke="#ffc9c9" stroke-width="2" fill="none"></path><path d="M32 0 M32 0 C104.59 5.37, 172.86 5.16, 219.21 0 M32 0 C97.03 -3.29, 162.99 -2.2, 219.21 0 M219.21 0 C240.47 -2.55, 247.29 8.49, 251.21 32 M219.21 0 C240.27 1.04, 248.7 10.23, 251.21 32 M251.21 32 C253.54 68.28, 246.29 106.1, 251.21 147.43 M251.21 32 C250.68 56.37, 250.03 79.96, 251.21 147.43 M251.21 147.43 C247.83 170.35, 238.96 176.2, 219.21 179.43 M251.21 147.43 C252.52 169.67, 236.58 176.21, 219.21 179.43 M219.21 179.43 C148.7 180.48, 81.63 181.07, 32 179.43 M219.21 179.43 C158.55 176.19, 98.75 177.66, 32 179.43 M32 179.43 C8.37 182.92, 1.54 170.46, 0 147.43 M32 179.43 C12 177.78, 2.2 170.68, 0 147.43 M0 147.43 C-2.49 108.74, -3.42 71.35, 0 32 M0 147.43 C-1.13 104.36, -0.17 64.57, 0 32 M0 32 C3.95 10.84, 7.54 -1.99, 32 0 M0 32 C0.9 14.32, 9.8 -3.91, 32 0" stroke="#1e1e1e" stroke-width="4" fill="none"></path></g><g transform="translate(1265.5528334412495 60.58050743696833) rotate(0 46.709999084472656 45)"><text x="46.709999084472656" y="0" font-family="Virgil, Segoe UI Emoji" font-size="36px" fill="#1e1e1e" text-anchor="middle" style="white-space: pre;" direction="ltr" dominant-baseline="text-before-edge">Redis</text><text x="46.709999084472656" y="45" font-family="Virgil, Segoe UI Emoji" font-size="36px" fill="#1e1e1e" text-anchor="middle" style="white-space: pre;" direction="ltr" dominant-baseline="text-before-edge">재시작</text></g><g stroke-linecap="round" transform="translate(10 10) rotate(0 125.60339340523757 89.71670957516966)"><path d="M32 0 M32 0 C99.08 2.72, 166.25 2.38, 219.21 0 M32 0 C97.12 1.62, 161.79 3, 219.21 0 M219.21 0 C240.96 -1.3, 249.65 14.55, 251.21 32 M219.21 0 C240.73 -4.05, 248.68 10.45, 251.21 32 M251.21 32 C250.65 54.73, 254.65 83.3, 251.21 147.43 M251.21 32 C253.1 67.59, 253.65 102.12, 251.21 147.43 M251.21 147.43 C251.84 168.81, 240.05 180.23, 219.21 179.43 M251.21 147.43 C248.82 170.94, 243.46 179.16, 219.21 179.43 M219.21 179.43 C148.37 178.14, 80.23 176.47, 32 179.43 M219.21 179.43 C155.19 181.14, 93.12 178.19, 32 179.43 M32 179.43 C9.58 177.24, 0.51 171.37, 0 147.43 M32 179.43 C10.06 183.88, 1.73 164.79, 0 147.43 M0 147.43 C-2.14 107.85, -2.56 70.02, 0 32 M0 147.43 C-0.48 119.72, 1.95 90.6, 0 32 M0 32 C3.86 7.09, 8.88 -3.37, 32 0 M0 32 C0.68 10.41, 6.55 -3.84, 32 0" stroke="#1e1e1e" stroke-width="4" fill="none"></path></g><g transform="translate(86.91339859322585 77.2167095751696) rotate(0 48.68999481201172 22.5)"><text x="48.68999481201172" y="0" font-family="Virgil, Segoe UI Emoji" font-size="36px" fill="#1e1e1e" text-anchor="middle" style="white-space: pre;" direction="ltr" dominant-baseline="text-before-edge">Client</text></g><g stroke-linecap="round"><g transform="translate(265.2529622844189 94.91487369075571) rotate(0 134.97374838517052 1.85848118348963)"><path d="M0.56 0.44 C45.81 0.35, 227.12 1.97, 272.53 2.06 M-2.59 -1.78 C42.2 -0.22, 224.62 4.66, 270.31 5.5" stroke="#1e1e1e" stroke-width="4" fill="none"></path></g><g transform="translate(265.2529622844189 94.91487369075571) rotate(0 134.97374838517052 1.85848118348963)"><path d="M242.52 15.14 C250.78 12.55, 258.76 10.42, 272.85 5.26 M240.87 16.28 C251.6 12.47, 263.47 8.35, 270.64 4.51" stroke="#1e1e1e" stroke-width="4" fill="none"></path></g><g transform="translate(265.2529622844189 94.91487369075571) rotate(0 134.97374838517052 1.85848118348963)"><path d="M243 -5.37 C251.48 -1.06, 259.3 3.71, 272.85 5.26 M241.35 -4.23 C251.99 -0.51, 263.69 2.9, 270.64 4.51" stroke="#1e1e1e" stroke-width="4" fill="none"></path></g></g><mask></mask><g transform="translate(369.76482662946944 44.49559690440742) rotate(0 31.139999389648438 22.5)"><text x="31.139999389648438" y="0" font-family="Virgil, Segoe UI Emoji" font-size="36px" fill="#1e1e1e" text-anchor="middle" style="white-space: pre;" direction="ltr" dominant-baseline="text-before-edge">쓰기</text></g><g stroke-linecap="round" transform="translate(480.1351181119509 341.0089627669795) rotate(0 220.88445068304964 87.03327540500601)"><path d="M32 0 M32 0 C157.85 -0.07, 284.07 0.79, 409.77 0 M32 0 C139.9 -4.36, 246.5 -3.49, 409.77 0 M409.77 0 C429.6 -1.11, 439.61 14.25, 441.77 32 M409.77 0 C428.44 -4.51, 441.05 6.11, 441.77 32 M441.77 32 C447.28 58.09, 446.71 85.13, 441.77 142.07 M441.77 32 C441.25 60.7, 441.49 85.82, 441.77 142.07 M441.77 142.07 C441.32 167.34, 433.95 173.48, 409.77 174.07 M441.77 142.07 C439.11 165.98, 432.51 176.14, 409.77 174.07 M409.77 174.07 C318.35 172.49, 233.1 171.73, 32 174.07 M409.77 174.07 C275.05 171.94, 141.64 172.94, 32 174.07 M32 174.07 C14.65 173.36, 0 160.47, 0 142.07 M32 174.07 C10.33 178.44, 0.82 163.41, 0 142.07 M0 142.07 C4.18 109.13, 1.6 69.01, 0 32 M0 142.07 C-0.46 116.05, -1.36 90.37, 0 32 M0 32 C-3.82 7.56, 10.89 -1, 32 0 M0 32 C0.11 11.69, 8.89 -0.5, 32 0" stroke="#1e1e1e" stroke-width="4" fill="none"></path></g><g transform="translate(528.6875680625786 383.0422381719855) rotate(0 172.33200073242188 45)"><text x="172.33200073242188" y="0" font-family="Virgil, Segoe UI Emoji" font-size="36px" fill="#1e1e1e" text-anchor="middle" style="white-space: pre;" direction="ltr" dominant-baseline="text-before-edge">모든 operation 기록</text><text x="172.33200073242188" y="45" font-family="Virgil, Segoe UI Emoji" font-size="36px" fill="#1e1e1e" text-anchor="middle" style="white-space: pre;" direction="ltr" dominant-baseline="text-before-edge">(ex: appendonly.aof)</text></g><g stroke-linecap="round"><g transform="translate(667.4067176041017 196.95388623455574) rotate(0 0.5226632988622839 67.98475831403644)"><path d="M1.6 -1.24 C2.28 21.23, 2.07 114.24, 1.43 137.21 M-0.97 4.26 C-0.3 27.24, -0.76 112.37, -0.04 133.69" stroke="#1e1e1e" stroke-width="4" fill="none"></path></g><g transform="translate(667.4067176041017 196.95388623455574) rotate(0 0.5226632988622839 67.98475831403644)"><path d="M-12.4 107.66 C-4.04 108.06, -2.76 118.9, -1.72 132.6 M-11.77 105.85 C-8.26 115.83, -3.34 127.79, 1.56 134.58" stroke="#1e1e1e" stroke-width="4" fill="none"></path></g><g transform="translate(667.4067176041017 196.95388623455574) rotate(0 0.5226632988622839 67.98475831403644)"><path d="M8.12 107.42 C12.27 108.1, 9.32 118.99, -1.72 132.6 M8.75 105.61 C4.78 115.68, 2.22 127.74, 1.56 134.58" stroke="#1e1e1e" stroke-width="4" fill="none"></path></g></g><mask></mask><g stroke-linecap="round"><g transform="translate(925.5053963913609 422.6401728020196) rotate(0 197.00638789156147 -108.32957435552495)"><path d="M1.14 1.32 C89.73 3.52, 176.69 3.24, 389.39 -1.43 M-0.17 0.49 C142.35 -2.02, 284.39 -2.49, 391.66 -3.37 M391.87 -4.62 C392.27 -46.51, 394.8 -91.2, 394.05 -219.31 M390.47 -1.17 C394.28 -76.02, 392.44 -149.34, 390.57 -216.46" stroke="#1e1e1e" stroke-width="4" fill="none"></path></g><g transform="translate(925.5053963913609 422.6401728020196) rotate(0 197.00638789156147 -108.32957435552495)"><path d="M403.49 -186.25 C400.23 -193.61, 394.25 -199.51, 387.2 -214.78 M401.22 -187.68 C399.07 -198.09, 395.83 -207.52, 391.1 -218.12" stroke="#1e1e1e" stroke-width="4" fill="none"></path></g><g transform="translate(925.5053963913609 422.6401728020196) rotate(0 197.00638789156147 -108.32957435552495)"><path d="M382.97 -185.75 C384.38 -192.93, 383.06 -198.94, 387.2 -214.78 M380.71 -187.18 C385.99 -197.9, 390.17 -207.51, 391.1 -218.12" stroke="#1e1e1e" stroke-width="4" fill="none"></path></g></g><mask></mask><g transform="translate(931.233104162506 373.4213549867749) rotate(0 192.3480224609375 22.5)"><text x="192.3480224609375" y="0" font-family="Virgil, Segoe UI Emoji" font-size="36px" fill="#1e1e1e" text-anchor="middle" style="white-space: pre;" direction="ltr" dominant-baseline="text-before-edge">모든 operation을 재실행</text></g><g transform="translate(687.397567558195 236.56903228097235) rotate(0 86.8499984741211 22.5)"><text x="86.8499984741211" y="0" font-family="Virgil, Segoe UI Emoji" font-size="36px" fill="#1e1e1e" text-anchor="middle" style="white-space: pre;" direction="ltr" dominant-baseline="text-before-edge">데이터 기록</text></g></svg>