<svg version="1.1" xmlns="http://www.w3.org/2000/svg" viewBox="0 0 1124.9321073994583 435.4806767213841" width="2249.8642147989167" height="870.9613534427682">
  <!-- svg-source:excalidraw -->
  
  <defs>
    <style class="style-fonts">
      @font-face {
        font-family: "Virgil";
        src: url("https://excalidraw.com/Virgil.woff2");
      }
      @font-face {
        font-family: "Cascadia";
        src: url("https://excalidraw.com/Cascadia.woff2");
      }
    </style>
    
  </defs>
  <rect x="0" y="0" width="1124.9321073994583" height="435.4806767213841" fill="#ffffff"></rect><g stroke-linecap="round" transform="translate(10 40.22036533058338) rotate(0 125.60339340523757 89.71670957516966)"><path d="M7.86 8.16 C7.86 8.16, 7.86 8.16, 7.86 8.16 M7.86 8.16 C7.86 8.16, 7.86 8.16, 7.86 8.16 M8.78 31.49 C18.84 21.68, 29.1 8.8, 34.37 2.05 M8.78 31.49 C18.93 22.4, 28.84 8.43, 34.37 2.05 M8.39 56.32 C19.77 36.25, 41.94 18.88, 55.63 1.98 M8.39 56.32 C20.32 42.13, 34.11 24.5, 55.63 1.98 M8.66 80.4 C25.15 62.29, 44.94 41.63, 76.89 1.91 M8.66 80.4 C35.94 49.88, 63.98 18.63, 76.89 1.91 M8.27 105.24 C41.84 66.82, 71.45 32.94, 98.15 1.85 M8.27 105.24 C29.16 80.13, 50.37 54.97, 98.15 1.85 M8.54 129.32 C33.98 97.4, 59.51 70.63, 119.41 1.78 M8.54 129.32 C29.43 100.62, 54.33 72.17, 119.41 1.78 M8.15 154.16 C46.94 118.5, 76.16 73.57, 140.67 1.71 M8.15 154.16 C38.63 122.08, 67.93 87.76, 140.67 1.71 M11.69 174.47 C56.89 117.85, 104.63 71.38, 161.28 2.39 M11.69 174.47 C43.07 136.49, 81.07 94.86, 161.28 2.39 M25.08 183.45 C62.6 142.41, 100.74 101.64, 182.54 2.32 M25.08 183.45 C72.89 124.34, 126.3 64.83, 182.54 2.32 M42.41 187.91 C98.98 118.34, 159.48 49.79, 203.8 2.26 M42.41 187.91 C86.81 132.74, 134.28 79.86, 203.8 2.26 M63.01 188.6 C124.33 114.97, 183.15 46.72, 223.74 3.7 M63.01 188.6 C103.95 138.62, 145.02 89.98, 223.74 3.7 M84.27 188.53 C124.7 141.08, 166.78 95.09, 240.41 8.91 M84.27 188.53 C132.84 133.4, 179.38 79.4, 240.41 8.91 M105.53 188.46 C164.81 124.35, 223.82 59.15, 251.83 20.16 M105.53 188.46 C143.66 141.65, 183.75 95.54, 251.83 20.16 M126.79 188.39 C167.92 135.19, 214.34 81.24, 258 37.45 M126.79 188.39 C175.39 129.08, 225.03 73.61, 258 37.45 M148.05 188.32 C175.06 159.84, 190.75 138.45, 257.61 62.29 M148.05 188.32 C177.53 152.06, 207 120.02, 257.61 62.29 M169.31 188.25 C189.02 164.86, 216.11 135.21, 257.88 86.37 M169.31 188.25 C197.26 154.79, 226.33 117.3, 257.88 86.37 M190.57 188.19 C215.94 162.03, 244.54 131.9, 257.49 111.21 M190.57 188.19 C205.96 166.99, 224.38 148.85, 257.49 111.21 M219.05 179.81 C230.87 168.61, 246.79 151.63, 257.75 135.29 M219.05 179.81 C232.91 164.84, 248.08 144.84, 257.75 135.29" stroke="#ffc9c9" stroke-width="2" fill="none"></path><path d="M32 0 M32 0 C89.6 2.07, 152.19 1.3, 219.21 0 M32 0 C103.27 1.76, 174.53 1.4, 219.21 0 M219.21 0 C241.76 -2.2, 249.26 9.71, 251.21 32 M219.21 0 C236.36 1.6, 254.27 14.04, 251.21 32 M251.21 32 C247.83 79.38, 251.34 116.67, 251.21 147.43 M251.21 32 C254.66 58.14, 254.51 86.37, 251.21 147.43 M251.21 147.43 C247.28 170.85, 241.94 181.26, 219.21 179.43 M251.21 147.43 C250.41 166.49, 243.26 175.13, 219.21 179.43 M219.21 179.43 C162.92 176.62, 98.39 177.81, 32 179.43 M219.21 179.43 C181.23 181.29, 141.39 180.33, 32 179.43 M32 179.43 C9.23 175.76, 1.51 169.12, 0 147.43 M32 179.43 C8.35 181.17, 3.75 171.38, 0 147.43 M0 147.43 C4 126.16, 4.64 101.36, 0 32 M0 147.43 C3 105.22, 1.29 66.18, 0 32 M0 32 C2.19 10.91, 9.33 -3.4, 32 0 M0 32 C-1.89 14.39, 15.08 -3.61, 32 0" stroke="#1e1e1e" stroke-width="4" fill="none"></path></g><g transform="translate(89.59539017037429 107.4370749057531) rotate(0 46.00800323486328 22.5)"><text x="46.00800323486328" y="0" font-family="Virgil, Segoe UI Emoji" font-size="36px" fill="#1e1e1e" text-anchor="middle" style="white-space: pre;" direction="ltr" dominant-baseline="text-before-edge">Redis</text></g><g stroke-linecap="round" transform="translate(863.7253205889831 33.609660414518316) rotate(0 125.60339340523763 89.71670957516966)"><path d="M7.86 8.16 C7.86 8.16, 7.86 8.16, 7.86 8.16 M7.86 8.16 C7.86 8.16, 7.86 8.16, 7.86 8.16 M8.78 31.49 C15.65 22.46, 26.8 14.03, 34.37 2.05 M8.78 31.49 C14.57 25.27, 25.38 15.54, 34.37 2.05 M8.39 56.32 C22.09 39.26, 40.27 20.99, 55.63 1.98 M8.39 56.32 C24.71 36.36, 39.35 17.64, 55.63 1.98 M8.66 80.4 C25.21 60.44, 42.26 45.24, 76.89 1.91 M8.66 80.4 C23.21 62.89, 41.36 43.76, 76.89 1.91 M8.27 105.24 C29.74 83.54, 43.05 64.24, 98.15 1.85 M8.27 105.24 C40.2 68.56, 73.16 35.14, 98.15 1.85 M8.54 129.32 C30.09 101.49, 58.69 82.6, 119.41 1.78 M8.54 129.32 C40.67 94.15, 72.25 54.29, 119.41 1.78 M8.15 154.16 C41.57 112.88, 81.48 63.94, 140.67 1.71 M8.15 154.16 C60.38 96.62, 109.92 41.01, 140.67 1.71 M11.69 174.47 C64.56 115.54, 113.95 58.64, 161.28 2.39 M11.69 174.47 C63.07 111.95, 117.05 53.05, 161.28 2.39 M25.08 183.45 C85.37 116.97, 140 49.45, 182.54 2.32 M25.08 183.45 C63.39 144.23, 101.45 102.49, 182.54 2.32 M42.41 187.91 C93.24 131.06, 141.71 74.05, 203.8 2.26 M42.41 187.91 C104.89 113.25, 166.03 43.15, 203.8 2.26 M63.01 188.6 C112.61 133.62, 162.55 77.99, 223.74 3.7 M63.01 188.6 C105.49 139.11, 149.61 89.16, 223.74 3.7 M84.27 188.53 C125.38 148, 165.9 103.28, 240.41 8.91 M84.27 188.53 C129.84 142.3, 169.17 92.61, 240.41 8.91 M105.53 188.46 C160.23 124.21, 217.38 53.8, 251.83 20.16 M105.53 188.46 C155.71 127.22, 208.52 67.23, 251.83 20.16 M126.79 188.39 C171.9 138.32, 209.1 91.4, 258 37.45 M126.79 188.39 C156.42 156.43, 184.34 123.45, 258 37.45 M148.05 188.32 C179.64 152.21, 209.72 124.22, 257.61 62.29 M148.05 188.32 C189.68 145.79, 229.69 101.15, 257.61 62.29 M169.31 188.25 C197.88 160.02, 219.04 125.15, 257.88 86.37 M169.31 188.25 C190.6 159.9, 213.53 136.67, 257.88 86.37 M190.57 188.19 C221.84 155.44, 243.92 128.65, 257.49 111.21 M190.57 188.19 C206.65 169.77, 223.73 152.02, 257.49 111.21 M219.05 179.81 C230.44 171.67, 240.08 163.02, 257.75 135.29 M219.05 179.81 C228.86 171.06, 236.8 160.73, 257.75 135.29" stroke="#ffc9c9" stroke-width="2" fill="none"></path><path d="M32 0 M32 0 C104.59 5.37, 172.86 5.16, 219.21 0 M32 0 C97.03 -3.29, 162.99 -2.2, 219.21 0 M219.21 0 C240.47 -2.55, 247.29 8.49, 251.21 32 M219.21 0 C240.27 1.04, 248.7 10.23, 251.21 32 M251.21 32 C253.54 68.28, 246.29 106.1, 251.21 147.43 M251.21 32 C250.68 56.37, 250.03 79.96, 251.21 147.43 M251.21 147.43 C247.83 170.35, 238.96 176.2, 219.21 179.43 M251.21 147.43 C252.52 169.67, 236.58 176.21, 219.21 179.43 M219.21 179.43 C148.7 180.48, 81.63 181.07, 32 179.43 M219.21 179.43 C158.55 176.19, 98.75 177.66, 32 179.43 M32 179.43 C8.37 182.92, 1.54 170.46, 0 147.43 M32 179.43 C12 177.78, 2.2 170.68, 0 147.43 M0 147.43 C-2.49 108.74, -3.42 71.35, 0 32 M0 147.43 C-1.13 104.36, -0.17 64.57, 0 32 M0 32 C3.95 10.84, 7.54 -1.99, 32 0 M0 32 C0.9 14.32, 9.8 -3.91, 32 0" stroke="#1e1e1e" stroke-width="4" fill="none"></path></g><g transform="translate(942.618714909748 78.32636998968803) rotate(0 46.709999084472656 45)"><text x="46.709999084472656" y="0" font-family="Virgil, Segoe UI Emoji" font-size="36px" fill="#1e1e1e" text-anchor="middle" style="white-space: pre;" direction="ltr" dominant-baseline="text-before-edge">Redis</text><text x="46.709999084472656" y="45" font-family="Virgil, Segoe UI Emoji" font-size="36px" fill="#1e1e1e" text-anchor="middle" style="white-space: pre;" direction="ltr" dominant-baseline="text-before-edge">재시작</text></g><g stroke-linecap="round"><g transform="translate(266.8731053099596 121.43759715652652) rotate(0 216.46060682009016 -0.0062952750548674885)"><path d="M-1.97 -2.43 C70.87 -1.89, 362.48 1.07, 434.89 1.46 M2.16 2.42 C75.03 2.39, 362.51 -0.97, 433.93 -2.25" stroke="#1e1e1e" stroke-width="4" fill="none"></path></g><g transform="translate(266.8731053099596 121.43759715652652) rotate(0 216.46060682009016 -0.0062952750548674885)"><path d="M402.41 11.78 C415.74 6.37, 419.74 1.06, 433.33 0.4 M407.86 7.08 C410.23 7.22, 416.64 2.61, 435.6 -2.81" stroke="#1e1e1e" stroke-width="4" fill="none"></path></g><g transform="translate(266.8731053099596 121.43759715652652) rotate(0 216.46060682009016 -0.0062952750548674885)"><path d="M402.12 -8.74 C415.25 -9.54, 419.31 -10.26, 433.33 0.4 M407.57 -13.44 C409.92 -9.07, 416.39 -9.45, 435.6 -2.81" stroke="#1e1e1e" stroke-width="4" fill="none"></path></g></g><mask></mask><g transform="translate(710.1534064283335 99.7167095751696) rotate(0 36.46799850463867 22.5)"><text x="36.46799850463867" y="0" font-family="Virgil, Segoe UI Emoji" font-size="36px" fill="#e03131" text-anchor="middle" style="white-space: pre;" direction="ltr" dominant-baseline="text-before-edge">중단!</text></g><g stroke-linecap="round" transform="translate(267.81749172654037 324.4806767213841) rotate(0 246.5 50.5)"><path d="M25.25 0 M25.25 0 C143 -2.82, 262.79 -2.66, 467.75 0 M25.25 0 C149.39 -1.31, 275.58 0.09, 467.75 0 M467.75 0 C486.14 3.86, 495.38 4.68, 493 25.25 M467.75 0 C482.55 0.01, 496.26 9.45, 493 25.25 M493 25.25 C495.81 40.2, 495.64 64.37, 493 75.75 M493 25.25 C494.84 43.87, 492.76 59.03, 493 75.75 M493 75.75 C492.14 93.42, 484.51 98.45, 467.75 101 M493 75.75 C488.5 90.08, 484.31 102.04, 467.75 101 M467.75 101 C357.72 104.45, 252.33 101.34, 25.25 101 M467.75 101 C371.43 97.51, 276.78 97.2, 25.25 101 M25.25 101 C8.92 102.78, -3.38 94.16, 0 75.75 M25.25 101 C6.6 97.28, 1.31 93.49, 0 75.75 M0 75.75 C0.75 66.28, -1.07 53.93, 0 25.25 M0 75.75 C-1.01 59.08, -0.84 45.57, 0 25.25 M0 25.25 C-1.28 11.05, 6.12 3.48, 25.25 0 M0 25.25 C1.77 10.36, 9.75 -1.65, 25.25 0" stroke="#1e1e1e" stroke-width="4" fill="none"></path></g><g transform="translate(390.5854970976341 329.9806767213841) rotate(0 123.73199462890625 45)"><text x="123.73199462890625" y="0" font-family="Virgil, Segoe UI Emoji" font-size="36px" fill="#1e1e1e" text-anchor="middle" style="white-space: pre;" direction="ltr" dominant-baseline="text-before-edge">백업(Snapshot)</text><text x="123.73199462890625" y="45" font-family="Virgil, Segoe UI Emoji" font-size="36px" fill="#1e1e1e" text-anchor="middle" style="white-space: pre;" direction="ltr" dominant-baseline="text-before-edge">(ex:dump.rdb)</text></g><g stroke-linecap="round"><g transform="translate(385.86579379913195 121.43759715652652) rotate(0 -2.819442595877547 95.71292116743751)"><path d="M0.51 -2.68 C-0.72 28.86, -3.56 158.97, -5.19 191.58 M-2.66 2.04 C-4.24 35.11, -6.03 161.82, -6.15 194.11" stroke="#1e1e1e" stroke-width="4" fill="none"></path></g><g transform="translate(385.86579379913195 121.43759715652652) rotate(0 -2.819442595877547 95.71292116743751)"><path d="M-19.95 169.19 C-14.78 174.01, -9 184.83, -2.23 193.91 M-14.28 167.44 C-13.12 171.38, -9.25 179.05, -6.31 193.81" stroke="#1e1e1e" stroke-width="4" fill="none"></path></g><g transform="translate(385.86579379913195 121.43759715652652) rotate(0 -2.819442595877547 95.71292116743751)"><path d="M0.57 169.4 C-2.01 174.21, -3.98 184.95, -2.23 193.91 M6.24 167.65 C2.09 171.4, 0.65 179.02, -6.31 193.81" stroke="#1e1e1e" stroke-width="4" fill="none"></path></g></g><mask></mask><g stroke-linecap="round"><g transform="translate(502.9559928012782 124.88524973006588) rotate(0 -3.9160462226726622 96.32791435604224)"><path d="M-0.83 -0.1 C-1.92 32.4, -7.36 163.4, -8.82 195.28 M3.92 -2.63 C2.55 29.04, -10.45 158.57, -11.75 191.18" stroke="#1e1e1e" stroke-width="4" fill="none"></path></g><g transform="translate(502.9559928012782 124.88524973006588) rotate(0 -3.9160462226726622 96.32791435604224)"><path d="M-20.06 160.51 C-15.67 165.76, -19.7 172.76, -14.45 194.08 M-21.52 162.38 C-14.26 172.87, -12.55 185.62, -10.59 191.79" stroke="#1e1e1e" stroke-width="4" fill="none"></path></g><g transform="translate(502.9559928012782 124.88524973006588) rotate(0 -3.9160462226726622 96.32791435604224)"><path d="M0.41 162.01 C0.33 166.82, -8.16 173.48, -14.45 194.08 M-1.06 163.89 C-1.66 173.7, -7.79 185.88, -10.59 191.79" stroke="#1e1e1e" stroke-width="4" fill="none"></path></g></g><mask></mask><g stroke-linecap="round"><g transform="translate(622.8930677070314 122.05209048032373) rotate(0 -1.86252265658311 98.67242778063996)"><path d="M2.03 2.33 C1.46 34.8, -2.96 161.05, -4.94 192.95 M-0.31 1.12 C-0.88 34.19, -5.11 163.6, -5.76 196.22" stroke="#1e1e1e" stroke-width="4" fill="none"></path></g><g transform="translate(622.8930677070314 122.05209048032373) rotate(0 -1.86252265658311 98.67242778063996)"><path d="M-11.93 171.51 C-14.24 171.39, -10.85 185.56, -6.84 197.37 M-17.16 167.91 C-12.33 179.63, -6.16 189.93, -5.96 196.49" stroke="#1e1e1e" stroke-width="4" fill="none"></path></g><g transform="translate(622.8930677070314 122.05209048032373) rotate(0 -1.86252265658311 98.67242778063996)"><path d="M8.58 172.06 C1.25 172.1, -0.39 186.14, -6.84 197.37 M3.35 168.46 C0.84 180.11, -0.32 190.21, -5.96 196.49" stroke="#1e1e1e" stroke-width="4" fill="none"></path></g></g><mask></mask><g stroke-linecap="round"><g transform="translate(763.6203604314253 365.0892926343556) rotate(0 111.3277110821702 -67.05579025066979)"><path d="M-0.46 2.07 C60.39 -2.14, 123.61 3.25, 217.2 4.36 M-1.04 -1.07 C81.77 2.1, 160.21 4.95, 220.64 5.86 M217.84 8.46 C222.31 -28.29, 221.78 -65.59, 221.29 -140.24 M222.03 5.62 C222.96 -37.09, 224.64 -82.05, 223.02 -142.57" stroke="#1e1e1e" stroke-width="4" fill="none"></path></g><g transform="translate(763.6203604314253 365.0892926343556) rotate(0 111.3277110821702 -67.05579025066979)"><path d="M233.12 -112.13 C228.84 -125.77, 226.99 -129.96, 219.74 -146.26 M232.45 -115.75 C231.24 -125.49, 225.31 -135.6, 223.71 -144.53" stroke="#1e1e1e" stroke-width="4" fill="none"></path></g><g transform="translate(763.6203604314253 365.0892926343556) rotate(0 111.3277110821702 -67.05579025066979)"><path d="M212.6 -111.85 C214.13 -125.72, 218.07 -129.98, 219.74 -146.26 M211.93 -115.48 C218.2 -125.32, 219.75 -135.53, 223.71 -144.53" stroke="#1e1e1e" stroke-width="4" fill="none"></path></g></g><mask></mask><g transform="translate(885.4797600216461 282.9276743918317) rotate(0 86.84999847412104 22.5)"><text x="86.8499984741211" y="0" font-family="Virgil, Segoe UI Emoji" font-size="36px" fill="#1e1e1e" text-anchor="middle" style="white-space: pre;" direction="ltr" dominant-baseline="text-before-edge">데이터 복구</text></g><g transform="translate(426.0233921763616 192.26657840008136) rotate(0 71.27999877929688 22.5)"><text x="71.27999877929688" y="0" font-family="Virgil, Segoe UI Emoji" font-size="36px" fill="#1e1e1e" text-anchor="middle" style="white-space: pre;" direction="ltr" dominant-baseline="text-before-edge">백업 생성</text></g><g transform="translate(454.3549846737837 10) rotate(0 71.27999877929688 22.5)"><text x="71.27999877929688" y="0" font-family="Virgil, Segoe UI Emoji" font-size="36px" fill="#2f9e44" text-anchor="middle" style="white-space: pre;" direction="ltr" dominant-baseline="text-before-edge">백업 주기</text></g><g stroke-linecap="round"><g transform="translate(270.6506509762825 117.6600514902035) rotate(0 175.1013081073771 -23.22693969721081)"><path d="M0.96 -2.02 C10.81 -9.25, 39.68 -44.26, 58.35 -45.37 C77.01 -46.48, 93.68 -9.56, 112.95 -8.7 C132.22 -7.84, 153.37 -40.98, 173.95 -40.21 C194.52 -39.43, 215.35 -3.61, 236.41 -4.05 C257.47 -4.49, 281.24 -42.31, 300.32 -42.84 C319.4 -43.38, 342.36 -12.59, 350.88 -7.27 M-1.96 3.05 C7.57 -4.79, 35.91 -46.73, 56 -49.37 C76.08 -52.02, 98.78 -13.44, 118.55 -12.8 C138.32 -12.15, 155.36 -45.91, 174.63 -45.51 C193.89 -45.11, 212.63 -10.55, 234.13 -10.38 C255.64 -10.2, 283.98 -44.65, 303.65 -44.46 C323.32 -44.28, 344.59 -14.59, 352.17 -9.26" stroke="#2f9e44" stroke-width="4" fill="none"></path></g><g transform="translate(270.6506509762825 117.6600514902035) rotate(0 175.1013081073771 -23.22693969721081)"><path d="M321.97 -21.98 C334.77 -21.73, 343.33 -14.85, 354.09 -6.12 M324.55 -20.13 C335.66 -18.18, 344.31 -13.46, 352.15 -9.99" stroke="#2f9e44" stroke-width="4" fill="none"></path></g><g transform="translate(270.6506509762825 117.6600514902035) rotate(0 175.1013081073771 -23.22693969721081)"><path d="M336.34 -36.63 C345.01 -32.28, 349.66 -21.41, 354.09 -6.12 M338.92 -34.78 C344.4 -26.94, 347.43 -16.48, 352.15 -9.99" stroke="#2f9e44" stroke-width="4" fill="none"></path></g></g><mask></mask></svg>