<svg version="1.1" xmlns="http://www.w3.org/2000/svg" viewBox="0 0 1345.3563441973215 1327.0640985434065" width="2690.712688394643" height="2654.128197086813">
  <!-- svg-source:excalidraw -->
  
  <defs>
    <style class="style-fonts">
      @font-face {
        font-family: "Virgil";
        src: url("https://excalidraw.com/Virgil.woff2");
      }
      @font-face {
        font-family: "Cascadia";
        src: url("https://excalidraw.com/Cascadia.woff2");
      }
    </style>
    
  </defs>
  <rect x="0" y="0" width="1345.3563441973215" height="1327.0640985434065" fill="#ffffff"></rect><g stroke-linecap="round" transform="translate(160.49529378903088 14.988794269249752) rotate(0 165.4616765967798 118.06813103890818)"><path d="M7.86 8.16 C7.86 8.16, 7.86 8.16, 7.86 8.16 M7.86 8.16 C7.86 8.16, 7.86 8.16, 7.86 8.16 M8.78 31.49 C16.76 25.24, 23.09 15.88, 34.37 2.05 M8.78 31.49 C15.01 24.34, 23.49 13.33, 34.37 2.05 M8.39 56.32 C16.3 41.59, 34.29 27.4, 55.63 1.98 M8.39 56.32 C17.08 45.37, 30.11 35.57, 55.63 1.98 M8.66 80.4 C20.21 62.07, 40.51 45.52, 76.89 1.91 M8.66 80.4 C27.47 59.08, 45.14 38.24, 76.89 1.91 M8.27 105.24 C29.93 80.8, 52.28 55.53, 98.15 1.85 M8.27 105.24 C45.87 69.4, 78.56 28.44, 98.15 1.85 M8.54 129.32 C48.96 88.83, 87.06 41.31, 119.41 1.78 M8.54 129.32 C50.04 82.05, 90.84 34.64, 119.41 1.78 M8.15 154.16 C43.05 110.21, 79.58 73.89, 140.67 1.71 M8.15 154.16 C48.06 110.88, 87.27 65.67, 140.67 1.71 M8.41 178.24 C53.57 130.09, 91.95 80.7, 161.28 2.39 M8.41 178.24 C47.27 127.72, 87.67 79.52, 161.28 2.39 M4.09 207.61 C73.18 129.14, 139.04 53.75, 182.54 2.32 M4.09 207.61 C60.95 140.01, 118.84 73.88, 182.54 2.32 M10.26 224.89 C78.35 143.2, 145.74 66.5, 203.8 2.26 M10.26 224.89 C85.57 135.79, 164.07 47.45, 203.8 2.26 M19.71 238.41 C80.08 168.34, 138.1 102.38, 225.06 2.19 M19.71 238.41 C82.75 165.23, 149.04 88.3, 225.06 2.19 M38.35 241.36 C121.39 147.32, 198.58 54.76, 246.32 2.12 M38.35 241.36 C103.25 172.65, 163.16 103.15, 246.32 2.12 M59.61 241.29 C126.68 169.21, 189.25 92.33, 267.58 2.05 M59.61 241.29 C108.39 180.47, 159.74 122.66, 267.58 2.05 M80.87 241.22 C140.67 172.41, 198.86 101.26, 288.84 1.98 M80.87 241.22 C139.33 170.75, 199.1 99.42, 288.84 1.98 M102.13 241.15 C146.03 185.1, 195.94 129.96, 306.16 6.44 M102.13 241.15 C169.23 169.96, 234.64 94.85, 306.16 6.44 M122.73 241.84 C192.5 153.03, 268.45 70.69, 324.8 9.39 M122.73 241.84 C170.14 190.33, 213.87 137.64, 324.8 9.39 M143.99 241.77 C190.43 196.46, 233.38 145.96, 336.22 20.64 M143.99 241.77 C202.98 172.89, 263.57 101.48, 336.22 20.64 M165.25 241.7 C217.29 179.17, 271.21 118.87, 340.42 40.19 M165.25 241.7 C225.98 175.83, 284.06 109.49, 340.42 40.19 M186.51 241.63 C236.57 185.93, 287.73 125.88, 340.68 64.28 M186.51 241.63 C220.81 200.45, 257.18 156.39, 340.68 64.28 M207.77 241.56 C232.47 212.74, 265.79 181.21, 340.29 89.11 M207.77 241.56 C245.53 192.65, 287.33 146.11, 340.29 89.11 M229.03 241.49 C272.71 187.71, 315.22 142.95, 340.56 113.19 M229.03 241.49 C260.76 211.06, 286.2 176.17, 340.56 113.19 M250.29 241.42 C277.13 211.73, 307.67 174.64, 340.17 138.03 M250.29 241.42 C278.95 211.84, 303.56 183.14, 340.17 138.03 M271.55 241.36 C290.08 221.62, 310.31 199.25, 340.44 162.11 M271.55 241.36 C293.68 215.15, 316.89 185.15, 340.44 162.11 M292.81 241.29 C305.8 228.13, 313.67 210.76, 340.7 186.19 M292.81 241.29 C306.03 225.95, 320.22 208.24, 340.7 186.19" stroke="#ffc9c9" stroke-width="2" fill="none"></path><path d="M32 0 M32 0 C111.84 -3.95, 185.07 -2.03, 298.92 0 M32 0 C109.94 -0.22, 184.94 -2.31, 298.92 0 M298.92 0 C317.34 1.16, 334.62 13.78, 330.92 32 M298.92 0 C322.58 -2.13, 330.12 10.99, 330.92 32 M330.92 32 C334.05 81.9, 329.69 124.89, 330.92 204.14 M330.92 32 C333.7 99.86, 331.11 167.65, 330.92 204.14 M330.92 204.14 C333.11 221.79, 321.93 235.44, 298.92 236.14 M330.92 204.14 C332.33 225.88, 318.4 236.97, 298.92 236.14 M298.92 236.14 C214.05 236.82, 123.43 235.17, 32 236.14 M298.92 236.14 C214.15 238.42, 127.96 240.1, 32 236.14 M32 236.14 C11.38 233.94, 1.61 225.27, 0 204.14 M32 236.14 C10.12 240.1, 3.37 228.45, 0 204.14 M0 204.14 C-1.42 149.98, -1.8 98.7, 0 32 M0 204.14 C1.61 148.45, 0.1 96.68, 0 32 M0 32 C-1.04 11.05, 9.52 3.42, 32 0 M0 32 C-4.4 12.24, 14.11 -2.2, 32 0" stroke="#1e1e1e" stroke-width="4" fill="none"></path></g><g transform="translate(249.0789720337599 88.05692530815793) rotate(0 76.87799835205078 45)"><text x="76.87799835205078" y="0" font-family="Virgil, Segoe UI Emoji" font-size="36px" fill="#1e1e1e" text-anchor="middle" style="white-space: pre;" direction="ltr" dominant-baseline="text-before-edge">Redis</text><text x="76.87799835205078" y="45" font-family="Virgil, Segoe UI Emoji" font-size="36px" fill="#1e1e1e" text-anchor="middle" style="white-space: pre;" direction="ltr" dominant-baseline="text-before-edge">(Master)</text></g><g stroke-linecap="round" transform="translate(902.994174195686 10) rotate(0 165.46167659677982 118.06813103890818)"><path d="M7.86 8.16 C7.86 8.16, 7.86 8.16, 7.86 8.16 M7.86 8.16 C7.86 8.16, 7.86 8.16, 7.86 8.16 M8.78 31.49 C18.83 23.65, 23.64 11.92, 34.37 2.05 M8.78 31.49 C15.05 21.82, 20.47 13.54, 34.37 2.05 M8.39 56.32 C28 33.26, 44.05 15.28, 55.63 1.98 M8.39 56.32 C22.52 38.32, 37.16 22.08, 55.63 1.98 M8.66 80.4 C33.04 49.22, 55.32 24.71, 76.89 1.91 M8.66 80.4 C33.96 47.9, 63.03 17.1, 76.89 1.91 M8.27 105.24 C34.14 73.62, 58.56 46.64, 98.15 1.85 M8.27 105.24 C35.35 74.61, 64.86 39.72, 98.15 1.85 M8.54 129.32 C54.67 78.97, 91.81 30.89, 119.41 1.78 M8.54 129.32 C44.92 92.53, 75.9 56.07, 119.41 1.78 M8.15 154.16 C51.12 109.37, 89.65 58.8, 140.67 1.71 M8.15 154.16 C38.62 115.07, 71.71 78.61, 140.67 1.71 M8.41 178.24 C52.16 128.02, 94.67 74.06, 161.28 2.39 M8.41 178.24 C51.13 126.83, 94.5 73.87, 161.28 2.39 M4.09 207.61 C41.91 158.27, 86 110.02, 182.54 2.32 M4.09 207.61 C62.99 145.84, 120.2 80.16, 182.54 2.32 M10.26 224.89 C76.89 139.59, 149.8 60.9, 203.8 2.26 M10.26 224.89 C55.76 175.64, 97.45 125.21, 203.8 2.26 M19.71 238.41 C69.03 189.65, 114.94 135.78, 225.06 2.19 M19.71 238.41 C82.74 164.72, 147.46 88.63, 225.06 2.19 M38.35 241.36 C100.41 167.58, 164.44 95.47, 246.32 2.12 M38.35 241.36 C109.88 163.28, 178.64 84.6, 246.32 2.12 M59.61 241.29 C126.95 164.59, 195.76 84.43, 267.58 2.05 M59.61 241.29 C106.41 185.02, 155.78 126.38, 267.58 2.05 M80.87 241.22 C122.18 193.95, 170.43 143.79, 288.84 1.98 M80.87 241.22 C141.52 165.22, 206.57 91.6, 288.84 1.98 M102.13 241.15 C179.18 147.94, 256.04 62.48, 306.16 6.44 M102.13 241.15 C157.41 183.95, 206.82 123.09, 306.16 6.44 M122.73 241.84 C184.52 172, 248.62 96.86, 324.8 9.39 M122.73 241.84 C184.96 175.05, 242.99 108.03, 324.8 9.39 M143.99 241.77 C194.87 185.79, 247.27 126.19, 336.22 20.64 M143.99 241.77 C208.03 165.6, 274.85 86.27, 336.22 20.64 M165.25 241.7 C208.7 192.35, 249.09 139.33, 340.42 40.19 M165.25 241.7 C214.59 183.36, 265.61 123.58, 340.42 40.19 M186.51 241.63 C235.09 187.26, 275.59 138.21, 340.68 64.28 M186.51 241.63 C232.08 191.01, 274.47 137.68, 340.68 64.28 M207.77 241.56 C239.88 206.55, 265.53 169.48, 340.29 89.11 M207.77 241.56 C250.56 196.43, 290.39 147.69, 340.29 89.11 M229.03 241.49 C246.75 217, 272.31 185, 340.56 113.19 M229.03 241.49 C256.75 210.66, 284.81 178.64, 340.56 113.19 M250.29 241.42 C275.28 215.08, 299.19 186.85, 340.17 138.03 M250.29 241.42 C271.89 216.62, 297.72 189.54, 340.17 138.03 M271.55 241.36 C293.57 213.18, 321.26 181.55, 340.44 162.11 M271.55 241.36 C297.25 211.66, 324.99 180.11, 340.44 162.11 M292.81 241.29 C307.05 224.95, 324.01 212.27, 340.7 186.19 M292.81 241.29 C302.09 229.76, 312.09 219.72, 340.7 186.19" stroke="#ffc9c9" stroke-width="2" fill="none"></path><path d="M32 0 M32 0 C85.05 -2.02, 142.73 -5.27, 298.92 0 M32 0 C104.13 2.38, 174.53 2.04, 298.92 0 M298.92 0 C320.53 -2.43, 328.91 11.32, 330.92 32 M298.92 0 C321.16 -1.15, 333.09 14.69, 330.92 32 M330.92 32 C327.11 83.69, 325.09 128.81, 330.92 204.14 M330.92 32 C327.03 65.97, 326.47 99.83, 330.92 204.14 M330.92 204.14 C328.48 225.48, 318.18 239.49, 298.92 236.14 M330.92 204.14 C330.22 228.82, 315.91 233.91, 298.92 236.14 M298.92 236.14 C208.31 241.73, 123.71 242.57, 32 236.14 M298.92 236.14 C206.49 238.67, 114.13 240.1, 32 236.14 M32 236.14 C9.74 236.6, 2.19 227.86, 0 204.14 M32 236.14 C7.5 233.61, 0.28 230.01, 0 204.14 M0 204.14 C0.46 155.31, -1.43 101.27, 0 32 M0 204.14 C-1.43 163.77, 0.75 124.41, 0 32 M0 32 C-2.02 12.15, 8.38 3.57, 32 0 M0 32 C-2.31 10.52, 7.34 3.33, 32 0" stroke="#1e1e1e" stroke-width="4" fill="none"></path></g><g transform="translate(994.2598516469579 83.06813103890818) rotate(0 74.19599914550781 45)"><text x="74.19599914550781" y="0" font-family="Virgil, Segoe UI Emoji" font-size="36px" fill="#1e1e1e" text-anchor="middle" style="white-space: pre;" direction="ltr" dominant-baseline="text-before-edge">Redis</text><text x="74.19599914550781" y="45" font-family="Virgil, Segoe UI Emoji" font-size="36px" fill="#1e1e1e" text-anchor="middle" style="white-space: pre;" direction="ltr" dominant-baseline="text-before-edge">(Replica)</text></g><g stroke-linecap="round"><g transform="translate(498.07037267492325 128.0681310389083) rotate(0 202.71593303984665 2.6712213374902944)"><path d="M2.72 -1.44 C70.52 -0.56, 337.73 2.8, 404.67 3.21 M0.76 3.95 C68.42 5.49, 335.75 6.95, 402.75 6.77" stroke="#1e1e1e" stroke-width="4" fill="none"></path></g><g transform="translate(498.07037267492325 128.0681310389083) rotate(0 202.71593303984665 2.6712213374902944)"><path d="M372.48 17.8 C380.86 14.56, 384.04 10.87, 402.18 9.05 M375.37 18.76 C379.72 15.41, 386.51 14.1, 402.4 5.46" stroke="#1e1e1e" stroke-width="4" fill="none"></path></g><g transform="translate(498.07037267492325 128.0681310389083) rotate(0 202.71593303984665 2.6712213374902944)"><path d="M372.52 -2.72 C380.59 -1.35, 383.76 -0.43, 402.18 9.05 M375.41 -1.77 C379.63 -0.78, 386.41 2.23, 402.4 5.46" stroke="#1e1e1e" stroke-width="4" fill="none"></path></g></g><mask></mask><g stroke-linecap="round" transform="translate(10 557.1044381943774) rotate(0 165.4616765967798 118.06813103890818)"><path d="M7.86 8.16 C7.86 8.16, 7.86 8.16, 7.86 8.16 M7.86 8.16 C7.86 8.16, 7.86 8.16, 7.86 8.16 M8.78 31.49 C15.36 19.14, 28.69 10.66, 34.37 2.05 M8.78 31.49 C15.1 22.39, 21.59 16.73, 34.37 2.05 M8.39 56.32 C29.58 35.47, 41.69 19.37, 55.63 1.98 M8.39 56.32 C20.02 44.53, 30.33 33.12, 55.63 1.98 M8.66 80.4 C27.72 62.76, 41.89 44.95, 76.89 1.91 M8.66 80.4 C29.41 57.71, 52.68 31.7, 76.89 1.91 M8.27 105.24 C33.08 78.31, 60.67 51.61, 98.15 1.85 M8.27 105.24 C31.83 83.06, 54.82 56.9, 98.15 1.85 M8.54 129.32 C36.33 96.53, 68.76 67.79, 119.41 1.78 M8.54 129.32 C48.89 88.59, 83.18 45.97, 119.41 1.78 M8.15 154.16 C48.44 109.5, 84.88 69.72, 140.67 1.71 M8.15 154.16 C52.05 105.17, 96.45 54.73, 140.67 1.71 M8.41 178.24 C62.38 116.19, 116.97 53.28, 161.28 2.39 M8.41 178.24 C68.68 109.61, 124.47 42.95, 161.28 2.39 M4.09 207.61 C59.42 146.65, 110.2 86.85, 182.54 2.32 M4.09 207.61 C69.34 132.68, 135.12 55.89, 182.54 2.32 M10.26 224.89 C82.28 142.15, 155.41 56.17, 203.8 2.26 M10.26 224.89 C60.44 168.36, 111.72 107.39, 203.8 2.26 M19.71 238.41 C92.59 155.55, 167.05 75.58, 225.06 2.19 M19.71 238.41 C65.5 181.43, 115.34 126.36, 225.06 2.19 M38.35 241.36 C93.4 170.88, 149.05 106.31, 246.32 2.12 M38.35 241.36 C120.04 147.49, 201.5 55.58, 246.32 2.12 M59.61 241.29 C116.2 179.21, 172.2 117.46, 267.58 2.05 M59.61 241.29 C115.66 176.42, 175.64 109.15, 267.58 2.05 M80.87 241.22 C131.06 183.33, 177.28 126.7, 288.84 1.98 M80.87 241.22 C151.65 159.48, 219.91 81.18, 288.84 1.98 M102.13 241.15 C178 161.15, 250.93 72.69, 306.16 6.44 M102.13 241.15 C151.91 181.77, 201.89 125.31, 306.16 6.44 M122.73 241.84 C172.38 188.47, 216.21 138.54, 324.8 9.39 M122.73 241.84 C168.78 185.8, 218.95 131.7, 324.8 9.39 M143.99 241.77 C209.23 166.83, 271.3 95.01, 336.22 20.64 M143.99 241.77 C206.54 167.84, 269.25 93.44, 336.22 20.64 M165.25 241.7 C211.24 195.99, 250.1 149.31, 340.42 40.19 M165.25 241.7 C216.22 184.04, 265.64 127.17, 340.42 40.19 M186.51 241.63 C216.07 200.85, 252.41 163.98, 340.68 64.28 M186.51 241.63 C240.67 181.42, 289.92 122.83, 340.68 64.28 M207.77 241.56 C238.71 208.91, 263.72 180.56, 340.29 89.11 M207.77 241.56 C253.68 188.44, 302.04 135.75, 340.29 89.11 M229.03 241.49 C274.09 194.99, 309.86 144.45, 340.56 113.19 M229.03 241.49 C266.64 200.68, 301.22 157.76, 340.56 113.19 M250.29 241.42 C275.93 202.84, 309.02 173.68, 340.17 138.03 M250.29 241.42 C282.95 203.41, 317.36 166.34, 340.17 138.03 M271.55 241.36 C293.5 216.23, 313.9 190.08, 340.44 162.11 M271.55 241.36 C296.41 215.44, 320.19 186.89, 340.44 162.11 M292.81 241.29 C307.28 225.79, 322.32 203.24, 340.7 186.19 M292.81 241.29 C313.9 220.2, 329.22 196.91, 340.7 186.19" stroke="#ffc9c9" stroke-width="2" fill="none"></path><path d="M32 0 M32 0 C129.1 -0.7, 221.53 -5.72, 298.92 0 M32 0 C130.49 -0.89, 224.95 -1.06, 298.92 0 M298.92 0 C323.78 1.12, 331.84 7.54, 330.92 32 M298.92 0 C321.85 -2, 329.65 9.96, 330.92 32 M330.92 32 C336.6 67.96, 333.84 106.77, 330.92 204.14 M330.92 32 C331.77 93.48, 329.72 151.72, 330.92 204.14 M330.92 204.14 C334.73 225.97, 320.44 233.72, 298.92 236.14 M330.92 204.14 C327.39 221.76, 316.81 239.13, 298.92 236.14 M298.92 236.14 C241.64 233.39, 178.54 237.23, 32 236.14 M298.92 236.14 C196.63 237.99, 90.15 239.06, 32 236.14 M32 236.14 C12.83 237.74, 3.27 222.24, 0 204.14 M32 236.14 C10.54 232.09, 1.55 225.86, 0 204.14 M0 204.14 C2.95 154.41, -1.29 110.8, 0 32 M0 204.14 C-0.44 153.46, 0.47 105.48, 0 32 M0 32 C-2.39 11.33, 7.66 -1.19, 32 0 M0 32 C-0.02 6.99, 10.26 2.22, 32 0" stroke="#1e1e1e" stroke-width="4" fill="none"></path></g><g transform="translate(55.76167201914308 630.1725692332856) rotate(0 119.70000457763672 45)"><text x="119.70000457763672" y="0" font-family="Virgil, Segoe UI Emoji" font-size="36px" fill="#1e1e1e" text-anchor="middle" style="white-space: pre;" direction="ltr" dominant-baseline="text-before-edge">Redis-Sentinel</text><text x="119.70000457763672" y="45" font-family="Virgil, Segoe UI Emoji" font-size="36px" fill="#1e1e1e" text-anchor="middle" style="white-space: pre;" direction="ltr" dominant-baseline="text-before-edge">(node 1)</text></g><g stroke-linecap="round" transform="translate(533.8233982712123 557.1044381943776) rotate(0 165.4616765967798 118.06813103890818)"><path d="M7.86 8.16 C7.86 8.16, 7.86 8.16, 7.86 8.16 M7.86 8.16 C7.86 8.16, 7.86 8.16, 7.86 8.16 M8.78 31.49 C12.46 28.18, 22.9 20.65, 34.37 2.05 M8.78 31.49 C20.08 21.92, 26.82 10.37, 34.37 2.05 M8.39 56.32 C22.91 37.99, 41.92 21.41, 55.63 1.98 M8.39 56.32 C24.1 36.52, 41.69 13.65, 55.63 1.98 M8.66 80.4 C35.27 52.87, 58.19 28.93, 76.89 1.91 M8.66 80.4 C32.61 53.6, 55.99 24.99, 76.89 1.91 M8.27 105.24 C36.5 73.04, 73.96 36.35, 98.15 1.85 M8.27 105.24 C44.47 68.05, 73.47 30.91, 98.15 1.85 M8.54 129.32 C32.87 106.88, 52.6 82.97, 119.41 1.78 M8.54 129.32 C30.82 99.7, 54.88 73.6, 119.41 1.78 M8.15 154.16 C41.96 108.66, 77.87 70.19, 140.67 1.71 M8.15 154.16 C50.93 108.6, 92.49 57.35, 140.67 1.71 M8.41 178.24 C57.88 124.78, 108.63 66.95, 161.28 2.39 M8.41 178.24 C42.3 135.66, 76.5 99.3, 161.28 2.39 M4.09 207.61 C61.1 144.65, 116.11 78.79, 182.54 2.32 M4.09 207.61 C76.6 127.6, 146.31 44.65, 182.54 2.32 M10.26 224.89 C70.03 159.06, 122.05 95.24, 203.8 2.26 M10.26 224.89 C77.96 153.46, 139.67 79.71, 203.8 2.26 M19.71 238.41 C101.27 145.64, 184.98 49.86, 225.06 2.19 M19.71 238.41 C80.95 168.91, 137.9 102.45, 225.06 2.19 M38.35 241.36 C117.45 154.95, 192.65 62.89, 246.32 2.12 M38.35 241.36 C122.25 149.39, 206.25 54.27, 246.32 2.12 M59.61 241.29 C129.91 161.55, 199.16 79.16, 267.58 2.05 M59.61 241.29 C117.58 171, 176.59 102.79, 267.58 2.05 M80.87 241.22 C137.42 183.72, 184.73 121.02, 288.84 1.98 M80.87 241.22 C135.04 178.48, 192.95 114.91, 288.84 1.98 M102.13 241.15 C157.26 173.2, 214.74 112.59, 306.16 6.44 M102.13 241.15 C149.95 184.6, 198.15 128.52, 306.16 6.44 M122.73 241.84 C169.4 184.86, 212.67 134.67, 324.8 9.39 M122.73 241.84 C174.46 180.34, 227.98 121.42, 324.8 9.39 M143.99 241.77 C216.24 158.66, 291.47 65.96, 336.22 20.64 M143.99 241.77 C185.13 190.64, 228.91 142.55, 336.22 20.64 M165.25 241.7 C217.92 178.03, 273.32 114.19, 340.42 40.19 M165.25 241.7 C214.59 188.04, 262.59 134.01, 340.42 40.19 M186.51 241.63 C226.28 200.19, 262.45 155.5, 340.68 64.28 M186.51 241.63 C218.47 197.26, 254.39 155.15, 340.68 64.28 M207.77 241.56 C247.24 198.01, 286.53 148.16, 340.29 89.11 M207.77 241.56 C244.65 196.55, 281.59 156.18, 340.29 89.11 M229.03 241.49 C274.5 188.42, 317.55 142.55, 340.56 113.19 M229.03 241.49 C260.84 202.11, 297.26 165.37, 340.56 113.19 M250.29 241.42 C274.88 211.2, 303.26 178.91, 340.17 138.03 M250.29 241.42 C268.92 216.48, 291.65 193.6, 340.17 138.03 M271.55 241.36 C295.08 209.24, 320.86 183.6, 340.44 162.11 M271.55 241.36 C298.56 211.31, 326.24 176.23, 340.44 162.11 M292.81 241.29 C312.81 218.9, 329.51 204.89, 340.7 186.19 M292.81 241.29 C312.95 218.49, 328.38 196.56, 340.7 186.19" stroke="#ffc9c9" stroke-width="2" fill="none"></path><path d="M32 0 M32 0 C120.09 -4.07, 212.85 -3.51, 298.92 0 M32 0 C112 -1.43, 190.87 -1.94, 298.92 0 M298.92 0 C318.69 0.11, 327.51 14.39, 330.92 32 M298.92 0 C321.06 1.46, 326.66 12.9, 330.92 32 M330.92 32 C324.74 80.04, 326.16 132.56, 330.92 204.14 M330.92 32 C332.02 83.85, 331.9 137.07, 330.92 204.14 M330.92 204.14 C330.41 228.63, 317.26 236.49, 298.92 236.14 M330.92 204.14 C333.77 224.1, 316 234.18, 298.92 236.14 M298.92 236.14 C201.93 234.33, 107.79 232.51, 32 236.14 M298.92 236.14 C220.89 231.94, 143.74 234.81, 32 236.14 M32 236.14 C12.98 237.31, 3.7 228.62, 0 204.14 M32 236.14 C7.76 232.78, 0.35 227.69, 0 204.14 M0 204.14 C1.2 149.94, -1.82 99.86, 0 32 M0 204.14 C3.61 147.28, 2.74 91.55, 0 32 M0 32 C-1.63 7.71, 9.42 2.29, 32 0 M0 32 C1.81 6.53, 11.94 2.49, 32 0" stroke="#1e1e1e" stroke-width="4" fill="none"></path></g><g transform="translate(579.5850702903554 630.1725692332858) rotate(0 119.70000457763672 45)"><text x="119.70000457763672" y="0" font-family="Virgil, Segoe UI Emoji" font-size="36px" fill="#1e1e1e" text-anchor="middle" style="white-space: pre;" direction="ltr" dominant-baseline="text-before-edge">Redis-Sentinel</text><text x="119.70000457763672" y="45" font-family="Virgil, Segoe UI Emoji" font-size="36px" fill="#1e1e1e" text-anchor="middle" style="white-space: pre;" direction="ltr" dominant-baseline="text-before-edge">(node 2)</text></g><g stroke-linecap="round" transform="translate(1004.4329910037618 557.1044381943776) rotate(0 165.4616765967798 118.06813103890818)"><path d="M7.86 8.16 C7.86 8.16, 7.86 8.16, 7.86 8.16 M7.86 8.16 C7.86 8.16, 7.86 8.16, 7.86 8.16 M8.78 31.49 C15.81 24, 27.03 11.95, 34.37 2.05 M8.78 31.49 C17.18 20.83, 24.38 13.3, 34.37 2.05 M8.39 56.32 C20.85 33.68, 44.6 15.41, 55.63 1.98 M8.39 56.32 C16.58 44.88, 28.03 35.77, 55.63 1.98 M8.66 80.4 C23.22 63.73, 35.14 42.18, 76.89 1.91 M8.66 80.4 C24.53 64.61, 36.61 46.46, 76.89 1.91 M8.27 105.24 C29.22 78.14, 51.43 60.76, 98.15 1.85 M8.27 105.24 C38.33 71.37, 70.43 36.4, 98.15 1.85 M8.54 129.32 C52.76 83.47, 96.12 26.24, 119.41 1.78 M8.54 129.32 C37.66 91.47, 70.51 55.42, 119.41 1.78 M8.15 154.16 C42.78 109.5, 78.83 72.24, 140.67 1.71 M8.15 154.16 C38.78 120.51, 69.25 87.19, 140.67 1.71 M8.41 178.24 C36.55 140.1, 73.16 107.26, 161.28 2.39 M8.41 178.24 C40.05 137.54, 72.94 100.37, 161.28 2.39 M4.09 207.61 C70.13 132.24, 141.13 50.34, 182.54 2.32 M4.09 207.61 C54.28 149.36, 103.32 95.31, 182.54 2.32 M10.26 224.89 C58.27 165.56, 105.02 116.46, 203.8 2.26 M10.26 224.89 C71.27 151.28, 135.32 78.24, 203.8 2.26 M19.71 238.41 C77.64 173.34, 135.31 101.9, 225.06 2.19 M19.71 238.41 C77.99 175.21, 136.11 111.93, 225.06 2.19 M38.35 241.36 C84.12 190, 125.08 141.65, 246.32 2.12 M38.35 241.36 C113.25 155.11, 189.72 65.03, 246.32 2.12 M59.61 241.29 C136.48 152.27, 214.57 59.73, 267.58 2.05 M59.61 241.29 C114.67 184.07, 165.95 123.73, 267.58 2.05 M80.87 241.22 C132.51 182.18, 184.01 120.82, 288.84 1.98 M80.87 241.22 C154.43 150.56, 227.97 66.15, 288.84 1.98 M102.13 241.15 C151.54 193.26, 195.2 138.67, 306.16 6.44 M102.13 241.15 C175.57 155.4, 246.92 72.05, 306.16 6.44 M122.73 241.84 C167.95 185.75, 217.3 131.29, 324.8 9.39 M122.73 241.84 C190.09 164.22, 259.3 86.87, 324.8 9.39 M143.99 241.77 C198.59 189.18, 243.13 128.37, 336.22 20.64 M143.99 241.77 C190.1 191.62, 230.97 145.47, 336.22 20.64 M165.25 241.7 C209.58 190.85, 254.64 133.66, 340.42 40.19 M165.25 241.7 C201.59 197.43, 240.05 152.57, 340.42 40.19 M186.51 241.63 C235.07 184.79, 280.52 128.38, 340.68 64.28 M186.51 241.63 C244.76 174.55, 302.55 105.91, 340.68 64.28 M207.77 241.56 C258.99 185.11, 301.96 129.8, 340.29 89.11 M207.77 241.56 C250.42 193.38, 290.18 144.12, 340.29 89.11 M229.03 241.49 C259.63 202.05, 293.19 165.72, 340.56 113.19 M229.03 241.49 C260.46 208.9, 290.72 173.09, 340.56 113.19 M250.29 241.42 C285.38 200.92, 322.47 157.53, 340.17 138.03 M250.29 241.42 C271.82 217.11, 293.52 190.16, 340.17 138.03 M271.55 241.36 C291.89 218.34, 316.52 192.06, 340.44 162.11 M271.55 241.36 C299.46 209.61, 327.84 181.09, 340.44 162.11 M292.81 241.29 C309.74 218.7, 325.63 201.4, 340.7 186.19 M292.81 241.29 C303.23 232.17, 311.8 217.41, 340.7 186.19" stroke="#ffc9c9" stroke-width="2" fill="none"></path><path d="M32 0 M32 0 C105.55 1.54, 177.54 -0.67, 298.92 0 M32 0 C127.91 4.73, 225.81 3.58, 298.92 0 M298.92 0 C316.72 -1.22, 327.47 7.14, 330.92 32 M298.92 0 C319.95 0.73, 327.97 11.5, 330.92 32 M330.92 32 C336.41 68.52, 337.78 105.85, 330.92 204.14 M330.92 32 C329.38 72.88, 329.21 114.02, 330.92 204.14 M330.92 204.14 C333.5 223.83, 319.8 236.96, 298.92 236.14 M330.92 204.14 C332.11 222.66, 323.68 239.6, 298.92 236.14 M298.92 236.14 C228.15 232.84, 158.96 236.97, 32 236.14 M298.92 236.14 C209.19 236.95, 116.64 236.2, 32 236.14 M32 236.14 C10.18 237.4, -2.74 223.23, 0 204.14 M32 236.14 C13.28 234.03, 4.25 224.67, 0 204.14 M0 204.14 C-7.07 166.62, 0.49 119.12, 0 32 M0 204.14 C-1.48 149.66, -3 95.47, 0 32 M0 32 C3.71 11.7, 10.08 0.6, 32 0 M0 32 C-3.03 13.74, 6.66 4.38, 32 0" stroke="#1e1e1e" stroke-width="4" fill="none"></path></g><g transform="translate(1050.194663022905 630.1725692332858) rotate(0 119.70000457763672 45)"><text x="119.70000457763672" y="0" font-family="Virgil, Segoe UI Emoji" font-size="36px" fill="#1e1e1e" text-anchor="middle" style="white-space: pre;" direction="ltr" dominant-baseline="text-before-edge">Redis-Sentinel</text><text x="119.70000457763672" y="45" font-family="Virgil, Segoe UI Emoji" font-size="36px" fill="#1e1e1e" text-anchor="middle" style="white-space: pre;" direction="ltr" dominant-baseline="text-before-edge">(node 3)</text></g><g stroke-linecap="round"><g transform="translate(345.0806817512676 666.8579121178697) rotate(0 93.55990150716912 1.737135939955806)"><path d="M-2.13 2.6 C69.37 -0.68, 147.74 -2.36, 186.33 4.72 M1.04 -1.25 C73.07 1.52, 148.93 3.23, 189.25 3.08" stroke="#1e1e1e" stroke-width="4" fill="none"></path></g></g><mask></mask><g stroke-linecap="round"><g transform="translate(862.252354330147 673.5096378102024) rotate(0 71.68110130620391 1.3369758482338483)"><path d="M3.76 -0.35 C52.76 -0.83, 97.61 -0.13, 137.6 3.16 M0.75 1.31 C53.97 -0.01, 111.54 -1.6, 142.62 1.74" stroke="#1e1e1e" stroke-width="4" fill="none"></path></g></g><mask></mask><g stroke-linecap="round" transform="translate(543.8009868097116 1080.9278364655902) rotate(0 165.4616765967798 118.06813103890818)"><path d="M32 0 M32 0 C130.46 -3.48, 222.72 -5.25, 298.92 0 M32 0 C95.22 -1.51, 159.74 -1.45, 298.92 0 M298.92 0 C316.6 2.95, 330.75 11.48, 330.92 32 M298.92 0 C322.55 -3.57, 328.31 8.72, 330.92 32 M330.92 32 C332.04 96.69, 337.35 155.52, 330.92 204.14 M330.92 32 C335.07 96.98, 335.85 164.46, 330.92 204.14 M330.92 204.14 C333.74 221.93, 322.61 233.37, 298.92 236.14 M330.92 204.14 C330.56 223.38, 316.85 236.74, 298.92 236.14 M298.92 236.14 C235.84 230.46, 171.1 230.64, 32 236.14 M298.92 236.14 C240.38 240.71, 182.68 240.07, 32 236.14 M32 236.14 C8.79 238.37, -2.1 224.13, 0 204.14 M32 236.14 C13.58 239.7, -1.14 224.82, 0 204.14 M0 204.14 C-4.37 152.54, -2.4 108.99, 0 32 M0 204.14 C3.52 151.21, 2.82 97.6, 0 32 M0 32 C-3.08 12.33, 10.96 -2.72, 32 0 M0 32 C3.07 7.74, 7.39 1.63, 32 0" stroke="#1e1e1e" stroke-width="4" fill="none"></path></g><g transform="translate(660.5726685944796 1176.4959675044984) rotate(0 48.68999481201172 22.5)"><text x="48.68999481201172" y="0" font-family="Virgil, Segoe UI Emoji" font-size="36px" fill="#1e1e1e" text-anchor="middle" style="white-space: pre;" direction="ltr" dominant-baseline="text-before-edge">Client</text></g><g stroke-linecap="round"><g transform="translate(707.5997319834082 1074.2761107732572) rotate(0 2.86290018359 -137.05515236188478)"><path d="M2.73 3.03 C0.66 -91.63, 0.02 -185.9, 5.92 -277.14 M-0.2 -0.34 C4.16 -62.45, 5.22 -122.17, 3.77 -275.53" stroke="#1e1e1e" stroke-width="4" fill="none"></path></g><g transform="translate(707.5997319834082 1074.2761107732572) rotate(0 2.86290018359 -137.05515236188478)"><path d="M17.7 -243.49 C12.08 -256.98, 6.36 -270.01, 7.12 -279.08 M13.92 -247.84 C11.7 -255.54, 9.79 -260.02, 4.34 -277.01" stroke="#1e1e1e" stroke-width="4" fill="none"></path></g><g transform="translate(707.5997319834082 1074.2761107732572) rotate(0 2.86290018359 -137.05515236188478)"><path d="M-2.82 -243.38 C-1.6 -256.97, -0.48 -270.04, 7.12 -279.08 M-6.6 -247.73 C-4.25 -255.22, -1.59 -259.72, 4.34 -277.01" stroke="#1e1e1e" stroke-width="4" fill="none"></path></g></g><mask></mask><g stroke-linecap="round"><g transform="translate(714.251457675741 934.5898712342672) rotate(0 234.7910584364159 -69.60273987792405)"><path d="M-0.33 -1.38 C165.25 2.93, 327.45 0.83, 464.15 -2.29 M-0.4 0.39 C123.96 -3.42, 245.84 -2.89, 466.52 -3.77 M465.73 -6.92 C466.99 -50.92, 462.72 -98.23, 466.64 -140.27 M467 -1.74 C463.59 -47.7, 466.24 -92.54, 469.98 -137.17" stroke="#1e1e1e" stroke-width="4" fill="none"></path></g><g transform="translate(714.251457675741 934.5898712342672) rotate(0 234.7910584364159 -69.60273987792405)"><path d="M477.45 -111.33 C478.54 -115.33, 472.62 -127.52, 466.78 -134.9 M477.29 -107.46 C478.36 -117.03, 473.56 -121.59, 471.94 -138.15" stroke="#1e1e1e" stroke-width="4" fill="none"></path></g><g transform="translate(714.251457675741 934.5898712342672) rotate(0 234.7910584364159 -69.60273987792405)"><path d="M456.98 -112.83 C465.28 -116.05, 466.56 -127.71, 466.78 -134.9 M456.82 -108.96 C463.28 -118.32, 463.89 -122.48, 471.94 -138.15" stroke="#1e1e1e" stroke-width="4" fill="none"></path></g></g><mask></mask><g stroke-linecap="round"><g transform="translate(710.9255948295747 932.9269398111838) rotate(0 -279.4111936704144 -61.68099165252079)"><path d="M-1.3 -0.16 C-188.07 6.78, -380.22 10.19, -558.11 9.6 M-0.71 -0.57 C-214.3 4.62, -426.83 8.77, -557.84 10.53 M-557.41 8.9 C-555.33 -25.46, -553.47 -54.36, -548.87 -135.01 M-557.59 11.64 C-555.03 -39.09, -552.49 -88.25, -550.52 -133.57" stroke="#1e1e1e" stroke-width="4" fill="none"></path></g><g transform="translate(710.9255948295747 932.9269398111838) rotate(0 -279.4111936704144 -61.68099165252079)"><path d="M-544.8 -105.34 C-541.41 -112.98, -550.96 -122.69, -553.09 -134.5 M-543.35 -106.37 C-546.8 -114.82, -547.4 -124.99, -552.42 -132.19" stroke="#1e1e1e" stroke-width="4" fill="none"></path></g><g transform="translate(710.9255948295747 932.9269398111838) rotate(0 -279.4111936704144 -61.68099165252079)"><path d="M-565.3 -106.28 C-554.92 -113.85, -557.5 -123.24, -553.09 -134.5 M-563.85 -107.31 C-559.43 -115.43, -552.17 -125.24, -552.42 -132.19" stroke="#1e1e1e" stroke-width="4" fill="none"></path></g></g><mask></mask><g stroke-linecap="round"><g transform="translate(180.45047086602932 548.7897810789615) rotate(0 65.21257086855402 -148.26172771960614)"><path d="M-0.37 -1.73 C27.95 -58.75, 56.82 -123.47, 130.8 -294.8" stroke="#1e1e1e" stroke-width="4.5" fill="none" stroke-dasharray="8 12"></path></g><g transform="translate(180.45047086602932 548.7897810789615) rotate(0 65.21257086855402 -148.26172771960614)"><path d="M128.45 -267.32 C127.21 -267.76, 129.62 -278.09, 132.35 -297.83" stroke="#1e1e1e" stroke-width="4.5" fill="none"></path></g><g transform="translate(180.45047086602932 548.7897810789615) rotate(0 65.21257086855402 -148.26172771960614)"><path d="M109.63 -275.49 C112.27 -274.04, 118.67 -282.65, 132.35 -297.83" stroke="#1e1e1e" stroke-width="4.5" fill="none"></path></g></g><mask></mask><g stroke-linecap="round"><g transform="translate(182.11340228911257 552.115643925128) rotate(0 441.45347889075055 -149.95595597796293)"><path d="M1.38 -0.83 C226.15 -71.96, 452 -149.89, 881.52 -299.08" stroke="#1e1e1e" stroke-width="4.5" fill="none" stroke-dasharray="8 12"></path></g><g transform="translate(182.11340228911257 552.115643925128) rotate(0 441.45347889075055 -149.95595597796293)"><path d="M861.7 -282.23 C863.42 -282.68, 867.12 -291.24, 877.79 -302.63" stroke="#1e1e1e" stroke-width="4.5" fill="none"></path></g><g transform="translate(182.11340228911257 552.115643925128) rotate(0 441.45347889075055 -149.95595597796293)"><path d="M854.98 -301.62 C858.48 -297.02, 863.9 -300.6, 877.79 -302.63" stroke="#1e1e1e" stroke-width="4.5" fill="none"></path></g></g><mask></mask><g stroke-linecap="round"><g transform="translate(707.5997319834082 553.7785753482111) rotate(0 -196.9680547043708 -146.3772897029367)"><path d="M-0.92 0.83 C-102.01 -80.7, -205.73 -158.52, -393.02 -293.59" stroke="#1e1e1e" stroke-width="4.5" fill="none" stroke-dasharray="8 12"></path></g><g transform="translate(707.5997319834082 553.7785753482111) rotate(0 -196.9680547043708 -146.3772897029367)"><path d="M-366.39 -283.3 C-372.69 -290.17, -380.55 -292.59, -394.39 -291.78" stroke="#1e1e1e" stroke-width="4.5" fill="none"></path></g><g transform="translate(707.5997319834082 553.7785753482111) rotate(0 -196.9680547043708 -146.3772897029367)"><path d="M-378.46 -266.71 C-381.29 -277.8, -385.97 -284.61, -394.39 -291.78" stroke="#1e1e1e" stroke-width="4.5" fill="none"></path></g></g><mask></mask><g stroke-linecap="round"><g transform="translate(705.9368005603251 550.4527125020446) rotate(0 177.4403179264799 -147.5859865262052)"><path d="M-0.81 -1.73 C79.05 -67.61, 160.37 -130.87, 355.69 -293.44" stroke="#1e1e1e" stroke-width="4.5" fill="none" stroke-dasharray="8 12"></path></g><g transform="translate(705.9368005603251 550.4527125020446) rotate(0 177.4403179264799 -147.5859865262052)"><path d="M338.74 -271.32 C340.55 -273.74, 349.79 -277.09, 351.71 -295.09" stroke="#1e1e1e" stroke-width="4.5" fill="none"></path></g><g transform="translate(705.9368005603251 550.4527125020446) rotate(0 177.4403179264799 -147.5859865262052)"><path d="M325.67 -287.14 C330.11 -286.34, 342.21 -286.21, 351.71 -295.09" stroke="#1e1e1e" stroke-width="4.5" fill="none"></path></g></g><mask></mask><g stroke-linecap="round"><g transform="translate(1171.557599023625 558.7673696174608) rotate(0 -424.32047429794176 -147.60837435725455)"><path d="M1.17 0.72 C-202 -71.2, -403.12 -140.51, -849.81 -295.93" stroke="#1e1e1e" stroke-width="4.5" fill="none" stroke-dasharray="8 12"></path></g><g transform="translate(1171.557599023625 558.7673696174608) rotate(0 -424.32047429794176 -147.60837435725455)"><path d="M-816.89 -294.58 C-829.9 -297.84, -835.88 -296.45, -849.93 -299.92" stroke="#1e1e1e" stroke-width="4.5" fill="none"></path></g><g transform="translate(1171.557599023625 558.7673696174608) rotate(0 -424.32047429794176 -147.60837435725455)"><path d="M-823.63 -275.19 C-834.91 -283.04, -839.29 -286.25, -849.93 -299.92" stroke="#1e1e1e" stroke-width="4.5" fill="none"></path></g></g><mask></mask><g stroke-linecap="round"><g transform="translate(1161.5800104851257 555.4415067712943) rotate(0 -45.67495531603953 -150.87367122175613)"><path d="M0.78 -0.6 C-39.31 -120.01, -74.33 -238.25, -92.13 -301.15" stroke="#1e1e1e" stroke-width="4.5" fill="none" stroke-dasharray="8 12"></path></g><g transform="translate(1161.5800104851257 555.4415067712943) rotate(0 -45.67495531603953 -150.87367122175613)"><path d="M-73.32 -277.78 C-84.86 -288.66, -91.52 -298.39, -95.42 -301.38" stroke="#1e1e1e" stroke-width="4.5" fill="none"></path></g><g transform="translate(1161.5800104851257 555.4415067712943) rotate(0 -45.67495531603953 -150.87367122175613)"><path d="M-93.03 -272.06 C-96.88 -285.05, -95.81 -297.02, -95.42 -301.38" stroke="#1e1e1e" stroke-width="4.5" fill="none"></path></g></g><mask></mask><g transform="translate(661.4933497860109 69.86553123099588) rotate(0 31.139999389648438 22.5)"><text x="31.139999389648438" y="0" font-family="Virgil, Segoe UI Emoji" font-size="36px" fill="#1e1e1e" text-anchor="middle" style="white-space: pre;" direction="ltr" dominant-baseline="text-before-edge">복제</text></g><g transform="translate(618.7128304347798 306.00179330881224) rotate(0 62.279998779296875 22.5)"><text x="62.279998779296875" y="0" font-family="Virgil, Segoe UI Emoji" font-size="36px" fill="#1e1e1e" text-anchor="middle" style="white-space: pre;" direction="ltr" dominant-baseline="text-before-edge">모니터링</text></g></svg>