<svg version="1.1" xmlns="http://www.w3.org/2000/svg" viewBox="0 0 1888.2076635090784 1332.2072740503709" width="3776.415327018157" height="2664.4145481007417">
  <!-- svg-source:excalidraw -->
  
  <defs>
    <style class="style-fonts">
      @font-face {
        font-family: "Virgil";
        src: url("https://excalidraw.com/Virgil.woff2");
      }
      @font-face {
        font-family: "Cascadia";
        src: url("https://excalidraw.com/Cascadia.woff2");
      }
      @font-face {
        font-family: "Assistant";
        src: url("https://excalidraw.com/Assistant-Regular.woff2");
      }
    </style>
    
  </defs>
  <rect x="0" y="0" width="1888.2076635090784" height="1332.2072740503709" fill="#ffffff"></rect><g stroke-linecap="round" transform="translate(378.6103763083088 398.4293612014593) rotate(0 160.76923076923077 66.15384615384613)"><path d="M160.5 0.55 L320.26 65.98 L162.79 131.33 L1.7 65.76" stroke="none" stroke-width="0" fill="#c6302b" fill-rule="evenodd"></path><path d="M161 0 C221.96 24.08, 281.97 50.77, 321.54 67 M161 0 C196.56 14.69, 231.76 28.91, 321.54 67 M321.54 67 C258.62 95.13, 193.57 119.68, 161 132.31 M321.54 67 C269.38 87.09, 217.14 109.29, 161 132.31 M161 132.31 C109.18 109.85, 57.11 91.18, 0 67 M161 132.31 C97.52 106.39, 33.65 79.55, 0 67 M0 67 C34.19 52.29, 71.56 36.82, 161 0 M0 67 C39.87 50.25, 82.76 31.73, 161 0" stroke="#000000" stroke-width="1" fill="none"></path></g><g stroke-linecap="round"><g transform="translate(376.61037630830833 463.8524381245362) rotate(0 160.13461538461542 44.30769230769232)" fill-rule="evenodd"><path d="M1.27 1.05 C1.23 2.83, 0.26 6.43, 0.85 9.89 C1.44 13.36, -6.28 15.56, 4.81 21.84 C15.9 28.11, 45.63 37.93, 67.41 47.55 C89.19 57.17, 119.78 72.88, 135.51 79.55 C151.23 86.22, 152.83 87.34, 161.75 87.55 C170.67 87.76, 173.69 86.49, 189.02 80.81 C204.36 75.12, 232.82 63.22, 253.78 53.44 C274.73 43.66, 303.79 28.88, 314.77 22.14 C325.75 15.39, 319.41 16.76, 319.66 12.98 C319.9 9.2, 320.56 -0.35, 316.24 -0.56 C311.92 -0.77, 316.46 1.94, 293.73 11.73 C271 21.51, 204.35 50.56, 179.85 58.13 C155.35 65.7, 176.6 67.15, 146.74 57.15 C116.88 47.15, 25.15 7.55, 0.69 -1.87" stroke="none" stroke-width="0" fill="#912626" fill-rule="evenodd"></path><path d="M0 -1.02 C-0.08 0.75, -0.34 6.45, 0.67 10.35 C1.68 14.25, -5.34 15.74, 6.06 22.39 C17.45 29.05, 47.29 40.7, 69.03 50.27 C90.77 59.85, 120.68 73.61, 136.5 79.86 C152.32 86.11, 155.33 87.65, 163.94 87.79 C172.56 87.93, 172.71 86.88, 188.19 80.71 C203.67 74.53, 235.98 60.18, 256.84 50.75 C277.69 41.33, 302.95 30.63, 313.33 24.14 C323.7 17.66, 318.22 15.86, 319.09 11.85 C319.96 7.84, 323.04 -0.19, 318.54 0.09 C314.05 0.36, 315.57 3.51, 292.14 13.5 C268.71 23.5, 202.45 52.6, 177.97 60.04 C153.5 67.48, 175.08 68.32, 145.29 58.16 C115.5 47.99, 23.38 8.54, -0.76 -0.96 M-1.47 1.05 C-1.73 2.97, -0.99 8.18, 0.08 11.38 C1.15 14.58, -6.64 14.15, 4.96 20.26 C16.55 26.36, 47.92 38.02, 69.65 48.01 C91.37 58, 119.88 73.22, 135.31 80.22 C150.75 87.21, 153.87 90.1, 162.27 89.97 C170.66 89.85, 170.03 85.55, 185.69 79.47 C201.35 73.39, 235.2 62.9, 256.21 53.48 C277.22 44.05, 301.23 29.97, 311.74 22.91 C322.24 15.86, 317.98 14.85, 319.24 11.16 C320.49 7.47, 323.95 0.38, 319.25 0.76 C314.55 1.13, 314.53 3.61, 291.04 13.38 C267.55 23.16, 202.75 52.01, 178.31 59.41 C153.87 66.81, 174.25 67.42, 144.39 57.79 C114.53 48.16, 22.95 11.37, -0.82 1.63" stroke="#000000" stroke-width="1" fill="none"></path></g></g><mask></mask><g stroke-linecap="round"><g transform="translate(376.11037630830833 414.3524381245362) rotate(0 160.13461538461542 44.30769230769232)" fill-rule="evenodd"><path d="M0.85 -1.42 C0.32 0.27, -2.7 7.6, -1.88 11.15 C-1.06 14.69, -5.85 13.47, 5.78 19.84 C17.4 26.2, 46.36 39.5, 67.87 49.34 C89.39 59.17, 118.74 72.26, 134.87 78.86 C151 85.46, 156.32 88.39, 164.66 88.92 C173 89.45, 169.41 88.51, 184.91 82.05 C200.41 75.6, 236.39 59.77, 257.67 50.18 C278.94 40.59, 302.39 31.04, 312.56 24.52 C322.73 18, 317.46 15.23, 318.7 11.06 C319.94 6.89, 324.18 -0.56, 320 -0.5 C315.82 -0.45, 317.14 1.6, 293.62 11.4 C270.1 21.2, 203.4 50.76, 178.86 58.3 C154.31 65.84, 176.15 66.24, 146.35 56.63 C116.55 47.02, 24.03 10.13, 0.04 0.65" stroke="none" stroke-width="0" fill="#912626" fill-rule="evenodd"></path><path d="M0.67 -0.96 C0.57 1.16, -1.76 7.78, -0.64 11.7 C0.48 15.62, -4.19 16.24, 7.4 22.56 C18.98 28.89, 47.26 40.23, 68.87 49.65 C90.48 59.07, 121.23 72.57, 137.06 79.09 C152.88 85.62, 155.34 88.78, 163.83 88.82 C172.31 88.87, 172.57 85.48, 187.97 79.37 C203.37 73.26, 235.56 61.51, 256.23 52.18 C276.9 42.85, 301.2 30.14, 311.99 23.39 C322.79 16.64, 319.94 15.39, 321.01 11.7 C322.07 8.02, 323.28 1.01, 318.41 1.27 C313.53 1.54, 315.24 3.63, 291.74 13.31 C268.24 22.98, 201.88 51.94, 177.4 59.31 C152.93 66.68, 174.39 67.23, 144.9 57.54 C115.41 47.84, 24.52 10.8, 0.46 1.15 M-0.43 1.15 C-0.14 2.99, 0.5 6.56, 1.74 9.78 C2.98 13.01, -4.27 13.69, 7 20.51 C18.28 27.34, 47.87 40.96, 69.4 50.72 C90.92 60.47, 120.71 72.86, 136.16 79.05 C151.61 85.25, 153.28 87.55, 162.09 87.89 C170.9 88.23, 173.48 87.07, 189.01 81.09 C204.55 75.11, 234.56 61.27, 255.29 52 C276.01 42.72, 302.83 32.27, 313.36 25.43 C323.9 18.58, 317.55 15.35, 318.5 10.93 C319.45 6.51, 323.72 -1.46, 319.04 -1.1 C314.36 -0.74, 314.04 3.18, 290.44 13.08 C266.84 22.99, 201.27 51.02, 177.44 58.31 C153.61 65.6, 176.86 66.36, 147.46 56.84 C118.06 47.32, 25.9 10.55, 1.03 1.19" stroke="#000000" stroke-width="1" fill="none"></path></g></g><mask></mask><g stroke-linecap="round" transform="translate(376.6103763083088 347.4293612014593) rotate(0 160.76923076923077 66.15384615384613)"><path d="M162.7 -1.24 L322.43 65.89 L161.57 130.78 L0.03 67.53" stroke="none" stroke-width="0" fill="#c6302b" fill-rule="evenodd"></path><path d="M161 0 C218.3 25.89, 275.77 49.48, 321.54 67 M161 0 C209.73 21.02, 256.85 39.65, 321.54 67 M321.54 67 C270.71 87.08, 220.24 107.29, 161 132.31 M321.54 67 C265.42 89.98, 209.16 112.21, 161 132.31 M161 132.31 C105.29 111.99, 52.31 89.56, 0 67 M161 132.31 C122.14 115.5, 83.34 100.42, 0 67 M0 67 C41.66 46.82, 83.79 32.89, 161 0 M0 67 C36.59 50.62, 75.19 35.22, 161 0" stroke="#000000" stroke-width="1" fill="none"></path></g><g stroke-linecap="round" transform="translate(374.5668540411027 294.8564867075323) rotate(0 160.76923076923066 66.15384615384613)"><path d="M161.89 -1.11 L322.11 65.47 L161.03 132.84 L1.97 66.82" stroke="none" stroke-width="0" fill="#c6302b" fill-rule="evenodd"></path><path d="M161 0 C201.81 16.5, 240.42 33.98, 321.54 67 M161 0 C199.26 14.26, 235.83 30.92, 321.54 67 M321.54 67 C287.92 82.15, 257.53 94.66, 161 132.31 M321.54 67 C267.41 87.42, 215.13 110.86, 161 132.31 M161 132.31 C106.4 111.26, 48.71 86.44, 0 67 M161 132.31 C113.82 111.57, 66.33 92.13, 0 67 M0 67 C61.4 44.75, 118.95 17.89, 161 0 M0 67 C54.05 45.39, 106.73 23.32, 161 0" stroke="#000000" stroke-width="1" fill="none"></path></g><g stroke-linecap="round"><g transform="translate(374.06685404110226 361.77956363060923) rotate(0 160.13461538461542 44.30769230769232)" fill-rule="evenodd"><path d="M-0.46 -0.37 C-0.48 1.69, -2.59 6.46, -1.09 10.24 C0.4 14.02, -2.68 15.47, 8.5 22.31 C19.69 29.14, 44.52 41.95, 66.03 51.27 C87.54 60.58, 121.52 71.88, 137.55 78.21 C153.59 84.55, 154.22 89.12, 162.23 89.29 C170.25 89.46, 169.64 85.68, 185.64 79.25 C201.65 72.82, 236.67 60.18, 258.27 50.69 C279.87 41.2, 304.74 28.95, 315.26 22.32 C325.77 15.7, 320.82 14.87, 321.36 10.95 C321.9 7.04, 323.47 -1.62, 318.5 -1.18 C313.54 -0.74, 314.63 3.47, 291.58 13.57 C268.52 23.68, 204.55 51.85, 180.19 59.43 C155.82 67.01, 175.66 69.04, 145.41 59.06 C115.16 49.08, 22.9 9.14, -1.32 -0.43" stroke="none" stroke-width="0" fill="#912626" fill-rule="evenodd"></path><path d="M0.54 -0.06 C0.6 1.59, -0.09 6.77, 1.1 10.48 C2.28 14.19, -3.66 15.86, 7.67 22.21 C19 28.56, 47.68 38.91, 69.09 48.58 C90.49 58.25, 120.69 73.62, 136.12 80.22 C151.55 86.82, 153.03 88.21, 161.67 88.16 C170.3 88.1, 172.11 85.84, 187.95 79.9 C203.78 73.95, 235.77 61.74, 256.68 52.47 C277.58 43.19, 302.84 30.98, 313.38 24.23 C323.91 17.48, 319.29 16.05, 319.9 11.97 C320.51 7.88, 321.7 -0.62, 317.05 -0.27 C312.4 0.08, 315.12 4.15, 292 14.07 C268.88 24, 202.61 51.79, 178.32 59.28 C154.03 66.77, 175.93 69.01, 146.28 59.02 C116.63 49.02, 24.95 9.15, 0.42 -0.69 M-0.64 -1.14 C-0.7 0.59, -0.62 7.45, 0.72 11.58 C2.07 15.71, -4.08 17.38, 7.42 23.63 C18.92 29.88, 48.52 39.57, 69.73 49.09 C90.95 58.61, 119.27 74.47, 134.73 80.77 C150.18 87.06, 153.42 86.69, 162.46 86.88 C171.5 87.07, 173.39 87.63, 188.98 81.89 C204.56 76.15, 235.49 62.24, 255.97 52.43 C276.44 42.62, 301.06 29.9, 311.81 23.05 C322.56 16.2, 319.62 15.14, 320.48 11.33 C321.34 7.53, 321.92 -0.28, 316.98 0.21 C312.03 0.69, 313.85 4.57, 290.83 14.25 C267.8 23.92, 202.99 50.78, 178.84 58.25 C154.68 65.73, 175.55 69.07, 145.9 59.09 C116.25 49.12, 25.34 8.04, 0.96 -1.62" stroke="#000000" stroke-width="1" fill="none"></path></g></g><mask></mask><g stroke-linecap="round" transform="translate(432.10638726329785 345.05462912239284) rotate(0 34.70588235294122 15.29411764705884)"><path d="M32.78 0.08 C39.88 -0.12, 50.36 1.66, 56.31 3.48 C62.27 5.3, 67.13 7.94, 68.52 11 C69.9 14.07, 67.84 18.89, 64.62 21.85 C61.39 24.82, 55.9 27.59, 49.17 28.78 C42.44 29.98, 31.53 29.9, 24.25 29.02 C16.97 28.13, 9.58 26.06, 5.49 23.47 C1.4 20.89, -1.15 16.89, -0.28 13.52 C0.59 10.16, 4.17 5.51, 10.69 3.28 C17.21 1.04, 33.28 0.38, 38.86 0.11 C44.45 -0.16, 44.16 1.53, 44.2 1.65 M35.06 -1.48 C42.48 -1.75, 52.13 1.42, 57.73 3.61 C63.33 5.81, 67.34 8.49, 68.65 11.67 C69.96 14.86, 69.35 19.96, 65.57 22.72 C61.78 25.47, 52.94 27.06, 45.93 28.21 C38.93 29.35, 30.43 30.2, 23.55 29.59 C16.67 28.98, 8.55 27.09, 4.64 24.55 C0.73 22, -0.88 17.58, 0.1 14.32 C1.08 11.07, 4.93 7.3, 10.52 5.02 C16.1 2.73, 29.79 1.34, 33.59 0.61 C37.39 -0.12, 33.27 0.35, 33.3 0.62" stroke="none" stroke-width="0" fill="#ffff"></path><path d="M47.54 1.39 C54.21 2.17, 62.56 4.45, 65.98 7.46 C69.41 10.47, 69.94 16.01, 68.09 19.45 C66.24 22.88, 60.72 26.19, 54.9 28.07 C49.07 29.95, 40.42 31.06, 33.14 30.73 C25.85 30.4, 16.72 28.49, 11.18 26.1 C5.65 23.72, 0.99 19.56, -0.05 16.42 C-1.1 13.28, 0.63 9.81, 4.93 7.26 C9.23 4.7, 18.11 1.92, 25.74 1.1 C33.38 0.27, 46.1 2, 50.74 2.32 C55.37 2.65, 53.88 3.03, 53.56 3.04 M33.28 -0.22 C40.31 -0.41, 49.37 0.52, 55.45 2.61 C61.54 4.7, 68.37 8.85, 69.78 12.33 C71.19 15.8, 67.44 20.77, 63.91 23.45 C60.39 26.14, 55.35 27.31, 48.62 28.44 C41.9 29.57, 30.94 31.21, 23.55 30.24 C16.16 29.27, 7.92 25.58, 4.28 22.61 C0.64 19.64, 0.27 15.68, 1.69 12.4 C3.11 9.13, 7.38 5.18, 12.81 2.98 C18.23 0.77, 30.69 -0.19, 34.22 -0.82 C37.76 -1.46, 34.09 -1.29, 34.01 -0.83" stroke="#000000" stroke-width="1" fill="none"></path></g><g stroke-linecap="round"><g transform="translate(496.282857851533 391.43173051984104) rotate(0 30.005590196596756 0.7700485078398742)" fill-rule="evenodd"><path d="M1.97 -0.18 L44.36 15.34 L58.94 -13.7 L0.11 1.34" stroke="none" stroke-width="0" fill="#ffff" fill-rule="evenodd"></path><path d="M0 0 C17.68 6.73, 32.88 11.54, 44.56 14.89 M0 0 C14.94 4.5, 29.29 10.32, 44.56 14.89 M44.56 14.89 C48.8 4.72, 52.66 -2.2, 60.01 -13.35 M44.56 14.89 C51.06 4.19, 57 -7.98, 60.01 -13.35 M60.01 -13.35 C44.85 -10.97, 32.92 -8.51, 0 0 M60.01 -13.35 C43.78 -9.21, 29.97 -7.12, 0 0 M0 0 C0 0, 0 0, 0 0 M0 0 C0 0, 0 0, 0 0" stroke="#000000" stroke-width="1" fill="none"></path></g></g><mask></mask><g stroke-linecap="round"><g transform="translate(518.2828578515332 315.05462912239284) rotate(0 18.30882352941171 16.794117647058897)" fill-rule="evenodd"><path d="M-0.12 -0.44 L3.75 10.99 L-10 21.13 L7.18 22.52 L21.85 36.16 L21.25 19.78 L46.63 16.19 L27.36 9.71 L33.06 -2.2 L14.84 6.54 L-0.96 1.21" stroke="none" stroke-width="0" fill="#ffff" fill-rule="evenodd"></path><path d="M0 0 C0.87 4.8, 4.57 7.96, 5.53 12.21 M0 0 C1.86 3.55, 3.09 6.64, 5.53 12.21 M5.53 12.21 C-0.37 15.39, -1.43 18.1, -10.68 21.74 M5.53 12.21 C1.55 14.29, -3.85 17.33, -10.68 21.74 M-10.68 21.74 C-5.81 21.38, -1.19 24.23, 9.06 23.62 M-10.68 21.74 C-3.88 21.51, 1.39 23.06, 9.06 23.62 M9.06 23.62 C10.77 28.01, 13.15 30.37, 20.12 36.53 M9.06 23.62 C11.82 27.09, 15.35 29.94, 20.12 36.53 M20.12 36.53 C20.65 32.23, 22.79 28.34, 23 21.35 M20.12 36.53 C20.79 32.78, 21.51 27.32, 23 21.35 M23 21.35 C27.03 20.88, 32.46 18.28, 47.29 17.85 M23 21.35 C30.4 20.99, 35.72 19.55, 47.29 17.85 M47.29 17.85 C40.54 18, 37.99 14.85, 26.53 11.44 M47.29 17.85 C41.3 15.32, 36.99 14.53, 26.53 11.44 M26.53 11.44 C29.73 5.86, 31.35 2.75, 32.94 -2.94 M26.53 11.44 C28.54 6.91, 30.77 2.36, 32.94 -2.94 M32.94 -2.94 C27.55 1.73, 18.3 2.79, 15.44 5.06 M32.94 -2.94 C28.41 -0.8, 24.68 0.96, 15.44 5.06 M15.44 5.06 C11.62 3.97, 8.25 4.22, 0 0 M15.44 5.06 C10.93 4.04, 7.03 2.83, 0 0 M0 0 C0 0, 0 0, 0 0 M0 0 C0 0, 0 0, 0 0" stroke="#000000" stroke-width="1" fill="none"></path></g></g><mask></mask><g stroke-linecap="round"><g transform="translate(609.3824053628452 343.8012354572345) rotate(0 -5.684341886080802e-14 15)" fill-rule="evenodd"><path d="M1.18 -1.97 L39 15.24 L-1.68 29.02 L-36.77 14.97 L-1.52 -1.84 L0.29 -0.21" stroke="none" stroke-width="0" fill="#912626" fill-rule="evenodd"></path><path d="M0 0 C13.98 3.43, 26.35 12.08, 37.5 15 M0 0 C9.61 3.88, 18.49 7.02, 37.5 15 M37.5 15 C30.05 19.62, 18.26 23.3, -1.5 30 M37.5 15 C23.41 19.85, 10.43 24.18, -1.5 30 M-1.5 30 C-12.48 27.1, -21.49 19.52, -37.5 15 M-1.5 30 C-14.93 24.57, -28.41 18.33, -37.5 15 M-37.5 15 C-24.06 9.73, -9.32 3.56, 0 0 M-37.5 15 C-28.13 11.46, -20.84 8.42, 0 0 M0 0 C0 0, 0 0, 0 0 M0 0 C0 0, 0 0, 0 0 M0 0 C0 0, 0 0, 0 0 M0 0 C0 0, 0 0, 0 0" stroke="#000000" stroke-width="1" fill="none"></path></g></g><mask></mask><g stroke-linecap="round"><g transform="translate(605.5257326667763 342.89577516245527) rotate(0 0.38461538461547207 15)"><path d="M0 0 C-0.1 10, 0.01 19.28, 0.77 30 M0 0 C0.14 10.31, 0.25 20.5, 0.77 30" stroke="#000000" stroke-width="1" fill="none"></path></g></g><mask></mask><g transform="translate(476.7841917592842 229.8447638881887) rotate(0 63.323997497558594 22.5)"><text x="0" y="0" font-family="Virgil, Segoe UI Emoji" font-size="36px" fill="#1e1e1e" text-anchor="start" style="white-space: pre;" direction="ltr" dominant-baseline="text-before-edge">Master</text></g><g stroke-linecap="round" transform="translate(15.972821693471587 978.7223987287862) rotate(0 160.76923076923072 66.15384615384613)"><path d="M161.67 0.2 L322.92 65.6 L159.45 134.1 L-0.48 67.23" stroke="none" stroke-width="0" fill="#c6302b" fill-rule="evenodd"></path><path d="M161 0 C197.17 14.45, 232.02 31.75, 321.54 67 M161 0 C205.44 19.28, 247.8 37.66, 321.54 67 M321.54 67 C263.73 91.28, 202.96 115.58, 161 132.31 M321.54 67 C260.57 92.77, 199.68 117.81, 161 132.31 M161 132.31 C96.74 108.14, 35.02 79.46, 0 67 M161 132.31 C101.73 109.49, 39.92 85.4, 0 67 M0 67 C39.79 53.66, 78.88 35.27, 161 0 M0 67 C62.73 42.03, 124.53 16.73, 161 0" stroke="#000000" stroke-width="1" fill="none"></path></g><g stroke-linecap="round"><g transform="translate(13.972821693471133 1044.145475651863) rotate(0 160.13461538461542 44.30769230769229)" fill-rule="evenodd"><path d="M1.66 1.23 C1.4 3.17, -2.96 10.08, -2.35 13.32 C-1.74 16.57, -6.22 14.57, 5.3 20.69 C16.81 26.82, 44.57 40.15, 66.73 50.08 C88.89 60, 122.31 73.46, 138.28 80.24 C154.26 87.01, 154.76 90.82, 162.59 90.72 C170.42 90.62, 169.65 85.98, 185.26 79.65 C200.87 73.31, 235.03 61.63, 256.25 52.68 C277.46 43.74, 301.73 32.67, 312.54 25.98 C323.34 19.29, 319.92 17.05, 321.08 12.55 C322.24 8.05, 324.74 -1.45, 319.5 -1.02 C314.26 -0.6, 313.37 4.96, 289.65 15.12 C265.93 25.28, 201.03 52.86, 177.19 59.93 C153.34 67.01, 176.41 67.88, 146.56 57.56 C116.72 47.23, 22.77 7.44, -1.88 -2.03" stroke="none" stroke-width="0" fill="#912626" fill-rule="evenodd"></path><path d="M-1.04 0.07 C-0.8 1.81, -0.99 7.39, 0.44 10.95 C1.88 14.51, -3.85 14.88, 7.58 21.42 C19.02 27.97, 47.73 40.33, 69.05 50.22 C90.38 60.11, 119.76 74.44, 135.52 80.78 C151.28 87.12, 154.91 88.22, 163.62 88.27 C172.34 88.32, 172.42 87.25, 187.8 81.06 C203.18 74.86, 234.97 60.49, 255.89 51.11 C276.8 41.73, 302.71 31.08, 313.27 24.78 C323.82 18.47, 318.4 17.32, 319.2 13.27 C320.01 9.22, 322.71 0.5, 318.09 0.48 C313.47 0.46, 314.7 3.11, 291.49 13.17 C268.28 23.22, 203.23 53.36, 178.82 60.79 C154.4 68.22, 174.62 67.92, 145.01 57.72 C115.41 47.53, 25.5 9.07, 1.19 -0.4 M0.62 -0.94 C0.83 0.93, -1.38 8.4, -0.27 12.3 C0.84 16.19, -4.38 16.5, 7.28 22.44 C18.94 28.38, 47.98 38.07, 69.68 47.93 C91.38 57.8, 122.12 75.1, 137.47 81.62 C152.82 88.14, 153.24 87.32, 161.78 87.05 C170.33 86.78, 173.25 86.12, 188.75 80 C204.25 73.89, 234.28 59.71, 254.76 50.36 C275.24 41, 300.87 30.05, 311.64 23.88 C322.42 17.71, 318.26 17.08, 319.41 13.32 C320.56 9.57, 323.45 1.43, 318.55 1.35 C313.66 1.28, 313.21 3, 290.05 12.87 C266.89 22.74, 203.94 53.19, 179.6 60.56 C155.25 67.94, 174.16 67.41, 143.97 57.13 C113.79 46.84, 22.52 8.53, -1.52 -1.17" stroke="#000000" stroke-width="1" fill="none"></path></g></g><mask></mask><g stroke-linecap="round"><g transform="translate(13.472821693471133 994.6454756518631) rotate(0 160.13461538461542 44.30769230769229)" fill-rule="evenodd"><path d="M-2.35 2.01 C-2.86 3.48, -2.64 6.61, -1.39 10 C-0.15 13.39, -6.91 15.7, 5.09 22.37 C17.1 29.04, 48.88 40.08, 70.65 50.03 C92.42 59.97, 120.67 75.74, 135.71 82.03 C150.75 88.31, 152.28 87.88, 160.89 87.76 C169.5 87.64, 171.62 86.92, 187.38 81.3 C203.14 75.67, 234.34 63.55, 255.44 54.02 C276.54 44.48, 302.9 31.33, 313.99 24.09 C325.07 16.85, 321.64 14.12, 321.96 10.59 C322.28 7.06, 321.08 2.46, 315.92 2.89 C310.75 3.33, 313.83 3.9, 290.95 13.2 C268.08 22.51, 203.21 51.5, 178.68 58.71 C154.15 65.92, 173.78 66.13, 143.78 56.47 C113.78 46.81, 22.26 10.18, -1.31 0.77" stroke="none" stroke-width="0" fill="#912626" fill-rule="evenodd"></path><path d="M0.44 -0.36 C0.76 1.42, -0.27 6.92, 0.89 10.73 C2.05 14.54, -3.75 15.87, 7.42 22.51 C18.58 29.15, 46.33 41.05, 67.88 50.57 C89.44 60.08, 120.81 73.14, 136.74 79.58 C152.66 86.01, 155.05 89.15, 163.43 89.17 C171.81 89.2, 171.56 85.78, 187.02 79.72 C202.48 73.66, 235.32 61.97, 256.17 52.82 C277.02 43.66, 301.38 31.6, 312.11 24.81 C322.84 18.02, 319.61 16.07, 320.55 12.09 C321.49 8.11, 322.42 0.61, 317.76 0.93 C313.1 1.26, 316.02 4.4, 292.59 14.06 C269.15 23.72, 201.42 51.54, 177.13 58.88 C152.84 66.22, 176.51 67.77, 146.84 58.1 C117.18 48.44, 23.69 10.43, -0.85 0.88 M-0.79 -1.6 C-0.45 0.33, -0.9 8.29, 0.41 11.97 C1.71 15.64, -4.21 14.35, 7.03 20.44 C18.28 26.52, 46.46 38.57, 67.9 48.46 C89.34 58.35, 120.08 73.13, 135.67 79.79 C151.27 86.45, 152.85 88.12, 161.49 88.42 C170.14 88.73, 171.95 87.54, 187.56 81.63 C203.18 75.72, 234.2 62.58, 255.19 52.96 C276.19 43.35, 302.49 30.84, 313.53 23.93 C324.58 17.03, 320.71 15.18, 321.46 11.53 C322.22 7.88, 323.01 1.6, 318.05 2.05 C313.1 2.5, 315.23 4.36, 291.72 14.23 C268.22 24.11, 201.18 54.06, 177.02 61.31 C152.86 68.55, 176.43 67.79, 146.77 57.7 C117.1 47.61, 23.43 10.6, -0.96 0.79" stroke="#000000" stroke-width="1" fill="none"></path></g></g><mask></mask><g stroke-linecap="round" transform="translate(13.972821693471587 927.7223987287862) rotate(0 160.76923076923072 66.15384615384613)"><path d="M160.52 0.23 L322.28 66.23 L159.47 130.65 L-1.07 67.63" stroke="none" stroke-width="0" fill="#c6302b" fill-rule="evenodd"></path><path d="M161 0 C213.91 22.59, 269.8 43.21, 321.54 67 M161 0 C221.51 25.79, 280.45 49.55, 321.54 67 M321.54 67 C274.25 86.13, 222.89 105.68, 161 132.31 M321.54 67 C270.17 88.79, 220.3 110.01, 161 132.31 M161 132.31 C124.92 118.14, 87.64 99.88, 0 67 M161 132.31 C99.18 106.64, 39.24 81.65, 0 67 M0 67 C45.35 49.02, 93.32 28.96, 161 0 M0 67 C62.8 40.2, 123.66 15.86, 161 0" stroke="#000000" stroke-width="1" fill="none"></path></g><g stroke-linecap="round" transform="translate(11.929299426265516 875.1495242348592) rotate(0 160.76923076923072 66.15384615384613)"><path d="M161.74 -0.77 L320.01 65.34 L159.93 132.94 L1.94 66.99" stroke="none" stroke-width="0" fill="#c6302b" fill-rule="evenodd"></path><path d="M161 0 C221.58 23.35, 282.2 50.45, 321.54 67 M161 0 C204.72 16.78, 248.51 36.39, 321.54 67 M321.54 67 C287.83 81.07, 254.71 96.68, 161 132.31 M321.54 67 C258.82 91.41, 193.76 118.25, 161 132.31 M161 132.31 C118.67 114.08, 76.43 97.46, 0 67 M161 132.31 C122.66 116.57, 81.89 101.19, 0 67 M0 67 C36.33 51.62, 72.87 38.05, 161 0 M0 67 C48.66 48.26, 99.08 26.72, 161 0" stroke="#000000" stroke-width="1" fill="none"></path></g><g stroke-linecap="round"><g transform="translate(11.429299426265061 942.0726011579361) rotate(0 160.13461538461542 44.30769230769229)" fill-rule="evenodd"><path d="M2.32 0.31 C2.54 2.49, -0.66 9.94, -0.26 13.41 C0.15 16.88, -6.72 14.96, 4.74 21.15 C16.2 27.33, 46.73 40.36, 68.5 50.51 C90.26 60.66, 119.46 75.66, 135.33 82.06 C151.19 88.45, 154.73 89.4, 163.66 88.86 C172.59 88.31, 173.82 84.58, 188.9 78.78 C203.99 72.99, 233.57 63.19, 254.18 54.08 C274.8 44.97, 301.42 31.25, 312.59 24.13 C323.75 17.01, 320.62 15.61, 321.18 11.37 C321.74 7.12, 321.09 -1.73, 315.93 -1.34 C310.77 -0.95, 312.86 3.53, 290.23 13.69 C267.6 23.85, 204.53 52.48, 180.15 59.64 C155.76 66.79, 174.17 66.24, 143.9 56.61 C113.64 46.99, 22.27 11.43, -1.44 1.9" stroke="none" stroke-width="0" fill="#912626" fill-rule="evenodd"></path><path d="M-0.44 0.85 C-0.43 2.6, -0.51 7.35, 0.78 10.96 C2.06 14.58, -3.95 16.23, 7.28 22.56 C18.51 28.88, 46.67 39.22, 68.14 48.93 C89.6 58.65, 120.45 74.08, 136.05 80.85 C151.66 87.63, 153.21 89.67, 161.78 89.58 C170.35 89.48, 171.78 86.53, 187.49 80.29 C203.2 74.04, 234.91 61.34, 256.03 52.13 C277.15 42.91, 303.62 31.75, 314.22 24.98 C324.82 18.22, 318.83 15.65, 319.63 11.53 C320.43 7.42, 323.82 -0.09, 319 0.29 C314.18 0.67, 314.3 3.78, 290.69 13.81 C267.09 23.84, 201.4 52.91, 177.37 60.46 C153.33 68.01, 176.22 69.01, 146.47 59.1 C116.71 49.19, 23.37 10.94, -1.15 0.99 M1.52 0.26 C1.38 2.13, -0.65 8.95, 0.24 12.32 C1.12 15.69, -4.52 14.29, 6.82 20.51 C18.16 26.72, 46.98 39.42, 68.28 49.63 C89.58 59.83, 118.91 75.16, 134.63 81.73 C150.36 88.3, 153.69 89.53, 162.63 89.04 C171.57 88.56, 172.89 85.02, 188.28 78.83 C203.67 72.64, 234.17 61.02, 254.98 51.91 C275.78 42.81, 302.25 31.07, 313.1 24.2 C323.95 17.32, 319.53 14.53, 320.06 10.67 C320.59 6.82, 320.88 0.54, 316.28 1.07 C311.69 1.6, 315.64 4.02, 292.49 13.85 C269.34 23.68, 201.77 52.5, 177.38 60.06 C153 67.62, 175.99 69.08, 146.19 59.22 C116.39 49.37, 22.94 10.77, -1.43 0.95" stroke="#000000" stroke-width="1" fill="none"></path></g></g><mask></mask><g stroke-linecap="round" transform="translate(69.46883264846076 925.3476666497197) rotate(0 34.70588235294122 15.29411764705884)"><path d="M23.33 1.65 C29.88 0.57, 39.29 0.54, 46.06 1.46 C52.84 2.37, 60.27 4.55, 64 7.13 C67.73 9.7, 69.51 13.58, 68.45 16.88 C67.39 20.19, 63.32 24.82, 57.62 26.95 C51.91 29.07, 41.73 29.76, 34.22 29.63 C26.71 29.5, 18.21 28.21, 12.57 26.16 C6.93 24.11, 1.55 20.43, 0.37 17.35 C-0.81 14.26, 0.83 10.49, 5.48 7.65 C10.12 4.81, 23.24 1.39, 28.23 0.29 C33.23 -0.81, 35.22 0.74, 35.45 1.04 M41.54 1.42 C48.81 1.7, 57.86 1.92, 62.49 4.47 C67.11 7.02, 69.74 13.22, 69.3 16.7 C68.87 20.19, 64.41 23.07, 59.89 25.38 C55.38 27.68, 49.06 30.24, 42.23 30.53 C35.4 30.83, 25.38 28.77, 18.9 27.15 C12.42 25.53, 6.32 23.62, 3.34 20.8 C0.36 17.98, -1.39 13.18, 1.02 10.22 C3.44 7.26, 11.28 4.82, 17.83 3.04 C24.38 1.26, 36.78 -0.03, 40.32 -0.49 C43.86 -0.94, 39.08 -0.28, 39.08 0.31" stroke="none" stroke-width="0" fill="#ffff"></path><path d="M42.46 0.53 C49.48 0.98, 58.95 2.74, 63.57 5.42 C68.18 8.1, 70.81 13.19, 70.13 16.6 C69.45 20.01, 64.75 23.42, 59.49 25.88 C54.22 28.34, 45.73 31.12, 38.53 31.38 C31.32 31.64, 22.54 29.25, 16.24 27.44 C9.93 25.63, 2.96 23.68, 0.7 20.5 C-1.57 17.32, -0.58 11.58, 2.67 8.36 C5.93 5.15, 12.65 2.31, 20.24 1.21 C27.83 0.11, 42.93 1.75, 48.2 1.76 C53.47 1.77, 52.06 1.24, 51.87 1.27 M26.99 0.73 C33.82 -0.1, 42.75 1.44, 49.07 2.69 C55.38 3.94, 61.67 5.41, 64.89 8.24 C68.11 11.07, 70.13 16.2, 68.38 19.67 C66.62 23.15, 60.36 27.25, 54.36 29.09 C48.35 30.92, 39.52 31.35, 32.34 30.68 C25.17 30.02, 16.88 27.21, 11.32 25.11 C5.76 23, -0.1 21.11, -1.01 18.05 C-1.93 14.99, 1.3 9.77, 5.82 6.75 C10.35 3.74, 22.99 1.16, 26.12 -0.04 C29.25 -1.23, 24.67 -0.83, 24.6 -0.41" stroke="#000000" stroke-width="1" fill="none"></path></g><g stroke-linecap="round"><g transform="translate(133.6453032366959 971.724768047168) rotate(0 30.005590196596756 0.7700485078399026)" fill-rule="evenodd"><path d="M1.94 -0.01 L43.13 13.35 L58.84 -11.8 L1.37 -0.46" stroke="none" stroke-width="0" fill="#ffff" fill-rule="evenodd"></path><path d="M0 0 C17.14 4.89, 31.16 10.8, 44.56 14.89 M0 0 C16.93 5.09, 33.48 11.09, 44.56 14.89 M44.56 14.89 C48.99 6.02, 55.6 -8.31, 60.01 -13.35 M44.56 14.89 C51.11 4.73, 55.24 -5.5, 60.01 -13.35 M60.01 -13.35 C45.65 -8.6, 31.03 -7.46, 0 0 M60.01 -13.35 C36.82 -8.08, 13.33 -2.38, 0 0 M0 0 C0 0, 0 0, 0 0 M0 0 C0 0, 0 0, 0 0" stroke="#000000" stroke-width="1" fill="none"></path></g></g><mask></mask><g stroke-linecap="round"><g transform="translate(155.6453032366959 895.3476666497197) rotate(0 18.30882352941171 16.79411764705884)" fill-rule="evenodd"><path d="M0.11 1.13 L5.83 12.16 L-12.28 22.74 L9.41 22.21 L18.93 35.22 L21.82 21.68 L48.77 16.7 L28.18 10.69 L32.58 -3.45 L14.35 4.86 L1.71 1.99" stroke="none" stroke-width="0" fill="#ffff" fill-rule="evenodd"></path><path d="M0 0 C1.12 4.37, 4.95 7.33, 5.53 12.21 M0 0 C2.1 4.79, 4.82 9.93, 5.53 12.21 M5.53 12.21 C0.84 13.39, -1.14 16.44, -10.68 21.74 M5.53 12.21 C-1.26 16.56, -6.84 18.79, -10.68 21.74 M-10.68 21.74 C-5.79 21.78, 0.29 20.85, 9.06 23.62 M-10.68 21.74 C-5.7 23.03, 0.12 22.77, 9.06 23.62 M9.06 23.62 C14.58 28.06, 17.33 33.87, 20.12 36.53 M9.06 23.62 C11.4 27.35, 15.57 30.46, 20.12 36.53 M20.12 36.53 C22.09 34.13, 21.2 30.51, 23 21.35 M20.12 36.53 C20.15 33.21, 21.58 28.68, 23 21.35 M23 21.35 C27.55 19.4, 34.88 19.92, 47.29 17.85 M23 21.35 C29.42 20.66, 34.75 20.05, 47.29 17.85 M47.29 17.85 C42.86 17.82, 33.94 14.1, 26.53 11.44 M47.29 17.85 C40.01 15.47, 31.79 11.85, 26.53 11.44 M26.53 11.44 C29.05 6.64, 32.39 0.25, 32.94 -2.94 M26.53 11.44 C28.46 8.53, 29.73 3.97, 32.94 -2.94 M32.94 -2.94 C30.34 -0.22, 22.8 -0.92, 15.44 5.06 M32.94 -2.94 C28.75 -0.26, 23.68 1.16, 15.44 5.06 M15.44 5.06 C11.97 3.44, 7.55 1.5, 0 0 M15.44 5.06 C11.56 3.67, 7.3 2.93, 0 0 M0 0 C0 0, 0 0, 0 0 M0 0 C0 0, 0 0, 0 0" stroke="#000000" stroke-width="1" fill="none"></path></g></g><mask></mask><g stroke-linecap="round"><g transform="translate(246.74485074800816 924.0942729845613) rotate(0 -5.684341886080802e-14 15)" fill-rule="evenodd"><path d="M1.25 1.6 L39.2 13.73 L-1.64 31.96 L-39.48 15.4 L1.83 0.25 L1.91 -1.89" stroke="none" stroke-width="0" fill="#912626" fill-rule="evenodd"></path><path d="M0 0 C12.11 2.45, 22.81 8.96, 37.5 15 M0 0 C11.45 5.1, 20.63 7.74, 37.5 15 M37.5 15 C23.36 20.04, 7.66 28.06, -1.5 30 M37.5 15 C23.13 20.04, 9.4 25.97, -1.5 30 M-1.5 30 C-14.02 22.44, -30.64 18.26, -37.5 15 M-1.5 30 C-13.1 25.42, -24.72 19.64, -37.5 15 M-37.5 15 C-29.05 12.49, -21.7 6.88, 0 0 M-37.5 15 C-28.31 11.62, -21.85 7.6, 0 0 M0 0 C0 0, 0 0, 0 0 M0 0 C0 0, 0 0, 0 0 M0 0 C0 0, 0 0, 0 0 M0 0 C0 0, 0 0, 0 0" stroke="#000000" stroke-width="1" fill="none"></path></g></g><mask></mask><g stroke-linecap="round"><g transform="translate(242.88817805193924 923.1888126897823) rotate(0 0.38461538461547207 15)"><path d="M0 0 C1.16 9.47, 0.41 18.42, 0.77 30 M0 0 C0.11 9.28, 1.12 19.04, 0.77 30" stroke="#000000" stroke-width="1" fill="none"></path></g></g><mask></mask><g transform="translate(112.10177538019536 810.1378014155155) rotate(0 46.944000244140625 22.5)"><text x="0" y="0" font-family="Virgil, Segoe UI Emoji" font-size="36px" fill="#1e1e1e" text-anchor="start" style="white-space: pre;" direction="ltr" dominant-baseline="text-before-edge">Slave</text></g><g stroke-linecap="round" transform="translate(768.4819509381313 982.8121222572897) rotate(0 160.76923076923072 66.15384615384613)"><path d="M162.17 1.64 L321 68.77 L159.34 132.49 L1.32 66.24" stroke="none" stroke-width="0" fill="#c6302b" fill-rule="evenodd"></path><path d="M161 0 C205.61 19.62, 251.48 38.96, 321.54 67 M161 0 C216.64 21.33, 273.81 44.93, 321.54 67 M321.54 67 C283.18 81.47, 239.91 99.81, 161 132.31 M321.54 67 C286.46 81.3, 251.27 94.93, 161 132.31 M161 132.31 C124.66 117.49, 88.8 103.07, 0 67 M161 132.31 C108.99 111.87, 57.41 91.69, 0 67 M0 67 C54.63 47.69, 105.47 24.33, 161 0 M0 67 C32.9 52.94, 67.82 39.03, 161 0" stroke="#000000" stroke-width="1" fill="none"></path></g><g stroke-linecap="round"><g transform="translate(766.4819509381308 1048.2351991803666) rotate(0 160.13461538461536 44.30769230769229)" fill-rule="evenodd"><path d="M-0.77 -0.12 C-0.69 1.92, -1.45 9.89, -0.09 13.27 C1.26 16.65, -3.71 13.78, 7.34 20.17 C18.38 26.57, 44.51 41.71, 66.18 51.64 C87.85 61.57, 121.33 73.97, 137.37 79.76 C153.41 85.54, 154.15 86.09, 162.43 86.37 C170.7 86.64, 171.66 86.94, 187 81.39 C202.34 75.83, 233.12 62.42, 254.46 53.03 C275.79 43.65, 303.8 31.53, 315.01 25.08 C326.22 18.62, 321.35 18.02, 321.7 14.32 C322.06 10.62, 322.51 3.06, 317.14 2.86 C311.78 2.66, 312.47 3.83, 289.51 13.14 C266.55 22.45, 203.21 51.46, 179.39 58.73 C155.56 66, 176.65 66.81, 146.56 56.78 C116.47 46.75, 23.23 8.19, -1.14 -1.46" stroke="none" stroke-width="0" fill="#912626" fill-rule="evenodd"></path><path d="M-0.11 0.75 C0.1 2.74, -0.97 8.22, 0.36 11.88 C1.68 15.55, -3.32 16.63, 7.84 22.74 C19 28.85, 45.85 39.13, 67.29 48.52 C88.74 57.91, 120.68 72.26, 136.5 79.08 C152.33 85.91, 153.89 89.06, 162.26 89.45 C170.63 89.84, 171.24 87.82, 186.74 81.42 C202.25 75.02, 234.16 60.81, 255.29 51.05 C276.42 41.29, 302.77 29.29, 313.54 22.86 C324.32 16.44, 319.21 16.24, 319.94 12.51 C320.67 8.77, 322.69 0.53, 317.94 0.44 C313.19 0.35, 314.96 2.09, 291.45 11.94 C267.94 21.8, 201.08 51.82, 176.86 59.55 C152.64 67.28, 175.67 68.25, 146.11 58.32 C116.56 48.38, 23.93 9.63, -0.48 -0.05 M-1.62 0.1 C-1.46 1.74, -1.95 6.62, -0.4 10.06 C1.15 13.51, -3.56 14.3, 7.68 20.79 C18.91 27.27, 45.72 39.29, 67 48.99 C88.27 58.7, 119.26 72.39, 135.32 79.03 C151.38 85.68, 154.73 88.6, 163.37 88.85 C172 89.1, 171.45 86.98, 187.14 80.56 C202.83 74.13, 236.69 59.6, 257.51 50.27 C278.33 40.95, 301.56 30.98, 312.07 24.62 C322.57 18.27, 319.49 16.05, 320.54 12.16 C321.58 8.27, 323.42 0.88, 318.33 1.29 C313.24 1.71, 313.61 5.1, 289.99 14.66 C266.37 24.23, 200.67 51.45, 176.61 58.68 C152.55 65.9, 175.15 67.91, 145.65 58.03 C116.15 48.14, 23.79 8.77, -0.4 -0.63" stroke="#000000" stroke-width="1" fill="none"></path></g></g><mask></mask><g stroke-linecap="round"><g transform="translate(765.9819509381308 998.7351991803666) rotate(0 160.13461538461536 44.30769230769229)" fill-rule="evenodd"><path d="M-0.09 1.96 C0.14 3.56, -0.13 5.82, 0.65 9.48 C1.42 13.14, -6.97 17.25, 4.54 23.93 C16.06 30.61, 47.9 40.59, 69.73 49.54 C91.57 58.5, 120.06 71.01, 135.54 77.67 C151.02 84.33, 154.29 88.84, 162.63 89.5 C170.98 90.17, 169.71 87.71, 185.59 81.65 C201.47 75.58, 236.41 62.41, 257.92 53.12 C279.42 43.82, 304.33 32.3, 314.61 25.86 C324.89 19.42, 319.41 18.63, 319.61 14.47 C319.8 10.32, 320.19 1.32, 315.78 0.91 C311.37 0.5, 316.01 2.49, 293.16 12 C270.31 21.5, 203.45 50.43, 178.67 57.93 C153.9 65.44, 174.24 66.88, 144.51 57.04 C114.79 47.2, 24.6 8.2, 0.31 -1.11" stroke="none" stroke-width="0" fill="#912626" fill-rule="evenodd"></path><path d="M0.36 0.58 C0.57 2.46, 0.26 8.68, 1.15 12.05 C2.03 15.42, -5.63 14.67, 5.66 20.81 C16.95 26.94, 47.25 38.88, 68.87 48.87 C90.49 58.86, 119.79 73.98, 135.38 80.76 C150.96 87.54, 153.87 89.72, 162.38 89.53 C170.88 89.35, 170.75 86.11, 186.42 79.67 C202.1 73.23, 235.38 60.17, 256.45 50.9 C277.52 41.63, 302.19 30.52, 312.84 24.04 C323.5 17.57, 319.59 16.11, 320.4 12.06 C321.21 8, 322.68 -0.42, 317.72 -0.29 C312.76 -0.16, 313.88 2.86, 290.63 12.82 C267.38 22.78, 202.47 51.86, 178.23 59.47 C153.99 67.08, 174.94 68.32, 145.17 58.45 C115.41 48.59, 23.9 9.93, -0.35 0.27 M-0.91 -0.17 C-0.75 1.31, -0.68 6.7, 0.8 10.31 C2.29 13.92, -3.42 14.96, 8.01 21.5 C19.44 28.03, 47.86 39.52, 69.4 49.53 C90.94 59.55, 121.57 75.01, 137.26 81.59 C152.95 88.16, 155.31 88.98, 163.54 88.98 C171.77 88.97, 171.31 87.42, 186.65 81.54 C202 75.67, 234.28 63.5, 255.62 53.7 C276.95 43.91, 303.72 29.8, 314.66 22.77 C325.6 15.73, 320.68 15.23, 321.24 11.47 C321.8 7.71, 322.8 0.04, 317.99 0.18 C313.19 0.33, 315.61 2.62, 292.4 12.35 C269.18 22.07, 203.4 50.9, 178.7 58.55 C154.01 66.2, 174.04 68.02, 144.22 58.24 C114.4 48.45, 23.73 9.83, -0.2 -0.15" stroke="#000000" stroke-width="1" fill="none"></path></g></g><mask></mask><g stroke-linecap="round" transform="translate(766.4819509381313 931.8121222572897) rotate(0 160.76923076923072 66.15384615384613)"><path d="M162.32 -0.76 L322.28 65.59 L160.07 131.11 L0.25 66.1" stroke="none" stroke-width="0" fill="#c6302b" fill-rule="evenodd"></path><path d="M161 0 C215.5 18.84, 265.22 43.56, 321.54 67 M161 0 C197.2 15.06, 233.86 29.01, 321.54 67 M321.54 67 C268.21 88.39, 214.34 109.63, 161 132.31 M321.54 67 C286.38 80.97, 250.55 95.34, 161 132.31 M161 132.31 C118.04 113.6, 73.51 96.45, 0 67 M161 132.31 C98.75 107.07, 39 81.39, 0 67 M0 67 C46.87 46.87, 92.62 30.74, 161 0 M0 67 C55.73 43.09, 111.57 18.83, 161 0" stroke="#000000" stroke-width="1" fill="none"></path></g><g stroke-linecap="round" transform="translate(764.4384286709254 879.2392477633628) rotate(0 160.76923076923072 66.15384615384613)"><path d="M161.74 -1.41 L320.61 65.81 L161.25 131.4 L-0.99 68" stroke="none" stroke-width="0" fill="#c6302b" fill-rule="evenodd"></path><path d="M161 0 C222.94 28.8, 287.05 53.43, 321.54 67 M161 0 C219.41 22.84, 279.71 47.48, 321.54 67 M321.54 67 C277.46 84.84, 232.48 101.27, 161 132.31 M321.54 67 C274.57 85.76, 227.86 105.07, 161 132.31 M161 132.31 C116.21 113.7, 73.49 96.29, 0 67 M161 132.31 C125.88 118.8, 88.86 103.23, 0 67 M0 67 C47.6 50.05, 94.57 30.2, 161 0 M0 67 C60.89 40.05, 123.93 13.98, 161 0" stroke="#000000" stroke-width="1" fill="none"></path></g><g stroke-linecap="round"><g transform="translate(763.938428670925 946.1623246864397) rotate(0 160.13461538461536 44.30769230769229)" fill-rule="evenodd"><path d="M1.41 -0.17 C1.69 1.02, -1.27 5.22, -0.42 9.06 C0.43 12.9, -4.71 15.92, 6.48 22.89 C17.67 29.86, 44.82 41.15, 66.71 50.86 C88.6 60.57, 121.54 74.53, 137.8 81.15 C154.06 87.78, 156.16 90.38, 164.28 90.63 C172.4 90.88, 171.59 89.09, 186.55 82.67 C201.51 76.25, 232.67 62.06, 254.05 52.1 C275.42 42.15, 303.61 29.84, 314.79 22.92 C325.98 16, 320.86 14.53, 321.17 10.59 C321.48 6.64, 321.55 -0.97, 316.67 -0.77 C311.78 -0.56, 315.2 1.54, 291.85 11.82 C268.5 22.09, 200.89 53.49, 176.55 60.87 C152.21 68.26, 175.27 66.36, 145.81 56.12 C116.34 45.87, 23.87 8.75, -0.25 -0.61" stroke="none" stroke-width="0" fill="#912626" fill-rule="evenodd"></path><path d="M0.54 -0.84 C0.62 1.38, -1.53 8.18, -0.58 12.14 C0.36 16.1, -5.13 16.8, 6.22 22.92 C17.58 29.04, 45.85 39.54, 67.54 48.88 C89.22 58.22, 120.5 72.28, 136.33 78.94 C152.16 85.6, 154.02 88.6, 162.52 88.81 C171.02 89.03, 171.77 86.57, 187.34 80.25 C202.92 73.93, 235.17 60.32, 255.99 50.9 C276.81 41.49, 301.47 30.21, 312.26 23.75 C323.05 17.28, 319.89 15.97, 320.73 12.12 C321.57 8.27, 322.25 0.47, 317.33 0.65 C312.4 0.82, 314.5 3.27, 291.19 13.19 C267.88 23.1, 201.8 52.6, 177.48 60.14 C153.16 67.68, 174.86 68.3, 145.28 58.44 C115.69 48.58, 24.11 10.85, -0.05 0.96 M-0.63 1.33 C-0.07 3.33, 0.85 7.17, 1.82 10.46 C2.79 13.75, -5.72 14.54, 5.21 21.06 C16.13 27.57, 45.73 39.92, 67.37 49.55 C89.01 59.17, 118.99 72.43, 135.06 78.81 C151.12 85.2, 154.92 87.89, 163.76 87.88 C172.59 87.87, 172.86 84.46, 188.06 78.77 C203.25 73.07, 233.96 63.12, 254.92 53.71 C275.87 44.3, 302.64 29.33, 313.77 22.31 C324.91 15.29, 321.14 15.03, 321.74 11.57 C322.34 8.12, 322.14 1.39, 317.4 1.61 C312.65 1.83, 316.56 3.24, 293.25 12.9 C269.95 22.56, 202.37 52.02, 177.56 59.57 C152.74 67.12, 173.92 67.99, 144.37 58.22 C114.82 48.44, 24.07 10.63, 0.26 0.91" stroke="#000000" stroke-width="1" fill="none"></path></g></g><mask></mask><g stroke-linecap="round" transform="translate(821.9779618931206 929.4373901782233) rotate(0 34.70588235294122 15.29411764705884)"><path d="M35.54 0.47 C42.78 0.26, 52.31 1.13, 57.82 3.12 C63.34 5.1, 67.62 9.01, 68.65 12.41 C69.67 15.81, 68 20.73, 63.99 23.5 C59.97 26.27, 51.62 27.94, 44.57 29.02 C37.51 30.11, 28.28 31.02, 21.64 30.02 C15 29.01, 8.12 25.91, 4.73 22.99 C1.34 20.08, -0.02 15.8, 1.32 12.52 C2.65 9.25, 6.03 5.27, 12.76 3.36 C19.5 1.46, 36.11 1.35, 41.72 1.1 C47.34 0.85, 46.72 1.85, 46.46 1.85 M49.88 0.67 C56.54 2.11, 62.73 6.74, 65.96 9.8 C69.19 12.86, 71.36 15.97, 69.25 19.04 C67.15 22.11, 59.57 26.55, 53.34 28.22 C47.11 29.9, 38.91 29.39, 31.88 29.1 C24.86 28.81, 16.31 28.4, 11.19 26.49 C6.07 24.57, 1.85 20.79, 1.15 17.61 C0.46 14.44, 3.01 10.31, 7.01 7.43 C11.01 4.55, 18 1.2, 25.15 0.31 C32.29 -0.58, 45.8 1.74, 49.89 2.09 C53.98 2.44, 49.85 2.54, 49.66 2.42" stroke="none" stroke-width="0" fill="#ffff"></path><path d="M27.25 0.6 C33.83 -0.13, 43.93 0.07, 50.59 1.61 C57.25 3.16, 64.43 6.78, 67.22 9.87 C70.02 12.95, 69.91 17.18, 67.36 20.14 C64.8 23.1, 58.22 25.84, 51.88 27.61 C45.55 29.39, 36.57 31.23, 29.33 30.79 C22.09 30.35, 13.35 27.55, 8.45 24.98 C3.56 22.4, 0.07 18.58, -0.03 15.33 C-0.13 12.08, 2.16 8.08, 7.87 5.48 C13.57 2.87, 28.91 0.53, 34.18 -0.31 C39.45 -1.15, 39.4 0.07, 39.48 0.42 M22.9 0.95 C29.49 -0.79, 38.63 -1.73, 45.51 -0.58 C52.4 0.57, 60.44 4.72, 64.2 7.87 C67.95 11.01, 68.93 15.01, 68.03 18.28 C67.13 21.56, 64.05 25.26, 58.79 27.52 C53.52 29.77, 44.13 31.64, 36.44 31.82 C28.75 31.99, 18.82 30.8, 12.65 28.58 C6.48 26.35, 0.68 21.98, -0.56 18.45 C-1.8 14.93, 1.37 10.48, 5.22 7.41 C9.08 4.33, 19.86 1.16, 22.59 0 C25.32 -1.16, 21.44 0.15, 21.59 0.45" stroke="#000000" stroke-width="1" fill="none"></path></g><g stroke-linecap="round"><g transform="translate(886.1544324813557 975.8144915756714) rotate(0 30.005590196596813 0.7700485078399026)" fill-rule="evenodd"><path d="M-0.99 1 L44.69 12.94 L59.81 -13.84 L0.93 -0.02" stroke="none" stroke-width="0" fill="#ffff" fill-rule="evenodd"></path><path d="M0 0 C12.83 2.6, 21.11 8.28, 44.56 14.89 M0 0 C9.79 2.96, 19.32 5.6, 44.56 14.89 M44.56 14.89 C47.74 7.7, 51.43 1.59, 60.01 -13.35 M44.56 14.89 C49.29 5.68, 54.54 -2.56, 60.01 -13.35 M60.01 -13.35 C41.9 -8.37, 20.6 -5.5, 0 0 M60.01 -13.35 C46.85 -9.88, 35.77 -7.07, 0 0 M0 0 C0 0, 0 0, 0 0 M0 0 C0 0, 0 0, 0 0" stroke="#000000" stroke-width="1" fill="none"></path></g></g><mask></mask><g stroke-linecap="round"><g transform="translate(908.1544324813557 899.4373901782233) rotate(0 18.30882352941171 16.79411764705884)" fill-rule="evenodd"><path d="M0.24 1.01 L7.13 11.44 L-8.77 23.44 L8.03 23.48 L18.33 37.11 L23.04 21.22 L48.39 16.39 L28.18 11.4 L31.78 -1.28 L13.46 6.12 L-1.94 -0.84" stroke="none" stroke-width="0" fill="#ffff" fill-rule="evenodd"></path><path d="M0 0 C0.61 3.63, 1.88 6.04, 5.53 12.21 M0 0 C1.71 3.33, 3.01 7.68, 5.53 12.21 M5.53 12.21 C-0.04 14.82, -5.04 18.14, -10.68 21.74 M5.53 12.21 C-0.05 16.19, -5.28 17.98, -10.68 21.74 M-10.68 21.74 C-6.61 21.68, -4.11 22.25, 9.06 23.62 M-10.68 21.74 C-3.31 22.77, 3.16 23.72, 9.06 23.62 M9.06 23.62 C12.34 28.36, 14.57 31.38, 20.12 36.53 M9.06 23.62 C11.65 26.27, 13.66 30.04, 20.12 36.53 M20.12 36.53 C20.77 32.61, 22.02 26.04, 23 21.35 M20.12 36.53 C21.09 31.84, 21.1 28.53, 23 21.35 M23 21.35 C32.7 20.72, 39.14 18.95, 47.29 17.85 M23 21.35 C32.57 19.65, 40.11 19.53, 47.29 17.85 M47.29 17.85 C40.86 16.01, 37.71 15.89, 26.53 11.44 M47.29 17.85 C41.46 15.11, 36.05 14.46, 26.53 11.44 M26.53 11.44 C29.72 5.58, 30.92 1.44, 32.94 -2.94 M26.53 11.44 C29.16 5.68, 30.53 1.4, 32.94 -2.94 M32.94 -2.94 C29.07 0.56, 24.12 2.38, 15.44 5.06 M32.94 -2.94 C26.34 -1.39, 20.97 1.3, 15.44 5.06 M15.44 5.06 C10.88 3.92, 7.82 2.18, 0 0 M15.44 5.06 C11.29 3.22, 6.08 1.08, 0 0 M0 0 C0 0, 0 0, 0 0 M0 0 C0 0, 0 0, 0 0" stroke="#000000" stroke-width="1" fill="none"></path></g></g><mask></mask><g stroke-linecap="round"><g transform="translate(999.253979992668 928.183996513065) rotate(0 -1.1368683772161603e-13 15)" fill-rule="evenodd"><path d="M0.76 -1 L37.27 16.33 L-0.16 29.76 L-39.28 15.56 L0.18 -1.91 L1.3 0.48" stroke="none" stroke-width="0" fill="#912626" fill-rule="evenodd"></path><path d="M0 0 C7.05 2.85, 17.81 7.14, 37.5 15 M0 0 C9.69 4.41, 21.3 8.52, 37.5 15 M37.5 15 C27.79 18.31, 18.02 22.06, -1.5 30 M37.5 15 C26.26 18.99, 13.61 24.95, -1.5 30 M-1.5 30 C-16.2 24.4, -26.5 17.89, -37.5 15 M-1.5 30 C-13.51 25.8, -26.86 20.66, -37.5 15 M-37.5 15 C-30.13 12.23, -22.64 7.31, 0 0 M-37.5 15 C-29 12.06, -19.43 6.98, 0 0 M0 0 C0 0, 0 0, 0 0 M0 0 C0 0, 0 0, 0 0 M0 0 C0 0, 0 0, 0 0 M0 0 C0 0, 0 0, 0 0" stroke="#000000" stroke-width="1" fill="none"></path></g></g><mask></mask><g stroke-linecap="round"><g transform="translate(995.397307296599 927.2785362182856) rotate(0 0.38461538461547207 15)"><path d="M0 0 C0.3 10.04, 0.18 19.78, 0.77 30 M0 0 C0.25 6.47, 0.02 13.08, 0.77 30" stroke="#000000" stroke-width="1" fill="none"></path></g></g><mask></mask><g transform="translate(866.6557663891068 814.2275249440193) rotate(0 46.944000244140625 22.5)"><text x="0" y="0" font-family="Virgil, Segoe UI Emoji" font-size="36px" fill="#1e1e1e" text-anchor="start" style="white-space: pre;" direction="ltr" dominant-baseline="text-before-edge">Slave</text></g><g stroke-linecap="round"><g transform="translate(448.1561270597591 516.1254108834397) rotate(0 -105.31038085896728 162.56651025801744)"><path d="M0.06 0.21 C-35.05 54.68, -176.04 271.6, -211.19 325.74 M-1.37 -0.72 C-36.64 53.48, -177.38 269.43, -212.44 323.94" stroke="#1e1e1e" stroke-width="2" fill="none"></path></g><g transform="translate(448.1561270597591 516.1254108834397) rotate(0 -105.31038085896728 162.56651025801744)"><path d="M-206.84 299.57 C-208.13 304.87, -208.91 311.7, -212.44 323.94 M-206.84 299.57 C-208.02 306.76, -211.32 314.17, -212.44 323.94" stroke="#1e1e1e" stroke-width="2" fill="none"></path></g><g transform="translate(448.1561270597591 516.1254108834397) rotate(0 -105.31038085896728 162.56651025801744)"><path d="M-192.49 308.87 C-197.39 311.8, -201.84 316.23, -212.44 323.94 M-192.49 308.87 C-197.78 313.22, -205.27 317.91, -212.44 323.94" stroke="#1e1e1e" stroke-width="2" fill="none"></path></g></g><mask></mask><g stroke-linecap="round"><g transform="translate(619.9245152569098 528.3945814689504) rotate(0 111.44496615172272 165.63380290439517)"><path d="M-0.65 0.04 C36.61 55.13, 186.21 275, 223.47 330.19 M1.2 -0.98 C38.37 54.25, 186.01 275.58, 222.82 331.16" stroke="#1e1e1e" stroke-width="2" fill="none"></path></g><g transform="translate(619.9245152569098 528.3945814689504) rotate(0 111.44496615172272 165.63380290439517)"><path d="M202.69 316.34 C208.56 321.72, 212.55 325.04, 222.82 331.16 M202.69 316.34 C208.2 320.11, 215.06 324.55, 222.82 331.16" stroke="#1e1e1e" stroke-width="2" fill="none"></path></g><g transform="translate(619.9245152569098 528.3945814689504) rotate(0 111.44496615172272 165.63380290439517)"><path d="M216.93 306.87 C218.63 314.92, 218.48 321, 222.82 331.16 M216.93 306.87 C218.2 313.48, 220.85 320.71, 222.82 331.16" stroke="#1e1e1e" stroke-width="2" fill="none"></path></g></g><mask></mask><g stroke-linecap="round" transform="translate(1540.952038554201 178.5845973132707) rotate(0 160.7692307692306 66.15384615384613)"><path d="M160.69 -1.88 L320.57 67.32 L159.23 134.06 L0.76 67.26" stroke="none" stroke-width="0" fill="#c6302b" fill-rule="evenodd"></path><path d="M161 0 C206.91 20.84, 250.88 37.6, 321.54 67 M161 0 C223.41 26.67, 287.6 53.53, 321.54 67 M321.54 67 C261.45 93.57, 203.26 117.06, 161 132.31 M321.54 67 C285.4 83.39, 248.84 97.55, 161 132.31 M161 132.31 C102.29 108.41, 42.69 82.13, 0 67 M161 132.31 C119.23 113.95, 78.83 98.44, 0 67 M0 67 C38.02 51.73, 74.84 35.46, 161 0 M0 67 C58.37 43.99, 117.85 18.94, 161 0" stroke="#000000" stroke-width="1" fill="none"></path></g><g stroke-linecap="round"><g transform="translate(1538.9520385542005 244.00767423634738) rotate(0 160.13461538461536 44.307692307692264)" fill-rule="evenodd"><path d="M-1.74 -0.78 C-2.11 1.77, -2.08 8.81, -0.96 12.98 C0.17 17.15, -6.28 17.85, 5.03 24.23 C16.34 30.61, 45.21 41.82, 66.9 51.24 C88.58 60.66, 119.44 74.25, 135.16 80.75 C150.87 87.25, 152.22 90.62, 161.18 90.24 C170.14 89.85, 173.14 84.76, 188.91 78.43 C204.68 72.11, 234.92 61.52, 255.79 52.28 C276.67 43.03, 303.49 30.02, 314.17 22.98 C324.85 15.93, 319.49 13.65, 319.89 10 C320.3 6.35, 321.71 0.24, 316.62 1.08 C311.53 1.93, 312.35 5.25, 289.37 15.06 C266.38 24.88, 202.75 52.85, 178.7 59.97 C154.66 67.09, 174.84 68.16, 145.07 57.78 C115.31 47.4, 24.69 7.67, 0.12 -2.28" stroke="none" stroke-width="0" fill="#912626" fill-rule="evenodd"></path><path d="M0.97 0.07 C1.01 2.06, -1.08 8.77, -0.18 12.43 C0.73 16.09, -4.91 15.74, 6.39 22.03 C17.69 28.31, 45.95 40.31, 67.63 50.13 C89.31 59.94, 120.49 74.68, 136.49 80.93 C152.49 87.18, 155.01 87.77, 163.65 87.64 C172.28 87.5, 172.78 86.06, 188.3 80.1 C203.82 74.15, 235.89 61.43, 256.77 51.91 C277.65 42.38, 303.04 29.44, 313.59 22.95 C324.13 16.45, 319.3 16.44, 320.03 12.91 C320.75 9.38, 322.75 1.69, 317.93 1.77 C313.11 1.84, 314.33 3.81, 291.12 13.36 C267.9 22.91, 203.05 51.45, 178.63 59.06 C154.21 66.66, 174.2 68.73, 144.61 58.99 C115.01 49.26, 25.2 10.57, 1.07 0.65 M0.02 -0.93 C-0.08 0.69, -2.12 6.85, -1.22 10.9 C-0.31 14.94, -5.99 16.6, 5.46 23.36 C16.92 30.12, 45.87 42.31, 67.51 51.45 C89.15 60.59, 119.58 71.81, 135.3 78.19 C151.02 84.57, 153.39 89.07, 161.82 89.74 C170.25 90.41, 170.15 88.57, 185.86 82.21 C201.57 75.85, 235.06 61.15, 256.11 51.58 C277.15 42, 301.37 31.22, 312.13 24.75 C322.89 18.28, 319.64 16.96, 320.67 12.77 C321.7 8.59, 322.9 -0.41, 318.32 -0.34 C313.73 -0.28, 316.31 3.46, 293.14 13.17 C269.98 22.88, 203.67 50.27, 179.31 57.92 C154.96 65.57, 177.18 68.64, 147.01 59.06 C116.84 49.48, 22.67 10.21, -1.69 0.43" stroke="#000000" stroke-width="1" fill="none"></path></g></g><mask></mask><g stroke-linecap="round"><g transform="translate(1538.4520385542005 194.50767423634738) rotate(0 160.13461538461536 44.307692307692264)" fill-rule="evenodd"><path d="M-0.96 1.67 C-0.94 4.06, -2.7 9.9, -1.66 13.54 C-0.62 17.18, -6.27 17.36, 5.26 23.53 C16.79 29.69, 46.02 40.87, 67.52 50.53 C89.03 60.2, 118.13 75.54, 134.3 81.54 C150.47 87.55, 155.77 86.66, 164.54 86.55 C173.31 86.44, 171.51 86.81, 186.93 80.89 C202.35 74.97, 236.1 60.91, 257.08 51.02 C278.05 41.12, 302.46 27.93, 312.8 21.54 C323.13 15.15, 318.61 15.82, 319.08 12.7 C319.55 9.58, 320.07 2.74, 315.64 2.83 C311.2 2.92, 315.55 3.89, 292.47 13.24 C269.4 22.59, 201.64 51.77, 177.19 58.93 C152.74 66.1, 175.69 66.36, 145.77 56.22 C115.85 46.08, 22.28 7.66, -2.33 -1.89" stroke="none" stroke-width="0" fill="#912626" fill-rule="evenodd"></path><path d="M-0.18 1.12 C-0.39 3, -1.33 7.79, -0.3 11.34 C0.72 14.88, -5.53 15.85, 6 22.42 C17.52 28.98, 47.06 41.3, 68.86 50.72 C90.65 60.14, 120.92 72.69, 136.76 78.94 C152.61 85.19, 155.41 87.95, 163.94 88.22 C172.46 88.48, 172.48 86.73, 187.91 80.52 C203.33 74.32, 235.65 60.33, 256.49 50.98 C277.33 41.64, 302.28 30.72, 312.93 24.45 C323.58 18.18, 319.65 17.27, 320.39 13.38 C321.13 9.5, 322.05 1.31, 317.39 1.13 C312.72 0.95, 315.84 2.49, 292.4 12.33 C268.96 22.16, 201 52.34, 176.72 60.15 C152.44 67.95, 176.2 69.27, 146.73 59.15 C117.25 49.03, 24.23 9.48, -0.13 -0.56 M-1.73 0.66 C-2.21 2.74, -2.51 9.62, -1.41 12.89 C-0.31 16.16, -6.93 14.33, 4.86 20.29 C16.66 26.26, 47.57 38.94, 69.38 48.69 C91.19 58.44, 120.23 72.44, 135.71 78.82 C151.19 85.2, 153.4 86.91, 162.26 86.97 C171.13 87.03, 173.34 85.32, 188.91 79.19 C204.48 73.06, 234.7 59.47, 255.68 50.17 C276.66 40.87, 303.87 29.49, 314.79 23.38 C325.72 17.27, 320.78 17, 321.22 13.5 C321.67 9.99, 322.45 2.66, 317.49 2.34 C312.52 2.03, 314.95 2.05, 291.44 11.59 C267.93 21.13, 200.54 51.63, 176.4 59.58 C152.26 67.53, 175.96 69.46, 146.59 59.3 C117.21 49.13, 24.85 8.54, 0.14 -1.42" stroke="#000000" stroke-width="1" fill="none"></path></g></g><mask></mask><g stroke-linecap="round" transform="translate(1538.952038554201 127.5845973132707) rotate(0 160.7692307692306 66.15384615384613)"><path d="M161.76 0.26 L321.06 66.41 L161.1 130.45 L-1.91 65.45" stroke="none" stroke-width="0" fill="#c6302b" fill-rule="evenodd"></path><path d="M161 0 C207.48 18.36, 253.94 39.52, 321.54 67 M161 0 C223.98 26.7, 285.27 52.77, 321.54 67 M321.54 67 C268.37 88.72, 215.47 109.65, 161 132.31 M321.54 67 C267.13 88.58, 214.88 110.68, 161 132.31 M161 132.31 C112.82 112.8, 67.47 94.54, 0 67 M161 132.31 C101.55 110.34, 42.5 85.99, 0 67 M0 67 C35.21 50.11, 74.57 35.62, 161 0 M0 67 C42.21 50.95, 84.39 33.94, 161 0" stroke="#000000" stroke-width="1" fill="none"></path></g><g stroke-linecap="round" transform="translate(1536.908516286995 75.01172281934373) rotate(0 160.7692307692306 66.15384615384619)"><path d="M160.53 -0.59 L321.64 65.14 L159.09 130.76 L-1.54 66.13" stroke="none" stroke-width="0" fill="#c6302b" fill-rule="evenodd"></path><path d="M161 0 C205.79 20.21, 250.86 39.07, 321.54 67 M161 0 C197.25 15.18, 232.08 29.05, 321.54 67 M321.54 67 C278.74 84.74, 232.76 105.15, 161 132.31 M321.54 67 C281.69 84.54, 240.51 99.88, 161 132.31 M161 132.31 C104.48 107.46, 49.98 83.97, 0 67 M161 132.31 C98.08 108.11, 34.76 82.89, 0 67 M0 67 C60.33 43.26, 118.75 17.4, 161 0 M0 67 C32.57 53.83, 66.97 39.3, 161 0" stroke="#000000" stroke-width="1" fill="none"></path></g><g stroke-linecap="round"><g transform="translate(1536.4085162869947 141.9347997424204) rotate(0 160.13461538461536 44.307692307692264)" fill-rule="evenodd"><path d="M-0.8 0.82 C-0.84 2.72, -3.2 9.74, -1.67 12.93 C-0.13 16.11, -3.23 13.74, 8.39 19.93 C20.01 26.13, 46.62 40.25, 68.04 50.1 C89.47 59.96, 121.22 73.02, 136.96 79.05 C152.7 85.09, 154.29 86, 162.47 86.31 C170.65 86.61, 170.78 86.27, 186.02 80.89 C201.26 75.51, 232.56 63.48, 253.9 54.02 C275.25 44.57, 303.14 31.24, 314.11 24.17 C325.07 17.09, 319.05 15.88, 319.69 11.59 C320.32 7.3, 323.01 -1.49, 317.93 -1.59 C312.85 -1.68, 312.88 1, 289.21 11.03 C265.53 21.06, 199.65 50.8, 175.88 58.59 C152.12 66.37, 176.21 67.39, 146.61 57.74 C117.01 48.09, 22.58 9.93, -1.7 0.69" stroke="none" stroke-width="0" fill="#912626" fill-rule="evenodd"></path><path d="M0.53 1.01 C0.78 2.66, -0.41 6.9, 0.8 10.33 C2.01 13.76, -3.59 15.03, 7.78 21.6 C19.15 28.17, 47.59 40.16, 69.02 49.73 C90.45 59.3, 120.78 72.44, 136.37 79.02 C151.97 85.6, 154.11 88.79, 162.6 89.22 C171.1 89.64, 171.83 87.72, 187.33 81.58 C202.84 75.43, 234.54 62.04, 255.66 52.32 C276.77 42.6, 303.44 29.84, 314.03 23.25 C324.63 16.66, 318.41 16.45, 319.22 12.8 C320.03 9.15, 323.52 1.41, 318.88 1.34 C314.25 1.27, 314.83 2.83, 291.41 12.36 C268 21.89, 202.82 50.9, 178.38 58.52 C153.95 66.15, 174.61 67.74, 144.8 58.12 C114.99 48.5, 23.8 10.32, -0.47 0.82 M-0.65 0.49 C-0.43 2.22, -1.1 7.65, 0.28 11.35 C1.65 15.06, -3.97 16.13, 7.59 22.71 C19.15 29.29, 48.38 41.48, 69.63 50.85 C90.89 60.22, 119.41 72.67, 135.12 78.94 C150.83 85.21, 155.07 88.19, 163.89 88.5 C172.71 88.8, 172.96 86.84, 188.04 80.79 C203.13 74.75, 233.61 61.47, 254.41 52.21 C275.21 42.95, 301.98 31.81, 312.81 25.21 C323.65 18.61, 318.89 16.98, 319.44 12.61 C319.99 8.24, 321.02 -0.83, 316.11 -0.99 C311.19 -1.16, 312.8 1.34, 289.93 11.64 C267.07 21.93, 202.7 53.08, 178.93 60.77 C155.16 68.45, 177.2 67.74, 147.31 57.73 C117.42 47.71, 24.2 10.44, -0.39 0.69" stroke="#000000" stroke-width="1" fill="none"></path></g></g><mask></mask><g stroke-linecap="round" transform="translate(1594.4480495091902 125.20986523420402) rotate(0 34.70588235294122 15.294117647058783)"><path d="M41.72 0.68 C48.94 1.09, 57.9 2.59, 62.67 5.04 C67.45 7.5, 70.79 12.18, 70.37 15.41 C69.95 18.64, 65.32 21.81, 60.17 24.41 C55.02 27, 46.55 30.35, 39.47 30.98 C32.38 31.62, 23.83 29.87, 17.67 28.21 C11.5 26.56, 4.98 24.16, 2.46 21.05 C-0.05 17.94, 0.1 12.76, 2.6 9.54 C5.09 6.32, 10.64 3.11, 17.42 1.71 C24.21 0.31, 38.53 1.4, 43.29 1.15 C48.05 0.89, 46.17 -0.1, 45.99 0.17 M42.83 0.31 C50.23 0.93, 58.99 4.09, 63.41 6.67 C67.83 9.25, 69.91 12.83, 69.36 15.78 C68.82 18.73, 65.12 21.8, 60.14 24.36 C55.17 26.92, 46.62 30.74, 39.49 31.14 C32.36 31.54, 23.65 28.61, 17.39 26.79 C11.13 24.96, 4.63 22.87, 1.94 20.2 C-0.74 17.53, -1.72 13.67, 1.27 10.78 C4.26 7.89, 13.11 4.62, 19.88 2.85 C26.64 1.08, 38.37 0.62, 41.85 0.16 C45.34 -0.3, 40.98 -0.35, 40.8 0.08" stroke="none" stroke-width="0" fill="#ffff"></path><path d="M49.98 1.9 C56.45 2.96, 62.58 5.94, 65.68 8.89 C68.78 11.85, 70.34 16.51, 68.56 19.63 C66.77 22.76, 61.16 25.7, 54.97 27.63 C48.78 29.57, 39.02 31.65, 31.4 31.22 C23.77 30.79, 14.36 27.36, 9.21 25.03 C4.06 22.7, 0.83 20.38, 0.49 17.24 C0.16 14.09, 2.96 8.9, 7.2 6.18 C11.43 3.47, 18.6 1.78, 25.88 0.96 C33.17 0.14, 46.37 1.05, 50.88 1.28 C55.39 1.51, 52.94 2.11, 52.92 2.34 M49.48 2.06 C56 3.27, 62.15 7.39, 65.42 10.09 C68.68 12.79, 71.01 15.25, 69.09 18.27 C67.17 21.29, 60.13 26.28, 53.89 28.23 C47.65 30.18, 39.03 30.59, 31.63 29.97 C24.22 29.35, 14.85 26.72, 9.47 24.49 C4.09 22.25, 0.04 19.39, -0.65 16.57 C-1.34 13.76, 0.74 10.25, 5.33 7.59 C9.93 4.94, 19.56 1.72, 26.94 0.64 C34.32 -0.44, 45.82 1.15, 49.62 1.12 C53.42 1.08, 50.18 0.33, 49.74 0.44" stroke="#000000" stroke-width="1" fill="none"></path></g><g stroke-linecap="round"><g transform="translate(1658.6245200974254 171.58696663165233) rotate(0 30.005590196596813 0.7700485078398742)" fill-rule="evenodd"><path d="M-1.54 -0.87 L45.34 14.27 L58.62 -12.79 L0.77 1.85" stroke="none" stroke-width="0" fill="#ffff" fill-rule="evenodd"></path><path d="M0 0 C15.56 6.21, 32.61 11.21, 44.56 14.89 M0 0 C10.1 4.02, 19.67 6.84, 44.56 14.89 M44.56 14.89 C51.27 6.31, 57.27 -6.18, 60.01 -13.35 M44.56 14.89 C47.62 7.57, 51.84 1.43, 60.01 -13.35 M60.01 -13.35 C47.44 -11.25, 32.93 -8.86, 0 0 M60.01 -13.35 C38.01 -8.81, 16.56 -4.43, 0 0 M0 0 C0 0, 0 0, 0 0 M0 0 C0 0, 0 0, 0 0" stroke="#000000" stroke-width="1" fill="none"></path></g></g><mask></mask><g stroke-linecap="round"><g transform="translate(1680.6245200974254 95.20986523420402) rotate(0 18.30882352941171 16.794117647058783)" fill-rule="evenodd"><path d="M-0.02 1.95 L4.56 13.57 L-9.62 20.68 L8.93 22.16 L19.66 38.43 L22.62 21.67 L45.79 18.22 L25.26 11 L31.26 -2.89 L15.47 5.37 L-1.27 0.82" stroke="none" stroke-width="0" fill="#ffff" fill-rule="evenodd"></path><path d="M0 0 C2.15 5.2, 3.28 9.24, 5.53 12.21 M0 0 C1.71 4.47, 4.37 8.17, 5.53 12.21 M5.53 12.21 C3.14 14.18, -2.21 17.36, -10.68 21.74 M5.53 12.21 C1.76 14.76, -1.84 16.93, -10.68 21.74 M-10.68 21.74 C-5.23 20.91, 0.18 24.08, 9.06 23.62 M-10.68 21.74 C-6.02 21.76, -2.32 21.58, 9.06 23.62 M9.06 23.62 C13.35 27.61, 14.86 29.81, 20.12 36.53 M9.06 23.62 C11.25 26.56, 14.39 30.34, 20.12 36.53 M20.12 36.53 C21.58 32, 23.55 25.23, 23 21.35 M20.12 36.53 C20.55 30.1, 22.88 25.23, 23 21.35 M23 21.35 C30.36 19.71, 35.64 18.8, 47.29 17.85 M23 21.35 C27.95 19.74, 35.64 20.08, 47.29 17.85 M47.29 17.85 C42.95 18.03, 39.62 15.28, 26.53 11.44 M47.29 17.85 C41.7 16.3, 36.52 13.13, 26.53 11.44 M26.53 11.44 C30.06 7.92, 31.88 1.58, 32.94 -2.94 M26.53 11.44 C28.06 7.84, 30.66 2.82, 32.94 -2.94 M32.94 -2.94 C27.14 -2.66, 26.13 -0.88, 15.44 5.06 M32.94 -2.94 C27.24 0.59, 22.36 2.83, 15.44 5.06 M15.44 5.06 C10.95 5.45, 10.4 2.68, 0 0 M15.44 5.06 C12.29 3.07, 7.55 2.4, 0 0 M0 0 C0 0, 0 0, 0 0 M0 0 C0 0, 0 0, 0 0" stroke="#000000" stroke-width="1" fill="none"></path></g></g><mask></mask><g stroke-linecap="round"><g transform="translate(1771.7240676087376 123.95647156904579) rotate(0 0 15)" fill-rule="evenodd"><path d="M0.59 -0.09 L38.93 15.83 L-1.51 29.66 L-37.55 13.24 L0.56 0.9 L1.96 -1.82" stroke="none" stroke-width="0" fill="#912626" fill-rule="evenodd"></path><path d="M0 0 C11.92 4.83, 27.84 10.81, 37.5 15 M0 0 C15.28 5.21, 28.3 11.96, 37.5 15 M37.5 15 C21.45 21.82, 5.32 25.22, -1.5 30 M37.5 15 C26.3 20.2, 15.94 23.94, -1.5 30 M-1.5 30 C-9.85 27.13, -22.48 21.51, -37.5 15 M-1.5 30 C-13.09 24.19, -24.8 20.55, -37.5 15 M-37.5 15 C-29.45 11.21, -22.37 8.62, 0 0 M-37.5 15 C-30.37 11.75, -21.45 8.77, 0 0 M0 0 C0 0, 0 0, 0 0 M0 0 C0 0, 0 0, 0 0 M0 0 C0 0, 0 0, 0 0 M0 0 C0 0, 0 0, 0 0" stroke="#000000" stroke-width="1" fill="none"></path></g></g><mask></mask><g stroke-linecap="round"><g transform="translate(1767.8673949126687 123.05101127426656) rotate(0 0.38461538461547207 15)"><path d="M0 0 C0.65 10.14, 1.3 19.71, 0.77 30 M0 0 C-0.07 10.3, 1.07 20.46, 0.77 30" stroke="#000000" stroke-width="1" fill="none"></path></g></g><mask></mask><g transform="translate(1639.1258540051763 10) rotate(0 63.32399749755848 22.5)"><text x="0" y="0" font-family="Virgil, Segoe UI Emoji" font-size="36px" fill="#1e1e1e" text-anchor="start" style="white-space: pre;" direction="ltr" dominant-baseline="text-before-edge">Master</text></g><g stroke-linecap="round" transform="translate(1545.4426566731768 690.5150628765267) rotate(0 160.76923076923072 66.15384615384613)"><path d="M161.61 -1.48 L322.68 68.85 L160.81 133.95 L0.92 68.52" stroke="none" stroke-width="0" fill="#c6302b" fill-rule="evenodd"></path><path d="M161 0 C216.42 23, 275.91 46.44, 321.54 67 M161 0 C216.88 22.96, 271.16 47.16, 321.54 67 M321.54 67 C271.29 84.58, 224.52 103.37, 161 132.31 M321.54 67 C263.6 92.25, 205.86 114.39, 161 132.31 M161 132.31 C104.03 108.19, 45.7 86.31, 0 67 M161 132.31 C100.65 108.73, 40.67 83.23, 0 67 M0 67 C57.39 43.22, 117.34 19.38, 161 0 M0 67 C33.92 53.2, 69.17 38.3, 161 0" stroke="#000000" stroke-width="1" fill="none"></path></g><g stroke-linecap="round"><g transform="translate(1543.4426566731763 755.9381397996038) rotate(0 160.13461538461547 44.30769230769229)" fill-rule="evenodd"><path d="M0.53 1.19 C0.2 2.73, -0.86 6.01, 0.41 9.58 C1.68 13.16, -2.84 16.02, 8.16 22.63 C19.16 29.23, 45.32 39.36, 66.43 49.24 C87.55 59.11, 118.91 75.66, 134.85 81.88 C150.79 88.11, 153.25 86.99, 162.08 86.58 C170.91 86.18, 172.5 85.21, 187.82 79.45 C203.14 73.68, 233.32 61.39, 254 51.99 C274.68 42.6, 300.72 29.98, 311.89 23.06 C323.05 16.15, 319.79 13.85, 321.01 10.5 C322.23 7.15, 324.16 2.22, 319.2 2.95 C314.25 3.69, 314.68 5.17, 291.3 14.93 C267.92 24.69, 203.26 53.89, 178.9 61.52 C154.54 69.14, 174.69 71.21, 145.14 60.68 C115.59 50.16, 25.83 8.13, 1.59 -1.64" stroke="none" stroke-width="0" fill="#912626" fill-rule="evenodd"></path><path d="M-0.43 0.87 C-0.54 2.96, -1.68 8.38, -0.62 11.85 C0.45 15.33, -5.69 15.53, 5.97 21.74 C17.62 27.94, 47.71 39.26, 69.3 49.06 C90.9 58.86, 119.92 73.96, 135.51 80.53 C151.1 87.09, 154.38 88.64, 162.85 88.44 C171.31 88.23, 170.84 85.46, 186.29 79.31 C201.75 73.16, 234.62 60.66, 255.61 51.53 C276.59 42.4, 301.49 30.92, 312.22 24.54 C322.95 18.15, 319.16 17.08, 320 13.23 C320.85 9.39, 322.21 1.65, 317.31 1.49 C312.42 1.33, 313.78 2.6, 290.62 12.27 C267.47 21.95, 202.5 51.85, 178.4 59.53 C154.29 67.2, 175.88 68.44, 145.99 58.33 C116.11 48.22, 23.44 8.46, -0.93 -1.12 M1.55 0.29 C1.84 2.07, 0.62 6.25, 1.77 10.02 C2.93 13.79, -2.9 16.28, 8.48 22.91 C19.86 29.55, 48.57 40.1, 70.06 49.82 C91.56 59.54, 121.77 74.99, 137.47 81.23 C153.17 87.48, 156.09 87.34, 164.26 87.3 C172.42 87.26, 171.44 87.04, 186.46 81 C201.47 74.95, 233.12 60.59, 254.33 51.01 C275.54 41.43, 302.66 29.8, 313.71 23.51 C324.76 17.22, 320.02 17.32, 320.63 13.27 C321.25 9.22, 322.08 -0.48, 317.38 -0.77 C312.67 -1.07, 315.46 1.61, 292.39 11.51 C269.32 21.41, 203.45 50.88, 178.96 58.63 C154.47 66.39, 175.47 67.59, 145.47 58.05 C115.46 48.51, 23.05 11.25, -1.09 1.4" stroke="#000000" stroke-width="1" fill="none"></path></g></g><mask></mask><g stroke-linecap="round"><g transform="translate(1542.9426566731763 706.4381397996038) rotate(0 160.13461538461547 44.30769230769229)" fill-rule="evenodd"><path d="M0.41 -1.72 C0.57 0.07, 0.74 8.06, 1.47 11.93 C2.2 15.81, -6.16 14.9, 4.8 21.52 C15.76 28.15, 45.48 42.28, 67.22 51.67 C88.95 61.07, 119.15 71.91, 135.19 77.89 C151.23 83.87, 155.13 87.11, 163.45 87.56 C171.78 88.02, 169.91 86.69, 185.13 80.61 C200.36 74.53, 233.33 60.87, 254.79 51.1 C276.25 41.34, 302.77 28.13, 313.91 22.04 C325.06 15.95, 321.06 17.79, 321.67 14.57 C322.28 11.35, 322.4 2.66, 317.57 2.7 C312.74 2.73, 316.06 4.93, 292.67 14.79 C269.28 24.64, 201.49 54.83, 177.25 61.84 C153.02 68.85, 176.84 66.83, 147.25 56.86 C117.66 46.89, 24.16 11.32, -0.3 2.02" stroke="none" stroke-width="0" fill="#912626" fill-rule="evenodd"></path><path d="M-0.62 0.55 C-0.67 2.24, -2.11 7.58, -0.73 11.04 C0.66 14.51, -3.76 14.8, 7.67 21.35 C19.1 27.89, 46.5 40.58, 67.88 50.31 C89.26 60.05, 120.29 73.56, 135.96 79.74 C151.64 85.93, 153.47 87.36, 161.93 87.42 C170.39 87.49, 171.21 85.96, 186.74 80.15 C202.27 74.34, 234.09 61.8, 255.12 52.57 C276.15 43.34, 302.13 31.35, 312.91 24.77 C323.68 18.19, 319.11 17.22, 319.78 13.1 C320.44 8.98, 321.49 0.09, 316.89 0.04 C312.29 -0.01, 315.3 2.89, 292.17 12.79 C269.04 22.7, 202.68 52.05, 178.11 59.48 C153.53 66.91, 174.45 67.15, 144.72 57.38 C115 47.61, 23.67 10.4, -0.25 0.87 M1.26 -0.21 C1.64 1.59, 0.58 8.69, 1.61 12.44 C2.63 16.2, -3.63 16.38, 7.42 22.32 C18.46 28.26, 46.71 38.45, 67.89 48.07 C89.07 57.69, 118.66 73.15, 134.49 80.04 C150.32 86.93, 154.09 89.04, 162.86 89.42 C171.63 89.79, 171.4 88.42, 187.14 82.28 C202.87 76.14, 235.99 62.33, 257.26 52.6 C278.53 42.86, 304.25 30.46, 314.76 23.88 C325.26 17.29, 319.96 16.93, 320.29 13.07 C320.61 9.2, 321.6 0.81, 316.73 0.69 C311.87 0.56, 314.12 2.66, 291.09 12.3 C268.05 21.95, 202.5 50.57, 178.52 58.57 C154.53 66.56, 176.95 69.89, 147.19 60.26 C117.43 50.63, 24.62 10.55, -0.05 0.76" stroke="#000000" stroke-width="1" fill="none"></path></g></g><mask></mask><g stroke-linecap="round" transform="translate(1543.4426566731768 639.5150628765267) rotate(0 160.76923076923072 66.15384615384613)"><path d="M161.92 1.52 L321.12 68.78 L162.3 130.96 L-0.24 68.65" stroke="none" stroke-width="0" fill="#c6302b" fill-rule="evenodd"></path><path d="M161 0 C200.77 19.25, 240.02 33.53, 321.54 67 M161 0 C216.46 22.71, 273.05 46.88, 321.54 67 M321.54 67 C288.06 80.22, 252.45 93.92, 161 132.31 M321.54 67 C282.68 82.75, 242.15 98.02, 161 132.31 M161 132.31 C115.9 116.1, 71.64 97.77, 0 67 M161 132.31 C122.87 117.53, 86.23 103.53, 0 67 M0 67 C42.94 46.91, 87.14 29.56, 161 0 M0 67 C43.53 51.15, 86.02 33.09, 161 0" stroke="#000000" stroke-width="1" fill="none"></path></g><g stroke-linecap="round" transform="translate(1541.399134405971 586.9421883825997) rotate(0 160.76923076923072 66.15384615384613)"><path d="M160.58 1.78 L322.84 65.66 L160.76 133.96 L0.44 67.86" stroke="none" stroke-width="0" fill="#c6302b" fill-rule="evenodd"></path><path d="M161 0 C198.22 14, 238.78 30.79, 321.54 67 M161 0 C205.85 20.4, 251.2 40.36, 321.54 67 M321.54 67 C278.74 82.97, 231.71 103.7, 161 132.31 M321.54 67 C274.51 84.73, 228.63 105.28, 161 132.31 M161 132.31 C97.74 106.98, 31.23 81.83, 0 67 M161 132.31 C108.63 111.53, 56.35 88.64, 0 67 M0 67 C52.67 45.55, 104.24 25.45, 161 0 M0 67 C35.92 51.18, 72.88 35.98, 161 0" stroke="#000000" stroke-width="1" fill="none"></path></g><g stroke-linecap="round"><g transform="translate(1540.8991344059705 653.8652653056769) rotate(0 160.13461538461547 44.30769230769232)" fill-rule="evenodd"><path d="M-1.11 1.96 C-0.92 3.59, -2.17 6.11, -0.77 9.28 C0.63 12.44, -3.87 14.19, 7.3 20.95 C18.47 27.7, 45.02 40.12, 66.25 49.82 C87.48 59.52, 118.45 72.98, 134.67 79.14 C150.9 85.31, 154.6 86.2, 163.59 86.81 C172.58 87.41, 173.23 88.25, 188.61 82.76 C203.98 77.28, 234.89 63.4, 255.84 53.89 C276.79 44.38, 303.65 32.28, 314.3 25.71 C324.96 19.14, 318.9 18.94, 319.75 14.49 C320.6 10.05, 324.15 -1.03, 319.4 -0.95 C314.65 -0.88, 314.76 4.67, 291.24 14.94 C267.73 25.22, 202.91 53.39, 178.3 60.7 C153.7 68.02, 173 68.73, 143.61 58.83 C114.23 48.93, 25.65 11.33, 2.01 1.33" stroke="none" stroke-width="0" fill="#912626" fill-rule="evenodd"></path><path d="M-0.45 0.6 C-0.61 2.57, -1.04 7.76, 0 11.13 C1.04 14.5, -5.53 14.44, 5.78 20.81 C17.09 27.18, 46.32 39.39, 67.86 49.36 C89.39 59.33, 119.22 73.92, 135.01 80.61 C150.79 87.31, 153.96 89.43, 162.58 89.54 C171.2 89.66, 171.29 87.68, 186.72 81.29 C202.15 74.91, 233.98 60.83, 255.16 51.24 C276.34 41.64, 302.9 30.23, 313.8 23.72 C324.71 17.2, 320.1 16.16, 320.61 12.14 C321.12 8.11, 321.77 -0.7, 316.88 -0.43 C311.99 -0.15, 314.28 3.75, 291.29 13.79 C268.3 23.83, 203.18 52.29, 178.95 59.84 C154.72 67.39, 175.71 69.2, 145.92 59.09 C116.12 48.97, 24.4 8.95, 0.2 -0.85 M1.52 -0.13 C1.11 2.08, -2.06 8.97, -0.95 12.57 C0.16 16.17, -3.28 15.21, 8.19 21.5 C19.66 27.78, 46.44 40.3, 67.86 50.28 C89.27 60.26, 120.7 74.91, 136.7 81.37 C152.7 87.82, 155.45 89.15, 163.86 88.99 C172.26 88.82, 171.53 86.77, 187.1 80.36 C202.68 73.96, 236.42 60.24, 257.32 50.55 C278.21 40.87, 301.76 28.76, 312.46 22.27 C323.17 15.77, 320.85 15.31, 321.55 11.59 C322.26 7.88, 322.01 -0.4, 316.71 -0.03 C311.41 0.34, 313.17 3.96, 289.74 13.82 C266.31 23.68, 200.2 51.55, 176.14 59.11 C152.07 66.67, 174.6 68.75, 145.35 59.2 C116.1 49.65, 25.11 11.39, 0.64 1.81" stroke="#000000" stroke-width="1" fill="none"></path></g></g><mask></mask><g stroke-linecap="round" transform="translate(1598.938667628166 637.1403307974605) rotate(0 34.70588235294122 15.29411764705884)"><path d="M21.21 2.03 C27.39 0.41, 36.84 -0.6, 43.86 0.31 C50.89 1.21, 59.15 4.6, 63.34 7.48 C67.54 10.36, 69.94 14.57, 69.03 17.6 C68.11 20.63, 63.31 23.65, 57.83 25.66 C52.34 27.67, 43.25 29.36, 36.12 29.68 C28.99 30, 20.98 29.53, 15.05 27.58 C9.11 25.63, 2.39 21.18, 0.51 17.99 C-1.38 14.79, -0.8 11.37, 3.74 8.42 C8.28 5.48, 22.66 1.71, 27.74 0.29 C32.83 -1.12, 34.29 -0.34, 34.25 -0.08 M34.09 1.38 C41.14 1.4, 49.23 2.47, 55.18 4.44 C61.13 6.41, 68.17 10.21, 69.79 13.23 C71.42 16.25, 68.53 20, 64.92 22.57 C61.31 25.13, 54.91 27.53, 48.11 28.64 C41.32 29.76, 31.17 29.89, 24.16 29.27 C17.14 28.65, 10.22 27.49, 6.02 24.93 C1.83 22.37, -1.88 17.16, -1.03 13.89 C-0.18 10.62, 5.52 7.63, 11.12 5.32 C16.73 3, 28.96 0.87, 32.58 0.01 C36.2 -0.85, 32.81 0.03, 32.82 0.14" stroke="none" stroke-width="0" fill="#ffff"></path><path d="M21.48 0.31 C28.13 -1.01, 38.83 -0.55, 46.07 0.54 C53.32 1.62, 61.01 4.11, 64.95 6.81 C68.89 9.5, 70.99 13.29, 69.73 16.69 C68.46 20.09, 63 24.84, 57.33 27.21 C51.67 29.57, 43.1 30.97, 35.74 30.86 C28.37 30.75, 19.13 28.66, 13.14 26.55 C7.15 24.45, 1.2 21.15, -0.19 18.23 C-1.58 15.32, 0.45 11.99, 4.82 9.07 C9.18 6.15, 21.7 2.13, 26.01 0.72 C30.31 -0.69, 30.64 0.3, 30.65 0.61 M38.45 1.33 C45.63 1.37, 54.54 1.58, 59.75 3.68 C64.97 5.78, 69.53 10.44, 69.75 13.94 C69.96 17.43, 65.73 22, 61.03 24.64 C56.33 27.27, 48.5 29.21, 41.53 29.74 C34.56 30.26, 25.56 28.97, 19.23 27.77 C12.9 26.58, 6.5 25.21, 3.54 22.58 C0.57 19.94, -0.76 15.14, 1.43 11.97 C3.62 8.8, 10.43 5.31, 16.66 3.56 C22.89 1.81, 34.92 2.15, 38.82 1.46 C42.71 0.77, 40.07 -0.82, 40.02 -0.58" stroke="#000000" stroke-width="1" fill="none"></path></g><g stroke-linecap="round"><g transform="translate(1663.1151382164012 683.5174321949086) rotate(0 30.005590196596813 0.7700485078398742)" fill-rule="evenodd"><path d="M0.44 0.86 L42.9 15.16 L61.66 -12.26 L1.45 -0.98" stroke="none" stroke-width="0" fill="#ffff" fill-rule="evenodd"></path><path d="M0 0 C11.36 4.02, 26.13 7.68, 44.56 14.89 M0 0 C15.49 5.64, 31.06 9.76, 44.56 14.89 M44.56 14.89 C49.75 3.34, 53.62 -5.48, 60.01 -13.35 M44.56 14.89 C50.25 4.84, 55.95 -6.86, 60.01 -13.35 M60.01 -13.35 C38.06 -9.92, 18.44 -4.83, 0 0 M60.01 -13.35 C46.17 -10.66, 33.48 -8.13, 0 0 M0 0 C0 0, 0 0, 0 0 M0 0 C0 0, 0 0, 0 0" stroke="#000000" stroke-width="1" fill="none"></path></g></g><mask></mask><g stroke-linecap="round"><g transform="translate(1685.1151382164012 607.1403307974605) rotate(0 18.308823529411825 16.794117647058897)" fill-rule="evenodd"><path d="M-0.25 1.15 L6.28 10.77 L-11.51 20.75 L10.96 25.35 L20.89 35.94 L21.24 20.85 L46.39 17.41 L26.65 11.97 L34.77 -4.88 L13.51 4.88 L-0.18 0.82" stroke="none" stroke-width="0" fill="#ffff" fill-rule="evenodd"></path><path d="M0 0 C0.72 1.69, 3.12 5.19, 5.53 12.21 M0 0 C1.53 4.21, 4.47 9.1, 5.53 12.21 M5.53 12.21 C-1.56 14.82, -3.77 20.19, -10.68 21.74 M5.53 12.21 C0.6 14.63, -4.11 18.54, -10.68 21.74 M-10.68 21.74 C-4.7 21.62, -3.54 23.15, 9.06 23.62 M-10.68 21.74 C-6.14 21.89, -0.25 21.96, 9.06 23.62 M9.06 23.62 C14.52 29.02, 18.37 32.49, 20.12 36.53 M9.06 23.62 C13.34 29.42, 17.94 34.11, 20.12 36.53 M20.12 36.53 C21.56 34.34, 20.59 29.47, 23 21.35 M20.12 36.53 C21.34 31.55, 21.12 27.27, 23 21.35 M23 21.35 C27.12 18.68, 33.66 19.62, 47.29 17.85 M23 21.35 C31.02 19.64, 39.79 18.81, 47.29 17.85 M47.29 17.85 C43.52 15.84, 37.94 16.28, 26.53 11.44 M47.29 17.85 C38.99 14.9, 30.64 12.41, 26.53 11.44 M26.53 11.44 C28.94 6.98, 31.82 1.91, 32.94 -2.94 M26.53 11.44 C28.29 6.7, 30.44 3.1, 32.94 -2.94 M32.94 -2.94 C25.67 -0.94, 22.94 0.89, 15.44 5.06 M32.94 -2.94 C26.78 0.01, 21.39 3.37, 15.44 5.06 M15.44 5.06 C10.22 4.46, 7.38 2.6, 0 0 M15.44 5.06 C9.9 2.92, 5.93 2.26, 0 0 M0 0 C0 0, 0 0, 0 0 M0 0 C0 0, 0 0, 0 0" stroke="#000000" stroke-width="1" fill="none"></path></g></g><mask></mask><g stroke-linecap="round"><g transform="translate(1776.2146857277135 635.886937132302) rotate(0 0 15)" fill-rule="evenodd"><path d="M1.72 1.81 L37.04 16.84 L0.22 31.88 L-38.5 15.48 L-0.31 -0.95 L-0.65 -0.88" stroke="none" stroke-width="0" fill="#912626" fill-rule="evenodd"></path><path d="M0 0 C10.88 3.77, 21.06 7.3, 37.5 15 M0 0 C14.14 5.59, 27.63 11.04, 37.5 15 M37.5 15 C30.12 20.22, 20.31 22.03, -1.5 30 M37.5 15 C24.52 20.21, 9.55 24.99, -1.5 30 M-1.5 30 C-12.45 26.56, -20.81 20.55, -37.5 15 M-1.5 30 C-12.08 24.58, -22.77 21.67, -37.5 15 M-37.5 15 C-25.21 10.05, -14.07 7.42, 0 0 M-37.5 15 C-28.53 11.63, -20.85 7.84, 0 0 M0 0 C0 0, 0 0, 0 0 M0 0 C0 0, 0 0, 0 0 M0 0 C0 0, 0 0, 0 0 M0 0 C0 0, 0 0, 0 0" stroke="#000000" stroke-width="1" fill="none"></path></g></g><mask></mask><g stroke-linecap="round"><g transform="translate(1772.3580130316445 634.9814768375228) rotate(0 0.38461538461547207 15)"><path d="M0 0 C1.03 6.2, 1.09 12.47, 0.77 30 M0 0 C0.41 7.31, 0.07 14.29, 0.77 30" stroke="#000000" stroke-width="1" fill="none"></path></g></g><mask></mask><g stroke-linecap="round" transform="translate(1556.669201970617 1166.5205834879757) rotate(0 160.76923076923072 66.15384615384613)"><path d="M160.58 -1.87 L320.14 67.11 L159.62 132.94 L-0.79 68.21" stroke="none" stroke-width="0" fill="#c6302b" fill-rule="evenodd"></path><path d="M161 0 C225.16 25.86, 288.49 52.47, 321.54 67 M161 0 C211.73 21.36, 260.3 43.26, 321.54 67 M321.54 67 C273.54 85.79, 223.04 104.41, 161 132.31 M321.54 67 C259.1 94.22, 197.16 119.58, 161 132.31 M161 132.31 C118.46 115.01, 73.47 97.75, 0 67 M161 132.31 C112.56 114.75, 65.51 95.12, 0 67 M0 67 C62.68 40.71, 121.03 13.19, 161 0 M0 67 C62.03 41.19, 124.6 15.84, 161 0" stroke="#000000" stroke-width="1" fill="none"></path></g><g stroke-linecap="round"><g transform="translate(1554.6692019706165 1231.9436604110526) rotate(0 160.13461538461547 44.30769230769229)" fill-rule="evenodd"><path d="M-1.22 0.96 C-1.11 2.55, -0.82 8.4, 0.82 11.78 C2.46 15.16, -2.9 14.63, 8.63 21.24 C20.17 27.85, 48.76 41.92, 70.03 51.44 C91.3 60.95, 121.17 71.78, 136.26 78.33 C151.35 84.87, 152.03 90.58, 160.56 90.71 C169.09 90.84, 171.52 85.95, 187.45 79.12 C203.38 72.3, 234.96 59.11, 256.12 49.74 C277.28 40.36, 303.8 29.49, 314.41 22.87 C325.02 16.25, 319.48 13.69, 319.76 10.02 C320.04 6.34, 321.08 0.22, 316.09 0.83 C311.11 1.44, 313.06 3.64, 289.84 13.69 C266.63 23.74, 201.18 53.84, 176.8 61.14 C152.43 68.44, 172.75 67.83, 143.57 57.49 C114.4 47.15, 25.46 8.81, 1.77 -0.91" stroke="none" stroke-width="0" fill="#912626" fill-rule="evenodd"></path><path d="M-0.25 1 C-0.23 2.8, -1.33 8.07, 0.01 11.43 C1.35 14.78, -3.65 14.88, 7.81 21.15 C19.26 27.42, 47.55 39.14, 68.74 49.05 C89.94 58.97, 119.27 74.14, 134.96 80.62 C150.65 87.11, 154.37 87.89, 162.88 87.97 C171.4 88.05, 170.45 87.19, 186.04 81.09 C201.63 74.99, 235.29 60.73, 256.42 51.36 C277.55 42, 302.27 31.25, 312.82 24.9 C323.36 18.54, 318.86 17.15, 319.7 13.25 C320.55 9.34, 322.52 1.39, 317.89 1.48 C313.27 1.57, 315.36 3.91, 291.94 13.78 C268.52 23.64, 201.67 53.12, 177.38 60.68 C153.09 68.24, 175.82 69.33, 146.2 59.13 C116.58 48.93, 24.06 9.32, -0.34 -0.54 M1.83 0.48 C1.69 2.43, -1.9 9.44, -0.93 13.03 C0.03 16.62, -4.06 15.89, 7.63 22.02 C19.32 28.15, 47.71 39.92, 69.21 49.81 C90.71 59.71, 120.77 74.64, 136.62 81.38 C152.47 88.12, 156.07 90.47, 164.31 90.25 C172.55 90.03, 170.85 86.64, 186.07 80.06 C201.28 73.48, 234.15 60.08, 255.58 50.75 C277 41.42, 303.85 30.31, 314.62 24.06 C325.38 17.82, 319.57 17.43, 320.18 13.29 C320.78 9.15, 323.17 -0.87, 318.26 -0.78 C313.35 -0.69, 314.22 3.61, 290.74 13.8 C267.26 24, 201.56 52.81, 177.4 60.39 C153.24 67.97, 175.38 69.56, 145.78 59.27 C116.18 48.97, 23.99 8.29, -0.19 -1.38" stroke="#000000" stroke-width="1" fill="none"></path></g></g><mask></mask><g stroke-linecap="round"><g transform="translate(1554.1692019706165 1182.4436604110526) rotate(0 160.13461538461547 44.30769230769229)" fill-rule="evenodd"><path d="M0.82 0.47 C1.35 2.07, 0.68 6.67, 1.94 10.55 C3.2 14.42, -2.72 17.46, 8.39 23.73 C19.51 29.99, 47.74 38.4, 68.62 48.12 C89.5 57.83, 117.93 75.5, 133.67 82.02 C149.42 88.54, 154.16 87.85, 163.09 87.24 C172.02 86.63, 171.55 84.41, 187.25 78.35 C202.96 72.3, 236.41 60.37, 257.32 50.91 C278.22 41.44, 302.46 27.96, 312.66 21.55 C322.87 15.14, 317.98 15.8, 318.56 12.45 C319.13 9.1, 320.78 1.13, 316.11 1.46 C311.45 1.79, 313.98 4.88, 290.57 14.41 C267.17 23.94, 199.55 51.45, 175.69 58.64 C151.83 65.84, 176.47 67.5, 147.42 57.59 C118.37 47.68, 26.35 9.18, 1.42 -0.8" stroke="none" stroke-width="0" fill="#912626" fill-rule="evenodd"></path><path d="M0.01 0.12 C0.24 1.7, -0.07 6.92, 1.11 10.45 C2.3 13.99, -3.92 14.68, 7.11 21.34 C18.15 28, 45.84 40.76, 67.32 50.41 C88.8 60.07, 120.27 72.81, 136 79.28 C151.72 85.74, 153.08 89.09, 161.67 89.21 C170.27 89.33, 171.88 86.02, 187.56 79.98 C203.23 73.93, 234.88 62.13, 255.72 52.93 C276.56 43.74, 301.84 31.43, 312.61 24.79 C323.38 18.15, 319.42 16.97, 320.36 13.1 C321.29 9.22, 323.08 1.4, 318.21 1.55 C313.34 1.69, 314.46 4.16, 291.15 13.95 C267.83 23.74, 202.62 52.95, 178.31 60.28 C154.01 67.62, 175.07 68.01, 145.31 57.96 C115.56 47.91, 23.98 9.45, -0.23 -0.03 M-1.44 -0.86 C-1.26 1.36, -0.58 7.68, 0.75 11.54 C2.09 15.41, -4.48 16.2, 6.56 22.32 C17.61 28.43, 45.71 38.72, 67.04 48.22 C88.37 57.73, 118.64 72.62, 134.54 79.33 C150.45 86.04, 153.5 88.03, 162.47 88.48 C171.44 88.93, 173.04 87.91, 188.38 82.02 C203.72 76.13, 233.52 62.83, 254.51 53.14 C275.49 43.46, 303.19 30.58, 314.3 23.9 C325.41 17.21, 320.43 17.15, 321.17 13.06 C321.91 8.96, 323.4 -0.85, 318.74 -0.68 C314.08 -0.51, 316.51 3.98, 293.19 14.06 C269.87 24.14, 203.62 52.55, 178.83 59.79 C154.04 67.03, 174.24 67.55, 144.43 57.48 C114.62 47.42, 23.86 9.1, -0.01 -0.6" stroke="#000000" stroke-width="1" fill="none"></path></g></g><mask></mask><g stroke-linecap="round" transform="translate(1554.669201970617 1115.5205834879757) rotate(0 160.76923076923072 66.15384615384613)"><path d="M160.21 1.21 L319.84 66.17 L162.44 131.57 L1.16 66.35" stroke="none" stroke-width="0" fill="#c6302b" fill-rule="evenodd"></path><path d="M161 0 C207.94 19.36, 256.55 37.14, 321.54 67 M161 0 C217.58 25.37, 276.37 48.45, 321.54 67 M321.54 67 C280.29 84.04, 236.65 102.21, 161 132.31 M321.54 67 C262.2 93.13, 201.89 116.39, 161 132.31 M161 132.31 C117.56 113.08, 71.24 96.38, 0 67 M161 132.31 C109.8 111.67, 57.84 89.47, 0 67 M0 67 C31.55 53.04, 64.18 40.18, 161 0 M0 67 C41.31 51.14, 83.18 33.98, 161 0" stroke="#000000" stroke-width="1" fill="none"></path></g><g stroke-linecap="round" transform="translate(1552.6256797034107 1062.9477089940488) rotate(0 160.76923076923072 66.15384615384613)"><path d="M159.3 -0.83 L322.98 66.26 L162.16 131.66 L-1.77 65.16" stroke="none" stroke-width="0" fill="#c6302b" fill-rule="evenodd"></path><path d="M161 0 C222.5 24.09, 287.84 52.15, 321.54 67 M161 0 C200.15 15.26, 239.07 33.06, 321.54 67 M321.54 67 C282.76 84.31, 242.26 99.5, 161 132.31 M321.54 67 C259.71 92.55, 197.96 118.13, 161 132.31 M161 132.31 C111.54 112.04, 61.49 92.81, 0 67 M161 132.31 C117.38 115.23, 73.04 99.18, 0 67 M0 67 C48.5 47.23, 99.32 25.05, 161 0 M0 67 C33.01 53.39, 66.54 39.86, 161 0" stroke="#000000" stroke-width="1" fill="none"></path></g><g stroke-linecap="round"><g transform="translate(1552.1256797034102 1129.8707859171257) rotate(0 160.13461538461547 44.30769230769229)" fill-rule="evenodd"><path d="M0.3 -1.59 C-0.37 0.35, -3.39 9.7, -2.29 13.4 C-1.18 17.11, -4.84 14.93, 6.93 20.62 C18.71 26.32, 46.66 37.84, 68.37 47.56 C90.08 57.29, 121.54 72.48, 137.2 78.94 C152.86 85.4, 154.29 86.04, 162.34 86.32 C170.39 86.61, 170.16 86.25, 185.5 80.64 C200.84 75.03, 233.26 61.87, 254.38 52.65 C275.5 43.44, 301.57 32.23, 312.21 25.33 C322.84 18.44, 316.96 15.56, 318.19 11.3 C319.42 7.04, 323.78 -0.35, 319.57 -0.22 C315.37 -0.08, 316.95 2.52, 292.96 12.13 C268.96 21.73, 199.94 49.49, 175.61 57.4 C151.27 65.31, 176.44 69.37, 146.94 59.59 C117.44 49.82, 22.87 8.74, -1.38 -1.25" stroke="none" stroke-width="0" fill="#912626" fill-rule="evenodd"></path><path d="M-1 0.7 C-1.07 2.59, -1.05 7.01, 0.04 10.66 C1.12 14.31, -5.92 16.17, 5.52 22.59 C16.96 29.01, 46.99 39.46, 68.67 49.19 C90.35 58.92, 120 74.24, 135.6 80.97 C151.21 87.7, 153.67 89.5, 162.28 89.56 C170.9 89.61, 171.6 87.42, 187.3 81.29 C203 75.15, 235.57 62.14, 256.48 52.74 C277.39 43.33, 302.06 31.5, 312.78 24.87 C323.5 18.24, 320.03 17.06, 320.81 12.94 C321.6 8.82, 322.38 0.16, 317.47 0.15 C312.55 0.14, 314.58 2.79, 291.31 12.89 C268.05 22.99, 202.25 53.07, 177.87 60.75 C153.49 68.43, 174.64 69.06, 145.06 58.97 C115.48 48.88, 24.42 10.12, 0.4 0.23 M0.67 0.02 C0.41 2.11, -2.08 8.44, -0.89 11.86 C0.29 15.28, -3.87 14.2, 7.8 20.56 C19.46 26.92, 47.47 40.4, 69.1 50.02 C90.73 59.64, 121.89 71.76, 137.61 78.25 C153.32 84.75, 155 88.66, 163.4 89.01 C171.79 89.36, 172.61 86.38, 187.99 80.36 C203.37 74.33, 234.57 62.23, 255.66 52.85 C276.76 43.46, 303.53 30.69, 314.56 24.02 C325.6 17.35, 321.36 16.68, 321.87 12.81 C322.38 8.95, 322.95 0.91, 317.61 0.85 C312.26 0.79, 313.03 2.51, 289.78 12.45 C266.54 22.39, 202.44 52.74, 178.15 60.5 C153.86 68.26, 173.57 69.15, 144.04 59.03 C114.5 48.91, 25.14 9.52, 0.94 -0.21" stroke="#000000" stroke-width="1" fill="none"></path></g></g><mask></mask><g stroke-linecap="round" transform="translate(1610.1652129256058 1113.1458514089093) rotate(0 34.70588235294122 15.29411764705884)"><path d="M43.19 1.11 C50.03 1.74, 58.48 3.42, 62.99 6.01 C67.5 8.61, 70.72 13.45, 70.25 16.68 C69.78 19.91, 65.54 22.92, 60.15 25.37 C54.77 27.82, 45.38 30.99, 37.94 31.38 C30.5 31.77, 21.74 29.66, 15.53 27.73 C9.32 25.81, 2.8 22.88, 0.68 19.86 C-1.45 16.83, -0.4 12.74, 2.77 9.6 C5.94 6.47, 12.75 2.48, 19.7 1.05 C26.66 -0.38, 40.25 1.04, 44.5 1.04 C48.75 1.03, 45.28 0.94, 45.19 1.01 M48.68 0.75 C55.32 1.63, 62.91 4.87, 66.39 8.02 C69.87 11.16, 71.66 16.48, 69.55 19.63 C67.44 22.79, 59.87 25.2, 53.74 26.94 C47.6 28.68, 39.84 30.22, 32.71 30.08 C25.59 29.95, 16.32 28.57, 10.99 26.14 C5.66 23.71, 1.3 19.01, 0.73 15.5 C0.16 12, 3.29 7.67, 7.57 5.14 C11.85 2.6, 19.62 1.05, 26.39 0.28 C33.16 -0.49, 44.54 0.05, 48.18 0.51 C51.83 0.97, 48.48 2.72, 48.25 3.04" stroke="none" stroke-width="0" fill="#ffff"></path><path d="M17.97 1.49 C24.06 -0.27, 35.31 -0.88, 42.79 -0.14 C50.27 0.61, 58.29 3.23, 62.83 5.95 C67.38 8.66, 70.32 12.95, 70.05 16.16 C69.78 19.37, 66.16 22.74, 61.21 25.2 C56.27 27.65, 47.79 30.43, 40.4 30.89 C33 31.36, 23.37 29.82, 16.85 27.98 C10.32 26.14, 3.64 22.89, 1.25 19.84 C-1.14 16.78, -0.95 12.83, 2.5 9.65 C5.95 6.47, 18.3 2.11, 21.95 0.74 C25.59 -0.63, 24.26 0.96, 24.37 1.41 M29.5 -0.79 C36.01 -1.43, 44.86 1.77, 51.22 3.48 C57.58 5.19, 65.03 6.82, 67.68 9.49 C70.33 12.16, 69.69 16.38, 67.11 19.48 C64.54 22.58, 58.81 26.51, 52.25 28.08 C45.69 29.65, 35.33 29.41, 27.73 28.9 C20.13 28.38, 11.45 27.23, 6.66 24.99 C1.86 22.75, -1.25 18.62, -1.03 15.48 C-0.82 12.34, 3.11 8.81, 7.95 6.16 C12.8 3.5, 24.29 0.6, 28.05 -0.43 C31.81 -1.47, 30.07 -0.34, 30.51 -0.07" stroke="#000000" stroke-width="1" fill="none"></path></g><g stroke-linecap="round"><g transform="translate(1674.341683513841 1159.5229528063574) rotate(0 30.005590196596813 0.7700485078399026)" fill-rule="evenodd"><path d="M-1.77 -1.84 L45.61 15.78 L58.88 -14.37 L1.18 -0.3" stroke="none" stroke-width="0" fill="#ffff" fill-rule="evenodd"></path><path d="M0 0 C14.41 5.52, 26.05 8.86, 44.56 14.89 M0 0 C17.27 6.08, 34.8 11.9, 44.56 14.89 M44.56 14.89 C49.5 6.7, 51.68 -0.65, 60.01 -13.35 M44.56 14.89 C48.64 6.74, 54.06 -1.86, 60.01 -13.35 M60.01 -13.35 C38.62 -7.63, 13.15 -4.68, 0 0 M60.01 -13.35 C36.9 -9.41, 14.25 -3.79, 0 0 M0 0 C0 0, 0 0, 0 0 M0 0 C0 0, 0 0, 0 0" stroke="#000000" stroke-width="1" fill="none"></path></g></g><mask></mask><g stroke-linecap="round"><g transform="translate(1696.3416835138414 1083.1458514089093) rotate(0 18.308823529411598 16.79411764705884)" fill-rule="evenodd"><path d="M1.6 0.04 L6.92 10.58 L-11.68 21.74 L10.84 21.65 L18.38 36.04 L24.41 20.46 L49.27 16.68 L26.3 13.13 L33.97 -3.54 L17.13 3.12 L0.69 1.84" stroke="none" stroke-width="0" fill="#ffff" fill-rule="evenodd"></path><path d="M0 0 C0.6 2.05, 3.47 4.29, 5.53 12.21 M0 0 C2.33 5.06, 3.97 9.77, 5.53 12.21 M5.53 12.21 C-0.87 15.1, -5.67 18.9, -10.68 21.74 M5.53 12.21 C-0.55 16.18, -6.46 19.44, -10.68 21.74 M-10.68 21.74 C-4.66 20.55, 5.62 23.3, 9.06 23.62 M-10.68 21.74 C-5.36 21.97, -1.26 21.9, 9.06 23.62 M9.06 23.62 C12.14 25.99, 15.19 28.19, 20.12 36.53 M9.06 23.62 C12.51 26.72, 14.12 29.56, 20.12 36.53 M20.12 36.53 C20.27 32.11, 21.85 25.06, 23 21.35 M20.12 36.53 C20.69 30.64, 23.06 25.02, 23 21.35 M23 21.35 C29.12 21.74, 36.49 18.4, 47.29 17.85 M23 21.35 C28.87 20.71, 34.37 20.71, 47.29 17.85 M47.29 17.85 C40.29 16.13, 34.06 15.82, 26.53 11.44 M47.29 17.85 C41.39 15.36, 34.53 13.63, 26.53 11.44 M26.53 11.44 C27.4 7.09, 30.76 0.25, 32.94 -2.94 M26.53 11.44 C27.53 7.77, 29.11 4.1, 32.94 -2.94 M32.94 -2.94 C25.26 1.13, 22.47 1.01, 15.44 5.06 M32.94 -2.94 C29.03 -1.85, 25.45 1.24, 15.44 5.06 M15.44 5.06 C9.29 3.41, 4.43 2.29, 0 0 M15.44 5.06 C11.46 3.78, 7.25 1.72, 0 0 M0 0 C0 0, 0 0, 0 0 M0 0 C0 0, 0 0, 0 0" stroke="#000000" stroke-width="1" fill="none"></path></g></g><mask></mask><g stroke-linecap="round"><g transform="translate(1787.4412310251532 1111.892457743751) rotate(0 0 15)" fill-rule="evenodd"><path d="M-1.05 -0.94 L37.75 13.86 L0.3 30.45 L-38.56 13.79 L1.51 -0.59 L1.19 0.09" stroke="none" stroke-width="0" fill="#912626" fill-rule="evenodd"></path><path d="M0 0 C14.01 4.1, 26.16 10.12, 37.5 15 M0 0 C13.44 6.07, 27.93 11.23, 37.5 15 M37.5 15 C26.79 19.17, 18.08 22.08, -1.5 30 M37.5 15 C25.11 19.85, 11.78 25.96, -1.5 30 M-1.5 30 C-10.93 25.18, -25 20.33, -37.5 15 M-1.5 30 C-9.43 25.74, -17.56 23.54, -37.5 15 M-37.5 15 C-27.68 9.99, -21.06 9.67, 0 0 M-37.5 15 C-28.61 10.26, -17.35 7.68, 0 0 M0 0 C0 0, 0 0, 0 0 M0 0 C0 0, 0 0, 0 0 M0 0 C0 0, 0 0, 0 0 M0 0 C0 0, 0 0, 0 0" stroke="#000000" stroke-width="1" fill="none"></path></g></g><mask></mask><g stroke-linecap="round"><g transform="translate(1783.5845583290843 1110.9869974489716) rotate(0 0.38461538461547207 15)"><path d="M0 0 C1.12 8.18, 1.2 16.55, 0.77 30 M0 0 C0.46 11.39, 0.38 22.04, 0.77 30" stroke="#000000" stroke-width="1" fill="none"></path></g></g><mask></mask><g transform="translate(1652.1798672666077 524.458395830564) rotate(0 46.94400024414051 22.5)"><text x="0" y="0" font-family="Virgil, Segoe UI Emoji" font-size="36px" fill="#1e1e1e" text-anchor="start" style="white-space: pre;" direction="ltr" dominant-baseline="text-before-edge">Slave</text></g><g transform="translate(1658.9157944450712 993.7279892635488) rotate(0 46.944000244140625 22.5)"><text x="0" y="0" font-family="Virgil, Segoe UI Emoji" font-size="36px" fill="#1e1e1e" text-anchor="start" style="white-space: pre;" direction="ltr" dominant-baseline="text-before-edge">Slave</text></g><g stroke-linecap="round"><g transform="translate(1699.1238675107484 331.4087261197192) rotate(0 -2.2453090594880223 92.05767143900664)"><path d="M1.05 -1.05 C0.18 29.91, -4.17 153.89, -5.11 184.86 M0.14 1.01 C-0.34 31.72, -1.8 152.84, -2.72 183.13" stroke="#1e1e1e" stroke-width="2" fill="none"></path></g><g transform="translate(1699.1238675107484 331.4087261197192) rotate(0 -2.2453090594880223 92.05767143900664)"><path d="M-10.8 159.47 C-10.27 165.62, -4.8 173.75, -2.72 183.13 M-10.8 159.47 C-7.55 168.78, -6.06 175.25, -2.72 183.13" stroke="#1e1e1e" stroke-width="2" fill="none"></path></g><g transform="translate(1699.1238675107484 331.4087261197192) rotate(0 -2.2453090594880223 92.05767143900664)"><path d="M6.29 159.81 C1.6 166, 1.83 174.03, -2.72 183.13 M6.29 159.81 C3.5 168.96, -1.05 175.31, -2.72 183.13" stroke="#1e1e1e" stroke-width="2" fill="none"></path></g></g><mask></mask><g stroke-linecap="round"><g transform="translate(1703.6144856297242 850.0751188614395) rotate(0 2.2453090594880223 68.48192631438292)"><path d="M1.17 -0.42 C2.13 22.23, 4.6 114.02, 5.18 137.05 M0.33 -1.69 C1.24 21.69, 3.99 115.71, 4.6 138.63" stroke="#1e1e1e" stroke-width="2" fill="none"></path></g><g transform="translate(1703.6144856297242 850.0751188614395) rotate(0 2.2453090594880223 68.48192631438292)"><path d="M-4.61 115.39 C-2.77 122.35, 0.42 127.35, 4.6 138.63 M-4.61 115.39 C-0.45 124.73, 2.43 132.26, 4.6 138.63" stroke="#1e1e1e" stroke-width="2" fill="none"></path></g><g transform="translate(1703.6144856297242 850.0751188614395) rotate(0 2.2453090594880223 68.48192631438292)"><path d="M12.48 114.91 C9.99 122.16, 8.83 127.28, 4.6 138.63 M12.48 114.91 C10.4 124.3, 7.03 132.01, 4.6 138.63" stroke="#1e1e1e" stroke-width="2" fill="none"></path></g></g><mask></mask></svg>