<svg version="1.1" xmlns="http://www.w3.org/2000/svg" viewBox="0 0 711.9051782587441 397.10759038068807" width="1423.8103565174881" height="794.2151807613761">
  <!-- svg-source:excalidraw -->
  
  <defs>
    <style class="style-fonts">
      @font-face {
        font-family: "Virgil";
        src: url("https://excalidraw.com/Virgil.woff2");
      }
      @font-face {
        font-family: "Cascadia";
        src: url("https://excalidraw.com/Cascadia.woff2");
      }
    </style>
    
  </defs>
  <rect x="0" y="0" width="711.9051782587441" height="397.10759038068807" fill="#ffffff"></rect><g stroke-linecap="round" transform="translate(34.84304773166946 172.3882769475834) rotate(0 151.90424230184624 70.72464722555594)"><path d="M-0.74 0.14 C122.09 3.56, 241.18 2.28, 304.54 1.11 M303.56 1.09 C303.65 38.45, 302.55 75.13, 304.3 142.84 M302.49 140.98 C202.56 139.57, 102.64 140.01, 1.11 142.72 M0.55 143.38 C-0.06 92.13, -1.07 44.8, 0.22 -0.21" stroke="#1e1e1e" stroke-width="1.5" fill="none" stroke-dasharray="8 9"></path></g><g stroke-linecap="round" transform="translate(52.67795877115748 186.53320639269458) rotate(0 134.06933126235822 33.824831281787624)"><path d="M0.63 -0.37 C105.26 1.95, 212.32 1.28, 268.88 0.34 M0.67 -0.68 C60.14 0.64, 121.38 0.48, 268.52 -0.22 M267.13 1 C267.07 14.91, 266.53 33.93, 268.59 67.99 M268.68 0.66 C267.44 14.26, 267.64 30.14, 268.72 67.52 M266.77 67.21 C168.31 67.51, 72.05 69.49, 0.48 68.04 M268.73 67.95 C210.49 66.07, 154.14 65.79, -0.29 67.18 M1.24 68.46 C0.7 53.02, -0.03 34.99, -0.73 -0.76 M-0.29 66.93 C-0.47 43.64, 0.07 19.26, 0.79 0.82" stroke="#1e1e1e" stroke-width="1" fill="none"></path></g><g transform="translate(127.13728942316413 207.8580376744822) rotate(0 59.61000061035156 12.5)"><text x="59.61000061035156" y="0" font-family="Virgil, Segoe UI Emoji" font-size="20px" fill="#1e1e1e" text-anchor="middle" style="white-space: pre;" direction="ltr" dominant-baseline="text-before-edge">애플리케이션 1</text></g><g transform="translate(140.6225201038053 271.4027830633617) rotate(0 42.30999755859375 12.5)"><text x="0" y="0" font-family="Virgil, Segoe UI Emoji" font-size="20px" fill="#1e1e1e" text-anchor="start" style="white-space: pre;" direction="ltr" dominant-baseline="text-before-edge">컨테이너 1</text></g><g stroke-linecap="round" transform="translate(10 118.13120871130837) rotate(0 244.79320233753214 134.48819083468985)"><path d="M0.39 0.23 C131.33 -0.3, 261.97 -1.6, 489.63 0.59 M0.24 0.26 C126.33 1.3, 252.72 1.21, 489.87 -0.2 M490.44 -0.57 C489.52 86.29, 489.34 173.94, 489.12 269.2 M489.55 -0.02 C488.18 102.23, 487.64 204.8, 490.11 269.45 M489.33 268.89 C347.83 271.1, 206.64 271.64, -0.45 268.31 M489.63 268.84 C354.86 270.93, 220.48 270.63, -0.39 269.27 M-0.1 267.64 C-0.37 207.36, 1.89 147.36, -1.46 0.03 M-0.43 268.71 C1.21 183.52, 0.06 97.26, -0.68 -0.49" stroke="#1e1e1e" stroke-width="1" fill="none"></path></g><g transform="translate(139.75745045357007 334.3936261339253) rotate(0 56.900001525878906 12.5)"><text x="0" y="0" font-family="Virgil, Segoe UI Emoji" font-size="20px" fill="#1e1e1e" text-anchor="start" style="white-space: pre;" direction="ltr" dominant-baseline="text-before-edge">호스트 컴퓨터</text></g><g stroke-linecap="round"><g transform="translate(119.4828488201997 45.14264283117524) rotate(0 0.15355280852259057 36.049911598804556)"><path d="M0.59 -1.69 C1.83 16.96, 0.31 29.75, 0.01 73.27 M-0.76 -0.59 C0.07 18.93, -0.04 37.94, 0.36 73.79" stroke="#1e1e1e" stroke-width="1" fill="none"></path></g></g><mask></mask><g transform="translate(68.12052468232821 10) rotate(0 51.36000061035156 12.5)"><text x="0" y="0" font-family="Virgil, Segoe UI Emoji" font-size="20px" fill="#1e1e1e" text-anchor="start" style="white-space: pre;" direction="ltr" dominant-baseline="text-before-edge">8080 포트</text></g><g stroke-linecap="round"><g transform="translate(195.10189254982265 141.33724361853652) rotate(0 0.166529918089509 16.776349345800483)"><path d="M0.99 -0.59 C-0.76 9.26, 0.58 19.95, -0.66 34.15 M0.85 -0.35 C0.05 9.71, 0.49 19.8, -0.18 32.05" stroke="#1e1e1e" stroke-width="1" fill="none"></path></g></g><mask></mask><g transform="translate(213.90627351647151 134.20454738980766) rotate(0 36.83000183105469 12.5)"><text x="0" y="0" font-family="Virgil, Segoe UI Emoji" font-size="20px" fill="#1e1e1e" text-anchor="start" style="white-space: pre;" direction="ltr" dominant-baseline="text-before-edge">80 포트</text></g><g stroke-linecap="round"><g transform="translate(120.53279561311183 118.64230107258106) rotate(0 36.03444464265215 10.937273820871368)"><path d="M-1.29 -0.89 C22.79 8.48, 44.21 15.2, 73.36 22.77" stroke="#1e1e1e" stroke-width="1.5" fill="none" stroke-dasharray="8 9"></path></g><g transform="translate(120.53279561311183 118.64230107258106) rotate(0 36.03444464265215 10.937273820871368)"><path d="M42.17 24.34 C52.46 26.18, 60.33 25.67, 72.14 24.14" stroke="#1e1e1e" stroke-width="1.5" fill="none"></path></g><g transform="translate(120.53279561311183 118.64230107258106) rotate(0 36.03444464265215 10.937273820871368)"><path d="M47.58 4.54 C56.42 12.36, 62.64 17.85, 72.14 24.14" stroke="#1e1e1e" stroke-width="1.5" fill="none"></path></g></g><mask></mask><g stroke-linecap="round"><g transform="translate(339.0526709841687 195.1566787989452) rotate(0 7.233448141557176 0.21422704335677167)"><path d="M0.78 0.3 C6.22 -1.31, 10.09 0.14, 14.18 0.86 M-0.32 0.18 C6.1 -0.29, 10.34 -0.34, 14.79 0.72" stroke="#1e1e1e" stroke-width="1" fill="none"></path></g></g><mask></mask><g transform="translate(371.4740174783908 180.89128634148747) rotate(0 58.680004119873104 12.5)"><text x="0" y="0" font-family="Virgil, Segoe UI Emoji" font-size="20px" fill="#1e1e1e" text-anchor="start" style="white-space: pre;" direction="ltr" dominant-baseline="text-before-edge">IP: 172.0.5.1</text></g><g stroke-linecap="round"><g transform="translate(502.943838478389 238.42139476900715) rotate(0 7.819618413905118 0.5426597020072847)"><path d="M-0.43 0.72 C3.07 -0.81, 8.97 0.91, 16.07 1.24 M0.73 -0.01 C5.85 -0.55, 11.31 0.62, 14.36 -0.12" stroke="#1e1e1e" stroke-width="1" fill="none"></path></g></g><mask></mask><g transform="translate(535.3651849726112 224.15600231154949) rotate(0 83.2699966430664 12.500000000000014)"><text x="0" y="0" font-family="Virgil, Segoe UI Emoji" font-size="20px" fill="#1e1e1e" text-anchor="start" style="white-space: pre;" direction="ltr" dominant-baseline="text-before-edge">IP: 192.168.2.150</text></g></svg>