<svg version="1.1" xmlns="http://www.w3.org/2000/svg" viewBox="0 0 1300.1782044681804 534.8177688184999" width="2600.356408936361" height="1069.6355376369997">
  <!-- svg-source:excalidraw -->
  
  <defs>
    <style class="style-fonts">
      @font-face {
        font-family: "Virgil";
        src: url("https://excalidraw.com/Virgil.woff2");
      }
      @font-face {
        font-family: "Cascadia";
        src: url("https://excalidraw.com/Cascadia.woff2");
      }
    </style>
    
  </defs>
  <rect x="0" y="0" width="1300.1782044681804" height="534.8177688184999" fill="#ffffff"></rect><g stroke-linecap="round" transform="translate(75.99642789221616 79.92455543805733) rotate(0 151.90424230184624 70.72464722555594)"><path d="M-0.74 0.14 C122.09 3.56, 241.18 2.28, 304.54 1.11 M303.56 1.09 C303.65 38.45, 302.55 75.13, 304.3 142.84 M302.49 140.98 C202.56 139.57, 102.64 140.01, 1.11 142.72 M0.55 143.38 C-0.06 92.13, -1.07 44.8, 0.22 -0.21" stroke="#1e1e1e" stroke-width="1.5" fill="none" stroke-dasharray="8 9"></path></g><g stroke-linecap="round" transform="translate(93.83133893170418 94.06948488316851) rotate(0 134.06933126235822 33.824831281787624)"><path d="M0.63 -0.37 C105.26 1.95, 212.32 1.28, 268.88 0.34 M0.67 -0.68 C60.14 0.64, 121.38 0.48, 268.52 -0.22 M267.13 1 C267.07 14.91, 266.53 33.93, 268.59 67.99 M268.68 0.66 C267.44 14.26, 267.64 30.14, 268.72 67.52 M266.77 67.21 C168.31 67.51, 72.05 69.49, 0.48 68.04 M268.73 67.95 C210.49 66.07, 154.14 65.79, -0.29 67.18 M1.24 68.46 C0.7 53.02, -0.03 34.99, -0.73 -0.76 M-0.29 66.93 C-0.47 43.64, 0.07 19.26, 0.79 0.82" stroke="#1e1e1e" stroke-width="1" fill="none"></path></g><g transform="translate(168.29066958371084 115.39431616495614) rotate(0 59.61000061035156 12.5)"><text x="59.61000061035156" y="0" font-family="Virgil, Segoe UI Emoji" font-size="20px" fill="#1e1e1e" text-anchor="middle" style="white-space: pre;" direction="ltr" dominant-baseline="text-before-edge">애플리케이션 1</text></g><g transform="translate(181.775900264352 178.93906155383564) rotate(0 42.30999755859375 12.5)"><text x="0" y="0" font-family="Virgil, Segoe UI Emoji" font-size="20px" fill="#1e1e1e" text-anchor="start" style="white-space: pre;" direction="ltr" dominant-baseline="text-before-edge">컨테이너 1</text></g><g stroke-linecap="round"><g transform="translate(379.80491249590864 100.2194542071299) rotate(0 16.51665078431995 -0.6294252284971549)"><path d="M0.97 -1.05 C9.43 -1.88, 20.03 -2.2, 32.05 -0.53 M-0.46 0.98 C7.82 -0.77, 14.36 0.19, 33.49 -2.24" stroke="#1e1e1e" stroke-width="1" fill="none"></path></g></g><mask></mask><g transform="translate(421.62470389884606 85.45952782962257) rotate(0 34.599998474121094 12.5)"><text x="0" y="0" font-family="Virgil, Segoe UI Emoji" font-size="20px" fill="#1e1e1e" text-anchor="start" style="white-space: pre;" direction="ltr" dominant-baseline="text-before-edge">호스트명</text></g><g stroke-linecap="round"><g transform="translate(381.102295266327 136.919208798821) rotate(0 16.21404478841157 -1.3422969858331157)"><path d="M0.3 0.81 C8.51 -1.51, 16.33 -0.72, 32.62 -3.5 M-0.5 0.08 C7.34 -0.74, 16.41 -0.85, 32.93 -1.53" stroke="#1e1e1e" stroke-width="1" fill="none"></path></g></g><mask></mask><g transform="translate(422.92208666926444 122.15928242131366) rotate(0 34.36000061035156 12.5)"><text x="0" y="0" font-family="Virgil, Segoe UI Emoji" font-size="20px" fill="#1e1e1e" text-anchor="start" style="white-space: pre;" direction="ltr" dominant-baseline="text-before-edge">IP 주소</text></g><g stroke-linecap="round"><g transform="translate(381.102295266327 170.7440400806086) rotate(0 17.244211155480457 -0.562748939654)"><path d="M1.3 0.33 C8.95 0.94, 13.27 0.58, 32.24 -1.86 M0.71 0.98 C7.9 -1.19, 16.2 -1.18, 33.78 -2.1" stroke="#1e1e1e" stroke-width="1" fill="none"></path></g></g><mask></mask><g transform="translate(422.92208666926444 155.9841137031013) rotate(0 65.55000305175776 12.5)"><text x="0" y="0" font-family="Virgil, Segoe UI Emoji" font-size="20px" fill="#1e1e1e" text-anchor="start" style="white-space: pre;" direction="ltr" dominant-baseline="text-before-edge">디스크 드라이브</text></g><g stroke-linecap="round" transform="translate(605.5626321950043 78.73267235679168) rotate(0 151.90424230184624 70.72464722555594)"><path d="M0.89 -0.68 C99.71 -1.49, 196.67 -0.31, 303.08 -0.42 M304.27 0.09 C306.5 35.9, 304.22 74.31, 303.67 142.94 M303.38 142.28 C197.69 141.98, 90.52 141.49, 1.1 141.44 M-1.91 142.62 C0.65 86.03, -1.09 33.09, 0.82 1.37" stroke="#1e1e1e" stroke-width="1.5" fill="none" stroke-dasharray="8 9"></path></g><g stroke-linecap="round" transform="translate(623.3975432344922 92.87760180190287) rotate(0 134.06933126235822 33.824831281787624)"><path d="M0.9 -0.27 C94.32 2, 190.22 0.54, 267.63 0.79 M0.78 -0.77 C80.62 -0.65, 161.43 0.49, 268.53 0.14 M268.57 0.44 C267.37 20.7, 269.46 41.87, 269.88 69.1 M268.97 -0.34 C267.46 20.39, 267.9 40.33, 267.45 67.45 M267.51 69.19 C211.22 67.53, 156.83 68.24, -0.52 66.95 M268.18 68.23 C200.89 67.92, 132.6 68.23, 0.33 68.33 M0.29 67.95 C0.72 43.66, -0.95 20.27, 1.94 -1.25 M0.83 66.72 C-0.05 41.53, 0.05 13.22, -0.95 -0.42" stroke="#1e1e1e" stroke-width="1" fill="none"></path></g><g transform="translate(693.4468702243895 114.2024330836905) rotate(0 64.02000427246094 12.5)"><text x="64.02000427246094" y="0" font-family="Virgil, Segoe UI Emoji" font-size="20px" fill="#1e1e1e" text-anchor="middle" style="white-space: pre;" direction="ltr" dominant-baseline="text-before-edge">애플리케이션 2</text></g><g transform="translate(711.3421045671402 177.74717847257) rotate(0 46.71999740600586 12.5)"><text x="0" y="0" font-family="Virgil, Segoe UI Emoji" font-size="20px" fill="#1e1e1e" text-anchor="start" style="white-space: pre;" direction="ltr" dominant-baseline="text-before-edge">컨테이너 2</text></g><g stroke-linecap="round"><g transform="translate(909.3711167986966 99.02757112586426) rotate(0 16.39262320848809 -0.5712429377419426)"><path d="M-0.65 1 C12.12 -0.12, 24.27 0.73, 31.25 -2.15 M0.5 0.17 C7.72 -0.96, 15.82 -0.88, 33.43 -2.13" stroke="#1e1e1e" stroke-width="1" fill="none"></path></g></g><mask></mask><g transform="translate(951.190908201634 84.26764474835693) rotate(0 34.599998474121094 12.5)"><text x="0" y="0" font-family="Virgil, Segoe UI Emoji" font-size="20px" fill="#1e1e1e" text-anchor="start" style="white-space: pre;" direction="ltr" dominant-baseline="text-before-edge">호스트명</text></g><g stroke-linecap="round"><g transform="translate(910.6684995691152 135.72732571755535) rotate(0 17.396810722096575 0.4381774953066184)"><path d="M0.09 1.98 C9.67 -1.02, 21.85 -1.51, 34.71 -0.84 M0.57 0.22 C10.76 -0.78, 20.96 -0.32, 33.2 -0.97" stroke="#1e1e1e" stroke-width="1" fill="none"></path></g></g><mask></mask><g transform="translate(952.4882909720526 120.96739934004802) rotate(0 34.36000061035156 12.5)"><text x="0" y="0" font-family="Virgil, Segoe UI Emoji" font-size="20px" fill="#1e1e1e" text-anchor="start" style="white-space: pre;" direction="ltr" dominant-baseline="text-before-edge">IP 주소</text></g><g stroke-linecap="round"><g transform="translate(910.6684995691152 169.55215699934297) rotate(0 15.609008621914995 -0.25003337945616977)"><path d="M-1.41 -0.14 C14.76 0.32, 26.87 -1.23, 32.63 -0.71 M-0.12 0.76 C10.67 0.37, 22.08 -1.16, 32.25 -1.26" stroke="#1e1e1e" stroke-width="1" fill="none"></path></g></g><mask></mask><g transform="translate(952.4882909720526 154.79223062183564) rotate(0 65.55000305175781 12.5)"><text x="0" y="0" font-family="Virgil, Segoe UI Emoji" font-size="20px" fill="#1e1e1e" text-anchor="start" style="white-space: pre;" direction="ltr" dominant-baseline="text-before-edge">디스크 드라이브</text></g><g stroke-linecap="round" transform="translate(10 10) rotate(0 551.1353589455473 257.40888440924994)"><path d="M0.51 0.68 C246.09 4.96, 491.1 3.99, 1102.47 0.4 M0.34 0.29 C258.32 -2.54, 517.44 -2.81, 1102.64 0.2 M1102.83 -0.65 C1100.96 195.9, 1101.61 391.59, 1102.44 514.12 M1102.05 -0.29 C1103.49 118.51, 1103.79 237.98, 1102.36 514.68 M1101.6 514.64 C768.44 511.5, 433.5 511.84, -0.03 515.18 M1102.44 514.99 C823.98 510.92, 545.5 511.33, -0.28 514.84 M0.03 514.58 C-1.38 403.44, -0.69 291.01, 0.19 -0.72 M-0.01 514.5 C0.72 407.68, 0.73 300.79, -0.15 -0.29" stroke="#1e1e1e" stroke-width="1" fill="none"></path></g><g stroke-linecap="round" transform="translate(49.50334364696437 257.2144731455172) rotate(0 520.5521251543494 40.777645054930645)"><path d="M-0.22 0.39 C303.36 2.68, 606.98 2.6, 1041.55 -0.49 M0.33 0.39 C366.44 -3.78, 733.22 -3.89, 1041.2 -0.2 M1042.46 1.45 C1042.39 19.39, 1039.99 37.74, 1043.07 79.76 M1041.35 0.49 C1041.53 22.99, 1040.61 46.1, 1040.51 81 M1041.58 81.06 C768.26 82.72, 495.76 82.46, -0.53 80.79 M1041.39 81.32 C709.63 85.45, 378.78 85.55, -0.33 81.55 M1.99 83.2 C1.66 61.2, 2.02 41.25, -0.74 -0.29 M-0.71 82.3 C0.55 50.86, -0.11 21.43, -0.38 0.65" stroke="#1e1e1e" stroke-width="1" fill="none"></path></g><g transform="translate(552.7554695642533 285.49211820044786) rotate(0 17.299999237060547 12.5)"><text x="17.299999237060547" y="0" font-family="Virgil, Segoe UI Emoji" font-size="20px" fill="#1e1e1e" text-anchor="middle" style="white-space: pre;" direction="ltr" dominant-baseline="text-before-edge">도커</text></g><g stroke-linecap="round" transform="translate(50.140494350947506 379.5474083103094) rotate(0 520.5521251543494 40.77764505493067)"><path d="M0.25 -0.23 C349.34 -0.08, 699.84 0.44, 1041.35 -0.12 M-0.23 0.15 C254.56 3.89, 508.89 4.43, 1041.48 0.3 M1041.21 1.16 C1041.89 24.62, 1039.46 48, 1042.83 80.23 M1040.94 -0.79 C1040.31 30.52, 1041.05 61.35, 1040.9 82.29 M1041.21 81.83 C749.68 84.55, 458.79 84.72, -0.18 82.04 M1041.08 81.81 C731.5 77.76, 421.53 78.02, 0.12 81.57 M-0.47 80.88 C0.75 48.8, -1.66 16.63, -1.85 0.82 M0.17 82.08 C1.09 60.22, 0.25 40.65, -0.18 0.41" stroke="#1e1e1e" stroke-width="1" fill="none"></path></g><g transform="translate(536.0926210311758 407.82505336524) rotate(0 34.599998474121094 12.5)"><text x="34.599998474121094" y="0" font-family="Virgil, Segoe UI Emoji" font-size="20px" fill="#1e1e1e" text-anchor="middle" style="white-space: pre;" direction="ltr" dominant-baseline="text-before-edge">운영체제</text></g><g transform="translate(554.1267012017314 485.3144251715357) rotate(0 25.94999885559082 12.5)"><text x="0" y="0" font-family="Virgil, Segoe UI Emoji" font-size="20px" fill="#1e1e1e" text-anchor="start" style="white-space: pre;" direction="ltr" dominant-baseline="text-before-edge">컴퓨터</text></g><g stroke-linecap="round"><g transform="translate(570.6926195052969 380.8217097182758) rotate(0 0.6327401716800978 -21.394773080396305)"><path d="M1.84 -1.85 C-0.56 -13.6, 1.8 -25.79, 0.56 -42.84 M-0.81 0.05 C1.26 -10.08, 0.85 -19.09, 2.07 -41.91" stroke="#1e1e1e" stroke-width="1" fill="none"></path></g></g><mask></mask><g stroke-linecap="round"><g transform="translate(236.8256506180519 255.94017173755066) rotate(0 1.6678545578529906 -17.636121543702984)"><path d="M0.93 -0.09 C-0.92 -12.35, 1.28 -23.62, 1.19 -35.65 M-0.17 0.58 C0.09 -8.27, 0.43 -18.32, 3.51 -35.85" stroke="#1e1e1e" stroke-width="1" fill="none"></path></g></g><mask></mask><g stroke-linecap="round"><g transform="translate(766.9350363321508 253.39156892161742) rotate(0 -0.7545468677376448 -16.70351780718704)"><path d="M-1.83 1.02 C-0.7 -6.64, 0.71 -13.03, -0.55 -34.43 M0.33 -0.53 C-0.65 -10.12, -1.59 -20.84, -1.84 -32.27" stroke="#1e1e1e" stroke-width="1" fill="none"></path></g></g><mask></mask><g stroke-linecap="round"><g transform="translate(1115.9610241913088 132.46240521269107) rotate(0 17.858032909246845 -0.8561034523119702)"><path d="M1.7 0.87 C8.24 -2.06, 19.88 0.43, 35.16 -2.04 M0.56 0.49 C7.96 -0.7, 15.33 -0.71, 33.06 -2.59" stroke="#1e1e1e" stroke-width="1" fill="none"></path></g></g><mask></mask><g transform="translate(1157.7808155942457 117.70247883518374) rotate(0 34.599998474121094 12.5)"><text x="0" y="0" font-family="Virgil, Segoe UI Emoji" font-size="20px" fill="#1e1e1e" text-anchor="start" style="white-space: pre;" direction="ltr" dominant-baseline="text-before-edge">호스트명</text></g><g stroke-linecap="round"><g transform="translate(1117.258406961727 169.16215980438216) rotate(0 17.429611024471683 -0.7464200280775799)"><path d="M1.27 1.3 C13.38 -0.54, 21.55 -0.59, 35.17 -0.73 M-0.31 0.48 C11.45 -1.41, 23.88 -1.6, 33.19 -2.79" stroke="#1e1e1e" stroke-width="1" fill="none"></path></g></g><mask></mask><g transform="translate(1159.0781983646648 154.40223342687483) rotate(0 34.36000061035156 12.5)"><text x="0" y="0" font-family="Virgil, Segoe UI Emoji" font-size="20px" fill="#1e1e1e" text-anchor="start" style="white-space: pre;" direction="ltr" dominant-baseline="text-before-edge">IP 주소</text></g><g stroke-linecap="round"><g transform="translate(1117.258406961727 202.98699108616978) rotate(0 16.023074776424778 -1.0355090745001974)"><path d="M-1.29 0.39 C14.06 0.47, 25.2 -1.02, 33.34 -2.47 M0.68 -0.29 C11.54 -1.34, 23.85 -1.52, 32.68 -1.45" stroke="#1e1e1e" stroke-width="1" fill="none"></path></g></g><mask></mask><g transform="translate(1159.0781983646648 188.22706470866245) rotate(0 65.55000305175781 12.5)"><text x="0" y="0" font-family="Virgil, Segoe UI Emoji" font-size="20px" fill="#1e1e1e" text-anchor="start" style="white-space: pre;" direction="ltr" dominant-baseline="text-before-edge">디스크 드라이브</text></g><g stroke-linecap="round"><g transform="translate(1116.8289695921794 240.7310305802095) rotate(0 17.28398647953452 -0.8400288437662198)"><path d="M0.18 -1.8 C8.02 -0.98, 16.8 -1.45, 34.38 -1.33 M0.33 0.26 C8.09 -0.07, 16.75 -1.71, 34.2 -1.94" stroke="#1e1e1e" stroke-width="1" fill="none"></path></g></g><mask></mask><g transform="translate(1158.6487609951173 225.4334260427242) rotate(0 20.190000534057617 12.5)"><text x="0" y="0" font-family="Virgil, Segoe UI Emoji" font-size="20px" fill="#1e1e1e" text-anchor="start" style="white-space: pre;" direction="ltr" dominant-baseline="text-before-edge">CPU</text></g><g stroke-linecap="round"><g transform="translate(1115.215935112245 277.2931454587085) rotate(0 16.819269734925342 -0.3111648088490142)"><path d="M1.16 1.83 C12.42 1.4, 25.96 -1.33, 31.26 -1.21 M0.53 0.63 C9.26 0.08, 19.99 -0.18, 33.11 -2.45" stroke="#1e1e1e" stroke-width="1" fill="none"></path></g></g><mask></mask><g transform="translate(1157.035726515183 262.5332190812012) rotate(0 25.94999885559082 12.5)"><text x="0" y="0" font-family="Virgil, Segoe UI Emoji" font-size="20px" fill="#1e1e1e" text-anchor="start" style="white-space: pre;" direction="ltr" dominant-baseline="text-before-edge">메모리</text></g></svg>