<svg version="1.1" xmlns="http://www.w3.org/2000/svg" viewBox="0 0 573.4485115332296 380.13793199486895" width="1146.8970230664593" height="760.2758639897379">
  <!-- svg-source:excalidraw -->
  
  <defs>
    <style class="style-fonts">
      @font-face {
        font-family: "Virgil";
        src: url("https://excalidraw.com/Virgil.woff2");
      }
      @font-face {
        font-family: "Cascadia";
        src: url("https://excalidraw.com/Cascadia.woff2");
      }
    </style>
    
  </defs>
  <rect x="0" y="0" width="573.4485115332296" height="380.13793199486895" fill="#ffffff"></rect><g stroke-linecap="round" transform="translate(10 130.275631499229) rotate(0 276.7242557666148 119.93115024781996)"><path d="M0.11 0.16 C136.77 -1.86, 273.04 -2.08, 552.67 -0.73 M0.13 0.39 C175.47 0.14, 350.05 0.12, 553.31 -0.14 M553.94 0.67 C554.78 84.51, 552.29 167.76, 553 239.29 M553.41 0.2 C555.89 66.63, 554.26 134.33, 553.05 240.68 M553.08 239.44 C373.32 241.57, 192.41 241.15, 0.23 239.96 M553.75 239.84 C348.65 239.18, 143.3 239.48, 0.06 240.02 M-0.44 238.56 C2.46 149.39, 1.99 56.66, -0.2 1.3 M-0.4 239.09 C-0.02 168.64, -0.27 96.38, -0.36 0.12" stroke="#1e1e1e" stroke-width="1" fill="none"></path></g><g stroke-linecap="round" transform="translate(26.04360276774122 159.21076773438625) rotate(0 146.1165352237654 35.41177206599491)"><path d="M-0.1 -0.72 C114.38 -2.75, 227.11 -3.07, 291.75 0 M-0.07 0.15 C59.06 -1.09, 118.55 -2.03, 292.88 0.36 M293.04 1.73 C293.94 24.77, 291.37 44.63, 292.63 72.09 M292.95 -0.61 C291.77 17.71, 292.68 35.96, 292.85 70.01 M292.04 69.65 C192.96 71.26, 90.72 71.9, 1.09 72.31 M291.64 71.49 C189.7 72.1, 86.66 71.1, 0.15 70.17 M0.61 72.62 C-0.47 52.38, -1.85 31.97, -1.17 -0.6 M0.07 69.91 C1.41 45.4, 0.35 21.68, 0.43 -0.11" stroke="#1e1e1e" stroke-width="1" fill="none"></path></g><g transform="translate(132.56013951738555 182.12253980038116) rotate(0 39.599998474121094 12.5)"><text x="39.599998474121094" y="0" font-family="Virgil, Segoe UI Emoji" font-size="20px" fill="#1e1e1e" text-anchor="middle" style="white-space: pre;" direction="ltr" dominant-baseline="text-before-edge">도커 엔진</text></g><g stroke-linecap="round" transform="translate(26.38740638003236 261.32044058487656) rotate(0 146.1165352237654 35.41177206599491)"><path d="M1.45 -0.97 C76.69 3.12, 155.11 2.9, 291.82 0.18 M-0.6 0.13 C59.43 -2.36, 119.47 -1.36, 291.74 -0.31 M291.9 1.75 C291.51 24.75, 292.58 52.84, 292.39 69.29 M293 -0.29 C291.83 22.69, 293.17 45.39, 291.45 71.62 M291.28 72.24 C197.6 70.01, 101.83 72.42, -0.88 72.08 M292.2 71.12 C227.84 70.63, 162.56 71.76, -0.74 70.38 M0.26 72.79 C2.14 51.41, -1.27 34.35, 0.81 1.08 M-0.3 71.33 C0 48.72, 0.86 24.28, -0.47 -0.26" stroke="#1e1e1e" stroke-width="1" fill="none"></path></g><g transform="translate(137.9039431296767 284.2322126508715) rotate(0 34.599998474121094 12.5)"><text x="34.599998474121094" y="0" font-family="Virgil, Segoe UI Emoji" font-size="20px" fill="#1e1e1e" text-anchor="middle" style="white-space: pre;" direction="ltr" dominant-baseline="text-before-edge">운영체제</text></g><g stroke-linecap="round" transform="translate(341.6553188510745 159.21076773438625) rotate(0 101.42206562590775 85.60709946051198)"><path d="M-0.79 -1.1 C79.1 1.32, 162.94 2.61, 201.67 -1.53 M0.21 -0.17 C58.06 -1.25, 116.82 -1.1, 203.59 0.65 M201.78 -1.17 C201.56 41.55, 203.54 79.41, 202.81 173.17 M201.97 0.91 C204.26 40.09, 204.62 78.82, 202.2 171.65 M204.2 169.93 C152.78 170.07, 101.88 170.47, -1.73 172.99 M202.32 171.83 C162.23 172.44, 121.35 172.54, -0.24 171.73 M0.77 171.92 C0.43 130.84, 2.37 92.78, -1.4 -0.68 M-0.74 172.01 C-0.75 132.21, -1.03 93.79, 0.01 -0.3" stroke="#1e1e1e" stroke-width="1" fill="none"></path></g><g transform="translate(394.8273844769823 219.81786719489824) rotate(0 48.25 25)"><text x="48.25" y="0" font-family="Virgil, Segoe UI Emoji" font-size="20px" fill="#1e1e1e" text-anchor="middle" style="white-space: pre;" direction="ltr" dominant-baseline="text-before-edge">도커 이미지</text><text x="48.25" y="25" font-family="Virgil, Segoe UI Emoji" font-size="20px" fill="#1e1e1e" text-anchor="middle" style="white-space: pre;" direction="ltr" dominant-baseline="text-before-edge">캐시</text></g><g stroke-linecap="round"><g transform="translate(171.128727154633 84.9491874794843) rotate(0 -1.2247742504945904 36.65139233156326)"><path d="M-1.71 0.31 C-1.58 22.67, -2.5 46.81, -1.78 74.1 M-0.43 -0.79 C0.45 20.44, -1.7 41.42, -2.23 72.31" stroke="#1e1e1e" stroke-width="1" fill="none"></path></g></g><mask></mask><g stroke-linecap="round"><g transform="translate(167.0030838071384 229.34670464179365) rotate(0 0.22918858732776926 16.166328876214436)"><path d="M1.37 -0.63 C0.21 11.3, 0.21 19.75, 0.51 32.96 M-0.66 0.59 C-1.43 11.32, -0.09 20.83, -0.86 31.26" stroke="#1e1e1e" stroke-width="1" fill="none"></path></g></g><mask></mask><g stroke-linecap="round"><g transform="translate(318.276673215272 194.27873618808994) rotate(0 12.392858394735299 -1.3683892762295926)"><path d="M0.23 -1.43 C6.13 -0.56, 12.81 0.32, 24.55 -2.19" stroke="#1e1e1e" stroke-width="1.5" fill="none" stroke-dasharray="8 9"></path></g></g><mask></mask><g transform="translate(63.17439289519211 86.32440192864924) rotate(0 40.91999816894531 12.5)"><text x="0" y="0" font-family="Virgil, Segoe UI Emoji" font-size="20px" fill="#1e1e1e" text-anchor="start" style="white-space: pre;" direction="ltr" dominant-baseline="text-before-edge">도커 API</text></g><g transform="translate(252.26637965535917 342.8018966978939) rotate(0 56.900001525878906 12.5)"><text x="0" y="0" font-family="Virgil, Segoe UI Emoji" font-size="20px" fill="#1e1e1e" text-anchor="start" style="white-space: pre;" direction="ltr" dominant-baseline="text-before-edge">호스트 컴퓨터</text></g><g stroke-linecap="round" transform="translate(228.20012679497427 10) rotate(0 149.5545713466775 17.5)"><path d="M-0.78 0.51 C104.45 2.85, 208.5 1.42, 298.74 0.99 M0.73 0.21 C112.23 -1.69, 223.66 -1.91, 298.43 0.65 M299.25 -0.85 C299.55 9.54, 298.53 19.55, 299.55 36.07 M299.09 -0.43 C299.54 9.75, 298.39 20.24, 299.46 35.64 M299.1 36.43 C226.04 33.98, 153.3 33.93, 0.82 34.54 M299.43 35.21 C234.7 32.36, 169.43 33.32, -0.28 35.53 M0.27 33.02 C0.28 20.13, 0.7 6.7, 1.59 -1.21 M0.44 35.66 C0.56 21.62, -0.85 10.54, 0.57 -0.45" stroke="#1e1e1e" stroke-width="1" fill="none"></path></g><g transform="translate(264.81469570024547 15) rotate(0 112.94000244140625 12.5)"><text x="112.94000244140625" y="0" font-family="Virgil, Segoe UI Emoji" font-size="20px" fill="#1e1e1e" text-anchor="middle" style="white-space: pre;" direction="ltr" dominant-baseline="text-before-edge">docker container run ...</text></g><g stroke-linecap="round"><g transform="translate(228.20012679497427 23.064537267066086) rotate(0 -29.94294894012114 29.643771658896732)"><path d="M0.05 0.22 C-6.46 1.18, -28.88 -3.75, -38.87 6.1 C-48.87 15.95, -56.69 50.17, -59.93 59.31 M-1.39 -0.72 C-7.55 0.41, -27.37 -2.53, -36.72 7.59 C-46.06 17.71, -53.97 51.49, -57.46 60" stroke="#1e1e1e" stroke-width="1" fill="none"></path></g><g transform="translate(228.20012679497427 23.064537267066086) rotate(0 -29.94294894012114 29.643771658896732)"><path d="M-58.17 29.09 C-58.25 38.71, -59.76 50.59, -56.64 58.61 M-59.2 30.74 C-57.39 38.99, -57.47 49.56, -58.02 59.45" stroke="#1e1e1e" stroke-width="1" fill="none"></path></g><g transform="translate(228.20012679497427 23.064537267066086) rotate(0 -29.94294894012114 29.643771658896732)"><path d="M-39.18 35.22 C-45.27 42.92, -52.77 52.87, -56.64 58.61 M-40.21 36.88 C-44.26 43.1, -50.15 51.79, -58.02 59.45" stroke="#1e1e1e" stroke-width="1" fill="none"></path></g></g><mask></mask></svg>