<svg version="1.1" xmlns="http://www.w3.org/2000/svg" viewBox="0 0 1300.1782044681804 606.149419994835" width="2600.356408936361" height="1212.29883998967">
  <!-- svg-source:excalidraw -->
  
  <defs>
    <style class="style-fonts">
      @font-face {
        font-family: "Virgil";
        src: url("https://excalidraw.com/Virgil.woff2");
      }
      @font-face {
        font-family: "Cascadia";
        src: url("https://excalidraw.com/Cascadia.woff2");
      }
    </style>
    
  </defs>
  <rect x="0" y="0" width="1300.1782044681804" height="606.149419994835" fill="#ffffff"></rect><g stroke-linecap="round" transform="translate(75.99642789221627 82.51843366265138) rotate(0 151.90424230184624 103.79659458912946)"><path d="M-0.74 0.14 C122.09 3.56, 241.18 2.28, 304.54 1.11 M303.59 0.97 C303.41 55.99, 302.43 110.41, 304.25 208.83 M302.49 207.12 C202.56 205.72, 102.64 206.16, 1.11 208.86 M0.49 209.31 C0.32 136.29, -0.57 66.74, 0.19 -0.18" stroke="#1e1e1e" stroke-width="1.5" fill="none" stroke-dasharray="8 9"></path></g><g stroke-linecap="round" transform="translate(95.77827429931074 95.38779778372185) rotate(0 134.06933126235822 33.824831281787624)"><path d="M0.63 -0.37 C105.26 1.95, 212.32 1.28, 268.88 0.34 M0.67 -0.68 C60.14 0.64, 121.38 0.48, 268.52 -0.22 M267.13 1 C267.07 14.91, 266.53 33.93, 268.59 67.99 M268.68 0.66 C267.44 14.26, 267.64 30.14, 268.72 67.52 M266.77 67.21 C168.31 67.51, 72.05 69.49, 0.48 68.04 M268.73 67.95 C210.49 66.07, 154.14 65.79, -0.29 67.18 M1.24 68.46 C0.7 53.02, -0.03 34.99, -0.73 -0.76 M-0.29 66.93 C-0.47 43.64, 0.07 19.26, 0.79 0.82" stroke="#1e1e1e" stroke-width="1" fill="none"></path></g><g transform="translate(170.2376049513174 116.71262906550947) rotate(0 59.61000061035156 12.5)"><text x="59.61000061035156" y="0" font-family="Virgil, Segoe UI Emoji" font-size="20px" fill="#1e1e1e" text-anchor="middle" style="white-space: pre;" direction="ltr" dominant-baseline="text-before-edge">애플리케이션 1</text></g><g transform="translate(181.77590026435212 250.27071273017066) rotate(0 47.30999755859375 12.5)"><text x="0" y="0" font-family="Virgil, Segoe UI Emoji" font-size="20px" fill="#1e1e1e" text-anchor="start" style="white-space: pre;" direction="ltr" dominant-baseline="text-before-edge">가상 머신 1</text></g><g stroke-linecap="round"><g transform="translate(380.45185535289613 102.97516254280711) rotate(0 16.51665078431995 -0.6294252284971549)"><path d="M0.97 -1.05 C9.43 -1.88, 20.03 -2.2, 32.05 -0.53 M-0.46 0.98 C7.82 -0.77, 14.36 0.19, 33.49 -2.24" stroke="#1e1e1e" stroke-width="1" fill="none"></path></g></g><mask></mask><g transform="translate(422.27164675583356 88.21523616529979) rotate(0 34.599998474121094 12.5)"><text x="0" y="0" font-family="Virgil, Segoe UI Emoji" font-size="20px" fill="#1e1e1e" text-anchor="start" style="white-space: pre;" direction="ltr" dominant-baseline="text-before-edge">호스트명</text></g><g stroke-linecap="round"><g transform="translate(381.7492381233145 139.6749171344982) rotate(0 16.21404478841157 -1.3422969858331157)"><path d="M0.3 0.81 C8.51 -1.51, 16.33 -0.72, 32.62 -3.5 M-0.5 0.08 C7.34 -0.74, 16.41 -0.85, 32.93 -1.53" stroke="#1e1e1e" stroke-width="1" fill="none"></path></g></g><mask></mask><g transform="translate(423.56902952625194 124.91499075699087) rotate(0 34.36000061035156 12.5)"><text x="0" y="0" font-family="Virgil, Segoe UI Emoji" font-size="20px" fill="#1e1e1e" text-anchor="start" style="white-space: pre;" direction="ltr" dominant-baseline="text-before-edge">IP 주소</text></g><g stroke-linecap="round"><g transform="translate(381.7492381233145 173.49974841628583) rotate(0 17.244211155480457 -0.562748939654)"><path d="M1.3 0.33 C8.95 0.94, 13.27 0.58, 32.24 -1.86 M0.71 0.98 C7.9 -1.19, 16.2 -1.18, 33.78 -2.1" stroke="#1e1e1e" stroke-width="1" fill="none"></path></g></g><mask></mask><g transform="translate(423.56902952625194 158.7398220387785) rotate(0 65.55000305175787 12.5)"><text x="0" y="0" font-family="Virgil, Segoe UI Emoji" font-size="20px" fill="#1e1e1e" text-anchor="start" style="white-space: pre;" direction="ltr" dominant-baseline="text-before-edge">디스크 드라이브</text></g><g stroke-linecap="round" transform="translate(10 10) rotate(0 551.1353589455473 293.0747099974175)"><path d="M0.51 0.68 C246.09 4.96, 491.1 3.99, 1102.47 0.4 M0.34 0.29 C258.32 -2.54, 517.44 -2.81, 1102.64 0.2 M1102.83 -0.65 C1100.78 223.04, 1101.43 445.88, 1102.44 585.45 M1102.05 -0.29 C1103.66 134.97, 1103.96 270.9, 1102.36 586.01 M1101.6 585.97 C768.44 582.83, 433.5 583.17, -0.03 586.51 M1102.44 586.32 C823.98 582.25, 545.5 582.66, -0.28 586.17 M0.03 585.91 C-1.48 459.23, -0.79 331.27, 0.19 -0.72 M-0.01 585.83 C0.78 464.15, 0.78 342.42, -0.15 -0.29" stroke="#1e1e1e" stroke-width="1" fill="none"></path></g><g stroke-linecap="round" transform="translate(49.50334364696448 328.54612432185223) rotate(0 520.5521251543494 40.777645054930645)"><path d="M-0.22 0.39 C303.36 2.68, 606.98 2.6, 1041.55 -0.49 M0.33 0.39 C366.44 -3.78, 733.22 -3.89, 1041.2 -0.2 M1042.46 1.45 C1042.39 19.39, 1039.99 37.74, 1043.07 79.76 M1041.35 0.49 C1041.53 22.99, 1040.61 46.1, 1040.51 81 M1041.58 81.06 C768.26 82.72, 495.76 82.46, -0.53 80.79 M1041.39 81.32 C709.63 85.45, 378.78 85.55, -0.33 81.55 M1.99 83.2 C1.66 61.2, 2.02 41.25, -0.74 -0.29 M-0.71 82.3 C0.55 50.86, -0.11 21.43, -0.38 0.65" stroke="#1e1e1e" stroke-width="1" fill="none"></path></g><g transform="translate(518.155467275435 356.8237693767829) rotate(0 51.90000152587896 12.5)"><text x="51.900001525878906" y="0" font-family="Virgil, Segoe UI Emoji" font-size="20px" fill="#1e1e1e" text-anchor="middle" style="white-space: pre;" direction="ltr" dominant-baseline="text-before-edge">하이퍼바이저</text></g><g stroke-linecap="round" transform="translate(50.14049435094762 450.8790594866444) rotate(0 520.5521251543494 40.77764505493067)"><path d="M0.25 -0.23 C349.34 -0.08, 699.84 0.44, 1041.35 -0.12 M-0.23 0.15 C254.56 3.89, 508.89 4.43, 1041.48 0.3 M1041.21 1.16 C1041.89 24.62, 1039.46 48, 1042.83 80.23 M1040.94 -0.79 C1040.31 30.52, 1041.05 61.35, 1040.9 82.29 M1041.21 81.83 C749.68 84.55, 458.79 84.72, -0.18 82.04 M1041.08 81.81 C731.5 77.76, 421.53 78.02, 0.12 81.57 M-0.47 80.88 C0.75 48.8, -1.66 16.63, -1.85 0.82 M0.17 82.08 C1.09 60.22, 0.25 40.65, -0.18 0.41" stroke="#1e1e1e" stroke-width="1" fill="none"></path></g><g transform="translate(536.0926210311759 479.15670454157504) rotate(0 34.599998474121094 12.5)"><text x="34.599998474121094" y="0" font-family="Virgil, Segoe UI Emoji" font-size="20px" fill="#1e1e1e" text-anchor="middle" style="white-space: pre;" direction="ltr" dominant-baseline="text-before-edge">운영체제</text></g><g transform="translate(554.1267012017315 556.6460763478707) rotate(0 25.94999885559082 12.5)"><text x="0" y="0" font-family="Virgil, Segoe UI Emoji" font-size="20px" fill="#1e1e1e" text-anchor="start" style="white-space: pre;" direction="ltr" dominant-baseline="text-before-edge">컴퓨터</text></g><g stroke-linecap="round"><g transform="translate(570.692619505297 452.15336089461084) rotate(0 0.6327401716800978 -21.394773080396305)"><path d="M1.84 -1.85 C-0.56 -13.6, 1.8 -25.79, 0.56 -42.84 M-0.81 0.05 C1.26 -10.08, 0.85 -19.09, 2.07 -41.91" stroke="#1e1e1e" stroke-width="1" fill="none"></path></g></g><mask></mask><g stroke-linecap="round"><g transform="translate(236.825650618052 327.27182291388567) rotate(0 1.6678545578529906 -17.636121543702984)"><path d="M0.93 -0.09 C-0.92 -12.35, 1.28 -23.62, 1.19 -35.65 M-0.17 0.58 C0.09 -8.27, 0.43 -18.32, 3.51 -35.85" stroke="#1e1e1e" stroke-width="1" fill="none"></path></g></g><mask></mask><g stroke-linecap="round"><g transform="translate(766.935036332151 324.72322009795244) rotate(0 -0.7545468677376448 -16.70351780718704)"><path d="M-1.83 1.02 C-0.7 -6.64, 0.71 -13.03, -0.55 -34.43 M0.33 -0.53 C-0.65 -10.12, -1.59 -20.84, -1.84 -32.27" stroke="#1e1e1e" stroke-width="1" fill="none"></path></g></g><mask></mask><g stroke-linecap="round"><g transform="translate(1115.9610241913088 203.79405638902608) rotate(0 17.858032909246845 -0.8561034523119702)"><path d="M1.7 0.87 C8.24 -2.06, 19.88 0.43, 35.16 -2.04 M0.56 0.49 C7.96 -0.7, 15.33 -0.71, 33.06 -2.59" stroke="#1e1e1e" stroke-width="1" fill="none"></path></g></g><mask></mask><g transform="translate(1157.7808155942457 189.03413001151876) rotate(0 34.599998474121094 12.5)"><text x="0" y="0" font-family="Virgil, Segoe UI Emoji" font-size="20px" fill="#1e1e1e" text-anchor="start" style="white-space: pre;" direction="ltr" dominant-baseline="text-before-edge">호스트명</text></g><g stroke-linecap="round"><g transform="translate(1117.258406961727 240.49381098071717) rotate(0 17.429611024471683 -0.7464200280775799)"><path d="M1.27 1.3 C13.38 -0.54, 21.55 -0.59, 35.17 -0.73 M-0.31 0.48 C11.45 -1.41, 23.88 -1.6, 33.19 -2.79" stroke="#1e1e1e" stroke-width="1" fill="none"></path></g></g><mask></mask><g transform="translate(1159.0781983646648 225.73388460320984) rotate(0 34.36000061035156 12.5)"><text x="0" y="0" font-family="Virgil, Segoe UI Emoji" font-size="20px" fill="#1e1e1e" text-anchor="start" style="white-space: pre;" direction="ltr" dominant-baseline="text-before-edge">IP 주소</text></g><g stroke-linecap="round"><g transform="translate(1117.258406961727 274.3186422625048) rotate(0 16.023074776424778 -1.0355090745001974)"><path d="M-1.29 0.39 C14.06 0.47, 25.2 -1.02, 33.34 -2.47 M0.68 -0.29 C11.54 -1.34, 23.85 -1.52, 32.68 -1.45" stroke="#1e1e1e" stroke-width="1" fill="none"></path></g></g><mask></mask><g transform="translate(1159.0781983646648 259.55871588499747) rotate(0 65.55000305175781 12.5)"><text x="0" y="0" font-family="Virgil, Segoe UI Emoji" font-size="20px" fill="#1e1e1e" text-anchor="start" style="white-space: pre;" direction="ltr" dominant-baseline="text-before-edge">디스크 드라이브</text></g><g stroke-linecap="round"><g transform="translate(1116.8289695921794 312.0626817565445) rotate(0 17.28398647953452 -0.8400288437662198)"><path d="M0.18 -1.8 C8.02 -0.98, 16.8 -1.45, 34.38 -1.33 M0.33 0.26 C8.09 -0.07, 16.75 -1.71, 34.2 -1.94" stroke="#1e1e1e" stroke-width="1" fill="none"></path></g></g><mask></mask><g transform="translate(1158.6487609951173 296.7650772190592) rotate(0 20.190000534057617 12.5)"><text x="0" y="0" font-family="Virgil, Segoe UI Emoji" font-size="20px" fill="#1e1e1e" text-anchor="start" style="white-space: pre;" direction="ltr" dominant-baseline="text-before-edge">CPU</text></g><g stroke-linecap="round"><g transform="translate(1115.2159351122452 348.62479663504354) rotate(0 16.819269734925342 -0.3111648088490142)"><path d="M1.16 1.83 C12.42 1.4, 25.96 -1.33, 31.26 -1.21 M0.53 0.63 C9.26 0.08, 19.99 -0.18, 33.11 -2.45" stroke="#1e1e1e" stroke-width="1" fill="none"></path></g></g><mask></mask><g transform="translate(1157.0357265151831 333.8648702575362) rotate(0 25.94999885559082 12.5)"><text x="0" y="0" font-family="Virgil, Segoe UI Emoji" font-size="20px" fill="#1e1e1e" text-anchor="start" style="white-space: pre;" direction="ltr" dominant-baseline="text-before-edge">메모리</text></g><g stroke-linecap="round" transform="translate(96.78393224232809 178.09861907163491) rotate(0 134.06933126235822 33.824831281787624)"><path d="M-0.96 -1.51 C78.2 -1.35, 157.01 -1.14, 266.73 0.08 M0.06 -0.59 C67.3 -0.6, 134.08 -0.09, 267.8 0.22 M268.65 0.56 C269.38 18.48, 265.98 37.58, 269.23 69.18 M267.2 0.08 C268.78 27.71, 268.34 54.52, 267.19 67.39 M268.9 66.75 C176.96 69.6, 83.45 68.1, 0.47 67.77 M267.86 67.21 C184.85 65.95, 101.07 65.66, -0.54 68 M-0.24 68.5 C-1.97 44.34, 1.69 19.04, -1.11 -1.08 M-0.78 67.8 C-0.33 52.65, -1.14 36.83, 0 0.42" stroke="#1e1e1e" stroke-width="1" fill="none"></path></g><g transform="translate(193.54326594609256 199.42345035342254) rotate(0 37.30999755859375 12.5)"><text x="37.30999755859375" y="0" font-family="Virgil, Segoe UI Emoji" font-size="20px" fill="#1e1e1e" text-anchor="middle" style="white-space: pre;" direction="ltr" dominant-baseline="text-before-edge">운영체제1</text></g><g stroke-linecap="round" transform="translate(615.8168166286919 80.30831291383757) rotate(0 151.90424230184624 103.79659458912944)"><path d="M0.45 0.44 C84.73 2.3, 166.48 -0.25, 304.03 -0.57 M302.79 0.98 C302.95 64.22, 303.27 126.02, 304.56 207.66 M304.04 206.79 C192.2 206.68, 79.41 207.72, -0.61 206.88 M-1.24 206.39 C-0.84 147.37, 2.16 84.65, -0.91 0.46" stroke="#1e1e1e" stroke-width="1.5" fill="none" stroke-dasharray="8 9"></path></g><g stroke-linecap="round" transform="translate(635.5986630357866 93.17767703490804) rotate(0 134.06933126235822 33.824831281787624)"><path d="M0.85 1.52 C67.98 -1.88, 139.28 -1.25, 268.17 -1.4 M0.35 0.65 C68.9 -0.93, 137.16 -1.13, 268.69 0.32 M269.12 -1.52 C268.56 20.79, 267.41 40.77, 267.99 66.91 M267.29 0.28 C268.5 14, 267.16 29.93, 267.24 67.85 M268.38 67.77 C163.76 69.43, 57.98 70.81, -0.9 66.71 M267.87 67.63 C176.51 66.27, 84.1 66.46, -0.47 68.35 M1.3 67.14 C-1.7 53.2, 1.51 38.39, -0.45 0.09 M-0.93 66.93 C-0.4 47.33, -1.07 26.01, -0.18 -0.96" stroke="#1e1e1e" stroke-width="1" fill="none"></path></g><g transform="translate(705.6479900256838 114.50250831669567) rotate(0 64.02000427246094 12.5)"><text x="64.02000427246094" y="0" font-family="Virgil, Segoe UI Emoji" font-size="20px" fill="#1e1e1e" text-anchor="middle" style="white-space: pre;" direction="ltr" dominant-baseline="text-before-edge">애플리케이션 2</text></g><g transform="translate(721.5962890008277 248.06059198135688) rotate(0 51.71999740600586 12.5)"><text x="0" y="0" font-family="Virgil, Segoe UI Emoji" font-size="20px" fill="#1e1e1e" text-anchor="start" style="white-space: pre;" direction="ltr" dominant-baseline="text-before-edge">가상 머신 2</text></g><g stroke-linecap="round"><g transform="translate(920.2722440893717 100.7650417939933) rotate(0 17.460000604881657 -0.6840630159713328)"><path d="M0.05 -1.78 C6.43 -1.43, 15.75 0.2, 34.87 -0.6 M0.7 0.41 C11.03 -0.46, 21.35 -0.74, 32.45 -1.69" stroke="#1e1e1e" stroke-width="1" fill="none"></path></g></g><mask></mask><g transform="translate(962.0920354923092 86.00511541648598) rotate(0 34.599998474121094 12.5)"><text x="0" y="0" font-family="Virgil, Segoe UI Emoji" font-size="20px" fill="#1e1e1e" text-anchor="start" style="white-space: pre;" direction="ltr" dominant-baseline="text-before-edge">호스트명</text></g><g stroke-linecap="round"><g transform="translate(921.5696268597903 137.4647963856844) rotate(0 16.36454389712469 -0.5079312195889685)"><path d="M1.1 0.88 C8.68 1.05, 14.62 0.26, 33.28 -0.45 M-0.55 0.49 C10.57 -0.53, 22.62 -1.73, 32.72 -1.92" stroke="#1e1e1e" stroke-width="1" fill="none"></path></g></g><mask></mask><g transform="translate(963.3894182627278 122.70487000817707) rotate(0 34.36000061035156 12.5)"><text x="0" y="0" font-family="Virgil, Segoe UI Emoji" font-size="20px" fill="#1e1e1e" text-anchor="start" style="white-space: pre;" direction="ltr" dominant-baseline="text-before-edge">IP 주소</text></g><g stroke-linecap="round"><g transform="translate(921.5696268597903 171.28962766747202) rotate(0 16.746912074300212 -1.0522104184312298)"><path d="M0.6 0.85 C11.49 0.55, 23.66 -1.31, 33.53 -2.95 M-0.04 -0.42 C11.11 -0.77, 22.82 -2.15, 32.51 -2.52" stroke="#1e1e1e" stroke-width="1" fill="none"></path></g></g><mask></mask><g transform="translate(963.3894182627278 156.5297012899647) rotate(0 65.55000305175781 12.5)"><text x="0" y="0" font-family="Virgil, Segoe UI Emoji" font-size="20px" fill="#1e1e1e" text-anchor="start" style="white-space: pre;" direction="ltr" dominant-baseline="text-before-edge">디스크 드라이브</text></g><g stroke-linecap="round" transform="translate(636.6043209788036 175.88849832282108) rotate(0 134.06933126235822 33.824831281787624)"><path d="M0.65 0.13 C92.1 -2.34, 184.45 -2.66, 268.39 -0.06 M-0.29 -0.63 C68.67 -0.37, 137.76 0.38, 268.79 -0.66 M268.53 1.88 C268.3 18.69, 268.62 33.83, 269.72 67.43 M267.54 0.44 C267.85 24.12, 268.31 49.94, 268.95 68.23 M269.53 66.29 C171.33 66.41, 74.15 65.99, -1.1 67.66 M268.17 67.75 C163.94 66.54, 58.07 66.61, 0 68.34 M-1.92 66.43 C-1.76 53.08, -0.7 34.19, -1.08 1.53 M-0.57 67.92 C-1.17 43.72, -0.79 19.74, 0.79 0.33" stroke="#1e1e1e" stroke-width="1" fill="none"></path></g><g transform="translate(728.9536548351559 197.2133296046087) rotate(0 41.71999740600586 12.5)"><text x="41.71999740600586" y="0" font-family="Virgil, Segoe UI Emoji" font-size="20px" fill="#1e1e1e" text-anchor="middle" style="white-space: pre;" direction="ltr" dominant-baseline="text-before-edge">운영체제2</text></g></svg>